<svg width="9" height="18" viewBox="0 0 9 18" xmlns="http://www.w3.org/2000/svg"><title>A-1</title><path d="M4.444 3.68h-.232c-.181.233-.181.233 0 .491h.179l-.454 7.652h1.03l-.44-7.762c.075-.108.07-.154-.016-.283l-.005-.097h-.062zM2.422.137h4.06L8.287 18H5.322l-.225-3.803H3.829L3.604 18H.66L2.422.136zM6.07 5.283c.155.18.336.18.49 0l-.077-.078c0-.026-.026-.052-.077-.077-.078-.052-.13-.207-.259-.155-.129.051-.077.206-.077.31zm.129 7.832c.077-.052.13-.104.077-.156 0-.025-.051-.077-.077-.077-.077.052-.103.104-.077.155l.077.078zm-.233-7.212c.078-.051.104-.103.078-.155l-.078-.078c-.077.052-.129.104-.077.156l.077.077zM3.05 8.54c0-.13.077-.26-.078-.336-.18-.052-.387-.052-.67.026 0 .258 0 .258.076.387.186.051.382.051.569 0 .025 0 .051-.052.103-.077zm-.284 3.748c.025-.052 0-.104-.078-.156-.026-.026-.077 0-.129 0-.103-.026-.155 0-.207.078-.051.078.052.155.207.155h.13c.025-.026.077-.052.077-.077z" fill="#203D61" fill-rule="evenodd"/></svg>