<svg width="9" height="18" viewBox="0 0 9 18" xmlns="http://www.w3.org/2000/svg"><title>A-2</title><path d="M2.452 2.629c.035.029.07.035.104.017l.078-.077c-.052-.077-.104-.104-.155-.077a.235.235 0 0 0-.014.007L2.698.136h4.06L8.564 18H5.6l-.226-3.803H4.105L3.88 18H.937L2.452 2.629zM4.696 3.68l-.483 8.142h1.031L4.782 3.68h-.086zm2.946 12.587c.026-.026 0-.051 0-.078-.05-.025-.077-.077-.103-.077h-.232c-.026 0-.078.052-.078.078-.026.026-.026.051 0 .077.052.13.336.13.413 0zM7.05 4.662c.077-.051.103-.103.077-.155L7.05 4.43c-.077.052-.13.103-.077.155l.077.077zm-.103 1.345c-.026.051 0 .103.077.155l.077-.078c.052-.052.026-.103-.077-.155l-.077.078zm.103 4.859c.077-.052.103-.104.077-.155l-.077-.078c-.077.052-.13.104-.077.156l.077.077zM3.486 8.617c.103-.052.129-.103.103-.155-.052-.052-.18-.129-.206-.258 0-.13-.026-.233-.129-.31-.103.025-.259-.052-.336.077-.026.233-.13.465.077.646h.49zm-.749 2.223c.052.026.103 0 .155-.078l-.077-.077c-.052-.026-.103 0-.155.078l.077.077zm-.723 2.275c.078-.052.13-.104.078-.156l-.078-.077c-.077.052-.103.104-.077.155l.077.078z" fill="#203D61" fill-rule="evenodd"/></svg>