<svg width="9" height="18" viewBox="0 0 9 18" xmlns="http://www.w3.org/2000/svg"><title>A-3</title><path d="M1.257 12.834a.207.207 0 0 0 .007-.069L2.509.135h4.06L8.376 18H5.41l-.226-3.803H3.917L3.69 18H.748l.509-5.166zm3.208-8.435l-.441 7.424h1.031l-.462-8.142h-.086l-.037.631-.04-.04c-.051-.025-.103 0-.153.077l.076.075c.037.018.075.01.112-.025zm2.622 6.813c.05.025.102 0 .153-.076l-.077-.076c-.05-.025-.102 0-.152.077l.076.075zM4.94 6.822V6.82c.052-.05.026-.1-.076-.15l-.076.075c-.026.05 0 .1.076.15l.076-.075zm-.23-5.577c.026-.05 0-.101-.076-.152l-.076.076c-.026.05 0 .1.076.15l.077-.074zM4.38 13.18c.076-.05.127-.1.076-.151-.025-.025-.05-.076-.076-.076-.077.05-.103.101-.077.152l.077.075zM4.252 2.405v-.479c-.23-.151-.23-.151-.486 0v.479c.23.177.23.177.486 0zm-.87 4.719c.077-.05.103-.101.077-.152-.025-.025-.051-.075-.077-.075-.076.05-.127.1-.076.151l.077.076zm-.255 3.154c.077-.05.128-.101.077-.152 0-.024-.051-.075-.077-.075-.076.05-.102.1-.076.152l.076.075zM1.722 15.3c.026-.05 0-.101-.076-.152l-.077.077c-.025.05 0 .1.077.15l.076-.075z" fill="#203D61" fill-rule="evenodd"/></svg>