<svg width="9" height="19" viewBox="0 0 9 19" xmlns="http://www.w3.org/2000/svg"><title>C</title><path d="M4.341.029a.285.285 0 0 0-.05.059l.078.077c.052.026.103 0 .155-.078 0-.02-.03-.039-.056-.059h.021c1.54 0 2.516.204 2.928.613.411.408.617 1.393.617 2.954v2.632H4.973V3.176c0-.287-.04-.487-.119-.602-.078-.114-.207-.172-.386-.172-.165 0-.283.06-.355.178-.071.118-.107.316-.107.596V14.98c0 .273.04.466.118.58.079.115.208.172.387.172.172 0 .292-.053.36-.16.068-.108.102-.305.102-.592v-4.554h3.061v4.114c0 1.576-.211 2.567-.634 2.976-.422.408-1.378.612-2.868.612-1.532 0-2.51-.206-2.932-.618-.423-.412-.634-1.402-.634-2.97V3.595c0-1.59.21-2.582.628-2.976C2 .24 2.914.042 4.341.03zm3.307 13.577c.181-.233.181-.233 0-.491h-.232c-.18.232-.18.232 0 .49h.232zm-1.445 1.706c.077-.052.103-.104.077-.207 0-.026.026-.078 0-.104-.052-.077-.103-.129-.155-.103-.026.026-.078.052-.078.078-.025.025 0 .077 0 .129 0 .155.078.258.156.207zM5.944 3.628l.078-.077c-.026-.078-.103-.103-.155-.078l-.077.078c.051.077.103.104.154.077zm-.284-2.43c.077-.05.104-.103.077-.154-.025-.026-.05-.078-.077-.078-.077.052-.129.104-.077.155l.077.078zm-.49 16.62c.077-.05.129-.103.077-.154l-.077-.078c-.078.052-.103.104-.078.156l.078.077zm-.698-1.55c.052-.051.026-.103-.077-.155l-.077.078c-.027.051 0 .103.077.154l.077-.077zM2.613 11.33c.051.026.103 0 .155-.077l-.078-.078c-.05-.026-.103 0-.154.078l.077.077z" fill="#203D61" fill-rule="evenodd"/></svg>