<svg width="8" height="18" viewBox="0 0 8 18" xmlns="http://www.w3.org/2000/svg"><title>D</title><path d="M.588.136h3.739c1.403 0 2.307.207 2.712.623.405.415.607 1.418.607 3.008v10.58c0 1.612-.202 2.624-.607 3.035-.405.412-1.302.618-2.69.618H.588V.136zm3.051 2.33V15.67h.269c.272 0 .453-.05.542-.15.09-.1.134-.366.134-.795V3.434c0-.444-.046-.717-.14-.817-.092-.1-.286-.15-.58-.15H3.64zm3.534 6.151c.104-.052.129-.103.104-.155-.053-.052-.181-.129-.207-.258 0-.13-.026-.233-.129-.31-.103.025-.259-.052-.336.077-.026.233-.13.465.077.646h.491zm-.749 2.223c.052.026.104 0 .155-.078l-.077-.077c-.052-.026-.103 0-.155.078l.077.077zm-.18-8.194l.077-.077c-.052-.077-.103-.104-.155-.077-.051.025-.103.077-.077.077.051.077.103.103.155.077zm-.542 10.469c.077-.052.128-.104.077-.156l-.078-.077c-.077.052-.103.104-.077.155l.078.078zM3.429 7.144c.077-.052.103-.104.077-.155-.025-.026-.051-.078-.077-.078-.077.052-.13.103-.077.156l.077.077zm-.284.465c.051.026.103 0 .154-.078l-.077-.077c-.051-.026-.103 0-.154.078l.077.077zm-.44 0h.001l.077-.078c-.026-.077-.103-.103-.155-.077l-.077.078c.052.077.103.103.155.077zm-1.161-.827c.18.18.336.18.516 0-.18-.181-.335-.181-.516 0z" fill="#203D61" fill-rule="evenodd"/></svg>