<svg width="5" height="18" viewBox="0 0 5 18" xmlns="http://www.w3.org/2000/svg"><title>E-2</title><path d="M.107.136h4.877v2.33H3.158v4.555h1.826v2.353H3.158v6.273h1.826V18H.107V.136zm2.337 6.698c.052-.052.026-.104-.077-.155l-.077.077c-.027.052 0 .104.077.155l.077-.077zM2.212 1.12c.025-.051 0-.103-.078-.155l-.077.078c-.026.051 0 .103.077.154l.078-.077zM1.85 4.378c.052.026.104 0 .155-.077l-.078-.078c-.05-.026-.103 0-.154.078l.077.077zm.026 8.97c.077-.052.129-.104.077-.156-.025-.026-.051-.077-.077-.077-.077.051-.103.103-.077.155l.077.077zM1.748 2.31v-.49c-.233-.156-.233-.156-.491 0v.49c.232.181.232.181.49 0zm-.052 13.467c.052-.052.026-.13-.078-.155l-.077.077c-.026.052 0 .103.078.155l.077-.077zM.87 7.143c.077-.051.103-.103.077-.155-.026-.026-.052-.077-.078-.077-.077.051-.129.103-.077.155l.078.077zm-.26 3.231c.078-.051.13-.103.078-.155 0-.025-.052-.077-.078-.077-.077.052-.103.103-.077.155l.077.077z" fill="#203D61" fill-rule="evenodd"/></svg>