<svg width="6" height="18" viewBox="0 0 6 18" xmlns="http://www.w3.org/2000/svg"><title>E</title><path d="M.565.136h4.877v2.33H3.616v4.555h1.826v2.353H3.616v6.273h1.826V18H.565V.136zM3.298 8.9c.18-.155.18-.336 0-.49-.18.154-.18.336 0 .49zm0 5.455c.077-.052.129-.104.077-.156l-.077-.077c-.077.051-.104.103-.077.155l.077.078zM2.626 3.344c.026-.026 0-.052 0-.077-.025-.026-.051-.078-.103-.078h-.232c-.026 0-.078.052-.078.078-.025.025-.025.051 0 .077.052.13.336.13.413 0zm-.335 8.762c.077-.05.103-.103.077-.155l-.077-.077c-.078.052-.13.104-.078.155l.078.077zm-.155 2.172c.026-.026 0-.052 0-.078-.052-.026-.078-.077-.103-.077H1.8c-.026 0-.077.051-.077.077-.026.026-.026.052 0 .078.051.129.335.129.413 0zm-.44-11.502v.077c.078.13.362.13.414 0v-.077c-.077-.13-.361-.13-.413 0zm-.464 15.043c.155.026.233.026.31.026l-.31-.026zm.052-13.622c-.077.052-.104.104-.077.156l.077.077c.077-.052.129-.104.077-.155-.025-.052-.077-.104-.077-.078z" fill="#203D61" fill-rule="evenodd"/></svg>