<svg width="10" height="18" viewBox="0 0 10 18" xmlns="http://www.w3.org/2000/svg"><title>M-2</title><path d="M6.504 10.375L5.667 18H4.055L2.895 7.44h-.183L2.831 18H.102V.136h3.556l1.128 8.561h.15L6.064.136H9.62V11.64a.492.492 0 0 0-.177.104c.061.061.12.102.177.121V18H6.902l.107-10.56h-.182l-.296 2.692c-.028-.006-.069.01-.11.01-.103-.026-.154 0-.206.078-.052.078.052.155.207.155h.082zm2.862-.776s.077-.051.077-.077c-.052-.026-.077-.104-.13-.13-.103-.051-.154 0-.103.104.026.052.104.078.156.103zm-.284-.18c.025 0 .103.025.103 0 .025-.078 0-.13-.052-.181-.051-.078-.103-.078-.155.026 0 .025.026.05.026.077l.078.077zm.077 1.37c.026-.027 0-.104-.077-.156l-.078.078c-.026.051 0 .103.078.155l.077-.078zm-.31-7.884c.129-.077.129-.362 0-.413h-.077c-.13.077-.13.361 0 .413h.077zM3.298 8.9c.18-.155.18-.336 0-.49-.18.154-.18.336 0 .49zm-.672-5.557c.026-.026 0-.052 0-.077-.025-.026-.051-.078-.103-.078h-.232c-.026 0-.078.052-.078.078-.025.025-.025.051 0 .077.052.13.336.13.413 0zm-.335 8.762c.077-.05.103-.103.077-.155l-.077-.077c-.078.052-.13.104-.078.155l.078.077zm-.155 2.172c.026-.026 0-.052 0-.078-.052-.026-.078-.077-.103-.077H1.8c-.026 0-.077.051-.077.077-.026.026-.026.052 0 .078.051.129.335.129.413 0zm-.44-11.502v.077c.078.13.362.13.414 0v-.077c-.077-.13-.361-.13-.413 0zm-.464 15.043c.155.026.233.026.31.026l-.31-.026zm.052-13.622c-.077.052-.104.104-.077.156l.077.077c.077-.052.129-.104.077-.155-.025-.052-.077-.104-.077-.078zM.277 3.913c.077-.052.129-.104.077-.155L.277 3.68c-.078.052-.103.104-.078.156l.078.077z" fill="#203D61" fill-rule="evenodd"/></svg>