<svg width="8" height="18" viewBox="0 0 8 18" xmlns="http://www.w3.org/2000/svg"><title>N</title><path d="M3.419 16.34c-.098-.01-.192.034-.278.135.098.098.189.143.28.135L3.43 18H.777V.136h2.729l.684 3.657a.09.09 0 0 0 .006.036l.975 5.212h.14l-.028-4.612c.078-.05.13-.103.078-.154-.025-.052-.077-.104-.077-.078l-.003.002L5.257.136h2.642V18H5.192L3.506 8.848h-.14l.053 7.493zm3.879-7.439c.18-.155.18-.336 0-.49-.18.154-.18.336 0 .49zm0 5.455c.077-.052.129-.104.077-.156l-.077-.077c-.077.051-.104.103-.077.155l.077.078zM6.626 3.344c.026-.026 0-.052 0-.077-.025-.026-.051-.078-.103-.078h-.232c-.026 0-.078.052-.078.078-.025.025-.025.051 0 .077.052.13.336.13.413 0zm-.335 8.762c.077-.05.103-.103.077-.155l-.077-.077c-.078.052-.13.104-.078.155l.078.077zm-.155 2.172c.026-.026 0-.052 0-.078-.052-.026-.078-.077-.103-.077H5.8c-.026 0-.077.051-.077.077-.026.026-.026.052 0 .078.051.129.335.129.413 0zm-.44-11.502v.077c.078.13.362.13.414 0v-.077c-.077-.13-.361-.13-.413 0zm-.464 15.043c.155.026.233.026.31.026l-.31-.026zM1.643 3.577c.18.18.336.18.491 0l-.336-.336c-.232.026-.155.207-.155.336z" fill="#203D61" fill-rule="evenodd"/></svg>