<svg width="8" height="18" viewBox="0 0 8 18" xmlns="http://www.w3.org/2000/svg"><title>R</title><path d="M.903 3.346V.136h3.739C5.974.136 6.86.36 7.3.807c.44.448.66 1.434.66 2.96v2.33c0 1.003-.101 1.709-.305 2.117-.204.408-.564.73-1.08.967.501.193.858.492 1.069.897.211.404.317 1.022.317 1.853V18H4.92v-3.625c.087 0 .176-.033.215-.097.026-.026 0-.052 0-.078-.052-.026-.078-.077-.103-.077H4.92v-2.74c0-.294-.056-.503-.167-.629-.11-.125-.295-.188-.553-.188-.028 0-.07.004-.123.011-.054.007-.095.01-.124.01V18H.904V3.712c.078-.002.154-.047.23-.135l-.23-.23zm3.908-.657a.26.26 0 0 0-.04-.061c-.1-.107-.305-.161-.613-.161h-.204v5.457c.036 0 .084.003.145.01.061.008.102.011.124.011.272 0 .456-.062.553-.188.097-.125.145-.37.145-.736V3.595c0-.27-.013-.485-.038-.646.097.008.198-.024.227-.096v-.077c-.051-.086-.193-.115-.299-.087zm1.487 6.212c.18-.155.18-.336 0-.49-.18.154-.18.336 0 .49zm0 5.455c.077-.052.129-.104.077-.156l-.077-.077c-.077.051-.104.103-.077.155l.077.078zM5.626 3.344c.026-.026 0-.052 0-.077-.025-.026-.051-.078-.103-.078h-.232c-.026 0-.078.052-.078.078-.025.025-.025.051 0 .077.052.13.336.13.413 0zm-.335 8.762c.077-.05.103-.103.077-.155l-.077-.077c-.078.052-.13.104-.078.155l.078.077zM3.277 3.913c.077-.052.129-.104.077-.155l-.077-.078c-.078.052-.103.104-.078.156l.078.077zM2.14 16.475c.18.181.335.181.516 0-.18-.181-.362-.181-.516 0z" fill="#203D61" fill-rule="evenodd"/></svg>