<svg width="173" height="71" viewBox="0 0 173 71" xmlns="http://www.w3.org/2000/svg" xmlns:xlink="http://www.w3.org/1999/xlink"><title>AMD_RRating_K</title><defs><path id="a" d="M81.905.62H0v70.32h163.81V.62H81.905z"/></defs><g fill="none" fill-rule="evenodd"><path d="M168.188 66.511h.473c.539 0 .995-.196.995-.701 0-.359-.261-.717-.995-.717-.211 0-.358.016-.473.033v1.385zm0 2.265h-.651v-4.089c.342-.05.669-.1 1.157-.1.619 0 1.027.131 1.271.311.244.178.375.456.375.847 0 .537-.359.863-.799.994v.034c.36.063.604.389.685.993.098.635.195.88.261 1.01h-.684c-.099-.13-.197-.505-.278-1.043-.097-.521-.359-.716-.88-.716h-.457v1.759zm.686-5.232c-1.614 0-2.934 1.387-2.934 3.098 0 1.743 1.32 3.112 2.949 3.112 1.631.017 2.934-1.369 2.934-3.097 0-1.726-1.303-3.113-2.934-3.113h-.015zm.015-.57c2.005 0 3.602 1.631 3.602 3.668 0 2.069-1.597 3.682-3.617 3.682-2.004 0-3.634-1.613-3.634-3.682 0-2.037 1.63-3.668 3.634-3.668h.015zm-11.079 4.058c.851-.541 1.404-1.252 1.506-2.039h1.363c-.193.821-1.281 1.563-2.869 2.039zm-.704-2.039h1.705c-.168 1.031-1.313 1.9-2.908 2.319a3.336 3.336 0 0 0 1.203-2.319zm-8.378 0h1.706a3.335 3.335 0 0 0 1.202 2.319c-1.595-.419-2.739-1.288-2.908-2.319zm-1.868 0h1.363c.103.787.656 1.498 1.507 2.04-1.589-.477-2.677-1.219-2.87-2.04zm2.87-2.565c-.86.547-1.417 1.267-1.51 2.066h-1.366c.178-.831 1.27-1.585 2.876-2.066zm.702 2.066h-1.706c.152-1.042 1.302-1.925 2.91-2.346a3.341 3.341 0 0 0-1.204 2.346zm3.338 3.085a2.85 2.85 0 1 1-.002-5.7 2.85 2.85 0 0 1 .002 5.7zm5.044-3.085h-1.707a3.344 3.344 0 0 0-1.203-2.346c1.607.421 2.757 1.304 2.91 2.346zm1.871 0h-1.366c-.093-.799-.65-1.519-1.509-2.066 1.605.481 2.699 1.235 2.875 2.066zm-6.915-3.113c-4.11 0-7.442 1.499-7.442 3.349 0 1.849 3.332 3.349 7.442 3.349 4.109 0 7.442-1.5 7.442-3.349 0-1.85-3.333-3.349-7.442-3.349z" fill="#16375A"/><path d="M153.365 64.73a.392.392 0 1 1 .784 0 .392.392 0 0 1-.784 0m.405-1.72l.525-.523c-.323-.323-.728-.323-1.051 0l.526.523m.418.612a.729.729 0 1 1 1.458.002.729.729 0 0 1-1.458-.002m-2.303 0a.73.73 0 1 1 1.458.002.73.73 0 0 1-1.458-.002m.041 2.256a.73.73 0 1 1 1.458 0 .73.73 0 0 1-1.458 0m2.201-.013a.73.73 0 1 1 1.459-.001.73.73 0 0 1-1.459.001m-.371.567l-.527.522c.324.323.729.323 1.054 0l-.527-.522m1.684-1.699l.522.528c.324-.324.324-.731 0-1.054l-.522.526" fill="#16375A"/><mask id="b" fill="#fff"><use xlink:href="#a"/></mask><path d="M152.045 64.733l-.521.528c-.324-.324-.324-.731 0-1.054l.521.526" fill="#16375A" mask="url(#b)"/><path d="M47.82 8.126h.251c.583 0 1.408-.06 1.408-1.916 0-1.746-.814-1.805-1.408-1.805h-.251v3.721zm-1.468-4.701h1.579c1.025 0 3.107.009 3.107 2.802 0 1.064-.372 2.018-1.097 2.486-.593.391-1.316.391-1.83.391h-1.759V3.425zm-.764 0v.98h-2.604v1.311h2.021v.979h-2.021v1.396h2.604v1.013h-4.072V3.425h4.072zm-4.635 0V4.49h-1.367v4.614h-1.468V4.49H36.78V3.425h4.173zM36.64 7.112c-.111 1.15-.875 2.077-2.343 2.077-2.041 0-2.524-1.626-2.524-2.92 0-1.03.302-2.929 2.544-2.929 1.016 0 1.518.392 1.82.766.392.495.443 1.09.473 1.431l-1.338.085c-.04-.451-.1-1.268-.945-1.268-.834 0-1.005.859-1.005 2.009 0 .953.13 1.813 1.005 1.813.795 0 .905-.834.955-1.14l1.358.076zm-7.401 1.992h1.468V3.425h-1.468v5.679zm-4.052-4.759v1.601h.654c.634 0 .865-.349.865-.818 0-.783-.674-.783-.925-.783h-.594zm.634-.92c.674 0 1.328 0 1.84.486.352.332.483.783.483 1.235 0 1.004-.614 1.311-.945 1.481l1.237 2.477h-1.609l-.895-2.239h-.745v2.239h-1.468V3.425h2.102zm-2.664 0V4.49H21.79v4.614h-1.469V4.49h-1.337V3.425h4.173zM17.436 5.06c-.081-.204-.271-.706-.945-.706-.493 0-.704.289-.704.519 0 .392.442.528 1.156.757.755.247 1.851.597 1.851 1.746 0 .971-.805 1.813-2.383 1.813-.483 0-1.207-.076-1.75-.595a2.177 2.177 0 0 1-.573-.963l1.287-.306c.08.256.271.851 1.076.851.503 0 .855-.238.855-.613 0-.4-.423-.561-.926-.715-.915-.281-2.021-.613-2.021-1.771 0-.885.674-1.737 2.142-1.737 1.669 0 2.021.945 2.162 1.32l-1.227.4zm-3.64-1.635v.98h-2.604v1.311h2.021v.979h-2.021v1.396h2.604v1.013H9.724V3.425h4.072zm-8.124.92v1.601h.654c.634 0 .865-.349.865-.818 0-.783-.674-.783-.925-.783h-.594zm.634-.92c.673 0 1.327 0 1.84.486.352.332.483.783.483 1.235 0 1.004-.614 1.311-.945 1.481L8.92 9.104H7.312l-.895-2.239h-.745v2.239H4.204V3.425h2.102zm49.022 54.53h107.064V2.088H55.328v55.867zm89.958 11.632h17.106V59.255h-17.106v10.332zm-143.961 0h142.648V59.255H1.325v10.332zm0-11.608h52.601V11.434H1.325v46.545zM0 71h163.81V.62H0V71z" fill="#16375A" mask="url(#b)"/><path d="M4.36 61.533v3.086c0 .787 0 1.435.577 1.435.274 0 .401-.17.468-.357.073-.211.073-.486.073-1.078v-3.086h.747v3.038c0 .956 0 1.702-.493 2.139-.187.162-.455.308-.874.308-1.379 0-1.384-1.248-1.384-2.399v-3.086h.886m3.372 1.409v.543c.122-.332.279-.632.747-.632.115 0 .456 0 .662.422.121.25.121.64.121 1.038v2.625H8.43v-2.625c0-.358-.024-.592-.285-.592-.371 0-.371.388-.371.875v2.342h-.832v-3.996h.79m3.59 1.677c0-.355 0-.996-.364-.996-.322 0-.364.519-.364 1.158 0 .779 0 1.444.358 1.444.37 0 .37-.609.37-.901v-.705zm.82-3.086v5.405h-.771v-.657c-.085.291-.212.713-.686.713-.802 0-.954-1.24-.954-2.034 0-.315 0-2.074.99-2.074.401 0 .523.258.601.421v-1.774h.82zm2.163 2.949c.006-.218.018-.891-.389-.891-.376 0-.383.607-.389.891h.778zm-.784.64c-.006.543-.012 1.126.401 1.126.358 0 .401-.43.425-.688l.747.065c-.061.372-.225 1.393-1.19 1.393-.917 0-1.245-.964-1.245-2.026 0-.26.024-.89.224-1.377.213-.51.608-.762 1.014-.762.523 0 .845.389.979.729.212.543.218 1.054.218 1.54h-1.573zm2.819-2.18v.964c.073-.34.219-1.02.705-1.02a.39.39 0 0 1 .145.024v1.086c-.073-.016-.109-.016-.14-.016-.613 0-.613.923-.613 1.231v1.727h-.832v-3.996h.735m4.531 3.112h.668v.884h-2.235v-.884h.68v-3.193a2.788 2.788 0 0 1-.68.681v-1.061c.48-.34.717-.689.887-.997h.68v4.57m1.403-4.521h2.405v.906c-.413.762-.953 1.889-.984 4.499h-.965c.006-.407.018-1.273.316-2.342.291-1.054.662-1.654.868-2.002h-1.706l.066-1.061m5.583.875v1.524h.394c.383 0 .523-.333.523-.779 0-.745-.407-.745-.559-.745h-.358zm.382-.875c.407 0 .802 0 1.112.461.212.317.291.746.291 1.176 0 .955-.371 1.247-.571 1.409l.747 2.359h-.971l-.541-2.131h-.449v2.131h-.887v-5.405h1.269zm3.457 2.949c.007-.218.018-.891-.388-.891-.377 0-.383.607-.389.891h.777zm-.783.64c-.006.543-.013 1.126.401 1.126.357 0 .4-.43.425-.688l.747.065c-.061.372-.225 1.393-1.191 1.393-.917 0-1.245-.964-1.245-2.026 0-.26.025-.89.225-1.377.213-.51.607-.762 1.014-.762.523 0 .844.389.978.729.213.543.219 1.054.219 1.54h-1.573zm3.517-.591c0-.633-.079-.908-.352-.908-.298 0-.353.283-.353 1.215 0 .867.013 1.387.353 1.387.322 0 .352-.52.352-1.103v-.591zm.844-1.589c-.024.341-.024.568-.024 1.021v4.327h-.82v-1.767c-.085.163-.255.471-.62.471-.558 0-.947-.721-.947-1.985 0-.552.03-2.123 1.014-2.123.425 0 .608.364.71.575.11-.17.153-.26.232-.519h.455zm1.434 0v2.57c0 .396 0 .647.286.647.37 0 .37-.315.37-1.175v-2.042h.832v3.996h-.783v-.551c-.152.34-.286.631-.772.631-.764 0-.764-.745-.764-1.475v-2.601h.831m2.131 3.995h.832v-3.995h-.832v3.995zm-.006-4.335h.844V61.5h-.844v1.102zm2.211.34v.964c.073-.34.219-1.02.705-1.02.06 0 .103.008.145.024v1.086c-.072-.016-.109-.016-.14-.016-.613 0-.613.923-.613 1.231v1.727h-.832v-3.996h.735m2.673 1.54c.006-.218.019-.891-.388-.891-.377 0-.383.607-.389.891h.777zm-.783.64c-.007.543-.013 1.126.4 1.126.359 0 .402-.43.425-.688l.747.065c-.06.372-.224 1.393-1.19 1.393-.917 0-1.244-.964-1.244-2.026 0-.26.023-.89.224-1.377.212-.51.608-.762 1.014-.762.523 0 .845.389.978.729.213.543.218 1.054.218 1.54h-1.572zm3.463-.988c-.049-.202-.134-.543-.438-.543-.194 0-.26.186-.26.348 0 .316.164.389.498.551.419.195.886.413.886 1.223 0 .592-.31 1.305-1.135 1.305-.985 0-1.088-.891-1.124-1.191l.662-.145c.024.153.097.599.473.599.085 0 .334-.025.334-.373 0-.316-.181-.396-.479-.527-.316-.129-.899-.397-.899-1.256 0-.858.528-1.272 1.063-1.272.504 0 .904.389 1.014 1.045l-.595.236m3.96.761l-.406-2.204-.395 2.204h.801zm.122-3.362l1.153 5.405h-.904l-.207-1.111h-1.136l-.2 1.111h-.819l1.214-5.405h.899zm2.904 2.916c-.03-.574-.133-.745-.328-.745-.249 0-.419.268-.419 1.183 0 .599.049 1.232.401 1.232.267 0 .328-.324.346-.738l.778.065c-.037.413-.128 1.572-1.173 1.572-1.02 0-1.19-1.223-1.19-2.075 0-1.077.291-2.09 1.233-2.09.273 0 .571.073.807.414.28.405.304.801.323 1.142l-.778.04m2.716 0c-.03-.574-.134-.745-.328-.745-.249 0-.419.268-.419 1.183 0 .599.048 1.232.4 1.232.268 0 .329-.324.347-.738l.777.065c-.037.413-.127 1.572-1.172 1.572-1.02 0-1.19-1.223-1.19-2.075 0-1.077.291-2.09 1.233-2.09.273 0 .571.073.807.414.28.405.304.801.322 1.142l-.777.04m2.339-.818c-.268 0-.352.324-.352 1.305 0 1.061.109 1.304.358 1.304.243 0 .352-.234.352-1.304 0-1.03-.097-1.305-.352-1.305h-.006zm1.221 1.305c0 1.28-.346 2.082-1.221 2.082-.862 0-1.215-.793-1.215-2.082 0-1.248.328-2.083 1.221-2.083.887 0 1.215.835 1.215 2.083zm.515-1.994h.79v.543c.085-.227.237-.632.729-.632.51 0 .595.397.644.632.09-.267.248-.632.735-.632.765 0 .765.746.765 1.467v2.618h-.833v-2.504c0-.454 0-.713-.267-.713-.303 0-.316.315-.316.89v2.327h-.832v-2.529c0-.486-.011-.68-.26-.68-.298 0-.323.324-.323.882v2.327h-.832v-3.996m5.085 2.367c0 .575 0 .916.352.916.341 0 .371-.494.371-1.338 0-.705-.024-1.264-.347-1.264-.376 0-.376.567-.376.924v.762zm-.048-2.367v.6c.103-.259.267-.656.673-.656.201 0 .426.113.572.307.291.398.388 1.022.388 1.694 0 .567-.06 2.107-1.014 2.107-.328 0-.48-.219-.571-.348v1.644h-.82v-5.348h.772zm3.565 2.083c-.48.081-.68.235-.68.753 0 .285.079.503.28.503.102 0 .194-.065.273-.218.115-.228.127-.479.127-.844v-.194zm-1.439-.923c.024-.227.073-.705.498-1.03.212-.162.461-.219.71-.219.316 0 .644.106.869.422.182.243.194.697.194 1.182v1.589c0 .681.019.753.049.892h-.772c-.036-.163-.042-.252-.042-.617-.109.259-.303.697-.826.697-.401 0-.783-.308-.783-1.094 0-1.11.649-1.401 1.542-1.467v-.153c0-.349 0-.713-.298-.713-.279 0-.334.3-.357.616l-.784-.105zm3.706-1.16v.543c.121-.332.279-.632.746-.632.116 0 .456 0 .662.422.122.25.122.64.122 1.038v2.625h-.832v-2.625c0-.358-.025-.592-.286-.592-.37 0-.37.388-.37.875v2.342h-.832v-3.996h.79m2.49 0l.407 2.448.389-2.448h.716l-.899 4.068c-.17.754-.304 1.346-.966 1.346-.163 0-.255-.034-.357-.066v-.875a.996.996 0 0 0 .236.024c.328 0 .395-.097.498-.575l-.856-3.922h.832m1.767 3.995h.832v-3.995H75.3v3.995zm-.005-4.335h.844V61.5h-.844v1.102zm2.265.34v.543c.121-.332.279-.632.746-.632.116 0 .456 0 .662.422.122.25.122.64.122 1.038v2.625h-.832v-2.625c0-.358-.024-.592-.286-.592-.37 0-.37.388-.37.875v2.342h-.832v-3.996h.79m2.97 1.183c0 .244.017.616.285.616.219 0 .273-.218.273-.639 0-.495-.09-.649-.26-.649-.219 0-.298.211-.298.672zm-.34 3.12c0 .283.212.405.661.405.432 0 .613-.122.613-.421 0-.308-.2-.381-.327-.389-.097-.016-.577-.057-.686-.072a.511.511 0 0 0-.261.477zm2.034-4.237a.515.515 0 0 0-.182-.033c-.097 0-.261.016-.316.365.225.308.225.713.225.802 0 .801-.51 1.199-1.081 1.199-.183 0-.291-.04-.395-.073-.194.146-.194.3-.194.332 0 .218.176.235.498.267.68.049.887.065 1.099.268.231.211.309.543.309.883 0 1.24-.977 1.329-1.463 1.329-.255 0-1.226 0-1.226-.949 0-.494.297-.656.485-.745-.097-.065-.389-.243-.389-.688 0-.486.316-.73.517-.883-.183-.13-.443-.324-.443-.997 0-.948.6-1.232 1.117-1.232.328 0 .498.098.643.186.043-.412.11-.793.566-.793.115 0 .17.024.23.04v.722zm2.807-.6v1.604h.279c.31 0 .57-.089.57-.811 0-.793-.376-.793-.57-.793h-.279zm.279-.875c.425 0 .868 0 1.172.412.279.39.34.908.34 1.282 0 .534-.11 1.077-.425 1.401-.304.315-.802.315-1.051.315h-.315v1.995h-.887v-5.405h1.166zm3.152 3.492c-.479.081-.679.235-.679.753 0 .285.079.503.279.503.104 0 .194-.065.274-.218.115-.228.126-.479.126-.844v-.194zm-1.439-.923c.024-.227.073-.705.498-1.03.213-.162.462-.219.711-.219.315 0 .644.106.868.422.183.243.195.697.195 1.182v1.589c0 .681.018.753.048.892h-.771c-.036-.163-.042-.252-.042-.617-.11.259-.304.697-.826.697-.402 0-.784-.308-.784-1.094 0-1.11.65-1.401 1.542-1.467v-.153c0-.349 0-.713-.296-.713-.281 0-.335.3-.359.616l-.784-.105zm3.651-1.16v.964c.073-.34.218-1.02.704-1.02.061 0 .104.008.146.024v1.086c-.072-.016-.109-.016-.14-.016-.613 0-.613.923-.613 1.231v1.727h-.832v-3.996h.735m2.673 1.54c.006-.218.018-.891-.388-.891-.377 0-.383.607-.389.891h.777zm-.783.64c-.007.543-.013 1.126.4 1.126.359 0 .401-.43.425-.688l.747.065c-.06.372-.224 1.393-1.19 1.393-.917 0-1.244-.964-1.244-2.026 0-.26.023-.89.224-1.377.212-.51.608-.762 1.014-.762.522 0 .845.389.978.729.212.543.218 1.054.218 1.54h-1.572zm2.874-2.18v.543c.121-.332.279-.632.747-.632.115 0 .455 0 .661.422.122.25.122.64.122 1.038v2.625h-.832v-2.625c0-.358-.024-.592-.286-.592-.37 0-.37.388-.37.875v2.342h-.832v-3.996h.79m3.067-1.263v1.263h.553v.875h-.553v1.467c0 .753 0 .851.595.802v.852c-.121.031-.291.08-.515.08-.274 0-.578-.089-.748-.412-.145-.285-.145-.69-.145-1.2v-1.589h-.328v-.875h.37l.066-1.174.705-.089m3.608 1.952c-.268 0-.353.324-.353 1.305 0 1.061.11 1.304.359 1.304.243 0 .352-.234.352-1.304 0-1.03-.097-1.305-.352-1.305h-.006zm1.22 1.305c0 1.28-.345 2.082-1.22 2.082-.863 0-1.215-.793-1.215-2.082 0-1.248.328-2.083 1.221-2.083.886 0 1.214.835 1.214 2.083zm1.252-1.994v.964c.073-.34.219-1.02.705-1.02.06 0 .103.008.145.024v1.086c-.072-.016-.109-.016-.14-.016-.613 0-.613.923-.613 1.231v1.727h-.832v-3.996h.735m3.985 1.953l-.406-2.204-.395 2.204h.801zm.122-3.362l1.153 5.405h-.904l-.207-1.111h-1.136l-.2 1.111h-.819l1.213-5.405h.9zm2.904 3.086c0-.355 0-.996-.364-.996-.322 0-.365.519-.365 1.158 0 .779 0 1.444.358 1.444.371 0 .371-.609.371-.901v-.705zm.82-3.086v5.405h-.772v-.657c-.085.291-.212.713-.686.713-.801 0-.954-1.24-.954-2.034 0-.315 0-2.074.991-2.074.4 0 .522.258.601.421v-1.774h.82zm1.434 1.409v2.57c0 .396 0 .647.285.647.37 0 .37-.315.37-1.175v-2.042h.832v3.996h-.783v-.551c-.152.34-.285.631-.771.631-.765 0-.765-.745-.765-1.475v-2.601h.832m2.132 3.995h.832v-5.404h-.832zm2.412-5.258v1.263h.553v.875h-.553v1.467c0 .753 0 .851.595.802v.852c-.121.031-.291.08-.516.08-.273 0-.577-.089-.747-.412-.145-.285-.145-.69-.145-1.2v-1.589h-.329v-.875h.371l.066-1.174.705-.089m5.43 2.374v2.885h-.377l-.115-.617c-.091.187-.346.697-.984.697-1.009 0-1.5-1.2-1.5-2.69 0-.803.133-2.877 1.578-2.877 1.124 0 1.319 1.071 1.398 1.848l-.802.178c-.043-.405-.104-1.061-.577-1.061-.504 0-.662.728-.662 1.839 0 .973.109 1.799.692 1.799.517 0 .534-.722.547-1.07h-.607v-.931h1.409m1.428-1.111v2.57c0 .396 0 .647.286.647.37 0 .37-.315.37-1.175v-2.042h.832v3.996h-.783v-.551c-.153.34-.286.631-.772.631-.765 0-.765-.745-.765-1.475v-2.601h.832m3.578 2.083c-.48.081-.68.235-.68.753 0 .285.079.503.279.503.104 0 .195-.065.274-.218.115-.228.127-.479.127-.844v-.194zm-1.44-.923c.025-.227.073-.705.498-1.03.213-.162.462-.219.711-.219.316 0 .644.106.868.422.183.243.195.697.195 1.182v1.589c0 .681.018.753.048.892h-.771c-.036-.163-.042-.252-.042-.617-.109.259-.304.697-.826.697-.402 0-.783-.308-.783-1.094 0-1.11.649-1.401 1.542-1.467v-.153c0-.349 0-.713-.297-.713-.28 0-.335.3-.359.616l-.784-.105zm3.651-1.16v.964c.073-.34.218-1.02.705-1.02.06 0 .103.008.145.024v1.086c-.072-.016-.109-.016-.14-.016-.613 0-.613.923-.613 1.231v1.727h-.832v-3.996h.735m2.613 1.677c0-.355 0-.996-.364-.996-.323 0-.366.519-.366 1.158 0 .779 0 1.444.359 1.444.371 0 .371-.609.371-.901v-.705zm.819-3.086v5.405h-.771v-.657c-.085.291-.212.713-.686.713-.802 0-.954-1.24-.954-2.034 0-.315 0-2.074.99-2.074.401 0 .523.258.602.421v-1.774h.819zm.645 5.404h.832v-3.995h-.832v3.995zm-.006-4.335h.844V61.5h-.844v1.102zm2.921 2.423c-.48.081-.68.235-.68.753 0 .285.079.503.279.503.104 0 .195-.065.274-.218.115-.228.127-.479.127-.844v-.194zm-1.44-.923c.025-.227.073-.705.498-1.03.213-.162.462-.219.711-.219.316 0 .644.106.868.422.183.243.195.697.195 1.182v1.589c0 .681.018.753.049.892h-.772c-.036-.163-.042-.252-.042-.617-.109.259-.304.697-.826.697-.401 0-.783-.308-.783-1.094 0-1.11.649-1.401 1.542-1.467v-.153c0-.349 0-.713-.297-.713-.28 0-.335.3-.358.616l-.785-.105zm3.706-1.16v.543c.121-.332.28-.632.747-.632.116 0 .455 0 .662.422.122.25.122.64.122 1.038v2.625h-.832v-2.625c0-.358-.025-.592-.286-.592-.371 0-.371.388-.371.875v2.342h-.832v-3.996h.79M33.434 28.085c-.113 5.432-1.064 5.013-6.124 5.131-.61.018-3.526 0-4.599 0 .039-1.681.039-8.808.039-8.808 0-1.175.663-2.03 1.922-2.071 8.609-.268 8.87.71 8.762 5.748zm-6.572 10.784a133.763 133.763 0 0 1 1.461 1.989c1.127 1.496 6.488 10.43 8.881 10.632l11.966.016c1.967-.034 2.394-2.635.178-3.195-.946-.311-3.948-.532-7.89-5.493-2.3-2.827-4.393-5.422-5.367-6.775 5.491 0 7.393-1.631 7.46-7.862.061-10.873-4.267-9.022-16.137-9.287 0 0-18.51-.061-18.952-.087-4.018-.127-5.226 3.276.269 3.539 2.828.202 4.303 1.698 4.518 5.832v14.734c-.17 4.263-.25 5.223-5.342 5.629-2.777.035-3.141 2.951.664 2.973.521-.016 18.4-.024 18.417-.024 4.1.163 3.714-2.81 1.016-2.955-3.577-.269-5.26.301-5.388-4.231-.02-.487-.105-3.185-.103-4.048.009-3.875 2.898-3.492 4.349-1.387zm41.489-17.805v6.5h1.781v1.499h-2.991v-7.999h1.21m5.043 4.977l-.556-3.262-.538 3.262h1.094zm.166-4.977l1.574 7.999h-1.235l-.281-1.643h-1.55l-.273 1.643h-1.119l1.657-7.999h1.227zm3.592 0l1.417 4.965v-4.965h.945v7.999h-1.086l-1.681-5.792v5.792h-.945v-7.999h1.35m7.206 3.73v4.269h-.514l-.157-.911c-.125.276-.473 1.032-1.343 1.032-1.375 0-2.046-1.776-2.046-3.982 0-1.188.182-4.258 2.154-4.258 1.533 0 1.799 1.583 1.906 2.734l-1.094.264c-.058-.599-.141-1.571-.787-1.571-.688 0-.903 1.08-.903 2.723 0 1.439.149 2.662.944 2.662.705 0 .73-1.067.746-1.583h-.828v-1.379h1.922m2.182-3.73v4.569c0 1.164 0 2.123.787 2.123.373 0 .547-.252.637-.527.1-.312.1-.72.1-1.596v-4.569h1.02v4.498c0 1.415 0 2.518-.672 3.166-.257.24-.621.456-1.193.456-1.881 0-1.889-1.848-1.889-3.551v-4.569h1.21m5.68 4.977l-.555-3.262-.538 3.262h1.093zm.166-4.977l1.575 7.999h-1.236l-.281-1.643h-1.55l-.273 1.643h-1.118l1.657-7.999h1.226zm5.846 3.73v4.269h-.514l-.157-.911c-.124.276-.472 1.032-1.342 1.032-1.376 0-2.047-1.776-2.047-3.982 0-1.188.183-4.258 2.155-4.258 1.533 0 1.797 1.583 1.905 2.734l-1.093.264c-.058-.599-.141-1.571-.787-1.571-.688 0-.903 1.08-.903 2.723 0 1.439.148 2.662.944 2.662.704 0 .73-1.067.746-1.583h-.829v-1.379h1.922m4.365-3.73v1.379h-2.146v1.847h1.666v1.379h-1.666v1.967h2.146v1.427h-3.355v-7.999h3.355m5.928 0v1.499h-1.126v6.5h-1.21v-6.5h-1.103v-1.499h3.439m4.381 7.999h-1.21v-3.274h-1.334v3.274h-1.209v-7.999h1.209v3.226h1.334v-3.226h1.21v7.999m2.101-6.704v2.255h.538c.523 0 .713-.492.713-1.152 0-1.103-.554-1.103-.761-1.103h-.49zm.522-1.295c.556 0 1.094 0 1.516.684.29.467.398 1.103.398 1.738 0 1.416-.505 1.847-.778 2.087l1.018 3.49h-1.325l-.737-3.154h-.614v3.154h-1.21v-7.999h1.732zm3.775 4.006c0 1.715.116 2.686.73 2.686.621 0 .728-.995.728-2.686 0-1.679-.098-2.699-.728-2.699-.614 0-.73.96-.73 2.699zm2.735 0c0 1.463-.183 4.114-2.005 4.114-1.774 0-2.005-2.507-2.005-4.114 0-1.535.207-4.126 2.005-4.126 1.757 0 2.005 2.458 2.005 4.126zm2.009-4.006v4.569c0 1.164 0 2.123.787 2.123.374 0 .547-.252.639-.527.1-.312.1-.72.1-1.596v-4.569h1.018v4.498c0 1.415 0 2.518-.671 3.166-.256.24-.621.456-1.193.456-1.881 0-1.889-1.848-1.889-3.551v-4.569h1.209m7.264 3.73v4.269h-.514l-.157-.911c-.124.276-.472 1.032-1.342 1.032-1.376 0-2.047-1.776-2.047-3.982 0-1.188.183-4.258 2.155-4.258 1.533 0 1.798 1.583 1.905 2.734l-1.093.264c-.058-.599-.141-1.571-.787-1.571-.688 0-.903 1.08-.903 2.723 0 1.439.148 2.662.944 2.662.704 0 .73-1.067.746-1.583h-.829v-1.379h1.922m4.645 4.269h-1.209v-3.274h-1.334v3.274h-1.21v-7.999h1.21v3.226h1.334v-3.226h1.209v7.999m2.168-3.993c0 1.715.116 2.686.729 2.686.621 0 .73-.995.73-2.686 0-1.679-.1-2.699-.73-2.699-.613 0-.729.96-.729 2.699zm2.734 0c0 1.463-.182 4.114-2.005 4.114-1.773 0-2.005-2.507-2.005-4.114 0-1.535.207-4.126 2.005-4.126 1.757 0 2.005 2.458 2.005 4.126zm1.928-4.006v4.569c0 1.164 0 2.123.787 2.123.373 0 .547-.252.638-.527.099-.312.099-.72.099-1.596v-4.569h1.02v4.498c0 1.415 0 2.518-.671 3.166-.257.24-.622.456-1.194.456-1.881 0-1.888-1.848-1.888-3.551v-4.569h1.209m6.608 0v1.499h-1.127v6.5h-1.209v-6.5h-1.102v-1.499h3.438M61.991 37.041l-.538-3.262-.523 3.262h1.061zm.161-4.977l1.528 8h-1.198l-.273-1.644h-1.504l-.266 1.644h-1.085l1.608-8h1.19zm3.412 0l1.375 4.965v-4.965h.917v8h-1.054l-1.632-5.793v5.793h-.917v-8h1.311m4.505 6.62h.201c.466 0 1.126-.084 1.126-2.698 0-2.459-.652-2.543-1.126-2.543h-.201v5.241zm-1.174-6.62h1.262c.821 0 2.485.012 2.485 3.946 0 1.499-.297 2.842-.876 3.502-.475.552-1.054.552-1.464.552h-1.407v-8zm8.941 2.303c-.065-.288-.218-.996-.756-.996-.394 0-.563.408-.563.732 0 .551.353.743.924 1.067.604.348 1.48.84 1.48 2.459 0 1.367-.644 2.555-1.906 2.555-.386 0-.965-.109-1.399-.84-.298-.516-.394-1.008-.458-1.355l1.029-.432c.064.36.217 1.199.86 1.199.402 0 .684-.336.684-.863 0-.564-.338-.792-.74-1.008-.732-.396-1.617-.863-1.617-2.494 0-1.248.54-2.447 1.713-2.447 1.335 0 1.617 1.331 1.729 1.859l-.98.564m2.947 1.703c0 1.715.113 2.686.708 2.686.603 0 .708-.995.708-2.686 0-1.679-.097-2.699-.708-2.699-.595 0-.708.96-.708 2.699zm2.654 0c0 1.463-.177 4.114-1.946 4.114-1.721 0-1.946-2.507-1.946-4.114 0-1.535.201-4.126 1.946-4.126 1.705 0 1.946 2.458 1.946 4.126zm2.607-4.006l.755 4.941.853-4.941h1.673v8h-1.103v-6.705l-1.093 6.705h-.861l-.997-6.705v6.705h-.956v-8h1.729m7.607 0v1.379h-2.082v1.847h1.616v1.379h-1.616v1.967h2.082v1.428h-3.256v-8h3.256m4.84 2.303c-.065-.288-.217-.996-.756-.996-.394 0-.563.408-.563.732 0 .551.354.743.925 1.067.603.348 1.48.84 1.48 2.459 0 1.367-.644 2.555-1.907 2.555-.385 0-.964-.109-1.399-.84-.297-.516-.393-1.008-.458-1.355l1.029-.432c.065.36.217 1.199.861 1.199.402 0 .683-.336.683-.863 0-.564-.338-.792-.74-1.008-.731-.396-1.616-.863-1.616-2.494 0-1.248.539-2.447 1.713-2.447 1.335 0 1.616 1.331 1.729 1.859l-.981.564m5.049-2.303v1.379h-2.082v1.847h1.616v1.379h-1.616v1.967h2.082v1.428h-3.256v-8h3.256m1.809 0l.644 2.087.675-2.087h1.125l-1.261 3.622 1.423 4.378h-1.287l-.788-2.615-.877 2.615h-1.126l1.472-4.102-1.31-3.898h1.31m4.271 0v4.569c0 1.164 0 2.123.763 2.123.363 0 .531-.252.619-.527.097-.312.097-.72.097-1.596v-4.569h.989v4.498c0 1.415 0 2.518-.651 3.165a1.58 1.58 0 0 1-1.158.457c-1.825 0-1.833-1.848-1.833-3.551v-4.569h1.174m5.484 4.977l-.538-3.262-.523 3.262h1.061zm.161-4.977l1.528 8h-1.198l-.273-1.644h-1.504l-.266 1.644h-1.085l1.608-8h1.19zm3.301 0v6.5h1.729v1.5h-2.903v-8h1.174m2.368 8h1.174v-8h-1.174zm5.085-8v1.499h-1.094v6.501h-1.174v-6.501h-1.069v-1.499h3.337m1.689 0l.755 2.926.804-2.926h1.151l-1.488 4.617v3.383h-1.175v-3.383l-1.342-4.617h1.295m6.407-.5l-3.273 10.002h-.739l3.265-10.002h.747m2.212.5l1.375 4.965v-4.965h.916v8h-1.053l-1.633-5.793v5.793h-.917v-8h1.312m4.494 0v4.569c0 1.164 0 2.123.764 2.123.362 0 .531-.252.619-.527.096-.312.096-.72.096-1.596v-4.569h.99v4.498c0 1.415 0 2.518-.652 3.165a1.579 1.579 0 0 1-1.158.457c-1.825 0-1.833-1.848-1.833-3.551v-4.569h1.174m4.615 6.62h.201c.466 0 1.126-.084 1.126-2.698 0-2.459-.651-2.543-1.126-2.543h-.201v5.241zm-1.174-6.62h1.263c.819 0 2.484.012 2.484 3.946 0 1.499-.298 2.842-.877 3.502-.473.552-1.052.552-1.463.552h-1.407v-8zm4.583 8h1.174v-8h-1.174zm5.086-8v1.499h-1.093v6.501h-1.174v-6.501h-1.07v-1.499h3.337m1.688 0l.756 2.926.804-2.926h1.15l-1.488 4.617v3.383h-1.173v-3.383l-1.344-4.617h1.295" fill="#16375A"/></g></svg>