<svg width="72" height="49" viewBox="0 0 72 49" xmlns="http://www.w3.org/2000/svg"><title>tt_nav</title><path d="M3.426 4.21l-.429 8.154h.915l-.41-8.155h-.076zM1.655.658h3.6l1.6 17.891H4.226l-.2-3.808H2.902l-.2 3.808H.092L1.656.659zm20.603 0h4.324v2.335h-1.62v4.561h1.62V9.91h-1.62v6.283h1.62v2.356h-4.324V.659zM32.84 2.994v5.465c.031 0 .074.003.128.01.054.008.09.011.11.011.241 0 .405-.062.49-.188.086-.126.129-.371.129-.737V4.123c0-.538-.045-.86-.134-.968-.088-.108-.27-.161-.542-.161h-.181zM30.136.659h3.314c1.181 0 1.967.224 2.357.672.39.449.586 1.437.586 2.964V6.63c0 1.004-.09 1.71-.271 2.12-.181.408-.5.73-.957.967.444.194.76.494.947.899.187.405.281 1.024.281 1.856v6.078h-2.695v-6.627c0-.294-.05-.504-.148-.63-.098-.125-.262-.188-.49-.188a.794.794 0 0 0-.11.011.794.794 0 0 1-.11.01v7.424h-2.704V.659zm9.85 0h2.704V18.55h-2.705V.659zM52.5 4.123V6.76h-2.714V3.704c0-.287-.035-.488-.105-.603-.07-.115-.184-.172-.343-.172-.146 0-.25.06-.314.177-.064.119-.095.318-.095.598v11.823c0 .272.034.466.104.58.07.116.184.173.343.173.153 0 .259-.054.32-.161.06-.108.09-.305.09-.592v-4.562H52.5v4.12c0 1.579-.187 2.572-.562 2.98-.374.41-1.222.614-2.543.614-1.359 0-2.225-.206-2.6-.618-.374-.413-.562-1.404-.562-2.975V4.123c0-1.592.186-2.585.557-2.98.372-.394 1.227-.592 2.567-.592 1.365 0 2.23.205 2.596.614.365.408.547 1.395.547 2.958zm6.392.086l-.428 8.155h.914l-.41-8.155h-.076zM57.122.66h3.6l1.6 17.891h-2.629l-.2-3.808H58.37l-.2 3.808h-2.61L57.123.659zm-46.933 0h3.153l1 8.574h.133l1-8.574h3.153v17.89h-2.41l.096-10.575h-.162L15.123 18.55h-1.429L12.666 7.975h-.162l.105 10.575h-2.42V.659zm3.69 37.154l-1.742 11.003H8.374l-2.496-15.56v15.56h-5.95V20.535h8.466l1.856 11.734 1.836-11.734h8.496v6.511a.195.195 0 0 0-.2-.01c-.12.06-.241.18-.18.18.12.182.24.243.361.182h.001l.018-.018v21.436h-5.98v-15.56l-.656 4.14c-.16.112-.259.224-.145.338l.079.079zm17.047-2.656l-.099.099c-.046.09-.022.182.07.274l-.069.923h1.413l-.69-9.609-.365 4.843-.118-.118c-.18.12-.301.242-.18.363l.18.18a.802.802 0 0 0 .092-.07l-.234 3.115zm5.554 13.66l.142-.144c-.12-.181-.24-.242-.361-.181l-.182.182a.65.65 0 0 0 .123.142H32.88l-.381-6.122H30.58l-.382 6.122H23.29l3.021-28.281h10.476l3.021 28.281H36.48zm20.113-27.054c-.125.104-.163.207-.11.311l.18.182a.891.891 0 0 0 .176-.145c.592.962.888 2.466.888 4.512v15.374c0 2.528-.309 4.297-.928 5.306-.618 1.009-1.722 1.513-3.31 1.513H42.53V20.535h10.96c1.403 0 2.437.41 3.104 1.228zm15.378-5.798c-.314-.16-.608-.098-.938.185.33.331.624.404.938.217v2.183h-2.4l-1.495-9.166h-.124l.057 9.166h-2.352V.659h2.419l1.476 8.919h.124L69.628.659h2.343v15.306zm-22.75 26.372h.742c.364 0 .617-.145.758-.434.14-.289.211-.819.211-1.59v-11.31c0-.76-.072-1.287-.216-1.582-.145-.294-.395-.442-.753-.442h-.742v15.357zm11.906 6.48V20.534h10.806v6.445H67.82v3.095h4.114v6.446H67.82v5.85h4.114v6.445H61.127zm9.725-37.683s.18-.12.18-.181c-.12-.06-.18-.242-.3-.303-.243-.12-.363 0-.243.242.06.121.242.182.363.242zm-.664-.423c.06 0 .24.06.24 0 .061-.182 0-.303-.12-.423-.12-.181-.241-.181-.362.06 0 .06.061.12.061.182l.18.18zm.18 3.203c.06-.06 0-.242-.18-.362l-.18.18c-.062.121 0 .242.18.363l.18-.181zm-16.42 8.16l-.002-.001c.06-.06 0-.12 0-.18-.121-.06-.181-.18-.24-.18h-.545c-.06 0-.18.12-.18.18-.061.06-.061.12 0 .181.12.302.784.302.966 0zm-2.115 8.28c.362.06.544.06.725.06l-.725-.06zm-4.89-3.143c.421.424.784.424 1.207 0-.423-.423-.846-.423-1.207 0zm-18.597-2.176c.121.06.242 0 .363-.181l-.183-.182c-.12-.06-.24 0-.36.183l.18.18zm-21.01-.543c.18-.121.24-.242.18-.484 0-.06.06-.182 0-.242-.121-.182-.241-.303-.363-.241-.06.06-.18.12-.18.18-.061.06 0 .182 0 .303 0 .363.181.604.363.484zM4.92 30.354c.18-.12.302-.242.18-.363l-.18-.18c-.18.12-.241.24-.18.363l.18.18zm-1.633-3.627c.121-.12.06-.24-.18-.362l-.18.182c-.062.12 0 .24.18.362l.18-.182zm64.49-.116h-.001v-1.147c-.543-.363-.543-.363-1.146 0v1.147c.542.424.542.424 1.147 0zm-2.053 11.303c.18-.121.241-.242.18-.363-.06-.06-.12-.18-.18-.18-.181.12-.302.24-.181.362l.181.18zm-.605 7.555h.001c.18-.121.302-.242.18-.363 0-.06-.12-.18-.18-.18-.181.12-.242.24-.181.362l.18.18zm-7.606-2.901c.18-.12.242-.241.18-.362l-.18-.182c-.18.121-.301.242-.18.363l.18.18zm-5.253-19.22h.001l.18-.182c-.06-.18-.18-.24-.361-.18l-.18.182c.12.18.24.301.36.18zm-21.193 1.27c.423-.364.423-.786 0-1.149-.422.363-.422.726 0 1.148zm-5.07 17.105l-.001-.001c.061 0-.06-.12-.18-.18-.122-.061-.242 0-.363.181l.182.18c.12.06.24 0 .362-.18zm-12.68-2.72c.12.06.241 0 .361-.182l-.181-.181c-.12-.06-.241 0-.361.182l.18.18zm-1.027 0l.181-.182c-.06-.181-.242-.242-.363-.181l-.18.182c.12.18.24.241.362.18zm-2.717-1.934c.422.422.785.422 1.208 0-.423-.424-.785-.424-1.208 0zm-2.476-.484c.121-.121.06-.241-.181-.362l-.18.18c-.061.121 0 .242.181.363l.18-.181zM5.83 32.053v-.002c.302-.181.302-.845 0-.966h-.18c-.303.182-.303.847 0 .968h.181zm-.725 6.346c.121.06.241 0 .362-.183l-.181-.18c-.12-.06-.241 0-.361.181l.18.182zM2.51 32.112h-.001c.424-.06.544-.18.605-.422.06-.424-.121-.726-.604-.726h-.544v-.725a.847.847 0 0 0-.181-.242c-.06-.06-.12-.121-.182-.06-.059.06-.18.12-.18.18-.174.58-.065.77.477.891-.04.21.019.327.187.44.18.181.483.302.423.664zm.06.302c0-.06.06-.242 0-.242-.242-.059-.363 0-.483.121s-.12.242.12.363c.06 0 .121-.061.183-.061l.18-.18zm-2.112 2.66c.423-.363.423-.786 0-1.148-.422.363-.422.725 0 1.148z" fill="#FFFEED" fill-rule="evenodd"/></svg>