<svg width="157" height="41" viewBox="0 0 157 41" xmlns="http://www.w3.org/2000/svg"><title>Group 2</title><g fill="none" fill-rule="evenodd"><path fill="#FFFEED" d="M0 0h157v41H0z"/><path fill="#a12219" fill-rule="nonzero" d="M156.204 20.045l-.17.17c-.172-.114-.228-.227-.172-.341l.171-.171c.17.17.228.285.17.342h.001zm-1.024-16.4a9.45 9.45 0 0 0-.797.74 4.944 4.944 0 0 0-.512-.57c-.227 0-.398.057-.568 0-.228-.057-.285-.227-.228-.341 0-.057.114-.171.17-.171h1.082c.17-.171.398-.342.568-.513.342.228.342.513.285.855zm-2.332-1.082l-.171.17c-.17-.113-.228-.227-.17-.341l.17-.171c.227.114.284.228.17.342h.001zm-2.788 7.687c-.284.114-.398-.228-.569-.342l-.17-.17-.17-.171c.568-.342.568-.342 1.08.057-.057.227.114.57-.17.626h-.001zm-2.958 5.524l-.17-.171c.113-.171.227-.228.34-.171l.172.17c-.114.172-.228.229-.342.172zm-2.446 10.762c.398-.341.74-.341 1.138 0-.398.399-.74.399-1.138 0zm-.17-4.726c-.114-.057-.285-.114-.342-.228-.113-.228 0-.342.228-.228.114.057.17.228.284.285 0 .057-.17.17-.17.17v.001zm-.626-.399l-.17-.17c0-.058-.058-.115-.058-.171.114-.228.228-.228.342-.057.113.113.17.227.113.398 0 .057-.17 0-.227 0zm.17 3.018l-.17.171c-.17-.114-.228-.228-.17-.342l.17-.17c.17.113.227.284.17.341zm-.682-17.368h-.17c-.285-.114-.285-.74 0-.91h.17c.284.113.284.74 0 .91zm-4.892 16.286c0 .057-.114.114-.17.171H138c-.341 0-.569-.17-.455-.342.114-.17.227-.227.455-.17.114 0 .227-.057.284 0 .17.114.285.227.17.341h.002zm-7.338-3.075c-.398-.341-.398-.74 0-1.082.398.342.398.74 0 1.082zm0 12.016l-.17-.171c-.058-.114 0-.228.17-.342l.17.17c.114.115 0 .229-.17.343zm-1.48-24.259c-.17.285-.795.285-.91 0-.056-.057-.056-.114 0-.17 0-.058.115-.171.171-.171h.512c.114 0 .171.113.228.17 0 .057.057.114 0 .171h-.001zm-.739 19.304l-.17-.17c-.114-.114 0-.228.17-.342l.171.17c.057.115 0 .229-.17.342h-.001zm-.34 4.784c-.172.284-.797.284-.911 0-.057-.057-.057-.114 0-.171 0-.057.114-.17.17-.17h.513c.056 0 .113.113.227.17 0 .057.057.114 0 .17l.001.001zm-.968-25.34c.114-.285.74-.285.91 0v.17c-.114.285-.74.285-.91 0v-.17zm-1.024 33.141l.683.057c-.17 0-.342 0-.683-.057zm.114-30.01c0-.057.114.057.17.171.114.114 0 .228-.17.342l-.17-.17c-.058-.115 0-.229.17-.343zm-2.219-.626l-.17-.17c-.057-.115 0-.229.17-.342l.171.17c.114.114 0 .228-.17.342h-.001zm-2.502 27.675c.34-.399.739-.399 1.137 0-.398.399-.74.399-1.137 0zm-3.3-28.415c0-.285-.17-.684.342-.74l.74.74c-.342.398-.684.398-1.082 0zm-6.94 1.31l-.17-.171c-.114-.114 0-.228.17-.342l.171.17c.057.115 0 .229-.17.342l-.001.001zm-1.422 3.302c-.113 0-.227.057-.284 0-.057 0-.114-.114-.17-.17-.058-.114.056-.228.227-.342.114-.057.17 0 .284 0 .17-.114.341-.057.398.17.114.171-.113.342-.455.342zm-2.503-8.712c-.17-.171-.34-.399-.512-.57-.17-.17-.227-.284-.17-.398.114-.171.227-.228.455-.171h.227c.455.342.455.74 0 1.139zm-.91 4.157l-.17.17c-.171-.113-.228-.227-.171-.341l.17-.171c.171.114.228.228.171.342zm-1.65-1.082c0 .057-.113.114-.17.17h-.284c-.342 0-.57-.17-.456-.341.114-.17.228-.228.456-.17.113 0 .227-.058.284 0 .17.056.228.227.17.34v.001zm-.796 27.39l-.17-.17c.113-.172.227-.229.34-.172l.172.171c-.114.171-.228.228-.342.171zM99.775 12.3c0-.228-.114-.57.17-.683.285-.114.399.228.57.341.113.057.17.114.17.171l.17.171c-.34.399-.739.399-1.08 0zm.284 17.254l-.17-.17c-.057-.114 0-.228.17-.342.057 0 .17.114.17.17.115.114 0 .228-.17.342zm-.512-15.887l-.17-.171c-.114-.114 0-.228.17-.342l.17.171c.058.114 0 .228-.17.342zm-3.356-3.816h-.512c-.398-.569-.398-.569 0-1.081h.512c.398.569.398.569 0 1.081zm-3.072 9.624c-.113.057-.17.17-.227.17-.41.114-.842.114-1.252 0-.17-.284-.17-.284-.17-.853.625-.171 1.08-.171 1.479-.057.341.17.17.455.17.74zm-.625 8.257c0 .057-.114.114-.171.17h-.284c-.342 0-.57-.17-.456-.34.114-.172.228-.229.456-.172.113 0 .227-.057.284 0 .17.114.227.228.17.342h.001zm-4.665 2.904h-.512c-.398-.57-.398-.57 0-1.082h.512c.398.57.398.57 0 1.082zm-3.185 3.759c-.171.113-.342-.114-.342-.456 0-.114-.057-.228 0-.285 0-.057.114-.114.17-.17.115-.058.228.056.342.227.057.057 0 .171 0 .228.057.228 0 .342-.17.456zm-.57-25.74c-.113.058-.227 0-.34-.17l.17-.171c.114-.057.285 0 .341.17l-.17.172-.001-.001zm-.625-5.352l-.17-.171c-.114-.114 0-.228.17-.342.057 0 .114.114.17.171.058.114 0 .228-.17.342zm-1.08 36.615l-.171-.17c-.057-.115 0-.228.17-.342l.17.17c.115.114 0 .228-.17.342h.001zM80.604 1.025l-.17-.17c.113-.172.227-.229.34-.172.057.057.171.114.171.171-.114.171-.227.228-.341.171zm.227 35.476l-.17.171c-.17-.114-.228-.227-.17-.341l.17-.171c.227.114.284.228.17.341zm-4.095-10.876l-.17-.17c.113-.172.227-.229.34-.172l.171.171c-.114.171-.228.228-.341.171zm-4.779-9.908l-.17.17c-.17-.113-.228-.227-.17-.341l.17-.17c.227.113.284.227.17.34v.001zm-.512-12.585l-.17.17c-.17-.113-.228-.227-.17-.34l.17-.172c.17.114.227.228.17.342zm-.796 7.175l-.17-.17c.113-.172.227-.229.34-.172l.171.171c-.113.171-.227.228-.34.171h-.001zm.057 19.76l-.17-.171c-.058-.114 0-.228.17-.342.057 0 .114.114.17.171.114.114 0 .228-.17.342zM70.423 5.75c-.57.4-.57.4-1.081 0V4.67c.569-.342.569-.342 1.08 0v1.08h.001zm-.114 29.669l-.17.17c-.171-.114-.228-.227-.171-.341l.17-.171c.228.057.285.228.17.342h.001zm-1.82-19.02l-.171-.17c-.114-.115 0-.229.17-.342.057 0 .114.113.171.17.057.114 0 .228-.17.342zm-.57 7.118l-.17-.17c-.057-.115 0-.228.17-.342.058 0 .171.114.171.17.114.114 0 .228-.17.342h-.001zM64.792 34.85l-.17.17c-.171-.113-.228-.227-.171-.34l.17-.172c.171.114.228.228.171.342zm-1.82-4.726c-.228-.228-.455-.513-.74-.798.057-.398.57-.512.683-.854.74 0 .796 0 .853.627.057.455-.512.683-.796 1.025zm-2.219-9.34l-.17-.17c-.114-.114 0-.228.17-.342l.17.171c.058.114 0 .228-.17.342v-.001zm-1.99 9.055c-.114.17-.228.228-.342.17l-.17-.17c.113-.17.227-.228.34-.17.114.056.228.17.171.17h.001zm-1.309 2.449c-.284 0-.626.113-.74-.171-.113-.285.228-.399.342-.57l.17-.17a.785.785 0 0 1 .228-.171c.398.341.398.74 0 1.082zm-1.65-29.612c-.113.114-.227 0-.34-.17l.17-.171c.17-.057.284 0 .341.17l-.17.171h-.001zM51.082 33.2c-.17.17-.284.227-.398.17-.17-.113-.228-.227-.17-.455v-.285c.511-.455.511-.455 1.08 0-.17.228-.341.399-.512.57zM40.9 26.707c-.114.057-.228 0-.342-.17l.171-.172c.114-.057.228 0 .341.171l-.17.171zm-.285 13.61c-.057-.114 0-.228.171-.342.057 0 .17.114.17.17l-.34.172h-.001zm-3.47-3.816c-.17.285-.796.285-.91 0-.057-.056-.057-.113 0-.17 0-.057.114-.171.17-.171h.513c.057 0 .114.114.227.17 0 .058.057.115 0 .171zM35.837 3.872c-.398-.398-.398-.74 0-1.082.398.342.398.74 0 1.082zm0 7.061l-.17-.17c-.114-.114 0-.228.17-.342l.17.17c.058.115 0 .229-.17.342zm-.227 2.962l.17-.171c.228.114.285.227.17.341l-.17.171c-.17-.114-.227-.228-.17-.341zm.227 10.705l-.17-.17c-.114-.115 0-.229.17-.342l.17.17c.058.114 0 .228-.17.342zM62.8 17.71l.17-.171c.171.114.228.228.171.342l-.17.17c-.17-.113-.228-.227-.17-.341H62.8zm-31.74 2.278c-.114.17-.228.227-.341.17l-.171-.17c.114-.171.227-.228.341-.171.114.057.228.17.17.17l.001.001zm-3.072-.342h-1.081c-.455-.399-.227-.911-.17-1.424.17-.284.512-.114.74-.17.227.17.284.398.284.683.056.285.34.455.455.57.056.113 0 .227-.228.34v.001zm-1.65 4.897l-.17-.17c.114-.172.227-.228.341-.172l.17.171c-.113.171-.227.228-.34.171h-.001zM25.94 6.492c-.114.057-.227 0-.341-.171-.057 0 .057-.114.17-.17.114-.058.228 0 .342.17l-.17.17-.001.001zm-1.194 23.062l-.171-.17c-.057-.114 0-.228.17-.342l.171.17c.114.114 0 .228-.17.342zM19.739 16.4l-.17-.17c-.115-.115 0-.229.17-.342.057 0 .114.113.17.17.057.114 0 .228-.17.342zm-.626 1.025l-.17-.17c.113-.172.227-.229.34-.172l.171.171c-.113.171-.227.228-.34.171h-.001zm-.967 0c-.114.057-.227 0-.341-.17l.17-.172c.114-.057.285 0 .342.171l-.17.171h-.001zm-2.56-1.822c.399-.399.74-.399 1.138 0-.398.398-.74.398-1.138 0zm-2.332-.456l-.17.171c-.171-.114-.228-.228-.171-.342l.17-.17c.228.114.285.227.171.341zm-1.194-4.27h-.171c-.285-.114-.285-.74 0-.912h.17c.285.114.285.74 0 .911l.001.001zm-.683 5.979l-.17-.171c.113-.171.227-.228.34-.171l.171.17c-.114.172-.227.229-.341.172zM8.93 10.933c.057-.341-.228-.455-.398-.626-.159-.106-.215-.216-.177-.414-.51-.114-.613-.293-.449-.839 0-.057.114-.114.17-.17.058-.058.114 0 .171.056.07.065.128.142.171.228v.683h.512c.455 0 .626.285.569.684-.057.228-.17.341-.57.398h.001zm.057.285l-.17.17c-.058 0-.115.058-.172.058-.227-.114-.227-.228-.113-.342.113-.114.227-.17.455-.114.057 0 0 .171 0 .228zM8.59 34.395l-.171-.171c.057-.171.227-.228.341-.171l.17.17c-.113.172-.227.228-.34.172zM6.997 13.724c-.398-.399-.398-.74 0-1.082.398.341.398.74 0 1.082zm-1.707-.057c-.107.054-.187.053-.232.017-.114.553-.286.664-.848.495-.057 0-.114-.114-.171-.17-.057-.058 0-.114.057-.171l.17-.171h.778c-.034-.046-.034-.123.019-.228.057-.114.227-.17.341-.228l.114.114c-.057.114-.114.285-.228.342zm-3.356 23.46l-.17-.17c.113-.17.227-.228.34-.17.058.056.171.17.171.17-.113.17-.227.228-.34.17h-.001zM1.707 5.582c0 .341-.171.57-.342.455-.17-.114-.227-.228-.17-.455 0-.114-.057-.228 0-.285.057-.228.227-.285.341-.228.114 0 .17.114.17.228v.285h.001zM157 3.692a.186.186 0 0 1 0-.172V0H0v17.4c.129.175.129.505 0 .705V41h157V3.692z"/></g></svg>