<svg width="11" height="18" viewBox="0 0 11 18" xmlns="http://www.w3.org/2000/svg"><title>M-1</title><path d="M7.327 15.45l.081-8.01h-.182L6.066 18H4.453L3.294 7.44H3.11L3.23 18H.501V.136h3.556l1.128 8.561h.15L6.463.136h3.556v5.308c-.037-.04-.092-.042-.146-.006-.052 0-.077-.026-.129 0-.077.052-.13.104-.103.155.026.026.052.077.077.077.026.026.078 0 .13 0a.324.324 0 0 0 .17-.041V18H7.302l.025-2.51a.39.39 0 0 0 .017-.023l-.016-.017zM8.71 1.716c.207-.181.207-.362 0-.517h-.103c-.103-.026-.155 0-.206.078-.026.051 0 .103.077.18.078.078.155.181.232.259zm-.413 1.887c.026-.052 0-.104-.077-.155l-.078.077c-.026.052 0 .104.078.155l.077-.077zm-.749-.491c.027-.052 0-.13-.077-.155-.026-.026-.078 0-.129 0-.103-.026-.155 0-.207.077-.052.078.052.155.207.155h.129c.026-.026.077-.051.077-.077zM5.2 13.115c.078-.052.13-.104.078-.156 0-.025-.051-.077-.077-.077-.077.052-.103.104-.077.155l.077.078zM3.445 4.17c.18-.232.18-.232 0-.49h-.232c-.181.232-.181.232 0 .49h.232zM2.05 8.54c0-.13.077-.26-.078-.336-.18-.052-.387-.052-.67.026 0 .258 0 .258.076.387.186.051.382.051.569 0 .025 0 .051-.052.103-.077zm-.284 3.748c.025-.052 0-.104-.078-.156-.026-.026-.077 0-.129 0-.103-.026-.155 0-.207.078-.051.078.052.155.207.155h.13c.025-.026.077-.052.077-.077z" fill="#203D61" fill-rule="evenodd"/></svg>