<svg width="8" height="18" viewBox="0 0 8 18" version="1.1" xmlns="http://www.w3.org/2000/svg" xmlns:xlink="http://www.w3.org/1999/xlink"><title>R</title><desc>Created with Sketch.</desc><g id="Page-1" stroke="none" stroke-width="1" fill="none" fill-rule="evenodd"><g id="Artboard" transform="translate(-56.000000, 0.000000)" fill="#203D61"><path d="M56.9033203,3.34621585 L56.9033203,0.135742188 L60.6416016,0.135742188 C61.9736395,0.135742188 62.8598611,0.359535522 63.300293,0.807128906 C63.7407249,1.25472229 63.9609375,2.24120331 63.9609375,3.76660156 L63.9609375,6.09765625 C63.9609375,7.10026543 63.8588877,7.80566202 63.6547852,8.21386719 C63.4506826,8.62207235 63.0908229,8.94433476 62.5751953,9.18066406 C63.0764999,9.3740244 63.4327789,9.6730123 63.644043,10.0776367 C63.855307,10.4822611 63.9609375,11.0999307 63.9609375,11.9306641 L63.9609375,18 L60.9208984,18 L60.9208984,14.3746112 C61.0076443,14.37429 61.0973771,14.3420632 61.1362179,14.2779306 L61.135764,14.2774767 C61.161637,14.2520577 61.135764,14.2261848 61.135764,14.2003118 C61.0840182,14.1744389 61.0581453,14.123147 61.0327263,14.123147 L60.9208984,14.123147 L60.9208984,11.3828125 C60.9208984,11.0891912 60.8653977,10.8797207 60.7543945,10.7543945 C60.6433914,10.6290684 60.4589857,10.5664062 60.2011719,10.5664062 C60.1725259,10.5664062 60.1313479,10.5699869 60.0776367,10.5771484 C60.0239255,10.5843099 59.9827475,10.5878906 59.9541016,10.5878906 L59.9541016,18 L56.9033203,18 L56.9033203,3.71240934 C56.982225,3.71048707 57.0581553,3.66534431 57.1340855,3.57698105 L56.9033203,3.34621585 Z M60.811427,2.68913871 C60.7988679,2.66410452 60.7852282,2.64370152 60.7705078,2.62792969 C60.6702469,2.52050728 60.4661474,2.46679688 60.1582031,2.46679688 L59.9541016,2.46679688 L59.9541016,7.92382812 C59.989909,7.92382812 60.0382484,7.92740882 60.0991211,7.93457031 C60.1599938,7.94173181 60.2011718,7.9453125 60.2226562,7.9453125 C60.494793,7.9453125 60.6791987,7.88265037 60.7758789,7.75732422 C60.8725591,7.63199807 60.9208984,7.38672058 60.9208984,7.02148438 L60.9208984,3.59472656 C60.9208984,3.32537187 60.9082914,3.11004954 60.883077,2.94875835 C60.9801654,2.95696322 61.0810718,2.92504149 61.1098911,2.85299316 L61.1098911,2.77582831 C61.058717,2.69003649 60.9165105,2.66113996 60.811427,2.68913871 Z M62.2977759,8.90135595 C62.4784325,8.74611842 62.4784325,8.56546188 62.2977759,8.41022435 C62.1171194,8.56546188 62.1171194,8.74657233 62.2977759,8.90135595 Z M62.2977759,14.3555494 L62.2977759,14.3555494 C62.3749408,14.3038035 62.4266866,14.2520577 62.3749408,14.1998579 L62.2977759,14.1226931 C62.2206111,14.1744389 62.1942843,14.2261848 62.2206111,14.2779306 L62.2977759,14.3555494 Z M61.6259878,3.34412476 L61.6264417,3.34412476 C61.6523146,3.31825184 61.6264417,3.29237892 61.6264417,3.26650599 C61.6005688,3.24063307 61.5746959,3.18934114 61.52295,3.18934114 L61.2905477,3.18934114 C61.2651286,3.18934114 61.2129289,3.24063307 61.2129289,3.26695991 C61.1875099,3.29237892 61.1875099,3.31825184 61.2129289,3.34412476 C61.2651286,3.47348937 61.548823,3.47348937 61.6259878,3.34412476 Z M61.2905477,12.1064208 L61.2910016,12.1064208 C61.3681664,12.0551289 61.3940393,12.0033831 61.3681664,11.9511833 L61.2905477,11.8740185 C61.2133828,11.9257643 61.161637,11.9775101 61.2133828,12.029256 L61.2905477,12.1064208 Z M59.276545,3.91287512 L59.2769989,3.91287512 C59.3541637,3.86112928 59.4059096,3.80938344 59.3541637,3.75763759 L59.276545,3.68047274 C59.1993801,3.73176467 59.1735072,3.78351051 59.1993801,3.83571027 L59.276545,3.91287512 Z M58.1408599,16.4748594 C58.3210625,16.6559698 58.4763001,16.6559698 58.6569566,16.4748594 C58.4763001,16.2937489 58.2951896,16.2937489 58.1408599,16.4748594 Z" id="R"/></g></g></svg>