<?xml version="1.0" encoding="UTF-8"?>
<svg width="200px" height="500px" viewBox="0 0 200 500" version="1.1" xmlns="http://www.w3.org/2000/svg" xmlns:xlink="http://www.w3.org/1999/xlink">
    <!-- Generator: Sketch 43.1 (39012) - http://www.bohemiancoding.com/sketch -->
    <title>uE008-n1</title>
    <desc>Created with Sketch.</desc>
    <defs></defs>
    <g id="Page-1" stroke="none" stroke-width="1" fill="none" fill-rule="evenodd">
        <path d="M73.9363423,453.560723 C71.1968494,453.23867 68.5581847,454.489453 66.1520946,457.31307 C68.8955991,460.070396 71.4323574,461.327872 73.9893337,461.0855 L74.2633794,500 L0,500 L0,0 L76.3680096,0 L95.5089494,102.373156 C95.4952388,102.707175 95.5577652,103.041865 95.6966825,103.377225 L122.970535,249.248346 L126.879134,249.248346 L126.100548,120.158737 L126.129772,120.187961 C128.289527,118.739655 129.737834,117.291348 128.289527,115.843042 C127.578078,114.394735 126.129772,112.946429 126.129772,113.670582 C126.106919,113.685906 126.084226,113.701231 126.061693,113.716555 L125.375827,0 L199.338545,0 L199.338545,500 L123.571858,500 L76.3680096,243.83644 L72.4594107,243.83644 L73.9363423,453.560723 Z M182.499387,245.339433 C187.555755,240.994513 187.555755,235.938145 182.499387,231.593225 C177.443018,235.938145 177.443018,241.007218 182.499387,245.339433 Z M182.499387,397.996024 L182.499387,397.996024 C184.659142,396.547718 186.107449,395.099411 184.659142,393.6384 L182.499387,391.478645 C180.339632,392.926951 179.602774,394.375258 180.339632,395.823564 L182.499387,397.996024 Z M163.696811,89.7989327 L163.709515,89.7989327 C164.433668,89.0747795 163.709515,88.3506262 163.709515,87.6264729 C162.985362,86.9023197 162.261209,85.4667176 160.812902,85.4667176 L154.308227,85.4667176 C153.596778,85.4667176 152.135767,86.9023197 152.135767,87.6391774 C151.424318,88.3506262 151.424318,89.0747795 152.135767,89.7989327 C153.596778,93.4196991 161.537055,93.4196991 163.696811,89.7989327 Z M154.308227,335.045507 L154.320932,335.045507 C156.480687,333.609905 157.20484,332.161599 156.480687,330.700588 L154.308227,328.540832 C152.148472,329.989139 150.700165,331.437445 152.148472,332.885752 L154.308227,335.045507 Z M149.988716,395.823564 L149.976012,395.81086 C150.700165,395.099411 149.976012,394.375258 149.976012,393.651105 C148.527705,392.926951 147.803552,391.491349 147.092103,391.491349 L140.574724,391.491349 C139.863275,391.491349 138.414968,392.926951 138.414968,393.651105 C137.690815,394.375258 137.690815,395.099411 138.414968,395.823564 C139.863275,399.431626 147.803552,399.431626 149.988716,395.823564 Z M137.690815,73.8929697 L137.690815,73.8929697 L137.690815,76.052725 C139.850571,79.6734914 147.803552,79.6734914 149.251859,76.052725 L149.251859,73.8929697 C147.092103,70.2722033 139.139122,70.2722033 137.690815,73.8929697 Z M124.681465,494.930927 C129.01368,495.65508 131.198845,495.65508 133.3586,495.65508 L124.681465,494.930927 Z M24.2274315,96.3163122 C29.2838,101.372681 33.6287196,101.372681 37.9736393,96.3163122 L28.5723512,86.9150241 C22.0676762,87.6264729 24.2274315,92.6955458 24.2274315,96.3163122 Z" id="uE008-n1" fill="#000000"></path>
    </g>
</svg>