<svg width="269" height="502" viewBox="0 0 269 502" version="1.1" xmlns="http://www.w3.org/2000/svg" xmlns:xlink="http://www.w3.org/1999/xlink"><title>uE002-m1</title><desc>Created with Sketch.</desc><g id="Page-1" stroke="none" stroke-width="1" fill="none" fill-rule="evenodd"><path d="M124.287826,180.080916 C124.063799,179.392721 123.889002,178.799006 123.914571,178.437595 C122.236507,178.854509 124.146028,183.996455 124.342766,184.957675 C124.577757,184.857666 124.75081,184.710028 124.873328,184.52516 L131.472128,234.613189 C131.26445,234.499997 130.983507,234.394788 130.614095,234.300665 C130.479709,234.462042 130.365268,234.625266 130.270574,234.790405 C128.53251,233.47527 126.675758,233.235959 124.689952,234.062098 C125.314886,234.316879 125.45376,234.733793 125.095002,235.30126 C126.803253,235.540801 128.491045,235.452761 130.148759,235.027516 C129.835762,235.715722 129.85662,236.436977 130.197473,237.195905 C130.347753,236.956402 131.175295,236.462413 131.644981,235.92523 L132.271095,240.677734 L136.495705,240.677734 L168.180275,0.176757812 L268.062111,0.176757812 L268.062111,87.4785782 C266.881294,85.8603649 266.237041,83.8618351 266.345149,81.4818086 C264.319899,83.1147238 261.472977,82.9062666 259.713904,84.8634486 C260.419848,87.2143832 261.380395,86.9711831 263.093177,86.0794492 C267.36356,83.8559052 266.159983,95.8421974 265.268873,97.5793412 C266.508774,97.4813051 267.374508,97.0436897 268.062111,96.4446587 L268.062111,145.487182 C267.680793,146.240906 267.288541,146.94323 266.831209,147.350827 C267.299378,147.537669 267.701115,147.423003 268.062111,147.122767 L268.062111,398.566786 C267.467881,398.329748 266.929541,398.276627 266.54073,398.71901 C266.789674,399.51732 267.378838,400.177232 268.062111,400.438927 L268.062111,416.967222 C260.646177,412.121394 252.453902,407.573902 252.029529,408.28604 C257.435269,411.613959 262.761373,415.074698 268.062111,418.574848 L268.062111,502 L191.717384,502 L191.868904,487.105613 C196.252498,484.344735 200.252662,480.743587 204.498663,478.035838 C204.116759,477.5726 203.734855,477.086199 203.341378,476.61138 L200.39489,478.667541 C199.183553,477.629243 197.255798,476.123934 197.367471,473.80763 C196.950848,474.363516 196.453215,474.838335 195.874573,475.232088 L195.874498,475.235534 L191.951455,478.990902 L192.731926,402.270602 C194.517733,399.982786 195.594025,393.611033 195.506556,392.520881 C198.596508,393.053605 198.723809,396.412083 199.545482,398.763018 C201.60545,404.715631 206.142008,399.863209 209.47499,398.044998 C208.282986,399.214675 207.461314,395.694064 207.507605,395.265568 C207.785353,392.683014 213.594926,397.419627 212.472359,393.424196 C211.708551,390.737413 211.488667,389.24347 215.377145,389.058174 C221.753787,388.757069 218.131484,389.857261 222.344003,385.201715 C227.169883,386.012382 238.233531,380.279808 236.543894,375.797977 C232.585978,376.122243 226.706969,377.523539 222.957364,379.029064 C219.902131,381.739008 214.370307,379.445979 212.275621,382.132761 C207.380304,383.777257 204.255633,383.244533 199.371889,384.726896 C197.219133,385.381248 195.063262,386.166554 192.88827,386.902066 L192.958864,379.962556 C193.842297,378.038558 194.678095,376.295111 194.683726,376.306381 C195.123495,375.159866 200.273414,360.139362 201.372835,367.829119 C202.912025,368.292357 203.432803,364.679098 200.423861,364.725422 C198.720855,364.753208 194.849026,362.706947 193.135822,362.567599 L194.734962,205.37207 L189.60508,205.37207 L173.753474,349.651032 C172.375492,349.866815 171.066051,349.99901 169.976842,349.986336 C163.912666,349.893688 157.64018,352.314109 151.714879,352.140394 C150.019246,351.98672 141.368328,352.594202 133.983346,353.058519 C134.010307,350.909714 133.960893,348.809692 133.825043,346.733617 C135.235455,346.654886 136.467663,344.653083 135.119407,343.524161 C134.648805,344.076993 134.178204,344.633848 133.707602,345.189984 C133.366009,341.257335 132.702079,337.389118 131.646394,333.413984 C124.505943,335.799662 129.146658,327.090781 125.755812,322.921635 C123.147954,329.041381 126.103287,335.54138 129.212233,341.858498 C128.490625,341.848926 128.013034,342.178497 128.208099,343.10493 C128.775689,342.968437 129.301459,342.940754 129.786044,343.021243 C131.487127,346.465958 133.134592,349.845493 133.840971,353.067463 C127.929957,353.438438 122.867676,353.713534 122.898474,353.425881 C124.252498,353.518528 125.606522,353.669081 126.948973,353.865957 C127.087847,355.10512 126.324039,355.325158 124.657548,354.514491 C124.738558,355.904206 132.978429,356.981235 134.621775,357.189692 C134.818513,355.012472 148.671219,354.804015 151.483422,354.896662 C154.274226,355.102331 170.117869,354.498581 173.432254,352.574737 L169.490849,388.448821 C169.417606,388.394008 169.344673,388.338866 169.272055,388.283408 C168.554538,389.39518 168.242071,390.622762 168.334654,391.966153 C168.385312,391.968003 168.435604,391.969168 168.48553,391.969647 C168.298092,392.122832 168.121711,392.285133 167.957652,392.457105 C164.604922,391.755147 152.513928,393.266131 151.341076,395.360532 C151.896573,395.962742 152.567798,396.113294 153.366325,395.812189 C158.345892,394.558524 162.501855,394.291961 167.341363,393.242754 C167.291855,393.320933 167.244494,393.400704 167.199357,393.482101 C167.605107,394.553018 168.215355,394.420564 168.890795,393.910424 L168.533505,397.16242 C167.171199,396.790639 166.366298,395.744594 165.278263,396.192045 C165.746132,397.392211 166.660519,399.395921 167.756488,400.84764 C165.434366,401.941931 164.125932,409.737265 163.809668,411.86224 C165.082682,410.565173 165.869636,409.013324 166.158957,407.195114 C167.005683,405.210604 167.584271,403.150964 167.894721,401.026524 C167.957165,401.105417 168.020147,401.182386 168.083622,401.257191 L166.490361,415.758818 C166.478286,415.190098 166.204033,414.647069 165.566427,414.342881 C165.045649,415.454654 164.52487,416.578006 163.992519,417.689779 C165.170091,418.20448 166.189357,417.297396 166.434695,416.265483 L157.015236,502 L111.751564,502 L93.0443558,331.729762 C93.6725087,332.168054 94.2800923,332.55703 94.6375662,332.85694 C95.4360865,331.943706 94.1506489,330.805427 92.8370656,329.843037 L89.1549474,296.328943 C90.0182808,295.977888 90.7361789,295.283261 91.0731274,294.139479 C90.3522648,294.418189 89.6719902,294.760725 89.0281993,295.175301 L79.1617203,205.37207 L74.0318375,205.37207 L74.2585352,225.630603 C73.6751551,225.339591 72.9405104,225.359158 72.2660834,225.931106 C72.925736,227.031297 72.532259,228.108327 74.1524585,229.23168 C74.2026597,229.201201 74.251092,229.17017 74.2977908,229.138626 L74.7552849,270.021967 C73.6568783,269.49891 72.4877949,269.185951 71.1034193,269.455132 C67.3052194,268.579187 62.0033117,267.937674 60.6700843,267.782375 C60.3401093,270.290156 67.5630696,270.872275 72.0751067,271.150475 C73.0710764,272.723998 73.9922252,274.132974 73.8538789,276.304802 C74.2306372,276.200291 74.5507588,276.085153 74.8217488,275.961417 L75.7678564,360.509035 C75.2659112,360.607822 74.8198809,360.924334 74.5933842,361.520971 C74.9915549,361.672382 75.3883557,361.823792 75.7842579,361.974732 L76.1740085,396.804265 C68.6240461,393.667834 54.7598106,388.122271 54.3987551,389.558472 C55.6023318,390.299653 60.5555131,389.975386 60.3819203,392.164187 C64.3725171,393.292563 70.9514829,397.346636 76.1935939,398.554483 L77.1041679,479.926694 L70.459561,483.940969 C70.9813205,483.912316 72.3986772,483.323522 74.1781043,482.447674 L60.2742927,491.733796 C66.0351008,492.616481 71.5688781,488.241801 77.1462355,483.686004 L77.3511734,502 L0.704689026,502 L0.704689026,471.75303 C0.887257283,472.078216 1.07555625,472.417909 1.2758863,472.787348 C2.06284033,472.069328 9.27272797,467.228487 7.25905149,468.35184 C6.46052461,468.803498 5.65042487,469.266736 4.85189799,469.718394 C4.85189799,468.734012 4.67830519,467.772792 4.29640103,466.846316 C2.51418161,467.842278 5.23380215,469.046698 2.79193009,469.811041 C2.59126799,468.949059 2.24986139,468.389475 1.7685856,468.131414 C4.32011542,465.28975 6.87164524,462.438497 9.42317507,459.597794 C9.83979779,459.134555 10.2448477,458.682898 10.6498975,458.21966 C9.62378968,457.266178 1.92859962,465.564945 1.3375564,467.986531 C1.14345268,467.95474 0.932484639,467.959338 0.704689026,468.000287 L0.704689026,448.024032 C1.66636079,447.516229 2.54627303,446.891507 2.96668018,446.43256 C0.790983746,446.143036 0.756265186,445.274464 2.83937879,443.826844 C2.28168434,443.324142 1.50943906,443.692781 0.704689026,444.416219 L0.704689026,340.207675 C1.68851471,339.848185 2.84250897,339.126737 3.58004141,339.513675 C3.79185817,336.885308 2.10796913,336.610022 0.704689026,337.238685 L0.704689026,252.783899 C1.82608093,252.342249 1.82608141,251.611823 0.70469049,250.57997 L0.704689026,44.9310242 C1.16666795,45.0891114 1.64767376,45.1944227 2.15658044,45.221827 C1.64578019,44.6741577 1.17309591,43.97528 0.704689026,43.2869068 L0.704689026,0.176757812 L100.586525,0.176757812 L110.085282,72.2768482 C109.953189,72.0014911 109.806477,71.6934745 109.645242,71.3473117 C106.995059,72.2853693 107.515837,74.5204944 105.791482,76.1881524 C106.728883,77.716839 107.828304,77.8789724 109.101318,76.7092956 C109.716439,76.044745 110.1778,75.6433881 110.488398,75.3366897 L117.804384,130.86851 C115.225476,128.597038 112.521378,126.509897 109.613996,124.747112 C111.820608,128.713221 114.929453,131.955053 118.334856,134.895043 L124.287826,180.080916 Z M236.447904,436.053128 C237.049239,436.3278 237.716581,436.45519 238.534425,436.28764 C237.620169,433.461886 241.913698,425.54051 243.62648,423.282223 C239.703283,421.741956 240.154624,418.985688 236.185136,423.374871 C234.518645,426.38592 232.099918,430.253961 231.625431,433.519791 C233.212068,433.606283 234.235529,434.559554 235.291409,435.338777 C232.311236,436.438565 228.652594,438.316889 229.284243,440.710408 C231.047249,440.198778 234.280709,437.946901 236.447904,436.053128 Z M36.8783428,405.192601 C36.2839737,405.064493 35.6896047,404.936386 35.0952357,404.808278 C34.9382583,405.565153 35.2542107,406.181151 35.7826973,406.599269 C35.4972305,407.066051 35.7461733,407.347594 36.5175393,407.449895 C36.7077773,407.360917 36.8769555,407.261217 37.02514,407.150861 C38.1287006,407.362947 39.3368619,406.98231 39.6086485,405.781079 C39.0077577,405.651565 38.406867,405.522052 37.8059762,405.392539 C37.7962362,405.253783 37.7756564,405.109592 37.7442618,404.959989 C37.4102419,404.974112 37.1221205,405.05139 36.8783428,405.192601 Z M247.7446,452.631754 C248.880983,452.255631 249.970924,451.786137 250.799335,451.582612 C247.651519,449.833887 245.660988,449.521202 248.079714,445.64158 C247.429541,445.756292 246.90827,445.939799 246.485653,446.178405 C246.374416,445.238096 246.309068,444.295324 246.309068,443.349709 C245.474208,443.693319 245.163234,445.324535 245.167928,447.539589 C244.375224,449.020765 244.44974,451.061112 243.462146,452.787032 C244.084222,453.149285 244.826907,453.224223 245.613704,453.139648 C246.221475,457.710376 247.29377,462.460425 247.813539,463.952234 C248.531056,466.615855 249.086553,459.273527 248.936105,458.312307 C248.644324,456.423246 248.192102,454.530804 247.7446,452.631754 Z M138.569425,413.764453 C139.10952,411.84696 139.162046,409.909944 137.628402,407.856387 C140.903519,410.218902 140.278585,408.389111 143.160226,406.883586 C142.986633,409.489302 144.329084,413.959552 142.32698,416.136772 C145.555806,417.086411 144.086054,406.559319 144.062908,405.030633 C136.644709,405.100118 140.348022,400.76884 138.438502,395.846932 C138.204731,399.935205 136.65926,404.639605 135.681797,409.318523 C135.044484,409.119986 134.316261,409.276119 133.496893,409.975702 C133.683869,410.162808 134.260359,411.26022 135.08823,412.783646 C134.605773,416.630089 134.837904,420.349 136.864594,423.571747 C135.912355,421.220924 136.599478,419.043849 137.425816,416.908039 C140.395091,421.854913 144.342701,427.124318 146.805675,424.08131 C145.162329,423.699138 143.889316,422.795823 142.963487,421.359784 C142.16496,423.270643 138.993999,417.179058 139.04029,416.461039 C139.0652,416.044398 138.908469,414.96529 138.569425,413.764453 Z M191.89467,484.572802 L191.943716,479.751561 C193.804756,478.188169 195.638202,476.395589 195.868382,475.516491 L195.747271,481.080472 C196.237924,481.041658 196.689863,481.0026 197.105489,480.962999 L192.395048,484.250107 C192.228115,484.357703 192.061312,484.465255 191.89467,484.572802 Z M36.9247135,345.289318 C37.0125552,346.848966 38.1403742,348.527895 39.5704581,348.837505 C40.2995478,348.281619 41.0402104,347.714152 41.7808731,347.158266 C40.6390097,345.722854 39.5971832,345.165304 38.8750145,343.80277 C41.7058803,341.583062 44.3190135,339.279343 44.7354225,338.681004 C41.4024408,335.646793 33.2088606,346.97297 31.2183298,348.385847 C31.8201159,348.777282 34.2690441,347.250693 36.9247135,345.289318 Z M239.474343,318.709289 C237.992642,319.282008 235.837857,320.151222 236.14926,320.881071 C237.364409,323.811053 245.31496,316.792992 246.807858,316.028649 C248.335474,316.271849 249.469614,312.079542 248.1966,311.627885 C246.340437,311.050205 244.041266,314.503319 242.230083,316.690435 C241.102522,317.223296 239.948112,318.004226 239.402389,318.044894 C238.002074,316.342493 234.70381,312.497615 238.673299,311.3511 C236.300864,307.286183 231.880034,306.371287 228.512334,303.522372 C230.472379,308.227506 235.016797,315.796312 239.474343,318.709289 Z M231.696274,406.917144 C231.032335,409.814809 229.904272,413.97051 232.668145,412.323162 C234.647103,411.130324 241.579243,408.721484 238.489291,405.108225 C235.179455,404.899768 234.947998,406.324226 232.043211,404.69131 C232.079579,405.021122 231.983359,405.60066 231.833199,406.302435 C231.809905,406.305612 231.786555,406.309016 231.763148,406.312645 C231.714474,406.527323 231.692197,406.728794 231.696274,406.917144 Z M173.642653,350.659714 L173.473306,352.201084 C172.230434,352.274507 171.181797,351.84347 170.3356,350.924394 C171.469747,350.99195 172.561888,350.858087 173.642653,350.659714 Z M193.080768,367.979435 L193.129554,363.183771 C197.586222,365.021747 193.33163,366.855261 193.792616,367.261652 C193.553445,367.382781 193.31556,367.632092 193.080768,367.979435 Z M188.723707,100.87644 C188.758425,99.6141157 188.191355,98.8150295 187.03407,98.4907627 C187.080362,98.6413151 189.371787,104.061204 188.723707,100.87644 Z M27.4548379,43.1129344 C27.0960794,44.8848211 18.3007109,41.9432576 16.4606272,41.5147621 C18.1502638,37.6467219 25.2097043,42.9044771 27.4548379,43.1129344 Z M245.869299,238.309993 C246.320641,239.12066 246.771982,239.919746 247.223323,240.730414 C249.595758,239.387022 245.302229,233.492314 244.318537,231.766751 C241.830373,233.3186 248.34589,236.758145 245.869299,238.309993 Z M198.905503,72.365278 C200.67615,71.8904586 201.046481,72.4231827 201.845008,73.9402883 C200.305818,74.600403 199.322126,74.0792598 198.905503,72.365278 Z M58.2629308,447.926504 C60.5890743,451.01862 53.9809751,451.041781 56.0177973,454.052831 C54.6059091,454.458164 54.6753463,451.63241 53.1824482,452.304106 C53.9115379,450.080562 56.2608272,448.771914 58.2629308,447.926504 Z M38.8182226,411.204442 C39.7093323,416.415873 36.0407378,412.733128 32.1175405,416.207416 C31.758782,411.482385 34.9413167,410.671718 38.8182226,411.204442 Z M227.108547,247.317663 C227.964938,246.854424 229.527273,244.480328 230.198499,245.568938 C231.101181,246.993396 227.525169,248.765283 227.108547,247.317663 Z M241.609332,59.5567376 C241.366302,56.8815362 244.004913,56.383555 245.949152,55.9898024 C246.828689,58.5144514 244.56041,62.3130058 241.609332,59.5567376 Z M82.8552442,160.268229 C81.848406,158.739542 82.6585057,158.044685 84.1282581,157.199275 C84.4870165,158.519504 84.0588209,159.550209 82.8552442,160.268229 Z M90.0882775,31.2667717 C91.7431956,31.6605243 92.3912754,31.753172 93.2013751,30.1086759 C92.4838582,29.4253993 91.6621856,28.9158371 90.7247845,28.5684084 C90.5164731,29.4601422 90.3081618,30.363457 90.0882775,31.2667717 Z M109.21589,142.557469 C109.632512,139.002114 113.71773,142.835412 115.928145,142.870154 C115.962863,146.494995 109.574648,144.595717 109.21589,142.557469 Z M28.0936594,19.0233822 C26.8553641,19.2665824 26.0684101,18.2127151 24.7953962,18.5833058 C24.1241707,16.3481808 27.9895037,16.9619716 28.0936594,19.0233822 Z M64.4787103,329.775247 C66.087337,328.84877 67.0710295,326.810521 68.8301032,326.231473 C71.7464623,328.339208 65.6359957,333.098982 64.4787103,329.775247 Z M234.658676,266.601117 C235.179455,264.690259 236.313594,264.690259 237.123694,263.705877 C238.720748,264.157535 236.313594,269.05628 234.658676,266.601117 Z M26.335743,186.262849 C25.5487889,185.405858 25.3404776,184.456219 25.7339546,183.402352 C27.6897668,186.332334 30.513543,183.726619 30.98803,181.410427 C29.6571519,181.908408 28.7197508,181.479913 28.1758266,180.11336 C26.7523657,178.561511 25.6529446,181.584141 23.9285895,181.908408 C19.8780908,182.672751 17.6445301,183.26338 13.2468458,182.128446 C16.5566819,186.262849 21.2205418,188.162126 26.335743,186.262849 Z M105.48133,318.867142 C104.659657,317.095255 105.203581,316.411979 107.113102,316.817312 C107.923202,318.589199 107.379278,319.272475 105.48133,318.867142 Z M180.659742,252.20946 C179.166844,255.8343 177.164741,250.414411 175.694988,252.498984 C173.692885,249.233153 179.328864,250.066982 180.659742,252.20946 Z M230.166095,81.7238507 C230.200813,83.2641182 230.895184,84.3295664 232.249208,84.9086143 C231.577983,82.8587846 230.83732,80.8321169 230.131376,78.8054491 C228.569041,79.0254873 228.580614,79.9982878 230.166095,81.7238507 Z M60.6700843,109.613115 C63.3202677,111.442907 59.2466233,112.288317 58.4133779,113.469575 C55.4507274,117.627139 64.7668744,111.396583 64.3039603,111.581878 C63.6327348,109.752087 62.4175852,109.091972 60.6700843,109.613115 Z M47.1310032,443.515316 C47.6402087,443.851164 48.1494143,444.198593 48.6701927,444.534441 C49.7348952,442.947849 45.1867638,441.106477 43.7980214,440.191581 C42.3514147,441.824496 43.4624086,442.924688 47.1310032,443.515316 Z M261.681289,260.997091 C262.283077,261.112901 262.884866,261.22871 263.498227,261.34452 C263.197333,258.982004 257.931684,259.76951 256.415641,259.063071 C256.010591,260.98551 260.257828,260.730729 261.681289,260.997091 Z M55.2794492,438.578354 C57.18897,438.219344 57.7213213,438.914202 56.8649301,440.651345 C54.9438365,441.010355 54.4230581,440.315498 55.2794492,438.578354 Z M46.0512559,414.709998 C44.6740864,415.914418 44.6393678,417.176742 45.970246,418.520133 C46.6530443,417.964247 47.4052798,417.524171 48.2385252,417.223066 C47.4515712,416.42398 46.7224814,415.590151 46.0512559,414.709998 Z M60.822846,177.786745 C59.5035407,176.489678 56.5408902,171.590932 54.2610381,173.930286 C57.0153772,175.875887 59.6887063,181.654785 63.4730294,181.666366 C62.7670853,181.006251 60.0243191,179.072231 60.822846,177.786745 Z M6.83548506,388.466387 C9.4046585,392.172294 -0.374402587,386.960863 6.00223961,388.86014 C6.08324959,388.883302 6.8007665,388.420064 6.83548506,388.466387 Z M219.655629,449.707655 C221.136954,449.290741 222.61828,448.862245 224.088032,448.43375 C226.113281,455.32442 214.355262,451.271084 219.655629,449.707655 Z M11.5641529,428.344261 C11.5988715,429.884528 11.6335901,431.424796 11.6914543,432.953482 C9.24958227,432.999806 9.93238061,428.367422 11.5641529,428.344261 Z M73.2833372,131.825394 C72.2649261,132.184404 71.9177405,132.763452 72.0797604,133.493052 C67.693649,134.940672 71.1770779,126.567639 73.2833372,131.825394 Z M63.5065907,309.345278 C64.5250018,308.40722 65.9716084,308.441963 67.6149536,308.951525 C66.8164267,311.418269 64.0968062,310.816059 63.5065907,309.345278 Z M236.749891,388.619256 C234.203863,390.124781 234.713069,386.233579 234.608913,385.469235 C237.166514,383.963711 236.657308,387.854913 236.749891,388.619256 Z M158.265114,313.619809 C161.054172,305.65211 166.342966,303.671766 171.365584,301.008145 C168.993149,303.266432 162.928974,311.222551 158.265114,313.619809 Z M17.2383229,255.251778 C20.629169,258.656579 14.4839838,258.78397 12.9795129,260.440047 C11.9032375,256.768883 17.2267501,258.228084 17.2383229,255.251778 Z M83.6861751,128.420592 C82.8182111,128.721697 81.9386742,129.011221 81.0707102,129.312326 C78.9181595,127.204592 84.1027978,125.432705 83.6861751,128.420592 Z M134.803468,305.782975 C134.560438,306.350442 134.317409,306.917909 134.062806,307.473795 C135.625141,309.824729 137.696682,305.678746 136.007045,305.308155 C135.798734,305.956689 135.405257,306.107242 134.803468,305.782975 Z M207.296979,284.310719 C209.924017,282.805195 211.185458,282.99049 211.069729,284.855024 C208.431119,286.37213 207.169678,286.186834 207.296979,284.310719 Z M210.85216,368.872563 C211.222491,372.161556 207.148847,366.428981 210.597557,366.104714 C210.678567,367.031191 210.77115,367.946087 210.85216,368.872563 Z M213.502343,446.014487 C217.275093,439.378598 224.056785,434.317719 229.982086,429.74324 C227.96841,432.047851 214.578618,446.929383 213.502343,446.014487 Z M27.572881,411.871505 C25.9758272,413.099087 24.5639391,409.856418 25.281456,408.964684 C26.0452643,409.937485 26.8090727,410.910285 27.572881,411.871505 Z M24.7028134,162.45703 C25.8948173,163.580383 21.5087058,166.846213 21.1846659,163.90465 C22.2725141,163.985716 23.4529452,163.464573 24.7028134,162.45703 Z M45.6276895,153.375242 C43.6834501,153.271013 43.3362645,152.471927 44.5861327,150.977984 C46.5303721,151.082212 46.8659848,151.881298 45.6276895,153.375242 Z M254.933158,370.308602 C251.924216,369.67165 250.871087,367.008029 251.102544,362.989436 C252.201965,365.479342 257.37503,367.077515 254.933158,370.308602 Z M201.906344,459.439135 C202.739589,457.44721 202.0105,456.080657 203.295086,453.996084 C201.883198,453.625493 201.998927,456.428085 200.494456,455.779552 C201.11939,454.366675 201.732751,452.965379 202.357685,451.552502 C200.783777,450.533377 200.008396,451.540921 200.019969,454.563551 C197.404504,457.44721 198.041011,459.068544 201.906344,459.439135 Z M139.250916,462.979434 C141.820089,460.014708 144.724876,466.059969 141.334029,466.175778 C140.882688,464.635511 140.19989,463.523739 139.250916,462.979434 Z M18.2440039,266.187677 C21.2992372,264.809543 20.7784588,267.693202 19.2739878,268.897621 C18.7416366,268.063792 18.4060238,267.160477 18.2440039,266.187677 Z M138.414199,368.827398 C137.673536,372.869152 136.122774,375.752811 135.41683,379.539784 C137.025456,379.840889 136.296366,377.119364 137.754546,377.165688 C137.939712,379.169194 134.514147,384.728054 136.018618,386.233579 C136.527824,384.392206 142.88132,367.958826 138.414199,368.827398 Z M144.318668,305.086959 C141.136134,307.912713 147.709514,312.788297 150.267115,312.209249 C149.387578,308.468599 145.811566,308.816028 144.318668,305.086959 Z M190.078888,167.85144 C190.183044,166.450144 190.703822,161.667209 187.77589,163.844429 C189.812712,166.612278 188.875311,170.572966 192.011554,172.703862 C192.833227,170.132889 192.729071,167.828279 194.927913,165.91742 C190.912133,163.61281 191.409766,168.013574 190.078888,167.85144 Z M98.8014788,151.176018 C101.000321,152.17198 99.2875387,146.891063 102.192325,149.218836 C101.798848,155.414649 97.1812794,150.075827 94.3459303,149.971598 C94.9940101,147.470111 100.838301,147.053197 98.8014788,151.176018 Z M199.279306,130.73331 C202.565997,134.670836 188.597563,139.534838 186.96579,135.57415 C188.030493,134.728741 188.875311,134.902455 189.523391,136.095294 C190.345063,134.925617 190.611239,133.651711 190.310345,132.250415 C194.152532,131.995634 192.833227,137.044932 196.53654,133.732778 C197.450795,132.725235 198.353478,131.729272 199.279306,130.73331 Z M105.65608,358.043209 C105.551924,358.286409 102.508264,360.509953 102.901741,360.996353 C101.675018,359.490829 104.498795,357.927399 105.65608,358.043209 Z M65.69386,104.619406 C66.5502511,102.917005 68.6333647,103.692929 69.4897559,102.002109 C71.8274722,100.218642 68.1473049,106.819788 65.69386,104.619406 Z M34.2469455,382.517249 C34.443684,382.100334 41.9776116,374.387416 38.3321628,376.958389 C35.6472608,378.846085 36.179612,378.521818 35.0223267,376.031912 C33.7030214,377.190008 32.869776,378.626047 32.5457361,380.340029 C33.8997599,380.363191 34.4668297,381.092791 34.2469455,382.517249 Z M53.019271,159.595375 C52.9845524,160.765052 53.4706122,161.610462 54.4658776,162.131605 C54.3964405,161.552557 55.9934943,158.298308 53.019271,159.595375 Z M7.06694212,263.801999 C7.55300196,265.678115 6.39571663,267.229963 4.77551716,268.677583 C4.5672058,266.859373 6.52301801,265.469657 7.06694212,263.801999 Z M179.048801,248.641366 C178.886781,246.105136 177.532758,245.90826 174.963584,248.015995 C175.14875,250.552225 176.502774,250.760682 179.048801,248.641366 Z M13.531538,420.930131 C14.954999,423.176837 14.792979,423.593751 12.8950311,425.504609 C12.0617856,423.848532 12.2816698,422.331427 13.531538,420.930131 Z M61.3540399,428.830661 C62.372451,431.436376 60.5439402,432.108072 58.0673496,433.092454 C57.3151141,431.216338 59.9074333,429.282318 61.3540399,428.830661 Z M56.1775026,327.909554 C54.4184289,328.361212 52.9486765,331.047994 53.5157464,332.773557 C56.5941254,334.174853 58.3647719,331.708109 60.8760811,334.707577 C62.5888634,330.75847 59.5914944,324.724791 59.6840772,324.331038 C58.9434146,327.446316 63.2022246,331.789176 56.1775026,327.909554 Z M166.142755,265.271623 C168.526763,266.719243 169.441018,265.167394 167.103302,263.685032 C166.790835,264.217756 166.466795,264.75048 166.142755,265.271623 Z M28.9859264,137.959828 C28.8470521,138.573619 29.2289563,141.422535 30.513543,140.623448 C31.8212755,139.812781 29.9464732,136.593275 29.0785092,136.118456 C29.0553635,136.732246 29.0206449,137.346037 28.9859264,137.959828 Z M207.416179,167.065093 C202.659737,164.818387 194.408292,174.789593 189.397247,173.110354 C186.168421,174.465326 172.651328,177.163689 171.956957,181.147539 C180.937491,179.456719 189.015343,174.859079 197.903294,172.809249 C200.923809,171.419534 214.267309,169.578161 215.019544,166.590274 C214.788087,164.135111 208.666048,167.088255 207.416179,167.065093 Z M265.314008,423.305385 C266.112534,422.830566 266.899488,422.367328 267.698015,421.904089 C266.957353,419.715288 265.499173,418.441383 263.300331,418.059211 C264.920531,419.761612 264.214586,421.464013 265.314008,423.305385 Z M171.053117,257.060723 C171.1457,253.864379 175.508665,255.821561 175.230917,252.879997 C173.413979,255.254094 167.072055,253.655922 168.414506,258.288305 C169.20146,257.697676 170.09257,257.292343 171.053117,257.060723 Z M46.3058587,472.891576 C46.282713,471.814547 41.4799789,470.922813 43.0423141,467.958088 C47.2548327,469.347803 46.5951801,469.06986 46.3058587,472.891576 Z M25.4770372,198.36495 C25.3844544,199.731504 24.6785104,212.667434 26.3218555,213.22332 C26.5070212,205.880993 30.6963941,198.353369 30.6616755,191.393213 C30.6385298,187.502011 32.0041265,183.13599 32.9531005,179.117397 C33.6358989,176.280062 31.5064938,162.591369 26.9236439,163.274646 C26.5648855,168.532401 30.7889769,168.115486 31.9809808,173.616442 C33.7979188,182.024218 28.416542,190.327765 27.3171209,198.469179 C27.0625182,197.600607 28.6942905,193.790472 26.7153326,193.802053 C26.3334284,194.647463 27.4328495,198.642893 25.4770372,198.36495 Z M36.5522579,54.1171613 C34.4807172,55.5763621 35.9967609,70.8053228 36.0430524,73.1215146 C36.0777709,75.6114207 34.9899227,98.6922713 36.5638308,98.5996237 C36.3786651,98.1016425 35.9273238,95.0790122 36.6564136,94.8473931 C36.8531521,95.7507078 37.3623576,96.0286509 38.1608845,95.692803 C38.1724574,95.8317746 36.1934995,84.5171779 37.0498906,85.1193878 C38.3807687,86.0342835 36.0777709,88.4315419 38.4733516,88.2578276 C37.3855034,76.3294401 38.1145931,65.6633772 36.5522579,54.1171613 Z M220.351158,230.919025 C227.653628,234.35857 234.828797,246.530158 231.380087,254.439952 C228.822486,260.265175 220.952946,260.311498 216.150212,263.9595 C214.379565,262.071804 211.254895,262.894052 209.761997,260.612603 C209.067626,258.041631 211.301186,256.559268 210.213338,253.895647 C205.67678,254.243076 208.130225,251.498389 206.672045,248.116749 C205.051846,244.376099 201.927175,242.048327 202.910868,237.520172 C205.156001,236.616857 203.16547,241.828288 206.197558,239.651068 C204.762524,235.331371 202.494245,231.173806 197.228597,233.084665 C199.485303,235.377694 199.71676,239.685811 198.733068,242.581051 C197.784094,245.337319 204.531067,250.073931 206.417442,253.779838 C206.648899,254.868448 211.150739,257.647878 208.47741,259.00285 C209.275937,262.685595 212.25016,267.132683 215.872463,265.673482 C223.660994,262.535043 232.826694,259.813517 232.965568,250.097093 C233.011859,244.457166 227.815648,229.297691 220.351158,230.919025 Z M151.190629,376.749931 C150.218509,376.61096 150.091208,376.194045 150.797152,375.510769 C150.982317,375.614998 155.102253,379.575685 151.179056,378.822923 C151.179056,378.128066 151.190629,377.444789 151.190629,376.749931 Z M215.343584,318.103957 C213.538219,318.99569 215.28572,317.107994 212.496662,318.764071 C212.473516,321.589825 216.512442,319.3547 215.343584,318.103957 Z M22.4704099,229.471405 C22.0885058,229.957806 21.6950288,230.432625 21.3131246,230.930606 C21.6834559,226.275061 27.041687,223.507212 30.8144372,221.966944 C30.7218544,225.823403 24.8428449,227.398414 22.4704099,229.471405 Z M235.534741,438.183443 C238.092342,437.291709 239.481084,438.947786 241.147575,440.013235 C239.191763,439.607901 237.386398,438.86672 235.534741,438.183443 Z M141.934661,249.471721 C140.059858,248.556825 139.747391,249.599112 138.16191,248.915835 C138.786844,247.966197 142.212409,246.981815 141.934661,249.471721 Z M46.5257429,379.80383 C44.9634077,379.908059 44.9055435,380.880859 46.363723,382.722232 C45.6577789,382.710651 44.9865534,382.58326 44.3384736,382.328479 C44.5815036,383.532899 45.970246,386.868215 47.5557269,384.911033 C49.6041219,382.386384 46.4678787,382.69907 46.5257429,379.80383 Z M136.379691,243.580487 C136.692158,242.387649 140.522772,240.256752 141.969379,240.198848 C141.217144,241.68121 137.91888,243.73104 136.379691,243.580487 Z M215.135273,442.237937 C212.878566,440.859803 210.934327,439.041592 209.429856,436.864372 C210.957473,437.408677 215.088981,440.813479 215.135273,442.237937 Z M46.4470475,266.148302 C47.3844487,266.414664 47.67377,266.101978 47.3265844,265.187082 C45.1277422,265.268149 42.2692475,266.565216 41.9567804,269.124608 C43.2992314,268.696113 44.8962852,265.997749 46.4470475,266.148302 Z M38.6492589,272.57805 C37.931742,272.056907 38.3946562,260.360139 35.3047043,268.351 C39.193183,268.744753 37.6771393,272.93706 34.9806644,269.219572 C34.9922373,270.701935 37.457255,274.39626 38.6492589,272.57805 Z M30.8456839,345.479027 C30.2670412,344.239864 30.5447897,337.071251 31.2738795,335.669955 C32.6047576,337.383937 32.0029693,344.205121 30.8456839,345.479027 Z M43.9716142,420.630184 C42.4671433,419.37944 39.3309,417.734944 37.2362135,418.626678 C38.7985487,420.352241 37.9421576,420.22485 38.775403,421.105003 C40.5344767,420.352241 42.3514147,422.124128 43.9716142,420.630184 Z M63.3318406,422.332585 C64.8247387,419.877422 66.8384151,416.078867 64.8826029,414.608085 C62.6374694,418.059211 59.8831303,417.387516 58.1356294,420.201688 C61.7695054,419.726869 58.4480965,423.177995 57.7421524,424.312929 C60.2766073,425.343634 62.0703996,421.776699 63.3318406,422.332585 Z M6.69313896,408.433118 C5.8136021,408.884776 5.03822093,409.486985 4.39014114,410.239748 C4.81833671,410.552434 11.657893,408.919519 11.1139689,409.892319 C11.7967673,408.687899 7.48009299,407.738261 6.69313896,408.433118 Z M50.6341059,429.350646 C47.6598826,430.404513 46.8497828,425.702644 43.7482581,427.242911 C44.4773479,428.945312 50.2984931,434.504172 51.571507,433.971448 C51.1085929,432.384857 51.2474671,430.740361 50.6341059,429.350646 Z M104.311314,279.351753 C104.589063,278.737962 104.392324,278.344209 103.744245,278.182076 C103.258185,279.467562 103.154029,283.856746 104.589063,284.308403 C107.019362,280.76463 104.357606,283.254536 104.311314,279.351753 Z M33.7724585,302.350379 C36.8392647,298.5055 36.9781389,293.479364 39.3621467,289.553419 C43.5862382,293.050869 35.5199594,303.427408 33.7724585,302.350379 Z M86.918473,102.674963 C87.5781257,103.670925 86.8027445,106.971499 85.8884891,107.793747 C83.9095311,105.083802 84.2914353,104.423688 86.918473,102.674963 Z M170.900355,175.146286 C170.738335,172.887999 169.673633,172.864837 169.615769,170.606551 C168.400619,172.297371 167.926132,174.185067 168.20388,176.269639 C169.025553,175.713753 169.916663,175.331582 170.900355,175.146286 Z M53.3919168,285.373851 C53.9937052,285.23488 54.5954936,285.095908 55.1857091,284.945356 C55.0121163,284.238917 53.4960725,280.787792 52.3040686,280.880439 C52.6743999,282.374383 53.0331584,283.879908 53.3919168,285.373851 Z M222.678458,12.679333 C225.016175,12.4824567 225.675827,14.6133531 228.013544,14.4048959 C225.722119,17.6938882 222.053524,16.7095067 222.678458,12.679333 Z M226.657205,115.364219 C227.258994,113.569171 227.36315,113.152256 227.964938,111.913094 C229.67772,111.808865 227.883928,116.568639 226.657205,115.364219 Z M253.27824,169.655754 C252.699597,168.52082 251.831633,168.092324 250.662775,168.347106 C249.898967,168.706115 253.463406,171.439221 254.5744,170.952821 C254.134631,170.512745 253.706436,170.084249 253.27824,169.655754 Z M260.62353,275.275255 C262.128001,276.039598 263.389442,276.42177 264.743466,277.545123 C263.7482,277.915714 259.107486,277.13979 260.62353,275.275255 Z M15.5151251,203.233585 C15.6308536,204.472748 14.2421112,205.422387 12.9112331,205.306577 C13.2468458,203.974767 14.1148098,203.279909 15.5151251,203.233585 Z M31.4277984,297.430787 C33.4414749,298.681531 31.0574671,301.657837 30.1779303,303.1402 C28.9974992,302.734866 30.9417386,298.241454 31.4277984,297.430787 Z M219.232063,132.735658 C221.963256,133.349448 216.848055,134.148534 220.574514,134.970783 C219.127907,138.468232 215.343584,131.7976 219.232063,132.735658 Z M49.6064365,477.664089 C48.6921811,479.760243 49.803175,474.52565 49.7105922,474.745688 C50.4281091,475.695326 50.3933905,476.668127 49.6064365,477.664089 Z M262.652251,185.024844 C261.240363,183.102405 266.309273,179.083812 267.663297,178.33105 C268.820582,179.940803 263.635944,183.970977 262.652251,185.024844 Z M47.5835017,455.186607 C43.7065959,457.166951 51.4951262,470.832482 52.93016,473.10235 C54.2957567,470.311339 52.9417328,469.072176 56.795493,469.037433 C51.7960204,467.508747 50.557725,459.066228 47.5835017,455.186607 Z M62.5807624,464.381888 C61.1573014,465.62105 57.9747668,461.336096 58.9121679,460.235905 C60.1388903,461.614039 61.3656128,462.992173 62.5807624,464.381888 Z M229.019225,301.416953 C227.5379,299.980914 223.880878,298.695428 225.825117,296.807732 C226.623644,297.62998 230.361676,300.143048 229.019225,301.416953 Z M51.2393661,400.533746 C50.0936536,398.831345 43.8906042,397.534278 46.436632,394.847496 C47.5707716,395.889782 52.6281085,399.039803 51.2393661,400.533746 Z M149.308883,180.880019 C148.533502,179.548209 153.752858,176.328702 154.933289,177.706836 C153.07006,178.772285 151.195258,179.826152 149.308883,180.880019 Z M102.621678,234.487119 C103.073019,233.792261 104.230304,231.348679 105.433881,231.916146 C104.542771,233.271118 104.068284,235.425176 102.621678,234.487119 Z M263.980815,465.472814 C263.436891,464.754795 259.386392,463.839899 260.566823,462.241727 C264.24699,462.728127 265.392703,463.805156 263.980815,465.472814 Z M60.0428357,336.770146 C60.4363127,334.859288 65.7945438,337.024927 67.4610347,337.360775 C67.0559848,339.3527 61.5357337,337.071251 60.0428357,336.770146 Z M131.15802,283.559115 C130.139608,284.253972 129.13277,284.94883 128.102786,285.643688 C126.841345,283.813896 129.908151,281.729323 131.15802,283.559115 Z M115.421254,425.052952 C116.323936,426.639543 119.980958,430.125412 116.416519,431.700422 C115.953605,430.171736 114.090375,425.632 115.421254,425.052952 Z M245.451519,175.807559 C245.058042,177.984779 241.424166,177.301503 241.829216,175.124283 C243.032793,175.355902 244.247943,175.57594 245.451519,175.807559 Z M165.289836,231.003566 C164.745912,231.420481 164.190415,231.837395 163.646491,232.25431 C164.896359,231.617357 169.814822,232.346958 169.826394,230.158156 C168.310351,230.436099 166.794307,230.725623 165.289836,231.003566 Z M60.2071702,444.946723 C59.4086433,446.301695 67.6948063,449.115868 68.0882833,447.56402 C65.2876528,445.722647 65.0099043,442.352588 61.3644555,441.437692 C60.7626671,443.22116 62.5680323,444.205542 63.2739763,445.467866 C62.3365752,446.070076 61.3065912,445.884781 60.2071702,444.946723 Z M102.446928,329.543628 C100.803582,328.24656 98.7320417,330.852276 100.236513,327.64435 C101.185487,328.188655 102.713103,328.48976 102.446928,329.543628 Z M17.4015002,310.447785 C17.6098115,311.686947 18.3041827,312.370224 19.4846138,312.486034 C19.0448453,310.401461 17.9338514,308.895936 16.151632,307.96946 C16.5566819,308.803289 16.9848775,309.625537 17.4015002,310.447785 Z M241.309595,189.599323 C239.573667,189.657228 238.670985,188.823399 238.624693,187.074674 C240.140737,188.23277 239.967144,187.352617 241.309595,189.599323 Z M211.51297,379.203937 C208.353581,376.134983 207.369888,371.224656 205.726543,367.310292 C208.619756,370.298179 210.552423,375.231668 211.51297,379.203937 Z M16.4409533,449.617324 C14.8554724,449.038276 19.3341667,436.924593 20.7807734,437.434155 C19.3341667,441.499072 17.88756,445.552407 16.4409533,449.617324 Z M188.875311,36.1400392 C187.185675,36.3369155 186.421866,29.0061686 188.088357,28.7861304 C188.354533,31.2412936 188.609135,33.6964569 188.875311,36.1400392 Z M29.3423703,446.975707 C28.1272207,448.133803 24.3313248,444.068886 25.5464744,442.933952 C26.8079154,444.288924 28.0693564,445.632316 29.3423703,446.975707 Z M174.732127,209.346015 C175.252905,209.797673 175.762111,210.24933 176.282889,210.700988 C176.815241,209.716606 176.757376,208.743806 176.074578,207.782586 C174.431233,207.805748 173.979892,208.326891 174.732127,209.346015 Z M39.0728254,274.359201 C46.1785573,271.904038 44.3963379,278.736804 38.5057556,279.304271 C40.0796636,278.215661 37.0591489,275.181449 39.0728254,274.359201 Z" id="uE002-m1" fill="#000"/></g></svg>