<svg width="198" height="500" viewBox="0 0 198 500" version="1.1" xmlns="http://www.w3.org/2000/svg" xmlns:xlink="http://www.w3.org/1999/xlink"><title>uE004-r1</title><desc>Created with Sketch.</desc><g id="Page-1" stroke="none" stroke-width="1" fill="none" fill-rule="evenodd"><path d="M0,89.85746 L0,0 L104.630186,0 C141.912393,0 166.716715,6.26371768 179.043897,18.791341 C191.371078,31.3189642 197.534576,58.9294317 197.534576,101.623572 L197.534576,166.867108 C197.534576,194.928984 194.678321,214.672222 188.965725,226.097414 C183.253128,237.522607 173.18107,246.54236 158.749248,253.156945 C172.780186,258.568879 182.752025,266.937205 188.665063,278.262177 C194.578101,289.587148 197.534576,306.875009 197.534576,330.126278 L197.534576,500 L112.447384,500 L112.447384,398.52954 C114.875302,398.520555 117.386818,397.618562 118.473929,395.823564 L118.461225,395.81086 C119.185378,395.099411 118.461225,394.375258 118.461225,393.651105 C117.012918,392.926951 116.288765,391.491349 115.577316,391.491349 L112.447384,391.491349 L112.447384,314.792544 C112.447384,306.574423 110.893982,300.711583 107.787132,297.203848 C104.680281,293.696114 99.5189778,291.942273 92.3030667,291.942273 C91.5012989,291.942273 90.3487748,292.042492 88.84546,292.242934 C87.3421452,292.443376 86.1896212,292.543596 85.3878533,292.543596 L85.3878533,500 L0,500 L0,100.106794 C2.20845246,100.052992 4.33365232,98.789498 6.45885218,96.3163122 L-8.8817842e-15,89.85746 Z M109.383405,71.4666275 C109.031891,70.7659495 108.65013,70.1948931 108.238124,69.7534576 C105.431936,66.746828 99.7194257,65.2435358 91.1004209,65.2435358 L85.3878533,65.2435358 L85.3878533,217.979555 C86.3900631,217.979555 87.7430262,218.079775 89.4467829,218.280216 C91.1505397,218.480658 92.3030637,218.580878 92.9043897,218.580878 C100.521185,218.580878 105.682488,216.827037 108.388455,213.319302 C111.094421,209.811568 112.447384,202.946533 112.447384,192.723993 L112.447384,96.8129886 C112.447384,89.274061 112.094527,83.247437 111.388806,78.7330824 C114.106197,78.9627273 116.930452,78.0692749 117.737072,76.052725 L117.737072,73.8929697 C116.304768,71.4917555 112.324572,70.6829748 109.383405,71.4666275 Z M150.9846,245.339433 C156.040968,240.994513 156.040968,235.938145 150.9846,231.593225 C145.928231,235.938145 145.928231,241.007218 150.9846,245.339433 Z M150.9846,397.996024 L150.9846,397.996024 C153.144355,396.547718 154.592662,395.099411 153.144355,393.6384 L150.9846,391.478645 C148.824844,392.926951 148.087987,394.375258 148.824844,395.823564 L150.9846,397.996024 Z M132.182024,89.7989327 L132.194728,89.7989327 C132.918881,89.0747795 132.194728,88.3506262 132.194728,87.6264729 C131.470575,86.9023197 130.746422,85.4667176 129.298115,85.4667176 L122.79344,85.4667176 C122.081991,85.4667176 120.62098,86.9023197 120.62098,87.6391774 C119.909531,88.3506262 119.909531,89.0747795 120.62098,89.7989327 C122.081991,93.4196991 130.022268,93.4196991 132.182024,89.7989327 Z M122.79344,335.045507 L122.806144,335.045507 C124.9659,333.609905 125.690053,332.161599 124.9659,330.700588 L122.79344,328.540832 C120.633685,329.989139 119.185378,331.437445 120.633685,332.885752 L122.79344,335.045507 Z M66.4238248,105.7176 L66.4365293,105.7176 C68.5962847,104.269294 70.0445912,102.820987 68.5962847,101.372681 L66.4238248,99.2129253 C64.2640695,100.648527 63.5399162,102.096834 64.2640695,103.557845 L66.4238248,105.7176 Z M34.6373076,457.31307 C39.6809716,462.382143 44.0258912,462.382143 49.0822597,457.31307 C44.0258912,452.243997 38.9568183,452.243997 34.6373076,457.31307 Z" id="uE004-r1" fill="#000"/></g></svg>