<svg width="214" height="500" viewBox="0 0 214 500" version="1.1" xmlns="http://www.w3.org/2000/svg" xmlns:xlink="http://www.w3.org/1999/xlink"><title>uE007-a2</title><desc>Created with Sketch.</desc><g id="Page-1" stroke="none" stroke-width="1" fill="none" fill-rule="evenodd"><path d="M42.4278502,69.7712504 C43.3968546,70.591603 44.3638913,70.7585873 45.3366593,70.2722033 L45.3366593,70.2722033 L45.3493637,70.2594989 L47.5091191,68.0997435 C46.0608126,65.9399881 44.612506,65.2031304 43.1641995,65.9399881 C43.0375876,66.0027338 42.9108769,66.071211 42.7855665,66.1439205 L49.3084787,0 L162.958509,0 L213.469633,500 L130.487072,500 L124.173181,393.565845 L88.6951293,393.565845 L82.3812387,500 L0,500 L42.4278502,69.7712504 Z M105.231509,99.2182802 L91.7017438,327.119663 L120.565244,327.119663 L107.636801,99.2182802 L105.231509,99.2182802 Z M187.689947,451.519844 C188.4141,450.808395 187.689947,450.084242 187.689947,449.347384 C186.254345,448.635935 185.530192,447.187629 184.806039,447.187629 L178.288659,447.187629 C177.57721,447.187629 176.128904,448.635935 176.128904,449.360089 C175.40475,450.084242 175.40475,450.808395 176.128904,451.519844 C177.57721,455.14061 185.530192,455.14061 187.689947,451.519844 Z M171.072535,126.692636 C173.232291,125.257034 173.969148,123.808728 173.232291,122.347717 L171.072535,120.187961 C168.91278,121.636268 167.464473,123.084574 168.91278,124.532881 L171.072535,126.692636 Z M168.188627,164.323198 C167.464473,165.7588 168.188627,167.207106 170.348382,168.655413 L172.508137,166.482953 C173.969148,165.034646 173.244995,163.599044 170.348382,162.150738 L168.188627,164.323198 Z M171.072535,300.324264 C173.232291,298.875957 173.969148,297.427651 173.232291,295.979344 L171.072535,293.819589 C168.91278,295.255191 167.464473,296.703497 168.91278,298.164508 L171.072535,300.324264 Z M71.3553593,237.386451 L71.3553593,237.386451 L71.3553593,237.373747 C74.2519724,235.938145 74.9634212,234.489838 74.2519724,233.054236 C72.7909614,231.593225 69.1828995,229.43347 68.4714506,225.812703 C68.4714506,222.191937 67.7472974,219.295324 64.8633887,217.135569 C61.9667756,217.847017 57.621856,215.687262 55.4621006,219.295324 C54.7379474,225.812703 51.8413343,232.317378 57.621856,237.386451 L71.3553593,237.386451 Z M50.3930277,299.60011 L50.3930277,299.60011 L50.4057322,299.60011 C51.8413343,300.324264 53.2896408,299.60011 54.7252429,297.427651 L52.5654876,295.255191 C51.117181,294.543742 49.6815789,295.255191 48.2332724,297.440355 L50.3930277,299.60011 Z M30.1675539,363.262076 C32.3273093,361.81377 33.7756158,360.365463 32.3273093,358.917156 L30.1548495,356.757401 C27.9950941,358.205708 27.2709408,359.654014 27.9950941,361.102321 L30.1675539,363.262076 Z" id="uE007-a2" fill="#000"/></g></svg>