<svg width="138" height="502" viewBox="0 0 138 502" version="1.1" xmlns="http://www.w3.org/2000/svg" xmlns:xlink="http://www.w3.org/1999/xlink"><title>uE003-e1</title><desc>Created with Sketch.</desc><g id="Page-1" stroke="none" stroke-width="1" fill="none" fill-rule="evenodd"><path d="M0.915237427,294.803752 L0.915237427,246.286276 C6.73640291,248.150332 18.1786863,251.78046 18.6001475,250.412095 C17.9983591,250.2268 17.4081436,250.064666 16.8179281,249.890952 C14.7921401,249.309306 5.70186069,246.276416 0.915237427,245.346458 L0.915237427,0.176757813 L80.0051093,0.176757813 C80.8140003,1.99772015 84.6322942,6.26874279 85.5352167,4.92935549 L80.3290803,0.176757813 L81.9488562,0.176757813 C83.0093415,1.73756717 84.0841538,3.2768929 85.5375313,4.93167168 L82.0637367,0.176757813 L137.913284,0.176757813 L137.913284,65.6582031 L86.6144562,65.6582031 L86.6144562,193.603516 L136.088211,193.603516 C135.578467,194.806736 135.068724,196.008426 134.558981,197.206855 C135.288449,197.51443 136.546159,196.02269 137.913284,193.857861 L137.913284,259.688477 L86.6144562,259.688477 L86.6144562,286.309661 C85.5365766,287.482673 84.5952189,288.636519 85.4194882,289.541838 C85.6234555,289.003121 86.0892354,288.4267 86.6144562,287.841904 L86.6144562,292.721909 C86.4648497,292.494181 86.2915484,292.324101 86.0941855,292.228621 C86.059467,294.39426 86.0131756,296.548318 85.9668842,298.702377 C85.9553113,299.316167 85.9437384,299.929958 85.9321656,300.543749 C86.1961464,300.428069 86.4238579,300.180852 86.6144562,299.841089 L86.6144562,415.091803 C66.2193294,425.545842 47.1932461,436.480329 48.6178145,438.731222 C49.1127357,439.515396 72.1667182,429.668147 86.6144562,423.560631 L86.6144562,435.915039 L114.607248,435.915039 C115.043036,437.974198 117.275626,439.252924 117.455461,441.472435 C123.753037,441.627493 130.01886,446.644368 135.777154,443.252845 C136.473656,444.736503 137.177468,446.325371 137.913284,447.853738 L137.913284,502 L0.915237427,502 L0.915237427,481.510917 L8.08273834,481.883033 C9.03171231,483.492786 21.1947812,469.989388 12.1563827,472.479294 C19.5745817,475.629315 6.62455881,478.570878 5.20109785,478.976212 C4.38486759,479.156851 2.45090569,479.870116 0.915237427,480.545293 L0.915237427,296.639802 C1.93604136,297.58701 2.91628282,298.183584 3.30199261,297.884761 C2.50950914,296.858156 1.71193395,295.831552 0.915237419,294.803752 Z M9.52008549,205.287361 C10.5652458,203.910463 11.7842204,201.563163 11.7686921,200.591969 C9.53513143,199.943435 11.2826323,203.035551 9.2458101,202.769189 C9.04357248,203.541228 8.83163902,204.313268 8.61942285,205.082167 C8.25835385,205.090674 7.89785663,205.214601 7.56774636,205.489556 C8.5514389,206.670814 9.53513143,207.852072 10.5072511,209.044911 C11.8539457,207.950946 10.8852308,205.93451 9.52008549,205.287361 Z M137.913284,443.696915 C137.484848,443.277821 137.083736,442.909203 136.732522,442.607246 C137.153339,442.285724 137.546374,441.937394 137.913284,441.565867 L137.913284,443.696915 Z M84.2228665,487.396964 C81.4481453,482.945624 77.4851031,480.064279 73.4517639,476.91901 L73.4450568,476.912485 C73.4447695,476.912692 73.4444822,476.9129 73.4441949,476.913107 C73.4429391,476.912128 73.4416834,476.911148 73.4404277,476.910169 L73.443766,476.913416 C72.9465436,477.272116 72.4377883,477.630815 71.9405859,477.989514 C77.0789328,479.680334 79.4050763,485.134966 84.2309561,487.404834 L84.2228695,487.396967 Z M55.1587912,424.764586 C55.6448511,425.135177 56.1424838,425.505768 56.6285436,425.876358 C57.542799,424.868815 57.4154976,424.011824 56.2582123,423.293804 C55.8994538,423.780205 55.5175497,424.266605 55.1587912,424.764586 Z M14.7787913,52.6185853 C14.9523841,51.2057083 14.3968871,47.9167161 16.2601165,48.1483352 C15.8434938,48.9474214 16.7114578,53.0239188 14.7787913,52.6185853 Z M46.8471679,464.670254 C47.7961419,466.453721 46.4189724,470.090142 43.606769,468.445646 C42.7040864,466.731664 44.3127131,463.593224 46.8471679,464.670254 Z M39.7321777,10.202166 C40.0446447,9.33359408 40.3571118,8.46502218 40.6695788,7.59645028 C38.8526408,6.28780194 37.9615311,6.94791659 37.9962497,9.57679421 C38.5748924,9.78525147 39.1419622,9.99370873 39.7321777,10.202166 Z M129.094279,215.41328 C129.221581,216.640861 129.337309,217.868443 129.464611,219.096025 C125.610851,219.52452 128.828104,211.869506 129.094279,215.41328 Z M82.0170693,114.034725 C81.091241,113.270382 80.6398998,112.286001 81.2069696,110.803638 C82.1443707,111.567981 82.6072848,112.563944 82.0170693,114.034725 Z M3.27884691,276.20289 C2.71177709,273.492946 2.24886296,274.535232 6.48452729,273.597174 C6.73913006,275.47329 3.57974109,274.697365 3.27884691,276.20289 Z M36.9176598,467.37904 C35.2627417,469.42887 34.8576919,469.79946 36.8019312,465.317629 C36.8482226,466.000906 36.8829412,466.684182 36.9176598,467.37904 Z M70.8735688,291.838342 C70.0634691,289.834836 72.0077084,288.79255 73.6626265,289.244208 C74.0098121,290.48337 72.0192813,291.039256 70.8735688,291.838342 Z M56.6852506,414.399628 C55.4122367,413.670028 54.7294384,412.592999 54.6484284,411.180122 C55.8057137,412.280313 57.8541088,413.137304 56.6852506,414.399628 Z M21.632235,441.010355 C23.7384944,440.975612 25.7521708,439.412183 26.1109293,442.446394 C25.3008296,442.029479 21.2619037,442.944375 21.632235,441.010355 Z M104.874612,471.365206 C103.682608,471.353625 102.317011,467.960404 104.400125,467.694042 C104.562145,468.921624 104.712592,470.137624 104.874612,471.365206 Z M5.03676333,102.047275 C5.18721043,102.452609 4.37711069,106.81863 6.3097772,105.741601 C7.64065534,105.00042 6.86527416,102.962171 8.90209635,102.684228 C8.90209635,103.390666 9.00625203,104.062362 9.22613625,104.722477 C9.57332185,102.093599 15.718507,100.530169 13.0798964,97.4148916 C10.1866831,100.750208 5.23350184,98.5845684 2.99994114,102.359961 C3.7290309,102.730552 4.41182925,102.626323 5.03676333,102.047275 Z M37.4488537,496.217943 C37.819185,490.103197 36.5924626,481.174278 35.2615844,475.082694 C34.0927263,469.755453 32.5651096,472.697016 33.085888,476.715609 C33.8034049,482.193402 34.4399119,487.671196 35.0301274,493.16057 L37.4488537,496.217943 Z M74.4623106,166.103874 C73.1661511,165.710121 72.4370613,166.196521 72.2866142,167.551494 C73.9762508,168.512713 74.7053405,168.037894 74.4623106,166.103874 Z M13.7164034,457.505115 C12.2003596,460.018183 10.510723,456.381762 7.54807251,459.439135 C6.54123427,453.683398 11.0315014,458.257877 13.7164034,457.505115 Z M16.3214526,424.158902 C16.0437042,422.479663 18.2772649,418.982214 16.2751612,418.542137 C16.5529097,420.232957 14.319349,423.730407 16.3214526,424.158902 Z M77.2363236,244.704999 C76.5650981,244.369151 72.4220166,245.527247 72.4798808,244.461798 C72.2831423,248.619363 76.2179125,246.384238 77.2363236,244.704999 Z M30.7365988,317.787796 C31.4193971,316.733929 33.0743152,316.814996 34.0695806,317.753054 C32.9817323,318.598464 31.8823113,318.610045 30.7365988,317.787796 Z M17.1859448,304.668886 C16.0865237,304.576239 14.9060927,305.108963 13.6562245,306.116506 C12.5799492,304.194067 16.618875,303.244429 17.1859448,304.668886 Z M70.0380088,274.223704 C70.9175456,276.1114 60.0506363,285.075062 58.8702053,289.614798 C60.5829876,284.68131 62.4925084,272.84557 70.0380088,274.223704 Z M35.3587964,262.26868 C33.26411,264.619615 29.8848368,264.689101 27.419819,262.801405 C25.6723182,261.469594 19.1799474,262.812986 23.0221347,264.67752 C23.2651647,260.635765 26.2625337,265.835616 27.813296,263.334129 C27.5124018,264.67752 27.6859946,265.928263 28.3456473,267.109521 C30.8801022,264.967044 35.0694751,268.117065 36.8979859,265.221825 C30.7528008,265.430282 37.9742613,263.11409 35.3587964,262.26868 Z M48.4685247,265.395539 C48.9777302,266.738931 48.9082931,268.035998 48.2602133,269.309903 C46.5821496,270.815428 46.9640538,263.7163 48.4685247,265.395539 Z M116.192863,472.581207 C117.072399,473.820369 117.292284,480.35203 114.086603,478.765438 C115.000859,476.981971 115.139733,474.005664 116.192863,472.581207 Z M82.4244337,315.242302 C83.9289047,316.747826 85.0167529,313.157729 84.9820343,313.146148 C81.3597312,312.161767 82.956785,315.636054 79.797396,312.648167 C77.355524,314.952778 80.1214359,317.709046 82.4244337,315.242302 Z M86.380035,204.793541 C85.7551009,201.933044 83.0123347,205.129388 84.9334283,206.275903 C85.2111768,205.39575 85.986558,205.465236 86.380035,204.793541 Z M4.85044039,408.269827 C6.05401714,409.76377 5.66054013,409.983809 7.4543324,408.478284 C6.65580552,408.026627 5.16290743,404.158586 3.75101932,405.571463 C4.82729469,406.231578 5.18605314,407.134893 4.85044039,408.269827 Z M126.240414,209.832416 C127.837468,209.623958 131.575499,208.18792 131.853248,210.017711 C130.788545,209.820835 126.633891,211.859083 126.240414,209.832416 Z M22.4180318,404.972728 C23.9225027,402.621793 24.3506983,411.608617 21.1102994,410.427359 C21.9551177,408.458596 21.0292894,406.872005 22.4180318,404.972728 Z M67.2292773,403.38382 C69.0809338,403.812316 66.9168102,407.089727 65.5512135,406.800203 C65.9215448,405.051478 66.8820917,404.484011 67.2292773,403.38382 Z M59.5784639,318.392323 C57.7730988,324.171221 53.2133946,328.444595 53.2133946,334.767798 C52.9935104,334.698312 66.2907189,309.996127 65.3764635,309.613956 C64.705238,310.737309 59.809921,318.438646 59.5784639,318.392323 Z M15.982368,186.04281 C17.3711104,185.579572 18.5978329,185.91542 19.6509626,187.027192 C18.7251343,188.254773 16.8156135,186.494468 15.982368,186.04281 Z M99.9920251,464.9702 C98.9157498,464.367991 97.8510473,463.765781 96.7747719,463.163571 C97.480716,462.19077 100.964145,463.140409 99.9920251,464.9702 Z M25.7186096,338.359053 C25.7764738,339.239206 27.4082462,340.513112 28.1604816,340.61734 C25.8227652,335.54488 32.2919903,337.930558 34.6065609,338.903358 C37.5807843,340.154102 35.2430679,342.678751 38.0321255,343.130408 C37.6733671,341.509074 37.3030358,339.899321 36.9327045,338.277987 C33.8658983,338.31273 31.7712119,336.564005 28.8779985,336.066024 C22.5823663,334.027775 28.3225016,337.478901 25.7186096,338.359053 Z M51.5816223,475.860934 C49.8572671,477.713887 50.5400655,474.2396 51.4774666,473.255218 C52.8430633,474.517543 50.493774,474.795486 51.5816223,475.860934 Z M53.3731,264.667097 C53.3731,262.953115 50.6303337,259.860999 52.5282817,259.119818 C52.5282817,260.822219 55.2710479,263.925916 53.3731,264.667097 Z M7.72050803,370.738256 C7.54691523,369.834941 7.37332242,368.931626 7.19972962,368.028311 C5.29020882,368.387321 6.49378557,371.305723 5.00088749,371.27098 C5.86885149,375.822297 6.7599612,371.236237 7.72050803,370.738256 Z" id="uE003-e1" fill="#000"/></g></svg>