<?xml version="1.0" encoding="UTF-8"?>
<svg width="214px" height="500px" viewBox="0 0 214 500" version="1.1" xmlns="http://www.w3.org/2000/svg" xmlns:xlink="http://www.w3.org/1999/xlink">
    <!-- Generator: Sketch 43.1 (39012) - http://www.bohemiancoding.com/sketch -->
    <title>uE001-a1</title>
    <desc>Created with Sketch.</desc>
    <defs></defs>
    <g id="Page-1" stroke="none" stroke-width="1" fill="none" fill-rule="evenodd">
        <path d="M105.910009,99.2182802 C105.908761,99.2164957 105.907512,99.2147107 105.906263,99.2129253 L99.4015883,99.2129253 C94.3452199,105.7176 94.3452199,105.7176 99.4015883,112.946429 L104.416514,112.946429 L91.7017438,327.119663 L120.565244,327.119663 L108.239934,109.850256 C110.324124,106.839893 110.174752,105.550765 107.791819,101.950876 L107.636801,99.2182802 L105.910009,99.2182802 Z M49.3084787,0 L162.958509,0 L213.469633,500 L130.487072,500 L124.173181,393.565845 L88.6951293,393.565845 L82.3812387,500 L0,500 L49.3084787,0 Z M151.438988,144.05961 L151.438988,144.05961 C155.771204,149.128683 160.840276,149.128683 165.159787,144.05961 L163.000032,141.887151 C163.000032,141.162997 162.275879,140.438844 160.840276,139.714691 C158.667817,138.279089 157.21951,133.934169 153.598744,135.382476 C149.990682,136.818078 151.438988,141.162997 151.438988,144.05961 Z M155.04705,363.262076 C157.206806,361.81377 158.667817,360.365463 157.206806,358.917156 C157.206806,358.205708 155.771204,356.757401 155.04705,356.757401 C152.887295,358.205708 152.163142,359.654014 152.887295,361.102321 L155.04705,363.262076 Z M148.542375,161.426584 C150.702131,159.978278 151.438988,158.529971 150.702131,157.081665 L148.542375,154.909205 C146.38262,156.357512 144.934313,157.805818 146.38262,159.254125 L148.542375,161.426584 Z M66.8782133,235.213991 C66.8782133,231.593225 69.0506731,227.972459 64.7184579,225.812703 C59.649385,224.364397 53.8688633,224.364397 45.9285862,226.536857 C45.9285862,233.765685 45.9285862,233.765685 48.0883416,237.373747 C53.2971634,238.822053 58.7854829,238.822053 63.9943047,237.373747 C64.7184579,237.373747 65.4426112,235.938145 66.8782133,235.213991 Z M58.9379362,340.11458 L58.9252318,340.11458 C59.649385,338.666274 58.9252318,337.217967 56.7654764,335.769661 C56.0413231,335.045507 54.5930166,335.769661 53.1574145,335.769661 C50.2608014,335.045507 48.8124949,335.769661 47.3641883,337.954825 C45.9158818,340.11458 48.8124949,342.274336 53.1574145,342.274336 L56.7654764,342.274336 C57.4896297,341.562887 58.9379362,340.838734 58.9379362,340.11458 Z" id="uE001-a1" fill="#000000"></path>
    </g>
</svg>