<svg width="215" height="502" viewBox="0 0 215 502" version="1.1" xmlns="http://www.w3.org/2000/svg" xmlns:xlink="http://www.w3.org/1999/xlink"><title>uE007-a2</title><desc>Created with Sketch.</desc><g id="Page-1" stroke="none" stroke-width="1" fill="none" fill-rule="evenodd"><path d="M115.868383,365.928859 C115.585002,362.361051 113.487842,358.337983 118.591993,357.37266 C120.928387,359.02596 118.024584,361.38066 121.429043,362.61646 C122.897633,358.39136 117.95783,354.50026 114.202911,354.33326 C116.055338,359.54366 107.99478,365.68926 115.003961,369.49686 C115.44119,368.962363 115.686636,368.362555 115.805662,367.722906 C116.393803,367.45253 116.880878,366.972796 117.265256,366.28044 C116.826041,366.400953 116.383819,366.196472 115.868383,365.928859 Z M95.4876697,276.989271 L92.4302826,328.489258 L121.399033,328.489258 L116.430371,240.902148 C117.021123,240.25945 117.516047,239.693017 117.84101,239.36044 C119.439783,237.691008 117.435463,233.880769 115.853575,230.734442 L108.423447,99.7568359 L106.009384,99.7568359 L98.697667,222.91865 C91.8459903,224.945925 82.7989936,230.300822 81.0912098,232.3932 C85.5450139,231.045465 91.5757504,228.770112 96.3653864,226.640604 C95.7885692,229.30159 98.1402436,233.657372 95.1028951,235.1654 C95.5783635,236.434187 96.6882383,236.367938 97.9170199,236.068215 L95.5289214,276.294409 C95.4121004,276.383129 95.3428937,276.479037 95.3315279,276.5814 C95.3620228,276.732927 95.4150456,276.868542 95.4876697,276.989271 Z M116.092286,234.942418 C116.15964,234.981753 116.2253,235.018277 116.288977,235.05184 C116.22845,235.133294 116.169625,235.214947 116.112387,235.296765 L116.092286,234.942418 Z M5.83825187,446.795477 C7.15203668,446.964273 8.47979326,447.123704 9.77947541,447.27377 C10.275048,443.683106 8.36075185,443.285 6.09823475,444.159187 L46.2612928,36.8959829 C50.7633265,38.2587532 51.3289523,35.9800334 46.5280337,34.1911689 L49.882431,0.176757812 L163.946884,0.176757812 L182.118286,180.052002 C177.020198,182.453892 171.171145,185.724093 169.517026,186.53333 C168.732666,186.91743 167.914928,187.31823 167.130567,187.70233 C167.895251,189.254005 175.831208,185.4286 182.318383,182.032726 L214.642197,502 L131.35704,502 L125.020126,395.177734 L89.4127045,395.177734 L83.0757904,502 L0.39414978,502 L5.83825187,446.795477 Z M202.470187,385.4821 C200.117105,388.4547 198.531695,388.3879 197.697269,385.2817 C199.26599,384.43 201.518941,382.7099 202.470187,385.4821 Z M95.6569541,369.21463 C96.6749541,369.31483 97.6428885,369.23133 98.6275115,368.98083 C95.1729869,377.51453 91.5182,372.98883 86.0109869,368.14583 C89.1818066,363.75373 91.201118,373.59003 95.6569541,369.21463 Z M125.449308,170.40447 C123.96403,167.89947 123.530128,165.24417 124.047472,162.42187 C127.318423,162.43857 127.418554,169.75317 125.449308,170.40447 Z M176.703105,473.05857 C176.669728,468.18217 178.205072,467.81477 176.119007,463.75667 C180.207695,461.76937 181.025433,474.49477 176.703105,473.05857 Z M130.223895,119.58637 C131.258584,122.95977 129.172518,124.19557 125.684616,124.41267 C125.133895,120.87227 127.603797,117.59907 130.223895,119.58637 Z M151.525128,269.2501 C149.956407,269.3169 144.382439,265.5928 143.497948,268.4151 C146.451816,269.2501 149.439062,270.0684 152.442997,270.8867 C153.227357,269.7177 152.893587,269.1666 151.525128,269.2501 Z M18.7328689,353.35464 C22.938377,353.92244 22.3209016,359.66724 21.3362787,362.30584 C20.4851639,359.31654 19.6173607,356.32724 18.7328689,353.35464 Z M148.688079,401.39887 C149.722767,395.53717 163.223784,394.85247 161.988833,401.48237 C157.449554,401.29867 153.244046,400.83107 148.688079,401.39887 Z M41.5494197,442.1953 C42.5006656,443.2307 43.118141,443.0637 43.3684689,441.6943 C41.4159115,440.6088 39.4633541,439.5233 37.5274852,438.4378 C35.8419443,440.542 37.1770262,441.8112 41.5494197,442.1953 Z M87.2142295,426.1967 C87.6981967,427.9502 81.3398689,430.8226 80.1549836,424.8941 C83.8598361,423.0571 83.9933443,426.1299 87.2142295,426.1967 Z M129.164174,242.22783 C125.642895,239.95663 131.70083,238.33673 133.887026,239.15503 C134.938403,244.21513 129.297682,238.98803 129.164174,242.22783 Z M144.125436,276.10044 C146.144748,275.23204 147.630026,272.42644 149.666026,271.52464 C151.117928,271.44114 146.728846,279.00624 144.125436,276.10044 Z M120.542882,2.00167 C125.632882,4.92417 151.800489,31.20997 147.311275,33.88197 C147.394718,33.98217 154.303767,28.27077 155.488652,26.93477 L120.542882,2.00167 Z M148.981797,296.56796 C146.178125,296.30076 140.253698,292.09236 143.691534,288.90266 C145.427141,291.44106 147.179436,294.04626 148.981797,296.56796 Z M31.7065279,333.07416 C30.6384623,330.55246 35.0942984,330.95326 35.878659,332.63996 C33.5923311,335.12826 32.1738066,335.27856 31.7065279,333.07416 Z M77.436423,322.75857 C79.5558656,321.82337 87.7666197,323.96097 86.3814721,319.28497 C82.9770131,323.47667 86.1478328,316.62967 82.0090787,316.22887 C81.6085541,318.80067 75.6173738,320.25357 77.436423,322.75857 Z M159.216869,433.42947 C153.809787,435.21637 153.576148,431.45887 150.972738,428.87037 C154.427262,428.68667 169.313426,430.40677 159.216869,433.42947 Z M70.8528,399.18946 C69.2173246,399.67376 68.1826361,399.37316 66.7808,400.24156 C68.115882,402.44596 70.0350623,401.86146 69.6846033,404.73386 C71.4368984,404.11596 72.7219148,403.03046 73.556341,401.46066 C72.2880131,401.09326 71.3701443,400.34176 70.8528,399.18946 Z M62.8022557,416.4606 C61.4671738,417.3457 60.0987148,418.1306 58.6301246,418.832 C64.2040918,421.6376 64.2040918,416.828 62.8022557,416.4606 Z M149.764489,243.75254 C149.213767,245.75654 144.490915,248.42854 146.960816,249.94824 C149.41403,249.63094 152.417964,245.84004 149.764489,243.75254 Z M55.1255344,406.99337 C55.4092393,402.56787 55.6762557,398.12567 55.9933377,393.70017 C54.2243541,393.19917 52.9393377,399.07757 52.9727148,398.84377 C49.5515672,397.00677 46.3974361,395.23657 42.4088787,396.83977 C45.3794361,399.22787 43.8774689,399.62867 42.0917967,402.16707 C45.6464525,402.38417 49.1677311,402.61797 52.7056984,402.85177 C52.1716656,405.87447 52.9560262,407.26057 55.1255344,406.99337 Z M45.492918,266.74677 C53.603541,267.94917 58.5266557,269.56907 57.1081311,279.20497 C51.4173443,277.38467 56.5740984,273.82757 54.5881639,271.47287 C52.1516393,268.61717 47.2285246,271.18897 45.492918,266.74677 Z M175.905393,420.06446 C172.384115,420.71576 171.950213,410.22816 173.886082,409.59356 C174.47018,413.10056 175.287918,416.57416 175.905393,420.06446 Z M22.350941,457.46077 C26.1726131,459.16417 20.0979902,462.05327 18.4958918,462.33717 C14.1902525,463.05527 22.6346459,456.15817 22.350941,457.46077 Z" id="uE007-a2" fill="#000"/></g></svg>