<svg width="137" height="500" viewBox="0 0 137 500" version="1.1" xmlns="http://www.w3.org/2000/svg" xmlns:xlink="http://www.w3.org/1999/xlink"><title>uE003-e1</title><desc>Created with Sketch.</desc><g id="Page-1" stroke="none" stroke-width="1" fill="none" fill-rule="evenodd"><path d="M0,0 L136.500301,0 L136.500301,65.2435358 L85.3878533,65.2435358 L85.3878533,192.723993 L136.500301,192.723993 L136.500301,258.568851 L85.3878533,258.568851 L85.3878533,434.155141 L136.500301,434.155141 L136.500301,500 L0,500 L0,0 Z M76.4752247,245.339433 C81.5315931,240.994513 81.5315931,235.938145 76.4752247,231.593225 C71.4188562,235.938145 71.4188562,241.007218 76.4752247,245.339433 Z M76.4752247,397.996024 L76.4752247,397.996024 C78.6349801,396.547718 80.0832866,395.099411 78.6349801,393.6384 L76.4752247,391.478645 C74.3154693,392.926951 73.5786116,394.375258 74.3154693,395.823564 L76.4752247,397.996024 Z M57.6726485,89.7989327 L57.685353,89.7989327 C58.4095062,89.0747795 57.685353,88.3506262 57.685353,87.6264729 C56.9611997,86.9023197 56.2370464,85.4667176 54.7887399,85.4667176 L48.2840649,85.4667176 C47.572616,85.4667176 46.1116051,86.9023197 46.1116051,87.6391774 C45.4001562,88.3506262 45.4001562,89.0747795 46.1116051,89.7989327 C47.572616,93.4196991 55.5128931,93.4196991 57.6726485,89.7989327 Z M48.2840649,335.045507 L48.2967693,335.045507 C50.4565247,333.609905 51.180678,332.161599 50.4565247,330.700588 L48.2840649,328.540832 C46.1243095,329.989139 44.676003,331.437445 46.1243095,332.885752 L48.2840649,335.045507 Z M43.9645541,395.823564 L43.9518497,395.81086 C44.676003,395.099411 43.9518497,394.375258 43.9518497,393.651105 C42.5035431,392.926951 41.7793899,391.491349 41.067941,391.491349 L34.5505616,391.491349 C33.8391128,391.491349 32.3908062,392.926951 32.3908062,393.651105 C31.666653,394.375258 31.666653,395.099411 32.3908062,395.823564 C33.8391128,399.431626 41.7793899,399.431626 43.9645541,395.823564 Z M31.666653,73.8929697 L31.666653,73.8929697 L31.666653,76.052725 C33.8264083,79.6734914 41.7793899,79.6734914 43.2276964,76.052725 L43.2276964,73.8929697 C41.067941,70.2722033 33.1149595,70.2722033 31.666653,73.8929697 Z M18.657303,494.930927 C22.9895181,495.65508 25.1746824,495.65508 27.3344378,495.65508 L18.657303,494.930927 Z M20.1056095,113.670582 C17.9458541,115.118888 17.2089964,116.567195 17.9458541,118.028206 L20.1056095,120.187961 C22.2653649,118.739655 23.7136714,117.291348 22.2653649,115.843042 C21.553916,114.394735 20.1056095,112.946429 20.1056095,113.670582 Z" id="uE003-e1" fill="#000"/></g></svg>