<svg width="199" height="509" viewBox="0 0 199 509" version="1.1" xmlns="http://www.w3.org/2000/svg" xmlns:xlink="http://www.w3.org/1999/xlink"><title>uE006-c1</title><desc>Created with Sketch.</desc><g id="Page-1" stroke="none" stroke-width="1" fill="none" fill-rule="evenodd"><path d="M0.0898513794,378.630455 L0.0898513794,334.465467 C0.233428134,334.182865 0.363787265,333.889294 0.480993689,333.584756 C0.347028724,333.672448 0.216658128,333.763036 0.0898513794,333.856473 L0.0898513794,267.494988 C0.244219321,267.758857 0.441210007,268.006125 0.684675908,268.226457 C2.53633245,266.998876 1.49477564,265.134341 4.33012472,264.844817 C2.52042474,262.376991 0.857057401,262.798817 0.0898513794,264.099003 L0.0898513794,257.850295 C0.559507856,258.397612 1.05745962,258.92623 1.61860517,259.413348 C2.12078141,258.856492 1.19040389,257.371807 0.0898513794,256.028746 L0.0898513794,230.442554 C2.31405497,230.45144 5.64572342,229.428968 5.43186036,228.303418 C3.6511907,228.635929 1.87052104,228.980994 0.0898513794,229.320128 L0.0898513794,100.342773 C0.0898513794,55.6823939 5.97406988,27.8203678 17.7426834,16.7558594 C29.5112969,5.69135093 56.618936,0.159179688 99.0664139,0.159179688 C142.318583,0.159179688 169.727977,5.89252079 181.295418,17.359375 C192.862858,28.8262292 198.646492,56.4870854 198.646492,100.342773 L198.646492,174.273438 L148.129082,174.273438 C148.121618,174.095266 148.087093,173.89761 148.022144,173.678352 C147.815688,173.932552 147.644102,174.128211 147.500947,174.273438 L146.762594,174.273438 C146.608846,173.510066 146.716072,171.726188 144.990056,171.559037 C144.822281,172.636347 143.239897,173.430538 142.291153,174.273438 L112.645515,174.273438 L112.645515,88.5742188 C112.645515,80.5273035 111.539081,74.8945473 109.32618,71.6757812 C107.113278,68.4570152 103.49222,66.8476562 98.4628983,66.8476562 C93.835922,66.8476562 90.5166193,68.5073076 88.5048904,71.8266602 C86.4931616,75.1460127 85.4873123,80.7284764 85.4873123,88.5742188 L85.4873123,139.903881 C84.6156146,139.477646 83.7071115,139.19226 82.645938,139.446197 C82.6227923,141.78555 84.5207402,142.607798 84.2314189,145.062962 C83.2361535,145.734657 81.6738183,146.996982 80.8984371,145.086124 C77.3108526,147.958201 82.9121136,149.058392 82.2408881,151.988375 C84.0348696,151.090756 84.9932349,151.177152 85.4873125,151.856357 L85.4873123,165.997411 C85.1069131,166.110377 84.6792232,166.234499 84.2082732,166.383507 C80.2503573,167.63425 84.1156903,169.313489 84.9952272,170.77269 C85.2370489,171.166598 85.3962133,171.489651 85.4873128,171.751906 L85.4873123,172.555284 C85.329651,172.757003 84.993347,172.781876 84.5893843,172.70638 C84.6203231,172.661995 84.649953,172.61466 84.678131,172.564264 C83.7985942,172.309483 83.8217399,171.54514 83.1620872,171.162968 C82.6971519,171.283097 82.3969283,171.454401 82.2246366,171.648086 C82.2057591,171.633824 82.1880081,171.619953 82.171451,171.606519 C80.1577745,169.985185 79.1046448,181.102905 79.1856548,181.983058 C70.8763461,185.688965 64.6385781,192.266949 57.5791376,197.802648 C58.9794528,198.011105 60.148311,197.571028 61.1435764,196.482418 C62.6596202,197.802648 59.1646185,198.404857 58.7711415,199.227105 C58.6438401,199.551372 68.8742425,202.90985 65.7727178,196.702456 C71.0152203,196.922495 76.32716,195.28958 81.4423612,194.44417 C82.7906782,194.210114 84.1389953,194.025162 85.4873123,193.889315 L85.4873123,420.206055 C85.4873123,427.850624 86.5937466,433.28221 88.8066483,436.500977 C91.0195499,439.719743 94.6406075,441.329102 99.6699295,441.329102 C104.498079,441.329102 107.867674,439.820328 109.778816,436.802734 C111.689959,433.785141 112.645515,428.25297 112.645515,420.206055 L112.645515,292.260742 L198.646492,292.260742 L198.646492,407.833984 C198.646492,452.092018 192.711981,479.954044 180.842781,491.420898 C168.973581,502.887753 142.117404,508.621094 100.273445,508.621094 C57.2224486,508.621094 29.7627623,502.83746 17.8935623,491.27002 C8.31969287,481.939554 2.60709257,462.040111 0.755667956,431.571255 C1.7341785,427.55335 2.71185253,423.525589 3.6681575,419.508521 C2.68098626,419.245565 1.19261303,423.90655 0.540317328,427.624739 C0.307877328,422.836876 0.165391585,417.802775 0.112859766,412.522435 C0.288196928,412.51137 0.463392109,412.500437 0.63954178,412.49046 C1.51891218,412.435028 3.33870212,412.702961 4.6439164,412.507964 C5.60192856,414.601874 7.03367113,416.887405 7.4883564,418.77892 C8.26031784,417.129925 6.92798557,414.637671 5.65633089,412.176085 C5.96809305,411.974431 6.15181885,411.678933 6.13664712,411.251297 C5.89828713,411.263139 5.57127636,411.261884 5.18681651,411.2567 C4.65592567,410.197147 4.18746078,409.163957 3.95863612,408.228667 C3.57377982,409.055005 3.72093487,410.096228 4.12394846,411.240862 C2.79485834,411.225317 1.20158424,411.240963 0.103921358,411.511064 C0.0945413708,410.298209 0.0898513794,409.072516 0.0898513794,407.833984 L0.0898513794,381.092448 C5.59417658,380.881378 8.93362176,378.246076 8.97893991,383.824113 C9.11781415,383.824113 14.4066081,384.356837 14.2908796,383.210322 C13.9784126,382.411236 13.5039256,381.73954 12.8442729,381.195235 C13.3650513,379.295958 16.3508475,380.129787 16.3508475,381.936416 C11.6175505,387.17101 23.3755695,382.22594 21.8942443,381.913255 C21.9405357,386.638286 24.0005036,384.912723 26.5233856,384.657942 C26.0836172,383.372455 25.1577889,382.758665 23.7459008,382.82815 C24.0815135,380.546701 27.5302238,381.890093 28.3518964,381.878512 C28.3518964,380.963616 28.3518964,380.037139 28.3287507,379.110663 C26.9515812,379.191729 9.99735101,376.968185 9.85847676,376.435461 C5.49257246,376.435461 1.31291234,375.341523 0.0898513794,378.630455 Z M27.9589039,370.779668 C26.287885,370.675755 24.8842248,370.612957 24.2805666,370.551176 C20.3821969,370.173008 19.9135474,368.297325 19.7522214,366.72049 C20.9163915,366.207193 22.289699,365.145612 23.3107615,365.007371 C22.9161073,362.536954 21.0714319,363.803871 19.3371878,364.787032 C19.181567,364.593114 18.9532827,364.468103 18.6098685,364.43643 C18.5843472,364.699608 18.5684014,364.954209 18.5616767,365.200515 C18.1842989,365.382928 17.8247457,365.519451 17.5011891,365.563257 C17.6777609,366.62343 18.116891,366.995308 18.6973456,366.996697 C19.4999268,371.10716 23.6581697,372.16008 28.2779625,372.463172 C28.3042889,372.844511 28.3033011,373.272221 28.2604709,373.761418 C29.7251161,375.001131 30.9323119,373.989805 31.73951,372.58526 C33.6922203,372.616 35.6007626,372.615243 37.2537352,372.751558 C37.3487237,371.943591 35.0830983,371.458298 32.3968332,371.149641 C32.6996032,370.315318 32.8572382,369.550179 32.8433208,369.19852 C32.5308538,362.30785 39.5092844,366.627547 40.4351126,363.15326 C41.2642634,359.992679 39.3829371,360.012125 37.4000188,360.752451 C37.1566365,360.44575 36.844435,360.239257 36.4899269,360.223277 C36.4176582,360.215242 36.3105673,360.664393 36.2696491,361.239003 C35.0421205,361.829128 33.9758964,362.521035 33.7460034,362.67844 C30.9916643,364.554556 30.5866144,363.072193 28.5497922,366.314861 C27.1394586,368.607325 27.5671145,369.445701 27.9589039,370.779668 Z M59.8341365,229.62111 C58.5555712,226.115289 57.435805,222.520939 55.1847142,219.538949 C51.8170139,215.057118 45.8454216,212.358755 49.0511019,205.873418 C47.2457368,206.151361 35.4067078,200.360881 35.2678336,204.356312 C42.3735656,204.657417 44.1326393,222.341541 49.9769302,227.182382 C49.5834532,227.552972 45.7644116,232.741242 48.4608864,232.486461 C49.4330061,232.266423 50.1968144,231.733698 50.7175928,230.899869 C51.9906067,233.957242 50.6481557,239.712979 55.8790854,239.446617 C50.544,244.461172 60.6702467,243.847381 62.5913404,244.229553 C64.4314241,244.634886 66.2367892,245.16761 68.0305815,245.792982 C72.6481499,247.298507 71.1668247,245.04022 72.1042258,250.182166 C72.6365771,252.591005 73.7707167,254.698739 75.4719262,256.470626 C78.5155866,259.805942 77.9948082,260.211276 78.9669279,264.473069 C80.1357861,269.499205 81.1079058,274.131588 80.0316304,279.319858 C83.8043806,279.458829 80.772293,258.161446 80.0547761,255.659959 C78.8049079,251.004414 76.8606686,246.441516 73.7707167,242.677704 C73.0531998,241.797552 64.5240069,235.207986 64.7438911,236.678768 C65.0910767,237.385206 65.2415238,238.126388 65.1720867,238.925474 C63.8658959,237.676035 62.8668201,236.259257 62.0435643,234.746469 C62.0643078,234.74638 62.0852649,234.746192 62.1064378,234.745906 C61.1853186,233.317171 61.8221373,229.251843 59.8341365,229.62111 Z M133.8715,456.981783 C133.438759,456.551908 132.884728,456.362533 132.08401,456.65792 C132.139939,456.846102 132.204156,457.026501 132.275589,457.200135 C130.523901,457.340554 128.762579,457.138341 128.041613,456.217844 C128.701265,458.649845 114.952715,468.841089 123.979541,466.339602 C127.982109,465.219663 131.377917,462.88329 134.731719,460.486945 C135.390138,461.206991 136.015076,461.961299 136.42383,462.923219 C136.50484,462.239942 136.574277,461.556666 136.643714,460.861808 C136.181348,460.725723 135.835316,460.365762 135.541022,459.907749 C138.541163,457.760179 141.54407,455.639151 144.955137,454.374805 C144.934558,454.395519 144.914179,454.416149 144.894002,454.436692 C145.138212,454.37637 145.372927,454.27432 145.600351,454.14773 C146.900653,453.714556 148.262052,453.409433 149.705994,453.27628 C149.70697,453.276946 149.707639,453.277771 149.708309,453.278596 L174.416351,446.758517 C171.141233,445.542516 168.271165,447.708155 165.968168,449.769566 C163.977637,451.553033 161.489473,454.52934 158.503677,454.309302 C152.937135,453.892387 160.378479,449.839052 161.63992,449.34107 C161.01179,448.795785 160.30695,448.430038 159.549487,448.213593 L172.921138,441.336312 C163.743865,441.035207 157.170484,448.261725 148.571854,450.126259 C143.838557,451.156965 139.695476,451.006412 136.744398,455.708281 C136.870858,456.103112 135.544705,456.659458 133.8715,456.981783 Z M139.46068,446.17131 C139.208356,446.049786 138.95665,445.929332 138.70021,445.808878 C137.566071,445.612002 136.46665,445.762554 135.425093,446.248954 C136.307681,446.668318 137.235558,447.22713 138.157115,447.378349 C137.737925,447.903032 137.631979,448.529907 138.612257,449.352651 C140.440768,450.452842 141.285586,449.931699 141.158285,447.789222 C141.320304,446.272116 140.753235,445.438287 139.468648,445.310897 C139.803074,445.608372 139.717432,445.88512 139.46068,446.17131 Z M131.754402,353.681479 C133.510457,353.782866 135.240544,353.685924 136.787218,352.867052 C136.162284,347.945145 133.743557,344.447695 133.014468,339.409978 C131.371122,339.595273 129.507893,340.973407 128.558919,341.066055 C127.540508,340.683883 127.459498,340.046931 128.327462,339.143616 C126.221203,343.185371 120.029726,345.084648 119.578385,349.728612 C120.295902,350.851965 121.268021,351.014099 122.471598,350.226593 C126.198057,349.21905 122.240141,348.582097 124.705159,346.497525 C127.077594,344.482438 128.570492,349.323279 126.105474,349.728612 C126.475805,352.230099 135.849817,349.624384 134.657813,352.056385 C133.014468,355.26431 126.04761,350.608765 123.883486,353.770367 C126.089759,352.899582 128.811224,353.482089 131.490675,353.664839 C128.372523,356.668186 124.706112,354.488138 121.361762,353.308287 C120.389642,357.790118 118.688432,357.106841 117.565866,358.612366 C119.648979,359.700976 118.10979,362.190882 120.354923,363.198425 C121.905686,353.366191 129.034563,360.9633 132.761022,363.395302 C132.489503,360.236687 132.737782,356.757121 131.754402,353.681479 Z M155.528207,144.90803 C157.09551,145.603782 163.269051,156.050591 165.123349,157.510176 C165.435816,156.884804 165.759856,156.271013 166.072323,155.657223 C163.931038,157.187783 157.430847,145.665766 155.54061,144.908976 C156.914311,145.011198 158.864998,144.279036 158.927244,143.578283 C157.480637,143.161368 154.298102,143.439311 154.228665,144.064683 C154.337958,144.607757 154.864527,144.856077 155.528207,144.90803 Z M74.5453993,351.040051 C74.0800039,351.167548 73.7762382,350.958161 73.6202696,350.411889 C74.4303694,350.203432 74.8817106,349.693869 74.9974392,348.883202 C73.3888126,349.033755 72.8101699,349.786517 73.2962297,351.141489 C73.5893026,351.606689 73.8536941,351.853317 74.0865146,351.884265 C74.02472,352.118815 73.989555,352.38501 73.9813427,352.682915 C75.6825521,352.555524 76.3422047,352.451296 76.6315261,350.656247 C75.6863554,350.476088 74.987672,350.603361 74.5453993,351.040051 Z M154.945606,109.43221 C154.545606,111.277526 156.176402,114.298132 154.070117,115.343905 C154.833925,117.382154 157.958596,114.452172 159.000153,116.050344 C156.130085,118.192821 161.280005,121.122804 158.50252,121.863985 C161.036975,124.516025 161.30315,119.698346 161.442025,118.29705 C161.036975,115.019639 158.190053,115.772401 157.437817,113.560438 C158.74555,112.900323 163.108516,113.409885 161.488316,110.676779 C158.906334,111.563588 156.541553,111.518886 156.936209,108.507457 C157.045116,108.454251 157.152175,108.40142 157.257281,108.349006 C158.912199,107.190911 160.17364,108.673273 161.828558,107.202491 C159.791736,103.739785 146.158914,111.209503 144.353549,113.421466 C147.442092,112.486852 151.624177,110.908961 154.945606,109.43221 Z M52.7405276,99.2452148 C50.0093342,96.929023 57.3696689,99.8937485 54.8236412,101.075006 C54.1176971,100.461215 53.4233259,99.8590056 52.7405276,99.2452148 Z M10.9694707,324.497178 C11.4671034,322.238891 15.6680492,322.667386 15.6680492,324.589825 C15.4018735,326.570169 11.8721532,324.369787 10.9694707,324.497178 Z M135.219096,334.952467 C137.093898,334.234448 134.200685,331.802446 134.050238,330.377988 C136.874014,330.87597 139.466333,340.476584 135.219096,334.952467 Z M59.80344,278.518455 C58.3105419,278.321579 57.9633563,277.73095 58.7155918,276.75815 C58.7155918,277.441426 59.0396317,277.719369 59.7108572,277.60356 C60.3126456,274.187177 55.5214843,277.232969 55.7066499,274.233501 C59.8960228,273.168052 66.1337908,271.21087 69.6866568,274.870453 C67.3952318,266.821687 53.727692,271.048737 48.045421,271.187708 C48.2653052,273.642872 48.4620437,276.098035 48.6819279,278.553198 C51.4478399,273.005919 56.9449452,280.938876 59.80344,278.518455 Z M57.9610417,402.148664 C60.8311094,403.862646 55.0678284,405.136551 53.8989702,405.032322 C55.0446827,403.781579 56.3871337,402.820359 57.9610417,402.148664 Z M22.655738,263.199163 C22.6904566,261.34621 22.7020294,259.504837 22.7598937,257.651884 C25.0281729,257.651884 24.9124444,263.199163 22.655738,263.199163 Z M145.797841,477.571973 C144.594265,477.29403 144.108205,473.750257 146.1566,473.889228 C146.029299,475.11681 145.91357,476.344392 145.797841,477.571973 Z M39.0648868,188.862147 C39.4467909,190.089729 37.4331145,190.680358 36.3452662,191.514187 C35.9402164,190.286605 37.9538929,189.684395 39.0648868,188.862147 Z M134.405525,442.076335 C131.373437,442.111078 130.378172,442.898583 131.419728,444.450431 C132.820044,443.82506 137.750079,442.771192 136.916834,440.92982 C136.083588,441.311992 135.23877,441.694163 134.405525,442.076335 Z M30.6340631,48.5901015 C28.4815124,48.7522349 26.3405345,48.8912064 24.1879838,49.0533398 C25.275832,50.9757789 32.5783025,49.7713592 32.4625739,48.4627109 C31.8492127,48.4974538 31.2474243,48.5437776 30.6340631,48.5901015 Z M56.0850822,254.73464 C56.7215892,253.854488 56.652152,249.222104 58.6426828,249.743247 C58.1913415,251.132962 57.9367388,255.360012 56.0850822,254.73464 Z M79.4576169,49.4158238 C79.052567,46.5321651 80.1172695,45.7794028 82.6864429,47.1691178 C82.6864429,49.4505667 81.1241077,49.7053478 79.4576169,49.4158238 Z M44.1731443,410.471899 C43.5134916,408.815822 43.3861902,403.233799 40.3772484,403.870752 C41.036901,405.075172 38.8843503,404.820391 39.1158073,406.14062 C42.217332,407.043935 41.8932921,411.340471 45.5618867,412.000585 C45.1105454,413.031291 44.3235914,413.575596 43.1431603,413.645081 C46.4182778,418.752284 50.0174352,411.282566 54.3109638,412.4175 C54.056361,410.761423 54.3804009,409.197993 53.9522053,407.727211 C50.3646208,406.49963 46.5687249,407.576659 44.1731443,410.471899 Z M117.204793,393.773314 C116.278964,392.325694 115.89706,391.827713 114.137987,392.429923 C116.082226,393.530114 113.42047,394.827182 113.964394,395.915792 C114.600901,397.143373 116.730306,394.039676 117.204793,393.773314 Z M48.9654628,383.663137 C48.8497343,386.70893 49.6019698,387.739635 51.1990235,386.743672 C50.6319537,385.307634 50.0417382,383.883176 49.4630955,382.458718 C48.4909758,382.528203 48.3289559,382.933537 48.9654628,383.663137 Z M59.4539398,470.508747 C59.7201155,467.486116 60.6112252,466.55964 62.0578318,467.740898 C61.3055964,469.09587 60.9468379,471.365738 59.4539398,470.508747 Z M77.0157448,446.792101 C77.9184274,446.954235 78.8211099,447.104787 79.7237925,447.25534 C72.2245835,450.567494 80.1982795,432.848627 77.0157448,446.792101 Z M9.29719338,292.716711 C9.86426319,291.025891 10.9521114,292.485092 12.0399596,292.531415 C11.4728898,294.222235 10.3850416,292.774615 9.29719338,292.716711 Z M144.723881,486.511315 L149.283585,480.442893 C147.894842,483.002285 147.293054,484.982629 144.723881,486.511315 Z M149.278956,480.444051 C148.167962,479.841841 147.577746,478.915365 147.450445,477.65304 C146.883375,480.768318 144.719252,483.316129 144.719252,486.512473 L149.278956,480.444051 Z M20.0784636,189.393713 C22.1152858,188.953637 19.8122879,190.447581 22.9948226,189.405294 C23.6891938,186.672188 19.2220724,187.888189 20.0784636,189.393713 Z M88.4312074,41.6172062 C89.7389398,40.6096628 91.4864406,42.0804446 92.1345204,43.4238358 C91.3475664,44.3734744 88.9751315,42.2773209 88.4312074,41.6172062 Z M98.8502472,24.4773874 C98.9081115,27.2799794 96.6745508,28.797085 96.6976965,31.599677 C99.4404628,31.6344198 101.558295,19.3122798 101.905481,17.4940693 C101.083808,17.3087739 98.9891215,23.6667203 98.8502472,24.4773874 Z M160.331031,342.654963 C160.018564,343.511954 159.671378,344.368945 159.335765,345.225935 C159.833398,345.434393 163.478847,338.925894 165.261066,337.628827 C161.800783,336.308597 161.418879,339.979761 160.331031,342.654963 Z M13.9529523,421.221345 C13.3627368,420.433839 12.6105013,420.028506 11.6383816,420.028506 C10.3885134,422.49525 12.6105013,423.641765 14.531595,422.970069 C13.6867767,422.518412 13.501611,421.939364 13.9529523,421.221345 Z M30.6791972,249.509312 C31.0842471,245.282262 29.6839319,240.939402 30.0889817,236.457571 C28.1447424,236.237533 28.7581036,251.559142 29.3251734,254.002724 C31.2694128,254.350153 30.2972931,250.33156 30.6791972,249.509312 Z M137.5707,380.569863 C138.288217,380.234016 139.873698,382.22594 140.012572,382.839731 C138.751131,382.399655 136.216676,382.816569 137.5707,380.569863 Z M55.9045457,484.996526 C54.8629889,488.204452 52.2243783,484.903878 53.9371606,482.842468 C56.4600427,481.406429 52.8724581,486.235689 55.9045457,484.996526 Z M30.8145996,168.397435 C32.8167033,167.274082 36.1728307,166.03492 38.4989743,166.938235 C37.3185432,168.165816 32.2149149,169.092293 30.8145996,168.397435 Z M142.406995,314.583877 C142.291267,316.158887 143.020357,316.981135 144.108205,317.444374 C144.258652,315.857782 143.541135,315.035534 142.406995,314.583877 Z M28.9837742,70.0496179 C32.9648358,76.199107 39.2951866,80.0671472 41.5287473,87.8842943 C35.3604164,83.8309588 30.8701493,78.1794509 28.9837742,70.0496179 Z M31.063416,331.480496 C33.4358509,333.252382 36.6068127,332.754401 38.9908205,334.537869 C33.6210166,333.924078 31.0865617,333.599811 30.5426376,328.608418 C32.5563141,327.624036 32.2669927,331.179391 31.063416,331.480496 Z M62.2788733,352.420027 C62.1052805,351.285093 63.2278473,352.003113 63.3204301,350.64814 C62.0937077,350.555493 58.911173,353.612866 58.4135403,354.956257 C59.698127,354.110847 60.9942866,353.265437 62.2788733,352.420027 Z M133.885903,326.142832 C134.904315,326.316546 136.686534,328.065271 136.119464,329.339176 C134.904315,328.609576 134.152079,327.544128 133.885903,326.142832 Z M168.445915,365.205405 C168.040866,365.50651 162.185002,367.475273 161.988263,366.907806 C161.455912,365.309634 167.138183,363.479843 168.445915,365.205405 Z M127.62499,465.459449 C127.38196,466.814421 127.86802,467.810383 129.141034,468.424174 C127.150503,470.242385 125.403002,464.220286 127.62499,465.459449 Z M30.9511593,432.650593 C30.4072352,434.526708 34.0874026,438.267358 34.1915582,437.178748 C34.3420053,435.800613 32.2936103,432.963279 30.9511593,432.650593 Z M43.1558904,424.173331 C46.9980778,427.138056 52.1248518,426.269484 53.5367399,421.254929 C48.9423171,420.363195 51.9281133,419.876795 49.7524169,417.630089 C49.9375825,417.815385 47.8544689,421.26651 49.7292712,422.818359 C47.2526805,422.505673 43.9196988,420.351615 43.1558904,424.173331 Z M27.0858263,146.728304 C27.4908761,148.338057 25.5466368,146.867275 25.0142855,146.844113 C28.0810917,152.298745 27.6991875,146.380875 27.0858263,146.728304 Z M28.6678353,405.054326 C27.3369572,406.930442 29.6168093,407.046251 26.8161788,407.810594 C26.561576,405.679698 27.1749372,404.764802 28.6678353,405.054326 Z M62.4142757,378.788712 C60.1344236,377.700102 54.6373183,380.062617 53.237003,377.688521 C54.660464,377.954883 62.1712458,375.847148 62.4142757,378.788712 Z M16.2582647,424.128165 C15.8532148,426.930757 20.7832503,431.053578 19.9615777,433.763523 C18.202504,430.416626 14.5802009,426.629652 16.2582647,424.128165 Z M46.5247481,144.307883 C46.1891353,146.218741 43.5620976,147.133637 42.4973951,145.23436 C41.791451,148.094857 43.1570477,151.105906 42.3585209,153.746364 C42.8330078,153.873755 48.8856101,146.369294 49.1980772,144.956417 C48.3069675,144.736379 47.4274306,144.51634 46.5247481,144.307883 Z M18.0671017,367.0213 C17.9282274,368.862672 15.2664711,367.588767 15.3359083,366.002175 C18.7036086,366.094823 16.0071338,366.7781 18.0671017,367.0213 Z M124.935459,327.551076 C127.608788,327.516333 124.310525,332.91306 128.34945,331.164335 C127.828672,334.534394 124.958604,337.221177 125.328936,335.553519 C124.73872,338.089749 129.691901,337.85813 130.05066,334.569137 C130.837614,327.400524 132.596688,327.759534 124.935459,327.551076 Z M30.3181242,13.9769321 C28.9641004,14.7065325 22.8999252,18.8177729 21.2450072,16.3857715 C23.9646277,15.5403615 28.3738849,10.0394062 30.3181242,13.9769321 Z M8.70929243,400.954667 C7.44785141,403.398249 7.12381152,407.39368 4.08015108,405.841831 C4.76294943,404.510021 7.33212288,400.248228 8.70929243,400.954667 Z M33.4150198,117.430794 C30.7995549,118.994224 30.3482136,120.175481 32.0609959,120.986149 C33.8663611,118.380433 34.7690436,115.276736 36.5744087,112.891058 C34.6996065,112.045648 33.1256984,116.156889 33.4150198,117.430794 Z M119.668653,137.244656 C125.29306,138.078485 128.707052,139.201838 127.723359,145.884052 C123.777016,144.621727 127.353028,142.154983 125.975858,140.522068 C124.286222,138.541724 120.87223,140.325191 119.668653,137.244656 Z M128.099477,388.271201 C127.011629,385.642323 129.291481,393.748994 128.573964,394.084842 C128.342507,392.648803 127.717573,391.467545 126.65287,390.541069 C128.145768,391.131698 136.443504,411.618414 137.299895,414.455748 C141.257811,413.471367 129.430355,391.374898 128.099477,388.271201 Z M26.7467417,335.314951 C25.1149693,334.689579 33.4589966,313.056348 34.616282,309.69787 C36.2133357,310.276918 27.7188614,332.535521 26.7467417,335.314951 Z M9.0032429,325.515144 C7.62607335,327.634459 3.80703174,325.005582 5.18420129,322.93259 C6.46878802,323.789581 7.75337474,324.646572 9.0032429,325.515144 Z M60.5614619,395.848622 C60.9433661,394.60946 67.5630382,395.69807 67.6787667,397.794223 C65.3063318,397.15727 62.9338968,396.508737 60.5614619,395.848622 Z M154.816566,320.301396 C157.131137,320.451949 155.001732,306.381084 155.094315,305.500931 C151.865488,305.211407 154.990159,311.117696 154.492526,312.866421 C152.849181,316.36387 155.429927,317.718842 154.816566,320.301396 Z M119.611946,384.879138 C120.931251,386.060396 124.032776,386.894225 122.377858,388.666112 C121.359447,387.739635 118.408369,386.222529 119.611946,384.879138 Z M69.286236,258.844723 C68.5687191,256.991769 67.550308,254.837711 69.0432061,253.0195 C69.8995973,254.94194 70.003753,256.887541 69.286236,258.844723 Z M153.505362,296.619494 C154.095577,296.480522 154.708939,296.341551 155.276008,296.202579 C154.928823,294.604407 149.640029,295.84357 149.894632,297.441742 C151.109781,297.163799 152.301785,296.897437 153.505362,296.619494 Z M31.5159145,459.492939 C29.5716752,460.129891 28.8310126,454.258345 28.3565256,452.764402 C30.7521062,452.764402 30.613232,458.080062 31.5159145,459.492939 Z M67.8616178,208.144444 C66.1488355,209.487835 60.269826,202.643488 58.9968121,201.265354 C59.7027562,200.582078 66.6811868,206.615757 67.8616178,208.144444 Z M15.4898272,467.925035 C14.8533203,470.542331 15.5129729,473.819743 14.3904061,476.217001 C13.2794122,475.927477 13.3257036,467.403892 15.4898272,467.925035 Z M51.180507,459.436192 C49.6413175,459.505678 48.102128,459.575164 46.5745113,459.644649 C46.6208027,458.000153 51.0763513,457.83802 51.180507,459.436192 Z M119.114313,458.849037 C119.033303,461.66321 117.135356,462.844468 115.89706,465.079593 C115.781332,463.377192 116.95019,458.686904 119.114313,458.849037 Z M120.56092,327.25113 C120.47991,325.896157 119.808685,325.513986 121.116417,324.541185 C124.437826,324.367471 122.111682,327.830177 120.56092,327.25113 Z" id="uE006-c1" fill="#000"/></g></svg>