<svg width="86" height="500" viewBox="0 0 86 500" version="1.1" xmlns="http://www.w3.org/2000/svg" xmlns:xlink="http://www.w3.org/1999/xlink"><title>uE005-i1</title><desc>Created with Sketch.</desc><g id="Page-1" stroke="none" stroke-width="1" fill="none" fill-rule="evenodd"><path d="M0,0 L85.3878533,0 L85.3878533,500 L0,500 L0,0 Z M83.3818367,187.470693 L83.3818367,187.457989 C84.8301433,186.022387 84.10599,184.57408 81.2220814,183.138478 L79.062326,185.298233 C78.3254683,186.74654 79.062326,188.194847 81.2220814,189.630449 L83.3818367,187.470693 Z M76.8771617,27.5852736 C77.601315,26.1369671 76.8771617,24.6886605 74.7174064,23.240354 L72.557651,25.4255182 C71.8207933,26.8611203 72.557651,28.3094269 74.7174064,29.745029 L76.8771617,27.5852736 Z M66.7644248,118.739655 L66.7644248,118.739655 L66.7771293,118.739655 C68.2127314,119.463808 69.6610379,118.739655 71.09664,116.567195 L68.9241802,114.394735 C67.4885781,113.670582 66.0402716,114.394735 64.6046695,116.579899 L66.7644248,118.739655 Z M67.4885781,369.779456 C69.6483335,368.331149 71.09664,366.882842 69.6483335,365.434536 C68.9368846,364.710383 68.2127314,363.262076 67.4885781,363.262076 C65.3288227,364.710383 64.591965,366.158689 65.3288227,367.606996 L67.4885781,369.779456 Z M63.8932206,60.8455063 L63.8805162,60.8455063 L63.8805162,47.1247075 C57.3885456,42.7797879 57.3885456,42.7797879 50.1597174,47.1247075 L50.1597174,60.8455063 C56.6516879,65.9272837 56.6516879,65.9272837 63.8932206,60.8455063 Z M62.4449141,437.773636 L62.4322096,437.773636 C63.8932206,436.32533 63.1690674,434.15287 60.2724543,433.428717 L58.1126989,435.601177 C57.3885456,437.049483 58.1126989,438.485085 60.2851587,439.933392 L62.4449141,437.773636 Z M39.3228272,196.135124 L39.3228272,196.135124 C41.4825825,194.686817 42.2067358,193.238511 41.4825825,191.790204 C40.7584293,191.066051 40.034276,189.630449 39.3101227,189.630449 C37.1503674,191.066051 35.7020608,192.514357 37.1503674,193.975368 L39.3228272,196.135124 Z M32.0812945,286.565352 L32.0939989,286.565352 C34.2537543,285.117045 35.7020608,283.668738 34.2537543,282.220432 C34.2537543,281.508983 32.8181522,280.060677 32.0812945,280.060677 C29.9215391,281.508983 29.1973858,282.944585 29.9215391,284.405596 L32.0812945,286.565352 Z" id="uE005-i1" fill="#000"/></g></svg>