<svg width="201" height="502" viewBox="0 0 201 502" version="1.1" xmlns="http://www.w3.org/2000/svg" xmlns:xlink="http://www.w3.org/1999/xlink"><title>uE008-n1</title><desc>Created with Sketch.</desc><g id="Page-1" stroke="none" stroke-width="1" fill="none" fill-rule="evenodd"><path d="M0.140830994,445.520044 L0.140830994,247.419796 C1.77912979,248.427539 3.58582726,248.23742 7.32096393,246.03877 C5.04855022,242.898517 2.71550039,244.170407 0.140830994,244.639781 L0.140830994,0.176757812 L76.7873154,0.176757812 L106.372181,158.408069 C104.724091,161.252808 103.236678,164.424713 104.750239,166.75886 C105.755678,165.853343 106.663067,164.971107 107.434211,164.08822 L123.559776,250.333984 L127.482628,250.333984 L125.973839,0.176757812 L200.206261,0.176757812 L200.206261,29.9266964 C199.910237,30.3088759 199.624916,30.6766531 199.386751,31.0124715 L187.932521,30.33823 C190.369046,30.37163 190.051964,35.03093 190.55262,36.41703 C191.78757,39.77373 196.744062,34.17923 199.764685,36.43373 C198.69662,43.24733 197.127898,34.93073 198.24603,43.43103 C198.727346,42.8188263 199.396039,42.2591838 200.206261,41.742966 L200.206261,502 L124.163292,502 L112.001382,436.000335 C112.212029,436.114134 112.474016,436.17906 112.800784,436.18497 C112.232768,432.20613 116.841294,429.853968 110.803012,429.497078 L76.7873154,244.902344 L72.8644638,244.902344 L73.9627616,400.860637 C73.7374505,400.766117 73.4103591,400.728826 72.9819639,400.74924 C69.2771115,406.72784 67.5081279,415.21144 65.538882,422.15864 C66.8405869,422.50934 73.0987836,405.30834 73.9165213,402.38584 C73.935995,402.357231 73.9547898,402.328993 73.9729059,402.301126 L74.6750107,502 L0.140830994,502 L0.140830994,445.526754 C3.37999807,451.503247 11.2033419,456.545424 13.5391082,462.07164 C15.9088787,457.12844 4.0433377,453.98884 6.39641967,449.02894 C9.34271421,446.596992 0.500844048,445.278213 0.140830994,445.520044 Z M118.374751,257.99764 C117.073046,257.09584 110.414325,257.26284 111.081866,254.35704 C113.134554,254.97494 119.192489,255.29224 118.374751,257.99764 Z M20.3296689,240.69477 C21.2809148,243.43357 13.8044557,240.72817 17.8931443,237.52177 C18.6775049,238.59057 19.4952426,239.64267 20.3296689,240.69477 Z M16.4512557,384.04757 C17.3023705,381.77637 24.8956492,384.04757 24.1446656,386.10167 C22.3589934,385.78437 18.4371902,384.29807 16.4512557,384.04757 Z M193.179393,389.6571 C194.614607,390.2583 192.945754,394.8341 192.261525,395.5522 C190.742869,393.3979 191.026574,391.444 193.179393,389.6571 Z M142.104164,440.67894 C140.869213,443.53464 139.667639,446.39034 138.432689,449.26274 C142.688262,448.21064 145.959213,434.95084 147.46118,431.41044 C144.07341,431.10984 143.539377,438.77514 142.104164,440.67894 Z M33.7272164,321.1537 C30.8567902,320.6193 30.0724295,318.9493 31.3741344,316.1103 C31.3073803,313.622 30.3394459,311.5512 28.4536426,309.9146 C22.3623311,305.0215 26.300823,305.3388 23.2635115,299.2266 C26.8849213,303.8024 39.601577,314.4403 33.7272164,321.1537 Z M131.673836,286.44776 C136.630328,277.66356 133.65977,268.29486 143.022033,261.76516 C138.683016,260.26216 140.869213,257.37306 142.921902,255.11856 C139.867902,250.96026 134.894721,252.54676 139.183672,246.65166 C144.156852,239.82136 143.572754,250.99366 148.612689,248.87276 C148.545934,248.90616 140.986033,243.71246 142.805082,240.28896 C144.891148,236.29766 149.747508,234.36046 152.33423,230.73656 C150.565246,229.43396 148.746197,228.13136 146.977213,226.82876 C139.250426,236.48136 135.345311,248.47196 131.690525,260.09516 C129.571082,266.75846 127.55177,273.45516 124.881607,279.91806 C126.416951,280.80316 128.019049,281.35426 129.804721,281.55466 C129.971607,283.34156 130.60577,284.96146 131.673836,286.44776 Z M145.428518,191.49156 C141.490026,189.17026 137.100944,196.21766 142.708289,197.55366 C143.626157,195.53296 144.510649,193.51226 145.428518,191.49156 Z M19.4168066,420.08116 C14.4936918,418.49466 13.9095934,416.35706 17.6812,413.66836 C14.2600525,414.18606 10.9724131,405.23486 11.6900197,403.98236 C9.27018361,402.94696 6.21618361,405.75256 4.5807082,400.14136 C3.67952787,401.21016 16.3794951,419.11256 16.980282,423.25416 C16.9469049,421.55076 17.7479541,420.49866 19.4168066,420.08116 Z M139.692672,460.2981 C140.794115,460.8325 141.778738,460.6989 142.66323,459.914 C141.595164,458.6949 140.660607,457.4257 139.759426,456.0897 C139.726049,457.4758 139.726049,458.8953 139.692672,460.2981 Z M128.609823,388.10734 C129.77802,389.39324 129.911528,390.47874 131.313364,391.36384 C131.680511,390.22824 130.662511,383.46474 129.160544,385.08464 C128.960282,386.08664 128.810085,387.08864 128.609823,388.10734 Z M170.91857,227.78567 C167.847882,227.26797 164.860636,227.50177 163.12503,224.32877 C163.325292,224.32877 175.374407,225.48107 170.91857,227.78567 Z M21.6013344,215.24564 C19.8156623,218.38524 13.9746787,215.27904 15.7269738,212.08934 C17.7129082,213.15814 19.6654656,214.19354 21.6013344,215.24564 Z M141.126216,363.07404 C139.423987,361.32054 141.943954,356.59444 143.145528,355.57574 C143.929889,358.43144 143.245659,360.93644 141.126216,363.07404 Z M86.2359902,138.67614 C87.854777,139.52784 89.2566131,139.32744 90.4081213,138.05824 C91.1257279,135.28604 85.2013016,136.27134 84.0497934,135.58664 C83.5825148,137.47374 84.2834328,138.50914 86.2359902,138.67614 Z" id="uE008-n1" fill="#000"/></g></svg>