<?xml version="1.0" encoding="UTF-8"?>
<svg width="267px" height="500px" viewBox="0 0 267 500" version="1.1" xmlns="http://www.w3.org/2000/svg" xmlns:xlink="http://www.w3.org/1999/xlink">
    <!-- Generator: Sketch 43.1 (39012) - http://www.bohemiancoding.com/sketch -->
    <title>uE009-m2</title>
    <desc>Created with Sketch.</desc>
    <defs></defs>
    <g id="Page-1" stroke="none" stroke-width="1" fill="none" fill-rule="evenodd">
        <path d="M179.190823,286.578056 L155.742634,500 L110.643416,500 L78.1719784,204.44979 L73.0607336,204.44979 L76.3680096,500 L0,500 L0,0 L99.5189417,0 L131.088394,239.62718 L135.297655,239.62718 L166.867108,0 L266.386049,0 L266.386049,322.008925 C264.781269,322.482239 263.15016,323.452619 261.437421,324.920066 C263.15016,326.637108 264.781269,327.772539 266.386049,328.326357 L266.386049,500 L190.318701,500 L193.325316,204.44979 L188.214071,204.44979 L179.936852,279.787812 C179.153192,279.622967 178.01887,280.073381 176.876646,280.073381 C173.980033,279.349228 172.544431,280.073381 171.096124,282.233136 C169.647817,284.418301 172.544431,286.578056 176.876646,286.578056 L179.190823,286.578056 Z M259.277665,264.878867 L259.277665,264.866162 C259.277665,264.866162 261.437421,263.43056 261.437421,262.706407 C259.989114,261.982254 259.277665,259.809794 257.829359,259.085641 C254.932746,257.637334 253.497144,259.085641 254.932746,261.982254 C255.656899,263.43056 257.829359,264.154713 259.277665,264.878867 Z M251.324684,259.809794 L251.324684,259.809794 C252.048837,259.809794 254.208593,260.533947 254.208593,259.809794 C254.932746,257.637334 254.208593,256.189027 252.77299,254.753425 C251.324684,252.580966 249.876377,252.580966 248.428071,255.477579 C248.428071,256.189027 249.164928,256.913181 249.164928,257.650038 L251.324684,259.809794 Z M253.484439,298.151804 C254.208593,297.427651 253.484439,295.255191 251.324684,293.819589 L249.164928,295.979344 C248.428071,297.427651 249.164928,298.875957 251.324684,300.324264 L253.484439,298.151804 Z M244.820009,77.5010316 C248.428071,75.3412762 248.428071,67.3755902 244.820009,65.9399881 L242.660253,65.9399881 C239.039487,68.0997435 239.039487,76.052725 242.660253,77.5010316 L244.820009,77.5010316 Z M89.4446666,245.339433 C94.501035,240.994513 94.501035,235.938145 89.4446666,231.593225 C84.3882981,235.938145 84.3882981,241.007218 89.4446666,245.339433 Z M70.6420904,89.7989327 L70.6547948,89.7989327 C71.3789481,89.0747795 70.6547948,88.3506262 70.6547948,87.6264729 C69.9306416,86.9023197 69.2064883,85.4667176 67.7581817,85.4667176 L61.2535067,85.4667176 C60.5420579,85.4667176 59.0810469,86.9023197 59.0810469,87.6391774 C58.3695981,88.3506262 58.3695981,89.0747795 59.0810469,89.7989327 C60.5420579,93.4196991 68.482335,93.4196991 70.6420904,89.7989327 Z M61.2535067,335.045507 L61.2662112,335.045507 C63.4259666,333.609905 64.1501198,332.161599 63.4259666,330.700588 L61.2535067,328.540832 C59.0937514,329.989139 57.6454448,331.437445 59.0937514,332.885752 L61.2535067,335.045507 Z M56.933996,395.823564 L56.9212915,395.81086 C57.6454448,395.099411 56.9212915,394.375258 56.9212915,393.651105 C55.472985,392.926951 54.7488317,391.491349 54.0373829,391.491349 L47.5200035,391.491349 C46.8085546,391.491349 45.3602481,392.926951 45.3602481,393.651105 C44.6360948,394.375258 44.6360948,395.099411 45.3602481,395.823564 C46.8085546,399.431626 54.7488317,399.431626 56.933996,395.823564 Z M44.6360948,73.8929697 L44.6360948,73.8929697 L44.6360948,76.052725 C46.7958502,79.6734914 54.7488317,79.6734914 56.1971383,76.052725 L56.1971383,73.8929697 C54.0373829,70.2722033 46.0844014,70.2722033 44.6360948,73.8929697 Z M31.6267448,494.930927 C35.95896,495.65508 38.1441243,495.65508 40.3038796,495.65508 L31.6267448,494.930927 Z M33.0750514,113.670582 C30.915296,115.118888 30.1784383,116.567195 30.915296,118.028206 L33.0750514,120.187961 C35.2348067,118.739655 36.6831133,117.291348 35.2348067,115.843042 C34.5233579,114.394735 33.0750514,112.946429 33.0750514,113.670582 Z M4.88389154,105.7176 L4.89659598,105.7176 C7.05635136,104.269294 8.5046579,102.820987 7.05635136,101.372681 L4.88389154,99.2129253 C2.72413617,100.648527 1.9999829,102.096834 2.72413617,103.557845 L4.88389154,105.7176 Z" id="uE009-m2" fill="#000000"></path>
    </g>
</svg>