<?xml version="1.0" encoding="UTF-8"?>
<svg width="196px" height="500px" viewBox="0 0 196 500" version="1.1" xmlns="http://www.w3.org/2000/svg" xmlns:xlink="http://www.w3.org/1999/xlink">
    <!-- Generator: Sketch 43.1 (39012) - http://www.bohemiancoding.com/sketch -->
    <title>uE006-c1</title>
    <desc>Created with Sketch.</desc>
    <defs></defs>
    <g id="Page-1" stroke="none" stroke-width="1" fill="none" fill-rule="evenodd">
        <path d="M93.2328114,0.017891829 C92.7790392,0.412812199 92.3257289,0.954094698 91.8736949,1.6421465 L94.0052517,3.77370328 L94.0052517,3.77370328 C95.4346486,4.48840174 96.8515069,3.77370328 98.2809038,1.62960793 C98.2809038,1.08652392 97.4555481,0.543439912 96.7455917,0.000355903382 C96.9398578,0.000118634456 97.1344529,0 97.3293769,0 C139.861736,0 166.814978,5.63792582 178.189911,16.9139466 C189.564844,28.1899674 195.252226,55.3904866 195.252226,98.5163205 L195.252226,171.216617 L110.682493,171.216617 L110.682493,86.9436202 C110.682493,79.0306231 109.594472,73.4916083 107.418398,70.3264095 C105.242323,67.1612107 101.681528,65.578635 96.735905,65.578635 C92.1859318,65.578635 88.9218694,67.2106662 86.9436202,70.4747774 C84.9653709,73.7388887 83.9762611,79.2284481 83.9762611,86.9436202 L83.9762611,413.05638 C83.9762611,420.573727 85.0642819,425.91492 87.2403561,429.080119 C89.4164303,432.245318 92.9772255,433.827893 97.9228487,433.827893 C102.670647,433.827893 105.984165,432.344228 107.863501,429.376855 C109.742838,426.409481 110.682493,420.969377 110.682493,413.05638 L110.682493,287.240356 L195.252226,287.240356 L195.252226,400.890208 C195.252226,444.411691 189.416478,471.810033 177.744807,483.086053 C166.073136,494.362074 139.663905,500 98.5163205,500 C56.1817864,500 29.179089,494.312619 17.5074184,482.937685 C5.83574777,471.562752 0,444.213866 0,400.890208 L0,98.5163205 C0,54.5991869 5.78629228,27.2008457 17.3590504,16.3204748 C28.5486311,5.80035617 53.8396439,0.366211028 93.2328114,0.017891829 Z M184.596415,375.05328 C189.586766,368.633532 189.586766,368.633532 184.596415,361.486548 L178.176668,361.486548 C173.186317,367.906295 173.186317,367.906295 178.176668,375.05328 L184.596415,375.05328 Z M144.661072,422.185762 C146.792629,420.756365 147.507327,419.326968 146.792629,416.468174 C146.792629,415.753476 147.507327,414.324079 146.792629,413.60938 C145.363232,411.465285 143.946373,410.035888 142.504438,410.763125 C141.802278,411.465285 140.372881,412.179983 140.372881,412.894682 C139.658183,413.60938 140.372881,415.038777 140.372881,416.468174 C140.372881,420.756365 142.516976,423.60262 144.661072,422.185762 Z M137.514087,99.4429872 L137.514087,99.4429872 L137.526626,99.4555258 L139.658183,97.2988919 C138.956023,95.1673351 136.811927,94.4526366 135.38253,95.1673351 L133.250974,97.3114304 C134.667832,99.4429872 136.097229,100.170224 137.514087,99.4429872 Z M129.677481,32.3365642 C131.809038,30.9071673 132.536275,29.4777704 131.809038,28.0483735 C131.106878,27.333675 130.39218,25.9042781 129.677481,25.9042781 C127.545925,27.333675 126.116528,28.7630719 127.545925,30.1924688 L129.677481,32.3365642 Z M116.135827,491.43628 L116.123288,491.43628 C118.254845,490.006883 119.69678,488.577486 118.254845,487.148089 L116.123288,485.016532 C113.991731,486.445929 113.277033,487.862788 113.991731,489.304723 L116.135827,491.43628 Z M96.8515069,448.591989 C98.2809038,447.17513 97.5662054,445.745733 94.7199502,444.316336 L92.5883934,446.460432 C91.8611563,447.889829 92.5883934,449.306687 94.7199502,450.736084 L96.8515069,448.591989 Z M45.5060656,312.222509 L45.5060656,312.222509 C46.9229239,312.937207 48.3523208,312.222509 49.7817177,310.078413 L47.6376223,307.934318 C46.220764,307.219619 44.7913671,307.934318 43.3745088,310.090952 L45.5060656,312.222509 Z" id="uE006-c1" fill="#000000"></path>
    </g>
</svg>