<svg width="86" height="502" viewBox="0 0 86 502" version="1.1" xmlns="http://www.w3.org/2000/svg" xmlns:xlink="http://www.w3.org/1999/xlink"><title>uE005-i1</title><desc>Created with Sketch.</desc><g id="Page-1" stroke="none" stroke-width="1" fill="none" fill-rule="evenodd"><path d="M0.253326416,87.6420618 L0.253326416,0.176757812 L85.9525452,0.176757812 L85.9525452,173.157437 C84.497481,171.648412 73.8835872,180.88243 72.02957,182.233833 C69.3330952,185.812349 61.6602934,189.066599 65.3636065,195.053954 C66.7639217,193.67582 68.3841212,193.270487 70.2010592,193.849535 C71.555083,192.784086 70.8838575,192.054486 72.6197855,190.931133 C66.4536657,186.406145 80.0488063,178.01306 85.9525452,174.254007 L85.9525452,243.824522 C85.5272941,243.694316 85.0668027,243.910077 84.5710712,244.471063 C84.9336915,244.913593 85.4129083,245.738285 85.9525452,246.519324 L85.9525452,327.782394 C85.4866474,327.622801 85.0988014,327.470005 84.8152584,327.323558 C77.1540295,323.386032 69.8747047,317.641876 61.7737074,314.54976 C69.78889,319.429931 77.4512293,325.176778 85.9525452,329.059559 L85.9525452,443.016839 C85.4974404,443.186859 85.0426451,443.356878 84.5814868,443.526897 C84.8155975,444.607164 85.272617,445.464366 85.9525452,446.100558 L85.9525452,502 L0.253326416,502 L0.253326416,452.765137 C1.49796885,453.638868 2.61715447,453.981401 3.25904621,453.320914 C7.36740915,448.873826 3.98813597,445.943843 12.274299,446.62712 C13.3420727,445.535151 13.3245653,444.241669 12.7017263,442.914521 C14.1517768,443.281087 17.249523,441.391349 18.3951811,440.974454 C17.7312141,439.220789 13.9345797,441.483025 12.3010801,442.182222 C10.416629,439.148936 5.85677807,436.100687 4.26588445,435.011418 C1.8703038,436.806467 7.34426344,438.439382 4.35846727,440.234431 C3.83768887,439.805935 3.81454317,439.37744 4.33532157,438.937363 C3.10859911,438.983687 2.8887149,439.643802 3.71038749,440.906126 C1.33627532,440.538893 1.4824318,436.49046 0.253326416,434.099748 L0.253326416,428.749974 C3.39574199,424.347696 10.1940058,412.673457 10.4920796,410.86512 C7.88818755,410.413462 7.2053892,416.296589 4.70565288,418.48539 C2.27417674,420.61614 1.08604914,422.995734 0.253326416,425.425637 L0.253326416,361.539728 C1.57920241,360.931854 2.74864639,360.201614 3.54605297,359.154981 C2.41884225,359.373216 1.32132975,359.649603 0.253326416,359.980378 L0.253326416,346.071573 C1.40580809,346.447709 2.55689623,346.825659 3.70691563,347.205748 C3.80766481,346.921292 2.36568081,346.1644 0.253326416,345.225716 L0.253326416,221.024698 C1.11587003,222.731605 3.40401572,223.950063 3.64095037,218.97095 C2.8887149,219.503674 2.27535367,219.422608 1.81243954,218.693007 C1.04078209,218.567301 0.542667432,218.691937 0.253326416,218.960562 L0.253326416,91.0420175 C0.445550814,90.1036883 0.394260356,88.8711446 0.253326417,87.6420618 Z M39.2166523,461.324041 C36.2555438,461.579386 32.4289799,461.438122 31.6951168,464.244344 C29.7785789,463.121216 27.4717658,462.51465 25.6930224,462.922687 C23.3205875,464.196592 19.2006517,457.688094 18.9807675,462.436287 C22.4513768,462.4019 26.83388,463.611876 30.2301008,465.59726 C29.6540759,466.453247 29.3804196,467.515403 29.2189571,468.606609 C28.4808008,468.84534 27.9783116,469.244469 28.0886031,469.96391 C28.420198,469.895639 28.751358,469.827151 29.0822021,469.758505 C29.0105619,470.494075 28.9596305,471.214563 28.870928,471.865503 C28.1765568,476.578953 24.9014393,476.764249 20.9203777,477.482268 C21.1981262,479.057279 23.3853955,479.810041 24.924585,479.566841 C28.1765568,479.057279 28.2459939,479.045698 31.5674028,479.323641 C30.6878659,478.536135 30.5027003,477.632821 31.0697701,476.590534 C29.4727163,477.320135 28.4543053,476.880058 28.0261097,475.258724 C30.5952831,474.795486 31.1739258,472.317161 31.3475186,469.746188 C31.3566789,469.58658 31.3682727,469.430788 31.3824847,469.278666 C32.6936555,469.004299 34.0042126,468.729624 35.3216364,468.458385 C35.099817,467.328332 34.2862786,466.216563 33.1729496,465.281398 C34.0611269,464.492003 35.3359675,463.866084 37.1339453,463.295594 C38.4375564,466.840081 37.4629481,468.898493 35.9285223,470.886862 C35.9219591,470.833299 35.9156152,470.779662 35.9095374,470.725937 C33.8105466,471.017177 33.452266,472.122215 34.6195812,472.482942 C33.6714266,473.619819 32.6915042,474.850729 31.9724527,476.41682 C34.7371924,476.560199 37.2245379,474.180931 39.0640586,471.123533 C41.669089,469.316215 46.1815444,462.474117 45.9200555,460.087668 C44.4050376,460.71542 42.8900197,463.014871 41.5452354,465.457493 C42.1196245,463.528954 42.3846035,461.742247 42.2607193,460.493002 C41.6602294,460.998163 40.6242185,461.191751 39.4264956,461.305096 C39.3797438,461.280042 39.3315427,461.25562 39.2818669,461.231867 C39.2598095,461.262686 39.2380703,461.293411 39.2166523,461.324041 Z M31.5350651,468.232874 C31.6449122,467.703076 31.801881,467.224218 32.0170891,466.7875 C32.4922106,467.149831 32.9328283,467.529863 33.3311057,467.925661 C33.0218591,468.099262 32.3242578,468.159719 31.5350651,468.232874 Z M17.296709,482.074241 C17.2983207,482.075359 17.2999332,482.076476 17.3015465,482.077593 L17.3024345,482.067979 C18.0694708,481.226945 18.1614383,480.305836 17.5555864,479.327418 L17.5561492,479.321324 C16.8270595,478.487495 15.9012312,478.093743 14.8828201,478.128486 C15.1024065,479.80545 15.9106108,481.112828 17.295907,482.073685 L17.29576,482.075276 C17.2960765,482.074931 17.2963928,482.074586 17.296709,482.074241 Z M0.253326416,445.088266 L0.253326416,440.395938 C1.96098526,442.85499 3.72616004,445.034076 4.43947725,445.457443 C3.51953982,446.579268 1.92568166,445.999281 0.253326835,445.088267 Z M85.2075781,481.090895 L85.2065861,481.09041 C83.6676344,480.743846 81.4481696,481.113195 81.7946382,479.423751 L81.7935864,479.423237 C84.767542,478.797921 85.9133159,479.342072 85.2077687,481.090423 L85.2087354,481.090895 C85.2083819,481.090815 85.2080283,481.090735 85.2076747,481.090656 Z M58.4453547,78.5286642 C56.3159497,78.9108358 55.737307,78.1349116 56.686281,76.2008915 C57.6121093,76.6641298 58.2023248,77.4400541 58.4453547,78.5286642 Z M76.7767544,451.771382 C76.0592375,451.74822 75.3995849,451.713477 74.7167866,451.690315 C76.2791218,452.674697 73.7446669,454.655041 75.8046348,455.454127 C76.0823832,454.214964 76.3948503,452.987383 76.7767544,451.771382 Z M27.6372618,101.814498 C29.2458884,102.277736 26.3295294,106.956443 25.1953897,105.717281 C26.0054895,104.420214 26.8503078,103.123146 27.6372618,101.814498 Z M76.6633405,286.697555 C76.3971649,285.817402 76.1194164,284.937249 75.830095,284.057096 C77.4387217,283.535953 79.6259909,290.600338 78.04051,291.1099 C77.5891688,289.639118 77.1146818,288.168337 76.6633405,286.697555 Z M40.4079055,312.10502 C40.292177,313.55264 39.5978058,314.618088 38.3595104,315.301365 C38.081762,312.278734 38.7645603,311.213286 40.4079055,312.10502 Z M60.705533,198.110169 C58.0437767,196.037178 55.335729,193.964186 52.6855456,191.879614 C54.4446193,196.67413 61.0874372,198.851351 64.489856,202.232991 C65.7512971,200.715885 61.8396726,198.990322 60.705533,198.110169 Z M10.0291654,360.118517 C10.6656724,360.303812 11.0244308,360.060612 11.0938679,359.388916 L3.83768887,358.033944 C3.15489053,361.334517 8.3973931,359.632116 10.0291654,360.118517 Z M5.44052906,368.307413 C6.67882437,366.014383 7.52364267,364.64783 4.73458501,362.516933 C2.31585866,363.107562 4.20223375,368.701165 5.44052906,368.307413 Z M22.0082259,410.321973 C22.239683,409.742925 22.4595672,409.175458 22.7025971,408.59641 C26.186026,410.067192 20.897232,413.101403 22.0082259,410.321973 Z M53.3370973,317.476269 C52.0525105,316.76983 51.3465665,315.715963 51.2076922,314.303086 C52.249249,315.252725 54.540674,316.144458 53.3370973,317.476269 Z M20.5164851,371.457433 C19.741104,372.0249 19.7873954,372.372329 20.6900779,372.488139 C21.9862375,372.048062 24.6132752,368.701165 23.3286885,367.786269 C22.3912874,369.013851 21.4654591,370.229852 20.5164851,371.457433 Z M80.0761749,394.268448 C81.8699672,398.947155 78.9883267,400.661137 75.1924308,403.371081 C76.8010574,400.302127 79.2660752,398.912412 80.0761749,394.268448 Z M9.55467843,150.678037 C10.1680397,150.747523 10.7582552,150.828589 11.3716164,150.909656 C8.25851886,145.964587 6.75404792,145.570834 1.5231182,147.829121 C4.26588445,148.107064 7.47156483,148.66295 9.55467843,150.678037 Z M38.057459,113.130253 C36.8654551,113.2229 36.1826567,112.85231 35.1410999,113.257643 C35.4882855,114.160958 39.0064329,115.967587 38.3352074,116.766674 C38.9601415,115.504349 38.8675587,114.299929 38.057459,113.130253 Z M62.1741281,120.67988 C61.4103198,118.097326 65.5649741,119.672336 66.5602395,119.000641 C67.5092135,121.16628 63.8059004,123.250852 62.1741281,120.67988 Z M13.9164869,336.318488 C12.6087544,338.159861 7.47040754,334.720316 7.10007624,339.746452 C9.76183251,339.306376 17.0180116,337.847175 13.9164869,336.318488 Z M82.6534494,253.549377 C83.0353535,252.831357 82.9659164,252.148081 82.4219923,251.499547 C81.3109984,251.974366 80.79022,252.796614 80.8596571,253.977872 C81.2068427,255.170711 81.9127868,252.750291 82.6534494,253.549377 Z M73.9055295,306.014594 C75.4678647,303.524688 81.1617086,302.667697 77.6319883,299.367124 C75.5951661,301.521182 72.60937,303.374135 70.630412,305.447127 C71.7182602,305.713489 72.7945356,305.898784 73.9055295,306.014594 Z M31.7282655,211.952889 C35.8944927,209.509307 39.7135343,205.780238 43.602013,203.02397 C46.0207394,201.309988 50.5804436,196.781833 52.0617688,195.982747 C41.4841808,202.375436 32.156461,210.609498 22.0533601,217.697045 C24.3563579,220.441732 29.795599,213.087823 31.7282655,211.952889 Z M20.3810827,211.54524 C20.6935498,209.171143 19.6635658,206.507522 21.2374739,204.376626 C22.3021764,205.916894 21.8508351,210.236591 20.3810827,211.54524 Z M56.4791269,445.56283 C55.2639773,447.763212 57.8331508,447.670564 57.3586638,449.604584 C56.6874383,449.129765 54.1992748,444.427896 56.4791269,445.56283 Z M65.3844376,365.536089 C62.7342542,364.088469 60.3155278,362.061802 57.2024303,361.494335 C60.5006935,363.219897 63.2781783,365.825613 66.8773357,366.983709 C66.379703,366.497309 65.8820703,366.010908 65.3844376,365.536089 Z M79.9639183,405.957109 C78.87607,405.690747 77.9502418,406.003433 77.2095792,406.918329 C75.9018467,406.223471 84.5814868,402.320688 78.8876429,409.118711 C79.2464014,408.064844 79.6051598,407.010977 79.9639183,405.957109 Z M17.7251129,474.181695 C18.3963384,475.281886 18.9518354,476.41682 19.4841866,477.563335 C22.1459429,477.725468 21.9492044,473.776361 21.0928132,472.421389 C20.004965,473.058342 18.8939711,473.648971 17.7251129,474.181695 Z M60.5701306,481.357257 C61.2182104,480.894019 62.120893,479.064227 61.7737074,478.241979 C61.2992204,478.473598 56.5543505,478.728379 57.4801788,480.175999 C58.406007,480.940343 60.1072165,479.284265 60.5585578,479.863313 C60.5469849,480.349714 60.5701306,480.859276 60.5701306,481.357257 Z M80.822624,369.953067 C83.901003,369.188724 79.3528716,374.006402 79.0982688,374.238022 C78.7858018,373.126249 79.8273586,370.439467 80.822624,369.953067 Z M57.947722,229.448244 C56.767291,230.143101 52.6357823,228.741805 51.640517,227.792166 C53.0176865,226.969918 57.1839137,228.463862 57.947722,229.448244 Z M4.46840938,158.192921 C-3.42427661,161.412427 7.90554683,167.411364 10.9954987,169.495937 C16.0644084,172.877577 20.12648,177.845808 25.1259526,180.903181 C27.1859205,176.954074 20.6472584,170.376089 18.4599891,172.391176 C14.6178018,171.765805 17.2448395,169.519099 17.1059652,168.349422 C16.6083326,164.504543 11.1806643,164.527705 8.69250086,161.910409 C8.05599392,162.929533 8.40317952,163.925495 9.28271638,164.446639 C7.43105984,165.048848 2.50102431,163.994981 3.78561103,161.030256 C5.04705205,159.316274 7.03758283,162.89479 8.39160667,160.636503 C7.09544709,159.814255 5.77614181,159.003588 4.46840938,158.192921 Z M41.1763429,64.1207935 C41.0837601,63.5185836 41.014323,62.9047928 40.933313,62.3025829 C39.3709778,62.5457831 39.5561435,62.9742786 39.3709778,64.3871555 C39.9727662,64.3060888 40.5861274,64.2134411 41.1763429,64.1207935 Z M60.3433027,301.936938 C61.8362008,301.879034 58.6536661,307.125208 60.8640811,308.457018 C66.6273621,307.159951 62.0676578,298.844822 61.5931708,295.023106 C58.2601891,295.706383 59.9382528,299.979756 60.3433027,301.936938 Z M14.1653032,70.2563854 C17.2552551,70.6617189 23.0648274,72.2483103 26.0506236,71.6808433 C25.9117494,67.7317364 13.5982334,68.4613368 11.6077026,68.1023271 C11.4804012,69.2604229 12.9617265,70.0595091 14.1653032,70.2563854 Z M14.3909739,422.067381 C13.1758242,422.993858 11.9259561,423.908753 10.7108065,424.846811 C9.85441533,423.653972 13.2452614,420.492371 14.3909739,422.067381 Z M18.8442078,250.908918 C18.8210621,249.449717 19.4112776,248.314783 20.5454173,247.515697 C21.1472056,250.480423 20.568563,251.615357 18.8442078,250.908918 Z M1.57519604,399.097707 C1.36688468,398.51866 1.19329188,397.928031 0.98498052,397.348983 C-0.60050039,398.101745 2.24642154,404.251234 2.38529578,404.656568 C4.30638943,403.915386 1.57519604,400.186318 1.57519604,399.097707 Z M51.5062719,428.954577 C51.7377289,430.240063 48.6593499,431.664521 47.235889,431.467645 C47.1664518,430.645397 51.1243677,426.615223 51.5062719,428.954577 Z M76.3242559,486.672917 C78.5115252,482.306896 72.2737572,473.030548 67.077546,472.370433 C66.765079,474.709787 68.0033743,475.555197 65.897115,477.558703 C64.5430912,478.844189 61.5225764,479.133713 61.2679737,480.882438 L76.3242559,486.672917 Z M40.475028,328.990058 C39.2598784,330.090249 33.0799747,323.22274 34.3298429,322.099387 C36.3898108,324.369255 38.4497787,326.650704 40.475028,328.990058 Z M27.1847632,469.929167 C26.8260048,469.095338 25.5066995,465.505241 24.9280568,464.868288 C21.1437338,466.58227 25.8770308,467.798271 24.6850269,471.064101 C25.5066995,470.681929 26.3515178,470.311339 27.1847632,469.929167 Z" id="uE005-i1" fill="#000"/></g></svg>