<?xml version="1.0" encoding="UTF-8"?>
<svg width="267px" height="500px" viewBox="0 0 267 500" version="1.1" xmlns="http://www.w3.org/2000/svg" xmlns:xlink="http://www.w3.org/1999/xlink">
    <!-- Generator: Sketch 43.1 (39012) - http://www.bohemiancoding.com/sketch -->
    <title>uE002-m1</title>
    <desc>Created with Sketch.</desc>
    <defs></defs>
    <g id="Page-1" stroke="none" stroke-width="1" fill="none" fill-rule="evenodd">
        <path d="M191.044642,428.639974 L193.325316,204.44979 L188.214071,204.44979 L155.742634,500 L110.643416,500 L78.1719784,204.44979 L73.0607336,204.44979 L76.3680096,500 L0,500 L0,0 L99.5189417,0 L131.088394,239.62718 L135.297655,239.62718 L166.867108,0 L266.386049,0 L266.386049,148.568213 C265.362772,147.441914 263.837447,147.38588 262.318407,148.40453 C260.8701,148.40453 260.158652,147.680377 258.710345,148.40453 C256.537885,149.852837 255.089579,151.301143 255.826436,152.74945 C256.537885,153.460898 257.262039,154.909205 257.986192,154.909205 C258.710345,155.633358 260.158652,154.909205 261.594254,154.909205 C263.594568,154.909205 265.285222,154.448752 266.386049,153.739831 L266.386049,500 L190.318701,500 L191.033337,429.751306 C191.190171,429.550021 191.347005,429.331753 191.50384,429.096502 L191.044642,428.639974 Z M229.795032,44.2280944 C235.575554,39.1590215 235.575554,34.1026531 229.795032,29.7577334 L226.911123,29.7577334 C224.01451,29.0335802 222.578908,29.7577334 221.130602,31.9301932 C220.406448,33.3784998 221.130602,34.8268063 223.290357,36.9865617 C225.475521,39.1590215 227.635277,42.0556346 229.795032,44.2280944 Z M218.233989,97.0404655 L218.233989,97.0404655 C218.958142,95.5921589 218.233989,94.1438524 216.061529,92.6955458 L213.901773,94.8680056 C213.17762,96.3163122 213.901773,97.7646187 216.074233,99.2002208 L218.233989,97.0404655 Z M197.271657,83.2942577 L197.271657,83.2815533 C198.008515,81.8459512 197.271657,79.6734914 195.111902,78.9620426 C194.387748,78.2251848 192.939442,78.9620426 191.50384,78.9620426 C188.607227,78.2251848 187.15892,78.9620426 185.710614,81.1217979 C184.262307,83.2942577 187.15892,85.4540131 191.50384,85.4540131 L195.111902,85.4540131 C195.836055,84.7425643 197.271657,84.018411 197.271657,83.2942577 Z M131.513458,363.262076 C133.673214,361.81377 135.134225,360.365463 133.673214,358.917156 C133.673214,358.205708 132.237611,356.757401 131.513458,356.757401 C129.353703,358.205708 128.62955,359.654014 129.353703,361.102321 L131.513458,363.262076 Z M82.3726712,112.946429 C87.4290397,106.441754 87.4290397,106.441754 82.3726712,99.2129253 L75.8679962,99.2129253 C70.8116278,105.7176 70.8116278,105.7176 75.8679962,112.946429 L82.3726712,112.946429 Z M43.3446212,235.213991 C43.3446212,231.593225 45.517081,227.972459 41.1848659,225.812703 C36.115793,224.364397 30.3352712,224.364397 22.3949941,226.536857 C22.3949941,233.765685 22.3949941,233.765685 24.5547495,237.373747 C29.7635713,238.822053 35.2518908,238.822053 40.4607126,237.373747 C41.1848659,237.373747 41.9090191,235.938145 43.3446212,235.213991 Z M35.4043441,340.11458 L35.3916397,340.11458 C36.115793,338.666274 35.3916397,337.217967 33.2318843,335.769661 C32.507731,335.045507 31.0594245,335.769661 29.6238224,335.769661 C26.7272093,335.045507 25.2789028,335.769661 23.8305962,337.954825 C22.3822897,340.11458 25.2789028,342.274336 29.6238224,342.274336 L33.2318843,342.274336 C33.9560376,341.562887 35.4043441,340.838734 35.4043441,340.11458 Z" id="uE002-m1" fill="#000000"></path>
    </g>
</svg>