<svg width="404" height="502" viewBox="0 0 404 502" version="1.1" xmlns="http://www.w3.org/2000/svg" xmlns:xlink="http://www.w3.org/1999/xlink"><title>uE009-m2</title><desc>Created with Sketch.</desc><g id="Page-1" stroke="none" stroke-width="1" fill="none" fill-rule="evenodd"><path d="M403.71755,171.956857 L403.71755,290.166863 C403.588316,290.628107 403.601628,290.971573 403.71755,291.230266 L403.71755,502 L287.085151,502 L287.085151,225.891602 L285.6417,234.18424 C285.24707,234.362314 284.848639,234.538629 284.450208,234.709385 C279.193415,237.076131 281.714773,226.800408 281.488802,225.646767 C274.493549,228.741004 282.678265,235.198467 285.453011,235.268256 L245.906628,462.462474 C244.71339,462.493451 243.70961,462.745266 243.764764,463.572589 C244.186363,463.580396 244.90266,463.6638 245.688657,463.714717 L239.024559,502 L165.626584,502 L153.647935,434.035694 C157.880966,432.714123 162.24737,431.744059 166.662346,431.544204 C171.241227,436.908037 177.271079,436.539348 178.638797,443.734733 C183.217679,435.457067 165.734676,434.422358 168.38686,425.419207 C163.268706,427.376722 158.243012,429.540493 153.251441,431.786069 L121.665462,252.57395 C124.084455,252.559322 126.484219,252.823034 129.063187,254.305809 C129.991255,254.833534 130.921064,255.406505 131.875246,255.930197 C131.775132,257.922784 132.379434,260.775907 132.612117,259.838525 C132.822824,258.9957 132.797978,257.67153 133.108786,256.564902 C134.272439,257.117125 135.484134,257.542889 136.781873,257.683477 C139.457843,258.004593 140.730415,255.816245 143.049589,256.660662 C145.713665,256.077895 148.318276,255.31673 150.86342,254.353381 C140.962112,250.363302 130.799645,246.299772 120.227288,244.414054 L116.962721,225.891602 L116.962721,243.905198 C115.847205,243.75704 114.72703,243.635269 113.602028,243.542464 C109.201545,243.173774 99.4134422,246.028142 96.7136861,243.839794 C95.5831904,242.931049 94.190408,242.478524 92.7003859,242.266613 C89.0139053,238.989235 86.4688133,234.756687 82.0660224,233.081206 C75.6468241,230.645143 85.2769346,240.425384 87.9673513,242.141994 C86.8985764,242.180796 85.8659952,242.228827 84.927526,242.210425 C80.8481588,242.11528 76.6260732,241.18761 75.7459765,236.561156 C76.8161091,234.520975 77.3604674,232.312596 77.5189813,230.048528 C77.7537593,229.861668 77.9846638,229.664831 78.2114366,229.457348 C77.9876339,229.568555 77.7624953,229.675176 77.5361073,229.777511 C77.7984241,225.127974 76.4630416,220.2633 74.7350546,216.152427 C61.7787382,216.207443 49.4798722,219.853694 38.4597914,226.191879 C38.2513467,225.971269 37.9716618,225.779693 37.6080558,225.627738 C36.3711631,222.856623 32.3512619,221.346187 30.4959229,220.537449 C32.4226211,225.770457 27.9864579,227.019242 24.1568479,228.731863 C17.6750545,231.610017 26.5117013,239.043267 25.2272358,245.108798 C26.7138856,244.478458 34.8607268,251.340834 34.8964064,251.245689 C34.3493193,252.92263 29.1400982,252.316076 32.8864558,254.93258 C38.4286865,258.79787 36.8349978,259.083307 34.1352417,265.374809 C35.2077932,265.66153 39.9308719,258.030875 41.7854373,255.495524 C42.1530859,256.11608 42.7052799,256.625257 43.4440484,257.021026 C44.2408928,258.376851 45.3945331,258.983404 46.8930761,258.852578 C42.8850681,255.796026 47.2855517,257.913016 48.9387063,259.423452 C49.9615214,256.592871 55.6107909,262.646509 57.6802075,259.63753 C56.57414,258.805006 56.5265672,257.913016 57.5493823,256.96156 C55.4086065,256.283648 51.5671033,254.154765 49.937735,252.656222 C49.4025411,255.391658 52.5185592,256.295541 54.2311798,257.805977 C50.9129773,260.600879 46.2151638,253.13195 45.2161351,252.228067 C44.7629088,253.111629 44.2779626,253.32026 43.7735062,253.329469 C44.7903248,252.273065 45.7981595,251.203612 46.7896053,250.139621 C46.6825665,248.474573 43.602228,247.01171 46.5279549,245.905642 C42.4129081,242.88477 37.9053857,243.800546 44.8748003,241.802489 C47.967032,240.934285 43.7330532,238.365354 43.2216456,238.198849 C37.263153,236.129433 40.6051419,239.602247 35.5386392,240.2088 C36.0619399,236.747879 37.738881,235.285016 39.7488316,232.727978 C43.6141212,233.096667 40.4743167,236.950064 43.8876648,237.556617 C43.780626,235.177977 46.2544113,234.559531 48.0978572,234.583317 C51.7289086,234.640801 52.6664839,236.249541 55.1443733,236.071 C55.0713907,236.31835 55.0579797,236.623381 55.1041406,236.985743 C55.484723,237.164141 58.8148186,236.200792 59.135935,235.998608 C58.5689051,235.761193 58.0612901,235.582746 57.6130898,235.462921 C62.0893997,233.963854 67.1839103,234.075509 71.751333,232.835146 C71.2967919,238.764142 70.6521487,244.634051 75.4129669,247.931054 C81.5532983,252.153931 89.9870377,251.523207 98.218456,251.218255 C101.607758,254.05298 104.823834,257.084898 107.065526,261.184835 C108.397565,259.055952 113.594892,258.734836 115.8546,257.497943 C111.097321,255.70207 107.374749,258.259108 104.211159,251.943819 C103.812686,252.095177 103.185566,251.740304 102.446487,251.116114 C105.856157,251.09987 109.153357,251.300308 112.151058,252.105567 C113.838613,252.562881 115.427624,252.689679 116.962721,252.697547 L116.962721,296.129782 C116.929832,296.056127 116.895847,295.982666 116.860765,295.909407 C116.573461,296.89445 116.637426,298.763332 116.962721,300.022271 L116.962721,403.01682 C116.077883,403.549711 115.017649,404.085849 113.709067,404.677468 C115.219503,405.39106 115.195717,406.092759 113.637708,406.806351 C113.917819,408.475096 115.491093,407.575434 116.962721,406.308828 L116.962721,502 L0.93359375,502 L0.93359375,356.428365 L28.949807,368.977653 C29.052431,369.025544 29.1348849,368.894609 29.1960364,368.628041 C32.708951,363.65871 31.6636562,362.863945 29.1400982,357.281881 C27.4869436,353.618776 28.4265063,351.287709 24.5968962,349.408584 C21.6949557,347.993293 18.6502968,346.875332 15.5461719,345.959556 C10.7720869,344.547733 5.86920733,343.567091 0.93359375,342.848565 L0.93359375,310.250177 C1.89174556,310.558977 2.62529786,310.675485 2.75741521,310.381052 C2.17491901,310.006998 1.55951732,309.489668 0.93359375,308.96073 L0.93359375,213.924014 C2.48879166,213.118848 3.89476579,212.100539 5.15151614,210.854007 C10.8007856,213.399151 7.14957354,199.579254 2.70151718,209.1176 C3.86705066,209.617114 6.5430204,206.239445 6.6024864,209.307891 C4.47899673,210.335067 2.35550707,211.206404 0.93359375,213.045785 L0.93359375,94.4076075 C1.74298659,94.4635949 2.4711128,94.6036373 2.93938115,95.0118713 C2.55994439,93.9184943 1.85146468,93.168831 0.93359375,92.6361912 L0.93359375,0.176757812 L166.028765,0.176757812 L181.173396,87.2936915 C179.896556,87.6565767 178.620586,88.0254356 177.353142,88.4028207 C177.662254,89.4814252 179.702558,89.2543623 181.398482,88.5884644 L182.08677,92.5477199 C181.289088,92.9491681 180.491406,93.353433 179.693724,93.769032 C179.134743,94.0306824 178.56387,94.3280123 178.004889,94.5896627 C178.53841,95.4601434 180.733508,94.8306464 182.310729,93.8360074 L184.006281,103.589385 C181.482403,104.383097 177.316719,106.125934 177.235399,107.065628 C177.489174,109.314595 181.998957,107.655245 184.340655,105.512814 L202.225027,208.389648 L238.019108,0.176757812 L403.71755,0.176757812 L403.71755,169.86146 C403.066053,168.880341 402.906068,167.769487 403.252561,166.53638 C401.195038,166.453127 402.158387,171.626669 402.110814,173.137105 C402.860162,172.905006 403.395054,172.510216 403.71755,171.956857 Z M137.394677,121.04863 C134.137654,116.796167 132.536491,111.355064 128.171197,108.821064 C126.113674,110.081744 129.693526,116.920333 125.376295,114.125431 C125.566586,117.871789 127.671683,125.638048 133.249593,122.343632 C132.405176,121.939263 130.644982,118.06208 129.289158,119.572516 C130.062216,120.155283 130.621196,120.880768 130.930419,121.760865 C130.097895,122.807466 126.125567,114.720091 129.455662,111.544607 C130.847727,113.114856 135.576745,123.309044 138.125763,122.754363 C138.398798,123.390345 138.67263,124.027198 138.947624,124.666373 C141.659274,123.477053 134.892044,118.731667 139.328207,118.303512 C139.07845,116.531425 138.174567,115.258853 136.604664,114.533368 C136.212189,114.497688 136.640344,118.089434 136.331121,118.553269 C136.68537,119.387939 137.039619,120.218648 137.394677,121.04863 Z M388.12364,119.622933 C388.174155,120.023395 388.263924,120.485409 388.397956,121.016351 C383.295773,122.288923 385.06786,126.939164 389.729994,126.415863 C391.977808,126.166106 400.42198,123.644747 400.12465,120.992564 C398.982903,119.04208 395.331691,109.658346 395.450623,118.209556 C395.474256,119.613403 394.025088,118.997784 392.405204,118.281482 C393.143819,118.083682 393.896485,117.949619 394.678754,117.952663 C393.36552,116.612764 391.469409,116.625441 389.668959,117.307966 C388.980981,117.214294 388.438212,117.372105 388.201967,118.019115 C387.34504,118.52612 386.560887,119.155809 385.937253,119.819895 C386.689942,119.869299 387.414226,119.78236 388.12364,119.622933 Z M298.898008,142.506964 C295.019427,145.716536 291.632329,149.724172 290.227924,154.564686 C289.193216,158.132645 289.502439,161.890896 290.91773,165.304244 C290.77516,164.962075 290.996835,165.341989 291.375319,166.004142 C290.199781,168.773235 286.200492,167.354389 283.973291,167.879122 C279.803102,168.852668 279.59464,171.435467 280.625585,173.514527 C279.670304,173.108447 278.723464,173.094223 278.72958,174.256255 C279.645848,175.034591 280.684543,175.364033 281.83214,175.210775 C283.466308,176.89307 285.569128,177.273051 284.841495,173.790042 C291.917948,173.944653 289.753386,173.409459 292.536394,168.247811 C292.586272,168.249232 292.635946,168.251054 292.685421,168.253265 C293.370084,169.376929 293.980376,170.244794 293.950496,169.657155 C293.918693,169.229709 293.877388,168.801823 293.82839,168.373801 C297.316633,168.947798 299.930573,171.195971 303.882506,170.388587 C303.716001,178.594894 303.930079,180.236156 309.852892,185.576202 C313.658715,189.013336 317.678617,189.822074 321.591479,185.932998 C316.929345,185.944891 313.599249,188.026201 310.245367,183.792222 C310.768668,180.485913 310.304833,178.107273 314.15823,178.178632 C315.954103,178.238098 316.049248,172.981304 316.263326,171.340043 C316.846093,166.737375 314.729103,166.642229 314.289055,169.793927 C313.741968,173.801935 311.660658,166.773054 311.553619,166.737375 C311.470367,171.173538 307.379106,170.66213 303.882506,170.388587 C306.748767,164.78689 295.664306,153.797574 295.497801,162.646114 C296.782266,162.206066 297.888334,162.372571 298.80411,163.181308 C297.852654,163.93058 296.75848,164.085191 295.485908,163.59757 C294.432561,163.153435 293.580543,162.937906 292.929424,162.950553 C291.555219,155.819703 290.175571,149.014151 297.42331,143.979739 C299.480833,142.552555 302.418453,139.829012 304.927918,139.270032 C309.328402,138.318576 312.896361,141.720031 317.570389,140.04309 C314.775487,138.152071 306.295636,135.761538 316.607039,134.358141 C318.973786,134.048918 333.911644,139.127314 333.994896,137.985567 C330.308005,136.927072 322.077911,131.920035 318.533738,132.455229 C312.955827,133.311539 306.676218,136.927072 302.121123,140.07877 C301.954571,140.19354 301.788169,140.309654 301.622023,140.427114 C300.413956,139.646016 298.132621,141.918552 297.330543,142.480006 C297.635938,142.889879 298.23595,142.802839 298.898008,142.506964 Z M70.218448,18.2811662 C70.2176148,18.2749443 70.2166791,18.2687821 70.215639,18.2626805 L70.3333315,22.017069 C70.360642,21.4229773 72.8444714,18.5451245 70.2180177,18.2674378 L70.218448,18.2811662 Z M70.2223751,18.4064403 C70.1572163,19.5461521 67.6250915,22.1363015 70.334571,22.0566109 L70.3342592,22.0466645 C70.334891,22.0518076 70.3357852,22.0567104 70.3369497,22.0613682 L70.2223751,18.4064403 Z M26.8788306,20.8093804 C27.3670604,21.2405456 29.5112616,21.8987098 30.6398306,21.7010043 C33.6446509,21.0135546 29.9923629,20.1296996 27.8745757,20.3890082 C30.1805275,19.3593021 31.9766185,18.1193194 28.6539265,18.020067 C28.6538398,18.0196681 28.6537531,18.019269 28.6536664,18.0188699 L23.8607072,17.5550352 C24.851389,17.3741281 25.829591,18.4099911 25.7241396,19.3383463 L23.1827949,20.4819514 C25.3354639,20.874427 25.2759979,20.5295242 23.8012412,21.6474849 C23.3002875,22.0328339 25.0467442,21.5422391 26.8788306,20.8093804 Z M349.408855,498.703581 C349.409127,498.704483 349.409399,498.705385 349.409671,498.706287 C349.409882,498.706324 349.410371,498.706901 349.41086,498.707477 L349.408855,498.703581 Z M339.706827,479.858342 C339.706158,479.857417 339.70549,479.856492 339.704821,479.855567 L339.706831,479.859472 C339.706557,479.858567 339.706284,479.857662 339.70601,479.856757 Z M238.931372,26.267489 C239.432564,26.8801566 239.928322,27.4928242 240.43229,28.1054919 C241.740542,27.0113176 238.172582,22.6465136 236.816758,23.6931151 C237.263513,24.2362291 237.703816,24.772891 238.147171,25.3126054 C237.114998,24.6947317 235.490242,24.9288078 235.245666,26.380978 C236.482559,26.618842 237.731345,26.8448128 238.980131,27.0707836 C239.028372,26.7751109 239.006569,26.5063159 238.931372,26.267489 Z M124.066898,203.96385 C124.376565,204.041278 124.70183,204.094154 125.048043,204.11532 C127.628867,204.317505 125.678383,200.047846 127.97377,200.012167 C119.696103,197.122119 110.229117,199.928914 101.749266,200.238137 C107.160672,201.427457 112.762369,200.059739 118.161881,201.21338 C118.991275,201.397289 119.700399,201.72115 120.361853,202.087828 C120.410378,202.537339 120.416909,202.993873 120.38472,203.455248 C120.194429,205.358159 122.703893,203.550393 123.917,205.108402 C124.029644,204.694815 124.076216,204.314025 124.066898,203.96385 Z M185.667632,290.026764 C185.748163,289.809632 185.834104,289.582174 185.92576,289.343172 C186.710711,287.321329 187.567021,282.730554 184.153673,282.445117 C185.212168,279.162594 188.613623,282.75434 189.49372,278.984196 C187.222119,276.653129 185.985226,274.79779 182.619451,273.822548 C182.583771,277.854342 186.579886,275.737353 184.629401,279.590749 C184.522362,279.81672 180.442995,287.142931 179.812656,282.849486 C178.754161,275.701673 179.075277,280.292448 175.542997,283.967446 C175.067269,281.957496 171.309019,283.729583 169.263388,281.172545 C166.432807,277.592692 163.602226,274.048519 159.832082,271.408229 C161.318731,274.524247 164.862905,276.213081 166.064118,279.495604 C166.920453,280.394519 167.777833,281.309326 168.626443,282.241635 C168.135331,284.878771 166.48406,290.452508 170.845184,289.271813 C170.369456,286.369873 169.15635,287.047785 169.501252,283.420359 C169.514558,283.362977 169.525655,283.306292 169.534549,283.250325 C174.735073,289.093821 179.465846,295.628456 181.406344,303.234429 C182.012897,305.624962 186.104158,321.026654 186.567993,321.323984 C188.506584,318.065248 187.150759,317.506267 186.032799,314.330783 C184.415324,309.716222 185.093236,304.732972 184.855372,299.987585 C184.650942,295.907498 184.3245,294.725173 184.846016,292.582585 C185.37494,293.148117 186.032625,293.586615 186.615565,293.618777 C186.696365,292.184588 187.060207,290.501665 185.667632,290.026764 Z M71.8428733,231.578196 C67.8485001,232.450302 63.7030745,232.810626 59.8007648,234.024337 C61.0614439,232.383075 57.4102318,232.478221 56.8512515,231.728949 C55.6976112,230.147154 59.693726,232.335502 58.6471245,229.409775 C56.7798923,228.624824 55.8522228,228.969727 53.9255246,228.434533 C52.4864475,230.373125 53.4497966,232.038172 52.5696999,234.060016 C49.6796526,234.262201 45.9214018,232.347396 43.2335388,234.226521 C42.3653353,232.502007 43.5070824,230.230406 41.2235882,229.243271 C39.1303852,227.899339 40.1294139,233.536715 37.501017,230.753707 C38.0233789,230.167282 38.5416571,229.35829 38.7994962,228.540785 C48.9130409,224.585384 59.2408087,221.267644 70.1918526,220.612376 C72.1156387,223.71511 72.1099088,227.620198 71.8428733,231.578196 Z M274.548871,223.541597 C274.672735,222.541299 274.385719,221.714713 273.126694,221.521017 C273.138587,222.734123 272.543927,223.471501 271.354607,223.756938 C272.948296,225.041404 270.77184,226.563733 273.126694,227.598441 C273.283918,226.9579 274.028464,225.601737 274.384575,224.328428 C274.902769,225.279785 275.722228,225.640802 276.732712,225.650335 C276.341569,224.29163 275.567362,223.681238 274.548871,223.541597 Z M317.997368,55.5473258 C317.458598,54.0151589 317.231998,53.2595503 316.381069,51.5576907 C316.000486,52.6518649 315.560438,53.6984664 315.025244,54.7093883 C315.9767,57.2545329 308.388839,65.6511313 316.000486,63.1297731 C314.737529,61.3752862 316.068711,59.7305211 317.186865,58.4024166 C317.761518,59.1096507 318.754122,59.3722782 319.426917,58.4486101 C318.187977,57.7438918 319.708234,56.11582 317.997368,55.5473258 Z M379.226078,286.139202 C379.410181,286.52317 379.555012,286.898402 379.557741,287.228562 C379.581527,288.358416 377.107742,288.465454 376.72716,289.547735 C376.227645,290.998706 380.25944,292.413996 380.116721,288.251377 C380.045362,286.146281 381.603371,285.468368 379.938323,283.351379 C379.640693,283.365063 379.39653,283.398537 379.198327,283.44915 C379.196009,283.440355 379.19371,283.431552 379.19143,283.422738 C379.181723,283.434779 379.172105,283.446733 379.162576,283.4586 C378.544636,283.627638 378.394972,283.971381 378.465772,284.402265 C377.655113,285.677092 379.136882,284.716401 378.144829,286.229533 C378.551755,286.298309 378.911727,286.270417 379.226078,286.139202 Z M291.540934,77.5312476 C286.902586,76.0089182 287.009625,84.2271186 288.377343,84.2509049 C289.114721,84.2509049 289.638022,80.5402269 290.101856,79.9693534 C292.432923,76.9960537 293.61035,80.1834309 296.571757,78.3637715 C293.979039,77.079306 291.624186,75.3310058 289.756954,73.1426572 C287.342634,76.1159569 292.528069,75.2001806 291.540934,77.5312476 Z M39.7857005,56.9274699 C40.9393408,54.6320826 44.1029317,54.8223737 45.7204067,55.6311113 C44.3170092,58.0454306 42.0929811,58.2951878 39.7857005,56.9274699 Z M326.668686,264.001144 C326.216744,266.581968 323.100726,268.580026 323.849998,263.656242 C324.78956,263.76328 325.729123,263.882212 326.668686,264.001144 Z M19.5422867,37.7520654 C20.2558787,39.5479385 17.6155885,40.7848311 16.390589,39.762016 C13.1675322,37.0146871 20.3153447,37.3714831 19.5422867,37.7520654 Z M1.12091105,46.6600714 C3.00003647,45.8156543 3.15464805,47.5996341 3.54712361,49.0506043 C2.32212413,48.8840996 1.39445462,48.2775464 1.12091105,46.6600714 Z M153.758225,68.0547468 C156.196331,68.8278047 161.429338,74.0964918 154.852399,74.6197925 C155.054584,71.1231921 151.986138,70.4452797 153.758225,68.0547468 Z M264.86211,50.6787833 C264.624246,49.6797546 264.219877,48.7758714 263.625217,47.9552407 C262.590509,48.5499007 262.114781,49.4299974 262.18614,50.5955309 C263.090023,50.4409193 263.97012,50.4765989 264.86211,50.6787833 Z M289.159915,22.1660284 C288.612828,22.6060767 288.600935,23.0461251 289.112342,23.5099598 C290.51574,22.2492807 291.895351,20.9410289 293.274962,19.632777 C292.22836,18.5742823 289.195595,22.142242 289.159915,22.1660284 Z M235.094623,123.74584 C234.464283,124.483218 233.845837,125.184917 233.22739,125.910402 C229.99244,123.1155 231.859672,121.010404 235.094623,123.74584 Z M56.0865188,122.549384 C57.2401591,124.547441 56.4789944,125.379965 53.7911314,125.094528 C52.6374912,123.108364 53.4105491,122.263947 56.0865188,122.549384 Z M52.0797001,332.294271 C50.8665938,334.280435 40.2221809,326.228739 40.8168408,325.241604 C44.0755773,328.000826 49.5702352,328.750097 52.0797001,332.294271 Z M75.5925542,367.602799 C78.1139124,365.78314 79.4221643,365.830713 79.5054167,367.757411 C76.9840585,369.565177 75.6758066,369.505711 75.5925542,367.602799 Z M138.770416,162.932741 C136.998329,162.028857 136.998329,161.136867 138.782309,160.232984 C140.554396,161.160654 140.554396,162.052644 138.770416,162.932741 Z M21.6676014,21.3870238 C22.0600769,20.8994027 22.4406593,20.3998883 22.8331349,19.900374 C20.8231842,18.2591125 17.8617777,22.0649362 19.9074079,23.6229452 C20.5020679,22.8855669 21.0848346,22.1244022 21.6676014,21.3870238 Z M374.159418,196.196828 C375.872039,192.973771 375.753107,201.453622 372.315972,199.515031 C372.922525,198.420857 373.540972,197.326682 374.159418,196.196828 Z M222.533026,195.151416 C222.295162,195.734183 222.069191,196.340736 221.84322,196.91161 C223.092006,197.530056 223.912637,197.161367 224.305113,195.841222 C223.722346,195.603358 223.127686,195.401173 222.533026,195.151416 Z M401.215256,295.639432 C399.823752,294.818801 400.216227,293.903025 402.416469,292.903996 C404.914041,295.116131 401.572052,295.009092 401.215256,295.639432 Z M109.251496,351.539845 C112.082078,350.267273 113.35465,350.588389 113.045427,352.479408 C110.214845,353.75198 108.954166,353.430864 109.251496,351.539845 Z M392.545114,224.396792 C389.857251,228.70213 387.074243,225.835869 390.190261,222.79121 L392.545114,224.396792 Z M324.183007,157.822233 C323.921357,155.015438 319.865776,153.433643 324.765774,152.743837 C323.33859,153.719079 326.01456,157.072961 324.183007,157.822233 Z M156.33667,403.50242 C158.263369,400.992955 164.400259,409.163583 161.462639,410.30533 C159.761912,408.057515 158.049291,405.762128 156.33667,403.50242 Z M357.713503,323.688352 C361.055491,321.178887 363.790927,328.683495 362.791898,328.945146 C361.091171,329.432767 358.343842,324.782526 357.713503,323.688352 Z M335.117614,204.67549 C340.873922,209.908497 332.810334,206.42379 333.845042,203.295879 C334.273197,203.759714 334.689459,204.223548 335.117614,204.67549 Z M350.326637,115.801183 C349.601152,113.37497 345.842901,114.076669 346.47324,111.507738 C349.577365,110.603855 356.21377,112.994388 350.326637,115.801183 Z M375.25716,174.372808 C376.957888,174.49174 375.649636,179.950719 373.449394,177.833729 C373.520753,175.823779 374.6625,175.562128 375.25716,174.372808 Z M296.750155,231.23776 C296.25064,227.812519 300.127823,227.836305 299.592629,231.261547 C298.653066,231.249653 297.701611,231.249653 296.750155,231.23776 Z M171.249553,91.3761204 C170.500281,90.5435965 170.048339,85.8219965 168.062175,86.571268 C168.78766,88.1887431 170.690572,94.7418956 172.403193,93.9807309 C172.02261,93.1125274 171.642028,92.2324307 171.249553,91.3761204 Z M130.181148,38.2396866 C126.815372,39.2981813 127.302993,35.8253672 130.56173,35.5637169 C131.037458,36.5389592 130.59741,37.3952695 130.181148,38.2396866 Z M391.785139,145.336753 C390.75043,148.26248 389.644363,148.964178 388.490723,147.441849 C388.324218,147.596461 393.973487,142.970006 391.785139,145.336753 Z M18.1591077,211.341628 C17.2314382,212.400122 15.7804679,210.794541 14.4722161,210.021483 C15.4117788,208.951095 16.8746422,210.580463 18.1591077,211.341628 Z M366.558475,107.856526 C366.130319,108.796089 365.714057,109.723758 366.879591,109.735651 C366.499009,113.731766 362.407748,107.047788 366.558475,107.856526 Z M147.370388,46.7647315 C148.524028,47.2999255 149.665775,47.8232262 150.819416,48.3584202 C150.783736,50.0353612 146.109709,47.870799 147.370388,46.7647315 Z M261.99347,116.161547 C261.303665,115.935576 260.613859,115.864217 259.888374,115.888003 C261.089587,117.053537 258.401724,119.777079 261.113374,119.491642 C261.327451,117.909847 262.492985,117.600624 261.99347,116.161547 Z M104.187372,99.9356556 C104.591741,99.4480344 104.99611,98.9604133 105.412372,98.4727921 C107.565041,100.316238 106.375721,101.767208 104.187372,99.9356556 Z M260.710194,179.215719 C262.803397,177.574458 262.232524,175.183925 264.123542,173.447518 C260.733981,170.426645 256.856798,177.503098 260.710194,179.215719 Z M318.881019,167.961185 C318.405291,171.874047 324.244852,172.242737 324.244852,168.294195 C322.556017,166.569681 320.760144,166.462642 318.881019,167.961185 Z M127.544425,121.933316 C124.226223,121.065113 123.631563,123.836228 123.358019,126.3338 C127.342241,127.963168 128.733745,126.488411 127.544425,121.933316 Z M2.28287658,268.217283 C4.01928361,271.012185 5.48214706,269.311458 6.93311732,267.277721 C5.25617629,265.410488 3.79331283,267.111216 2.28287658,268.217283 Z M383.864268,72.0722693 C383.72155,69.4676588 389.525431,70.8710563 389.739508,74.5341615 C387.432228,74.7125595 389.798974,73.309162 388.550189,72.0841625 C387.51548,71.0494542 385.101161,72.2863469 383.864268,72.0722693 Z M367.487333,160.028421 C366.964033,160.789586 363.97884,162.430848 363.003597,161.562644 C363.776655,160.397111 366.28612,159.861917 367.487333,160.028421 Z M173.642464,71.9450121 C172.357999,70.0302071 172.167707,68.0083633 173.083484,65.8794807 C174.29659,67.1639462 174.784211,70.8508378 173.642464,71.9450121 Z M23.85595,17.5550352 L23.1780376,20.4807621 C23.6894452,19.5411994 22.5120185,17.7928991 23.85595,17.5550352 Z M13.3340369,289.227808 C13.8335513,289.108876 14.3449588,288.989944 14.8563664,288.859119 C16.2716571,289.763002 13.3459301,293.973195 14.475784,295.483631 C15.6056379,294.508389 15.2726284,291.868098 15.4034535,290.607419 C15.7602495,287.075139 17.0922878,289.97708 18.840588,288.656935 C18.4481124,287.919556 17.8415593,287.443829 17.0090354,287.217858 C13.6313669,286.171256 17.8058797,285.826353 16.7592782,284.304024 C15.2964147,285.374412 12.0019987,286.825382 13.3340369,289.227808 Z M311.209906,220.052207 C311.257479,223.632059 312.827381,226.56968 312.411119,230.304144 C311.840245,235.489579 306.39316,231.303173 305.727141,234.347832 C309.295101,234.312152 313.897769,232.920648 313.659905,237.963364 C313.469614,241.745401 310.579566,240.924771 310.615246,243.767245 C315.931506,243.481808 314.302137,236.845403 314.254565,233.265551 C316.752136,232.968221 315.182234,236.916763 318.084175,236.072345 C318.072282,233.277444 318.440971,231.184241 318.952378,228.484485 C319.820582,223.965069 317.501408,225.653903 316.871068,223.334729 C314.896797,216.186917 316.193156,223.89371 312.197041,222.859002 C311.947284,219.980847 314.611361,218.030363 313.029565,215.259247 C316.514272,213.677452 313.469614,218.494198 315.907719,218.054149 C320.248737,218.006576 318.976165,214.795413 318.702621,211.81022 C318.488543,209.46726 315.336846,204.959737 312.327866,207.112406 C309.40214,209.253182 314.337817,217.185946 311.209906,220.052207 Z M358.904012,201.922214 C357.56008,203.242359 356.07343,207.619057 356.608624,209.617114 C355.454984,210.23556 352.434112,200.292846 352.101102,200.839933 C351.304258,202.148185 354.194305,210.437745 355.918819,210.675609 C357.131925,210.842113 359.570031,203.147214 358.904012,201.922214 Z M34.9190035,273.061383 C33.2063829,272.466723 31.8624514,271.432015 30.8753159,269.933472 C32.3262862,269.921579 35.3233723,271.776918 34.9190035,273.061383 Z M374.032161,148.135223 C373.354248,149.360222 372.02221,149.110465 371.284832,150.180853 C372.830948,151.61993 376.125364,149.324542 374.032161,148.135223 Z M61.8939678,346.568488 C62.5956665,343.226499 59.8245512,340.372131 65.8068302,341.549558 C65.2954227,340.110481 64.2607144,339.646646 62.7027053,340.18184 C59.991056,340.586209 60.4667839,343.963877 60.0267356,346.199799 C60.6570751,346.306838 61.2636283,346.449556 61.8939678,346.568488 Z M221.09276,305.546466 C221.746885,307.960786 221.009507,309.066853 218.868731,308.888455 C218.571401,307.449378 219.356353,305.891369 221.09276,305.546466 Z M262.708252,98.6000494 C263.041261,97.1015063 262.58932,94.8180121 260.888592,94.7823325 C261.174029,96.5068464 260.829126,98.0767486 259.841991,99.4920393 C261.06699,99.9083012 262.030339,99.6109713 262.708252,98.6000494 Z M265.599488,119.749725 C265.349731,117.715988 263.185169,115.480066 263.161382,113.291718 C267.216963,112.911136 271.022787,130.691468 268.43007,130.929332 C268.239778,128.229576 268.977157,120.915258 265.599488,119.749725 Z M52.6374912,319.367553 C57.8704986,325.016822 68.5624844,328.025802 75.4367533,331.474829 C79.7777709,333.639391 84.1544681,335.887206 88.0078645,338.860506 C91.5401446,341.584048 92.8602896,338.372885 94.9297062,342.666329 C96.0476669,341.334291 97.3915984,340.28769 98.9615006,339.514632 C97.24888,333.520459 85.1891764,337.040846 82.774857,331.36779 C77.9105387,330.428228 72.1542304,328.572889 68.300834,325.682841 C62.7704966,326.325074 58.0488966,319.367553 52.6374912,319.367553 Z M33.7748778,334.9191 C31.8362864,331.279781 38.1634682,327.152841 40.9107971,332.171771 C36.6054591,333.182693 40.1734188,331.410606 37.5688082,333.955751 C37.4141966,332.516673 36.6411387,331.803082 35.285314,331.767402 C34.5717221,332.017159 35.1663821,337.476137 33.7748778,334.9191 Z M52.5209378,325.372429 C53.3653549,325.158351 56.6716642,322.458595 54.2454516,321.863935 C53.0561317,321.923401 48.5605026,325.515147 51.1056471,325.812477 C51.5813751,325.681652 52.057103,325.527041 52.5209378,325.372429 Z M335.780065,60.690478 C335.185405,60.3217889 334.578852,59.9412065 333.984192,59.5606242 C332.473756,61.9154775 337.266715,62.0106231 337.766229,63.9135349 C337.159676,61.4992156 343.915013,61.3089244 341.120112,58.5021295 C340.787102,60.2028569 337.254822,63.0334382 335.780065,60.690478 Z M47.5269836,320.854203 C47.2772264,319.02265 49.2633906,316.584544 51.1187297,316.441826 C50.3932445,315.859059 48.0621776,313.076051 46.8371781,314.182118 C49.703439,315.442797 44.9818391,318.784786 47.5269836,320.854203 Z M307.806072,463.316885 C306.747578,461.794556 306.56918,458.773683 308.198548,457.263247 C308.210441,459.285091 308.079616,461.306934 307.806072,463.316885 Z M24.4541779,303.723239 C20.5294222,302.022512 24.9180126,298.311834 25.9884005,296.052126 C22.9556348,294.613049 19.8634031,296.408922 22.1587905,297.47931 C23.2291784,297.764746 23.8119451,297.312805 23.8714111,296.099699 C25.7862161,298.537804 21.3262666,299.917415 21.0289366,302.093871 C22.0041789,302.973968 23.0032076,303.794598 24.0379159,304.579549 C25.0726242,304.187074 27.9626715,301.451638 26.0716529,300.286105 C25.5245658,301.451638 24.9893718,302.581492 24.4541779,303.723239 Z M150.140314,389.53029 C152.388128,390.243882 152.043226,392.872279 149.676479,393.240968 C148.403907,393.39558 150.092741,389.696795 150.140314,389.53029 Z M254.385391,206.416654 C254.135634,205.833887 253.885877,205.239227 253.648013,204.668354 C252.387334,205.179761 251.412091,205.596023 250.151412,206.131217 C250.246558,209.187769 253.26743,205.857674 253.362576,208.890439 C253.850197,208.117382 254.1951,207.308644 254.385391,206.416654 Z M338.14919,131.66671 C339.433656,132.844137 340.063996,134.295107 340.052102,136.007728 C338.838996,135.317922 338.089725,132.903603 338.14919,131.66671 Z M73.4791328,284.257641 C68.3174845,278.691623 82.4941775,279.90473 78.1174803,285.209096 C78.5218491,285.661038 74.2878703,279.690652 73.8953948,281.474632 C74.1570451,282.473661 74.0143267,283.40133 73.4791328,284.257641 Z M31.0394421,149.92396 C27.745026,151.826871 23.0115328,150.22129 20.9064366,147.259883 C24.3078915,148.758426 27.38823,149.281727 31.0394421,149.92396 Z M250.245369,148.797674 C249.971825,147.620247 248.235418,147.382383 247.034205,147.620247 C247.307748,149.047431 248.140272,149.820489 249.54367,149.927528 C249.329592,149.285295 249.555563,148.904712 250.245369,148.797674 Z M119.942293,116.568294 C115.969964,115.331401 117.183071,110.312472 113.008558,109.82485 C111.783558,107.77922 115.684528,102.522426 108.227492,106.197425 C109.404919,107.707861 111.165112,104.924852 112.187927,106.934803 C109.952006,107.624609 109.012443,109.028006 109.345453,111.192568 C111.212685,109.396695 115.80346,114.796208 113.09181,116.651547 C113.68647,117.828973 118.74108,116.936983 119.942293,116.568294 Z M42.3058693,39.3897589 C42.4842673,39.3421861 46.2306249,38.9972834 47.0512557,39.1162153 C46.7896053,36.3569932 47.2296536,34.549227 42.9243157,33.6572371 C41.9609666,33.6929167 43.1978592,35.4650033 43.4595096,35.5125761 C39.5109676,34.7395182 41.092763,39.4492249 42.3058693,39.3897589 Z M46.5041685,189.901758 C45.7311106,189.081127 45.0175187,188.177244 44.3514995,187.249575 C43.4951892,188.86705 44.7558683,190.805641 42.9481021,191.780884 C44.6012567,192.244718 45.9808678,191.780884 46.5041685,189.901758 Z M208.9391,440.668666 C205.383033,437.433716 205.275994,438.397065 205.942014,434.079834 C206.608033,434.674494 208.86774,440.751919 208.9391,440.668666 Z M152.080095,62.5137054 C152.781793,62.6921034 153.483492,62.7396762 154.197084,62.668317 C153.66189,61.3600651 149.427911,59.9328813 148.000727,60.0874929 C149.368445,60.872444 150.72427,61.7049679 152.080095,62.5137054 Z M269.821574,170.122179 C270.868175,167.921937 271.33201,172.191596 270.844389,173.357129 C270.190263,172.441353 269.952399,171.323392 269.821574,170.122179 Z M120.977001,92.5261927 C119.216808,91.8601736 117.825303,90.7541061 116.778702,89.1723106 C118.538895,89.8264366 119.942293,90.9562905 120.977001,92.5261927 Z M155.204438,147.091 C157.238175,143.630079 159.949824,147.186145 157.559291,150.218911 C156.429437,149.410173 155.644486,148.375465 155.204438,147.091 Z M291.21506,60.3539005 C287.789819,61.400502 288.134721,60.1041433 285.208994,60.2349685 C287.218945,64.1835105 294.295398,61.3767156 297.209232,60.4490461 C295.318214,57.5946784 291.369671,58.3320567 288.550983,58.2012315 C289.3954,58.9742895 290.28739,59.6878814 291.21506,60.3539005 Z M210.738541,289.669046 C211.249948,288.812736 211.761356,287.932639 212.272763,287.076329 C211.095337,287.730455 204.232961,290.132881 205.291456,292.345016 C207.527377,292.178511 208.490726,289.811764 210.738541,289.669046 Z M3.50787606,247.985763 C2.94889571,248.818287 3.17486649,249.210762 4.17389519,249.151296 C5.32753548,247.854938 3.51976926,243.787464 5.68433144,243.668532 C5.35132188,244.477269 5.48214706,245.167075 6.08870021,245.749841 C6.82607853,243.026299 3.34137127,242.645716 4.60205035,240.421688 C2.55642015,240.849843 3.95981761,246.296928 3.50787606,247.985763 Z M222.045405,175.093536 C221.831327,173.404702 222.533026,171.263926 223.983996,170.074606 C224.281326,170.740626 224.685695,178.066836 222.045405,175.093536 Z M154.042472,82.8736725 C154.982035,84.0154196 156.742229,91.8887172 157.051452,91.1751253 C158.216985,88.641874 157.776937,86.0967294 159.394412,83.1591093 C158.431063,82.3503718 154.970142,82.064935 154.042472,82.8736725 Z M51.4874188,115.78929 C50.9641181,115.337348 50.9760113,114.885407 51.5112052,114.445358 C50.7262541,113.648514 48.7519831,114.481038 48.1454299,115.051911 C49.2633906,115.78929 51.1544093,120.082734 52.7956707,117.168901 C51.8204284,117.133221 51.3922732,116.669386 51.4874188,115.78929 Z M378.504003,90.5519217 C379.003518,90.0880869 378.991625,89.6480386 378.444537,89.2317766 C376.505946,91.3249796 374.650607,93.4538622 372.712016,95.5470652 C375.138228,97.7116274 377.243324,91.9553192 378.504003,90.5519217 Z M301.947483,65.7890924 C299.759134,65.5393352 299.426124,64.7305977 300.97224,63.3985594 C302.994084,64.3262289 303.3152,65.1111801 301.947483,65.7890924 Z M92.7936877,71.7713714 C93.6737844,71.6048666 97.3487829,72.5087497 96.8373753,73.6504968 C96.456793,74.5543799 90.4864071,75.1252535 89.6300968,75.3155447 C90.0106792,76.8854469 91.5092222,74.8873895 91.8660182,76.7903013 C86.7876223,77.7536504 90.7956303,74.138118 94.1019396,73.4483124 C93.5667456,72.9725845 93.1385905,72.4254973 92.7936877,71.7713714 Z M328.608466,118.298755 C330.202155,118.286861 331.676912,120.998511 331.355795,117.085648 C331.201184,115.45628 331.332009,111.912107 328.941476,111.602884 C327.193176,111.983466 328.537107,117.513803 328.608466,118.298755 Z M389.218586,127.879916 C388.30281,129.961225 386.399898,127.249576 385.317617,128.819478 C385.936063,129.128701 386.043102,129.580643 385.62684,130.115837 C388.195771,130.579672 390.633877,130.222876 392.964944,129.045449 C391.192857,127.986954 390.859848,128.427003 389.218586,127.879916 Z M262.173058,17.8452292 C261.899514,19.1891607 262.113592,20.4974126 262.81529,21.6986256 C265.360435,20.8185289 266.585434,18.9631899 265.657765,16.3228998 L262.173058,17.8452292 Z M162.974265,233.107371 C163.557032,234.915137 166.173535,232.893293 166.447079,235.164894 C165.7097,235.093535 159.763101,233.951788 162.974265,233.107371 Z M64.0073892,350.518219 C60.6059344,351.909724 57.2639455,355.703654 59.2976825,359.580837 C63.6743797,354.002927 68.8717076,344.512154 76.6260732,343.358514 C76.0670929,344.86895 75.7221901,346.415066 75.6151513,348.020647 C81.0860228,344.559727 75.5556853,340.123563 70.7627262,344.595406 C68.4435524,346.748075 65.8270487,348.496375 64.0073892,350.518219 Z M40.9357728,207.288426 C43.1835874,207.1576 45.5384408,209.726531 44.3015481,209.678959 C42.7316458,209.595706 41.3996076,208.870221 40.9357728,207.288426 Z M85.9420159,46.7302412 C85.6327927,47.8957747 87.0124038,48.9423762 88.1779372,49.3110654 C88.7725972,47.2654352 87.2502677,45.0770866 85.7755111,43.7331551 C86.0371615,44.7321838 86.0847343,45.7312125 85.9420159,46.7302412 Z M184.426028,237.28783 C181.202971,239.357247 183.534038,234.136133 181.179184,234.921084 C179.097874,235.373025 181.310009,239.595111 181.131611,240.689285 C186.459765,239.844868 185.769959,238.310645 185.722386,233.244143 C184.164377,234.171812 182.047388,232.708949 179.954185,233.19657 C181.845203,234.599967 184.366562,234.124239 184.426028,237.28783 Z M318.405291,245.046953 C318.999951,247.603991 318.631262,249.863699 317.441942,251.814183 C317.91767,249.613942 316.573738,246.78336 318.405291,245.046953 Z M91.2784942,358.310643 C93.062474,356.942925 94.2874735,362.080787 95.8930553,361.390982 C95.1081042,358.917196 95.0010654,354.909188 90.909805,355.337343 C90.5649023,356.443411 90.6838342,357.44244 91.2784942,358.310643 Z M130.564109,173.722251 C131.575031,174.721279 132.026972,175.946279 131.896147,177.397249 C128.910954,178.527103 128.209255,175.232687 130.564109,173.722251 Z M139.687381,152.840172 C139.53277,153.791628 139.390051,154.719297 139.23544,155.65886 C140.555585,155.861044 147.084951,157.859102 146.966019,159.429004 C147.180097,156.610316 141.661652,153.185075 139.687381,152.840172 Z M260.808908,168.043248 C259.750413,167.103685 261.593859,160.931115 262.533422,160.134271 C266.374925,162.976745 263.2708,153.652477 262.878324,155.912185 C264.531479,146.480879 267.36206,171.052227 260.808908,168.043248 Z M240.10047,146.160952 C238.328383,142.43838 242.086634,142.783283 238.31649,138.727702 C237.079597,139.905129 233.142949,142.937895 235.426443,145.364107 C235.771346,144.032069 236.473044,142.937895 237.543432,142.057798 C239.719888,144.567263 238.257024,147.005369 235.997316,148.741776 C235.688093,148.08765 235.485909,147.409737 235.390763,146.708039 C232.429357,151.703182 239.1728,147.041048 240.10047,146.160952 Z M221.580381,336.556793 C224.32771,335.771842 223.768729,333.940289 221.05708,334.725241 C221.223585,335.3199 221.401983,335.926454 221.580381,336.556793 Z M7.46831127,229.588173 C5.04209871,230.218513 5.89840902,232.311716 6.1838458,234.155162 C9.34743669,233.822152 6.31467098,230.80128 7.46831127,229.588173 Z M230.443192,447.707062 C228.659213,447.100508 227.208242,446.053907 226.114068,444.531577 C227.898048,445.126237 229.337125,446.172839 230.443192,447.707062 Z M243.0036,229.146936 C240.303844,229.610771 241.433698,227.541354 240.62496,226.316354 C240.934183,226.803976 238.412825,227.921936 241.088795,229.218295 C244.775686,231.002275 240.791465,231.918051 242.420833,233.012225 C245.239521,231.228246 243.836124,226.994267 246.571559,225.483831 C244.537822,226.482859 242.908454,223.081404 241.112581,223.378734 C242.587338,223.128977 243.443648,227.410529 243.0036,229.146936 Z M357.179498,371.795152 C354.931683,369.238114 364.99333,372.330346 365.207407,372.354132 C363.827796,373.555345 358.939691,372.187628 357.179498,371.795152 Z M104.408586,284.501451 C99.3539762,282.836403 97.5581032,290.471837 92.8127168,288.10509 C93.4311632,289.234944 93.41927,290.364798 92.7889304,291.530332 C95.4886866,292.660186 92.4678141,288.307275 95.0843178,289.365769 C95.4411138,290.031789 95.5362594,290.709701 95.3816478,291.470866 C95.4411138,293.290525 97.5818896,292.541254 98.5690251,293.147807 C98.3430543,289.912857 100.995238,288.057518 102.56514,285.548053 C105.550333,284.108976 103.564169,289.900963 106.489896,288.200236 C104.372906,286.832518 106.073634,285.643198 104.408586,284.501451 Z M335.699192,336.917157 C336.69822,337.809147 337.697249,338.71303 338.696278,339.616913 C336.43657,340.140214 335.794337,338.629778 335.699192,336.917157 Z M344.856955,284.977179 C346.522002,285.238829 347.556711,283.371597 349.388263,283.621354 C348.662778,284.727422 344.048217,287.153634 344.856955,284.977179 Z M357.853842,67.1021015 C357.996561,65.0088985 355.962824,62.5945792 356.093649,60.489483 C356.652629,61.0603565 362.075928,68.505499 357.853842,67.1021015 Z M107.410429,261.609422 C108.373778,264.047528 103.390528,269.221069 103.402421,271.944612 C100.559947,270.172525 106.530332,262.608451 107.410429,261.609422 Z M256.075415,109.506113 C254.660124,108.780628 253.256726,108.067036 251.841436,107.365337 C251.282455,109.72019 249.40333,110.041307 248.428088,112.015578 C252.162552,114.988877 252.888037,109.791549 256.075415,109.506113 Z M18.636025,465.431496 C19.3020441,464.230283 20.1821408,463.814021 21.2882083,464.18271 C21.4784995,464.931981 22.0374799,467.619844 21.6568975,468.107466 C23.7025277,467.964747 22.7986446,465.467175 25.3318959,465.990476 C25.2129639,464.075671 22.3229166,461.768391 21.6806839,458.973489 C21.3119947,457.344121 17.1255887,453.609656 16.186026,456.083441 C19.6588401,455.215238 16.7093268,456.999218 17.2207343,458.331256 C18.219763,459.1281 19.1831121,458.925916 20.0869952,457.736596 C20.1226748,459.734654 18.219763,464.14703 18.636025,465.431496 Z M83.2410704,378.996484 C79.2330624,377.628766 79.2568488,378.140174 77.8296649,376.37998 C79.3401012,378.259106 81.3857314,375.404738 83.2410704,378.996484 Z M293.241661,231.074823 C292.75404,229.564387 290.458652,225.437447 287.354528,225.568272 C287.4021,227.150068 287.461566,228.731863 287.521032,230.301765 C289.875886,228.945941 293.265447,232.383075 293.241661,231.074823 Z M238.636417,122.990622 C236.745399,121.31368 235.770156,120.528729 237.637388,118.340381 C238.458019,119.089652 239.24297,122.253243 238.636417,122.990622 Z M158.369218,160.075994 C159.094703,161.229634 153.564366,165.439827 151.923104,164.084002 C153.754657,162.930362 156.834996,161.467498 158.369218,160.075994 Z M375.565194,113.698465 C376.017136,111.81934 377.313494,112.021524 379.430484,114.328805 C378.954756,116.196037 377.67029,115.958173 375.565194,113.698465 Z M286.279382,179.77351 C287.754139,180.154092 292.047584,180.189772 291.536176,182.140257 C289.954381,181.700208 285.815548,181.628849 286.279382,179.77351 Z M269.914341,46.1843434 C269.628904,44.9474507 269.343467,43.7105581 269.069924,42.4736654 C271.293952,41.974151 272.138369,45.6848291 269.914341,46.1843434 Z M331.104849,188.264065 C330.272325,187.812123 329.439801,187.372075 328.607277,186.920133 C328.02451,187.990521 337.669895,193.996587 339.370622,194.912363 C339.81067,194.091732 333.019654,188.918191 331.104849,188.264065 Z M203.647815,274.872717 C201.483253,272.636796 200.186895,272.446505 199.770633,274.313737 C202.042234,275.610096 202.077913,277.501114 205.408009,275.586309 C204.825242,275.336552 204.230582,275.122475 203.647815,274.872717 Z M40.5111856,107.159585 C40.0949237,106.683857 39.6905549,106.196235 39.2742929,105.720507 C37.9541479,106.850361 42.568709,111.797932 43.6034173,110.763224 C42.568709,109.550118 41.5458939,108.348904 40.5111856,107.159585 Z M166.720622,458.218271 C166.67305,457.671184 166.566011,449.750313 168.12402,450.713662 C168.825719,452.557108 168.528389,457.076524 166.720622,458.218271 Z M78.2816065,130.0754 C77.3301506,130.146759 76.3905879,130.218118 75.439132,130.289478 C75.1061224,131.978312 80.7434987,131.550157 80.1726251,129.944575 C79.5303924,129.980254 78.911946,130.027827 78.2816065,130.0754 Z M170.546664,232.329556 C171.414868,234.006497 172.770693,235.838049 169.440597,236.444603 C169.071908,234.850914 169.440597,233.495089 170.546664,232.329556 Z M386.052617,106.997837 C384.839511,107.34274 383.626404,107.711429 382.413298,108.044439 C382.2349,106.855119 385.481743,104.868954 386.052617,106.997837 Z M51.8299429,82.3753475 C59.4415902,86.0146663 58.1333383,74.2641859 60.7974149,69.9707411 C64.4367337,64.1073941 58.6090663,64.9042384 54.2204759,65.3918595 C49.8318855,65.8794807 44.0161113,60.9675896 40.5195109,65.9270535 C35.4054353,73.1819048 45.9309163,80.6270473 51.8299429,82.3753475 Z M117.764648,42.6306556 C118.894502,40.2520158 120.726055,39.4194919 118.383094,37.8495897 C117.978726,39.0389096 117.574357,40.2520158 117.169988,41.4294425 C116.979697,40.1568702 116.277998,39.2529871 115.076785,38.7415796 C114.731882,37.4571141 115.707125,46.4602656 117.764648,42.6306556 Z M108.537904,298.822052 C109.560719,299.2621 109.120671,300.558459 108.66873,301.807245 C105.124556,300.998507 108.549798,300.986614 108.537904,298.822052 Z M351.337559,102.397548 C353.050179,101.362839 354.310858,105.489779 355.09581,106.774245 C353.549694,107.2024 351.860859,103.265751 351.337559,102.397548 Z M38.9377154,220.517231 C39.092327,221.159463 39.2469386,221.754123 39.4015502,222.37257 C40.1627149,222.170385 41.7088307,220.755095 41.6850443,219.827425 C40.7811612,220.053396 39.8653849,220.29126 38.9377154,220.517231 Z M389.857251,154.639613 C388.81065,153.914128 385.135651,152.106362 385.777884,150.548353 C386.788806,151.749566 393.7939,150.774323 389.857251,154.639613 Z M170.01266,144.001147 C165.647856,142.383672 171.534989,139.755275 171.951251,138.637314 C174.175279,139.517411 170.464601,143.287555 170.01266,144.001147 Z M391.831522,190.42387 C390.416231,189.389161 392.580794,186.237464 394.828608,187.914405 C394.115016,188.830181 392.592687,190.98285 391.831522,190.42387 Z M279.321861,13.8610076 C275.337639,13.5636776 275.730115,19.5102771 275.00463,21.9127032 C273.494194,27.0029923 275.587397,23.9107606 275.920406,28.4896422 C279.440793,28.6323606 277.038367,21.4131889 276.919435,19.7124614 C276.681571,16.5845501 279.488366,15.7282398 279.321861,13.8610076 Z M292.487632,43.3157039 C291.559963,42.4475003 290.632293,41.5792968 289.72841,40.7110933 C291.096128,39.2244435 293.213117,42.5069663 292.487632,43.3157039 Z M46.9287557,274.222159 C47.7374932,275.185508 47.9158912,276.291576 47.0239013,277.635507 C46.2151638,276.672158 46.0248726,275.554198 46.9287557,274.222159 Z M240.268164,83.7680411 C239.744863,84.2318758 239.304815,84.1605166 238.948019,83.5539635 C237.140253,84.719497 240.62496,87.6452239 241.493164,86.6818748 C242.230542,85.8731373 240.672533,84.3270214 240.268164,83.7680411 Z M342.179796,55.893951 C342.762562,58.5937071 346.520813,57.1665232 348.078822,56.9167661 C347.626881,53.503418 344.689261,59.426231 343.761591,53.7293888 C343.357222,54.5500195 342.833922,55.2755046 342.179796,55.893951 Z M355.106513,292.178511 C353.322534,290.251813 357.128357,292.927782 357.758697,293.546229 C356.569377,293.807879 355.677387,293.344044 355.106513,292.178511 Z M18.0901272,195.812678 C18.8512919,194.100057 18.4112435,191.102971 16.5440113,189.949331 C17.5192536,186.654915 20.9207085,185.703459 16.2466813,183.598363 C14.7362451,186.940352 14.4983811,189.782826 13.6658572,191.76899 C15.6758078,193.005883 16.0682834,194.575785 18.0901272,195.812678 Z M167.637588,462.817371 C167.732734,456.252325 173.845838,458.535819 177.485157,460.652808 C175.213556,464.577564 172.311615,467.764941 167.637588,462.817371 Z M344.258727,221.991987 C343.354844,224.858248 340.536156,232.493682 337.574749,233.813827 C337.883972,231.661158 342.236883,221.325968 344.258727,221.991987 Z M5.25617629,321.783062 C3.69816724,321.854421 2.55642015,316.454908 4.28093398,316.157578 C4.60205035,318.048597 4.93505992,319.903936 5.25617629,321.783062 Z M127.782289,96.9861423 C127.306561,99.6740052 124.000252,94.4528909 123.536417,97.1407539 C126.474038,97.985171 129.780347,99.781044 132.955831,99.3409956 C131.231317,98.5441513 129.506803,97.7710934 127.782289,96.9861423 Z M56.098412,35.3365568 C54.5879758,37.7151965 49.5928322,33.5287905 47.8564252,32.4465094 C50.8059385,32.1491795 53.7316654,33.7904409 56.098412,35.3365568 Z M318.961893,100.830024 C317.629855,100.318617 315.489079,100.282937 315.524758,98.9627919 C316.86869,99.4860927 318.997572,99.5217723 318.961893,100.830024 Z M26.0918713,103.919877 C22.5714845,103.456042 19.193816,103.907984 15.6377496,103.37279 C15.7447883,102.587839 26.4248809,101.339053 26.0918713,103.919877 Z M149.072305,185.186105 C151.367692,185.05528 151.498517,188.861103 149.238809,188.968142 C149.191237,187.707463 149.131771,186.434891 149.072305,185.186105 Z M290.147051,314.559133 C290.729817,316.033889 291.300691,317.496753 291.871564,318.983403 C288.76744,320.517625 288.719867,315.10622 290.147051,314.559133 Z M347.934915,71.2718571 C347.185643,73.5672444 348.862584,76.9330197 351.360156,75.6128746 C350.242195,72.9012253 352.430544,72.9487981 352.632728,70.6653039 C351.074719,70.8793815 349.504817,71.0815659 347.934915,71.2718571 Z M303.434132,39.0531814 C304.230977,38.553667 305.027821,38.0422595 305.836559,37.5427451 C305.111073,34.6289114 303.802822,34.3434747 301.89991,36.6626484 C302.411317,37.4594927 302.922725,38.2801235 303.434132,39.0531814 Z M51.4636324,383.909564 C52.8432435,384.884807 52.2485835,383.493302 53.5568354,384.230681 C54.0325634,383.838205 49.6796526,377.249373 47.9432456,379.033353 C47.788634,381.138449 50.6430017,382.292089 51.4636324,383.909564 Z M254.896799,290.250623 C253.160392,289.275381 252.9701,288.514216 252.74413,286.528052 C252.70845,286.230722 255.182235,288.276352 254.896799,290.250623 Z M273.137398,63.6875642 C270.437642,60.868876 268.011429,58.4902363 265.442498,55.243393 C265.59711,55.1125678 275.052203,62.2484871 273.137398,63.6875642 Z M59.373799,269.97153 C59.8138473,268.330269 66.2361747,269.900171 65.8199127,271.577112 C63.6672438,271.065704 61.526468,270.506724 59.373799,269.97153 Z M75.7614377,111.22468 C73.5849823,108.88172 79.1509993,107.763759 79.2461449,109.452593 C77.7951747,109.987787 77.1291555,110.915457 75.7614377,111.22468 Z" id="uE009-m2" fill="#000"/></g></svg>