<svg width="216" height="502" viewBox="0 0 216 502" version="1.1" xmlns="http://www.w3.org/2000/svg" xmlns:xlink="http://www.w3.org/1999/xlink"><title>uE001-a1</title><desc>Created with Sketch.</desc><g id="Page-1" stroke="none" stroke-width="1" fill="none" fill-rule="evenodd"><path d="M114.376052,386.561031 C114.893481,379.862232 106.342474,381.876152 101.092451,380.012288 C98.1805329,382.453434 96.0138603,386.992765 95.5623319,391.330853 C93.4240853,387.99755 91.2226922,384.766084 87.2547906,383.904648 C85.8197568,385.942896 86.5835652,387.112573 89.5577885,387.402097 C91.802922,388.942365 93.0412173,391.154328 93.8628899,393.678977 C93.998447,394.095486 94.1768419,394.617588 94.3966194,395.177734 L89.9765625,395.177734 L87.8449288,431.110989 C82.3797397,432.011184 78.9200217,433.373286 78.9200217,435.349582 C81.8154476,435.067107 84.7201798,434.861368 87.6311472,434.71473 L83.6396484,502 L0.958007812,502 L44.4630632,60.8481279 C46.9110327,61.5267006 49.4358176,61.3805618 50.9021437,59.5231529 C48.715134,59.5947128 46.6631392,59.3192872 44.6513558,58.9387944 L50.4462891,0.176757812 L164.510742,0.176757812 L165.834616,13.2815333 C165.176969,13.4733836 164.349697,13.433264 163.276864,13.0371847 C163.971236,11.7401173 163.982808,10.4777928 163.311583,9.22704926 C163.045407,12.5623654 160.291068,12.1917747 157.918633,11.6358887 C158.416266,14.4037378 157.212689,15.8166148 155.395751,17.6579872 C157.218826,17.770255 164.540231,21.2306905 166.5483,20.3461561 L168.574078,40.3989413 C166.828986,40.5144164 164.948252,40.9327914 164.121683,40.9797218 C163.890226,43.5159518 165.568289,44.2687141 166.285806,46.3996105 C164.075391,47.0481442 162.987543,46.0637627 163.369447,43.7938948 C158.011216,42.6821227 161.344198,49.5148884 161.020158,51.3215179 C163.161136,48.0441066 166.077495,50.4761079 169.213738,49.0053262 C169.028572,47.7430017 168.357347,46.8628488 167.200062,46.3648676 C167.823652,46.0151104 168.476198,45.9217615 169.135146,45.9528492 L193.665613,288.775269 C192.961315,288.824269 192.296262,289.230192 191.651458,289.82045 C190.916464,289.629396 190.306781,289.669754 189.97428,290.342082 C190.254045,290.433777 190.549245,290.534181 190.857005,290.639107 C190.279132,291.292385 189.711613,292.040065 189.139877,292.749764 C190.823692,293.710439 192.296832,292.67332 193.760741,291.558425 C193.824332,291.575603 193.888058,291.592541 193.951904,291.609214 L194.524759,297.279791 C193.68921,297.508896 193.075755,298.141007 193.09895,299.262895 C193.81933,299.079397 194.320134,299.218541 194.745801,299.467844 L201.347537,364.817168 C199.148424,362.0301 197.828369,358.79868 193.89632,358.660474 C194.247189,360.662927 195.784938,363.569807 197.755384,365.725186 C197.347673,366.530311 197.175484,367.616044 197.169358,368.700962 C195.9751,368.38824 194.886444,367.836821 194.15208,366.801888 C189.81226,372.326005 196.941137,372.534462 200.401421,375.27915 C196.073173,381.034886 193.851186,387.902395 188.67812,393.090664 C190.350385,395.222575 194.66396,395.187775 195.178828,398.150869 C194.707747,397.824033 194.242025,397.513903 193.90905,397.22275 C194.045409,397.877732 194.272812,398.468401 194.592663,398.994759 C192.157836,401.521568 188.250921,400.19098 186.537142,397.282971 C184.535039,399.379125 183.5282,401.660574 187.127358,402.471241 C183.597638,406.072919 188.539246,408.736539 191.906946,409.801988 C195.633405,412.743551 198.283588,407.126786 202.299369,407.404729 C203.488635,407.490696 204.635554,407.826558 205.743161,408.328615 L212.106042,471.313566 C209.393336,471.77969 207.080346,472.603027 205.989952,474.038091 C208.303186,473.415036 210.409395,473.863546 212.447349,474.692099 L215.206055,502 L131.920898,502 L130.30584,474.774728 C132.785404,476.040854 135.283633,477.386459 135.258986,476.887007 C135.168014,475.00126 132.720068,473.65953 130.180931,472.669112 L129.530134,461.698537 C132.095921,462.533927 133.92312,463.974675 136.829423,464.335564 C137.022234,462.629515 130.772541,460.736466 129.433509,460.069726 L127.930062,434.725896 C134.89175,434.765719 141.618791,434.060117 148.357142,433.716667 C150.66014,433.589277 154.814794,433.716667 156.446566,435.766497 C161.365029,435.789659 166.283492,435.824402 171.213527,435.859145 C171.201954,437.86265 170.681176,437.897393 170.264553,439.541889 C178.157239,435.534878 168.922102,434.95583 171.236673,431.226761 C164.790594,429.964437 159.490227,430.948818 153.680654,433.901963 C153.831101,432.234305 154.75693,431.620514 156.458139,432.072171 C153.333305,431.268332 141.314215,430.267416 127.639476,429.827451 L125.583984,395.177734 L119.059084,395.177734 C119.24197,394.760688 119.502654,394.292397 119.854361,393.76236 C117.104118,392.106583 116.230709,393.342482 115.614246,395.177734 L110.720517,395.177734 C111.689182,388.231659 102.549351,392.55185 98.6158608,387.968406 C103.293496,385.633432 111.921899,392.886557 113.900278,388.737265 C113.919222,388.89169 113.943473,389.05386 113.973037,389.223782 C115.350207,389.478563 117.410175,388.945839 119.585871,389.351173 C119.840474,387.880391 116.449628,388.274143 116.310754,386.838105 C115.430076,386.400004 114.784519,386.306989 114.376052,386.561031 Z M195.519832,400.117573 C195.873861,400.440468 196.281845,400.72627 196.744399,400.974981 C197.538505,400.069949 196.660165,399.221016 195.608286,398.454913 C195.380574,396.319934 193.940429,393.869378 191.258866,392.777978 C195.637203,387.107928 198.336132,380.472897 202.333036,374.572441 L205.212584,403.076537 C204.645598,402.628292 204.059193,402.206004 203.445081,401.822707 C199.174698,399.147506 200.991636,403.455622 199.973225,405.574938 C196.524515,403.768308 191.397741,407.010977 190.29832,401.440535 C193.31203,403.08081 195.063302,402.017621 195.519832,400.117573 Z M199.407655,367.256171 C200.159545,367.829549 200.939855,368.256729 201.716214,368.466632 L201.794962,369.246143 C200.891183,369.15606 199.827789,369.123555 198.762719,368.993149 C198.640381,368.150225 198.703427,367.45603 199.407655,367.256171 Z M168.136521,204.641531 C168.605432,205.441251 168.822367,205.951017 168.96872,206.68606 C168.689511,205.991072 168.411776,205.308363 168.136521,204.641531 Z M169.401406,207.76978 C170.378114,205.426646 171.243966,202.691776 167.81578,203.869072 C165.097682,197.362543 162.66399,192.567018 161.506218,193.029603 C167.697694,208.571249 174.132201,224.193963 180.555134,240.1062 C182.429937,239.226047 179.409422,235.717017 179.339985,234.628406 C178.205519,231.829402 173.691713,218.580189 169.401404,207.769775 Z M31.6314124,286.251382 C30.20181,287.07051 28.4397708,288.388253 28.2864736,288.929206 C29.6867889,288.813396 30.8440742,288.199605 31.7236111,287.076252 C31.9788585,287.150751 32.1758546,287.187302 32.3296889,287.189931 C33.6438339,287.404364 33.9984514,286.208 33.4016748,283.5927 C31.8096462,283.005752 31.2224184,283.889118 31.6314124,286.251382 Z M104.29488,395.177734 L100.326941,395.177734 C99.7349041,394.530516 99.2427652,393.809954 99.0093378,392.925056 C100.66384,393.968123 102.470775,394.598279 104.29488,395.177734 Z M106.573242,99.7568359 L92.9941406,328.489258 L121.962891,328.489258 L108.987305,99.7568359 L106.573242,99.7568359 Z M158.793541,428.666211 C160.240148,428.886249 161.270132,429.627431 161.860347,430.912917 C158.82826,431.005565 157.809848,430.264383 158.793541,428.666211 Z M144.818163,48.5189259 C146.218479,48.3567925 150.52358,50.4182031 147.514638,51.6457848 C146.056459,51.1130607 145.165349,50.0591934 144.818163,48.5189259 Z M142.665613,221.515287 C144.910746,221.156277 145.419952,222.661802 145.396806,224.317879 C143.151672,224.676889 142.65404,223.182945 142.665613,221.515287 Z M38.5886277,349.674808 C38.8085119,348.458807 39.0283961,347.242807 39.2251346,346.038387 C40.8916255,345.621473 40.0236615,350.624447 38.5886277,349.674808 Z M171.479703,290.92113 C172.150928,288.083796 174.396062,288.906044 176.791643,290.040978 C176.074126,292.774084 173.296641,290.712673 171.479703,290.92113 Z M90.3053948,246.566059 C90.8030275,245.072115 92.9671511,244.689943 94.471622,243.867695 C95.7214902,246.890325 91.9371671,247.747316 90.3053948,246.566059 Z M180.910421,381.092791 C180.991431,382.065591 181.072441,383.038392 181.153451,383.999612 C177.508002,383.026811 181.384908,379.158771 180.910421,381.092791 Z M24.8065166,302.107178 C26.8201931,299.872053 28.8685882,301.701845 26.8780574,303.960132 C26.195259,303.346341 25.5008878,302.720969 24.8065166,302.107178 Z M118.130006,372.774188 C115.410386,373.330074 108.362518,373.492208 107.066358,374.870342 C103.374618,378.784706 120.340421,378.854192 119.229427,373.480627 C118.581347,373.689084 118.211016,373.445884 118.130006,372.774188 Z M84.7284368,132.724077 C87.4249116,134.044306 86.4759376,138.827242 90.5032906,137.680727 C89.6121809,134.264344 96.0119688,131.762857 92.9914541,128.601255 C91.3018175,131.230133 90.9199133,129.86358 89.3807238,128.462284 C87.1124446,126.389292 85.8047121,131.415428 84.7284368,132.724077 Z M190.793638,461.775014 C188.849398,463.570063 186.928305,465.017682 185.458552,462.493033 C187.414365,460.709566 189.323885,459.261946 190.793638,461.775014 Z M73.2516381,355.696907 C73.9344364,358.233137 77.3137096,359.808147 74.6056619,363.525635 C72.8581611,361.371576 70.8213389,359.321747 73.2516381,355.696907 Z M55.3206591,239.338382 C53.4921483,240.114307 51.2585876,230.861121 56.7904115,238.215029 C55.6909904,237.960248 55.2049306,238.34242 55.3206591,239.338382 Z M168.541355,271.095687 C169.004269,269.902848 168.448773,268.906886 169.860661,267.528752 C171.307267,268.038314 170.474022,272.114812 168.541355,271.095687 Z M102.307601,361.544133 C102.145581,360.119675 99.784719,361.405161 99.391242,361.544133 C99.9698846,362.331638 100.756839,362.72539 101.728958,362.71381 C101.462783,362.088438 101.647948,361.706266 102.307601,361.544133 Z M123.706964,207.955142 C121.114645,206.970761 121.762725,205.256779 124.366617,206.229579 C124.146733,206.808627 123.926848,207.376094 123.706964,207.955142 Z M137.545782,56.1415129 C140.508433,52.759873 137.846676,63.5070027 138.112852,56.8711133 C138.124425,56.7784657 137.499491,56.1994177 137.545782,56.1415129 Z M137.641837,144.25987 C136.484552,145.34848 133.359881,142.152135 134.169981,141.85103 C135.500859,142.360592 136.669717,143.171259 137.641837,144.25987 Z M181.063183,339.920167 C181.45666,341.518339 176.515051,340.661348 177.429307,339.294795 C178.644456,339.503252 179.859606,339.711709 181.063183,339.920167 Z M178.503268,446.455722 C176.003531,446.837893 175.505899,445.552407 176.998797,442.610844 C179.510106,442.217091 180.007738,443.502577 178.503268,446.455722 Z M177.333252,429.915797 C174.706214,430.263225 180.099164,428.618729 180.874545,428.514501 C180.018154,429.707339 178.849296,430.170578 177.333252,429.915797 Z M135.381659,293.607913 C133.460565,294.256446 133.171244,290.735835 134.154936,290.122044 C134.571559,291.28014 134.976609,292.438236 135.381659,293.607913 Z M33.0348154,276.077816 C34.1110907,275.209244 35.2336575,277.004292 36.3446514,277.965512 C35.2683761,278.834084 34.1458093,277.039035 33.0348154,276.077816 Z M21.6702734,437.9055 C20.7212994,437.187481 20.6634351,436.469461 21.4966806,435.774604 C22.5150917,435.380851 23.1053072,435.774604 23.2673271,436.967442 C26.669746,435.566146 19.2746927,431.918144 18.4067287,432.335059 C19.9922096,433.771098 18.6613315,438.113957 21.6702734,437.9055 Z M178.040353,250.620552 C178.156082,249.057123 177.970916,247.389465 180.111894,246.497731 C181.431199,248.547561 180.320206,249.775142 178.040353,250.620552 Z M137.710117,447.473688 C133.891075,445.377535 135.245099,443.617229 138.265614,446.744088 C138.080448,446.987288 137.895282,447.230488 137.710117,447.473688 Z M197.585745,454.327299 C200.20121,454.987414 207.341661,454.686309 208.4758,451.55945 C205.605733,448.849506 202.735665,448.641049 198.962915,448.65263 C200.004472,451.397317 196.983957,451.80265 197.585745,454.327299 Z M32.5487555,219.965755 C35.3030946,221.459698 31.171586,222.177718 33.1158254,223.509528 C35.7428631,225.304577 37.166324,222.81467 39.376739,222.305108 C38.0690066,221.48286 36.772847,220.660612 35.4766874,219.838364 C36.691837,219.201411 37.9532781,219.050859 39.2610105,219.386707 C38.3004637,216.88522 34.1921007,219.317221 32.5487555,219.965755 Z M163.353245,263.625969 C160.112846,263.012178 158.26119,269.55542 163.746722,269.150086 C163.538411,266.914961 162.728311,265.861094 163.353245,263.625969 Z M118.604493,221.656575 C118.99797,219.375126 117.493499,218.633944 116.243631,217.695887 C115.132637,220.544803 117.354625,220.706936 118.604493,221.656575 Z M70.7368571,348.917413 C69.7068731,349.982862 66.8252326,349.206937 65.5406459,350.33029 C63.3418038,347.66667 69.1166576,347.353984 70.7368571,348.917413 Z M159.431205,387.041929 C158.135046,390.770998 155.091385,384.065623 154.512743,383.90349 C153.332311,386.219681 154.802064,388.107378 153.829944,390.411988 C156.445409,389.983493 157.718423,391.234236 160.090858,391.986999 C160.958822,388.246349 162.706323,388.848559 165.692119,388.640102 C163.609005,387.134577 163.551141,384.297242 161.456455,382.81488 C161.537465,385.582729 160.704219,385.791186 158.609533,385.351109 C158.285493,385.9649 158.563241,386.532367 159.431205,387.041929 Z M193.686851,450.346924 C192.136089,449.571 187.969862,450.810162 188.849398,453.184259 C190.145558,453.832793 192.934616,451.99142 193.686851,450.346924 Z M61.5595843,306.568164 C60.6337561,308.872774 61.4901472,314.188435 64.0477478,313.331444 C60.957796,311.686947 63.8973007,308.421117 61.5595843,306.568164 Z M145.044991,70.6408732 C146.271714,70.5250636 147.498436,70.409254 148.725159,70.2934444 C148.44741,68.4289101 147.405853,67.2939761 145.600488,66.8770616 C145.010273,68.0583194 144.813534,69.3206439 145.044991,70.6408732 Z M17.3987332,419.076019 C18.44029,418.346419 19.5512839,418.647524 20.5581222,416.956704 C19.6438668,414.142531 15.9868451,418.207447 17.3987332,419.076019 Z M29.4240851,431.691158 C29.5976779,432.594472 29.7596979,433.509368 29.9332907,434.412683 C31.6345001,433.89154 32.0742686,432.860834 31.2294503,431.35531 C30.6276619,431.471119 30.0258735,431.586929 29.4240851,431.691158 Z M102.782088,353.333233 C102.539058,352.765766 102.296028,352.198299 102.064571,351.642413 C100.779984,353.182681 98.9746192,357.305502 100.328643,359.390074 C103.013545,358.231979 101.647948,354.004929 102.782088,353.333233 Z M54.8855198,328.248876 C57.0149248,328.202553 58.8550085,328.932153 60.3826252,330.426097 C59.1096113,331.225183 55.3715796,329.835468 54.8855198,328.248876 Z M75.3081341,181.479913 C73.583779,180.11336 77.1945092,176.604329 77.449112,175.307262 C77.4375391,175.307262 68.6768892,184.270924 68.2486936,185.104753 C68.7810448,185.046848 71.211344,182.499037 71.4428011,182.811723 C74.7757829,187.073516 71.1419069,180.900865 75.3081341,181.479913 Z M11.1262467,416.751721 C11.496578,418.083531 9.7837957,425.761707 8.90425884,425.993326 C9.03156023,422.924372 8.96212311,419.253208 11.1262467,416.751721 Z M181.108317,417.040087 C180.703267,416.565267 180.30979,416.102029 179.90474,415.62721 C179.511263,416.901115 178.782173,417.943402 177.705898,418.742488 C179.071495,420.386984 178.863183,417.954982 180.205634,420.248012 C181.328201,419.286793 180.518101,418.441383 181.108317,417.040087 Z M140.393861,418.6012 C139.676345,419.527677 139.572189,420.500477 140.069822,421.508021 C140.636891,420.280439 147.187126,417.060932 144.84941,415.57857 C143.252356,415.231141 141.15767,418.126381 140.393861,418.6012 Z M83.6880372,344.62551 C82.6349076,348.354579 79.2556344,346.524787 81.9984007,351.238238 C81.3040295,353.021705 81.6512151,353.948182 83.0515303,354.029249 C84.7064483,354.469325 84.9957697,352.558467 84.0005043,351.527762 C80.4360655,347.845017 84.2782528,349.512675 86.1993464,347.451264 C88.4560528,345.042425 85.2387996,340.525851 84.729594,341.475489 C84.0815143,342.645166 87.1946118,346.165778 83.6880372,344.62551 Z M130.267615,286.49952 C130.53379,284.669729 131.58692,283.546376 133.415431,283.129461 C133.843626,285.630948 132.47803,285.549882 130.267615,286.49952 Z M75.5962982,367.136578 C76.4526893,368.781074 78.8714157,370.738256 79.3343298,372.486981 C78.373783,372.950219 73.084989,368.445226 75.5962982,367.136578 Z M162.465607,419.725711 C161.493488,421.775541 158.172079,424.971885 160.544514,425.967848 C158.646566,429.998021 158.78544,417.884339 162.465607,419.725711 Z M144.965138,383.303596 C149.050356,386.187255 145.115586,390.310076 144.050883,389.429923 C145.694228,387.785427 144.12032,385.063902 144.965138,383.303596 Z M171.863922,473.706876 C172.014369,475.154496 171.632464,476.393658 171.782912,477.841278 C169.757662,478.848821 170.521471,469.387178 171.863922,473.706876 Z M189.256763,441.033517 C192.057393,441.392527 191.814363,441.519917 194.661285,442.562204 C194.406683,440.547117 191.513469,438.427801 189.56923,438.277249 C190.194164,439.273211 190.078435,440.188107 189.256763,441.033517 Z M176.096114,347.864704 C178.364393,347.401466 178.075072,351.037887 178.260238,351.941202 C176.36229,353.562536 176.234988,348.026838 176.096114,347.864704 Z M146.480025,483.319071 C153.562611,478.026573 141.862457,471.599141 140.207538,466.735139 C139.455303,469.387178 141.330105,471.506494 142.626265,473.52158 C141.399542,475.942001 141.260668,478.512974 142.556828,480.921813 L146.480025,483.319071 Z M127.650993,261.517076 C128.553675,263.12683 129.502649,264.713421 130.44005,266.311593 C132.094968,264.863973 128.310645,261.528657 127.986605,260.254752 C127.373244,260.544276 127.269088,260.972771 127.650993,261.517076 Z M76.6644725,40.2744414 C74.812816,40.679775 74.257319,27.9175585 74.6045046,25.6129477 C75.5650515,30.3727217 75.5071872,36.1168772 76.6644725,40.2744414 Z M166.274233,365.875411 C168.739251,366.454459 180.879174,368.214765 180.450979,370.137204 C178.205845,369.627642 165.869184,367.519907 166.274233,365.875411 Z M83.52486,441.69479 C82.8420617,438.984845 83.8257542,438.452121 83.0966644,436.089606 C85.4922451,435.53372 85.3880894,441.208389 83.52486,441.69479 Z M145.485917,119.605167 C146.816795,120.045243 149.258667,119.88311 148.726316,121.597091 C147.221845,121.145434 144.872556,121.597091 145.485917,119.605167 Z M180.265813,453.077714 C181.376807,454.930667 182.487801,456.77204 183.598795,458.624993 C181.909158,459.586213 178.981226,453.842057 180.265813,453.077714 Z M129.702859,234.916772 C131.103175,232.936428 134.332001,236.063287 133.498755,237.54565 C132.225742,236.665497 130.9643,235.796925 129.702859,234.916772 Z M185.414576,455.323262 C184.604476,453.991452 184.01426,452.566994 183.643929,451.061469 C183.354608,452.173241 181.989011,455.821243 184.060552,456.886691 C184.511893,456.365548 184.963234,455.844405 185.414576,455.323262 Z M89.1527386,391.989315 C88.1227547,392.081963 87.2895092,392.603106 86.6645751,393.529583 C86.7340122,393.518002 92.3237004,392.024058 91.4325907,391.722953 C90.6456367,391.653467 89.8934012,391.746115 89.1527386,391.989315 Z M27.8015711,311.397423 C28.4033595,309.486565 28.5538066,307.552545 28.2760581,305.583782 C23.6006253,306.116506 24.0403938,309.799251 27.8015711,311.397423 Z M187.555553,283.615862 C186.502424,282.098756 185.449294,280.58165 184.396164,279.064545 C185.773334,278.219135 188.944296,282.689385 187.555553,283.615862 Z M38.8432305,214.406894 C41.1115097,214.661676 40.3361286,216.618858 40.2319729,218.286516 C39.2829989,218.170706 38.7506477,215.113333 38.8432305,214.406894 Z M82.0099735,446.975707 C81.9868278,445.134334 82.600189,444.925877 84.2435342,444.508963 C84.5212827,446.16504 83.7690472,446.987288 82.0099735,446.975707 Z" id="uE001-a1" fill="#000"/></g></svg>