<svg width="199" height="502" viewBox="0 0 199 502" version="1.1" xmlns="http://www.w3.org/2000/svg" xmlns:xlink="http://www.w3.org/1999/xlink"><title>uE004-r1</title><desc>Created with Sketch.</desc><g id="Page-1" stroke="none" stroke-width="1" fill="none" fill-rule="evenodd"><path d="M134.638736,311.017061 C141.176329,309.767684 147.635311,308.457499 154.100635,306.952652 C165.222147,304.39326 175.394685,300.698934 186.064856,297.664723 C185.972273,297.294132 129.959663,310.565911 122.703484,310.43852 C124.462558,310.484844 125.237939,309.674177 124.983336,308.0181 C121.254281,311.176999 117.557719,313.197846 113.177791,314.119626 C113.023154,309.407224 112.307703,305.545125 111.031428,302.533292 C112.187283,299.153866 115.785043,297.16003 118.039624,294.456797 C119.729261,294.781064 118.618267,289.835995 117.206379,290.855119 C114.77608,291.422586 109.46414,295.001102 107.739785,294.954778 C107.339618,295.278949 106.770562,295.763601 106.110997,296.35292 C102.97555,294.240028 98.6025746,293.183594 92.9919968,293.183594 C92.1873052,293.183594 91.0305785,293.284179 89.5217819,293.485352 C88.0129853,293.686524 86.8562586,293.787109 86.0515671,293.787109 L86.0515671,314.836026 C82.9719034,316.336824 80.0141758,315.500844 78.0322702,316.854371 C74.9770369,318.962106 64.0869819,321.347783 60.5109702,320.120202 C57.7044589,320.772721 54.8996248,321.359778 52.0913597,321.91077 C54.3731525,319.897997 56.8187348,317.243746 57.3805134,315.520245 C55.5689461,316.782917 51.427065,319.808596 49.6176327,322.387346 C45.8703485,323.097084 42.1143006,323.75805 38.3373832,324.439899 C30.2711044,325.887519 22.2163984,327.47411 14.0228182,328.041577 C9.74086251,328.56272 5.56306244,331.064208 0.96863966,331.09895 C0.763180306,331.100682 0.557753286,331.105827 0.352348327,331.114147 L0.352348328,329.522246 C1.48063263,329.570203 2.86980196,329.238825 3.44407299,329.176511 C3.54822867,327.184586 7.15895892,328.910149 6.84649188,326.061233 C4.57441324,326.606163 2.57654128,327.783733 0.352348328,328.394311 L0.352348328,97.4227778 C0.454906904,97.3162769 0.541956933,97.2287282 0.608723921,97.1635848 C0.522399492,97.1643847 0.436952211,97.168493 0.352348328,97.1757763 L0.352348328,0.176757812 L105.364067,0.176757812 C142.782223,0.176757812 167.676993,6.46331604 180.049126,19.0366211 C192.421258,31.6099261 198.607231,59.3210748 198.607231,102.170898 L198.607231,167.652344 C198.607231,195.816547 195.740561,215.631779 190.007133,227.098633 C184.273706,238.565487 174.164921,247.618131 159.680473,254.256836 C173.762575,259.688504 183.770776,268.087346 189.705376,279.453613 C191.580679,283.045295 193.159684,287.234559 194.442395,292.021421 C193.029007,292.158794 192.799954,292.595579 190.909253,292.278419 C190.666223,293.795524 190.388474,295.301049 190.133872,296.818155 C190.093628,296.818155 193.569368,293.072149 194.485933,292.184554 C197.233474,302.521131 198.607231,315.628504 198.607231,331.506836 L198.607231,433.939587 C198.473783,433.86525 198.342602,433.78757 198.214038,433.706244 C198.086736,437.076303 195.945758,436.091922 193.851072,437.574285 C198.584369,437.134208 195.436553,439.496724 195.644864,441.824496 C196.558883,440.91448 197.590089,440.440034 198.607231,440.369813 L198.607231,456.770545 C198.321582,457.627143 198.151274,458.174765 198.142286,458.183759 C198.306398,457.94513 198.460849,457.701242 198.607231,457.452973 L198.607231,502 L168.325997,502 L194.672745,490.992615 C189.650126,487.645718 186.166697,482.83962 180.808466,479.94438 C188.322851,487.017656 172.404932,497.518313 168.099045,502 L113.20977,502 L113.20977,468.306079 C114.90474,470.082068 118.525142,471.423865 120.125052,472.375065 C119.87045,471.413846 120.020897,470.510531 120.530102,469.641959 C116.988809,474.135371 147.842036,482.612633 150.145034,484.037091 L131.223419,471.911827 C133.621794,464.23811 117.709281,467.006508 113.20977,467.054989 L113.20977,432.524646 C115.590972,428.804418 118.606968,425.748405 117.838257,421.115426 C117.510936,419.114301 117.726063,416.794264 118.044144,414.4132 C120.83813,414.917241 124.743569,417.100528 125.189333,412.218934 C125.409217,409.705866 120.282443,412.90221 119.449198,412.438972 C119.807956,411.3272 119.194595,410.041713 119.495489,409.52057 C119.259415,409.618632 118.975147,409.740521 118.66038,409.884355 C118.831941,408.400907 118.933986,406.958005 118.856668,405.620103 C118.293716,405.652112 116.4153,409.084784 114.620997,412.471494 C113.993934,413.108842 113.558445,413.818108 113.508598,414.578637 C113.407542,414.770076 113.307835,414.958769 113.20977,415.143987 L113.20977,413.004214 C114.49541,412.246977 114.909334,409.744671 115.787547,407.297026 C114.961797,406.443205 114.098202,405.663517 113.20977,404.973187 L113.20977,385.333888 C114.541195,383.974853 116.323544,384.619536 118.499067,384.38989 C117.475308,383.076366 115.5436,382.360473 113.20977,382.003364 L113.20977,316.117188 C113.20977,315.738976 113.206492,315.365734 113.199936,314.997463 C120.014038,313.722513 126.657809,312.530733 133.216571,311.287696 C133.456501,311.641106 133.863174,311.955078 134.436043,312.231252 C134.463551,311.818343 134.531925,311.413612 134.638736,311.017061 Z M34.5992152,270.486638 C33.372698,270.693084 31.9424172,271.648879 32.8796255,272.843254 C33.5269549,272.368715 34.1742844,271.903975 34.8279822,271.44266 C35.081875,272.553426 35.2982137,273.680507 35.4754165,274.823598 C30.9851494,278.737962 33.936227,283.266117 28.4506945,286.184518 C27.0966707,286.902538 18.3244478,290.562121 17.9656894,291.76654 C21.7500124,290.318921 24.3539044,293.654237 27.860479,294.210123 C25.4533255,297.383305 18.5096135,294.719685 15.8478572,293.306808 C16.1487514,292.669855 16.5538013,292.113969 17.051434,291.615988 C15.1766317,291.419112 13.8226079,292.148712 12.9777896,293.793208 C20.754747,298.448754 40.4633163,289.867263 39.6647894,302.536832 C34.3991412,298.796182 26.124551,306.277482 30.8462752,309.045331 C33.0103988,310.307655 35.3018237,308.026206 36.3780991,306.902853 C40.1855678,302.942166 41.5858831,310.330817 42.1876715,310.400303 C42.9399069,305.710015 46.7705214,307.458739 51.0871957,307.609292 C57.2902451,307.82933 63.4354302,307.180796 69.6384796,308.060949 C68.7126514,301.193441 77.4617285,297.244334 77.6468942,304.609824 C81.9288499,300.857593 76.5474731,298.04342 76.4201717,294.140637 C71.0040763,294.499647 70.6105993,295.043952 72.2655173,287.863757 C73.3649384,283.231374 76.3738803,275.252093 70.3791422,272.657959 C68.6200685,279.108553 60.9819853,282.69865 62.0929792,290.07572 C60.5769355,289.485092 58.2276462,289.114501 58.8988717,286.786728 C53.7605248,286.520366 51.9898783,292.820408 46.8283857,292.415074 C43.1747322,292.665278 40.6059424,293.894231 37.398326,293.914449 C36.8506231,292.002983 36.2862523,290.099855 35.7415921,288.186866 C34.3918122,288.548825 35.5168912,291.690221 36.3381844,293.876237 C35.2370274,293.789411 34.0475994,293.547944 32.7095046,293.075189 C32.9988259,292.438236 33.4038758,291.870769 33.9015085,291.384369 C32.9062431,291.222235 27.5017206,292.635112 27.1198164,291.893931 C27.2471178,290.816902 27.9993532,290.411568 29.3418042,290.689511 C27.4554291,290.365244 25.5343355,291.419112 23.7521161,290.758997 C24.5622158,289.137663 30.8694209,286.022385 32.5359118,284.551603 C38.6000869,279.270686 36.5632647,274.545655 36.5864104,267.527594 C37.8247058,263.381611 24.0530103,247.457792 21.5417011,243.740305 C22.5832579,244.365676 23.4512219,244.307772 24.1687388,243.555009 C24.3654773,240.740836 15.7437015,237.718206 14.5285519,240.798741 C24.2431267,248.501303 31.6085573,258.526889 34.5992152,270.486638 Z M79.8663782,393.326828 C81.804325,393.363798 83.9059426,393.361595 86.0515671,393.30125 L86.0515671,393.535165 C85.6486988,394.075346 85.2417264,394.579897 85.2028101,394.677256 C85.0722217,395.045535 85.4666492,395.157893 86.0515671,395.076837 L86.0515671,395.301442 C85.8513408,395.254865 85.6516972,395.208176 85.4527837,395.16134 C85.3649093,395.54996 85.6158642,395.917041 86.0515671,396.226674 L86.0515671,502 L0.352348328,502 L0.352348328,343.741137 C1.00613397,344.21298 1.82479295,344.404471 2.91403631,344.067308 C2.91403631,346.012909 0.854068412,347.066776 1.16653545,348.340682 C5.00780428,347.328601 3.80710695,342.08877 0.352348328,340.798357 L0.352348328,334.455805 C21.3836426,329.359412 44.5346188,329.496014 65.3137043,325.725386 C72.2863958,324.457764 79.1706604,322.767056 86.0515671,321.050528 L86.0515671,384.305576 C84.2504568,384.05896 82.8038017,382.227838 81.5353729,382.780137 C76.7673573,384.853128 74.7305351,383.266537 69.7194896,383.266537 C68.4117572,383.266537 60.6579454,388.547454 60.8431111,386.254424 C61.2944524,385.872253 61.8152308,385.640633 62.3938734,385.571148 C60.979846,385.227859 57.1340183,387.051721 54.9587656,387.98349 C52.1237344,387.06597 49.1932572,386.253456 47.0795166,387.089411 C47.8548978,388.073793 51.9864064,389.61406 53.3867217,388.803393 C53.5805237,388.820168 53.7736757,388.839719 53.9662226,388.861848 C58.2484376,391.740063 60.6587,391.72759 65.9930308,393.295647 C66.5293804,392.747798 67.3393355,392.455715 68.2926148,392.329438 C68.6264695,392.374058 68.9619829,392.4112 69.299395,392.439814 C69.2112151,392.378465 69.1221057,392.320074 69.0321339,392.264425 C69.9194738,392.221642 70.891173,392.288013 71.8606406,392.403746 C69.7534788,398.754421 65.7108614,409.322533 69.6581535,411.373524 C70.2830876,410.458628 69.9474748,409.798513 68.6628881,409.404761 C68.6628881,409.485827 72.0537341,403.695348 71.9380056,403.938548 C72.7365325,402.004528 73.8359535,400.244222 75.2362688,398.669212 C74.4493148,396.746773 70.9658859,396.376182 72.146317,393.619914 C73.5350594,393.57359 79.6802445,396.584639 79.321486,398.182812 C78.9048633,398.970317 74.3220134,404.830282 76.8101769,405.131387 C78.0678224,399.268687 81.5979557,396.218247 79.8663782,393.326828 Z M109.320527,70.5810353 C109.211049,70.4389752 109.099261,70.3068202 108.985161,70.1845703 C106.16874,67.1669771 100.435399,65.6582031 91.7849655,65.6582031 L86.0515671,65.6582031 L86.0515671,218.951172 C87.0574315,218.951172 88.4153281,219.051757 90.1252975,219.25293 C91.835267,219.454103 92.9919937,219.554688 93.5955124,219.554688 C101.240082,219.554688 106.420206,217.794451 109.13604,214.273926 C111.851874,210.7534 113.20977,203.863333 113.20977,193.603516 L113.20977,97.3427734 C113.20977,83.9526191 112.10067,75.315929 109.882441,71.4325133 C109.954009,71.0005759 109.829386,70.611204 109.398175,70.4416807 C109.373169,70.491727 109.347284,70.5381741 109.320527,70.5810353 Z M120.643074,326.657626 C120.094978,326.834853 119.418499,327.191941 118.613638,327.728891 C117.352197,327.543596 116.47266,328.006834 116.021319,329.107025 C118.162296,328.748016 120.280129,328.377425 122.397961,328.006834 C122.398203,327.967607 122.397888,327.929159 122.397017,327.891491 C125.594165,328.525338 130.645915,323.803373 132.74062,322.503563 C128.701694,322.075067 123.297172,325.24825 120.334521,326.09366 C120.429542,326.300998 120.532602,326.488605 120.643074,326.657626 Z M157.129251,478.094901 C155.995111,478.998216 154.745243,479.241416 153.414365,478.824501 C155.428042,476.519891 156.654764,476.27669 157.129251,478.094901 Z M177.403733,78.4950794 C179.996052,79.8732135 179.799313,78.4487556 182.981848,79.0393844 C182.310623,80.6838806 179.012359,84.1697491 182.194894,85.5247213 C182.252758,83.1737867 185.42372,80.6375567 184.115988,78.3908508 C179.382691,77.1169453 174.614675,75.8314589 169.869805,74.5691344 C171.003945,77.3833074 175.725669,76.1325638 177.403733,78.4950794 Z M50.5768329,112.180614 C53.2038706,113.720881 53.6552119,114.890558 51.9771481,115.712806 C50.8661542,114.763168 50.3916672,113.58191 50.5768329,112.180614 Z M188.525245,213.225637 C189.312199,212.773979 189.971852,217.429525 188.640973,216.144038 C188.421089,215.935581 187.576271,213.758361 188.525245,213.225637 Z M191.508726,460.802213 C190.038974,462.377224 188.592367,463.963815 187.099469,465.504083 C185.409833,463.894329 189.81909,459.19246 191.508726,460.802213 Z M26.8328096,431.504704 C27.0064024,430.022341 26.3351769,425.934263 28.2794163,426.073235 C28.1405421,427.601921 28.7307576,431.713161 26.8328096,431.504704 Z M36.4047166,248.398166 C35.7682097,246.232527 37.168525,245.491346 38.8465887,245.317631 C39.4830956,247.483271 38.0712075,248.189709 36.4047166,248.398166 Z M53.8774106,127.063304 C55.0809874,127.769742 57.1293824,128.151914 56.8979254,129.414239 C55.6827758,128.7078 53.6343807,128.325628 53.8774106,127.063304 Z M69.5192792,98.518557 C72.5976582,98.8891476 68.4545767,107.354828 66.2673074,105.154446 C68.7091795,104.320617 69.1142294,100.672615 69.5192792,98.518557 Z M120.127367,284.553919 C116.019004,282.469347 111.899068,280.384774 107.790705,278.288621 C108.033735,279.446717 107.60554,280.268965 106.529264,280.766946 C108.716534,281.959785 110.035839,281.438641 112.02637,281.971366 C116.412481,283.141042 117.951671,288.248245 123.83068,287.46074 C123.228892,286.800625 119.108956,286.244739 120.127367,284.553919 Z M149.308317,89.1032376 C150.708632,88.6747421 154.863286,88.4431229 154.342508,86.5901695 C152.676017,86.4859409 149.424045,87.0649888 147.884856,87.6092939 C148.243614,88.9526851 149.215734,87.9335607 149.308317,89.1032376 Z M58.7819859,40.9357142 C59.6152313,41.259981 56.4558424,44.7226877 56.6178623,42.8813152 C56.6294352,42.6033722 57.7404291,40.5303806 58.7819859,40.9357142 Z M181.947235,289.949488 C183.150812,292.103546 184.342816,294.257605 185.523247,296.423244 C184.007203,296.793835 180.778377,291.049679 181.947235,289.949488 Z M3.32024346,145.266255 C3.52855482,146.227474 3.73686618,147.177113 3.94517754,148.126752 C5.26448283,147.339246 6.58378811,146.54016 7.90309339,145.752655 C6.65322523,143.714406 5.12560859,143.552273 3.32024346,145.266255 Z M50.5097103,279.386496 C47.616497,278.946419 50.4865646,275.21735 52.8127081,275.958532 C53.1598937,278.448438 50.7758859,277.406152 50.5097103,279.386496 Z M17.8256579,209.589216 C18.4158734,209.40392 19.0060889,209.218625 19.5731587,209.03333 C20.3138213,206.311804 15.8235542,207.4699 16.6567997,208.975425 C17.2933066,208.709063 17.6752108,208.91752 17.8256579,209.589216 Z M191.575849,449.617324 C193.068747,450.90281 192.571114,451.933515 193.091893,453.091611 C192.004045,454.342355 188.636344,450.022657 191.575849,449.617324 Z M46.2150244,443.742303 C43.0324898,441.055521 38.8431168,442.827407 35.5448536,440.464892 C41.5048731,437.094833 43.6574238,440.233273 46.2150244,443.742303 Z M28.189148,390.541695 C26.8582699,389.916323 26.0944616,388.897199 25.8861502,387.495903 C28.825655,388.283408 29.5894633,389.302533 28.189148,390.541695 Z M132.988279,457.630189 C134.458031,458.475599 131.969868,462.482611 130.766291,461.683524 C131.495381,460.328552 132.259189,458.985161 132.988279,457.630189 Z M7.21913776,440.886439 C5.59893829,441.396001 3.43481471,444.939774 2.17337369,443.330021 C3.80514602,442.83204 5.9692696,439.299847 7.21913776,440.886439 Z M56.4766735,472.004475 C55.886458,473.683714 54.7986098,472.236094 53.7223344,472.178189 C54.2894042,470.487369 55.3772524,471.94657 56.4766735,472.004475 Z M174.375117,163.598912 C173.518726,163.900017 171.389321,167.455372 170.255181,165.834037 C171.250447,164.988627 173.240977,162.197616 174.375117,163.598912 Z M118.274553,192.913793 C119.31611,193.898175 120.53126,194.338251 121.943148,194.222442 C121.422369,193.388612 120.751144,192.682174 119.917898,192.126288 C121.179339,191.952574 121.885283,191.280878 122.047303,190.09962 C121.757982,190.227011 121.468661,190.365982 121.214058,190.493373 C118.610166,189.844839 117.626473,190.655506 118.274553,192.913793 Z M150.641509,469.476352 C150.572072,471.282981 151.023414,473.44862 148.558396,473.599173 C147.88717,471.2714 147.458975,469.105761 150.641509,469.476352 Z M159.68338,441.45159 C159.44035,439.818674 161.338298,436.784463 158.560813,436.182253 C157.935879,437.849911 159.058446,438.648998 157.357236,439.679703 C158.132617,440.258751 158.919571,440.84938 159.68338,441.45159 Z M143.951243,377.687989 C142.712948,376.36776 140.849718,375.174921 142.458345,373.321968 C142.192169,374.92014 146.323678,375.696064 143.951243,377.687989 Z M122.410691,230.771947 C121.345988,228.467336 122.433837,227.633507 125.685808,228.247298 C125.454351,230.065509 124.331785,230.910919 122.410691,230.771947 Z M137.102428,236.03086 C140.701586,236.679394 140.27339,233.645183 142.506951,233.019811 C141.801007,234.513755 139.13925,238.6829 137.102428,236.03086 Z M135.407005,256.540738 C136.436989,257.339824 139.874127,258.104168 137.61742,260.026607 C137.142933,259.297006 135.765764,256.228052 134.458031,258.12733 C137.189225,260.883598 138.450666,261.902722 141.147141,261.497389 C141.864657,261.381579 148.472757,269.986231 149.236565,268.735488 C150.104529,267.357354 148.16029,262.956589 151.724729,265.226457 C148.333882,259.447559 139.56166,259.34333 136.055085,253.680242 C136.020366,254.687785 135.812055,255.637424 135.407005,256.540738 Z M146.346824,19.5665292 C147.110632,20.469844 148.013314,20.6551393 149.031726,20.0992533 C147.87444,17.9104521 149.598795,18.1652332 151.218995,18.6516334 C150.675071,15.686908 147.492536,19.33491 146.856029,16.8334229 C147.411526,17.8988711 147.22636,18.8021859 146.346824,19.5665292 Z M125.371027,398.266195 C123.993857,397.455528 122.9523,397.756632 122.049618,398.555719 C123.426787,399.366386 124.468344,399.065281 125.371027,398.266195 Z M188.864329,396.485043 C190.334082,395.894414 193.701782,399.391864 195.854333,399.079178 C189.327244,394.238337 181.596578,392.061117 175.219935,387.498219 C177.10631,392.014793 185.161016,393.844585 188.864329,396.485043 Z M19.1472777,334.943829 C17.550224,336.159829 16.5318129,337.73484 16.1151901,339.680441 C15.096779,337.653773 17.1451741,333.079294 19.1472777,334.943829 Z M56.1607346,92.2752621 C56.8203873,91.7888619 58.3711496,87.550231 57.7462155,86.5774305 C56.7046587,88.963108 54.9687307,91.3487854 55.2117606,94.1050536 C55.6168105,93.5491676 55.9292775,92.9353768 56.1607346,92.2752621 Z M28.0421728,158.216083 C28.7481169,158.18134 29.4424881,158.273988 30.1021407,158.482445 C29.2226038,156.085186 21.0290237,152.657223 18.3441217,152.796194 C20.5892552,155.123967 26.526129,155.564043 28.0421728,158.216083 Z M190.197522,459.705497 C188.253283,459.010639 186.089159,458.605306 185.151758,456.613381 C187.072852,457.308238 189.271694,457.713572 190.197522,459.705497 Z M51.3001362,106.831369 C53.0129185,106.11335 53.9271739,106.634493 53.9850382,108.394799 C53.0823556,110.039295 48.8119727,108.278989 51.3001362,106.831369 Z M82.0862407,179.098868 C83.486556,179.399972 82.6533105,183.684927 83.9610429,184.148166 C84.3313743,181.78565 85.0257455,178.045 82.5838734,176.377342 C82.4102806,177.280657 82.2714064,178.195553 82.0862407,179.098868 Z M147.477491,156.236897 C151.088222,157.325507 153.911998,159.178461 156.92094,160.081775 C153.576385,156.723297 146.05403,145.084434 141.55219,153.469048 C142.755767,154.244972 147.708948,154.048096 147.477491,156.236897 Z M170.374382,379.921956 C168.337559,380.790528 167.620043,378.972317 165.698949,379.551365 C167.12241,381.195861 166.601631,381.879138 164.067177,381.589614 C170.686849,387.264284 177.132928,393.124249 183.7526,398.798919 C183.937766,395.127755 176.2071,391.757696 173.996685,389.592057 C171.346501,386.963179 170.142925,382.400281 170.374382,379.921956 Z M139.091802,386.108504 C140.920313,383.317493 140.74672,383.259588 141.846141,380.190634 C135.874549,378.708272 123.919791,389.050068 131.98607,393.612965 C133.097064,390.185002 135.446353,390.011287 138.628888,390.810373 C138.733043,389.883897 134.231203,385.112542 139.091802,386.108504 Z M142.300954,326.756091 C140.715473,327.161424 139.743353,326.107557 139.164711,324.057728 C140.78491,323.525003 140.900639,326.721348 142.300954,326.756091 Z M77.6110183,445.551249 C74.4863479,446.037649 78.7914494,452.106072 80.2843474,449.326641 C79.3816649,448.064317 78.4789823,446.801992 77.6110183,445.551249 Z M31.95264,206.823683 C33.8042965,206.07092 33.607558,209.973703 31.8832028,210.089513 C28.8048238,210.286389 25.8421734,208.769284 22.9952515,211.954047 C24.2104011,213.598543 27.5665285,211.896143 28.8858338,211.363418 C32.6122926,209.915799 30.5754704,210.992828 32.0915142,212.729972 C34.3713663,209.20936 35.0773104,216.366393 37.1719968,214.467115 C34.6491148,211.513971 35.1004561,206.337282 31.4550073,204.808596 C31.1656859,205.572939 31.316133,206.244635 31.95264,206.823683 Z M192.616249,211.833605 C190.405834,212.262101 181.749339,207.803432 180.881375,205.962059 C182.779323,205.093487 191.956596,210.247014 192.616249,211.833605 Z M163.254762,406.420348 C163.139034,406.489833 162.074331,387.983461 160.998056,386.292641 C157.665074,389.129976 160.500423,395.071008 160.187956,398.545296 C159.667178,404.497908 158.081697,401.266821 162.155341,408.157491 C162.398371,407.682672 162.074331,405.262252 163.254762,406.420348 Z M131.225733,471.908353 L155.18154,482.134339 C153.607632,479.737081 151.790694,477.490375 149.78859,475.428964 C146.108423,471.641991 140.29885,466.812731 134.558715,468.700427 C133.378284,469.951171 138.076863,470.310181 135.79701,472.637953 C134.257821,469.835361 133.042671,473.147515 131.225733,471.908353 Z M118.002591,421.020462 C119.136731,422.676539 122.978918,423.186102 122.840044,419.920271 C121.138834,420.175052 118.997856,419.792881 118.002591,421.020462 Z M178.918619,420.398565 C177.587741,420.433308 176.187426,420.016393 174.578799,418.568773 C175.423618,417.978144 179.960176,419.634221 178.918619,420.398565 Z M109.391231,49.6098522 C110.999858,46.9578127 112.596911,43.8309538 115.628999,42.5454674 C114.876763,43.8888586 110.895702,50.4552622 109.391231,49.6098522 Z M60.7146524,280.21106 C62.6936103,280.58165 61.1312751,283.361081 60.8188081,284.92451 C58.4695189,284.519176 60.4369039,281.971366 60.7146524,280.21106 Z M77.7464207,238.530031 C74.3092832,242.108548 71.7401098,243.22032 70.3745131,247.134684 C69.1362178,247.852703 68.569148,248.837085 68.7195951,250.087828 C71.7053912,251.489124 68.5344294,251.523867 68.5575751,253.60844 C68.5575751,254.036935 80.246157,245.605997 81.033111,243.382453 C82.0283764,240.533537 96.343996,230.191741 94.5502038,227.840806 C92.085186,226.543739 92.6985472,230.446522 91.3213777,231.152961 C91.1940763,228.686216 79.85268,236.167516 77.7464207,238.530031 Z M154.744086,314.406157 C157.290114,314.255604 157.787746,325.940791 157.718309,327.967459 C155.727778,327.97904 155.033407,316.398081 154.744086,314.406157 Z M147.681174,402.354273 C147.588591,401.995263 143.619102,393.761202 145.505477,394.421316 C141.952611,393.158992 143.468655,405.249513 148.132515,404.149322 C147.970495,403.558693 147.820048,402.956483 147.681174,402.354273 Z M138.435621,408.167914 C136.722839,406.396028 135.044775,404.589398 133.308847,402.840673 C134.523997,401.670996 139.662343,407.009818 138.435621,408.167914 Z M18.0513285,140.844645 C20.3196078,140.508797 12.3574847,144.469485 11.223345,144.782171 C11.142335,142.350169 16.9287617,141.02994 18.0513285,140.844645 Z M55.5728337,346.061549 C54.9826181,347.821855 50.7122353,345.355111 49.1383272,344.845548 C49.8095527,342.923109 54.1493727,345.575149 55.5728337,346.061549 Z M160.858024,232.264733 C158.693901,232.994333 158.300424,230.492846 159.90905,229.659017 C160.221517,230.527589 160.55713,231.396161 160.858024,232.264733 Z M127.089596,248.776864 C125.619843,247.317663 128.605639,243.356975 129.577759,244.781433 C128.235308,246.113243 128.258454,247.491377 127.089596,248.776864 Z M56.2278572,448.978055 C57.743901,450.912075 56.8990827,451.82697 55.1168632,452.741866 C56.0195458,454.397943 64.5024473,449.580264 63.5881919,447.067196 C62.2573138,447.71573 60.9842999,448.456911 59.7807231,449.267579 C58.8548949,449.64975 57.3619968,448.364264 56.2278572,448.978055 Z M21.8263933,394.573027 C20.8542736,393.820265 19.8937268,393.055921 18.9331799,392.291578 C20.2987766,390.566015 23.2498542,392.859045 21.8263933,394.573027 Z M5.92413547,322.63327 C7.00041083,320.22443 8.08825905,320.004392 9.18768012,321.961574 C7.44017926,323.710299 7.61377206,324.289347 5.92413547,322.63327 Z M195.034975,315.367376 C196.620456,315.216824 196.238552,323.010809 195.775638,324.562657 C193.426348,324.817438 195.220141,317.069777 195.034975,315.367376 Z M11.4061961,103.783261 C9.09162543,100.841697 5.81650793,97.1821143 4.71708686,93.7657315 C6.66132623,92.3412736 10.8969906,101.802917 11.4061961,103.783261 Z M139.18207,233.723934 C139.610266,232.322638 139.633411,230.203322 141.010581,230.388617 C140.489802,231.674104 140.443511,233.770257 139.18207,233.723934 Z M29.0247081,340.847801 C29.973682,341.635307 30.9110832,342.422812 31.87163,343.210317 C33.2487995,341.785859 29.348748,340.338239 28.9089795,339.562315 C28.4229197,340.037134 28.4692111,340.46563 29.0247081,340.847801 Z M31.4098731,317.985831 C33.469841,316.978287 35.1131862,316.955126 36.3862001,317.916345 C34.3030865,318.935469 32.6365956,318.94705 31.4098731,317.985831 Z M160.496951,248.233717 C158.888325,245.61642 150.23183,253.201948 149.479595,254.267396 C148.576912,255.506559 146.586382,255.40233 145.706845,256.653074 C144.711579,258.019627 147.604793,258.726065 148.299164,258.29757 C148.021415,257.706941 147.581647,257.602712 147.049296,258.019627 C146.505372,255.182292 158.460129,249.982441 160.496951,248.233717 Z M57.878146,165.849093 C56.2695194,163.579225 54.6724657,161.320938 53.0869848,159.05107 C54.4294357,158.101431 59.2668885,164.887873 57.878146,165.849093 Z" id="uE004-r1" fill="#000"/></g></svg>