<svg width="211" height="497" viewBox="0 0 211 497" version="1.1" xmlns="http://www.w3.org/2000/svg" xmlns:xlink="http://www.w3.org/1999/xlink"><title>uE014-m1-thin</title><desc>Created with Sketch.</desc><g id="Page-1" stroke="none" stroke-width="1" fill="none" fill-rule="evenodd"><path d="M58.7787566,436.549285 L58.4531561,436.876801 C57.9930715,437.79697 58.1220508,438.711972 58.840094,439.628423 L59.9752805,496.614788 L0.941291267,496.614788 L0.941291267,0.788908766 L75.181005,0.788908766 L102.909091,227.384019 L107.679514,227.384019 L135.705752,0.788908766 L210.243617,0.788908766 L210.243617,496.614788 L150.911476,496.614788 L156.576354,197.270722 L149.71887,197.270722 L121.09633,496.614788 L89.4922752,496.614788 L60.5715835,197.270722 L54.0122513,197.270722 L58.7787566,436.549285 Z M192.558611,5.37144452 L192.558611,5.37144452 C193.995995,6.09013678 195.420771,5.37144452 196.858156,3.21536773 C196.858156,2.49667547 195.420771,1.7779832 194.702079,1.05929094 C193.277303,0.340598676 191.839918,1.05929094 190.415143,3.22797637 L192.558611,5.37144452 Z M195.420771,452.675422 C196.858156,451.250646 196.139463,449.813262 193.277303,448.375877 L191.133835,450.531954 C190.402534,451.969339 191.133835,453.394115 193.277303,454.831499 L195.420771,452.675422 Z M83.5317335,190.617528 L83.5317335,190.604919 C84.969118,189.180143 84.2504257,187.742758 81.3882653,186.317983 L79.2447971,188.461451 C78.5134962,189.898835 79.2447971,191.33622 81.3882653,192.760996 L83.5317335,190.617528 Z M77.0761117,31.937841 C77.794804,30.5004565 77.0761117,29.0630719 74.9326436,27.6256874 L72.7891754,29.7943728 C72.0578745,31.2191487 72.7891754,32.6565333 74.9326436,34.0813091 L77.0761117,31.937841 Z M67.0396373,122.404806 L67.0396373,122.404806 L67.0522459,122.404806 C68.4770218,123.123498 69.9144064,122.404806 71.3391823,120.248729 L69.1831055,118.092652 C67.7583296,117.37396 66.320945,118.092652 64.8961692,120.261338 L67.0396373,122.404806 Z M64.1900855,64.9472506 L64.1774769,64.9472506 L64.1774769,51.3299235 C57.7344638,47.0177699 57.7344638,47.0177699 50.5601498,51.3299235 L50.5601498,64.9472506 C57.0031629,69.990705 57.0031629,69.990705 64.1900855,64.9472506 Z M39.8049831,199.216617 L39.8049831,199.216617 C41.9484513,197.779233 42.6671435,196.341848 41.9484513,194.904464 C41.229759,194.185772 40.5110667,192.760996 39.7923745,192.760996 C37.6489063,194.185772 36.2115218,195.623156 37.6489063,197.073149 L39.8049831,199.216617 Z M32.6180605,288.96489 L32.6306691,288.96489 C34.7741373,287.527505 36.2115218,286.090121 34.7741373,284.652736 C34.7741373,283.946653 33.3493614,282.509268 32.6180605,282.509268 C30.4745923,283.946653 29.7559001,285.371429 30.4745923,286.821422 L32.6180605,288.96489 Z" id="uE014-m1-thin" fill="#000"/></g></svg>