<svg width="69" height="497" viewBox="0 0 69 497" version="1.1" xmlns="http://www.w3.org/2000/svg" xmlns:xlink="http://www.w3.org/1999/xlink"><title>uE017-i1-thin</title><desc>Created with Sketch.</desc><g id="Page-1" stroke="none" stroke-width="1" fill="none" fill-rule="evenodd"><path d="M0.49623245,0.788908766 L68.1766141,0.788908766 L68.1766141,496.614788 L0.49623245,496.614788 L0.49623245,0.788908766 Z M54.5998901,452.675422 C55.3185824,451.969339 54.5998901,451.250646 54.5998901,450.519346 C53.1751142,449.813262 52.456422,448.375877 51.7377297,448.375877 L45.2694993,448.375877 C44.5634157,448.375877 43.1260312,449.813262 43.1260312,450.531954 C42.4073389,451.250646 42.4073389,451.969339 43.1260312,452.675422 C44.5634157,456.268884 52.456422,456.268884 54.5998901,452.675422 Z M38.107794,41.2682318 C43.1260312,36.9560782 43.1260312,31.937841 38.107794,27.6256874 C33.0895568,31.937841 33.0895568,36.2499946 38.107794,41.2682318 Z M38.107794,130.297812 C40.2512621,128.873036 40.982563,127.435652 40.2512621,125.985658 L38.107794,123.84219 C35.9643258,125.279575 34.5269413,126.716959 35.9643258,128.154344 L38.107794,130.297812 Z M35.2456336,167.644592 C34.5269413,169.069368 35.2456336,170.506753 37.3891017,171.944137 L39.5325699,169.788061 C40.982563,168.350676 40.2638708,166.9259 37.3891017,165.488516 L35.2456336,167.644592 Z M38.107794,302.620043 C40.2512621,301.182658 40.982563,299.745274 40.2512621,298.307889 L38.107794,296.164421 C35.9643258,297.589197 34.5269413,299.026582 35.9643258,300.476575 L38.107794,302.620043 Z" id="uE017-i1-thin" fill="#000"/></g></svg>