<svg width="297" height="502" viewBox="0 0 297 502" version="1.1" xmlns="http://www.w3.org/2000/svg" xmlns:xlink="http://www.w3.org/1999/xlink"><title>uE011-d1</title><desc>Created with Sketch.</desc><g id="Page-1" stroke="none" stroke-width="1" fill="none" fill-rule="evenodd"><path d="M296.636086,380.243011 L296.636086,380.995117 C296.636086,387.904796 296.492974,394.494713 296.20675,400.764871 C295.027167,401.39653 293.321544,401.99082 293.261389,402.790017 C294.986427,401.779962 294.79463,405.350818 295.941203,405.814099 C294.040282,437.63784 288.23923,460.747495 278.537955,475.143555 C266.472474,493.047941 244.956023,502 213.987955,502 L70.6489606,502 C69.3875969,491.736615 63.1120431,482.6498 56.8364893,474.793822 C54.0072098,471.251279 43.4188137,455.113539 38.8602615,456.025085 C38.8589344,456.023613 38.8591397,456.024441 38.8593456,456.025268 C38.8575537,456.025628 38.8557627,456.02599 38.8539726,456.026354 L38.8629782,456.039604 C39.0231236,456.660461 39.5623108,457.333767 40.2187768,458.034377 L39.2156901,456.558545 L65.4757089,495.972041 C50.0026572,480.653601 34.1609163,463.348997 23.9922313,444.022549 C32.0439269,448.839294 35.2907702,458.567931 43.2711067,463.372783 C43.3731251,463.187295 43.4356555,462.999203 43.4639822,462.809016 L70.1011389,502 L0.228920853,502 L0.228920853,423.161939 C2.7607255,423.957889 5.31123229,424.719046 7.59151013,426.044789 C9.33981036,427.067604 13.50243,427.246002 11.2784018,423.713722 C6.68762702,426.211294 10.0296159,420.264695 8.36456806,418.730472 C7.06820938,421.929742 4.09490967,421.727558 1.45461953,420.585811 C1.03591306,420.159927 0.627314555,419.834641 0.228920853,419.609663 L0.228920853,303.82345 C4.04707299,305.209211 6.61776208,301.320282 3.02214314,297.823023 C1.99932804,298.822052 1.80903685,299.963799 2.47505599,301.188798 C1.74506943,301.721935 0.992456711,302.215475 0.228920853,302.692826 L0.228920853,286.391469 C0.437609114,286.965068 0.542228983,287.685459 0.667220711,288.367793 C0.528867612,288.607251 0.428993183,288.886691 0.374717074,289.212347 C0.508960376,289.073957 0.632971097,288.928678 0.746980574,288.777467 C1.00633336,290.01276 1.42599856,290.982549 2.82471604,290.470648 C2.90697941,289.008188 2.82943028,287.902232 2.59206865,287.156831 C4.65876931,286.715601 7.60852082,287.348657 9.08053863,286.988319 C8.32726797,285.636863 3.68534664,281.657816 0.228920853,279.47326 L0.228920853,79.1091044 C0.402656832,79.5224623 0.713624606,79.8630137 1.3689885,80.0430912 C6.483064,81.4227023 1.19059051,84.633866 1.14301772,87.2503697 C4.49689979,86.1680886 7.00636475,79.7814408 3.22432752,79.7100816 C-1.44969963,79.793334 4.25903582,76.2372676 4.27092901,75.9518308 C3.62869628,75.9518308 2.99835674,75.9280444 2.356124,75.9161512 C2.3204444,75.5355688 6.31655921,67.2816888 1.99932804,71.1707649 C1.90972104,71.2514112 1.1817445,71.5766032 0.228920854,72.0199295 L0.228920853,19.6734762 C1.18397932,17.1371897 1.38299098,12.1831889 6.70070954,13.9121484 L0.228920853,16.3891999 L0.228920853,0.176757812 L213.987955,0.176757812 C243.481353,0.176757812 264.629142,8.62589207 277.431958,25.5244141 C290.234774,42.4229361 296.636086,69.9832073 296.636086,108.206055 L296.636086,216.124921 C296.484587,215.996759 296.34263,215.854711 296.212092,215.696917 C296.169992,216.099494 296.339786,216.542237 296.636086,216.958177 L296.636086,376.929719 C295.256636,376.193069 294.096105,374.748347 292.030443,376.186121 C292.555389,378.152708 294.969462,378.942461 296.5626,378.640389 C282.039204,399.609607 259.601138,433.589516 260.581257,434.251096 C272.502208,416.35334 284.243782,398.724649 296.636086,380.243011 Z M165.127868,296.275452 C165.068419,296.904683 165.448081,297.378001 166.563142,297.516179 C168.359015,299.41909 172.842751,290.023463 171.439353,290.166182 C170.725761,290.558657 170.059742,290.927346 169.38183,291.296036 C168.887958,291.595886 167.184982,292.994394 166.087622,294.393819 C165.840762,293.986958 165.066198,293.828009 164.11755,293.826689 L164.11755,150.452148 C164.11755,136.973565 162.709932,127.619167 159.894653,122.388672 C157.079374,117.158177 152.186225,114.542969 145.215058,114.542969 L130.736553,114.542969 L130.736553,136.27664 C130.17604,136.61376 129.720405,137.021996 129.404031,137.522921 C129.822416,137.426626 130.269771,137.370195 130.736553,137.338228 L130.736553,158.488773 C128.622828,158.698265 127.723293,158.954118 125.87413,157.253738 C125.707647,162.747671 128.242553,160.726098 130.736553,161.899242 L130.736553,241.482485 C129.162225,240.250887 127.18576,239.783177 127.894784,242.039163 C130.13602,241.080693 130.337996,242.144015 130.736553,242.945661 L130.736553,327.792323 C130.355017,327.876487 129.97348,327.957406 129.591944,328.036505 C129.836917,328.986403 130.216393,329.717735 130.736553,330.230502 L130.736553,387.030273 L145.215058,387.030273 C152.320286,387.030273 157.24695,384.465358 159.995198,379.335449 C162.743447,374.205541 164.11755,364.80085 164.11755,351.121094 L164.11755,297.153134 C164.469043,296.881434 164.8085,296.593723 165.127868,296.275452 Z M266.630838,150.268473 C266.85566,148.274613 266.94704,146.239768 266.565915,144.128404 C267.2914,144.199763 267.957419,144.378161 268.611545,144.687384 C267.362759,138.158018 267.612516,132.484962 264.91276,126.086421 C262.245983,127.41981 261.582479,132.39143 258.97173,133.248583 C257.609907,131.206471 249.454573,131.743649 247.98517,134.11552 C248.686869,134.127413 249.376675,134.174986 250.10216,134.210665 C252.282032,133.168118 255.226507,134.391408 258.002627,133.768908 C260.399487,137.028717 257.811017,140.718856 259.881937,144.4852 C255.077085,145.912384 249.748932,146.257286 245.181943,148.374276 C241.114469,145.67452 235.358161,140.667483 231.243114,146.304859 C231.216012,144.841333 230.752722,143.729073 230.211697,142.625022 C230.827604,141.921433 231.537479,141.022395 232.166027,139.809983 C234.723064,134.826733 236.30486,127.322125 233.62889,122.089117 C229.846853,127.286445 226.802194,132.828676 224.173797,138.680129 C223.446173,140.306583 222.724836,141.923607 221.996857,143.534431 C220.174883,142.105695 218.429043,140.911171 216.899917,142.40389 C217.375644,144.271122 220.087294,142.36821 220.230012,144.627918 C220.242751,144.66932 220.618795,144.955484 221.17065,145.352355 C220.75299,146.265531 220.331611,147.177098 219.904139,148.08765 C224.340302,150.13328 221.105352,153.320657 218.988362,155.568472 C216.22914,158.517985 218.227198,166.831331 220.130109,169.293223 C221.902196,171.648077 222.211419,174.526231 221.474041,177.333026 C223.472098,178.308268 225.446369,179.271617 227.444427,180.234966 C227.737726,179.146671 228.251425,178.218665 228.982271,177.463953 C229.551046,178.058382 230.153475,178.679879 230.770954,179.352491 C235.076292,181.564626 232.483575,172.775552 230.354692,171.72895 C230.8661,173.25128 231.567799,174.678464 232.471682,175.998609 C231.646931,176.588821 230.935003,176.645078 230.309996,176.353173 C227.710115,174.166689 228.004542,171.771705 228.749056,169.280388 C229.396033,169.826202 230.01891,170.465585 230.794741,170.884533 C231.257273,169.965476 230.357576,168.903824 229.151434,168.015241 C229.769843,166.12993 230.409983,164.201282 230.049037,162.276236 C229.394911,158.94614 231.58326,157.590316 230.39394,154.22454 C228.399445,152.519402 228.22779,151.218341 229.925792,150.329161 C231.301026,151.416393 232.61968,152.641044 233.336317,153.191021 C234.454278,153.999759 238.723936,160.529125 239.746752,160.089077 C241.958886,160.338834 241.530731,163.918687 243.742866,161.944416 C245.158157,160.683737 244.9084,159.339805 247.370292,159.54199 C246.490195,162.455823 249.558641,166.01189 252.317863,163.657036 C254.149415,162.063348 260.405238,168.866257 260.381452,171.458975 C263.283392,168.818685 263.307178,165.631307 267.838487,165.167473 C265.055176,160.736441 265.773607,156.541638 266.380478,152.20439 C268.0224,152.002568 269.677222,151.169074 269.735452,150.435367 C268.733807,150.429802 267.682693,150.359146 266.630838,150.268473 Z M75.448704,71.2162037 C75.1205344,70.9267283 74.866279,70.6730388 74.7880836,70.4762021 C73.7652685,73.9490161 72.183473,75.1264428 68.5798338,74.959938 C71.4223083,77.6834805 76.845607,78.1711017 80.556285,78.0521697 C79.5215767,77.0650342 79.3431787,75.9232871 79.9973047,74.6863944 C78.34415,72.5218323 79.5453631,78.2186745 77.2737621,75.9232871 C73.5868705,77.6596942 72.8851718,69.8934353 77.3332281,74.5912488 C78.2468444,73.850666 77.3519235,72.8724357 76.3760519,72.012858 C76.980707,70.883259 76.9926986,69.2787154 76.0951461,70.3655953 C75.8849181,70.6518632 75.6679612,70.9347667 75.448704,71.2162037 Z M205.015665,20.480825 C206.822154,17.2106964 203.968962,14.4875211 208.49975,12.2399646 L205.015605,20.4806223 L202.436597,11.8403531 C201.485142,15.0277304 203.340481,18.0723893 205.017422,20.4867087 L205.015665,20.480825 Z M223.125999,304.529543 C222.759871,304.818126 222.402312,305.106771 222.131463,305.325381 C222.263387,305.042788 222.390684,304.726791 222.494237,304.401796 C222.712648,304.448908 222.923722,304.491636 223.125999,304.529543 Z M223.991358,304.668626 C224.537363,304.738722 224.971795,304.753341 225.247753,304.698481 C225.49751,303.188045 226.246782,304.555763 226.294354,302.866929 C225.057462,302.771783 212.307952,298.228581 212.165234,300.333677 C212.808476,301.335938 217.036048,302.959106 220.576283,303.92819 C220.268785,305.057321 220.307394,306.207848 221.479987,306.389694 C221.593148,306.283757 221.759436,306.040857 221.934253,305.717928 C222.830815,305.785119 223.514685,305.439015 223.991358,304.668626 Z M0.228920853,286.362562 L0.228920853,281.503363 C1.33119753,282.642764 1.89272105,284.396309 1.7466558,286.07323 C1.34809384,285.92462 0.84218219,286.020321 0.228920853,286.362562 Z M251.143699,95.2600705 C254.381232,95.3981717 257.626195,95.6322655 260.878587,95.7920651 C260.343393,94.2102697 256.953832,89.9406113 255.490968,89.8216793 C256.252133,91.5342999 257.441453,92.8663382 259.070821,93.8059009 C257.814174,95.319589 254.332836,94.5099964 251.720012,94.2207102 C251.864304,93.6913952 251.707354,93.1702684 250.890679,92.7248091 C250.404762,93.3037737 250.051408,93.7299541 249.898977,94.1517895 C249.114653,94.2241367 248.603689,94.5025279 248.569126,95.1736188 C249.028074,95.184292 249.487172,95.1978088 249.946419,95.2136822 C250.052389,95.4736808 250.225319,95.7632801 250.474417,96.1024776 C250.672178,95.8429159 250.918912,95.5576637 251.143699,95.2600705 Z M23.0245135,26.7011778 C21.392075,23.6128921 19.9552151,20.6132831 19.7201943,19.9669759 C18.1522405,23.0553697 17.1893352,18.2781338 15.2674142,18.3610623 L15.2638127,18.3554474 C15.2636893,18.3573781 15.2635664,18.3593091 15.2634442,18.3612405 C15.262378,18.3612902 15.2613115,18.3613414 15.2602447,18.361394 L15.2631476,18.3659197 C14.9359982,23.5752653 18.8098825,31.4765862 21.6385673,35.8622361 C24.7426922,40.6908749 27.1094387,45.8882028 30.9271556,50.2648999 C38.1663679,48.0420219 28.9386518,47.0904003 32.2777869,44.8925867 C32.2792703,44.8940133 32.279128,44.8929057 32.2789855,44.8917981 C32.2803151,44.8909236 32.2816467,44.8900489 32.2829802,44.8891741 L32.2775491,44.8807066 C31.8546405,41.6355441 28.9836241,37.3384185 28.0573267,34.2863873 C27.38144,34.4010467 25.379683,31.0831413 23.5032222,27.5985725 C24.0056986,27.427591 24.4764487,27.3093167 24.846163,27.3574097 C24.6946991,26.3981384 23.9372983,26.4231839 23.0245135,26.7011778 Z M193.136208,211.153405 C193.048656,211.414229 193.042963,211.653108 193.192014,211.841142 C193.88182,211.16323 194.559732,210.520997 195.29711,209.890658 C196.462644,207.654736 193.168228,207.642843 193.192014,208.844056 C194.801117,208.646575 194.138708,209.456656 193.569902,210.336552 C193.655955,209.964783 193.642034,209.512089 193.490533,208.943959 C192.075243,209.502939 190.315049,211.560463 190.124758,213.142258 C191.010506,212.263953 192.40401,211.95862 193.136208,211.153405 Z M190.939944,88.8027844 C191.195712,89.720422 191.369695,90.6619632 191.449884,91.6257803 C191.326048,91.6190306 191.201902,91.6091735 191.077403,91.5961446 C190.982031,91.7868882 190.919124,91.972013 190.889396,92.1512329 C189.457378,91.2036524 190.863089,90.2200182 190.939944,88.8027844 Z M190.821624,88.3988076 C188.271721,86.0940977 183.946738,90.0279083 181.064519,89.114034 C181.837577,91.2548097 184.109178,90.1368491 185.595828,90.4817518 C187.923734,89.7866898 188.89045,92.1108105 190.869488,92.3842886 C190.868509,92.8115162 191.069525,93.2023736 191.483131,93.5526239 C191.427885,94.6910513 191.238824,95.8573879 190.897816,97.0491762 C189.94636,98.4763601 190.790777,99.6537868 190.683738,100.783641 C190.433981,103.126601 188.150487,103.102814 187.080099,104.755969 C187.936409,104.827328 188.542963,104.458639 188.911652,103.673688 C189.292234,104.779755 189.030584,105.743105 188.16238,106.575628 C198.319172,106.932424 195.797814,92.7200518 194.013834,86.7853456 C193.789306,86.0290421 192.41539,82.9596095 190.535486,79.426017 C192.296025,78.3558795 191.724513,76.0700301 190.562972,74.257464 C192.588295,73.4263869 194.52372,72.255897 196.394852,70.8318087 C198.856745,68.9883629 201.164025,66.9308395 203.578345,65.0398209 C209.310866,60.5085121 208.09776,61.0912788 208.799459,54.1337575 C209.62009,46.2247803 214.424942,39.3386182 219.955279,33.9153195 C222.191201,31.7150777 224.581734,29.7051271 227.114985,27.8497881 C226.008918,25.2689639 224.177365,22.9022174 223.273482,21.2014899 C220.371541,26.8745458 216.470572,31.9886213 212.212807,36.7102212 C209.703342,39.4694434 207.051159,42.0978403 204.315723,44.6073053 C204.850917,47.6043914 204.922276,50.7204095 204.244364,53.7174956 C202.408244,62.1337759 195.542768,67.7141483 188.101241,71.6714073 C188.189038,71.2885385 188.260926,70.9435552 188.313424,70.6557894 C188.788996,69.5680447 187.426607,70.5184132 186.133288,72.0567102 C183.113198,67.6778326 179.983379,64.7330084 178.255346,67.5659363 C180.338486,68.1699696 183.087218,71.2750137 183.691096,73.8210969 C182.508995,74.3521096 181.334283,74.8486736 180.184422,75.3155447 C181.379136,75.545208 182.540817,75.6545075 183.672732,75.6543877 C183.477221,76.2127774 183.066224,76.6693543 182.382286,76.9615634 C186.172646,80.0695108 189.454129,83.9454008 190.821624,88.3988076 Z M73.1481564,19.9035874 C73.146804,19.9105682 73.1455658,19.9174263 73.1444435,19.9241604 L75.7371609,13.1926098 C76.6993527,13.95008 74.2256997,17.5443245 73.3963791,19.2591193 L75.7347822,13.1878526 C74.3719514,12.0936567 72.2583247,16.1359152 70.6287972,20.1046038 C68.7537338,20.3621177 67.1360955,21.1183492 66.264228,23.49212 C64.1472386,21.6486742 65.8836456,19.0559569 61.8518512,20.0430924 C59.1784534,20.6796156 56.1744677,23.2029093 53.3643783,22.4809935 C53.2586909,21.5522512 53.1530035,20.6186792 53.0473161,19.6851071 C51.9701429,19.7229026 51.9839777,20.818342 52.1999491,21.9747582 C51.9944025,21.8453756 51.790353,21.6937902 51.5880206,21.517849 C49.1261284,24.8598379 51.730739,28.6537683 53.1817092,31.6627476 C56.8923873,28.0472152 61.2928709,31.9957572 64.7062189,28.7964867 C63.3266079,27.3336233 59.9132598,24.6695467 62.9579187,22.6714893 C64.8013645,24.205712 66.7518491,24.7646923 68.1433534,26.9173613 C68.2582407,25.5578613 68.6574991,24.5091563 69.2596619,23.7041049 C68.66531,25.3904322 68.287513,26.649171 68.2777465,26.8412448 C69.5374322,25.7903468 69.9866765,23.9412251 70.7288831,22.3877509 C72.97137,21.0318589 76.2719239,21.094399 79.0732031,21.2918782 C82.8552404,21.5654218 89.0278106,13.3710078 91.6681007,10.4809605 L84.3181038,9.50571819 C79.3467467,11.4562028 79.4775719,19.3889664 75.778787,19.8290148 C74.8796847,19.9373757 73.9452446,19.9454927 73.0230605,19.9624053 C73.0621437,19.9474885 73.101807,19.9331497 73.1420649,19.9194031 L73.1481564,19.9035874 Z M287.73343,143.559909 C286.829547,149.185392 285.901878,154.810875 285.009888,160.424465 C282.857219,159.734659 286.199208,144.856268 287.73343,143.559909 Z M240.392552,193.618383 C239.809785,196.686828 238.834543,197.543138 237.466825,196.2111 C238.370708,194.890955 238.929689,192.619354 240.392552,193.618383 Z M271.8905,124.616422 C268.405793,125.544091 267.79924,124.009869 266.728852,121.547977 C267.192686,120.299191 272.913315,122.285355 271.8905,124.616422 Z M167.059088,479.194305 C164.228507,479.467849 164.109575,477.541151 166.904477,477.327073 C166.963943,477.957413 167.011515,478.563966 167.059088,479.194305 Z M107.453944,115.138732 C106.871177,114.746256 106.431128,114.865188 106.169478,115.471741 C107.120934,116.042615 110.343991,118.682905 111.580884,117.457905 C110.189379,116.696741 108.821661,115.888003 107.453944,115.138732 Z M248.569126,226.127253 C248.890243,224.819001 247.106263,219.954682 249.318398,219.443275 C249.128107,220.275799 248.664272,228.815116 248.569126,226.127253 Z M107.33739,88.3326508 C106.14807,88.7964855 104.970644,89.2246407 103.781324,89.6884755 C102.996373,87.5833793 106.588119,86.1443022 107.33739,88.3326508 Z M128.174275,172.386644 C127.008741,173.480819 126.033499,174.705818 125.224761,176.097322 C125.938353,176.073536 126.22379,176.382759 126.152431,177.096351 C127.329857,176.002177 128.328886,174.765284 129.101944,173.361887 C128.412139,173.409459 128.102915,173.100236 128.174275,172.386644 Z M110.949355,92.8389838 C113.316101,93.3028186 116.051537,94.8608276 117.28843,97.0016034 C118.239886,92.4108287 111.056393,85.191657 106.703483,88.9380146 C108.642074,90.3533053 109.03455,91.5545184 110.949355,92.8389838 Z M112.00666,410.494432 C111.174136,409.269432 110.936272,407.96118 111.257389,406.54589 C112.589427,404.642978 113.897679,411.802684 112.00666,410.494432 Z M183.736921,129.227415 C184.391047,131.344404 182.297844,132.248288 180.644689,131.617948 C180.406825,130.333482 182.500028,129.964793 183.736921,129.227415 Z M27.2735649,287.892202 C26.559973,287.17861 26.1318178,287.321329 26.0009926,288.320357 C27.1427397,289.414532 28.415312,289.688075 29.8187094,289.152881 C28.9623991,288.736619 28.117982,288.320357 27.2735649,287.892202 Z M125.130805,68.5887514 C124.452893,66.3647232 128.734444,65.8414225 127.247794,68.4579262 C126.498523,68.683897 125.963329,68.1011302 125.130805,68.5887514 Z M95.1658905,311.017338 C93.6316678,309.602047 93.703027,308.258116 95.3561817,306.997437 C95.2134633,308.329475 97.4731711,309.780445 95.1658905,311.017338 Z M228.684887,216.428349 C227.340956,216.035873 228.197266,214.025923 228.363771,212.52738 C229.731489,212.931748 228.851392,214.917913 228.684887,216.428349 Z M143.737715,75.022972 C144.415627,76.0933599 145.081646,77.1518546 145.759558,78.2341357 C143.487957,78.971514 140.050823,77.1399614 143.737715,75.022972 Z M246.641239,240.145766 C244.369638,244.296492 241.646095,238.219068 245.178375,238.920767 C245.665997,239.337029 246.153618,239.729504 246.641239,240.145766 Z M24.8747067,86.2311226 C26.2899973,85.8029674 28.0858704,89.2876747 26.5516477,89.6444706 C25.9926674,88.5027235 25.433687,87.3847628 24.8747067,86.2311226 Z M165.107414,109.993734 C168.473189,109.12553 171.838965,108.257327 175.216633,107.353444 C175.490177,108.483298 166.035084,111.932325 165.107414,109.993734 Z M244.574201,146.289398 C245.525657,145.111971 247.380996,141.234789 248.939005,142.507361 C247.939976,143.672894 246.13221,147.526291 244.574201,146.289398 Z M129.776288,184.674697 C131.38187,184.210863 130.751531,189.313045 129.324347,188.432948 C129.490852,187.184162 129.609784,185.923483 129.776288,184.674697 Z M52.2147922,344.013829 C51.3228023,345.333974 47.6478038,341.135675 49.0987741,340.422083 C50.1334824,341.623296 51.1800839,342.800723 52.2147922,344.013829 Z M185.549444,211.422502 C184.383911,213.396773 181.113281,210.625657 184.039008,209.947745 C184.71692,210.34022 184.645561,211.137065 185.549444,211.422502 Z M71.6351966,201.899617 C70.1723331,202.755928 68.2218485,197.48724 71.2189346,198.010541 C71.9206333,199.56855 70.8383522,200.294035 71.6351966,201.899617 Z M100.740233,127.879916 C100.13368,128.0821 99.5033401,128.260498 98.9086802,128.462682 C98.8848938,130.448847 99.6698449,130.853215 101.299213,129.687682 C101.108922,129.104915 100.930524,128.498362 100.740233,127.879916 Z M171.821125,259.738622 C170.334475,260.535466 169.097582,259.702942 168.027195,257.847603 C170.120398,255.694934 172.166028,257.704885 171.821125,259.738622 Z M207.663658,126.765523 C204.761718,127.966736 204.571427,125.659455 202.716088,125.492951 C202.716088,122.234214 208.555648,122.531544 207.663658,126.765523 Z M25.2992939,303.282001 C24.5500224,303.900448 23.812644,304.483214 23.0633725,305.065981 C24.0029352,305.672534 25.6441967,310.132484 27.3687105,308.907484 C26.9405553,306.945107 26.2507498,305.054088 25.2992939,303.282001 Z M57.1742561,210.528133 C56.8888193,209.969153 56.6033826,209.410172 56.3060526,208.839299 C54.3198884,209.148522 54.058238,210.016725 55.4973151,211.40823 C56.0562954,211.122793 56.6152758,210.837356 57.1742561,210.528133 Z M264.620188,314.96588 C259.375287,316.321705 266.534993,308.365155 258.126501,313.205687 C260.743005,315.346462 256.925288,316.250345 258.840093,318.272189 C260.326743,316.654714 264.786692,318.070005 264.620188,314.96588 Z M276.420619,63.6637778 C276.206542,67.029553 279.9529,67.2436306 280.226443,63.9135349 C278.965764,63.8302825 277.693192,63.7470301 276.420619,63.6637778 Z M52.7143065,41.2950494 C48.8965897,38.523934 55.2594511,36.5853426 54.117704,40.0224771 C53.6657624,40.4506323 53.1781413,40.8668942 52.7143065,41.2950494 Z M26.6230069,160.912086 C24.7319883,162.493881 15.5266524,165.217424 12.9101487,164.670337 C17.1441274,162.517668 21.7586886,160.567183 26.6230069,160.912086 Z M216.00198,314.280832 C214.598583,316.231316 221.829647,316.397821 223.197365,317.349277 C221.068483,319.454373 224.196394,326.126458 226.658286,326.388108 C232.367022,326.982768 219.070425,334.974998 217.143727,335.974026 C204.965092,342.408247 191.264126,346.273537 185.127236,359.915036 C188.362186,361.056783 192.025291,361.86552 195.379173,360.521589 C193.262184,361.710909 192.964854,362.650471 194.403931,363.35217 C195.438639,361.00921 198.721162,359.177657 200.302958,357.120134 C198.126502,355.490766 192.286942,360.236152 189.872622,355.169649 C194.570436,349.425234 200.671647,344.79878 207.272372,341.421111 C209.175284,340.469656 220.854405,334.677668 222.376735,335.771842 C225.599791,331.478397 229.57212,327.791506 232.854643,323.462381 C228.989353,324.770633 221.698822,320.560441 225.11217,316.421607 C224.113142,316.076705 217.345911,313.686172 216.00198,314.280832 Z M189.568156,26.2537208 C185.893158,24.9454689 181.920829,26.0515364 178.162579,25.5639153 C182.158693,24.1605178 185.988303,24.0415858 189.568156,26.2537208 Z M24.1254352,220.841915 C23.578348,221.638759 23.0669405,222.42371 21.9846594,222.471283 C19.7725244,222.16206 22.6625717,219.961818 24.1254352,220.841915 Z M126.780392,208.775075 C125.757577,207.383571 125.400781,205.801776 125.638645,204.065369 C125.246169,208.834541 121.916073,212.485753 122.379908,217.469004 C125.198596,216.981383 123.485976,209.524347 126.780392,208.775075 Z M39.0621036,77.5776311 C38.7172008,75.0443797 44.5091887,75.0443797 44.4259363,72.1186528 C41.5358889,72.9749631 39.5854043,75.0205933 36.457493,75.3417097 C32.0570095,76.6023888 36.5883182,78.2674366 39.0621036,77.5776311 Z M119.695613,113.826912 C118.446827,110.627641 116.091974,117.692201 117.971099,117.359192 C119.326924,117.121328 119.862118,114.243174 119.695613,113.826912 Z M107.964162,136.173043 C108.130667,136.886635 108.178239,137.564547 108.118773,138.290033 C109.165375,137.576441 111.020714,136.732023 109.605423,135.197801 C109.070229,135.518917 108.511249,135.86382 107.964162,136.173043 Z M122.413209,42.0264811 C122.710539,41.8242967 135.555194,43.5607038 133.057622,38.9342494 C131.011992,40.3019673 127.681896,39.148327 127.574857,36.4485708 C126.385537,38.4704146 121.48554,38.8628902 122.413209,42.0264811 Z M80.9261635,61.6431233 C81.2472799,63.9860834 87.4555297,71.1695755 82.1987358,70.2894788 C82.8647549,72.0496723 87.8836848,77.2232138 89.5606259,73.5482153 C88.371306,73.1795261 88.5140244,70.2537992 88.5140244,69.5045277 C88.4545584,65.9008885 89.9531014,60.1207938 88.2166944,56.8025913 C88.4069856,57.4686105 88.8232475,57.6470085 89.4298007,57.3496785 C87.71718,53.7698256 86.4327146,55.8987082 83.649706,55.5062327 C86.1234914,59.8829298 82.8528617,59.0860855 80.9261635,61.6431233 Z M41.9652334,319.796897 C37.2555267,322.092285 44.0465432,329.28767 40.6807679,330.393737 C36.9344103,331.63063 41.9057674,346.770672 42.7145049,349.232564 C43.9513976,353.002708 60.364012,385.126239 66.6198346,372.150759 C63.7178941,370.664109 58.6157118,365.894936 54.976393,367.667023 C57.9734791,362.017753 48.1378036,353.680621 45.6640183,346.592274 C42.6669322,337.981598 42.0365926,328.823835 41.9652334,319.796897 Z M287.338576,257.566924 C284.876684,258.268622 282.391005,258.304302 279.929113,257.685856 C281.082753,256.639254 286.363334,256.817652 287.338576,257.566924 Z M174.979959,58.043052 C175.681657,57.9122268 176.335783,57.7219356 176.978016,57.3651396 C179.487481,60.6833421 170.103747,60.4930509 171.364426,57.7932948 C172.541853,57.2105281 173.731173,57.2818873 174.979959,58.043052 Z M262.529363,65.5690682 C262.695868,67.3411548 262.719654,68.1023196 262.172567,69.7673674 C262.862373,70.5879981 263.37378,70.4452797 263.730576,69.3511054 C263.659217,69.3748918 263.385674,71.7297452 263.480819,71.9795024 C263.266742,71.420522 268.678147,61.430235 262.993198,60.7642159 C262.969412,61.2994098 260.781063,65.6642138 262.529363,65.5690682 Z M232.355128,413.294091 C232.937895,412.889722 233.568235,412.580499 234.269933,412.378314 C233.877458,411.450645 233.318478,410.606228 232.581099,409.892636 C231.65343,411.010597 231.582071,412.128557 232.355128,413.294091 Z M268.012128,139.192726 C272.186641,136.469184 270.497806,134.518699 273.161883,131.937875 C274.93397,130.189575 274.113339,132.675253 275.647562,131.105351 C276.575231,130.142002 277.015279,126.371858 276.444406,126.883266 C274.030086,129.0954 268.13106,135.684233 268.012128,139.192726 Z M270.776107,113.501038 C269.265671,113.95298 267.731448,114.404921 266.221012,114.856863 C266.530235,114.607106 271.775136,110.456379 270.776107,113.501038 Z M172.540664,32.0373834 C172.778527,33.6429652 173.289935,35.3793723 172.362266,36.8779153 C175.490177,34.6538871 173.646731,29.8490348 176.596244,27.5179678 C174.752798,28.1126278 174.074886,31.6449078 172.540664,32.0373834 Z M144.527423,33.0601985 C143.647326,34.1305864 143.801938,35.0106831 145.015044,35.7123818 C140.899997,38.8878659 142.838589,29.5992776 145.597811,31.5021894 C145.264801,32.013597 144.872326,32.5368977 144.527423,33.0601985 Z M213.679238,45.2435914 C216.628752,45.9690765 213.845743,48.2644639 213.286763,49.4537838 C216.21249,51.3448024 214.523655,44.3516015 216.795256,43.8401939 C215.308607,42.3654373 214.357151,44.1969899 213.679238,45.2435914 Z M29.5201902,357.579211 C28.556841,357.269988 25.6311141,360.255181 23.8114547,359.648628 C24.1325711,358.780424 30.6619372,354.165863 29.5201902,357.579211 Z M167.68586,101.88733 C166.663045,100.127136 165.949453,97.4749527 168.102122,96.3688852 C167.899937,95.6671865 169.683917,105.586114 167.68586,101.88733 Z M67.0931839,249.332073 C69.8405129,251.33013 67.6759507,247.298336 67.7235235,246.870181 C67.9257079,244.812657 66.5104172,240.507319 62.787846,237.712418 C61.6698853,242.148581 66.3914852,245.276492 67.0931839,249.332073 Z M181.879203,120.795137 C184.5076,116.251935 190.12119,113.694897 193.035024,108.557035 C195.99643,110.76917 185.13794,121.746593 181.879203,120.795137 Z M207.128464,172.270091 C206.224581,171.948975 205.641815,172.198732 205.392057,173.031256 C206.391086,172.93611 207.235503,173.26912 207.901522,174.006498 C205.261232,175.148245 205.43963,176.278099 203.049097,177.170089 C203.715116,178.632952 205.974824,177.966933 207.306862,177.384166 C203.619971,174.601158 214.716325,174.315721 214.062199,173.851886 C213.170209,173.221547 208.543755,171.675431 207.128464,172.270091 Z M266.408925,317.83452 C267.336594,317.632335 268.264264,317.46583 269.191933,317.275539 C268.942176,315.253695 265.267178,317.442044 264.339508,317.299326 C265.01742,322.139857 271.748971,327.337185 275.079067,330.548349 C282.179306,337.493977 286.306246,346.830138 293.180515,353.977951 C292.990224,348.756837 284.926635,340.395918 281.679792,336.601987 C276.446784,330.44131 270.726156,324.696895 266.408925,317.83452 Z M232.820153,240.063703 C230.215542,238.196471 229.16894,239.920985 226.980592,238.660306 C228.657533,238.458121 236.340539,234.462006 232.820153,240.063703 Z M283.017777,180.331301 C281.067292,179.51067 283.969233,176.727662 281.531127,175.823779 C281.043506,177.286642 280.65103,181.377903 282.13768,183.04295 C282.423117,182.150961 282.720447,181.235184 283.017777,180.331301 Z M81.1354838,130.528531 C83.5022304,130.956686 77.079903,135.95183 76.4257771,136.77246 C73.6189821,135.487995 81.1949498,130.469065 81.1354838,130.528531 Z M78.4642713,394.396987 C79.701164,393.8499 80.5336879,392.32757 79.8082028,391.245289 C77.2868447,393.980725 69.4849062,385.810097 68.3074795,384.026118 C65.0606363,386.226359 77.3463107,392.743832 78.4642713,394.396987 Z M86.1877147,356.406542 C86.3661127,358.309454 85.6168411,359.700958 83.9399001,360.581055 C83.273881,358.594891 84.4513076,356.680086 86.1877147,356.406542 Z M95.3978079,419.589161 C94.2798472,420.445471 94.6485363,420.754694 96.4444094,420.51683 C100.143194,419.731879 96.301691,416.199599 96.420623,414.165862 C95.0766915,416.901298 96.8606713,417.567317 95.3978079,419.589161 Z M288.011731,113.687761 C289.748138,112.997956 291.341827,113.307179 292.566826,115.031693 C291.734302,115.329023 284.860033,114.793829 288.011731,113.687761 Z M76.4662139,339.7632 C73.5167006,340.797908 75.5385444,344.11611 71.6375752,343.450091 C73.9091762,345.317323 69.2470422,346.209313 69.9725274,347.624604 C70.8645173,349.361011 78.202621,340.464898 78.7616013,338.395482 C77.5960678,338.359802 76.7159711,338.704705 76.4662139,339.7632 Z M72.2155847,253.652872 C74.2017489,259.099957 83.1692208,263.310149 87.4983452,261.8235 C84.1563563,258.766947 74.8558748,259.337821 77.3296602,253.379328 C78.6616984,253.902629 79.7677659,253.605299 80.6121831,252.487338 C78.1740773,254.1286 74.1779625,250.929329 72.2155847,253.652872 Z M37.992905,374.733961 C37.3744587,373.449496 37.1722743,371.30872 35.8640224,371.451439 C35.1147509,373.009448 35.8283428,375.185903 37.992905,374.733961 Z M194.840411,260.052602 C195.601576,259.481729 196.374634,258.922748 197.123906,258.351875 C196.588712,255.307216 192.081189,258.661098 194.840411,260.052602 Z M245.456676,423.676853 C247.038472,425.984134 255.078274,427.82758 253.139683,422.273456 C250.772936,422.796757 248.870024,424.081222 245.456676,423.676853 Z M243.110148,130.540424 C243.348012,132.134113 244.251895,132.788239 245.476895,133.01421 C246.571069,131.420521 246.226166,129.14892 243.110148,130.540424 Z M225.038433,244.767463 C223.313919,246.741734 225.25251,250.535665 226.834306,248.382996 C225.181151,247.69319 227.202995,245.183725 225.038433,244.767463 Z M219.021663,362.039161 C215.834286,360.10057 212.373365,362.431637 214.609286,366.106635 C216.797635,363.811248 216.940353,366.546683 217.915596,367.938188 C219.04545,366.475324 217.844237,364.108578 219.021663,362.039161 Z M276.235086,298.844649 C274.724649,297.072562 273.356931,295.288582 273.535329,293.730573 C269.896011,295.692951 274.09431,299.558241 276.235086,298.844649 Z M118.696584,28.9713167 C116.091974,27.0565117 114.379353,28.4004432 112.357509,28.6383072 C114.819402,30.006025 117.328867,31.5640341 118.696584,28.9713167 Z M171.448868,146.579592 C171.353722,148.649009 172.328965,149.552892 174.398381,149.303135 C174.493527,147.245611 173.494498,146.329835 171.448868,146.579592 Z M247.059879,245.081444 C247.012307,247.864452 245.061822,247.043821 244.776385,249.327316 C248.284879,250.992363 248.796287,246.472948 247.059879,245.081444 Z M140.438541,403.758124 C138.904319,405.328026 134.491942,403.770017 134.587087,406.874142 C139.855774,405.672929 132.446312,413.403508 140.997522,408.83652 C138.440484,406.600598 142.29388,405.839434 140.438541,403.758124 Z M225.4095,342.83997 C227.359985,342.364242 227.550276,341.507932 226.027947,340.211573 C224.077462,340.687301 223.875278,341.579291 225.4095,342.83997 Z M147.360383,453.073273 C150.060139,450.68274 146.825189,448.732255 149.084897,446.389295 C149.584411,447.269392 150.25043,447.994877 151.059168,448.625216 C152.712322,446.139538 149.417906,445.247548 152.29606,442.761869 C150.678585,441.560656 140.783444,442.535899 144.030287,445.62813 C145.647762,442.309928 146.028345,446.199004 147.788538,446.710411 C146.301888,448.613323 144.506015,449.564779 143.602132,451.943419 C144.850918,452.371574 146.087811,452.752156 147.360383,453.073273 Z M183.621557,142.711924 C184.644372,141.903186 185.690973,141.118235 186.761361,140.416536 C184.180537,138.251974 182.134907,139.465081 183.621557,142.711924 Z M252.843542,488.589933 C256.423395,487.91202 262.46514,483.083381 262.584072,478.992121 C259.408588,481.620518 262.013198,475.697705 261.715868,474.353774 C259.253976,477.481685 258.861501,485.414448 254.353978,486.365904 L252.843542,488.589933 Z M173.656246,375.036049 C172.466926,373.573185 172.895081,371.479982 174.143867,369.041876 C175.214255,370.552313 173.513527,373.156923 173.656246,375.036049 Z M93.0750661,283.304995 C88.4723982,284.208878 94.2881724,279.844074 94.3476384,279.273201 C93.4199689,279.094803 89.6973977,281.116647 89.4952133,279.094803 C91.4932707,278.7499 95.5845311,277.334609 95.5845311,280.985822 C93.8243376,281.152326 92.8134157,281.461549 93.0750661,283.304995 Z M183.156533,421.098408 C184.714542,422.644524 185.083231,420.158845 186.569881,420.931903 C186.819638,420.444282 181.301194,417.221225 180.397311,418.351079 C181.836388,418.814914 182.740271,419.706904 183.156533,421.098408 Z M10.5885962,404.780939 C11.9444209,408.83652 11.8611685,412.214188 9.22087837,415.805934 C10.992965,415.758361 12.0990325,416.900109 13.8592259,417.102293 C14.6917498,413.617586 13.145634,404.138706 9.75607232,402.235794 C9.61335393,403.211037 9.87500431,404.07924 10.5885962,404.780939 Z M241.995755,306.277898 C241.995755,307.598043 241.091872,308.359208 241.948183,310.190761 C239.724154,310.476197 240.41396,306.242219 241.995755,306.277898 Z M203.83048,195.12763 C205.757179,198.112823 207.386547,203.440976 208.706692,206.806751 C210.121983,202.715491 202.546015,197.863066 206.708634,194.23564 C205.590674,193.950203 204.639218,194.247533 203.83048,195.12763 Z M295.51515,301.817949 C291.863938,302.745618 291.756899,305.052899 289.984813,307.764548 C287.344523,302.436395 294.837238,300.509697 295.51515,301.817949 Z M291.611802,396.650748 C294.489956,397.99468 285.91496,400.849047 288.935833,395.65172 C289.863502,395.960943 290.731706,396.317739 291.611802,396.650748 Z M205.897518,99.9011653 C208.965964,98.925923 210.77373,100.317427 213.913534,97.6890303 C215.79266,96.1191281 215.935378,93.5620903 217.766931,91.9565085 C220.882949,97.4154867 208.454556,104.277862 205.897518,99.9011653 Z M256.884851,368.892022 C255.588492,367.714595 254.125629,366.893965 252.472474,366.358771 C252.56762,367.072363 252.793591,367.714595 253.150387,368.356828 C252.317863,368.130857 251.63995,368.356828 251.128543,369.046634 C252.769804,368.987168 256.325871,372.721632 256.884851,368.892022 Z M197.32609,148.483693 C198.075361,144.90384 199.835555,148.091218 201.179486,149.137819 C200.52536,147.163548 202.832641,144.01185 199.811768,143.536123 C199.573904,144.868161 194.602547,147.163548 197.32609,148.483693 Z M94.6782693,95.1153421 C97.0212295,97.6367002 100.577296,93.4384011 101.171956,98.278933 C100.2205,97.6485934 99.2928305,96.9825743 98.4008406,96.2570892 C98.3294814,98.7427677 94.5474441,98.1837874 94.6782693,95.1153421 Z M97.0473945,163.164658 C96.238657,163.640386 95.3109875,164.294512 94.621182,164.627521 C93.3961825,162.641357 95.5369583,161.130921 97.0473945,163.164658 Z M144.433467,103.837814 C145.016233,105.431503 147.109436,105.657474 148.286863,104.979561 C144.588078,104.706018 148.798271,99.8773789 145.587107,99.9725245 C146.728854,101.708932 146.336378,102.993397 144.433467,103.837814 Z M202.111913,457.382179 C204.264582,455.051112 204.47866,457.750868 205.477688,459.118586 C208.225017,455.110578 203.455845,453.754753 201.659972,456.002568 C201.814583,456.466402 201.945408,456.918344 202.111913,457.382179 Z M141.554123,61.9797008 C143.552181,62.229458 145.11019,61.5277592 146.240044,59.898391 C142.933734,60.1243618 141.530337,54.5107719 138.890047,54.6772767 C139.330095,54.6415971 142.624511,60.017323 141.554123,61.9797008 Z M182.203888,29.5992776 C183.012625,29.741996 183.524033,30.2534036 183.690537,31.0978207 C184.380343,30.9432091 184.570634,30.5507335 184.308984,29.9085008 C186.473546,30.217724 182.417965,33.7975768 182.203888,29.5992776 Z M127.894784,63.6637778 C129.214929,62.4268851 130.749152,61.9273707 132.497452,62.1890211 C130.89187,63.1285838 129.107891,65.7926603 127.894784,63.6637778 Z M254.306406,15.6497447 C254.47291,16.7558122 257.838686,20.1096943 255.983347,21.1800822 C255.281648,19.8004711 252.498639,16.5536278 254.306406,15.6497447 Z M100.647466,190.784234 C99.7673691,191.937874 99.0894568,194.328407 97.6028069,193.222339 C97.9120301,192.841757 99.6246507,189.58302 100.647466,190.784234 Z M267.315186,269.983423 C266.554022,270.173714 263.390431,271.49386 263.414217,269.876385 C264.781935,269.091433 266.078294,269.139006 267.315186,269.983423 Z M286.03746,128.844454 C283.016588,129.986201 281.720229,128.226008 279.841103,127.464843 C282.83819,126.323096 284.158335,128.095182 286.03746,128.844454 Z M17.2261905,63.1059867 C17.915996,63.2249187 18.1300736,63.6173943 17.8922096,64.2715202 C18.8793452,63.4627827 24.9210902,59.3477359 21.6623537,57.4091445 C19.2956071,58.2297752 18.3798308,61.2149681 17.2261905,63.1059867 Z M60.7517303,161.422304 C62.404885,160.340023 68.208766,156.962355 70.242503,158.591723 C67.2573101,160.007014 64.0580396,161.113081 60.7517303,161.422304 Z M287.45394,420.099379 C289.333065,421.597922 282.506369,423.00132 284.504427,419.564185 C285.432096,420.099379 286.645203,421.324379 287.45394,420.099379 Z M92.6338284,87.6476025 C91.3850426,90.3711451 89.4107716,93.237406 89.6010627,95.568473 C91.8013045,92.940076 91.7299453,97.1502684 91.7775181,98.2325495 C93.9064007,95.568473 92.9311584,90.6209022 92.6338284,87.6476025 Z M222.181686,224.55854 C220.861541,223.833055 220.504745,223.07189 220.552318,221.537667 C221.86057,222.1799 222.395764,223.178929 222.181686,224.55854 Z M167.68586,117.217663 C168.387558,119.429798 165.223968,120.40504 163.975182,118.490235 C165.057463,117.598245 166.294355,117.181983 167.68586,117.217663 Z M190.962039,446.417839 C189.011555,445.490169 186.942138,445.180946 187.548691,442.635802 C188.821263,443.004491 191.330728,445.668567 190.962039,446.417839 Z M77.1512622,166.405555 C76.663641,165.799001 73.8449529,163.26575 74.867768,162.171576 C75.5694667,162.908954 79.0898536,163.872303 77.1512622,166.405555 Z M125.269955,246.405157 C125.055878,245.715351 124.663402,245.560739 124.033063,245.869963 C124.128208,247.451758 124.901266,248.522146 126.280877,249.05734 C125.947868,248.153457 125.614858,247.27336 125.269955,246.405157 Z M244.22573,177.206958 C247.448787,182.071276 250.517232,185.663022 255.536162,188.707681 C258.509462,187.803798 253.002911,183.213023 256.90388,186.031711 C255.310192,180.965209 249.80364,173.4606 243.595391,175.185114 C243.345633,175.993851 243.547818,176.671764 244.22573,177.206958 Z M195.212668,190.052802 C197.436697,190.540423 196.949075,192.490908 198.923346,193.145034 C197.377231,194.714936 194.499077,191.242122 195.212668,190.052802 Z M255.770458,376.638063 C255.960749,378.30311 253.237207,378.160392 252.261965,378.37447 C253.035023,377.054325 254.188663,376.471558 255.770458,376.638063 Z M162.367221,87.0898115 C161.070863,86.34054 160.39295,85.2106861 160.321591,83.7597158 C160.928144,84.366269 163.175959,85.9956372 162.367221,87.0898115 Z M270.566787,184.988678 C271.17334,185.095717 271.80368,185.202755 272.410233,185.286008 C272.719456,183.169018 269.020671,183.502028 268.687662,184.679455 C269.318001,184.7746 269.936447,184.893532 270.566787,184.988678 Z M164.85171,164.10541 C166.659477,164.248128 166.064817,171.217543 166.088603,171.657591 C164.364089,171.479193 164.875497,165.104439 164.85171,164.10541 Z M275.816445,70.2264449 C277.207949,71.1779008 278.980036,72.4504731 278.742172,74.4366373 C276.910619,73.5803269 275.935377,72.1888227 275.816445,70.2264449 Z M189.405219,326.081264 C192.449878,326.73539 193.615412,326.164516 192.913713,324.344857 C191.962257,324.91573 187.204978,324.368643 187.54988,326.473739 C188.168327,326.354807 188.798666,326.223982 189.405219,326.081264 Z M109.218894,382.481191 C111.609427,381.934104 110.872049,385.026336 111.35967,386.834102 C109.290253,387.702305 108.564768,386.251335 109.218894,382.481191 Z M90.7059409,179.819894 C86.8287581,178.725719 82.9634685,178.832758 79.0030333,179.118195 C79.3360428,171.125965 90.9200185,179.24902 90.7059409,179.819894 Z M292.26236,393.931963 C292.797554,393.634633 293.368428,393.313517 293.903622,392.9924 C292.904593,391.20842 291.310904,392.290702 289.669643,393.242157 C290.561633,393.313517 291.429836,393.563274 292.26236,393.931963 Z M67.9875525,45.5563825 C70.7943474,43.0944904 73.6606083,42.9279856 76.4079373,40.8347826 C77.8589075,42.5830828 69.4623091,47.2927895 67.9875525,45.5563825 Z M126.826775,256.463235 C125.994251,256.023186 125.137941,255.583138 124.305417,255.14309 C122.949592,256.308623 122.628476,257.581196 123.365854,258.948913 C124.840611,259.947942 126.707843,257.688234 126.826775,256.463235 Z M19.2480343,219.693032 C17.9041028,218.408567 26.1579828,210.844492 27.5851667,209.298376 C28.917205,210.642308 20.7346842,218.075557 19.2480343,219.693032 Z M58.9689398,265.000173 C60.4555897,267.319347 66.2713639,276.239246 69.9225759,272.968616 C74.1327683,269.198472 70.6837407,265.000173 68.6737901,261.087311 C66.877917,257.566924 66.4378687,248.991927 60.4318033,255.889983 C58.861901,257.697749 57.7558335,260.100175 57.3514648,262.466922 C58.0769499,262.799931 61.5735504,266.165706 58.9689398,265.000173 Z M75.0378408,287.439071 C75.3470639,288.342954 75.6562871,289.234944 75.9774035,290.150721 C76.3817722,289.567954 76.8812866,289.056546 77.4640533,288.640284 C76.3223062,287.819654 75.6206075,286.725479 75.3232775,285.357761 C74.7405108,285.964315 74.6453652,286.6898 75.0378408,287.439071 Z M186.129832,109.459729 C183.453863,109.804632 182.906776,110.803661 184.500464,112.480602 C185.665998,110.125748 188.615511,109.233758 190.756287,108.103905 C190.268666,106.236672 185.344881,109.887884 186.129832,109.459729 Z M4.39223964,185.035061 C3.91651169,184.238217 -0.127175917,182.834819 1.25243515,181.336276 C1.39515353,181.550354 6.9017046,187.009332 4.39223964,185.035061 Z M268.592516,164.373007 C268.009749,162.446309 272.243728,162.220338 273.730378,161.720824 C274.336931,163.647522 269.995913,163.921065 268.592516,164.373007 Z M110.427243,69.1691395 C108.286467,68.0868584 106.573847,68.5625864 105.265595,70.632003 C107.679914,72.4635556 109.380642,71.9640412 110.427243,69.1691395 Z" id="uE011-d1" fill="#000"/></g></svg>