<?xml version="1.0" encoding="UTF-8"?>
<svg width="137px" height="500px" viewBox="0 0 137 500" version="1.1" xmlns="http://www.w3.org/2000/svg" xmlns:xlink="http://www.w3.org/1999/xlink">
    <!-- Generator: Sketch 43.1 (39012) - http://www.bohemiancoding.com/sketch -->
    <title>uE012-e2</title>
    <desc>Created with Sketch.</desc>
    <defs></defs>
    <g id="Page-1" stroke="none" stroke-width="1" fill="none" fill-rule="evenodd">
        <path d="M0,0 L136.500301,0 L136.500301,65.2435358 L85.3878533,65.2435358 L85.3878533,192.723993 L136.500301,192.723993 L136.500301,258.568851 L85.3878533,258.568851 L85.3878533,434.155141 L136.500301,434.155141 L136.500301,500 L0,500 L0,0 Z M65.4104816,187.470693 L65.4104816,187.457989 C66.8587881,186.022387 66.1346349,184.57408 63.2507262,183.138478 L61.0909708,185.298233 C60.3541131,186.74654 61.0909708,188.194847 63.2507262,189.630449 L65.4104816,187.470693 Z M58.9058066,27.5852736 C59.6299599,26.1369671 58.9058066,24.6886605 56.7460512,23.240354 L54.5862958,25.4255182 C53.8494381,26.8611203 54.5862958,28.3094269 56.7460512,29.745029 L58.9058066,27.5852736 Z M48.7930697,118.739655 L48.7930697,118.739655 L48.8057741,118.739655 C50.2413762,119.463808 51.6896828,118.739655 53.1252849,116.567195 L50.952825,114.394735 C49.5172229,113.670582 48.0689164,114.394735 46.6333143,116.579899 L48.7930697,118.739655 Z M49.5172229,369.779456 C51.6769783,368.331149 53.1252849,366.882842 51.6769783,365.434536 C50.9655295,364.710383 50.2413762,363.262076 49.5172229,363.262076 C47.3574676,364.710383 46.6206099,366.158689 47.3574676,367.606996 L49.5172229,369.779456 Z M45.9218655,60.8455063 L45.909161,60.8455063 L45.909161,47.1247075 C39.4171905,42.7797879 39.4171905,42.7797879 32.1883622,47.1247075 L32.1883622,60.8455063 C38.6803327,65.9272837 38.6803327,65.9272837 45.9218655,60.8455063 Z M44.4735589,437.773636 L44.4608545,437.773636 C45.9218655,436.32533 45.1977122,434.15287 42.3010991,433.428717 L40.1413437,435.601177 C39.4171905,437.049483 40.1413437,438.485085 42.3138036,439.933392 L44.4735589,437.773636 Z M21.351472,196.135124 L21.351472,196.135124 C23.5112274,194.686817 24.2353806,193.238511 23.5112274,191.790204 C22.7870741,191.066051 22.0629208,189.630449 21.3387676,189.630449 C19.1790122,191.066051 17.7307056,192.514357 19.1790122,193.975368 L21.351472,196.135124 Z M14.1099393,286.565352 L14.1226437,286.565352 C16.2823991,285.117045 17.7307056,283.668738 16.2823991,282.220432 C16.2823991,281.508983 14.846797,280.060677 14.1099393,280.060677 C11.9501839,281.508983 11.2260306,282.944585 11.9501839,284.405596 L14.1099393,286.565352 Z" id="uE012-e2" fill="#000000"></path>
    </g>
</svg>