<svg width="159" height="497" viewBox="0 0 159 497" version="1.1" xmlns="http://www.w3.org/2000/svg" xmlns:xlink="http://www.w3.org/1999/xlink"><title>uE016-r1-thin</title><desc>Created with Sketch.</desc><g id="Page-1" stroke="none" stroke-width="1" fill="none" fill-rule="evenodd"><path d="M149.157061,25.0616365 C150.462379,28.0265773 151.629376,31.4906639 152.658053,35.4539005 C152.452521,35.7453273 152.319085,36.03102 152.319085,36.2499946 C151.743992,37.4001799 152.08927,39.002477 153.723155,39.9650952 C156.838213,54.4798466 158.395728,74.6152593 158.395728,100.371497 L158.395728,176.101968 C158.395728,196.773906 156.060232,212.625467 151.389169,223.657126 C146.718106,234.688785 138.916554,243.484165 127.984279,250.04353 C139.115323,256.006589 146.966566,263.857832 151.538245,273.597496 C156.109923,283.337159 158.395728,299.437177 158.395728,321.898032 L158.395728,496.614788 L90.7153467,496.614788 L90.7153467,301.325581 C90.7153467,294.964985 89.3239871,290.393375 86.5412262,287.610614 C83.7584653,284.827853 79.1868553,283.436494 72.826259,283.436494 L68.0558356,283.436494 L68.0558356,496.614788 L0.375454003,496.614788 L0.375454003,0.788908766 L90.1190437,0.788908766 C117.350347,0.788908766 135.537404,6.35434705 144.680761,17.4853906 C145.479721,18.4580377 146.243774,19.5566511 146.972919,20.7812311 L145.157379,22.6074502 C144.426078,24.0448347 145.157379,25.4822193 147.300847,26.9069951 L149.157061,25.0616365 Z M68.0558356,52.667263 L68.0558356,224.700656 C69.0496788,225.098193 69.9441242,225.34665 70.7391988,225.446035 C71.5342733,225.545419 72.6274844,225.59511 74.0188649,225.59511 C79.5843866,225.59511 83.7584653,224.004985 86.5412262,220.824687 C89.3239871,217.644389 90.7153467,212.874013 90.7153467,206.513417 L90.7153467,78.3082886 C90.7153467,66.5809392 89.5227528,59.3756843 87.1375291,56.6923077 C84.7523055,54.0089311 79.9819299,52.667263 72.826259,52.667263 L68.0558356,52.667263 Z M114.304046,121.686113 L114.304046,121.686113 L114.316655,121.686113 C117.897508,120.98003 115.741431,116.655268 116.460123,113.793107 C110.004502,108.762261 110.004502,108.762261 102.842796,113.074415 L104.986264,115.230492 L107.129732,117.37396 C109.285809,118.811344 110.723194,123.123498 114.304046,121.686113 Z M46.1669764,327.030363 C51.1852137,332.061208 55.4973672,332.061208 60.5156044,327.030363 C55.4973672,322.730818 51.1852137,322.730818 46.1669764,327.030363 Z M44.0235083,267.441948 L44.0235083,267.429339 C44.0235083,267.429339 46.1669764,266.004563 46.1669764,265.285871 C44.7295919,264.567179 44.0235083,262.411102 42.5861238,261.69241 C39.7113547,260.255025 38.2865788,261.69241 39.7113547,264.567179 C40.430047,266.004563 42.5861238,266.723256 44.0235083,267.441948 Z M36.130502,262.411102 L36.130502,262.411102 C36.8491943,262.411102 38.9926624,263.129794 38.9926624,262.411102 C39.7113547,260.255025 38.9926624,258.817641 37.5678866,257.392865 C36.130502,255.236788 34.6931175,255.236788 33.255733,258.111557 C33.255733,258.817641 33.9870339,259.536333 33.9870339,260.267634 L36.130502,262.411102 Z M38.2739702,300.463966 C38.9926624,299.745274 38.2739702,297.589197 36.130502,296.164421 L33.9870339,298.307889 C33.255733,299.745274 33.9870339,301.182658 36.130502,302.620043 L38.2739702,300.463966 Z M29.6748803,81.4771726 C33.255733,79.3337045 33.255733,71.4280896 29.6748803,70.0033137 L27.5314121,70.0033137 C23.9379508,72.1467818 23.9379508,80.0397881 27.5314121,81.4771726 L29.6748803,81.4771726 Z" id="uE016-r1-thin" fill="#000"/></g></svg>