<svg width="176" height="497" viewBox="0 0 176 497" version="1.1" xmlns="http://www.w3.org/2000/svg" xmlns:xlink="http://www.w3.org/1999/xlink"><title>uE013-a1-thin</title><desc>Created with Sketch.</desc><g id="Page-1" stroke="none" stroke-width="1" fill="none" fill-rule="evenodd"><path d="M19.3900124,238.651133 C20.3380057,237.719157 20.477393,236.78556 20.0173775,235.857314 C19.9003919,235.740329 19.7695359,235.618829 19.6274383,235.492418 L37.2689326,0.789978027 L138.044126,0.789978027 L175.313059,496.615858 L107.334526,496.615858 L102.564103,383.616454 L72.450805,383.616454 L68.2766846,496.615858 L0,496.615858 L19.3900124,238.651133 Z M86.7620751,74.7315403 L75.1341682,331.141797 L100.775194,331.141797 L88.5509839,74.7315403 L86.7620751,74.7315403 Z M132.59989,452.675422 C133.318582,451.969339 132.59989,451.250646 132.59989,450.519346 C131.175114,449.813262 130.456422,448.375877 129.73773,448.375877 L123.269499,448.375877 C122.563416,448.375877 121.126031,449.813262 121.126031,450.531954 C120.407339,451.250646 120.407339,451.969339 121.126031,452.675422 C122.563416,456.268884 130.456422,456.268884 132.59989,452.675422 Z M116.107794,41.2682318 C121.126031,36.9560782 121.126031,31.937841 116.107794,27.6256874 C111.089557,31.937841 111.089557,36.2499946 116.107794,41.2682318 Z M116.107794,130.297812 C118.251262,128.873036 118.982563,127.435652 118.251262,125.985658 L116.107794,123.84219 C113.964326,125.279575 112.526941,126.716959 113.964326,128.154344 L116.107794,130.297812 Z M113.245634,167.644592 C112.526941,169.069368 113.245634,170.506753 115.389102,171.944137 L117.53257,169.788061 C118.982563,168.350676 118.263871,166.9259 115.389102,165.488516 L113.245634,167.644592 Z M116.107794,302.620043 C118.251262,301.182658 118.982563,299.745274 118.251262,298.307889 L116.107794,296.164421 C113.964326,297.589197 112.526941,299.026582 113.964326,300.476575 L116.107794,302.620043 Z M55.8763388,244.469013 L55.8763388,244.469013 L55.8637302,244.456404 C56.5950311,244.456404 55.1576466,243.031628 53.7202621,242.312936 C52.2828775,241.594244 50.8581016,242.312936 49.4207171,244.469013 L51.5767939,246.612481 C53.0015698,247.331173 54.4389543,246.612481 55.8763388,244.469013 Z" id="uE013-a1-thin" fill="#000"/></g></svg>