<svg width="177" height="497" viewBox="0 0 177 497" version="1.1" xmlns="http://www.w3.org/2000/svg" xmlns:xlink="http://www.w3.org/1999/xlink"><title>uE019-a2-thin</title><desc>Created with Sketch.</desc><g id="Page-1" stroke="none" stroke-width="1" fill="none" fill-rule="evenodd"><path d="M90.5796359,97.7545701 L89.4819754,74.7304711 L87.6930666,74.7304711 L76.0651596,331.140727 L101.706185,331.140727 L90.7951073,102.274214 C91.0815226,102.520716 91.4107236,102.766907 91.7827104,103.012723 L93.9261786,100.869255 L93.9261786,100.869255 C94.6448709,99.4318706 93.9261786,97.994486 91.7701018,96.5571015 L90.5796359,97.7545701 Z M38.1999241,0.788908766 L138.975118,0.788908766 L176.244051,496.614788 L108.265517,496.614788 L103.495094,383.615385 L73.3817965,383.615385 L69.207676,496.614788 L0.930991489,496.614788 L38.1999241,0.788908766 Z M136.959454,158.301593 C141.271608,158.301593 144.133768,156.145516 142.696383,153.989439 C141.977691,151.127279 139.821614,150.408587 137.678146,151.845971 C136.240762,151.845971 135.534678,151.127279 134.097294,151.845971 C131.941217,153.283356 130.503832,154.72074 131.235133,156.158125 C131.941217,156.864208 132.659909,158.301593 133.378601,158.301593 C134.097294,159.020285 135.534678,158.301593 136.959454,158.301593 Z M105.400038,48.4551544 C111.136967,43.4243086 111.136967,38.4060714 105.400038,34.0939178 L102.537877,34.0939178 C99.6631081,33.3752255 98.2383322,34.0939178 96.8009476,36.2499946 C96.0822554,37.6873791 96.8009476,39.1247636 98.9444158,41.2682318 C101.113101,43.4243086 103.256569,46.2990776 105.400038,48.4551544 Z M73.1219289,87.2267107 L73.1219289,87.2141021 C73.8532298,85.7893262 73.1219289,83.6332494 70.9784607,82.9271658 C70.2597684,82.1958649 68.8223839,82.9271658 67.397608,82.9271658 C64.522839,82.1958649 63.0854545,82.9271658 61.6480699,85.0706339 C60.2106854,87.2267107 63.0854545,89.3701789 67.397608,89.3701789 L70.9784607,89.3701789 C71.697153,88.6640952 73.1219289,87.945403 73.1219289,87.2267107 Z M63.0854545,432.577256 C64.522839,433.295948 65.9602235,432.577256 67.397608,430.421179 L65.2289226,428.265103 C63.8041467,427.54641 62.3667622,428.265103 60.9419863,430.433788 L63.0854545,432.577256 Z" id="uE019-a2-thin" fill="#000"/></g></svg>