<svg width="211" height="502" viewBox="0 0 211 502" version="1.1" xmlns="http://www.w3.org/2000/svg" xmlns:xlink="http://www.w3.org/1999/xlink"><title>uE012-e2</title><desc>Created with Sketch.</desc><g id="Page-1" stroke="none" stroke-width="1" fill="none" fill-rule="evenodd"><path d="M210.933594,211.461498 C208.955594,211.099113 205.780991,211.62242 205.847065,212.828278 C207.545998,212.727803 209.237916,212.634344 210.933594,212.547899 L210.933594,243.062034 C209.022991,243.894339 206.157168,244.293136 205.446264,245.176589 C204.815925,245.937754 206.445293,247.031928 206.790196,247.697947 C208.213294,246.850144 209.556223,245.980757 210.933594,245.172996 L210.933594,270.420677 C207.202535,269.233266 203.5773,267.829028 199.999179,266.283449 C193.12491,263.310149 186.512292,259.837335 179.923459,256.316949 C174.428802,253.367435 174.999675,252.523018 179.602343,249.418893 C176.783655,248.824233 174.53584,251.619135 171.729045,251.274232 L204.332019,272.885421 C192.874942,267.175892 179.699184,260.202329 169.380139,252.865542 C170.16509,252.342241 170.961934,251.818941 171.723099,251.271854 L210.933594,278.922113 L210.933594,283.829102 L175.804036,283.829102 C175.732621,283.361615 175.614729,282.900706 175.451617,282.445117 C174.630986,282.861379 173.762782,283.277641 172.894579,283.705796 C172.915797,283.747598 172.936719,283.7887 172.957381,283.829102 L142.082354,283.829102 C148.899138,279.622092 153.845732,269.88714 157.393739,259.710723 C157.794376,259.887176 158.177952,260.06753 158.539488,260.253597 C162.285846,258.755054 164.438515,264.344858 168.268125,264.154567 C169.921279,264.083207 168.434629,251.571562 167.162057,250.025446 C166.533742,249.272093 164.353408,247.69138 161.44576,245.891416 C162.812673,240.389022 163.783749,235.521898 164.450408,232.276036 C163.165942,232.430648 162.22638,233.084774 161.655506,234.250307 C161.619826,232.656619 162.583176,228.589145 160.573225,228.565358 C160.768147,231.749085 159.738815,239.141638 158.271085,244.009535 C157.403027,243.516221 156.504092,243.021999 155.589211,242.537879 C155.670025,242.467909 155.751943,242.390476 155.834975,242.305571 C155.145553,241.866848 154.070801,238.666593 152.779936,238.812753 C154.408544,234.6003 155.387898,230.232325 153.268422,228.703319 C152.388326,231.724192 150.116725,226.681476 151.222792,232.747007 C151.627934,235.069822 150.975599,237.5055 149.775068,239.733094 C147.788372,238.879486 145.873546,238.181642 144.18279,237.75179 C145.384438,235.656681 146.831996,233.669314 148.534929,231.56958 C146.144396,231.27225 145.240513,234.5072 143.361388,235.244579 C142.837615,236.15901 142.398334,236.812927 142.034121,237.342697 C139.920921,237.105299 138.425084,237.539574 138.011827,238.988558 C139.068269,238.589457 140.114414,238.509597 141.143485,238.721872 C140.682207,239.596026 140.506623,240.535825 140.530806,242.784867 C140.578379,245.615448 139.805321,254.28559 138.604108,256.3669 C144.193912,259.827821 144.990756,250.49166 148.558715,247.684865 C148.995495,246.87471 149.942415,245.136078 150.953626,243.013999 C152.701177,244.887239 154.303332,246.872557 156.896566,247.456613 C155.158243,250.614238 156.031037,254.103224 155.86094,257.832564 C152.297709,255.785544 148.697325,253.780596 145.968377,254.497289 C148.303523,256.492276 152.358467,257.71975 155.76554,259.04218 C155.651787,260.027882 155.440431,261.029264 155.066674,262.044713 C153.450076,266.408732 145.381411,279.592353 137.740904,283.829102 L130.698547,283.829102 L130.698547,284.533222 C129.567402,283.953901 128.513106,282.948915 127.569598,281.430627 C128.747025,281.692278 129.674694,281.347375 130.40018,280.419705 C121.087805,277.934027 116.068875,270.381845 115.735865,260.831607 C108.683198,257.453938 113.654556,249.35467 112.322517,244.526031 C111.882469,242.920449 112.584168,230.075795 111.882469,229.374096 C113.464264,230.932105 110.657469,240.006616 113.392905,240.030402 C113.247544,235.187222 113.344452,230.127468 113.155448,225.14684 C113.705608,224.853074 114.181084,224.513997 114.587615,224.136145 C114.812637,224.300643 115.108213,224.450737 115.486108,224.582326 C117.151156,224.106598 119.684407,220.336454 117.198729,219.051989 C117.108971,219.173802 116.867145,219.385475 116.553984,219.658852 C116.854002,214.40302 112.60047,207.509042 108.632058,204.488767 C99.2958966,197.40042 87.8903189,194.224936 76.2587704,193.737315 C76.6869256,192.928577 76.9723624,192.060374 77.0794011,191.168384 C74.676975,189.170326 71.6323161,193.428092 69.0514919,192.11984 C67.3864441,193.689742 66.0544058,192.203092 64.389358,193.451878 C72.1318304,196.330032 80.5878948,195.628333 88.6039108,196.960372 C88.3898332,198.102119 88.2827944,199.22008 88.2233285,200.37372 C92.2789093,198.613526 92.0172589,197.40042 96.2988105,201.539253 C101.175022,199.065468 102.733031,203.418379 105.682544,207.462066 C107.288126,209.686094 109.821378,214.80017 110.475503,216.964732 C110.653901,218.356236 110.475503,219.723954 109.964096,221.055993 C107.434618,224.320174 109.406724,222.916046 110.591718,224.944223 C108.205337,247.68887 107.031095,279.057975 130.698547,285.444581 L130.698547,387.633789 L210.933594,387.633789 L210.933594,458.989204 C209.899351,456.509651 207.904698,457.318339 205.962429,458.032737 C207.174756,460.03019 208.835438,460.570488 210.933594,459.610106 L210.933594,502 L0.190914622,502 L0.190914622,478.768936 C0.282933084,478.768707 0.379178434,478.778542 0.480064682,478.799451 C0.380402363,478.737521 0.284077862,478.682861 0.190914622,478.635098 L0.190914622,429.537305 C0.646065884,429.769029 1.3536918,429.734542 2.36394738,429.177458 C2.1498698,428.606584 1.99525821,428.000031 1.78118064,427.381585 C1.13161022,426.761675 0.583381031,426.70543 0.190914622,426.934653 L0.190914622,414.111613 C0.705414197,414.726868 1.40503002,415.16452 2.24501539,415.221978 C2.56613176,411.689698 1.50763706,412.427076 2.92292772,409.560816 C1.68721378,409.091906 0.79182402,409.131564 0.190914622,409.472231 L0.190914622,176.425347 C8.00762143,160.898117 19.379272,147.884695 36.0526224,140.819716 C34.4589338,140.141804 32.8414587,140.118017 31.2120905,140.772143 C30.3914598,144.29253 25.2417047,144.827724 22.4230165,145.315345 C18.3436493,147.979422 15.0373401,151.523595 11.7072444,155.032089 C10.2443809,159.028203 6.4623437,162.619949 3.88151955,165.938152 C2.98365789,167.119549 1.19391591,173.96908 0.190914543,170.784645 L0.190914622,84.1813093 C1.08725807,84.9007406 2.03201826,85.511764 2.81232098,85.9266567 C1.93222426,83.5480169 3.6329517,84.0237449 5.20285394,84.7373368 C5.0198382,83.8039565 2.03460833,81.4835506 0.190914622,80.2897182 L0.190914622,23.1380428 C0.832316237,22.8017736 1.43716332,22.438482 1.08067122,21.8163683 C0.786455448,22.1821501 0.492239673,22.3140037 0.190914622,22.1977107 L0.190914622,0.176757812 L210.933594,0.176757812 L210.933594,61.5708342 C210.625928,61.8164331 210.276126,62.211128 209.85983,62.7920063 C210.228813,63.107898 210.587131,63.3716503 210.933594,63.5767831 L210.933594,73.7252579 C210.625095,73.6725255 210.312438,73.6267897 210.003738,73.5696231 C210.235265,74.4564142 210.535787,75.1907736 210.933594,75.7084613 L210.933594,114.542969 L176.418194,114.542969 C176.268166,114.258891 176.074618,113.988143 175.835767,113.729388 C175.324359,111.909728 178.55931,115.382542 175.693049,110.506331 C175.276787,109.804632 170.816837,103.596382 169.627517,105.701478 C171.515016,105.956291 173.275204,111.393381 175.234922,114.542969 L130.698547,114.542969 L130.698547,169.462891 L210.933594,169.462891 L210.933594,211.461498 Z M119.456905,99.7179083 C119.880282,100.089714 120.201089,100.38073 120.294528,100.53983 C122.613702,99.1840054 118.498655,96.3296377 116.88118,94.854881 C115.647626,95.4745815 116.34525,96.677659 117.425803,97.8298395 C117.379595,98.9348623 118.099108,100.308215 118.993412,100.910898 C119.230185,100.482452 119.384788,100.084736 119.456905,99.7179083 Z M185.536566,242.868879 C186.040691,242.91654 186.519951,241.815162 186.903659,240.53638 C188.476585,240.98828 191.042936,240.306365 191.375421,239.414334 C190.006161,239.320198 188.636902,239.232219 187.272074,239.154829 C187.568521,237.917121 187.752694,236.834481 187.761078,236.779991 C187.352984,237.560017 186.93816,238.337799 186.521478,239.113338 C186.240275,239.098204 185.959296,239.083556 185.678578,239.069432 C185.665012,239.47836 185.794193,239.797912 186.02207,240.040699 C185.645051,240.739607 185.268103,241.436684 184.894817,242.13193 C184.923158,242.19726 184.951515,242.257832 184.979873,242.31381 C184.95707,242.408951 184.935285,242.511596 184.914602,242.620821 C180.228355,238.035048 172.57056,232.913639 174.823656,229.17429 C177.951567,231.100988 181.53142,235.227928 184.028992,238.225014 C183.481905,235.323074 180.877294,233.681812 180.318314,230.946377 C176.54817,227.901718 171.600599,225.320894 167.283368,223.132545 C166.522203,226.641039 174.609578,235.287394 177.785062,237.047588 C179.224139,237.820646 178.094285,239.973315 179.45011,241.769188 C180.873682,243.677543 182.705507,245.411644 184.703992,246.845861 C184.794098,248.339742 185.077191,249.59058 185.638142,249.680544 C185.734406,249.034641 185.831481,248.352252 185.899518,247.655607 C186.616771,248.113441 187.348548,248.531722 188.084573,248.905107 C188.793048,247.318969 187.619118,245.43407 185.704554,243.420375 C185.655873,243.233934 185.600098,243.049937 185.536566,242.868879 Z M152.823691,241.132678 C152.546281,240.997792 152.268775,240.864772 151.991568,240.73391 C152.12904,240.416014 152.264868,240.094403 152.397905,239.770481 C152.532039,240.285295 152.673885,240.73943 152.823691,241.132678 Z M78.4570907,32.4942076 C78.4364204,32.5146447 78.4141112,32.5328894 78.3900317,32.5487909 C78.3983637,32.5567607 78.4067236,32.5647941 78.4151113,32.5728903 C77.6221244,34.0574537 76.8302867,35.4418922 76.558479,35.9466779 C77.6578039,36.1420124 78.7675393,35.1800401 79.6066891,33.8726016 C81.9001217,36.5358097 85.2131148,40.7929 87.8689111,39.1019435 C86.3376888,36.2309017 83.4973244,33.4676715 80.8598022,30.9609728 C81.1740331,29.6545906 81.0849958,28.5315767 80.3643027,28.2517782 C80.3024041,28.6202223 80.0732193,29.2122016 79.7545979,29.9107608 C79.4971545,29.6652976 79.2439646,29.4226649 78.9965848,29.1830157 C78.5420605,29.9373327 78.8424391,31.4150983 78.6316857,32.1648483 C78.5736683,32.2748952 78.5154011,32.3847849 78.4570907,32.4942076 Z M62.0367092,223.880236 C62.0368832,223.636481 62.0368832,223.394096 62.0368832,223.153953 C60.3102107,223.153953 59.8822607,225.332233 60.7739256,226.377317 C60.5188746,227.029139 60.3067503,227.615875 60.1327821,227.943344 C60.9049605,228.277641 61.4814175,227.741444 61.9433271,226.922895 C61.966338,226.923693 61.9895946,226.924097 62.0130968,226.924097 C62.013949,226.879783 62.0147707,226.835393 62.0155629,226.790933 C62.6785305,225.543579 63.1022174,223.750888 63.5461302,223.293103 C62.9728084,223.03393 62.4720939,223.328389 62.0367092,223.880236 Z M167.92734,200.317119 C167.933093,200.316181 167.938856,200.315227 167.94463,200.314254 C167.943549,200.310522 167.942469,200.30679 167.941388,200.303058 C169.162025,199.078015 170.04837,197.347419 169.394283,196.501274 C169.445877,196.451693 169.472913,196.426359 169.470527,196.428746 C168.673683,194.930203 163.702326,198.319764 164.772713,199.628016 C165.108679,199.344312 165.411837,199.280882 165.670421,199.420073 C165.222421,199.730363 164.721938,199.894963 164.150699,199.785006 C164.18537,200.26173 164.273933,200.635606 164.40459,200.920229 C163.829421,201.591236 163.690045,202.474919 163.999656,203.576558 C164.689461,203.362481 165.367373,203.279228 166.104752,203.303015 C165.229113,203.094055 165.106427,202.46422 165.384052,201.665284 C166.137296,201.725943 167.106541,201.136553 167.92734,200.317119 Z M169.471057,424.714059 C169.93063,427.713033 170.491224,430.694418 171.303269,433.625514 C171.517347,433.030854 171.719531,432.436194 171.909822,431.841534 C171.756726,430.616762 171.518121,427.08328 170.877139,424.152485 C171.270764,422.68733 172.677277,420.099753 170.016425,420.018505 C170.040914,420.344406 169.974695,420.693282 169.862098,421.048639 C169.556236,420.468163 169.202946,420.047847 168.793804,419.865083 C168.916771,420.80301 169.041694,421.740936 169.17313,422.677872 C168.741887,423.642785 168.491648,424.451569 169.471057,424.714058 Z M143.379964,239.242166 C145.801631,239.153228 147.520015,239.95892 148.953314,241.102367 C147.556428,243.212217 145.724835,245.051023 143.956048,246.305254 C145.466484,241.738265 142.731048,248.37467 140.982748,245.805739 C141.57866,243.366066 142.375241,241.236122 143.379964,239.242166 Z M160.582445,249.242255 C161.001733,249.697627 161.434743,250.229674 161.867555,250.812811 C161.414674,250.561133 160.799609,250.515109 160.196083,250.664241 C160.327718,250.18763 160.456488,249.71345 160.582445,249.242255 Z M162.546697,251.769265 C164.736094,254.984688 166.729847,259.182145 166.674436,260.955296 C164.445315,262.379759 161.157402,260.829166 157.682158,258.873586 C158.504833,256.457321 159.249701,254.02409 159.923037,251.641574 C160.987346,252.155934 161.238184,253.035715 162.100312,253.613624 C162.509977,252.852402 162.627215,252.239523 162.546697,251.769265 Z M124.156064,94.6782609 C122.887904,95.4975605 121.601788,95.2750465 120.640621,96.5663123 C121.996445,96.6852443 123.197658,97.1966519 124.220473,98.0886418 C125.844964,96.6727004 127.276984,96.0671646 125.515474,94.3835182 C125.457212,93.8401318 125.349494,93.2887744 125.289672,92.7926004 C124.882275,92.922741 124.458726,93.7527964 124.156064,94.6782609 Z M92.4107125,69.9709574 C92.2376641,69.806589 92.0617846,69.6329576 91.8828657,69.449819 C91.9382848,69.7293238 92.012254,69.9971127 92.1044767,70.252988 C91.303094,70.9914032 90.651274,71.5939402 90.2523082,71.9378762 C90.5638358,72.2930177 91.4269847,71.9414962 92.5634615,71.202003 C92.9295188,71.7888235 93.4180205,72.292191 94.0236415,72.7085555 C96.3428153,74.8017585 93.1673312,75.7532144 92.5369917,78.2388929 C92.2991277,79.1546692 88.5170905,84.9466571 88.909566,85.4937442 C92.2039821,84.2806379 89.8610219,84.3995699 92.7391761,80.4510279 C93.809564,78.9762713 106.487714,70.4131681 107.903005,72.4112255 C106.440141,78.0486018 99.5896586,78.7859801 95.7719418,82.2587941 C99.7204838,81.0219015 104.299365,79.618504 106.880189,76.1337967 C112.410527,68.6767611 105.203248,72.6490895 101.956405,73.0891378 C104.323152,68.7243339 109.246936,68.9027318 111.922906,65.2871994 C113.433342,63.17021 113.802031,59.221668 114.408584,56.7835622 C117.132127,45.4969165 106.761257,41.8694909 99.9583478,35.2806587 C100.065387,35.3995907 103.597667,33.5680381 103.383589,33.6631837 C102.408347,31.8197379 98.9474258,35.0903675 97.8532516,35.2211927 C106.701791,38.1231332 114.908099,48.4464298 113.326303,58.0918141 C112.398634,63.8838019 108.307373,64.2049183 104.430191,67.7490916 C100.018485,71.7949486 97.4467394,74.1371385 93.2622711,70.7240429 C96.4946213,68.4184282 101.229777,63.8767061 102.45473,62.8395791 C101.467375,61.721818 95.8110956,66.8414468 92.4107125,69.9709574 Z M22.7798125,183.129771 C24.0523848,183.23681 24.8730155,182.796761 25.6579666,182.368606 C26.9900049,184.782925 22.2921914,184.937537 22.7798125,183.129771 Z M43.1397796,138.658722 C42.80677,139.193916 42.4618673,139.72911 42.1407509,140.276197 C43.4846824,141.013575 44.3647791,140.811391 44.7572546,139.645857 C44.2220607,139.324741 43.6868668,138.991731 43.1397796,138.658722 Z M208.796578,95.6267496 C208.475462,97.3036907 202.992697,96.1500504 203.218668,94.4968958 C205.074007,94.8893713 206.941239,95.2818469 208.796578,95.6267496 Z M154.255558,18.4494037 C154.838324,20.2333835 155.421091,22.0649362 156.003858,23.8608092 C157.978129,22.4098389 154.67182,18.0688214 154.564781,16.3443075 L154.255558,18.4494037 Z M29.4459505,81.1325082 C30.8136683,78.9441596 34.9049287,78.8846936 34.7027443,82.8689152 C33.6561429,81.1681878 29.3270185,84.6885747 29.4459505,81.1325082 Z M181.573046,77.0674128 C181.525473,79.0892567 184.15387,80.9564889 181.228143,83.1329443 C181.275716,81.1111005 178.647319,79.231975 181.573046,77.0674128 Z M169.23861,255.499886 C169.654872,255.963721 170.09492,256.439448 170.499289,256.915176 C172.342735,256.130225 172.390307,255.214449 170.6539,254.227313 C170.190066,254.667362 169.726231,255.083624 169.23861,255.499886 Z M125.707123,51.5969382 C124.898386,54.0707236 123.494988,53.9398984 121.473144,51.2163558 C122.269989,48.7306773 123.685279,48.8733957 125.707123,51.5969382 Z M38.9236406,31.5497622 C38.3884467,29.3970933 43.4073766,29.4684524 45.1199972,29.0402973 C45.7979095,31.597335 40.3865041,31.0859275 38.9236406,31.5497622 Z M177.135694,171.562446 C175.137636,171.966814 172.188123,175.487201 170.844191,173.786474 C172.842249,173.382105 175.791762,169.849825 177.135694,171.562446 Z M17.3446206,24.9181146 C16.2742327,27.2016087 15.2038448,29.5088893 14.1215638,31.7923835 C12.5516615,31.0787916 15.7866116,24.1926294 17.3446206,24.9181146 Z M86.1479653,189.889865 C84.4115582,188.985982 75.6224843,185.370449 76.5263674,183.717295 C78.2746676,184.668751 87.0042756,188.224817 86.1479653,189.889865 Z M31.931629,105.557571 C31.753231,103.559513 32.5143958,103.095679 34.1913368,104.154173 C34.3935212,106.152231 33.6323565,106.616065 31.931629,105.557571 Z M11.4670018,58.3915227 C13.7386028,54.6570583 12.0021957,55.5252618 16.1648153,56.3339993 C15.2609322,58.3320567 13.7029232,59.0337554 11.4670018,58.3915227 Z M100.202158,28.0305647 C99.5599256,30.682748 103.639293,31.1703692 105.125943,30.5162433 C104.662108,29.303137 104.269632,28.0781375 103.912836,26.8174584 C102.687837,27.2575068 101.450944,27.6737687 100.202158,28.0305647 Z M46.3806763,287.602008 C44.0615025,283.689146 42.2180567,272.497646 36.2952437,272.414393 C33.2981576,274.507596 39.2923298,281.488904 34.7372346,280.418516 C35.5459721,283.094486 38.5430583,283.641573 37.032622,286.448368 C35.7124769,288.934046 34.3804387,290.456376 36.4260689,293.215598 C39.0901454,290.825065 45.0129584,291.134288 46.3806763,287.602008 Z M107.426087,88.0888402 C108.282398,83.8072886 109.721475,83.7478226 104.654972,82.6893279 C104.191137,85.2344725 105.963224,86.4356856 107.426087,88.0888402 Z M135.253794,104.093518 C135.765202,101.774344 135.741415,98.89619 139.083404,100.727743 C137.870298,101.976529 136.895055,104.022159 135.253794,104.093518 Z M56.0664974,212.084953 C54.9009639,210.372332 55.2815463,209.06408 57.1844581,208.219663 C58.3024188,209.920391 57.957516,211.240536 56.0664974,212.084953 Z M28.7501983,207.079105 C27.3111213,207.079105 25.3011707,207.816484 24.8849087,206.555805 C26.3239858,206.555805 28.3220432,205.842213 28.7501983,207.079105 Z M102.849584,229.123149 C101.600799,229.265868 100.340119,229.3848 99.0913336,229.539411 C99.5789547,231.703974 103.158808,229.146936 103.991331,230.895236 C104.455166,229.253975 104.086477,228.683101 102.849584,229.123149 Z M95.6494418,123.756544 C97.3025965,127.265037 91.2846378,128.157027 89.0962892,129.239308 C88.8346389,125.695135 93.805996,126.503872 95.6494418,123.756544 Z M100.550629,145.092942 C101.799415,144.367457 104.891647,145.877893 103.773686,142.92838 C100.098687,144.581535 101.870774,140.58542 99.2542704,141.513089 C99.9202895,143.213817 98.7666492,144.070127 100.550629,145.092942 Z M17.7156884,194.907606 C17.7156884,193.777752 17.2042809,192.243529 18.2984552,191.981879 C18.7385035,193.099839 18.8574355,197.809546 17.7156884,194.907606 Z M137.716875,427.532628 C135.469061,430.256171 136.206439,423.048892 136.848672,420.860544 C138.953768,421.324379 137.157895,425.558357 137.716875,427.532628 Z M68.308167,280.005822 C65.4775857,280.255579 65.3348673,278.328881 68.1654486,278.13859 C68.2130214,278.768929 68.2605942,279.375482 68.308167,280.005822 Z M17.9487951,318.171097 C19.2689402,320.514057 15.0468546,320.751921 13.9288939,318.397068 C15.2133594,317.124496 16.7000093,319.990756 17.9487951,318.171097 Z M118.366641,41.4341998 C117.831447,40.5659963 117.129748,39.8405112 116.297224,39.2696376 C115.524166,40.1973071 115.345768,41.1606562 115.809603,42.2191509 C116.606447,41.8147822 117.462758,41.5412386 118.366641,41.4341998 Z M204.453182,190.447656 C203.989347,191.31586 203.240076,191.827267 202.241047,191.958092 C203.133037,187.307852 202.336193,189.4962 204.453182,190.447656 Z M208.727598,443.131748 C206.658181,441.16937 207.942647,439.801652 210.012063,441.740244 C209.572015,442.204078 209.167646,442.667913 208.727598,443.131748 Z M148.691919,234.535744 C148.465949,235.903462 147.716677,236.355404 146.384639,235.867782 C147.621531,230.599095 149.013036,233.917298 148.691919,234.535744 Z M194.06923,43.9079852 C193.260493,36.1298331 198.624325,29.6956125 198.778937,22.0839653 C192.106852,24.5458574 192.178212,36.4271631 184.590351,36.3320175 C187.492291,39.1982784 191.238649,40.9822582 194.06923,43.9079852 Z M88.4944934,86.3119963 C87.5192511,89.9632084 84.6648834,91.081169 82.9641559,94.0782552 C84.4745922,94.9226723 86.9840571,91.5687902 87.4241055,90.0583539 C91.9078415,92.6629645 93.7631805,87.3467046 90.2546868,85.1345696 C89.7432793,85.6221908 89.1486193,86.0265595 88.4944934,86.3119963 Z M155.881358,91.1668001 C156.713882,89.489859 157.950775,88.2053936 159.615822,87.33719 C158.783299,88.9903447 157.534513,90.2985966 155.881358,91.1668001 Z M70.5845253,337.648589 C70.7272436,336.61388 71.3219036,336.376017 72.3447187,336.94689 C71.8927771,334.960726 70.7272436,333.74762 68.8243318,333.236212 C69.6568557,333.937911 69.3357394,338.041064 70.5845253,337.648589 Z M23.5933073,96.6019919 C21.2741335,94.5682549 19.0144258,94.0211678 16.8379704,95.531604 C18.0391835,98.7665541 20.8697648,98.4930106 23.5933073,96.6019919 Z M54.1623963,261.992383 C51.9145817,259.708889 51.4745334,256.913987 51.4031742,252.620542 C49.7500195,255.77224 52.5687076,256.616657 51.7956497,259.518598 C50.0235631,258.590928 48.6558452,258.935831 47.6806029,260.52952 C49.4645828,260.612772 53.7461343,263.597965 54.1623963,261.992383 Z M98.2041009,58.5996537 C99.881042,59.2537796 102.247789,58.5758673 103.55604,59.9079056 C101.367692,60.2765947 99.3934208,60.2052355 98.2041009,58.5996537 Z M181.712197,172.444921 C180.451518,172.385455 179.178945,172.337882 177.942053,172.266523 C177.787441,175.144677 182.366323,178.403414 182.556614,175.334968 C181.319721,175.513366 180.427731,175.061425 179.856858,173.96725 C179.618994,173.099047 181.926274,173.753173 181.712197,172.444921 Z M69.9815401,143.594399 C67.2223179,142.452652 64.7961054,141.156293 64.8079986,139.027411 C65.8070273,140.811391 69.7079965,141.560662 69.9815401,143.594399 Z M194.697191,401.284339 C193.959813,402.342833 190.998406,402.675843 189.975591,401.486523 C190.831901,399.750116 192.413697,399.69065 194.697191,401.284339 Z M122.222416,151.72459 C122.567319,152.87823 123.292804,153.544249 124.446444,153.77022 C124.113435,150.820707 127.431637,153.330172 126.170958,154.947647 C130.892558,152.426289 122.959794,147.906873 121.615863,146.634301 C121.247174,148.406387 121.461251,150.071435 122.222416,151.72459 Z M46.7755305,241.725183 C45.847861,241.737076 42.5296585,239.073 41.9944646,241.023484 C43.5049008,243.949211 45.2175214,246.208919 46.7755305,241.725183 Z M48.3085638,130.853215 C50.4017668,130.734283 47.1668167,138.536222 44.8714294,138.595688 C46.6554092,136.37166 45.8942445,132.684768 48.3085638,130.853215 Z M48.9817189,141.213381 C51.0035627,141.84372 52.9540473,138.323333 50.5635143,138.192508 C50.4683687,139.548333 49.1839033,139.952702 48.9817189,141.213381 Z M202.176824,184.23346 C198.763476,186.029333 207.124395,195.413067 208.14721,187.694381 C204.079736,187.789526 205.054978,184.863799 202.176824,184.23346 Z M123.709066,236.405355 C123.566347,237.344918 123.411736,238.28448 123.269017,239.21215 C125.802269,241.043703 126.658579,235.465792 123.709066,236.405355 Z M182.176031,56.6253827 C182.735012,58.3974693 181.68841,61.3469826 183.079914,62.5600889 C183.496176,60.0744103 184.542778,57.1367902 182.176031,56.6253827 Z M127.612414,117.044022 C128.421151,116.163925 128.611442,115.188683 128.19518,114.118295 C127.196152,114.677276 126.197123,115.188683 125.126735,115.640625 C125.959259,116.116353 126.77989,116.580187 127.612414,117.044022 Z M74.5104702,479.867461 C74.3915382,479.141975 74.3558586,478.464063 74.4628974,477.762364 C73.3568299,478.41649 71.5133841,479.165762 72.821636,480.75945 C73.3925095,480.46212 73.9514898,480.141004 74.5104702,479.867461 Z M72.0949615,401.110698 C72.5587963,404.619191 74.6757857,404.916521 75.0444748,401.741037 C74.1168053,401.324775 73.1177766,401.110698 72.0949615,401.110698 Z M207.914103,465.570646 C203.822843,467.568704 209.305607,471.469673 210.792257,469.471615 C208.960704,468.22283 208.187647,466.902684 207.914103,465.570646 Z M137.391002,259.00719 C138.271098,256.081463 134.144159,256.485832 133.692217,254.202338 C131.836878,255.724667 130.944888,258.70986 128.233239,256.10525 C127.032026,254.939716 125.259939,251.895057 123.10727,253.571998 C125.759453,258.269812 132.633722,258.912044 137.391002,259.00719 Z M34.9976957,430.390564 C36.2226952,430.949544 39.8263344,430.913865 38.0185682,433.351971 C41.0156543,433.601728 36.6746367,424.479644 36.1394428,423.777945 C35.972938,426.858284 36.7816755,427.54809 34.9976957,430.390564 Z M87.612018,149.297188 C89.6338618,152.127769 90.0263374,154.922671 92.9520643,157.182379 C94.5695394,154.76806 96.6984219,152.698643 98.2921106,150.27243 C96.6508492,149.047431 96.6984219,145.122675 93.9273066,146.502286 C95.3663837,149.582625 93.8797338,158.466844 90.6566769,152.9484 C95.9015776,148.571703 90.121483,146.276316 87.612018,149.297188 Z M121.456494,108.879341 C121.48028,106.203371 118.673485,106.64342 117.472272,105.251915 C117.472272,107.951672 120.279067,107.511623 121.456494,108.879341 Z M18.0879456,101.446092 C18.111732,102.361868 17.9690136,103.253858 17.69547,104.122062 C18.8253239,103.979343 19.967071,103.907984 21.1088181,103.93177 C20.5022649,102.564053 19.5032362,101.719635 18.0879456,101.446092 Z M136.508526,88.7393982 C138.994205,81.6986245 140.457068,92.497649 140.516534,93.7464349 C139.874302,94.1151241 139.255855,94.0913377 138.661195,93.6631825 C139.434253,91.7364843 139.101244,89.9525045 139.850515,88.0020199 C138.744448,88.3350294 137.650274,88.5728934 136.508526,88.7393982 Z M95.486505,164.373007 C94.9037382,163.873493 94.3209715,163.373978 93.7382048,162.862571 C93.2862632,161.946794 97.044514,162.160872 97.2348052,162.125192 C95.3318934,161.126164 90.2772839,157.082476 88.1008285,158.937815 C87.589421,159.377863 93.5835932,165.360142 95.486505,164.373007 Z M149.563691,194.291538 C150.22971,193.054645 151.300098,189.272608 148.909565,189.581831 C149.290147,192.400519 147.470488,192.9595 147.672672,194.553188 C148.314905,194.469936 148.933351,194.386683 149.563691,194.291538 Z M55.4159395,198.217483 C50.8132715,196.909231 53.417882,195.244183 52.0501642,192.449281 C50.4921551,193.091514 50.004534,197.361173 50.6705531,199.133259 C54.131474,196.528649 54.309872,201.178889 57.3545309,200.500977 C56.6885117,199.739812 56.0700654,198.990541 55.4159395,198.217483 Z M112.164338,304.652098 C109.191038,306.412291 105.872836,307.637291 102.388128,307.637291 C104.088856,306.25768 112.497347,300.489478 114.233754,304.21205 C113.496376,304.235836 112.818464,304.402341 112.164338,304.652098 Z M168.471498,412.004868 C167.864945,409.317005 174.83436,408.436908 175.167369,411.326956 C173.502321,411.957295 170.743099,411.422101 168.471498,412.004868 Z M99.0401928,104.82495 C98.7904356,104.908202 92.4870402,107.631745 92.1421375,105.38393 C93.6525737,104.75359 98.6596104,103.825921 99.0401928,104.82495 Z M159.737133,427.02241 C159.760919,426.772653 150.591263,424.286974 148.664565,423.763674 C148.426701,425.737945 148.105585,427.295954 150.531797,427.819254 C153.386165,428.425808 153.897572,429.674593 155.479368,430.328719 C155.419902,427.414886 158.012619,428.069012 159.737133,427.02241 Z M20.3869009,212.549977 C19.6495226,213.537112 18.3888435,215.261626 18.7694259,216.260655 C20.8150561,214.036627 24.9182097,214.857257 26.3810731,212.216967 C24.0856857,208.530076 23.1223366,216.439053 20.3869009,212.549977 Z M142.199422,44.2909462 C143.959616,40.7348797 140.760345,37.7972596 137.715686,36.7863377 C139.975394,29.7336708 147.587041,46.1700716 142.199422,44.2909462 Z M17.1578974,167.694777 C16.3015871,165.839438 15.4333836,163.995992 12.0676083,162.996964 C14.6722189,161.510314 18.1093533,165.66104 17.1578974,167.694777 Z M2.47812209,465.012855 C0.777394654,464.632273 0.337346296,463.966254 1.18176341,463.014798 C2.69219967,463.157516 5.74875177,466.487612 3.77448076,467.558 C3.3344324,466.713583 2.91817044,465.869165 2.47812209,465.012855 Z M62.1998201,417.927681 C62.2236065,416.322099 65.1969062,413.955353 65.5893817,412.004868 C61.7835581,414.002925 61.3435098,418.962389 57.6685113,421.091272 C54.4454544,421.341029 57.0857446,424.683018 55.5990947,426.455105 C51.1629315,431.700005 43.5631775,425.408503 46.4413316,423.779135 C48.1182726,423.672096 47.0240983,426.359959 48.5345346,426.502677 C48.3680298,423.136902 48.4156026,419.235933 46.8575936,416.155594 C50.7823492,416.191274 49.1291945,412.456809 48.3442434,410.327927 C52.7090474,409.174287 53.3869597,403.192008 56.1937547,400.30196 C47.0835643,402.442736 44.252983,417.784963 41.7435181,424.659232 C40.2330818,428.809958 37.8187624,447.18495 46.643516,438.907284 C53.2799209,432.675248 56.5029778,424.873309 62.1998201,417.927681 Z M102.803201,181.57414 C103.635725,182.537489 104.456356,183.500839 105.288879,184.452295 C107.608053,183.274868 107.26315,181.895257 104.242278,180.337248 C103.754657,180.75351 103.290822,181.169772 102.803201,181.57414 Z M125.59057,358.392706 C124.639114,356.037853 125.983045,356.799018 124.758046,353.635427 C124.484502,355.443193 124.151493,357.250959 123.80659,359.070619 C124.40125,358.844648 124.984017,358.606784 125.59057,358.392706 Z M103.244439,243.490134 C102.24541,241.908338 101.805362,240.160038 101.924294,238.292806 C102.923322,239.862708 103.363371,241.622901 103.244439,243.490134 Z M49.8178108,56.2888052 C50.7216939,53.4582238 54.4204787,56.5147759 56.1093129,55.2897764 C55.8595558,56.9191447 50.8881987,56.6337079 49.8178108,56.2888052 Z M79.8065116,309.867266 C78.8074829,310.616537 78.6409781,310.426246 79.2951041,309.236926 C82.4111222,307.381587 83.897772,313.256827 81.1504431,314.505613 C80.5914628,313.447118 82.4943746,309.427217 79.8065116,309.867266 Z M193.768332,430.703355 C191.984352,429.847045 191.282654,428.170104 191.722702,426.433697 C194.743575,426.992677 195.671244,427.016464 193.768332,430.703355 Z M7.33292585,324.849128 C6.8215183,324.575585 6.28632436,324.278255 5.77491681,323.992818 C5.43001404,325.098885 5.16836367,326.228739 5.02564528,327.358593 C6.9166639,327.215875 7.03559588,326.573642 7.33292585,324.849128 Z M204.777866,487.777627 C203.540974,486.362336 202.018644,485.458453 200.163305,485.030298 C200.555781,485.624958 200.995829,486.160152 201.55481,486.6002 L204.777866,487.777627 Z M173.094385,417.137973 C173.356035,417.399623 175.508704,422.906174 175.675209,423.334329 C178.791227,419.825835 175.627636,417.863458 174.259918,415.377779 C173.950695,416.020012 173.582006,416.614672 173.094385,417.137973 Z M66.6823667,157.473762 C66.7299395,157.509442 71.3801803,164.930798 68.8707153,163.277643 C65.3622216,160.970363 67.8479002,160.232984 66.6823667,157.473762 Z M61.9441163,160.179465 C64.4654744,161.261746 61.5992135,160.155679 60.1244569,160.536261 C56.5921768,161.000096 62.3365919,157.67 61.9441163,160.179465 Z M175.765597,194.930203 C174.62385,196.404959 173.1372,197.403988 171.329434,197.927289 C174.160015,196.749862 172.471181,192.20666 175.765597,194.930203 Z M121.27096,408.612928 C121.294746,408.6605 125.73091,403.475066 124.363192,403.37992 C125.243288,403.903221 126.170958,404.022153 127.169987,403.736716 C125.338434,400.858562 123.411736,399.086475 121.639649,403.332347 C121.080669,404.700065 117.512709,408.755646 117.572175,409.611956 C117.762466,411.800305 121.033096,409.671422 121.27096,408.612928 Z M115.184021,28.4135257 C114.327711,26.4987207 119.013631,26.5581867 119.418,28.4492053 C117.574554,29.329302 117.134506,26.6890119 115.184021,28.4135257 Z M71.2814667,84.5815359 C71.9950586,86.2346905 69.4023413,90.3140577 68.4627786,87.4359036 C67.4042839,88.0900295 67.1069539,89.0414854 67.5113227,90.2783781 C70.5916612,90.8254653 73.7195725,88.3635731 76.978309,88.3635731 C74.7423876,86.1990109 78.1438424,86.0681857 78.893114,84.5815359 C73.3865629,84.7718271 76.324183,82.5359057 76.978309,82.6905173 C76.4193286,82.2385757 75.8484551,88.8036215 71.2814667,84.5815359 Z M97.7390768,392.67842 C98.524028,393.320653 99.4398043,393.772594 100.403153,394.058031 C100.664804,392.38109 100.355581,390.775508 98.0245136,390.799294 C97.9531544,391.429634 97.8342224,392.04808 97.7390768,392.67842 Z M34.3709241,170.319606 C34.2995649,168.832956 34.5136425,167.02519 32.4917987,167.489025 C32.4442259,169.1065 33.1934974,169.903344 34.3709241,170.319606 Z M78.3198618,387.149272 C79.4378225,389.753882 81.1742295,389.04029 80.0800552,386.4 C79.5210749,386.661651 78.9145217,386.899515 78.3198618,387.149272 Z M120.527635,379.425828 C122.989527,380.520003 122.275935,376.30981 121.669382,375.334568 C121.062829,375.71515 120.384917,375.964907 119.695111,376.095733 C121.966712,376.476315 122.252149,377.594276 120.527635,379.425828 Z M23.9179916,123.977757 C23.2638657,125.452514 20.9684783,124.703242 19.6959061,124.132369 C20.3619252,121.741836 23.1568269,121.694263 23.9179916,123.977757 Z M170.93339,267.671385 C170.493342,267.778424 163.619073,273.736917 165.724169,268.218473 C166.521014,266.08959 170.552808,263.972601 170.93339,267.671385 Z M108.308563,127.055717 C108.653465,129.077561 106.013175,128.744551 107.07167,131.099405 C107.999339,131.099405 108.867543,130.885327 109.652494,130.469065 C109.426523,130.706929 109.652494,126.853533 108.308563,127.055717 Z M106.090481,149.866872 C106.114267,150.568571 105.793151,150.865901 105.079559,150.770755 C104.544365,152.400124 110.205528,152.661774 109.813052,151.020513 C107.065723,150.616144 111.787323,150.176095 106.090481,149.866872 Z M157.925799,82.9438424 C159.626526,83.2649588 164.478951,82.9676288 164.241087,85.1797638 C162.944729,84.5256378 157.902013,85.191657 157.925799,82.9438424 Z M139.854083,183.455644 C141.388306,183.086955 142.946315,182.718266 144.504324,182.39715 C145.015732,184.918508 140.389277,185.988896 139.854083,183.455644 Z M47.6342194,282.688928 C47.4677147,280.940627 52.332033,280.69087 52.3439262,282.201306 C50.7978103,282.367811 49.2160149,282.522423 47.6342194,282.688928 Z M80.573623,97.1015063 C79.9670698,97.2799043 79.3367303,97.3988363 78.7420703,97.5653411 C80.0146426,98.278933 81.3228945,98.278933 82.6430396,97.5653411 C82.0840592,96.9350015 81.3823605,96.8041763 80.573623,97.1015063 Z M185.358651,202.119641 C184.216904,201.144399 183.729283,199.943186 183.931467,198.492216 C184.193118,198.884691 186.440932,201.322797 185.358651,202.119641 Z M78.3900317,408.229967 C77.6526533,406.065404 79.5793515,405.506424 79.1393032,403.472687 C75.3691591,403.532153 77.5218281,407.207152 77.4504689,409.205209 C78.1521677,409.240889 78.4613908,408.919772 78.3900317,408.229967 Z M20.6426047,199.111851 C21.7605654,198.707483 34.7360453,197.030542 30.6091053,201.609423 C29.0035235,196.733212 21.201585,200.681754 20.6426047,199.111851 Z M203.500537,239.01948 C199.230878,240.577489 195.139618,244.228701 193.902725,248.664864 C195.270443,247.796661 195.900783,248.569719 195.793744,250.984038 C193.367531,250.151514 193.902725,251.864135 194.66389,253.422144 C193.938405,253.469717 193.224813,253.398358 192.546901,253.172387 C193.426997,255.551027 194.318987,257.929666 195.175298,260.320199 C196.210006,259.05952 209.518495,238.829189 203.500537,239.01948 Z M50.5385386,246.765521 C49.4205779,245.385909 53.7497023,243.411638 53.4880519,246.277899 C50.443393,247.907268 52.5128096,245.968676 50.5385386,246.765521 Z M55.161425,38.9485212 C56.957298,40.8514331 56.2080265,35.4162412 55.7441917,34.7383289 C57.135696,33.0376014 57.1832688,38.9842008 59.9781705,35.2973092 C62.1546259,32.4786211 56.5529293,31.7293495 54.9592406,30.7897868 C54.1623963,34.3220669 51.3199218,28.767943 50.4755047,32.3240095 C51.5458925,33.2278926 52.7827852,33.6798342 54.1623963,33.667941 C53.6034159,34.1079893 52.9849696,34.4528921 52.3308437,34.6907561 C53.2822996,36.1060467 54.2099691,37.5213374 55.161425,38.9485212 Z M156.578299,199.924157 C157.613008,199.817118 162.71519,210.259347 163.333636,211.353521 C161.965919,212.162258 155.174902,200.780467 156.578299,199.924157 Z M43.8486143,60.8760119 C44.4551674,62.6599918 39.6027423,63.5281953 37.973374,64.110962 C37.1646365,62.0415454 42.219246,61.5301379 43.8486143,60.8760119 Z M111.769484,440.227429 C111.674338,439.287866 111.579192,438.348303 111.49594,437.396847 C109.057834,437.575245 110.93696,441.345389 111.079678,443.153156 C111.912202,442.332525 112.138173,441.369176 111.769484,440.227429 Z M89.4935221,316.2777 C89.8622113,317.930854 84.3794466,319.108281 83.9393982,317.514592 C85.7828441,317.098331 87.6381831,316.670175 89.4935221,316.2777 Z" id="uE012-e2" fill="#000"/></g></svg>