<?xml version="1.0" encoding="UTF-8"?>
<svg width="214px" height="500px" viewBox="0 0 214 500" version="1.1" xmlns="http://www.w3.org/2000/svg" xmlns:xlink="http://www.w3.org/1999/xlink">
    <!-- Generator: Sketch 43.1 (39012) - http://www.bohemiancoding.com/sketch -->
    <title>uE010-a3</title>
    <desc>Created with Sketch.</desc>
    <defs></defs>
    <g id="Page-1" stroke="none" stroke-width="1" fill="none" fill-rule="evenodd">
        <path d="M14.2597136,355.403026 C14.4243392,354.797504 14.4947606,354.158571 14.4495239,353.478303 L49.3084787,0 L162.958509,0 L213.469633,500 L130.487072,500 L124.173181,393.565845 L88.6951293,393.565845 L82.3812387,500 L0,500 L14.2597136,355.403026 Z M104.03802,119.32195 L91.7017438,327.119663 L120.565244,327.119663 L107.636801,99.2182802 L105.231509,99.2182802 L104.181727,116.901278 L103.049693,115.784371 C101.629191,115.077409 100.196118,115.784371 98.7756161,117.917659 L100.912654,120.026141 L100.912654,120.026141 L100.925225,120.026141 C101.959394,120.540831 103.000226,120.3061 104.03802,119.32195 Z M177.431195,310.012788 L177.431195,310.012788 C178.851697,310.71975 180.28477,310.012788 181.717842,307.891903 L179.568233,305.771018 C178.147731,305.064057 176.714659,305.771018 175.294157,307.904306 L177.431195,310.012788 Z M117.355278,187.125486 L117.355278,187.113083 C118.788351,185.711562 118.071815,184.297639 115.21824,182.896118 L113.081202,185.004601 C112.352094,186.418524 113.081202,187.832447 115.21824,189.233968 L117.355278,187.125486 Z M110.919022,31.0357899 C111.635558,29.6218665 110.919022,28.2079432 108.781983,26.7940198 L106.644945,28.9273077 C105.915838,30.3288282 106.644945,31.7427515 108.781983,33.1442721 L110.919022,31.0357899 Z M101.629191,365.106187 C103.766229,363.692264 105.199302,362.278341 103.766229,360.864417 C103.062263,360.157456 102.345727,358.743532 101.629191,358.743532 C99.4921524,360.157456 98.7630453,361.571379 99.4921524,362.985302 L101.629191,365.106187 Z M98.0716505,63.5064155 L98.0590797,63.5064155 L98.0590797,50.1113522 C91.6353941,45.8695822 91.6353941,45.8695822 84.4826013,50.1113522 L84.4826013,63.5064155 C90.9062869,68.46755 90.9062869,68.46755 98.0716505,63.5064155 Z M73.7596975,195.58422 L73.7596975,195.58422 C75.8967358,194.170297 76.6132722,192.756373 75.8967358,191.34245 C75.1801994,190.635488 74.4636631,189.233968 73.7471267,189.233968 C71.6100884,190.635488 70.1770157,192.049412 71.6100884,193.475738 L73.7596975,195.58422 Z M66.5943339,283.867609 L66.6069047,283.867609 C68.743943,282.453686 70.1770157,281.039762 68.743943,279.625839 C68.743943,278.93128 67.3234411,277.517357 66.5943339,277.517357 C64.4572957,278.93128 63.7407593,280.332801 64.4572957,281.759127 L66.5943339,283.867609 Z M27.2854006,424.428954 C28.001937,423.01503 27.2854006,421.601107 25.1357915,420.187184 L22.9987533,422.320472 C22.2822169,423.721992 22.9987533,425.135915 25.1483624,426.537436 L27.2854006,424.428954 Z" id="uE010-a3" fill="#000000"></path>
    </g>
</svg>