<svg width="109" height="497" viewBox="0 0 109 497" version="1.1" xmlns="http://www.w3.org/2000/svg" xmlns:xlink="http://www.w3.org/1999/xlink"><title>uE015-e1-thin</title><desc>Created with Sketch.</desc><g id="Page-1" stroke="none" stroke-width="1" fill="none" fill-rule="evenodd"><path d="M0.536726839,41.8745238 C2.50378512,43.9423156 4.45191133,46.4955686 6.40003753,48.4551544 C12.136967,43.4243086 12.136967,38.4060714 6.40003753,34.0939178 L3.53787712,34.0939178 C2.31144396,33.7873095 1.34891592,33.7423115 0.536726839,33.9589238 L0.536726839,0.788908766 L108.467556,0.788908766 L108.467556,52.667263 L68.2171085,52.667263 L68.2171085,198.761479 L108.467556,198.761479 L108.467556,251.236136 L68.2171085,251.236136 L68.2171085,444.140131 L108.467556,444.140131 L108.467556,496.614788 L0.536726839,496.614788 L0.536726839,41.8745238 Z M55.8889346,116.667876 L55.9015432,116.655268 C58.0450114,115.230492 58.7637037,113.793107 58.0450114,112.343114 L55.8889346,110.199646 C53.7454665,111.63703 52.3080819,113.074415 53.7454665,114.511799 L55.8889346,116.667876 Z M37.9594539,158.301593 C42.2716075,158.301593 45.1337679,156.145516 43.6963834,153.989439 C42.9776911,151.127279 40.8216144,150.408587 38.6781462,151.845971 C37.2407617,151.845971 36.534678,151.127279 35.0972935,151.845971 C32.9412167,153.283356 31.5038322,154.72074 32.2351331,156.158125 C32.9412167,156.864208 33.659909,158.301593 34.3786013,158.301593 C35.0972935,159.020285 36.534678,158.301593 37.9594539,158.301593 Z" id="uE015-e1-thin" fill="#000"/></g></svg>