<svg width="323" height="502" viewBox="0 0 323 502" version="1.1" xmlns="http://www.w3.org/2000/svg" xmlns:xlink="http://www.w3.org/1999/xlink"><title>uE010-a3</title><desc>Created with Sketch.</desc><g id="Page-1" stroke="none" stroke-width="1" fill="none" fill-rule="evenodd"><path d="M214.844308,33.4725928 C215.286998,37.4546234 216.056652,41.7776474 216.39397,44.3154511 C214.56,43.9148136 212.952817,43.5773542 211.933363,43.5773542 C212.577647,44.5127874 214.23653,45.3248074 216.57322,46.0309847 C216.898132,49.804549 217.496527,51.3605074 221.971223,51.1545112 C223.064893,50.4916808 222.880412,48.9090246 222.449228,47.3803457 C226.883433,48.1808459 232.199113,48.793803 237.437651,49.269228 C236.907736,50.6580652 236.838697,56.1280752 238.74368,56.6974961 C237.918484,56.8546022 237.245381,57.2463856 237.055367,57.9526637 C238.446871,58.1310617 239.600511,58.7614012 240.516288,59.7842163 C241.075268,57.4769357 237.578668,57.1082466 242.811675,58.392712 C243.295256,57.4115336 241.428914,56.6203314 239.685264,56.6153554 C239.838199,56.5533283 239.999331,56.4681573 240.169006,56.3577857 C240.001537,54.4263017 238.943205,51.1742463 237.859818,49.3072617 C249.555407,50.3532412 260.737115,50.7191325 260.707371,50.9630307 C258.828246,50.7251667 256.949121,50.4635164 255.069995,50.2256524 C251.775579,49.7974972 241.499855,50.0591476 239.204468,47.1691003 C236.885294,46.0392464 231.152772,43.2443447 229.237967,42.9826943 C228.829253,45.7548434 225.505799,45.9131675 221.78895,45.373653 C221.645954,44.9591147 221.528137,44.5991068 221.471708,44.3278151 C221.245864,43.2663481 220.797548,40.3393272 220.52886,37.4007453 C226.652575,40.2826357 237.155674,44.1592646 238.932114,44.9985915 C238.99158,43.7854852 238.408813,42.9529613 237.17192,42.5604857 C232.614854,41.4457435 225.6371,39.5419373 220.500673,37.0847315 C220.227359,33.9403685 220.176454,30.858938 220.841369,30.1154425 C220.30494,26.9133745 217.712652,10.3453576 216.978635,0.176757812 L264.026584,0.176757813 L266.16038,18.3505128 C265.379541,17.3220817 264.369708,16.4440767 264.24203,15.0396236 L260.138876,11.3289456 C262.105842,14.1252269 264.129838,16.8644783 266.295837,19.5042136 L301.078336,315.750371 C300.894957,315.882864 300.70289,315.983147 300.494879,316.024375 C300.722421,316.18081 300.942826,316.309953 301.156008,316.411915 L306.808381,364.553762 C306.540384,364.782647 306.231628,365.002841 305.880119,365.213456 C304.940556,364.166854 304.476722,362.965641 304.464829,361.562244 C304.833518,362.573166 302.324053,366.34331 301.42017,365.261029 C299.778908,363.298651 303.334975,352.808849 298.637161,352.761277 C298.375511,352.761277 300.480607,363.191612 299.279394,364.071709 C300.218957,365.391854 299.731335,365.605931 298.815559,366.723892 C300.454644,367.793777 303.957472,367.448337 307.006757,366.24335 L312.911751,416.53679 C311.530853,415.161723 310.657596,413.735429 311.126209,412.538873 C308.200482,411.682562 307.070628,410.885718 304.929853,409.292029 C300.267719,405.807322 304.751455,413.918484 304.822814,413.395183 C303.669174,413.787658 302.777184,413.502222 302.123058,412.479407 C300.933738,416.427949 312.624752,413.870911 310.472083,420.328918 C310.192129,420.229378 311.81591,420.438993 313.399442,420.690505 L322.946055,502 L187.813345,502 L180.373002,393.367188 L142.970198,393.367188 L140.083281,435.517655 C137.168739,434.81609 133.441723,432.241495 133.501285,429.799472 C130.218762,431.036365 131.051286,430.001656 128.779685,430.251414 C128.976888,432.15079 134.130952,435.248055 139.933848,437.699452 L139.43173,445.030636 C136.52933,446.307966 132.746377,449.332783 131.28915,449.609973 C133.434534,451.597144 136.202913,451.365108 138.995783,451.395677 L135.529855,502 L0.799325837,502 L29.0188597,261.651302 C29.6472491,262.146478 30.4584651,262.448033 31.9202839,262.136291 C38.0119928,260.862005 31.3881285,259.109418 29.3983289,258.419324 L29.4624717,257.873013 C30.5719085,257.326077 30.9317259,257.426387 32.2057207,256.142118 C31.4921287,256.03508 30.8261096,255.821002 30.1957701,255.487993 C30.0395717,255.556102 29.8804765,255.623773 29.7186562,255.691063 L33.4971044,223.509627 C34.4351824,224.461908 35.4132429,225.406594 37.9394318,225.234073 C41.7214691,224.96053 45.1586035,227.814897 48.4886992,229.123149 C50.391611,220.048639 30.7202601,225.269753 34.7877341,217.051553 C34.601883,217.417386 34.3828866,217.741385 34.1398494,218.035302 L46.1089344,116.093363 C46.7741857,116.410263 47.4238266,116.732164 48.0474615,117.066619 C47.6097931,116.011189 47.015049,115.145282 46.3061434,114.413714 L48.6174562,94.7280223 C50.9984587,96.7318756 54.6644007,98.5446695 57.6940351,97.5665304 C57.9081127,96.9718704 58.1102971,96.3772105 58.3124814,95.7944437 C57.3253459,95.4376478 55.6602981,96.5318221 53.2102991,96.0204145 C50.9298042,95.4248713 49.9576542,93.8935288 48.8963527,92.3526347 L49.2288754,89.5205022 C50.0410779,89.9066991 50.8037675,90.3331311 51.1765621,90.3235723 C51.3958187,89.6932098 50.4949925,88.9700441 49.3452179,88.5296008 L52.4377808,62.1899215 C52.8486732,63.3102449 53.6520771,64.1366036 54.8479926,64.6628065 C56.2870697,65.3288256 57.7142535,65.9829515 59.1414374,66.6608639 C59.4999416,65.8990425 54.4234775,62.498887 52.5210554,61.4806633 L59.7187962,0.176757813 L216.263724,0.176757813 L213.681663,17.9724864 C216.417099,16.3074386 217.618312,23.6693287 215.858119,24.2996682 C214.537362,24.5521658 214.352567,27.4492925 214.61898,31.0735759 C214.331944,30.8286384 214.044799,30.584556 213.75659,30.3426026 C212.412659,30.366389 208.725767,33.0304655 210.069699,34.6598337 C211.48397,32.8811491 213.189413,33.609074 214.844308,33.4725928 Z M170.720169,224.088284 L164.526284,145.7085 C165.05939,145.185813 165.75056,144.735191 165.840081,143.916705 C166.035466,142.126562 165.248443,141.822925 164.244177,142.138609 L161.87269,112.128906 L160.726243,126.014733 C160.598556,125.541511 160.417643,125.125131 160.175351,124.807902 C158.383034,126.68222 158.956102,129.121923 160.280714,131.41101 L154.516467,201.227869 C154.327285,201.276954 154.181336,201.330694 154.087222,201.389399 C154.210936,201.573803 154.33465,201.750189 154.459499,201.917861 L147.796366,282.62207 L164.066584,282.62207 C164.54145,283.134859 165.017127,283.648084 165.493989,284.162495 C165.766442,283.905701 165.718949,283.316593 165.465287,282.62207 L175.345743,282.62207 L170.895711,226.309656 C171.736911,226.359209 172.519192,226.169759 172.987894,225.621792 C172.635849,225.280101 171.722653,224.631918 170.720169,224.088284 Z M57.1564145,247.49871 C56.8077762,246.122841 61.3179729,245.86941 61.7377227,246.005545 C63.0816542,241.914285 63.4860229,237.382976 58.5384522,237.608947 C58.288695,239.202635 59.2520441,239.488072 61.4284995,238.441471 C61.6782567,239.70215 60.5721892,240.998508 60.619762,242.282974 C61.036024,249.847048 55.0775314,241.605062 54.8991334,241.569382 C54.9781694,243.268657 55.2131339,245.230548 55.924437,246.889226 C54.8654556,246.514923 53.7817518,246.561916 52.960542,247.601612 C54.2026898,247.760607 55.6690149,249.048792 56.9502148,248.448426 C58.6738589,249.888327 62.8553788,250.571833 62.7605378,247.884671 C61.017764,248.217685 59.2957114,248.188078 57.60405,247.795852 C57.4588152,247.693594 57.3092554,247.593854 57.1564145,247.49871 Z M219.708139,485.855382 C220.779577,487.075812 221.565462,487.188179 222.07699,486.158901 C222.095043,486.158384 222.103873,486.141724 222.102188,486.106804 C222.103332,486.104374 222.104475,486.101939 222.105616,486.099497 L221.963742,486.084748 C221.409232,485.559233 219.381888,482.419054 219.402292,482.429256 C218.641127,483.630469 218.748166,484.784109 219.699622,485.854497 L219.708139,485.855382 Z M260.353685,33.9849991 C259.259193,34.6033376 258.545981,35.5523507 258.222882,36.8232066 C259.55492,38.2741769 261.862201,35.3008772 260.708561,33.8023341 C260.605353,33.8506239 260.505085,33.9014767 260.407764,33.9548866 C260.604801,32.619149 262.39802,33.865861 263.219215,33.6429652 C263.338147,32.4536454 262.898099,31.5497622 261.910963,30.9432091 C262.232079,32.1801018 259.044702,32.191995 259.092275,33.2385965 C259.516695,33.4909542 259.930051,33.7433119 260.353685,33.9849991 Z M121.021751,34.7442755 C118.131704,36.3260709 116.942384,35.2913626 117.453791,31.604471 C119.34481,31.8423349 120.53413,32.8770432 121.021751,34.7442755 Z M44.9932881,213.188642 C49.4889172,210.310487 49.5483832,214.496893 53.0806633,216.031116 C50.4879459,219.040095 49.1440145,213.818981 44.9932881,213.188642 Z M240.620948,99.5063111 C237.064881,99.1019423 235.661484,92.798547 238.944007,91.1097127 C244.331626,88.3623838 240.918278,99.9820391 240.620948,99.5063111 Z M118.599106,23.8964888 C120.252261,22.5287709 121.691338,20.2809563 122.511969,23.9559548 C121.168037,24.6338671 119.859785,24.6100807 118.599106,23.8964888 Z M160.237196,38.7166039 C160.225302,36.1001001 164.685252,36.4331097 165.922145,37.7175752 C164.601999,39.0139338 161.260011,39.8107782 160.237196,38.7166039 Z M116.183598,92.2003191 C113.947676,90.0357569 113.757385,88.7393982 115.636511,88.3350294 C117.896218,90.4995916 118.074616,91.7959503 116.183598,92.2003191 Z M259.604872,222.979123 C257.035941,222.848298 259.723804,220.112862 261.150988,219.934464 C261.305599,221.123784 260.461182,222.883977 259.604872,222.979123 Z M94.7139951,342.422519 C93.1916657,340.424461 95.1659367,339.306501 96.5217614,338.057715 C98.0440908,340.067665 96.0698198,341.185626 94.7139951,342.422519 Z M213.40812,145.650733 C214.038459,145.626947 214.668799,145.60316 215.299138,145.579374 C216.762002,143.093696 212.004722,143.010443 212.432877,144.758743 C213.122683,144.663598 213.443799,144.972821 213.40812,145.650733 Z M127.897209,157.380995 C128.694054,157.88051 129.490898,158.391917 130.299635,158.891432 C129.930946,157.499927 129.038956,156.548471 127.611772,156.06085 C126.838715,156.69119 126.93386,157.131238 127.897209,157.380995 Z M124.946507,31.3297381 C125.505487,30.1760978 126.07636,29.0581371 126.635341,27.9282832 C124.887041,26.8816817 124.36374,31.1037673 123.673934,31.7341068 C124.387526,32.4476988 124.815681,32.3049804 124.946507,31.3297381 Z M63.6977219,398.091015 C63.7452947,399.042471 63.8047607,399.982033 63.8642267,400.909703 C65.8979637,400.969169 64.2685954,397.044413 64.542139,396.152423 C63.2695667,395.890773 62.9960231,396.556792 63.6977219,398.091015 Z M87.7695563,361.992777 C88.5069347,361.077001 86.9370324,358.948119 85.9023241,359.852002 C89.3751382,361.48137 83.7020823,362.254428 85.6287805,363.86001 C86.3423725,363.22967 87.0559644,362.611224 87.7695563,361.992777 Z M174.819447,298.926712 C174.890806,298.284479 174.938379,297.666033 175.009738,297.047587 C179.041532,297.440062 178.839348,299.331081 174.819447,298.926712 Z M115.278525,119.866278 C116.194302,119.961424 117.110078,120.044676 118.251825,119.378657 C120.689931,125.789091 118.656194,125.230111 115.278525,119.866278 Z M150.295671,83.7799343 C149.950768,82.5430416 150.973583,81.6272653 150.485962,80.3784794 C152.721883,79.5102759 152.41266,83.5063907 150.295671,83.7799343 Z M224.337969,411.110499 C227.323162,409.647636 226.811755,413.655644 225.646221,413.251275 C225.206173,412.537683 224.778018,411.835985 224.337969,411.110499 Z M140.69667,110.946379 C141.25565,110.494438 141.707592,109.959244 142.076281,109.340797 C139.412204,108.353662 136.56973,108.460701 135.630167,111.648078 C136.688662,112.159485 140.220942,112.314097 140.69667,110.946379 Z M66.9445652,71.1434105 C65.3508765,69.3237511 68.1814578,65.4822479 70.167622,68.6696251 C73.6404361,74.1880694 67.5154387,70.4417118 66.9445652,71.1434105 Z M215.551274,267.463254 C217.810982,264.930003 220.605884,267.487041 218.369962,269.996506 C217.430399,269.175875 216.490837,268.307672 215.551274,267.463254 Z M255.609946,145.092942 C254.289801,141.691487 257.917227,146.246583 258.369168,147.091 C256.787373,147.673766 257.084703,144.807505 255.609946,145.092942 Z M28.8494599,325.442599 C27.8742176,326.536773 28.1120816,330.413956 26.2567426,329.521966 C27.2319849,328.415899 26.9941209,324.538716 28.8494599,325.442599 Z M164.993286,105.580168 C161.817802,107.732837 160.21222,107.661478 160.164647,105.413663 C161.62751,105.187692 164.684063,103.665363 164.993286,105.580168 Z M70.085559,396.453321 C69.0627439,397.583175 67.8020648,397.868612 66.3035217,397.404777 C66.2559489,395.240215 68.5037635,396.453321 70.085559,396.453321 Z M168.059352,391.342814 C164.336781,388.833349 168.761051,386.799612 171.115904,388.904708 C170.02173,389.118785 169.010808,389.998882 168.059352,391.342814 Z M73.9651204,248.473384 C71.967063,246.939161 72.6449754,245.357366 74.5716736,243.763677 C74.9760423,245.309793 75.7253139,246.879695 73.9651204,248.473384 Z M112.972434,414.583313 C112.99622,416.081857 112.342094,418.948117 110.236998,418.448603 C109.749377,417.104672 112.330201,412.430644 112.972434,414.583313 Z M77.3166239,62.7931956 C77.0311871,65.3978061 75.6158964,65.5405245 73.0945383,63.2451372 C73.3918682,60.6524198 74.8071589,60.5215946 77.3166239,62.7931956 Z M146.009362,152.119444 L143.690188,155.11653 C142.06082,154.724055 145.212517,150.620901 146.009362,152.119444 Z M246.091819,119.18123 C248.327741,119.835356 248.577498,121.988025 250.956138,122.273462 C249.85007,119.490453 253.751039,118.788754 253.358564,116.766911 C248.744003,119.193123 244.129441,117.195066 242.297889,123.438995 C245.497159,125.032684 244.53381,120.644093 246.091819,119.18123 Z M230.272676,90.3651985 C229.035783,89.9370433 227.79889,89.5683542 226.538211,89.2234514 C229.047676,84.9894726 224.040639,88.7596166 222.946465,85.9885013 C223.600591,90.3533053 212.456664,78.0081649 211.374383,75.7603503 C208.151326,73.8574385 208.05618,76.699913 206.355453,75.4749135 C205.475356,74.8326808 204.952055,71.4787987 206.498171,72.8584098 C200.741863,67.6848683 192.844779,65.8295293 187.112257,60.5727354 C184.48386,58.158416 169.962264,46.3008968 167.250615,51.640943 C189.907159,67.3756451 211.790645,84.2164147 234.685052,99.6181072 C238.776313,92.8270906 231.06952,96.6567007 230.272676,90.3651985 Z M138.326355,63.7101612 C138.362035,61.2958419 136.126113,60.7844343 136.173686,58.3701149 C135.305483,58.8815225 134.829755,59.6189008 134.734609,60.6179295 C136.245045,59.8329784 138.611792,63.3771517 136.471016,64.11453 C133.081455,64.3761804 135.543347,60.4276383 132.867377,61.0222983 C133.354998,63.1273945 136.1499,67.1710821 138.326355,63.7101612 Z M89.3192401,36.787527 C88.7959394,36.4426242 88.2726386,36.0739351 87.7493379,35.7409255 C86.1675424,36.9778182 86.3459404,37.8579149 88.2726386,38.3812157 C88.6175414,37.8579149 88.9743374,37.322721 89.3192401,36.787527 Z M261.86339,27.0208321 C264.53936,23.4766589 262.981351,25.1298135 262.434264,22.3111254 C260.70975,23.8691344 262.422371,25.2725319 261.86339,27.0208321 Z M117.897408,398.578636 C113.687215,401.325965 108.144985,403.121838 102.567074,404.882031 C106.955665,402.265527 111.712944,399.898781 117.897408,398.578636 Z M202.590066,59.7961095 C204.01725,61.5919825 206.419676,57.9883433 204.255114,57.4888289 C203.434483,57.3104309 201.852688,58.86844 202.590066,59.7961095 Z M274.848385,150.157066 C275.906879,148.337407 275.133822,145.435466 276.739403,144.388865 C277.334063,145.328428 276.216103,152.036192 274.848385,150.157066 Z M261.411449,48.8555559 C259.770187,49.9021574 259.508537,46.7266733 260.614604,45.9774018 C260.602711,47.6186632 263.040817,47.8089544 261.411449,48.8555559 Z M160.057608,78.0652522 C159.962463,77.4349127 159.855424,76.8164664 159.760278,76.1861268 C156.846445,77.3516603 155.228969,76.138554 155.431154,73.0225359 C154.3013,75.8174377 154.729455,79.8016593 155.942561,82.537095 C160.010035,82.0494738 158.000085,78.410155 160.057608,78.0652522 Z M125.626798,438.833546 C123.711993,437.691799 122.237236,436.347867 122.368061,434.373596 C124.568303,435.420198 124.758594,437.275537 125.626798,438.833546 Z M239.941846,391.075217 C241.785292,393.215992 244.437475,398.484679 246.994513,394.048516 C245.805193,393.358711 243.842815,394.631283 242.772428,393.798759 C240.881409,390.861139 241.190632,388.982014 242.808107,386.151432 C240.453254,384.533957 240.084565,390.920605 239.941846,391.075217 Z M205.028172,357.462658 C202.804143,357.629163 193.94371,371.853429 194.169681,374.600758 C199.462155,371.948574 211.605111,356.285231 211.04613,350.25538 C208.96482,350.540816 206.300744,356.261445 205.028172,357.462658 Z M77.0549735,299.599867 C77.566381,295.306422 88.8411335,297.161761 91.2435597,298.588945 C87.1760857,298.862489 80.5991467,296.495742 77.0549735,299.599867 Z M137.995724,265.221386 C139.422908,260.154884 128.671456,262.117262 132.227523,266.862648 C134.641842,263.734737 135.581405,268.361191 137.995724,265.221386 Z M201.538707,293.653268 C202.846959,292.095259 207.865889,291.250841 205.213706,288.919774 C202.835066,290.263706 201.336523,291.797929 201.538707,293.653268 Z M120.574567,200.133477 C123.547866,200.240516 125.522137,188.811152 130.505388,187.5029 C130.445922,190.951928 120.741071,201.394156 120.574567,200.133477 Z M70.5850733,417.869404 C73.0945383,410.590767 77.7566722,405.012856 80.2423508,397.841257 C77.744779,398.971111 76.067838,406.535186 74.271965,409.11601 C72.2263348,401.861159 74.7239065,413.135911 71.2391993,414.408483 C70.6088597,414.634454 62.7712417,425.707022 66.8981817,426.587119 C68.7654139,423.982508 69.0032779,420.628626 70.5850733,417.869404 Z M275.424016,137.043625 C275.316977,135.997024 277.041491,133.106976 277.981053,133.059404 C279.49149,136.437072 278.647072,137.76911 275.424016,137.043625 Z M76.6137358,31.2833546 C75.3649499,31.6163642 74.7821832,32.3418493 74.1994164,33.0316548 C71.5115535,33.0316548 75.1151928,27.3942786 76.6137358,31.2833546 Z M123.286216,215.662427 C124.41607,217.351261 120.32481,216.768494 119.813402,219.028202 C118.552723,216.887426 121.621168,215.258058 123.286216,215.662427 Z M91.7062051,81.7010031 C93.2880006,80.9993044 92.6100883,83.1162938 95.2028056,81.1895956 C97.8074161,79.2628974 98.3307169,84.4721184 102.683628,83.3184782 C101.958143,80.1192077 92.1462535,79.7980913 89.2680994,79.3223633 C90.1481961,80.0597417 90.9569336,80.8684792 91.7062051,81.7010031 Z M109.070275,194.245154 C109.974159,195.030106 110.366634,196.492969 111.425129,197.373066 C111.294304,197.539571 111.306197,193.472097 111.734352,193.971611 C110.866148,194.209475 109.974159,194.316514 109.070275,194.245154 Z M234.00714,185.127828 C233.138936,186.114964 233.11515,186.935594 233.947674,187.613507 C236.421459,186.959381 235.303499,185.853313 235.49379,183.617392 C234.673159,183.772004 234.173645,184.271518 234.00714,185.127828 Z M68.7796857,88.8678447 C66.9957059,89.4506115 66.5913372,88.8678447 65.7112404,87.3811949 C67.3406087,86.4059526 71.2177915,87.5476997 68.7796857,88.8678447 Z M175.852966,159.483713 C175.365344,158.960412 174.984762,158.353859 174.699325,157.723519 C172.677481,165.953613 177.720198,172.720843 183.952234,177.513802 C182.810487,177.680307 182.489371,178.227394 182.988885,179.119384 C184.427962,178.691229 185.676748,179.059918 186.735243,180.249238 C189.090096,176.324482 179.58743,176.526667 181.799565,171.81696 C182.85806,173.00628 184.106846,173.363076 185.545923,172.934921 C184.523108,171.769387 181.478449,169.426427 180.312915,168.724728 C177.030392,174.338318 174.235491,162.302401 175.852966,159.483713 Z M256.532859,255.650929 C257.91247,252.653843 259.494265,252.796562 261.266352,256.031512 C261.908584,255.246561 258.76878,251.226659 258.257372,250.834184 C256.235529,253.212824 253.975821,256.007725 253.404947,259.195103 C254.808345,258.089035 255.521937,259.623258 256.711257,258.326899 C254.475335,258.053356 254.415869,257.173259 256.532859,255.650929 Z M161.509768,32.6070676 C157.739624,33.3444459 150.805889,32.9638636 149.271666,37.5903179 C155.896178,34.961921 159.868506,33.5823099 167.218503,33.4514847 C166.445445,32.3216308 163.626757,27.2670213 164.019233,31.2869225 C163.947874,30.5852238 160.962681,29.7170203 160.510739,29.7883795 C160.843749,30.716049 161.176758,31.6675049 161.509768,32.6070676 Z M283.020202,337.834123 C282.377969,341.069073 278.691077,337.679511 277.026029,337.941161 C277.953699,334.242377 275.182584,329.068835 272.922876,326.321506 C274.492778,325.512769 274.980399,320.006218 277.049816,323.134129 C278.369961,325.155973 283.674328,326.8567 285.80321,325.786312 C280.332339,325.714953 284.601997,319.138014 280.272873,318.674179 C279.725786,316.569083 283.828939,317.270782 282.913163,314.749424 C284.173842,312.323211 279.916077,307.41132 283.959764,306.329039 C281.949814,302.106953 277.751515,301.690691 273.695934,302.903798 C272.399575,299.276372 271.352974,292.223705 268.022878,290.178075 C261.37458,286.110601 257.104921,284.112544 254.298127,276.572255 C248.256381,278.748711 249.802497,267.105269 244.878713,269.840705 C245.996674,274.09847 246.591334,278.974682 244.53381,283.065942 C247.447644,285.599193 247.744974,288.893609 249.207837,292.223705 C251.182108,296.707441 260.875065,303.486564 261.184289,307.351854 C264.621423,306.899912 261.243755,303.641176 263.491569,302.487536 C264.443025,305.413263 267.701762,307.435106 268.688897,310.64627 C269.652246,313.797968 269.59278,317.15185 269.830644,320.3868 C271.721663,319.542383 272.934769,320.113256 273.45807,322.123207 C266.024821,324.727818 273.148847,329.663495 269.783071,334.480241 C270.425304,334.587279 275.598846,336.942133 274.040837,338.012521 C271.269721,337.096744 268.558072,336.050143 265.882102,334.84893 C266.809772,333.421746 266.571908,332.13728 265.418267,330.971747 C262.670938,328.188738 259.03162,326.416652 260.232833,321.778304 C257.937445,322.016168 257.271426,327.403787 254.869,323.669323 C257.437931,317.651364 256.712446,315.879278 255.225796,310.467872 C256.760019,310.491659 257.461717,309.78996 257.330892,308.350883 C256.569727,307.07831 250.646914,309.100154 249.802497,309.361805 C249.945216,313.227094 253.97701,310.325154 254.393272,313.774181 C253.144486,319.209373 254.583563,324.585099 257.877979,328.97369 C260.209046,332.077814 263.241812,334.611066 266.512442,336.644803 C266.072393,344.993828 260.74424,337.477327 258.984047,335.288978 C256.974096,339.629996 260.672881,344.577566 259.840357,349.073196 C262.314143,348.193099 266.227005,342.17514 267.000063,346.539944 C269.62846,345.564702 264.145695,337.382181 270.7821,339.83218 C273.945691,341.033393 277.715835,336.56155 277.727728,342.757907 C280.665348,341.604267 283.686221,340.617131 286.671414,339.57053 C285.696171,338.476355 284.483065,337.893589 283.020202,337.834123 Z M229.54719,133.01421 C234.161752,134.881442 232.734568,129.517609 231.676073,127.733629 C230.962481,129.493823 230.248889,131.265909 229.54719,133.01421 Z M196.341379,430.749739 C192.77342,427.40775 184.852549,438.159202 190.06177,436.589299 C187.409587,433.378136 193.29672,435.209688 192.725847,432.236388 C193.427546,433.461388 194.438467,434.282019 195.758612,434.722067 C196.174874,431.356292 201.526814,430.773525 200.908368,427.336391 C197.839922,430.381049 199.326572,427.895371 198.517835,426.289789 C197.590165,424.482023 196.317593,430.6427 196.341379,430.749739 Z M244.964344,240.772538 C245.987159,239.10749 245.642256,236.72885 247.081333,235.408705 C248.009003,235.991472 246.998081,242.00943 244.964344,240.772538 Z M93.6578791,294.118292 C92.2901612,294.415622 91.5527829,295.307612 91.4576373,296.734795 C91.8976856,295.533582 92.6112776,295.176786 93.5984131,295.652514 C95.2396745,297.139164 87.7112797,299.077756 92.9205007,300.719017 C93.4319083,299.24426 96.6311788,294.486981 93.6578791,294.118292 Z M160.57972,75.7080202 C161.745253,74.0905452 163.493553,76.9449129 165.539184,76.9449129 C164.254718,78.7051063 161.76904,76.8259809 160.57972,75.7080202 Z M58.1816562,130.0754 C58.6098114,129.611565 59.0379666,129.147731 59.4661217,128.672003 C57.8486467,128.065449 51.9852997,128.362779 54.2093278,131.56205 C55.2678225,130.325157 56.5998608,129.825643 58.1816562,130.0754 Z M48.6052525,409.890257 C48.4863206,411.472053 46.4287972,414.148022 48.4030682,414.980546 C49.2236989,414.373993 49.889718,413.648508 50.424912,412.768411 C49.1047669,412.31647 48.7836505,411.495839 49.4615629,410.247053 C52.0186006,411.222295 58.4290348,409.890257 59.6659275,410.663315 C60.0702962,408.011132 52.8511245,410.425451 54.3853472,406.227152 C51.2098631,410.247053 45.2394773,407.404579 41.8499156,411.020111 C44.0501574,410.318412 46.3098652,409.961616 48.6052525,409.890257 Z M54.8016091,339.193515 C58.4171416,342.261961 53.1008817,342.725795 54.9919003,345.544483 C56.7164142,347.709046 59.6183547,342.202495 60.1297622,347.078706 C63.5431103,344.41463 62.151606,349.350307 65.9574297,346.032105 C68.490681,343.81997 65.7909249,341.595941 64.5659254,339.32434 C63.8761199,338.670215 55.0513663,339.06269 54.8016091,339.193515 Z M232.961728,253.409061 C230.606874,252.172169 230.96367,248.033336 228.727749,246.499113 C227.740613,247.688433 231.368039,254.134547 232.533573,255.490371 C232.795223,254.812459 232.926048,254.11076 232.961728,253.409061 Z M27.0547762,408.787758 C25.722738,410.869067 25.0567188,413.473678 21.9763803,414.15159 C23.807933,412.498436 25.0805052,410.345767 27.0547762,408.787758 Z M95.051762,318.07833 L92.0546759,318.006971 C92.3520058,323.537308 94.7782184,317.578816 95.6107423,319.874203 C96.431373,318.922747 96.2529751,318.328087 95.051762,318.07833 Z M96.1780479,36.962357 C97.6052318,37.2834734 92.717127,39.1269192 93.6329034,35.3686684 C94.6913981,35.4757072 95.5477084,36.0109011 96.1780479,36.962357 Z M234.482868,192.073456 C234.102286,192.989233 234.399616,193.322242 235.362965,193.084378 C235.767333,192.01399 237.979468,188.719574 235.695974,188.374671 C235.826799,189.635351 234.589907,190.788991 234.482868,192.073456 Z M65.0797116,27.5191572 C64.1044693,24.878867 59.8585973,29.9334765 59.061753,30.3021657 C56.8734044,25.6876045 67.8151473,26.2822645 65.0797116,27.5191572 Z M243.20534,373.503015 C242.265777,373.158113 241.373787,373.253258 240.541263,373.800345 C241.790049,374.799374 243.229126,376.523888 244.703883,374.656656 C244.192475,374.287966 243.704854,373.895491 243.20534,373.503015 Z M222.78115,113.059801 C223.518528,113.309558 224.101295,112.786257 224.886246,113.309558 C222.935761,115.355188 217.809792,112.358102 222.78115,113.059801 Z M48.8895,376.917553 C47.4147433,373.575564 48.9132864,368.58042 51.5060037,366.439645 C50.5902274,369.436731 50.8161982,372.992797 48.8895,376.917553 Z M221.666757,167.28803 C218.645884,167.942156 220.429864,171.070067 219.323797,172.889727 C217.111662,174.209872 217.135448,171.569582 215.161177,172.116669 C215.743944,174.079046 216.36239,178.764967 219.728165,177.730259 C214.518944,172.223707 224.889814,172.128562 224.533018,170.415941 C222.27331,171.41497 220.429864,169.36934 221.666757,167.28803 Z M202.93259,154.593229 C203.325066,158.006578 206.024822,154.010463 206.369724,152.856822 C208.391568,146.077699 198.686718,152.535706 203.884046,153.641774 C203.360745,151.869687 203.979192,150.894445 205.739385,150.775513 C206.060501,153.142259 205.31123,154.55755 202.93259,154.593229 Z M103.337754,109.482326 C104.087025,112.170189 106.762995,127.012901 110.473673,118.449798 C106.881927,119.401254 106.441879,110.885724 106.096976,108.780628 C105.181199,109.018492 104.25353,109.256356 103.337754,109.482326 Z M241.346433,253.420955 C239.479201,253.753964 239.693278,249.555665 239.431628,247.985763 C241.346433,247.700326 241.072889,251.815373 241.346433,253.420955 Z M192.810288,87.1135979 C193.036259,88.017481 191.145241,91.8351978 193.178978,91.9303434 C193.55956,88.8024321 193.952036,85.6507345 194.332618,82.51093 C192.334561,82.1184544 193.250337,86.2929672 192.810288,87.1135979 Z M208.437952,181.167393 C208.509311,182.880014 209.068291,183.320062 210.091106,182.499431 C209.294262,180.774917 208.497418,179.050404 207.72436,177.32589 C207.272418,178.705501 207.510282,179.989966 208.437952,181.167393 Z M271.735935,127.670595 C271.902439,128.277148 272.068944,128.883702 272.235449,129.490255 C272.818216,128.17011 272.794429,126.861858 272.140303,125.589285 C271.53375,126.172052 271.391032,126.873751 271.735935,127.670595 Z M178.600295,383.33988 C179.135488,382.840366 181.823351,379.319979 182.715341,380.782842 C181.847138,381.139638 179.872867,384.933569 178.600295,383.33988 Z M77.9612352,338.31104 C79.1148755,336.693565 84.050553,341.415165 85.5015233,342.43798 C84.3954558,344.019775 79.5192443,339.405214 77.9612352,338.31104 Z M211.091324,52.0381759 C213.56511,53.4296802 216.062682,54.797398 218.524574,56.2483683 C217.727729,57.6279793 210.187441,53.6556509 211.091324,52.0381759 Z M104.087025,69.4129501 C104.110812,68.7826105 106.870034,67.3435335 107.559839,67.3911063 C106.073189,65.0481461 104.646005,62.6813995 104.669792,59.7556726 C104.134598,62.1580988 101.482415,67.3435335 104.087025,69.4129501 Z M142.171426,53.2346317 C142.956378,53.0086609 144.657105,59.5499203 138.758078,55.1256503 C140.185262,55.0305047 141.327009,54.4120584 142.171426,53.2346317 Z M122.414445,35.0927462 C124.067599,33.28498 124.317356,36.6745416 123.889201,37.7211431 C123.40158,36.8410464 122.913959,35.9609497 122.414445,35.0927462 Z M255.783587,200.191754 C254.558588,201.559472 253.393054,199.347337 252.322666,198.383988 C253.559559,196.98059 254.713199,199.264084 255.783587,200.191754 Z M274.448773,154.524249 C271.713338,154.179346 278.956296,147.91163 279.979111,150.385416 C278.730325,150.575707 276.363578,153.786871 274.448773,154.524249 Z M141.335335,373.96685 C141.822956,373.467336 141.775383,373.027287 141.204509,372.646705 C140.360092,373.217579 135.25791,378.165149 137.160822,379.128498 C138.540433,377.225587 139.741646,375.941121 141.335335,373.96685 Z M223.983552,190.272826 C222.770446,191.010204 221.010252,189.154865 220.403699,187.989332 C222.247145,187.57307 223.436465,188.346128 223.983552,190.272826 Z M54.4008083,77.4039904 C57.5643992,78.8549606 60.6090581,79.0928246 63.4277463,80.4486493 C61.8935236,83.9452497 53.9250804,78.4862715 54.4008083,77.4039904 Z M218.048846,306.847582 C214.243022,310.85559 208.403461,311.735687 205.477735,317.06384 C207.416326,315.838841 210.437198,317.123306 212.209285,315.61287 C214.802002,313.424521 213.719721,317.016267 217.370933,317.420636 C219.10734,315.184715 216.348118,313.436415 217.370933,311.331318 C218.358069,309.285688 221.616805,308.964572 218.048846,306.847582 Z M204.41924,62.0379775 C206.512443,61.4314243 208.498607,61.6573951 210.389626,62.668317 C208.760257,63.0132198 204.883075,63.9289961 204.41924,62.0379775 Z M201.840794,396.870772 C199.545407,398.452568 199.093465,396.359365 197.047835,397.453539 C196.393709,396.050142 202.340309,393.683395 201.840794,396.870772 Z M155.765353,367.98576 C156.027003,371.351536 153.791082,374.003719 154.052732,377.369494 C155.12312,375.300078 160.510739,360.088676 158.048847,359.886492 C156.169722,359.73188 157.953701,367.284062 155.765353,367.98576 Z M168.582653,139.994328 C168.582653,139.066658 171.758137,137.449183 172.245758,138.983406 C171.020759,139.316416 169.807653,139.661318 168.582653,139.994328 Z M141.085577,194.233261 C142.381936,192.366029 146.829992,198.027192 148.221497,198.942968 C146.794313,201.166996 142.405722,195.398795 141.085577,194.233261 Z M197.090651,26.6830653 C196.686282,25.0774834 194.48604,20.6056407 192.618808,21.4381646 C192.975604,23.0080668 197.530699,31.6663156 199.921232,30.6197141 C198.624873,27.74156 198.660553,28.5384043 197.090651,26.6830653 Z M90.7309628,107.636502 C90.3265941,108.992326 82.964704,107.041842 81.1331514,106.459075 C81.9656753,104.020969 89.0302354,107.041842 90.7309628,107.636502 Z M36.5729033,232.921837 C35.2527582,233.885186 31.5539734,238.642466 32.8384388,239.796106 C34.3250887,238.000233 38.9753294,236.489797 37.9168347,232.874264 C37.4886796,233.433245 37.036738,233.457031 36.5729033,232.921837 Z M62.746266,115.023368 C63.3884987,116.474338 57.6797633,119.578463 57.1564625,116.474338 C58.9047627,115.713173 60.771995,115.915358 62.746266,115.023368 Z M130.586261,323.281605 C131.002523,323.757333 131.823154,325.018012 132.560532,324.042769 C131.728009,323.614614 130.110534,319.689859 128.695243,321.140829 C129.325582,321.866314 129.955922,322.556119 130.586261,323.281605 Z M191.370022,396.556792 C191.013226,395.082035 189.907159,393.191017 191.215411,392.64393 C191.560313,394.0949 192.666381,395.974025 191.370022,396.556792 Z M239.994176,118.182201 C237.88908,117.444823 240.660195,114.114727 241.885195,116.041425 C242.515534,117.064241 240.779127,118.443852 239.994176,118.182201 Z M290.609252,461.993172 C290.514106,463.91987 288.884738,464.55021 287.231583,462.528366 C288.40901,460.98225 289.550757,460.649241 290.609252,461.993172 Z M178.396921,295.778582 C180.347405,294.125428 184.34352,295.041204 181.584298,298.050183 C180.799347,296.908436 179.740852,296.123485 178.396921,295.778582 Z M172.368258,62.4554288 C173.462433,62.4197492 176.293014,67.2246015 172.927239,67.1651355 C172.748841,65.6071264 172.55855,64.0372242 172.368258,62.4554288 Z M141.434048,158.344344 C142.504436,157.666432 143.574824,157.000413 144.645212,156.322501 C143.491572,154.586094 139.079195,158.713034 137.72337,159.581237 C139.150554,159.854781 140.387447,159.426626 141.434048,158.344344 Z M96.4040187,141.632021 C97.8668821,142.583477 93.4663986,148.815513 92.0630011,147.828378 C93.5139714,145.794641 94.9768348,143.713331 96.4040187,141.632021 Z M292.810683,324.095099 C292.691751,323.393401 292.560926,322.715488 292.441994,322.001896 C291.419179,322.953352 290.217966,323.452867 288.838355,323.488546 C289.516267,324.606507 289.575733,325.748254 288.992966,326.901894 C290.97913,326.949467 292.263596,325.998011 292.810683,324.095099 Z M75.829974,23.3149114 C77.5782742,22.3872419 81.8241462,18.3554474 82.9777865,20.5913688 C81.5743891,21.3287472 76.8171095,25.1345708 75.829974,23.3149114 Z" id="uE010-a3" fill="#000"/></g></svg>