<svg width="159" height="500" viewBox="0 0 159 500" version="1.1" xmlns="http://www.w3.org/2000/svg" xmlns:xlink="http://www.w3.org/1999/xlink"><title>uE018-c1-thin</title><desc>Created with Sketch.</desc><g id="Page-1" stroke="none" stroke-width="1" fill="none" fill-rule="evenodd"><path d="M0.593755082,352.480079 L0.593755082,94.5140131 C0.593755082,52.176294 5.61258782,25.839845 15.6504039,15.503876 C25.6882199,5.16790698 47.2046018,0 80.2001952,0 C112.798251,0 134.066176,5.06852415 144.004608,15.2057245 C153.94304,25.3429249 158.912181,51.7787567 158.912181,94.5140131 L158.912181,170.840787 L90.9336477,170.840787 L90.9336477,70.0655933 C90.9336477,68.6949258 90.8944195,67.4096419 90.8159628,66.2097402 C90.9384789,66.1238166 91.0631614,66.0363201 91.1900855,65.9472506 L91.1774769,65.9472506 L91.1774769,52.3299235 C84.7344638,48.0177699 84.7344638,48.0177699 77.5601498,52.3299235 L77.5601498,52.6790271 C74.7429524,53.1474266 72.6414668,54.4209786 71.2556513,56.4997018 C69.4667336,59.1830784 68.5722882,63.704997 68.5722882,70.0655933 L68.5722882,195.47514 C67.9789836,194.731988 67.385679,193.760996 66.7923745,193.760996 C64.6489063,195.185772 63.2115218,196.623156 64.6489063,198.073149 L66.8049831,200.216617 L66.8049831,200.216617 C67.5810613,199.696189 68.1703625,199.17576 68.5722882,198.655331 L68.5722882,429.934407 C68.5722882,436.493772 69.4667336,441.164764 71.2556513,443.947525 C73.044569,446.730286 76.0260538,448.121646 80.2001952,448.121646 C83.9767992,448.121646 86.7098269,446.730286 88.3993603,443.947525 C89.0736659,442.836904 89.6134092,441.425513 90.0185918,439.713342 C90.4466536,439.138572 90.5685365,438.484132 90.3849096,437.864469 C90.7507359,435.629988 90.9336477,432.986639 90.9336477,429.934407 L90.9336477,288.312463 L158.912181,288.312463 L158.912181,405.485987 C158.912181,448.221243 153.94304,474.657075 144.004608,484.794275 C134.066176,494.931476 113.394548,500 81.9891039,500 C47.8008988,500 25.6882199,494.981167 15.6504039,484.943351 C5.61258782,474.905535 0.593755082,448.420012 0.593755082,405.485987 L0.593755082,370.097298 C4.04344481,367.253782 7.80987125,364.579071 7.27961163,360.346297 C6.68367793,353.791027 6.09641342,352.671332 0.593755082,352.480079 Z M104.076112,32.937841 C104.794804,31.5004565 104.076112,30.0630719 101.932644,28.6256874 L99.7891754,30.7943728 C99.0578745,32.2191487 99.7891754,33.6565333 101.932644,35.0813091 L104.076112,32.937841 Z M94.0396373,123.404806 L94.0396373,123.404806 L94.0522459,123.404806 C95.4770218,124.123498 96.9144064,123.404806 98.3391823,121.248729 L96.1831055,119.092652 C94.7583296,118.37396 93.320945,119.092652 91.8961692,121.261338 L94.0396373,123.404806 Z M94.7583296,372.551457 C96.9017977,371.114072 98.3391823,369.676688 96.9017977,368.239303 C96.1957141,367.520611 95.4770218,366.083227 94.7583296,366.083227 C92.6148614,367.520611 91.8835605,368.957996 92.6148614,370.39538 L94.7583296,372.551457 Z M59.6180605,289.96489 L59.6306691,289.96489 C61.7741373,288.527505 63.2115218,287.090121 61.7741373,285.652736 C61.7741373,284.946653 60.3493614,283.509268 59.6180605,283.509268 C57.4745923,284.946653 56.7559001,286.371429 57.4745923,287.821422 L59.6180605,289.96489 Z M20.1908551,432.858564 C20.9095474,431.421179 20.1908551,429.983795 18.0347783,428.54641 L15.8913102,430.715096 C15.1726179,432.139872 15.8913102,433.577256 18.0473869,435.002032 L20.1908551,432.858564 Z" id="uE018-c1-thin" fill="#000"/></g></svg>