<svg width="198" height="500" viewBox="0 0 198 500" version="1.1" xmlns="http://www.w3.org/2000/svg" xmlns:xlink="http://www.w3.org/1999/xlink"><title>uE011-d1</title><desc>Created with Sketch.</desc><g id="Page-1" stroke="none" stroke-width="1" fill="none" fill-rule="evenodd"><path d="M0,0 L104.630186,0 C143.916813,0 169.222232,5.81273001 180.547204,17.4383644 C191.872175,29.0639988 197.534576,57.125454 197.534576,101.623572 L197.534576,397.775105 C197.534576,442.874549 191.872175,471.186553 180.547204,482.711966 C169.222232,494.23738 144.117252,500 105.231509,500 L0,500 L0,0 Z M85.3878533,65.2435358 L85.3878533,434.756464 L92.9043897,434.756464 C100.521185,434.756464 105.582268,433.353391 108.087793,430.547204 C110.593318,427.741016 111.846061,420.324775 111.846061,408.298256 L111.846061,92.3030667 C111.846061,79.8756645 110.543208,72.2589838 107.937462,69.4527962 C105.331717,66.6466085 99.9198647,65.2435358 91.7017438,65.2435358 L85.3878533,65.2435358 Z M184.299708,237.386451 L184.299708,237.386451 L184.299708,237.373747 C187.196321,235.938145 187.90777,234.489838 187.196321,233.054236 C185.73531,231.593225 182.127248,229.43347 181.415799,225.812703 C181.415799,222.191937 180.691646,219.295324 177.807737,217.135569 C174.911124,217.847017 170.566205,215.687262 168.406449,219.295324 C167.682296,225.812703 164.785683,232.317378 170.566205,237.386451 L184.299708,237.386451 Z M163.337376,299.60011 L163.337376,299.60011 L163.350081,299.60011 C164.785683,300.324264 166.23399,299.60011 167.669592,297.427651 L165.509836,295.255191 C164.06153,294.543742 162.625928,295.255191 161.177621,297.440355 L163.337376,299.60011 Z M158.281008,70.2722033 L158.281008,70.2722033 L158.293712,70.2594989 L160.453468,68.0997435 C159.005161,65.9399881 157.556855,65.2031304 156.108548,65.9399881 C154.672946,66.6514369 153.22464,68.0997435 153.948793,68.0997435 C155.397099,70.2722033 156.832701,70.9963566 158.281008,70.2722033 Z M143.111903,363.262076 C145.271658,361.81377 146.719965,360.365463 145.271658,358.917156 L143.099198,356.757401 C140.939443,358.205708 140.21529,359.654014 140.939443,361.102321 L143.111903,363.262076 Z M79.5007547,196.147828 L79.5007547,196.147828 C81.6605101,194.699522 82.3846634,193.251215 81.6605101,191.802908 C80.9490613,191.078755 80.224908,189.643153 79.5007547,189.643153 C77.3409994,191.078755 75.8799884,192.527062 77.3409994,193.988073 L79.5007547,196.147828 Z M71.5477732,209.169883 L71.5477732,209.169883 L71.5604776,209.169883 C72.9960797,209.894036 74.4443863,209.169883 75.8799884,206.997423 L73.7075286,204.824963 C72.2719265,204.10081 70.8236199,204.824963 69.3880178,207.010127 L71.5477732,209.169883 Z M59.2625765,209.169883 L59.2625765,209.169883 L59.2752809,209.169883 L61.4350363,206.997423 C60.710883,204.824963 58.5384232,204.10081 57.0901166,204.824963 L54.9303613,207.010127 C56.3786678,209.169883 57.8142699,209.894036 59.2625765,209.169883 Z M26.7392015,186.022387 C31.7955699,191.078755 36.1404895,191.078755 41.196858,186.022387 C36.1404895,180.953314 31.8082744,180.953314 26.7392015,186.022387 Z" id="uE011-d1" fill="#000"/></g></svg>