<svg width="159" height="497" viewBox="0 0 159 497" version="1.1" xmlns="http://www.w3.org/2000/svg" xmlns:xlink="http://www.w3.org/1999/xlink"><title>uE023-d1-thin</title><desc>Created with Sketch.</desc><g id="Page-1" stroke="none" stroke-width="1" fill="none" fill-rule="evenodd"><path d="M0.421586166,0.788908766 L90.1651759,0.788908766 C117.396479,0.788908766 135.583536,6.35434705 144.726893,17.4853906 C153.87025,28.6164341 158.44186,56.2448599 158.44186,100.371497 L158.44186,397.0322 C158.44186,441.158837 153.87025,468.787263 144.726893,479.918306 C135.583536,491.04935 117.396479,496.614788 90.1651759,496.614788 L0.421586166,496.614788 L0.421586166,0.788908766 Z M68.1019678,52.667263 L68.1019678,444.140131 L72.8723912,444.140131 C80.028062,444.140131 84.7984377,442.848154 87.1836613,440.264162 C89.5688849,437.68017 90.7614788,430.623989 90.7614788,419.095408 L90.7614788,78.3082886 C90.7614788,66.5809392 89.5688849,59.3756843 87.1836613,56.6923077 C84.7984377,54.0089311 80.028062,52.667263 72.8723912,52.667263 L68.1019678,52.667263 Z M141.400038,48.4551544 C147.136967,43.4243086 147.136967,38.4060714 141.400038,34.0939178 L138.537877,34.0939178 C135.663108,33.3752255 134.238332,34.0939178 132.800948,36.2499946 C132.082255,37.6873791 132.800948,39.1247636 134.944416,41.2682318 C137.113101,43.4243086 139.256569,46.2990776 141.400038,48.4551544 Z M129.926179,100.869255 L129.926179,100.869255 C130.644871,99.4318706 129.926179,97.994486 127.770102,96.5571015 L125.626634,98.7131783 C124.907941,100.150563 125.626634,101.587947 127.78271,103.012723 L129.926179,100.869255 Z M109.121929,87.2267107 L109.121929,87.2141021 C109.85323,85.7893262 109.121929,83.6332494 106.978461,82.9271658 C106.259768,82.1958649 104.822384,82.9271658 103.397608,82.9271658 C100.522839,82.1958649 99.0854545,82.9271658 97.6480699,85.0706339 C96.2106854,87.2267107 99.0854545,89.3701789 103.397608,89.3701789 L106.978461,89.3701789 C107.697153,88.6640952 109.121929,87.945403 109.121929,87.2267107 Z M99.0854545,432.577256 C100.522839,433.295948 101.960224,432.577256 103.397608,430.421179 L101.228923,428.265103 C99.8041467,427.54641 98.3667622,428.265103 96.9419863,430.433788 L99.0854545,432.577256 Z M40.2787752,147.533818 L40.2787752,147.533818 C44.5783202,152.564663 49.609166,152.564663 53.8961023,147.533818 L51.7526342,145.377741 C51.7526342,144.659049 51.0339419,143.940356 49.609166,143.221664 C47.4530892,141.796888 46.0157047,137.484735 42.4222434,138.922119 C38.8413907,140.346895 40.2787752,144.659049 40.2787752,147.533818 Z M43.8596279,365.083227 C46.0030961,363.645842 47.4530892,362.208458 46.0030961,360.771073 C46.0030961,360.064989 44.5783202,358.627605 43.8596279,358.627605 C41.7161597,360.064989 40.9974675,361.502374 41.7161597,362.939758 L43.8596279,365.083227 Z M37.4040062,164.769823 C39.5474743,163.332439 40.2787752,161.895054 39.5474743,160.45767 L37.4040062,158.301593 C35.260538,159.738977 33.8231535,161.176362 35.260538,162.613747 L37.4040062,164.769823 Z" id="uE023-d1-thin" fill="#000"/></g></svg>