<svg width="500" height="500" viewBox="0 0 500 500" version="1.1" xmlns="http://www.w3.org/2000/svg" xmlns:xlink="http://www.w3.org/1999/xlink"><title>uE026-close</title><desc>Created with Sketch.</desc><g id="Page-1" stroke="none" stroke-width="1" fill="none" fill-rule="evenodd"><path d="M69.8924762,48.6792728 C69.2953721,49.4206125 68.8006249,50.4079886 68.4857369,51.6675408 C67.3928289,52.7604488 68.4857369,54.9462646 68.4857369,57.1320805 C67.3928289,61.4845384 68.4857369,63.6703543 71.7452868,65.8561702 C75.0240107,68.0611599 78.3027345,63.6703543 78.3027345,57.1320805 L78.2835606,57.1320805 L78.2835606,57.0703572 L166.666767,145.453564 C164.271809,154.566034 166.558239,157.731264 175.770313,159.790433 C175.041708,163.58685 176.115442,165.695971 179.16408,167.728396 C182.42363,171.00712 187.888169,173.192936 186.795261,179.73121 L186.795261,179.73121 L186.776087,179.73121 C192.324497,178.940561 194.992922,177.587965 196.458311,175.245108 L250.25514,229.041937 L419.900706,59.3963714 C421.781263,61.919668 423.672355,63.3062644 425.549062,61.4129496 L425.568236,61.4129496 L428.827786,58.1342257 C428.047699,55.8076507 426.710808,54.5849153 424.824085,54.4729922 L478.290513,1.00656479 C478.684662,0.612414864 479.320519,0.609228182 479.709985,0.998694459 L499.511586,20.8002954 C499.90139,21.1900987 499.902031,21.8214528 499.503716,22.2197682 L487.430209,34.2932756 C486.816101,33.446883 485.874252,32.6004904 484.604663,31.7540978 L481.345113,35.0519954 C480.593948,36.5411472 480.875348,38.0393565 482.189311,39.5341727 L350.177716,171.545769 C349.362781,170.49008 348.365499,169.45282 347.185871,168.442133 C345.540811,169.259144 344.059187,170.370362 342.814239,171.720857 L339.554689,174.980407 C337.368873,178.25913 330.830599,180.444946 332.997241,185.909486 C333.280914,186.616179 333.638216,187.194667 334.057161,187.666323 L271.468344,250.25514 L385.626635,364.413431 C383.017392,368.851957 384.510271,370.986249 390.105272,378.985133 L399.92227,378.985133 C399.962731,378.933082 400.002978,378.881308 400.04301,378.829806 L463.829408,442.616204 C460.819262,444.702043 458.924233,446.787881 461.010071,448.873719 L464.269621,452.152443 C466.986444,450.330574 468.211387,448.508704 467.900038,446.686834 L499.503716,478.290513 C499.897866,478.684662 499.901053,479.320519 499.511586,479.709985 L479.709985,499.511586 C479.320182,499.90139 478.688828,499.902031 478.290513,499.503716 L471.07024,492.283443 C471.457486,487.240912 473.807848,482.34007 467.760734,479.32538 C464.320191,478.342368 460.662484,477.801439 456.588798,477.802002 L250.25514,271.468344 L235.392659,286.330826 C233.746565,286.306723 232.094813,287.536129 230.454057,290.019042 L231.077416,290.646068 L170.258097,351.465387 C168.848043,349.238496 166.194612,348.584411 164.333501,349.514966 L161.073951,352.79369 C162.483369,354.914053 163.9009,356.125692 165.315988,356.407496 L68.29423,453.429254 L63.5960608,453.429254 C62.5223266,453.429254 60.3365108,455.61507 60.3365108,456.707978 C59.2436028,457.800886 59.2436028,458.893794 60.3365108,459.967528 C60.4676043,460.295262 60.6340093,460.60334 60.8317216,460.891763 L56.1665632,465.556921 C56.0343598,465.462888 55.8981452,465.368855 55.7579208,465.274822 C54.6650128,464.181915 52.479197,465.274822 50.3125549,465.274822 C45.9409232,464.181915 43.7551073,465.274822 41.5692914,468.57272 C39.7856288,471.232568 42.3684626,473.892416 46.9423696,474.781115 L22.2197682,499.503716 C21.8256183,499.897866 21.1897617,499.901053 20.8002954,499.511586 L0.998694459,479.709985 C0.608891198,479.320182 0.608249372,478.688828 1.00656479,478.290513 L87.2906335,392.006444 C86.9591012,392.403843 86.6272605,392.851756 86.2949768,393.350181 L89.5737006,396.609731 C91.7403426,397.702639 93.9261585,396.609731 96.1119744,393.350181 L96.1119744,393.350181 L96.0928006,393.331007 C97.2048823,393.331007 95.0190664,391.164365 92.8332506,390.071457 C91.4151533,389.362409 90.0051263,389.573383 88.5926981,390.704379 L156.504344,322.792734 L172.209989,322.792734 L172.209989,322.792734 L172.209989,322.77356 C176.58162,320.606918 177.655355,318.421102 176.58162,316.25446 C175.019809,314.692648 171.832301,312.601764 169.724084,309.572993 L229.041937,250.25514 L1.00656479,22.2197682 C0.612414864,21.8256183 0.609228182,21.1897617 0.998694459,20.8002954 L20.8002954,0.998694459 C21.1900987,0.608891198 21.8214528,0.608249372 22.2197682,1.00656479 L69.8924762,48.6792728 Z M180.198336,158.985133 L176.978264,158.985133 L176.978264,155.76506 L180.198336,158.985133 Z M81.2773791,76.6031478 C84.5369291,74.417332 86.722745,72.2315161 84.5369291,70.0457002 C83.463195,68.9527923 82.3702871,66.7669764 81.2773791,66.7669764 C78.0178291,68.9527923 76.9057474,71.1386082 78.0178291,73.324424 L81.2773791,76.6031478 Z M372.284406,142.231516 L372.265232,142.231516 C373.35814,142.231516 371.172324,140.0457 368.986508,138.971966 C366.819866,137.859884 364.63405,138.971966 362.467408,142.231516 L365.726958,145.491066 C367.912774,146.603148 370.09859,145.491066 372.284406,142.231516 Z M132.941998,134.58026 L132.941998,134.58026 L132.961172,134.561086 L136.220722,131.301536 C134.034906,128.041986 131.84909,126.929904 129.663274,128.041986 C127.496632,129.11572 125.310817,131.301536 126.403724,131.301536 C128.58954,134.58026 130.756182,135.673168 132.941998,134.58026 Z M16.0484531,16.7669764 C19.3080031,14.5811605 21.4938189,12.3953447 19.3080031,10.2095288 L16.0292793,6.9499788 C12.7697293,9.13579467 11.6768213,11.3216105 12.7697293,13.5074264 L16.0484531,16.7669764 Z M269.702874,260.529702 L269.702874,260.529702 C271.88869,258.343886 270.795782,256.177244 266.42415,253.991428 L263.1646,257.250978 C262.071692,259.436794 263.1646,261.62261 266.443324,263.808426 L269.702874,260.529702 Z M187.888169,185.19575 L187.888169,185.19575 C187.888169,184.102842 188.981077,180.824118 187.888169,180.824118 C183.516537,179.750384 181.330722,180.824118 179.16408,183.009934 C176.978264,185.19575 176.978264,187.381565 181.330722,189.567381 C182.42363,189.567381 183.516537,188.4553 184.628619,188.4553 L187.888169,185.19575 Z" id="uE026-close" fill="#000"/></g></svg>