<svg width="483" height="500" viewBox="0 0 483 500" version="1.1" xmlns="http://www.w3.org/2000/svg" xmlns:xlink="http://www.w3.org/1999/xlink"><title>uE025-plane</title><desc>Created with Sketch.</desc><g id="Page-1" stroke="none" stroke-width="1" fill="none" fill-rule="evenodd"><path d="M204.177482,499.999981 L233.634597,486.75703 L268.120831,340.46779 L283.053993,281.162143 L372.741923,281.423088 C392.388118,281.971206 412.034321,280.332199 431.318111,276.536302 C448.516749,273.090644 463.105938,269.253569 473.425121,265.428355 C473.425121,265.428355 482.914024,255.470937 482.914024,249.931789 C482.914024,244.392642 473.425121,234.381848 473.425121,234.381848 C463.094077,230.562565 448.516749,226.719559 431.318111,223.273901 C412.033015,219.487359 392.387855,217.848439 372.741923,218.387115 L283.053993,217.123905 L268.120831,162.56271 L233.634597,13.1124786 C233.24911,12.371158 203.584426,0 203.584426,0 L218.837838,168.647469 L218.713296,218.381185 L176.072536,218.381185 C174.139172,218.381185 128.580574,219.027616 102.438644,225.278432 C95.3753419,226.962712 86.3075084,229.317146 75.4427138,232.270567 L27.2805977,166.055812 C26.7779032,165.365894 25.9755045,164.958082 25.1218722,164.958658 L2.66282356,164.958658 C1.82883021,164.958858 1.04310298,165.349783 0.539915859,166.014876 C0.0367287407,166.679968 -0.12578887,167.542393 0.1008196,168.34501 L23.0639662,249.676775 L23.0639662,250.542637 L0.130472424,331.880332 C0.0496461918,332.113263 0.00562685743,332.35737 0,332.603861 C0.00976128967,334.075062 1.20345549,335.263462 2.67468469,335.266685 L25.1574555,335.266685 C26.0106273,335.26534 26.8122062,334.857944 27.3161811,334.16953 L75.4367833,267.948845 C86.3075084,270.914127 95.3931335,273.286353 102.432714,274.929119 C128.574643,281.185865 174.139172,281.802644 176.066605,281.826366 C176.575874,281.834146 177.076469,281.694062 177.507733,281.423088 L218.707366,281.423088 L218.837838,331.162734 C218.837838,331.162734 203.952121,500.065217 204.177482,499.999981 Z" id="uE025-plane" fill="#000" fill-rule="nonzero"/></g></svg>