<svg width="211" height="497" viewBox="0 0 211 497" version="1.1" xmlns="http://www.w3.org/2000/svg" xmlns:xlink="http://www.w3.org/1999/xlink"><title>uE021-m2-thin</title><desc>Created with Sketch.</desc><g id="Page-1" stroke="none" stroke-width="1" fill="none" fill-rule="evenodd"><path d="M0.916463382,89.3827875 L0.916463382,0.788908766 L75.1561772,0.788908766 L102.884263,227.384019 L107.654686,227.384019 L135.680924,0.788908766 L210.218789,0.788908766 L210.218789,326.780397 C205.326588,322.732498 201.086003,322.81582 196.166976,327.030363 C201.086003,331.961748 205.326588,332.059242 210.218789,327.322844 L210.218789,496.614788 L150.886648,496.614788 L156.551526,197.270722 L149.694042,197.270722 L121.071502,496.614788 L89.4674473,496.614788 L60.5467556,197.270722 L53.9874234,197.270722 L59.9504526,496.614788 L0.916463382,496.614788 L0.916463382,96.3768833 C3.30356073,96.3517693 5.75394165,95.4535846 6.81047802,93.6823325 L6.82308665,93.6823325 C7.54177892,92.9636402 6.82308665,92.2449479 6.82308665,91.5262557 C6.10439439,90.8075634 5.38570213,89.3827875 3.9483176,89.3827875 L0.916463382,89.3827875 Z M194.023508,267.441948 L194.023508,267.429339 C194.023508,267.429339 196.166976,266.004563 196.166976,265.285871 C194.729592,264.567179 194.023508,262.411102 192.586124,261.69241 C189.711355,260.255025 188.286579,261.69241 189.711355,264.567179 C190.430047,266.004563 192.586124,266.723256 194.023508,267.441948 Z M186.130502,262.411102 L186.130502,262.411102 C186.849194,262.411102 188.992662,263.129794 188.992662,262.411102 C189.711355,260.255025 188.992662,258.817641 187.567887,257.392865 C186.130502,255.236788 184.693118,255.236788 183.255733,258.111557 C183.255733,258.817641 183.987034,259.536333 183.987034,260.267634 L186.130502,262.411102 Z M188.27397,300.463966 C188.992662,299.745274 188.27397,297.589197 186.130502,296.164421 L183.987034,298.307889 C183.255733,299.745274 183.987034,301.182658 186.130502,302.620043 L188.27397,300.463966 Z M179.67488,81.4771726 C183.255733,79.3337045 183.255733,71.4280896 179.67488,70.0033137 L177.531412,70.0033137 C173.937951,72.1467818 173.937951,80.0397881 177.531412,81.4771726 L179.67488,81.4771726 Z M117.993432,286.821422 L117.993432,286.821422 L117.968215,286.821422 C119.418208,285.384037 117.968215,283.959261 115.824747,282.521877 C115.106054,281.803185 113.681278,282.521877 112.243894,282.521877 C109.369125,281.803185 107.944349,282.521877 106.506964,284.665345 C105.06958,286.83403 107.944349,288.977499 112.243894,288.977499 L115.849964,288.977499 C116.556047,288.258806 117.993432,287.540114 117.993432,286.821422 Z M25.4712596,248.049865 C30.4894968,243.737712 30.4894968,238.719475 25.4712596,234.407321 C20.4530224,238.719475 20.4530224,243.75032 25.4712596,248.049865 Z M25.4712596,399.555238 L25.4712596,399.555238 C27.6147277,398.117853 29.0521123,396.680469 27.6147277,395.230476 L25.4712596,393.087008 C23.3277914,394.524392 22.5964905,395.961777 23.3277914,397.399161 L25.4712596,399.555238 Z" id="uE021-m2-thin" fill="#000"/></g></svg>