<svg width="176" height="497" viewBox="0 0 176 497" version="1.1" xmlns="http://www.w3.org/2000/svg" xmlns:xlink="http://www.w3.org/1999/xlink"><title>uE022-a3-thin</title><desc>Created with Sketch.</desc><g id="Page-1" stroke="none" stroke-width="1" fill="none" fill-rule="evenodd"><path d="M68.7772179,496.066904 L65.0893563,495.759132 C66.5286436,495.999717 67.7291472,496.159765 68.7698547,496.266237 L68.7569795,496.614788 L0.480294899,496.614788 L37.7492275,0.788908766 L138.524421,0.788908766 L175.793354,496.614788 L107.814821,496.614788 L103.044397,383.615385 L72.9310999,383.615385 L68.7772179,496.066904 Z M89.3016444,80.4015536 C89.3667102,80.2853085 89.4244859,80.16472 89.4744587,80.0397881 L89.4744587,77.8963199 C89.3805579,77.7388981 89.275623,77.5883725 89.1606801,77.4447432 L89.0312788,74.7304711 L87.24237,74.7304711 L87.1863336,75.9661464 C83.9953207,74.498994 79.1021736,75.1423851 78.0005997,77.8963199 L78.0005997,77.8963199 L78.0005997,80.0397881 C79.5238765,82.5935169 83.9508856,83.3324131 86.9010744,82.2564766 L75.6144631,331.140727 L93.7560476,331.140727 C92.0459333,332.405811 91.0841444,333.670894 92.3492277,334.935977 L94.4926959,337.079446 L94.5053045,337.079446 C96.6487727,335.65467 97.3674649,334.217285 96.6487727,332.767292 L95.0126401,331.140727 L101.255489,331.140727 L89.3016444,80.4015536 Z M122.47126,248.049865 C127.489497,243.737712 127.489497,238.719475 122.47126,234.407321 C117.453022,238.719475 117.453022,243.75032 122.47126,248.049865 Z M122.47126,399.555238 L122.47126,399.555238 C124.614728,398.117853 126.052112,396.680469 124.614728,395.230476 L122.47126,393.087008 C120.327791,394.524392 119.596491,395.961777 120.327791,397.399161 L122.47126,399.555238 Z M103.810478,93.6823325 L103.823087,93.6823325 C104.541779,92.9636402 103.823087,92.2449479 103.823087,91.5262557 C103.104394,90.8075634 102.385702,89.3827875 100.948318,89.3827875 L94.4926959,89.3827875 C93.7866122,89.3827875 92.3366191,90.8075634 92.3366191,91.5388643 C91.6305354,92.2449479 91.6305354,92.9636402 92.3366191,93.6823325 C93.7866122,97.2757938 101.66701,97.2757938 103.810478,93.6823325 Z M66.5267408,117.37396 C64.3832726,118.811344 63.6519717,120.248729 64.3832726,121.698722 L66.5267408,123.84219 C68.6702089,122.404806 70.1075935,120.967421 68.6702089,119.530037 C67.9641253,118.092652 66.5267408,116.655268 66.5267408,117.37396 Z M38.5481771,109.480954 L38.5607857,109.480954 C40.7042538,108.043569 42.1416384,106.606185 40.7042538,105.1688 L38.5481771,103.025332 C36.4047089,104.450108 35.6860166,105.887492 36.4047089,107.337485 L38.5481771,109.480954 Z M7.00136928,458.42496 C12.0069979,463.455806 16.3191514,463.455806 21.3373886,458.42496 C16.3191514,453.394115 11.2883056,453.394115 7.00136928,458.42496 Z" id="uE022-a3-thin" fill="#000"/></g></svg>