<svg width="109" height="497" viewBox="0 0 109 497" version="1.1" xmlns="http://www.w3.org/2000/svg" xmlns:xlink="http://www.w3.org/1999/xlink"><title>uE024-e2-thin</title><desc>Created with Sketch.</desc><g id="Page-1" stroke="none" stroke-width="1" fill="none" fill-rule="evenodd"><path d="M0.138667534,0.788908766 L108.069496,0.788908766 L108.069496,52.667263 L67.8190492,52.667263 L67.8190492,198.761479 L108.069496,198.761479 L108.069496,251.236136 L67.8190492,251.236136 L67.8190492,444.140131 L108.069496,444.140131 L108.069496,496.614788 L0.138667534,496.614788 L0.138667534,0.788908766 Z M56.951784,164.769823 L56.951784,164.769823 C58.3891685,164.051131 59.1078608,161.895054 59.8265531,160.45767 L58.3891685,159.020285 C56.951784,159.751586 54.8083159,160.45767 54.0896236,161.895054 C53.4213659,163.218961 53.4213659,164.189826 53.8500595,164.769823 L44.0405405,164.769823 L41.8970724,166.9259 C41.1783801,167.644592 40.4596879,168.350676 41.1783801,169.081977 C41.8970724,169.788061 42.6157647,171.225445 43.3344569,171.225445 C50.4205105,173.356305 52.5891959,171.956746 54.0265804,164.98417 C54.593969,165.438081 55.6026599,165.45069 56.951784,164.769823 Z M14.6372009,460.568429 L14.6372009,460.568429 L14.6498096,460.568429 C16.0745855,461.299729 17.51197,460.568429 18.9367459,458.42496 C18.9367459,458.42496 17.51197,456.987576 16.7806691,456.281492 C15.3558932,455.550191 13.9185087,456.281492 12.4937328,458.42496 L14.6372009,460.568429 Z M11.7750405,62.8289997 L11.7750405,62.8289997 L11.7624319,62.8289997 L11.7624319,59.2355384 C11.7624319,57.7981538 11.0563483,56.3607693 9.61896373,56.3607693 C8.1815792,55.642077 6.03811105,56.3607693 5.31941878,59.2355384 C4.60072652,59.9542306 5.31941878,61.3916151 5.31941878,62.8289997 C4.60072652,65.6911601 5.31941878,67.1285446 7.46288694,68.5659291 C9.61896373,70.0159223 11.7750405,67.1285446 11.7750405,62.8289997 Z" id="uE024-e2-thin" fill="#000"/></g></svg>