<svg width="163" height="497" viewBox="0 0 163 497" version="1.1" xmlns="http://www.w3.org/2000/svg" xmlns:xlink="http://www.w3.org/1999/xlink"><title>uE020-n1-thin</title><desc>Created with Sketch.</desc><g id="Page-1" stroke="none" stroke-width="1" fill="none" fill-rule="evenodd"><path d="M0.872282756,282.553777 L0.872282756,0.192605844 L57.5210603,0.192605844 L101.051174,242.589744 L105.821597,242.589744 L103.436385,0.192605844 L162.470375,0.192605844 L162.470375,496.614788 L105.821597,496.614788 L72.6774028,301.064043 L73.2739702,300.463966 C73.8907904,299.847146 73.4488343,298.171549 71.9560728,296.808195 L61.0988779,232.750745 L56.3284545,232.750745 L59.906272,496.614788 L0.872282756,496.614788 L0.872282756,288.955021 C1.58586094,288.243821 2.99343201,287.532622 2.99343201,286.821422 L2.99343201,286.821422 L2.96821474,286.821422 C4.40746294,285.394689 2.98954543,283.980378 0.872283043,282.553829 Z M149.304046,121.686113 L149.304046,121.686113 L149.316655,121.686113 C152.897508,120.98003 150.741431,116.655268 151.460123,113.793107 C145.004502,108.762261 145.004502,108.762261 137.842796,113.074415 L139.986264,115.230492 L142.129732,117.37396 C144.285809,118.811344 145.723194,123.123498 149.304046,121.686113 Z M112.007701,191.33622 L112.007701,191.33622 C113.445085,192.054912 114.88247,191.33622 116.319854,189.167534 L114.151169,187.024066 C112.726393,186.305374 111.289008,187.024066 109.864232,189.180143 L112.007701,191.33622 Z M81.1669764,327.030363 C86.1852137,332.061208 90.4973672,332.061208 95.5156044,327.030363 C90.4973672,322.730818 86.1852137,322.730818 81.1669764,327.030363 Z M79.0235083,267.441948 L79.0235083,267.429339 C79.0235083,267.429339 81.1669764,266.004563 81.1669764,265.285871 C79.7295919,264.567179 79.0235083,262.411102 77.5861238,261.69241 C74.7113547,260.255025 73.2865788,261.69241 74.7113547,264.567179 C75.430047,266.004563 77.5861238,266.723256 79.0235083,267.441948 Z M71.130502,262.411102 L71.130502,262.411102 C71.8491943,262.411102 73.9926624,263.129794 73.9926624,262.411102 C74.7113547,260.255025 73.9926624,258.817641 72.5678866,257.392865 C71.130502,255.236788 69.6931175,255.236788 68.255733,258.111557 C68.255733,258.817641 68.9870339,259.536333 68.9870339,260.267634 L71.130502,262.411102 Z M64.6748803,81.4771726 C68.255733,79.3337045 68.255733,71.4280896 64.6748803,70.0033137 L62.5314121,70.0033137 C58.9379508,72.1467818 58.9379508,80.0397881 62.5314121,81.4771726 L64.6748803,81.4771726 Z" id="uE020-n1-thin" fill="#000"/></g></svg>