<svg width="548" height="500" viewBox="0 0 548 500" version="1.1" xmlns="http://www.w3.org/2000/svg" xmlns:xlink="http://www.w3.org/1999/xlink"><title>uE027-plane2</title><desc>Created with Sketch.</desc><g id="Page-1" stroke="none" stroke-width="1" fill="none" fill-rule="evenodd"><path d="M102.669674,208.822071 L80.7892519,223.128501 L82.4723613,204.614298 C82.4723613,201.248079 85.8385802,198.723415 89.204799,198.723415 L95.9372366,198.723415 C99.3034555,198.723415 101.82812,201.248079 102.669674,204.614298 L102.669674,208.822071 Z M239.001537,229.019384 L238.159982,128.874374 L5.89088295,279.512667 C2.52466412,282.037331 0,286.245104 0,290.452878 L0,311.491746 L157.37073,244.167369 L239.001537,229.019384 Z M185.142036,148.230132 C185.142036,144.863913 181.775817,142.339249 178.409598,142.339249 L171.67716,142.339249 C168.310941,142.339249 165.786277,144.863913 164.944723,148.230132 L162.420059,169.269 L185.142036,154.121015 L185.142036,148.230132 Z M250.783303,409.112092 L169.152496,477.278023 C165.786277,479.802687 164.103168,483.168906 164.103168,487.376679 L164.103168,500 L262.565069,482.327351 L250.783303,409.112092 Z M372.808735,139.814585 L366.076298,139.814585 C362.710079,139.814585 360.185415,142.339249 359.34386,145.705468 L358.502305,152.437906 L381.224282,166.744336 L378.699618,145.705468 C379.541173,142.339249 376.174954,139.814585 372.808735,139.814585 Z M456.964206,195.357196 L450.231768,195.357196 C446.86555,195.357196 444.340886,197.88186 443.499331,201.248079 L442.657776,205.455852 L465.379753,219.762282 L462.855089,201.248079 C463.696644,197.88186 460.330425,195.357196 456.964206,195.357196 Z M306.325914,128.032819 L307.167468,228.17783 L388.798275,242.48426 L547.01056,305.600863 L547.01056,284.561995 C547.01056,280.354221 544.485896,276.146448 541.119677,273.621784 L306.325914,128.032819 Z M288.653265,482.327351 L387.115165,497.475336 L387.115165,484.852015 C387.115165,480.644242 385.432056,477.278023 382.065837,474.753359 L298.751921,408.270537 L288.653265,482.327351 Z M275.188389,1.79961321 L275.188389,1.79961321 C290.336374,16.9475979 298.751921,36.3033562 298.751921,57.3422239 L301.276585,334.213723 C301.276585,338.421496 301.276585,341.787715 300.435031,345.995489 L279.396163,493.267562 L275.188389,498.316891 L270.139061,494.109117 L246.575529,346.837043 C245.733975,342.62927 245.733975,339.263051 245.733975,335.055277 L243.20931,58.1837786 C243.20931,37.1449109 250.783303,16.9475979 265.931288,2.64116792 L265.931288,2.64116792 C268.455952,-0.725050914 272.663725,-0.725050914 275.188389,1.79961321 Z M275.188389,12.7398244 C272.663725,11.056715 269.297506,11.056715 266.772842,12.7398244 C258.357295,18.6307074 254.149522,28.7293638 254.149522,39.669575 C254.149522,39.669575 256.674186,22.8384809 269.297506,18.6307074 L272.663725,18.6307074 C285.287046,21.9969262 288.653265,39.669575 288.653265,39.669575 C288.653265,28.7293638 283.603936,18.6307074 275.188389,12.7398244 Z" id="uE027-plane2" fill="#000" fill-rule="nonzero"/></g></svg>