<svg width="504" height="500" viewBox="0 0 504 500" version="1.1" xmlns="http://www.w3.org/2000/svg" xmlns:xlink="http://www.w3.org/1999/xlink"><title>uE038-world-text</title><desc>Created with Sketch.</desc><g id="Page-1" stroke="none" stroke-width="1" fill="none" fill-rule="evenodd"><path d="M250.7,61.5 L237.7,61.1 L239.8,0.1 L283,1.5 L282.6,12.9 L252.4,11.9 L252,24.7 L281.5,25.7 L281.1,37.1 L251.6,36.1 L250.7,61.5 Z M340.9,83 L304.8,68.5 L327.6,11.9 L339.7,16.8 L321.1,62.8 L345,72.4 L340.9,83 Z M376.3,108.9 L366.3,100.6 L382.2,81.3 L387,38.6 L398.4,48 L394.5,76.5 L421.7,67.2 L433.1,76.6 L392.2,89.6 L376.3,108.9 Z M440.8,235.4 L437.9,221.9 L476.7,202.8 L433.5,201.1 L430.6,187.6 L486.7,157.9 L489.7,172.1 L448.7,191.7 L494.3,194 L496.4,203.9 L455.6,224.3 L501,225.7 L504,239.9 L440.8,235.4 Z M436.3,287.5 L438.4,274.7 L498.6,284.7 L496.5,297.5 L436.3,287.5 Z M417.3,339.9 L423.1,328.2 L467.5,350.2 L475.4,334.2 L485.7,339.3 L464.1,382.9 L453.8,377.8 L461.7,361.9 L417.3,339.9 Z M353.7,411.1 L363.6,402.5 L380.4,422 L402.2,403.1 L385.4,383.6 L395.2,375.1 L435.1,421.3 L425.3,429.8 L409.6,411.7 L387.8,430.6 L403.5,448.7 L393.6,457.3 L353.7,411.1 Z M256.8,439.1 L289.8,436.5 L294.5,497.4 L262.5,499.9 C257,500.3 252.5,499.2 249.2,496.4 C245.9,493.6 244.1,490.1 243.7,485.8 C243.4,482.2 244.2,479 246,476.3 C247.8,473.6 250.2,471.9 253.1,471 C249.8,470.8 246.9,469.3 244.4,466.7 C241.9,464.1 240.5,460.8 240.2,457.1 C239.8,452.3 241.1,448.2 243.9,444.9 C246.9,441.5 251.1,439.6 256.8,439.1 Z M261,450.3 C258.6,450.5 256.7,451.2 255.4,452.6 C254.1,453.9 253.6,455.7 253.8,457.9 C254,459.9 254.8,461.5 256.2,462.7 C257.7,463.9 259.6,464.4 262.1,464.2 L278.9,462.9 L277.8,449 L261,450.3 Z M263.5,475.5 C261.3,475.7 259.6,476.4 258.4,477.6 C257.2,478.9 256.7,480.4 256.8,482.4 C256.9,484.3 257.7,485.8 259.1,486.9 C260.5,488 262.2,488.4 264.4,488.3 L280.6,487 L279.6,474.2 L263.5,475.5 Z M160.1,418.6 L174,423.4 L174.3,434.4 L199.1,442.9 L206.1,434.4 L220,439.2 L178,489.2 L162.6,483.9 L160.1,418.6 Z M174,446.3 L174.5,474.2 L192,452.4 L174,446.3 Z M105.7,373.3 L116.9,383.3 L111.4,407.5 L118.5,413.9 L133,397.7 L142.7,406.4 L102,451.9 L80.7,432.9 C76,428.7 73.5,424 73.2,418.8 C72.9,413.6 74.6,408.8 78.5,404.5 C81.8,400.8 85.5,398.6 89.6,398.1 C93.7,397.6 97.3,398.2 100.6,400 L105.7,373.3 Z M100.6,413.2 C98.6,411.5 96.5,410.6 94.3,410.5 C92,410.5 90,411.4 88.3,413.3 C86.7,415.1 86,417.1 86.3,419.4 C86.6,421.7 87.7,423.7 89.6,425.4 L99.8,434.6 L110.8,422.3 L100.6,413.2 Z M69.7,308.3 L76.2,321.8 L61.8,342 L65.9,350.6 L85.5,341.2 L91.1,352.9 L36,379.4 L23.7,353.6 C21,347.9 20.5,342.6 22.2,337.7 C23.9,332.8 27.4,329 32.6,326.5 C37.1,324.3 41.3,323.8 45.3,324.8 C49.3,325.9 52.4,327.8 54.8,330.8 L69.7,308.3 Z M49.7,343.2 C48.6,340.8 47,339.2 44.9,338.3 C42.8,337.4 40.6,337.5 38.3,338.6 C36.1,339.7 34.7,341.3 34.1,343.5 C33.5,345.7 33.7,348 34.9,350.3 L40.8,362.7 L55.7,355.6 L49.7,343.2 Z M62.4,255.6 L63.2,268.6 L38.3,270.2 L3.8,295.8 L2.9,281 L26.3,264.4 L0.9,250.9 L0,236.2 L37.5,257.2 L62.4,255.6 Z" id="uE038-world-text" fill="#000" fill-rule="nonzero"/></g></svg>