<svg width="1225" height="500" viewBox="0 0 1225 500" version="1.1" xmlns="http://www.w3.org/2000/svg" xmlns:xlink="http://www.w3.org/1999/xlink"><title>uE035-rating</title><desc>Created with Sketch.</desc><g id="Page-1" stroke="none" stroke-width="1" fill="none" fill-rule="evenodd"><g id="uE035-rating" fill="#1A1918"><path d="M1193.97433,468.132383 L1197.33218,468.132383 C1201.15856,468.132383 1204.39573,466.74097 1204.39573,463.155952 C1204.39573,460.607394 1202.54288,458.065936 1197.33218,458.065936 C1195.83428,458.065936 1194.79072,458.179521 1193.97433,458.300204 L1193.97433,468.132383 Z M1193.97433,484.211722 L1189.35285,484.211722 L1189.35285,455.183723 C1191.78072,454.828771 1194.10211,454.473819 1197.56645,454.473819 C1201.96076,454.473819 1204.85717,455.403794 1206.58933,456.681622 C1208.3215,457.945252 1209.25148,459.918787 1209.25148,462.694514 C1209.25148,466.506701 1206.70292,468.82099 1203.57934,469.750965 L1203.57934,469.992333 C1206.135,470.439573 1207.86716,472.753862 1208.44219,477.041686 C1209.13789,481.54958 1209.8265,483.288846 1210.29504,484.211722 L1205.43929,484.211722 C1204.73648,483.288846 1204.04078,480.626704 1203.46575,476.807417 C1202.77715,473.108814 1200.9172,471.7245 1197.21859,471.7245 L1193.97433,471.7245 L1193.97433,484.211722 Z M1198.84428,447.069514 C1187.38642,447.069514 1178.01567,456.915891 1178.01567,469.062358 C1178.01567,481.435995 1187.38642,491.154589 1198.95076,491.154589 C1210.5293,491.275273 1219.77936,481.435995 1219.77936,469.168844 C1219.77936,456.915891 1210.5293,447.069514 1198.95076,447.069514 L1198.84428,447.069514 Z M1198.95076,443.023058 C1213.18435,443.023058 1224.52152,454.601602 1224.52152,469.062358 C1224.52152,483.750284 1213.18435,495.201045 1198.84428,495.201045 C1184.61779,495.201045 1173.04634,483.750284 1173.04634,469.062358 C1173.04634,454.601602 1184.61779,443.023058 1198.84428,443.023058 L1198.95076,443.023058 L1198.95076,443.023058 Z" id="Fill-1"/><path d="M0,500 L0,0.369150386 L1162.89471,0.369150386 L1162.89471,500 L0,500 Z M329.054975,20.2819741 L329.054975,60.5974557 L341.542197,60.5974557 C345.191106,60.5974557 350.323716,60.5974557 354.533451,57.8217288 C359.680259,54.4993753 362.321104,47.7268855 362.321104,40.1735007 C362.321104,20.3458655 347.540891,20.2819741 340.264368,20.2819741 L329.054975,20.2819741 Z M339.476374,53.6545888 L339.476374,27.2390391 L341.258235,27.2390391 C345.475068,27.2390391 351.253692,27.6578828 351.253692,40.0528169 C351.253692,53.2286461 345.396979,53.6545888 341.258235,53.6545888 L339.476374,53.6545888 Z M323.631304,20.2819741 L294.723989,20.2819741 L294.723989,60.5974557 L323.631304,60.5974557 L323.631304,53.4061222 L305.145388,53.4061222 L305.145388,43.4958542 L319.49256,43.4958542 L319.49256,36.5458882 L305.145388,36.5458882 L305.145388,27.2390391 L323.631304,27.2390391 L323.631304,20.2819741 Z M290.727226,20.2819741 L261.102908,20.2819741 L261.102908,27.842458 L270.601431,27.842458 L270.601431,60.5974557 L281.022831,60.5974557 L281.022831,27.842458 L290.727226,27.842458 L290.727226,20.2819741 Z M260.109041,46.4561563 L250.468537,45.9166288 C250.113585,48.0889368 249.33269,54.0095411 243.688948,54.0095411 C237.477283,54.0095411 236.554407,47.9043617 236.554407,41.1389709 C236.554407,32.9750682 237.768344,26.8769877 243.688948,26.8769877 C249.687642,26.8769877 250.113585,32.6769082 250.397547,35.8785779 L259.89607,35.275159 C259.683099,32.8543844 259.321047,28.6304521 256.538221,25.1164244 C254.394309,22.4613812 250.830588,19.6785552 243.617958,19.6785552 C227.701897,19.6785552 225.557985,33.1596433 225.557985,40.4716606 C225.557985,49.657826 228.986824,61.2008746 243.475977,61.2008746 C253.897376,61.2008746 259.321047,54.6200591 260.109041,46.4561563 Z M207.569003,60.5974557 L217.990402,60.5974557 L217.990402,20.2819741 L207.569003,20.2819741 L207.569003,60.5974557 Z M183.304464,20.2819741 L168.382269,20.2819741 L168.382269,60.5974557 L178.803669,60.5974557 L178.803669,44.702692 L184.092458,44.702692 L190.446104,60.5974557 L201.868469,60.5974557 L193.086949,43.013119 C195.436733,41.8062812 199.795547,39.6268741 199.795547,32.4994321 C199.795547,29.2906633 198.865572,26.0889936 196.366708,23.7321104 C192.731997,20.2819741 188.089221,20.2819741 183.304464,20.2819741 Z M178.803669,26.8130963 L183.020502,26.8130963 C184.802363,26.8130963 189.587119,26.8130963 189.587119,32.3716493 C189.587119,35.7011018 187.94724,38.1786688 183.446445,38.1786688 L178.803669,38.1786688 L178.803669,26.8130963 Z M164.392606,20.2819741 L134.768287,20.2819741 L134.768287,27.842458 L144.259711,27.842458 L144.259711,60.5974557 L154.68821,60.5974557 L154.68821,27.842458 L164.392606,27.842458 L164.392606,20.2819741 Z M123.778964,31.8889141 L132.489493,29.0492958 C131.488528,26.3871536 128.989664,19.6785552 117.141356,19.6785552 C106.719957,19.6785552 101.9352,25.7269423 101.9352,32.0095979 C101.9352,40.230293 109.786745,42.5871763 116.282372,44.5820082 C119.853192,45.6752612 122.856088,46.8182076 122.856088,49.657826 C122.856088,52.3199682 120.357224,54.0095411 116.786404,54.0095411 C111.071672,54.0095411 109.715754,49.7856088 109.147831,47.9682531 L100.011358,50.1405611 C100.579282,51.8940254 101.438267,54.3786915 104.079112,56.9769423 C107.933894,60.6613471 113.073603,61.2008746 116.502442,61.2008746 C127.704736,61.2008746 133.419468,55.223478 133.419468,48.3303044 C133.419468,40.1735007 125.638914,37.6888346 120.279134,35.9353703 C115.210416,34.3096888 112.072637,33.3442185 112.072637,30.5613925 C112.072637,28.928612 113.570536,26.8769877 117.070366,26.8769877 C121.855123,26.8769877 123.203941,30.4407088 123.778964,31.8889141 Z M97.9384371,20.2819741 L69.0311222,20.2819741 L69.0311222,60.5974557 L97.9384371,60.5974557 L97.9384371,53.4061222 L79.4525216,53.4061222 L79.4525216,43.4958542 L93.7996933,43.4958542 L93.7996933,36.5458882 L79.4525216,36.5458882 L79.4525216,27.2390391 L97.9384371,27.2390391 L97.9384371,20.2819741 Z M44.7665834,20.2819741 L29.8443889,20.2819741 L29.8443889,60.5974557 L40.2657883,60.5974557 L40.2657883,44.702692 L45.5545775,44.702692 L51.9082235,60.5974557 L63.3234893,60.5974557 L54.5490686,43.013119 C56.8988528,41.8062812 61.257667,39.6268741 61.257667,32.4994321 C61.257667,29.2906633 60.327692,26.0889936 57.8288278,23.7321104 C54.1870173,20.2819741 49.5442413,20.2819741 44.7665834,20.2819741 Z M40.2657883,26.8130963 L44.4826215,26.8130963 C46.2644821,26.8130963 51.049239,26.8130963 51.049239,32.3716493 C51.049239,35.7011018 49.4093594,38.1786688 44.9085643,38.1786688 L40.2657883,38.1786688 L40.2657883,26.8130963 Z M9.4062358,489.969048 L1022.07093,489.969048 L1022.07093,416.621706 L9.4062358,416.621706 L9.4062358,489.969048 Z M30.9518401,432.793333 L30.9518401,454.700988 C30.9518401,460.287937 30.9518401,464.888119 35.0479896,464.888119 C36.9931281,464.888119 37.894707,463.681281 38.370343,462.35376 C38.8885734,460.855861 38.8885734,458.903623 38.8885734,454.700988 L38.8885734,432.793333 L44.1915607,432.793333 L44.1915607,454.360234 C44.1915607,461.146922 44.1915607,466.44281 40.691731,469.545093 C39.3642095,470.695139 37.4616652,471.731599 34.4871649,471.731599 C24.6975806,471.731599 24.6620854,462.87199 24.6620854,454.700988 L24.6620854,432.793333 L30.9518401,432.793333 Z M54.8898228,442.795888 L54.8898228,446.65067 C55.7559064,444.293787 56.8704566,442.164073 60.1928101,442.164073 C61.0092004,442.164073 63.429975,442.164073 64.8923785,445.159871 C65.751363,446.934632 65.751363,449.70326 65.751363,452.52868 L65.751363,471.163676 L59.8449568,471.163676 L59.8449568,452.52868 C59.8449568,449.987222 59.6745797,448.326045 57.8217288,448.326045 C55.1879827,448.326045 55.1879827,451.080475 55.1879827,454.53771 L55.1879827,471.163676 L49.2815766,471.163676 L49.2815766,442.795888 L54.8898228,442.795888 Z M86.1966152,432.793333 L86.1966152,471.163676 L80.7232508,471.163676 L80.7232508,466.499602 C80.1198319,468.565425 79.2182531,471.561222 75.8533053,471.561222 C70.1598705,471.561222 69.0808155,462.758405 69.0808155,457.121763 C69.0808155,454.885563 69.0808155,442.398342 76.108871,442.398342 C78.9555884,442.398342 79.821672,444.229896 80.3753975,445.38704 L80.3753975,432.793333 L86.1966152,432.793333 Z M80.3753975,454.700988 C80.3753975,452.180827 80.3753975,447.630338 77.7913448,447.630338 C75.5054521,447.630338 75.2072921,451.314743 75.2072921,455.851034 C75.2072921,461.38119 75.2072921,466.102056 77.7487506,466.102056 C80.3753975,466.102056 80.3753975,461.778737 80.3753975,459.705816 L80.3753975,454.700988 Z M95.9861995,458.271808 C95.9436052,462.12659 95.9010109,466.265334 98.8329169,466.265334 C101.374375,466.265334 101.679634,463.212744 101.850011,461.38119 L107.152999,461.842628 C106.719957,464.483473 105.555713,471.731599 98.705134,471.731599 C92.195309,471.731599 89.8668219,464.888119 89.8668219,457.348932 C89.8668219,455.50318 90.037199,451.030781 91.4570082,447.573546 C92.969105,443.953033 95.7732281,442.164073 98.6554407,442.164073 C102.368242,442.164073 104.654134,444.925602 105.605407,447.339278 C107.110404,451.19406 107.152999,454.821672 107.152999,458.271808 L95.9861995,458.271808 Z M101.551851,453.728419 C101.594446,452.180827 101.679634,447.403169 98.7903226,447.403169 C96.1210813,447.403169 96.071388,451.71229 96.0287937,453.728419 L101.551851,453.728419 Z M115.99841,442.795888 L115.99841,449.639368 C116.51664,447.225693 117.553101,442.398342 121.003237,442.398342 C121.42918,442.398342 121.72734,442.455134 122.032599,442.568719 L122.032599,450.278283 C121.514368,450.164698 121.258803,450.164698 121.038732,450.164698 C116.687017,450.164698 116.687017,456.717117 116.687017,458.903623 L116.687017,471.163676 L110.780611,471.163676 L110.780611,442.795888 L115.99841,442.795888 Z M148.164187,464.888119 L152.906349,464.888119 L152.906349,471.163676 L137.039982,471.163676 L137.039982,464.888119 L141.867333,464.888119 L141.867333,442.220866 C140.532712,444.009825 139.368469,445.38704 137.039982,447.055316 L137.039982,439.523228 C140.447524,437.109552 142.129998,434.631985 143.336836,432.445479 L148.164187,432.445479 L148.164187,464.888119 Z M158.124148,432.793333 L175.197353,432.793333 L175.197353,439.225068 C172.265448,444.634541 168.431963,452.635166 168.211892,471.163676 L161.361313,471.163676 C161.403907,468.274364 161.489096,462.12659 163.604612,454.53771 C165.670434,447.055316 168.30418,442.795888 169.766583,440.32542 L157.655611,440.32542 L158.124148,432.793333 Z M200.469957,432.793333 C203.359269,432.793333 206.163392,432.793333 208.364096,436.065993 C209.869094,438.31639 210.429918,441.361881 210.429918,444.414471 C210.429918,451.19406 207.796172,453.266981 206.376363,454.417026 L211.67935,471.163676 L204.786177,471.163676 L200.945593,456.035609 L197.758121,456.035609 L197.758121,471.163676 L191.461268,471.163676 L191.461268,432.793333 L200.469957,432.793333 Z M197.758121,439.004998 L197.758121,449.823944 L200.555145,449.823944 C203.27408,449.823944 204.267946,447.459961 204.267946,444.293787 C204.267946,439.004998 201.378635,439.004998 200.29958,439.004998 L197.758121,439.004998 Z M219.452806,458.271808 C219.410211,462.12659 219.360518,466.265334 222.299523,466.265334 C224.833882,466.265334 225.139141,463.212744 225.316617,461.38119 L230.619605,461.842628 C230.186563,464.483473 229.022319,471.731599 222.164641,471.731599 C215.654816,471.731599 213.326329,464.888119 213.326329,457.348932 C213.326329,455.50318 213.503805,451.030781 214.923614,447.573546 C216.435711,443.953033 219.232735,442.164073 222.122047,442.164073 C225.834848,442.164073 228.113642,444.925602 229.064914,447.339278 C230.57701,451.19406 230.619605,454.821672 230.619605,458.271808 L219.452806,458.271808 Z M225.011358,453.728419 C225.061052,452.180827 225.139141,447.403169 222.256929,447.403169 C219.580588,447.403169 219.537994,451.71229 219.4954,453.728419 L225.011358,453.728419 Z M250.411745,442.795888 C250.241368,445.216663 250.241368,446.828146 250.241368,450.044014 L250.241368,480.761586 L244.42015,480.761586 L244.42015,468.217572 C243.816731,469.374716 242.609893,471.561222 240.018741,471.561222 C236.057474,471.561222 233.295945,466.44281 233.295945,457.469616 C233.295945,453.550943 233.508916,442.398342 240.494378,442.398342 C243.511472,442.398342 244.810597,444.982394 245.5347,446.480293 C246.315595,445.273455 246.620854,444.634541 247.181679,442.795888 L250.411745,442.795888 Z M244.42015,454.076272 C244.42015,449.582576 243.859325,447.630338 241.921286,447.630338 C239.80577,447.630338 239.415323,449.639368 239.415323,456.255679 C239.415323,462.410552 239.50761,466.102056 241.921286,466.102056 C244.207179,466.102056 244.42015,462.410552 244.42015,458.271808 L244.42015,454.076272 Z M260.591776,442.795888 L260.591776,461.040436 C260.591776,463.851658 260.591776,465.633519 262.622104,465.633519 C265.248751,465.633519 265.248751,463.397319 265.248751,457.29214 L265.248751,442.795888 L271.155157,442.795888 L271.155157,471.163676 L265.596604,471.163676 L265.596604,467.252101 C264.517549,469.665777 263.566277,471.731599 260.11614,471.731599 C254.692469,471.731599 254.692469,466.44281 254.692469,461.260507 L254.692469,442.795888 L260.591776,442.795888 Z M275.719843,471.156577 L275.719843,442.795888 L281.626249,442.795888 L281.626249,471.156577 L275.719843,471.156577 Z M275.677249,440.382213 L275.677249,432.559064 L281.668844,432.559064 L281.668844,440.382213 L275.677249,440.382213 Z M291.373239,442.795888 L291.373239,449.639368 C291.89147,447.225693 292.92793,442.398342 296.378067,442.398342 C296.80401,442.398342 297.109269,442.455134 297.407428,442.568719 L297.407428,450.278283 C296.896297,450.164698 296.633632,450.164698 296.413562,450.164698 C292.061847,450.164698 292.061847,456.717117 292.061847,458.903623 L292.061847,471.163676 L286.155441,471.163676 L286.155441,442.795888 L291.373239,442.795888 Z M304.790436,458.271808 C304.740743,462.12659 304.698149,466.265334 307.630055,466.265334 C310.178612,466.265334 310.483871,463.212744 310.647149,461.38119 L315.950136,461.842628 C315.524194,464.483473 314.35995,471.731599 307.502272,471.731599 C300.992447,471.731599 298.671059,464.888119 298.671059,457.348932 C298.671059,455.50318 298.834337,451.030781 300.261245,447.573546 C301.766243,443.953033 304.577465,442.164073 307.459677,442.164073 C311.172478,442.164073 313.458371,444.925602 314.402544,447.339278 C315.914641,451.19406 315.950136,454.821672 315.950136,458.271808 L304.790436,458.271808 Z M310.348989,453.728419 C310.391583,452.180827 310.483871,447.403169 307.594559,447.403169 C304.918219,447.403169 304.875625,451.71229 304.83303,453.728419 L310.348989,453.728419 Z M329.374432,451.257951 C329.026579,449.823944 328.42316,447.403169 326.26505,447.403169 C324.887835,447.403169 324.419298,448.723592 324.419298,449.873637 C324.419298,452.116935 325.583542,452.635166 327.954623,453.785211 C330.929123,455.169525 334.244378,456.717117 334.244378,462.467344 C334.244378,466.66998 332.043673,471.731599 326.18696,471.731599 C319.1944,471.731599 318.463199,465.406349 318.207633,463.276636 L322.907201,462.247274 C323.077578,463.333428 323.595809,466.499602 326.26505,466.499602 C326.868469,466.499602 328.636131,466.322126 328.636131,463.851658 C328.636131,461.60836 327.351204,461.040436 325.235688,460.110461 C322.99239,459.194684 318.853646,457.29214 318.853646,451.19406 C318.853646,445.103078 322.601942,442.164073 326.399932,442.164073 C329.977851,442.164073 332.817469,444.925602 333.598364,449.582576 L329.374432,451.257951 Z M358.352737,432.793333 L366.537937,471.163676 L360.1204,471.163676 L358.650897,463.276636 L350.586381,463.276636 L349.166572,471.163676 L343.352453,471.163676 L351.970695,432.793333 L358.352737,432.793333 Z M357.486654,456.660325 L354.604441,441.014028 L351.800318,456.660325 L357.486654,456.660325 Z M378.968367,453.49415 C378.755395,449.419298 378.024194,448.205361 376.63988,448.205361 C374.872217,448.205361 373.665379,450.107905 373.665379,456.603532 C373.665379,460.855861 374.013233,465.349557 376.512097,465.349557 C378.407542,465.349557 378.840584,463.049466 378.968367,460.110461 L384.491424,460.571899 C384.22876,463.503805 383.582746,471.731599 376.164244,471.731599 C368.923217,471.731599 367.716379,463.049466 367.716379,457.001079 C367.716379,449.355407 369.782201,442.164073 376.469502,442.164073 C378.407542,442.164073 380.523058,442.682303 382.198433,445.103078 C384.186165,447.978192 384.356542,450.789414 384.491424,453.210189 L378.968367,453.49415 Z M398.249375,453.49415 C398.036404,449.419298 397.298103,448.205361 395.920888,448.205361 C394.153226,448.205361 392.946388,450.107905 392.946388,456.603532 C392.946388,460.855861 393.287142,465.349557 395.786006,465.349557 C397.688551,465.349557 398.121592,463.049466 398.249375,460.110461 L403.765334,460.571899 C403.502669,463.503805 402.863755,471.731599 395.445252,471.731599 C388.204225,471.731599 386.997388,463.049466 386.997388,457.001079 C386.997388,449.355407 389.06321,442.164073 395.750511,442.164073 C397.688551,442.164073 399.804066,442.682303 401.479441,445.103078 C403.467174,447.978192 403.637551,450.789414 403.765334,453.210189 L398.249375,453.49415 Z M423.521979,456.951386 C423.521979,466.038164 421.065709,471.731599 414.854044,471.731599 C408.734666,471.731599 406.228703,466.102056 406.228703,456.951386 C406.228703,448.091776 408.55719,442.164073 414.896638,442.164073 C421.193492,442.164073 423.521979,448.091776 423.521979,456.951386 Z M414.854044,447.687131 C412.951499,447.687131 412.355179,449.987222 412.355179,456.951386 C412.355179,464.483473 413.128975,466.208542 414.896638,466.208542 C416.621706,466.208542 417.395502,464.547365 417.395502,456.951386 C417.395502,449.639368 416.706895,447.687131 414.896638,447.687131 L414.854044,447.687131 Z M427.177987,442.795888 L432.786234,442.795888 L432.786234,446.65067 C433.389652,445.039187 434.468707,442.164073 437.961438,442.164073 C441.581951,442.164073 442.18537,444.982394 442.533224,446.65067 C443.172138,444.755225 444.293787,442.164073 447.751022,442.164073 C453.181792,442.164073 453.181792,447.459961 453.181792,452.578373 L453.181792,471.163676 L447.268287,471.163676 L447.268287,453.387665 C447.268287,450.164698 447.268287,448.326045 445.372842,448.326045 C443.221831,448.326045 443.129543,450.562244 443.129543,454.644196 L443.129543,471.163676 L437.223137,471.163676 L437.223137,453.210189 C437.223137,449.760052 437.145048,448.382837 435.377385,448.382837 C433.26187,448.382837 433.084393,450.682928 433.084393,454.644196 L433.084393,471.163676 L427.177987,471.163676 L427.177987,442.795888 Z M462.935881,442.795888 L462.935881,447.055316 C463.667083,445.216663 464.831327,442.398342 467.713539,442.398342 C469.140448,442.398342 470.737733,443.200534 471.774194,444.577749 C473.840016,447.403169 474.528623,451.832974 474.528623,456.603532 C474.528623,460.628692 474.102681,471.561222 467.330191,471.561222 C465.001704,471.561222 463.922649,470.006531 463.276636,469.090754 L463.276636,480.761586 L457.455418,480.761586 L457.455418,442.795888 L462.935881,442.795888 Z M463.276636,459.59933 C463.276636,463.681281 463.276636,466.102056 465.7755,466.102056 C468.196274,466.102056 468.409246,462.595127 468.409246,456.603532 C468.409246,451.598705 468.238869,447.630338 465.945877,447.630338 C463.276636,447.630338 463.276636,451.655498 463.276636,454.189857 L463.276636,459.59933 Z M478.028453,451.030781 C478.19883,449.419298 478.546683,446.025954 481.563778,443.718764 C483.068776,442.568719 484.836438,442.164073 486.6041,442.164073 C488.847399,442.164073 491.175886,442.916572 492.773171,445.159871 C494.065198,446.884939 494.150386,450.107905 494.150386,453.550943 L494.150386,464.831327 C494.150386,469.665777 494.285268,470.176908 494.498239,471.163676 L489.017776,471.163676 C488.76221,470.006531 488.719616,469.374716 488.719616,466.783564 C487.94582,468.622217 486.568605,471.731599 482.855804,471.731599 C480.009087,471.731599 477.297251,469.545093 477.297251,463.965243 C477.297251,456.085302 481.904532,454.01948 488.24398,453.550943 L488.24398,452.464789 C488.24398,449.987222 488.24398,447.403169 486.128464,447.403169 C484.147831,447.403169 483.757383,449.532883 483.594105,451.776181 L478.028453,451.030781 Z M488.24398,457.583201 C484.836438,458.158224 483.416629,459.251477 483.416629,462.928782 C483.416629,464.95201 483.977453,466.499602 485.404362,466.499602 C486.128464,466.499602 486.781577,466.038164 487.342401,464.95201 C488.158791,463.333428 488.24398,461.551567 488.24398,458.960416 L488.24398,457.583201 Z M504.337517,442.795888 L504.337517,446.65067 C505.196502,444.293787 506.318151,442.164073 509.633405,442.164073 C510.456895,442.164073 512.87057,442.164073 514.332974,445.159871 C515.199057,446.934632 515.199057,449.70326 515.199057,452.52868 L515.199057,471.163676 L509.292651,471.163676 L509.292651,452.52868 C509.292651,449.987222 509.115175,448.326045 507.262324,448.326045 C504.635677,448.326045 504.635677,451.080475 504.635677,454.53771 L504.635677,471.163676 L498.729271,471.163676 L498.729271,442.795888 L504.337517,442.795888 Z M522.014141,442.795888 L524.903453,460.174353 L527.664982,442.795888 L532.747899,442.795888 L526.365856,471.674807 C525.159019,477.027488 524.207746,481.230123 519.508178,481.230123 C518.351034,481.230123 517.697921,480.988755 516.973819,480.761586 L516.973819,474.54992 C517.527544,474.670604 517.960586,474.720298 518.649194,474.720298 C520.977681,474.720298 521.453317,474.03169 522.184518,470.638346 L516.107735,442.795888 L522.014141,442.795888 Z M534.558155,471.156577 L534.558155,442.795888 L540.464562,442.795888 L540.464562,471.156577 L534.558155,471.156577 Z M534.52266,440.382213 L534.52266,432.559064 L540.514255,432.559064 L540.514255,440.382213 L534.52266,440.382213 Z M550.601999,442.795888 L550.601999,446.65067 C551.460984,444.293787 552.582633,442.164073 555.897887,442.164073 C556.721377,442.164073 559.135052,442.164073 560.597456,445.159871 C561.463539,446.934632 561.463539,449.70326 561.463539,452.52868 L561.463539,471.163676 L555.557133,471.163676 L555.557133,452.52868 C555.557133,449.987222 555.386756,448.326045 553.526806,448.326045 C550.900159,448.326045 550.900159,451.080475 550.900159,454.53771 L550.900159,471.163676 L544.993753,471.163676 L544.993753,442.795888 L550.601999,442.795888 Z M583.711949,443.264425 C583.364096,443.143741 582.980747,443.030157 582.419923,443.030157 C581.731315,443.030157 580.567072,443.143741 580.176624,445.621308 C581.77391,447.807815 581.77391,450.682928 581.77391,451.314743 C581.77391,457.001079 578.153396,459.826499 574.099841,459.826499 C572.800716,459.826499 572.034019,459.542537 571.295718,459.308269 C569.918503,460.34473 569.918503,461.437983 569.918503,461.665152 C569.918503,463.212744 571.167935,463.333428 573.453828,463.560597 C578.281179,463.908451 579.750682,464.022035 581.255679,465.463142 C582.895559,466.96104 583.449284,469.317924 583.449284,471.731599 C583.449284,480.534416 576.513517,481.166231 573.06338,481.166231 C571.253124,481.166231 564.35995,481.166231 564.35995,474.429237 C564.35995,470.922308 566.468367,469.772263 567.802987,469.140448 C567.11438,468.67901 565.041458,467.415379 565.041458,464.256304 C565.041458,460.806168 567.284757,459.074 568.711665,457.987846 C567.41254,457.06497 565.566788,455.687756 565.566788,450.910098 C565.566788,444.180202 569.826215,442.164073 573.496422,442.164073 C575.824909,442.164073 577.031747,442.85978 578.061109,443.484496 C578.366368,440.559689 578.842004,437.854952 582.079169,437.854952 C582.895559,437.854952 583.286006,438.025329 583.711949,438.138914 L583.711949,443.264425 Z M571.686165,451.19406 C571.686165,452.926227 571.806849,455.567072 573.709393,455.567072 C575.264085,455.567072 575.647433,454.01948 575.647433,451.030781 C575.647433,447.516754 575.008519,446.423501 573.801681,446.423501 C572.24699,446.423501 571.686165,447.921399 571.686165,451.19406 Z M569.27249,473.343083 C569.27249,475.352113 570.777488,476.218196 573.964959,476.218196 C577.031747,476.218196 578.316674,475.352113 578.316674,473.229498 C578.316674,471.042992 576.896865,470.524761 575.995286,470.467969 C575.306679,470.354384 571.899137,470.063323 571.125341,469.956838 C570.429634,470.411177 569.27249,471.213369 569.27249,473.343083 Z M605.619605,432.793333 C608.636699,432.793333 611.781577,432.793333 613.939687,435.718139 C615.92032,438.486767 616.353362,442.164073 616.353362,444.819116 C616.353362,448.610007 615.572467,452.464789 613.336268,454.76488 C611.178158,457.001079 607.642833,457.001079 605.87517,457.001079 L603.638971,457.001079 L603.638971,471.163676 L597.342117,471.163676 L597.342117,432.793333 L605.619605,432.793333 Z M603.638971,439.004998 L603.638971,450.391867 L605.619605,450.391867 C607.820309,450.391867 609.666061,449.760052 609.666061,444.634541 C609.666061,439.004998 606.99682,439.004998 605.619605,439.004998 L603.638971,439.004998 Z M617.78027,451.030781 C617.950647,449.419298 618.298501,446.025954 621.315595,443.718764 C622.827692,442.568719 624.595354,442.164073 626.363017,442.164073 C628.599216,442.164073 630.934802,442.916572 632.524989,445.159871 C633.824114,446.884939 633.909303,450.107905 633.909303,453.550943 L633.909303,464.831327 C633.909303,469.665777 634.037085,470.176908 634.250057,471.163676 L628.776692,471.163676 C628.521127,470.006531 628.478532,469.374716 628.478532,466.783564 C627.697637,468.622217 626.320423,471.731599 622.614721,471.731599 C619.760904,471.731599 617.049069,469.545093 617.049069,463.965243 C617.049069,456.085302 621.663448,454.01948 627.995797,453.550943 L627.995797,452.464789 C627.995797,449.987222 627.995797,447.403169 625.89448,447.403169 C623.899648,447.403169 623.516299,449.532883 623.345922,451.776181 L617.78027,451.030781 Z M627.995797,457.583201 C624.595354,458.158224 623.175545,459.251477 623.175545,462.928782 C623.175545,464.95201 623.73637,466.499602 625.156179,466.499602 C625.89448,466.499602 626.533394,466.038164 627.101318,464.95201 C627.917708,463.333428 627.995797,461.551567 627.995797,458.960416 L627.995797,457.583201 Z M643.698887,442.795888 L643.698887,449.639368 C644.217117,447.225693 645.246479,442.398342 648.696615,442.398342 C649.129657,442.398342 649.434916,442.455134 649.733076,442.568719 L649.733076,450.278283 C649.221945,450.164698 648.95928,450.164698 648.739209,450.164698 C644.387494,450.164698 644.387494,456.717117 644.387494,458.903623 L644.387494,471.163676 L638.481088,471.163676 L638.481088,442.795888 L643.698887,442.795888 Z M657.116084,458.271808 C657.06639,462.12659 657.023796,466.265334 659.955702,466.265334 C662.504259,466.265334 662.802419,463.212744 662.972796,461.38119 L668.275784,461.842628 C667.849841,464.483473 666.685597,471.731599 659.827919,471.731599 C653.318094,471.731599 650.996706,464.888119 650.996706,457.348932 C650.996706,455.50318 651.159984,451.030781 652.586892,447.573546 C654.09189,443.953033 656.903112,442.164073 659.785325,442.164073 C663.491027,442.164073 665.784019,444.925602 666.728192,447.339278 C668.233189,451.19406 668.275784,454.821672 668.275784,458.271808 L657.116084,458.271808 Z M662.674637,453.728419 C662.717231,452.180827 662.802419,447.403169 659.920207,447.403169 C657.243866,447.403169 657.201272,451.71229 657.158678,453.728419 L662.674637,453.728419 Z M677.518741,442.795888 L677.518741,446.65067 C678.377726,444.293787 679.499375,442.164073 682.821729,442.164073 C683.638119,442.164073 686.051795,442.164073 687.514198,445.159871 C688.380282,446.934632 688.380282,449.70326 688.380282,452.52868 L688.380282,471.163676 L682.473876,471.163676 L682.473876,452.52868 C682.473876,449.987222 682.303498,448.326045 680.443548,448.326045 C677.816901,448.326045 677.816901,451.080475 677.816901,454.53771 L677.816901,471.163676 L671.910495,471.163676 L671.910495,442.795888 L677.518741,442.795888 Z M699.291515,433.829793 L699.291515,442.795888 L703.217288,442.795888 L703.217288,449.007553 L699.291515,449.007553 L699.291515,459.421854 C699.291515,464.767435 699.291515,465.463142 703.515448,465.115289 L703.515448,471.163676 C702.656463,471.383746 701.449625,471.731599 699.859439,471.731599 C697.9143,471.731599 695.75619,471.099784 694.549353,468.806792 C693.519991,466.783564 693.519991,463.908451 693.519991,460.287937 L693.519991,449.007553 L691.191504,449.007553 L691.191504,442.795888 L693.818151,442.795888 L694.286688,434.461608 L699.291515,433.829793 Z M733.565709,456.951386 C733.565709,466.038164 731.116538,471.731599 724.904873,471.731599 C718.778396,471.731599 716.279532,466.102056 716.279532,456.951386 C716.279532,448.091776 718.608019,442.164073 724.947467,442.164073 C731.237222,442.164073 733.565709,448.091776 733.565709,456.951386 Z M724.904873,447.687131 C723.002328,447.687131 722.39891,449.987222 722.39891,456.951386 C722.39891,464.483473 723.179805,466.208542 724.947467,466.208542 C726.672535,466.208542 727.446331,464.547365 727.446331,456.951386 C727.446331,449.639368 726.757724,447.687131 724.947467,447.687131 L724.904873,447.687131 Z M742.453714,442.795888 L742.453714,449.639368 C742.971945,447.225693 744.008405,442.398342 747.458542,442.398342 C747.884484,442.398342 748.189743,442.455134 748.487903,442.568719 L748.487903,450.278283 C747.976772,450.164698 747.714107,450.164698 747.494037,450.164698 C743.142322,450.164698 743.142322,456.717117 743.142322,458.903623 L743.142322,471.163676 L737.235915,471.163676 L737.235915,442.795888 L742.453714,442.795888 Z M771.609496,432.793333 L779.794696,471.163676 L773.377158,471.163676 L771.907656,463.276636 L763.843139,463.276636 L762.42333,471.163676 L756.609212,471.163676 L765.220354,432.793333 L771.609496,432.793333 Z M770.743412,456.660325 L767.861199,441.014028 L765.057076,456.660325 L770.743412,456.660325 Z M798.046343,432.793333 L798.046343,471.163676 L792.565879,471.163676 L792.565879,466.499602 C791.96246,468.565425 791.060881,471.561222 787.695934,471.561222 C782.009598,471.561222 780.923444,462.758405 780.923444,457.121763 C780.923444,454.885563 780.923444,442.398342 787.958598,442.398342 C790.798217,442.398342 791.6643,444.229896 792.225125,445.38704 L792.225125,432.793333 L798.046343,432.793333 Z M792.225125,454.700988 C792.225125,452.180827 792.225125,447.630338 789.641072,447.630338 C787.355179,447.630338 787.04992,451.314743 787.04992,455.851034 C787.04992,461.38119 787.04992,466.102056 789.591379,466.102056 C792.225125,466.102056 792.225125,461.778737 792.225125,459.705816 L792.225125,454.700988 Z M808.226374,442.795888 L808.226374,461.040436 C808.226374,463.851658 808.226374,465.633519 810.249602,465.633519 C812.876249,465.633519 812.876249,463.397319 812.876249,457.29214 L812.876249,442.795888 L818.782656,442.795888 L818.782656,471.163676 L813.224103,471.163676 L813.224103,467.252101 C812.145048,469.665777 811.200875,471.731599 807.750738,471.731599 C802.319968,471.731599 802.319968,466.44281 802.319968,461.260507 L802.319968,442.795888 L808.226374,442.795888 Z M823.36154,471.156577 L823.36154,432.793333 L829.267946,432.793333 L829.267946,471.156577 L823.36154,471.156577 Z M840.484439,433.829793 L840.484439,442.795888 L844.410211,442.795888 L844.410211,449.007553 L840.484439,449.007553 L840.484439,459.421854 C840.484439,464.767435 840.484439,465.463142 844.708371,465.115289 L844.708371,471.163676 C843.849387,471.383746 842.642549,471.731599 841.045264,471.731599 C839.107224,471.731599 836.949114,471.099784 835.742276,468.806792 C834.712915,466.783564 834.712915,463.908451 834.712915,460.287937 L834.712915,449.007553 L832.377328,449.007553 L832.377328,442.795888 L835.011075,442.795888 L835.479612,434.461608 L840.484439,433.829793 Z M879.032258,450.682928 L879.032258,471.163676 L876.355918,471.163676 L875.539527,466.783564 C874.893514,468.111086 873.083258,471.731599 868.554066,471.731599 C861.391129,471.731599 857.905498,463.212744 857.905498,452.635166 C857.905498,446.934632 858.849671,432.211211 869.107792,432.211211 C877.087119,432.211211 878.471433,439.814289 879.032258,445.330248 L873.338823,446.593878 C873.033564,443.718764 872.600522,439.06179 869.242674,439.06179 C865.664755,439.06179 864.543105,444.229896 864.543105,452.116935 C864.543105,459.024307 865.316901,464.888119 869.455645,464.888119 C873.125852,464.888119 873.246536,459.762608 873.338823,457.29214 L869.029702,457.29214 L869.029702,450.682928 L879.032258,450.682928 Z M889.169696,442.795888 L889.169696,461.040436 C889.169696,463.851658 889.169696,465.633519 891.200023,465.633519 C893.82667,465.633519 893.82667,463.397319 893.82667,457.29214 L893.82667,442.795888 L899.733076,442.795888 L899.733076,471.163676 L894.174523,471.163676 L894.174523,467.252101 C893.088369,469.665777 892.144196,471.731599 888.69406,471.731599 C883.263289,471.731599 883.263289,466.44281 883.263289,461.260507 L883.263289,442.795888 L889.169696,442.795888 Z M904.347456,451.030781 C904.524932,449.419298 904.865686,446.025954 907.882781,443.718764 C909.394877,442.568719 911.16254,442.164073 912.930202,442.164073 C915.173501,442.164073 917.501988,442.916572 919.092174,445.159871 C920.391299,446.884939 920.476488,450.107905 920.476488,453.550943 L920.476488,464.831327 C920.476488,469.665777 920.604271,470.176908 920.817242,471.163676 L915.343878,471.163676 C915.088312,470.006531 915.045718,469.374716 915.045718,466.783564 C914.271922,468.622217 912.887608,471.731599 909.181906,471.731599 C906.32809,471.731599 903.623353,469.545093 903.623353,463.965243 C903.623353,456.085302 908.230634,454.01948 914.570082,453.550943 L914.570082,452.464789 C914.570082,449.987222 914.570082,447.403169 912.461665,447.403169 C910.473932,447.403169 910.083485,449.532883 909.913108,451.776181 L904.347456,451.030781 Z M914.570082,457.583201 C911.16254,458.158224 909.742731,459.251477 909.742731,462.928782 C909.742731,464.95201 910.303555,466.499602 911.723364,466.499602 C912.461665,466.499602 913.107678,466.038164 913.668503,464.95201 C914.484893,463.333428 914.570082,461.551567 914.570082,458.960416 L914.570082,457.583201 Z M930.266072,442.795888 L930.266072,449.639368 C930.784303,447.225693 931.813664,442.398342 935.2709,442.398342 C935.696842,442.398342 936.002101,442.455134 936.300261,442.568719 L936.300261,450.278283 C935.78913,450.164698 935.526465,450.164698 935.306395,450.164698 C930.95468,450.164698 930.95468,456.717117 930.95468,458.903623 L930.95468,471.163676 L925.048274,471.163676 L925.048274,442.795888 L930.266072,442.795888 Z M954.629998,432.793333 L954.629998,471.163676 L949.156633,471.163676 L949.156633,466.499602 C948.553214,468.565425 947.651636,471.561222 944.286688,471.561222 C938.593253,471.561222 937.514198,462.758405 937.514198,457.121763 C937.514198,454.885563 937.514198,442.398342 944.542254,442.398342 C947.388971,442.398342 948.255055,444.229896 948.815879,445.38704 L948.815879,432.793333 L954.629998,432.793333 Z M948.815879,454.700988 C948.815879,452.180827 948.815879,447.630338 946.231826,447.630338 C943.938835,447.630338 943.633576,451.314743 943.633576,455.851034 C943.633576,461.38119 943.633576,466.102056 946.182133,466.102056 C948.815879,466.102056 948.815879,461.778737 948.815879,459.705816 L948.815879,454.700988 Z M959.208882,471.156577 L959.208882,442.795888 L965.115289,442.795888 L965.115289,471.156577 L959.208882,471.156577 Z M959.166288,440.382213 L959.166288,432.559064 L965.157883,432.559064 L965.157883,440.382213 L959.166288,440.382213 Z M969.679975,451.030781 C969.857451,449.419298 970.198205,446.025954 973.2153,443.718764 C974.727397,442.568719 976.495059,442.164073 978.262721,442.164073 C980.50602,442.164073 982.834507,442.916572 984.424693,445.159871 C985.723819,446.884939 985.809007,450.107905 985.809007,453.550943 L985.809007,464.831327 C985.809007,469.665777 985.93679,470.176908 986.156861,471.163676 L980.676397,471.163676 C980.420831,470.006531 980.378237,469.374716 980.378237,466.783564 C979.604441,468.622217 978.220127,471.731599 974.514425,471.731599 C971.667708,471.731599 968.955872,469.545093 968.955872,463.965243 C968.955872,456.085302 973.563153,454.01948 979.902601,453.550943 L979.902601,452.464789 C979.902601,449.987222 979.902601,447.403169 977.794184,447.403169 C975.806452,447.403169 975.416004,449.532883 975.252726,451.776181 L969.679975,451.030781 Z M979.902601,457.583201 C976.495059,458.158224 975.07525,459.251477 975.07525,462.928782 C975.07525,464.95201 975.636075,466.499602 977.055884,466.499602 C977.794184,466.499602 978.440198,466.038164 979.001022,464.95201 C979.817413,463.333428 979.902601,461.551567 979.902601,458.960416 L979.902601,457.583201 Z M995.989039,442.795888 L995.989039,446.65067 C996.848024,444.293787 997.976772,442.164073 1001.29203,442.164073 C1002.11552,442.164073 1004.52209,442.164073 1005.99159,445.159871 C1006.85768,446.934632 1006.85768,449.70326 1006.85768,452.52868 L1006.85768,471.163676 L1000.95127,471.163676 L1000.95127,452.52868 C1000.95127,449.987222 1000.7738,448.326045 998.920945,448.326045 C996.287199,448.326045 996.287199,451.080475 996.287199,454.53771 L996.287199,471.163676 L990.380793,471.163676 L990.380793,442.795888 L995.989039,442.795888 Z M9.4062358,407.563323 L382.823149,407.563323 L382.823149,77.1382326 L9.4062358,77.1382326 L9.4062358,407.563323 Z M190.694571,271.900557 C180.393855,256.957065 159.884711,254.23813 159.82082,281.746933 C159.806622,287.87341 160.410041,307.026636 160.552022,310.483871 C161.4607,342.656747 173.408394,338.610291 198.801681,340.519934 C217.954907,341.549296 220.695139,362.654759 191.58905,361.497615 C191.468367,361.497615 64.5445252,361.554407 60.8459223,361.667992 C33.8340527,361.511813 36.4181054,340.810995 56.1321558,340.562528 C92.2804975,337.680316 92.8484212,330.865232 94.055259,300.601999 L94.055259,196.004657 C92.5289641,166.657201 82.0578714,156.037029 61.9817697,154.603021 C22.9725125,152.735972 31.5481599,128.577919 60.0721263,129.479498 C63.2099046,129.664073 194.613244,130.097115 194.613244,130.097115 C278.878919,131.978362 309.603589,118.838028 309.170547,196.025954 C308.694911,240.260109 295.192526,251.838653 256.211665,251.838653 C263.126136,261.443662 277.984439,279.865686 294.312244,299.934689 C322.296683,335.153055 343.608019,336.721945 350.323716,338.929748 C366.055202,342.905214 363.02391,361.369832 349.060086,361.611199 L264.112903,361.497615 C247.124886,360.063607 209.066901,296.640731 201.066277,286.020559 C201.066277,286.020559 196.551284,279.723705 190.694571,271.900557 Z M237.3495,195.344446 C238.116197,159.579453 236.263346,152.636586 175.14766,154.53913 C166.209961,154.830191 161.503294,160.899875 161.503294,169.241254 C161.503294,169.241254 161.503294,219.836154 161.226431,231.76965 C168.843707,231.76965 189.544525,231.897433 193.874943,231.76965 C229.796115,230.931963 236.547308,233.906463 237.3495,195.344446 Z M392.776011,407.392946 L1152.82826,407.392946 L1152.82826,10.7905498 L392.776011,10.7905498 L392.776011,407.392946 Z M485.226886,145.502045 L485.226886,191.645843 L497.870286,191.645843 L497.870286,202.287313 L476.63704,202.287313 L476.63704,145.502045 L485.226886,145.502045 Z M522.205816,145.502045 L533.379714,202.287313 L524.612392,202.287313 L522.61756,190.62358 L511.614039,190.62358 L509.676,202.287313 L501.732167,202.287313 L513.495286,145.502045 L522.205816,145.502045 Z M521.027374,180.833996 L517.080304,157.676908 L513.261018,180.833996 L521.027374,180.833996 Z M547.705588,145.502045 L557.764936,180.748807 L557.764936,145.502045 L564.473535,145.502045 L564.473535,202.287313 L556.763971,202.287313 L544.830475,161.169639 L544.830475,202.287313 L538.121876,202.287313 L538.121876,145.502045 L547.705588,145.502045 Z M598.861313,171.981486 L598.861313,202.287313 L595.212403,202.287313 L594.097853,195.820082 C593.210473,197.779418 590.740005,203.146297 584.563835,203.146297 C574.802647,203.146297 570.039187,190.538392 570.039187,174.877896 C570.039187,166.44423 571.331213,144.650159 585.330532,144.650159 C596.213369,144.650159 598.101715,155.887949 598.861313,164.05895 L591.094957,165.933099 C590.683212,161.68077 590.093991,154.780498 585.508008,154.780498 C580.623864,154.780498 579.097569,162.447467 579.097569,174.111199 C579.097569,184.326726 580.155327,193.00886 585.799069,193.00886 C590.803896,193.00886 590.981372,185.434178 591.094957,181.77107 L585.216947,181.77107 L585.216947,171.981486 L598.861313,171.981486 Z M614.351431,145.502045 L614.351431,177.937585 C614.351431,186.200875 614.351431,193.00886 619.93838,193.00886 C622.586324,193.00886 623.821558,191.2199 624.460473,189.267662 C625.170377,187.05276 625.170377,184.156349 625.170377,177.937585 L625.170377,145.502045 L632.411404,145.502045 L632.411404,177.433553 C632.411404,187.478703 632.411404,195.30895 627.640845,199.909132 C625.81639,201.612903 623.232338,203.146297 619.171683,203.146297 C605.818378,203.146297 605.761586,190.02726 605.761586,177.937585 L605.761586,145.502045 L614.351431,145.502045 Z M655.852453,145.502045 L667.033451,202.287313 L658.25903,202.287313 L656.264198,190.62358 L645.260677,190.62358 L643.322637,202.287313 L635.385904,202.287313 L647.149023,145.502045 L655.852453,145.502045 Z M654.674012,180.833996 L650.734041,157.676908 L646.914755,180.833996 L654.674012,180.833996 Z M697.353476,171.981486 L697.353476,202.287313 L693.704566,202.287313 L692.590016,195.820082 C691.709734,197.779418 689.239266,203.146297 683.063096,203.146297 C673.294809,203.146297 668.531349,190.538392 668.531349,174.877896 C668.531349,166.44423 669.830475,144.650159 683.829793,144.650159 C694.712631,144.650159 696.586779,155.887949 697.353476,164.05895 L689.594219,165.933099 C689.182474,161.68077 688.593253,154.780498 684.007269,154.780498 C679.123126,154.780498 677.596831,162.447467 677.596831,174.111199 C677.596831,184.326726 678.64749,193.00886 684.29833,193.00886 C689.296059,193.00886 689.480634,185.434178 689.594219,181.77107 L683.709109,181.77107 L683.709109,171.981486 L697.353476,171.981486 Z M728.340811,145.502045 L728.340811,155.291629 L713.106259,155.291629 L713.106259,168.403567 L724.933269,168.403567 L724.933269,178.193151 L713.106259,178.193151 L713.106259,192.156974 L728.340811,192.156974 L728.340811,202.287313 L704.523512,202.287313 L704.523512,145.502045 L728.340811,145.502045 Z M770.423955,145.502045 L770.423955,156.143514 L762.430429,156.143514 L762.430429,202.287313 L753.840584,202.287313 L753.840584,156.143514 L746.010336,156.143514 L746.010336,145.502045 L770.423955,145.502045 Z M801.524875,202.287313 L792.93503,202.287313 L792.93503,179.045036 L783.464902,179.045036 L783.464902,202.287313 L774.882156,202.287313 L774.882156,145.502045 L783.464902,145.502045 L783.464902,168.403567 L792.93503,168.403567 L792.93503,145.502045 L801.524875,145.502045 L801.524875,202.287313 Z M820.145672,145.502045 C824.092742,145.502045 827.912029,145.502045 830.907826,150.357792 C832.966549,153.673046 833.733246,158.18804 833.733246,162.695934 C833.733246,172.748183 830.148228,175.807871 828.210189,177.511642 L835.437017,202.287313 L826.030781,202.287313 L820.798785,179.896922 L816.43997,179.896922 L816.43997,202.287313 L807.850125,202.287313 L807.850125,145.502045 L820.145672,145.502045 Z M816.43997,154.695309 L816.43997,170.703657 L820.259257,170.703657 C823.972058,170.703657 825.320877,167.210927 825.320877,162.525557 C825.320877,154.695309 821.388005,154.695309 819.918503,154.695309 L816.43997,154.695309 Z M866.360461,173.940822 C866.360461,184.326726 865.061336,203.146297 852.126874,203.146297 C839.533167,203.146297 837.893287,185.348989 837.893287,173.940822 C837.893287,163.043787 839.36279,144.650159 852.126874,144.650159 C864.599898,144.650159 866.360461,162.099614 866.360461,173.940822 Z M846.944571,173.940822 C846.944571,186.115686 847.76806,193.00886 852.126874,193.00886 C856.535382,193.00886 857.29498,185.945309 857.29498,173.940822 C857.29498,162.021524 856.599273,154.780498 852.126874,154.780498 C847.76806,154.780498 846.944571,161.595582 846.944571,173.940822 Z M880.622444,145.502045 L880.622444,177.937585 C880.622444,186.200875 880.622444,193.00886 886.209393,193.00886 C888.864437,193.00886 890.092572,191.2199 890.745684,189.267662 C891.455588,187.05276 891.455588,184.156349 891.455588,177.937585 L891.455588,145.502045 L898.682417,145.502045 L898.682417,177.433553 C898.682417,187.478703 898.682417,195.30895 893.918957,199.909132 C892.101602,201.612903 889.51045,203.146297 885.449796,203.146297 C872.09649,203.146297 872.039698,190.02726 872.039698,177.937585 L872.039698,145.502045 L880.622444,145.502045 Z M932.189914,171.981486 L932.189914,202.287313 L928.541004,202.287313 L927.426454,195.820082 C926.546172,197.779418 924.075704,203.146297 917.899534,203.146297 C908.131247,203.146297 903.367787,190.538392 903.367787,174.877896 C903.367787,166.44423 904.666913,144.650159 918.666231,144.650159 C929.549069,144.650159 931.430316,155.887949 932.189914,164.05895 L924.430657,165.933099 C924.018912,161.68077 923.429691,154.780498 918.843707,154.780498 C913.959564,154.780498 912.433269,162.447467 912.433269,174.111199 C912.433269,184.326726 913.483928,193.00886 919.134768,193.00886 C924.132497,193.00886 924.317072,185.434178 924.430657,181.77107 L918.545547,181.77107 L918.545547,171.981486 L932.189914,171.981486 Z M965.164982,202.287313 L956.582235,202.287313 L956.582235,179.045036 L947.112108,179.045036 L947.112108,202.287313 L938.522263,202.287313 L938.522263,145.502045 L947.112108,145.502045 L947.112108,168.403567 L956.582235,168.403567 L956.582235,145.502045 L965.164982,145.502045 L965.164982,202.287313 Z M999.964505,173.940822 C999.964505,184.326726 998.672478,203.146297 985.730918,203.146297 C973.144309,203.146297 971.497331,185.348989 971.497331,173.940822 C971.497331,163.043787 972.966833,144.650159 985.730918,144.650159 C998.203941,144.650159 999.964505,162.099614 999.964505,173.940822 Z M980.555713,173.940822 C980.555713,186.115686 981.379203,193.00886 985.730918,193.00886 C990.139425,193.00886 990.913221,185.945309 990.913221,173.940822 C990.913221,162.021524 990.203317,154.780498 985.730918,154.780498 C981.379203,154.780498 980.555713,161.595582 980.555713,173.940822 Z M1013.65147,145.502045 L1013.65147,177.937585 C1013.65147,186.200875 1013.65147,193.00886 1019.23841,193.00886 C1021.88636,193.00886 1023.12159,191.2199 1023.76761,189.267662 C1024.47041,187.05276 1024.47041,184.156349 1024.47041,177.937585 L1024.47041,145.502045 L1031.71144,145.502045 L1031.71144,177.433553 C1031.71144,187.478703 1031.71144,195.30895 1026.94798,199.909132 C1025.12352,201.612903 1022.53237,203.146297 1018.47172,203.146297 C1005.11841,203.146297 1005.06872,190.02726 1005.06872,177.937585 L1005.06872,145.502045 L1013.65147,145.502045 Z M1060.56196,145.502045 L1060.56196,156.143514 L1052.56134,156.143514 L1052.56134,202.287313 L1043.97859,202.287313 L1043.97859,156.143514 L1036.15544,156.143514 L1036.15544,145.502045 L1060.56196,145.502045 Z M441.2199,223.591549 L452.067242,280.383916 L443.562585,280.383916 L441.624546,268.713085 L430.947581,268.713085 L429.059234,280.383916 L421.35677,280.383916 L432.772035,223.591549 L441.2199,223.591549 Z M440.076954,258.923501 L436.257667,235.766413 L432.544866,258.923501 L440.076954,258.923501 Z M465.441845,223.591549 L475.203033,258.838312 L475.203033,223.591549 L481.712858,223.591549 L481.712858,280.383916 L474.230463,280.383916 L462.644821,239.259144 L462.644821,280.383916 L456.134995,280.383916 L456.134995,223.591549 L465.441845,223.591549 Z M489.088766,223.591549 L498.047762,223.591549 C503.876079,223.591549 515.688891,223.676738 515.688891,251.604384 C515.688891,262.245854 513.580475,271.779873 509.470127,276.465243 C506.09808,280.383916 501.987733,280.383916 499.077124,280.383916 L489.088766,280.383916 L489.088766,223.591549 Z M497.423046,270.587233 L498.849955,270.587233 C502.15811,270.587233 506.84348,269.990913 506.84348,251.434007 C506.84348,233.977453 502.214902,233.381134 498.849955,233.381134 L497.423046,233.381134 L497.423046,270.587233 Z M552.561336,239.940652 C552.099898,237.896127 551.013744,232.870002 547.194457,232.870002 C544.397433,232.870002 543.197694,235.766413 543.197694,238.066504 C543.197694,241.978078 545.703657,243.341095 549.757213,245.641186 C554.045036,248.111654 560.263801,251.604384 560.263801,263.09774 C560.263801,272.802135 555.692015,281.235802 546.733019,281.235802 C543.992787,281.235802 539.88244,280.462006 536.801454,275.272603 C534.685938,271.609496 534.00443,268.116765 533.550091,265.653396 L540.855009,262.586608 C541.309348,265.142265 542.395502,271.098364 546.960189,271.098364 C549.814005,271.098364 551.815936,268.713085 551.815936,264.971888 C551.815936,260.968026 549.416458,259.349443 546.562642,257.81605 C541.36614,255.004827 535.083485,251.689573 535.083485,240.111029 C535.083485,231.25142 538.91697,222.739664 547.24415,222.739664 C556.721377,222.739664 558.723308,232.188494 559.518401,235.93679 L552.561336,239.940652 Z M592.323092,252.030327 C592.323092,262.416231 591.066561,281.235802 578.508348,281.235802 C566.290891,281.235802 564.693605,263.438494 564.693605,252.030327 C564.693605,241.133292 566.120513,222.739664 578.508348,222.739664 C590.612222,222.739664 592.323092,240.189119 592.323092,252.030327 Z M573.482224,252.030327 C573.482224,264.205191 574.284416,271.098364 578.508348,271.098364 C582.789073,271.098364 583.534473,264.034814 583.534473,252.030327 C583.534473,240.111029 582.845866,232.870002 578.508348,232.870002 C574.284416,232.870002 573.482224,239.685086 573.482224,252.030327 Z M610.830304,223.591549 L616.190084,258.667935 L622.24557,223.591549 L634.122274,223.591549 L634.122274,280.383916 L626.292026,280.383916 L626.292026,232.784814 L618.532769,280.383916 L612.420491,280.383916 L605.342742,232.784814 L605.342742,280.383916 L598.556054,280.383916 L598.556054,223.591549 L610.830304,223.591549 Z M664.832746,223.591549 L664.832746,233.381134 L650.052533,233.381134 L650.052533,246.493071 L661.524591,246.493071 L661.524591,256.282656 L650.052533,256.282656 L650.052533,270.246479 L664.832746,270.246479 L664.832746,280.383916 L641.718253,280.383916 L641.718253,223.591549 L664.832746,223.591549 Z M699.192129,239.940652 C698.730691,237.896127 697.651636,232.870002 693.82525,232.870002 C691.028226,232.870002 689.828487,235.766413 689.828487,238.066504 C689.828487,241.978078 692.341549,243.341095 696.395104,245.641186 C700.675829,248.111654 706.901692,251.604384 706.901692,263.09774 C706.901692,272.802135 702.329907,281.235802 693.363812,281.235802 C690.630679,281.235802 686.520332,280.462006 683.432247,275.272603 C681.32383,271.609496 680.642322,268.116765 680.180884,265.653396 L687.485802,262.586608 C687.94724,265.142265 689.026295,271.098364 693.59808,271.098364 C696.451897,271.098364 698.446729,268.713085 698.446729,264.971888 C698.446729,260.968026 696.047251,259.349443 693.193435,257.81605 C688.004032,255.004827 681.721377,251.689573 681.721377,240.111029 C681.721377,231.25142 685.547762,222.739664 693.882042,222.739664 C703.359269,222.739664 705.3541,232.188494 706.156293,235.93679 L699.192129,239.940652 Z M735.035211,223.591549 L735.035211,233.381134 L720.254998,233.381134 L720.254998,246.493071 L731.727056,246.493071 L731.727056,256.282656 L720.254998,256.282656 L720.254998,270.246479 L735.035211,270.246479 L735.035211,280.383916 L711.920718,280.383916 L711.920718,223.591549 L735.035211,223.591549 Z M747.877385,223.591549 L752.449171,238.407258 L757.241027,223.591549 L765.227453,223.591549 L756.275557,249.304294 L766.377499,280.383916 L757.241027,280.383916 L751.646979,261.819911 L745.421115,280.383916 L737.42759,280.383916 L747.877385,251.26363 L738.577635,223.591549 L747.877385,223.591549 Z M778.19741,223.591549 L778.19741,256.02709 C778.19741,264.290379 778.19741,271.098364 783.613982,271.098364 C786.190936,271.098364 787.383576,269.309405 788.008292,267.357167 C788.696899,265.142265 788.696899,262.245854 788.696899,256.02709 L788.696899,223.591549 L795.717856,223.591549 L795.717856,255.523058 C795.717856,265.568208 795.717856,273.398455 791.096377,277.991538 C789.321615,279.702408 786.815652,281.235802 782.875682,281.235802 C769.919923,281.235802 769.86313,268.116765 769.86313,256.02709 L769.86313,223.591549 L778.19741,223.591549 Z M818.271524,223.591549 L829.118866,280.383916 L820.614209,280.383916 L818.67617,268.713085 L807.999205,268.713085 L806.110859,280.383916 L798.408394,280.383916 L809.82366,223.591549 L818.271524,223.591549 Z M817.128578,258.923501 L813.309291,235.766413 L809.59649,258.923501 L817.128578,258.923501 Z M841.705475,223.591549 L841.705475,269.735348 L853.979725,269.735348 L853.979725,280.383916 L833.371195,280.383916 L833.371195,223.591549 L841.705475,223.591549 Z M858.516015,280.383916 L858.516015,223.591549 L866.850295,223.591549 L866.850295,280.383916 L858.516015,280.383916 Z M894.614664,223.591549 L894.614664,234.233019 L886.848308,234.233019 L886.848308,280.383916 L878.514028,280.383916 L878.514028,234.233019 L870.925148,234.233019 L870.925148,223.591549 L894.614664,223.591549 Z M906.604952,223.591549 L911.964732,244.363358 L917.672365,223.591549 L925.843367,223.591549 L915.279986,256.367844 L915.279986,280.383916 L906.938607,280.383916 L906.938607,256.367844 L897.411688,223.591549 L906.604952,223.591549 Z M952.088539,220.042026 L928.853362,291.046683 L923.607167,291.046683 L946.785552,220.042026 L952.088539,220.042026 Z M967.791629,223.591549 L977.552817,258.838312 L977.552817,223.591549 L984.055543,223.591549 L984.055543,280.383916 L976.580248,280.383916 L964.987506,239.259144 L964.987506,280.383916 L958.477681,280.383916 L958.477681,223.591549 L967.791629,223.591549 Z M999.694741,223.591549 L999.694741,256.02709 C999.694741,264.290379 999.694741,271.098364 1005.11841,271.098364 C1007.68827,271.098364 1008.88801,269.309405 1009.51272,267.357167 C1010.19423,265.142265 1010.19423,262.245854 1010.19423,256.02709 L1010.19423,223.591549 L1017.22229,223.591549 L1017.22229,255.523058 C1017.22229,265.568208 1017.22229,273.398455 1012.59371,277.991538 C1010.82604,279.702408 1008.31298,281.235802 1004.37301,281.235802 C991.417254,281.235802 991.360461,268.116765 991.360461,256.02709 L991.360461,223.591549 L999.694741,223.591549 Z M1024.12256,223.591549 L1033.08865,223.591549 C1038.90277,223.591549 1050.72268,223.676738 1050.72268,251.604384 C1050.72268,262.245854 1048.60717,271.779873 1044.49682,276.465243 C1041.13897,280.383916 1037.02862,280.383916 1034.11092,280.383916 L1024.12256,280.383916 L1024.12256,223.591549 Z M1032.45684,270.587233 L1033.88375,270.587233 C1037.1919,270.587233 1041.87727,269.990913 1041.87727,251.434007 C1041.87727,233.977453 1037.25579,233.381134 1033.88375,233.381134 L1032.45684,233.381134 L1032.45684,270.587233 Z M1056.65749,280.383916 L1056.65749,223.591549 L1064.99177,223.591549 L1064.99177,280.383916 L1056.65749,280.383916 Z M1092.76323,223.591549 L1092.76323,234.233019 L1085.00398,234.233019 L1085.00398,280.383916 L1076.6697,280.383916 L1076.6697,234.233019 L1069.07372,234.233019 L1069.07372,223.591549 L1092.76323,223.591549 Z M1104.74642,223.591549 L1110.1133,244.363358 L1115.82093,223.591549 L1123.98484,223.591549 L1113.42146,256.367844 L1113.42146,280.383916 L1105.09428,280.383916 L1105.09428,256.367844 L1095.55316,223.591549 L1104.74642,223.591549 Z M1031.39198,489.969048 L1152.82826,489.969048 L1152.82826,416.621706 L1031.39198,416.621706 L1031.39198,489.969048 Z M1091.62029,431.714278 C1120.79027,431.714278 1144.45139,442.355747 1144.45139,455.488982 C1144.45139,468.615118 1120.79027,479.263687 1091.62029,479.263687 C1062.44321,479.263687 1038.78919,468.615118 1038.78919,455.488982 C1038.78919,442.355747 1062.44321,431.714278 1091.62029,431.714278 Z M1120.30043,471.830986 C1131.57372,468.45184 1139.29748,463.184348 1140.66759,457.356031 L1130.99159,457.356031 C1130.26749,462.94298 1126.34172,467.990402 1120.30043,471.830986 Z M1115.3027,457.356031 C1114.79157,463.972342 1111.5899,469.829055 1106.76255,473.818719 C1118.08553,470.844219 1126.21394,464.675148 1127.40658,457.356031 L1115.3027,457.356031 Z M1055.8269,457.356031 C1057.02664,464.675148 1065.14794,470.844219 1076.47092,473.818719 C1071.65067,469.829055 1068.4419,463.972342 1067.93787,457.356031 L1055.8269,457.356031 Z M1042.56588,457.356031 C1043.936,463.184348 1051.65976,468.45184 1062.94014,471.838085 C1056.89885,467.990402 1052.97308,462.94298 1052.24188,457.356031 L1042.56588,457.356031 Z M1062.94014,439.146979 C1051.53907,442.56162 1043.78692,447.9143 1042.52328,453.813607 L1052.22058,453.813607 C1052.88079,448.14147 1056.83496,443.030157 1062.94014,439.146979 Z M1067.92367,453.813607 C1068.39221,447.119207 1071.60098,441.191504 1076.47092,437.159246 C1065.05566,440.147944 1056.89175,446.416402 1055.8127,453.813607 L1067.92367,453.813607 Z M1091.62029,475.714164 C1102.78709,475.714164 1111.85257,466.662881 1111.85257,455.488982 C1111.85257,444.307985 1102.78709,435.256701 1091.62029,435.256701 C1080.44639,435.256701 1071.38091,444.307985 1071.38091,455.488982 C1071.38091,466.662881 1080.44639,475.714164 1091.62029,475.714164 Z M1127.42787,453.813607 C1126.34172,446.416402 1118.17782,440.147944 1106.76965,437.159246 C1111.6325,441.191504 1114.84127,447.119207 1115.3098,453.813607 L1127.42787,453.813607 Z M1140.71019,453.813607 C1139.46076,447.9143 1131.6944,442.56162 1120.30043,439.146979 C1126.39851,443.030157 1130.35268,448.14147 1131.01289,453.813607 L1140.71019,453.813607 Z M1088.74517,455.488982 C1088.74517,453.955588 1089.98751,452.706156 1091.5209,452.706156 C1093.05429,452.706156 1094.30373,453.955588 1094.30373,455.488982 C1094.30373,457.022376 1093.05429,458.271808 1091.5209,458.271808 C1089.98751,458.271808 1088.74517,457.022376 1088.74517,455.488982 Z M1091.62029,443.278623 L1087.88619,439.565822 C1090.17918,437.272831 1093.05429,437.272831 1095.34729,439.565822 L1091.62029,443.278623 Z M1094.58769,447.623239 C1094.58769,444.769423 1096.90908,442.455134 1099.76289,442.455134 C1102.63091,442.455134 1104.9452,444.769423 1104.9452,447.623239 C1104.9452,450.484155 1102.63091,452.812642 1099.76289,452.812642 C1096.90908,452.812642 1094.58769,450.484155 1094.58769,447.623239 Z M1078.23858,447.623239 C1078.23858,444.769423 1080.55997,442.455134 1083.42089,442.455134 C1086.2747,442.455134 1088.58899,444.769423 1088.58899,447.623239 C1088.58899,450.484155 1086.2747,452.812642 1083.42089,452.812642 C1080.55997,452.812642 1078.23858,450.484155 1078.23858,447.623239 Z M1078.52965,463.638687 C1078.52965,460.784871 1080.84393,458.463483 1083.70485,458.463483 C1086.56577,458.463483 1088.88715,460.784871 1088.88715,463.638687 C1088.88715,466.492503 1086.56577,468.813891 1083.70485,468.813891 C1080.84393,468.813891 1078.52965,466.492503 1078.52965,463.638687 Z M1094.15465,463.546399 C1094.15465,460.678385 1096.47603,458.364096 1099.32985,458.364096 C1102.19786,458.364096 1104.51925,460.678385 1104.51925,463.546399 C1104.51925,466.407315 1102.19786,468.721604 1099.32985,468.721604 C1096.47603,468.721604 1094.15465,466.407315 1094.15465,463.546399 Z M1091.5209,467.571558 L1095.2621,471.27726 C1092.95491,473.570252 1090.07979,473.570252 1087.7797,471.27726 L1091.5209,467.571558 Z M1103.47569,455.510279 L1107.18139,451.776181 C1109.48149,454.069173 1109.48149,456.958485 1107.18139,459.258576 L1103.47569,455.510279 Z M1079.37443,455.510279 L1075.67583,459.258576 C1073.37574,456.958485 1073.37574,454.069173 1075.67583,451.776181 L1079.37443,455.510279 Z" id="Combined-Shape"/></g></g></svg>