<svg width="750" height="501" viewBox="0 0 750 501" version="1.1" xmlns="http://www.w3.org/2000/svg" xmlns:xlink="http://www.w3.org/1999/xlink"><title>uE033-eye</title><desc>Created with Sketch.</desc><g id="Page-1" stroke="none" stroke-width="1" fill="none" fill-rule="evenodd"><path d="M374.959871,0.71 C141.008988,0.71 0.66,250.71 0.66,250.71 C0.66,250.71 140.685851,500.71 374.959871,500.71 C609.233891,500.71 749.152029,250.71 749.152029,250.71 C749.152029,250.71 609.126178,0.71 374.852159,0.71 L374.959871,0.71 Z M374.959871,429.296816 C271.987014,429.296816 187.432943,348.512671 187.432943,250.71 C187.432943,152.907329 271.663878,72.123184 374.529022,72.123184 C477.394166,72.123184 562.05595,152.47648 562.05595,250.71 C562.05595,348.94352 478.255864,429.296816 374.959871,429.296816 Z M487.195976,250.71 C487.195976,313.183072 431.077923,357.883632 374.959871,357.883632 C309.363145,357.883632 262.831478,313.183072 262.831478,250.71 C265.15922,190.629765 314.837257,143.29008 374.959871,143.859505 C431.077923,143.859505 487.195976,197.715601 487.195976,251.033137 L487.195976,250.71 Z" id="uE033-eye" fill="#000" fill-rule="nonzero"/></g></svg>