<svg width="500" height="500" viewBox="0 0 500 500" version="1.1" xmlns="http://www.w3.org/2000/svg" xmlns:xlink="http://www.w3.org/1999/xlink"><title>uE037-world</title><desc>Created with Sketch.</desc><g id="Page-1" stroke="none" stroke-width="1" fill="none" fill-rule="evenodd"><path d="M250,0 C215.366279,0 181.930233,7.01162791 150.482558,20.6860465 C136.383721,7.87790698 117.738372,0 97.2383721,0 C53.4825581,0 17.8837209,35.5988372 17.8837209,79.3546512 C17.8837209,102.389535 27.9011628,118.005814 28.1976744,118.459302 L32.8895349,126.186047 C11.4244186,163.767442 0,206.44186 0,250 C0,360.482558 72.0697674,454.389535 171.639535,487.348837 C171.860465,487.44186 172.098837,487.581395 172.30814,487.656977 L172.331395,487.587209 C196.802326,495.604651 222.889535,500 250,500 C387.848837,500 500,387.848837 500,250 C500,112.151163 387.848837,0 250,0 Z M414.686047,81.9244186 C404.610465,82.7906977 390.377907,83.0697674 376.523256,80.1046512 C356.924419,75.9069767 350.930233,70.9244186 338.976744,61 C335.563953,58.1627907 331.744186,54.994186 327.122093,51.4186047 C303.377907,33.0813953 279.523256,35.3953488 249.302326,38.3081395 C233.232558,39.8953488 225.174419,25.5465116 221.668605,16.2616279 C231.005814,15.1511628 240.447674,14.5348837 250,14.5348837 C314.063953,14.5348837 372.197674,40.2790698 414.686047,81.9244186 Z M97.2383721,14.5348837 C132.982558,14.5348837 162.063953,43.6104651 162.063953,79.3546512 C162.063953,90.4302326 159.174419,101.412791 153.837209,110.901163 L97.2383721,204.110465 L40.5174419,110.738372 C40.4360465,110.616279 32.4186047,97.877907 32.4186047,79.3546512 C32.4186047,43.6104651 61.5,14.5348837 97.2383721,14.5348837 Z M45.494186,366.488372 C56.627907,362.162791 78.8023256,356.802326 91.1162791,376.017442 C103.488372,395.319767 109.040698,399.412791 114.918605,403.75 C118.744186,406.563953 122.697674,409.476744 130.011628,418.75 C135.901163,426.209302 141.77907,432.5 146.97093,438.052326 C157.401163,449.203488 163.726744,456.325581 162.290698,461.837209 C161.703488,464.087209 161.424419,466.133721 161.296512,468.063953 C112.30814,448.05814 71.5348837,412.023256 45.494186,366.488372 Z M250,485.465116 C224.488372,485.465116 199.94186,481.331395 176.918605,473.796512 C176.436047,473.331395 174.860465,471.273256 176.366279,465.488372 C179.877907,451.953488 170.046512,441.430233 157.593023,428.116279 C152.598837,422.773256 146.936047,416.72093 141.430233,409.738372 C132.901163,398.936047 127.936047,395.273256 123.552326,392.040698 C118.581395,388.372093 114.284884,385.209302 103.360465,368.168605 C86.5755814,341.988372 56.7325581,345.994186 38.5872093,353.52907 C23.2034884,322.267442 14.5348837,287.133721 14.5348837,250 C14.5348837,211.703488 23.9127907,174.127907 41.5930233,140.505814 L88.6918605,218.034884 C81.4883721,230.017442 62.5406977,266.593023 77.127907,299.546512 C88.994186,326.348837 119.69186,343.244186 168.360465,349.761628 C208.447674,355.127907 220.55814,363.965116 223.662791,370.436047 C227.337209,378.104651 220.761628,388.988372 214.401163,399.523256 C207.569767,410.831395 200.505814,422.523256 205.767442,433.023256 C209.924419,441.30814 220.087209,445.819767 238.715116,447.645349 C305.354651,454.168605 331.965116,455.203488 341.389535,455.284884 L345.459302,461.982558 L414.604651,348.110465 C421.284884,336.244186 424.819767,322.796512 424.819767,309.226744 C424.819767,265.47093 389.22093,229.872093 345.465116,229.872093 C301.709302,229.872093 266.110465,265.465116 266.110465,309.226744 C266.110465,332.261628 276.133721,347.877907 276.430233,348.337209 L332.430233,440.523256 C318.773256,439.953488 291.656977,438.22093 240.139535,433.174419 C222.093023,431.406977 219.168605,427.30814 218.761628,426.505814 C217.093023,423.180233 222.726744,413.848837 226.843023,407.034884 C234.418605,394.505814 243.843023,378.901163 236.773256,364.151163 C229.819767,349.645349 208.69186,340.5 170.296512,335.354651 C127.011628,329.563953 100.145349,315.552326 90.4476744,293.72093 C79.3895349,268.825581 93.3488372,239.313953 100.017442,227.52907 L166.383721,118.244186 C173.063953,106.372093 176.598837,92.9302326 176.598837,79.3604651 C176.598837,61.6337209 170.680233,45.3023256 160.819767,32.0755814 C175.773256,25.9418605 191.203488,21.4244186 206.994186,18.5174419 C212.203488,34.2383721 225.703488,55.2325581 250.703488,52.7848837 C279.80814,49.9651163 299.046512,48.1046512 318.232558,62.9302326 C322.709302,66.3837209 326.395349,69.4534884 329.697674,72.1918605 C342.162791,82.5406977 350.395349,89.377907 373.482558,94.3255814 C383.122093,96.3895349 392.790698,97.0813953 401.401163,97.0813953 C412.616279,97.0813953 421.918605,95.9186047 427.116279,95.1046512 C463.401163,136.52907 485.465116,190.72093 485.465116,250 C485.465116,379.837209 379.837209,485.465116 250,485.465116 Z M345.47093,433.982558 L288.732558,340.581395 C288.651163,340.459302 280.645349,327.982558 280.645349,309.22093 C280.645349,273.482558 309.726744,244.401163 345.465116,244.401163 C381.203488,244.401163 410.290698,273.482558 410.290698,309.226744 C410.290698,320.30814 407.406977,331.290698 402.069767,340.77907 L345.47093,433.982558 Z M97.2383721,124.023256 C72.0116279,124.023256 51.4883721,103.5 51.4883721,78.2732558 C51.4883721,53.0465116 72.0116279,32.5232558 97.2383721,32.5232558 C122.465116,32.5232558 142.988372,53.0465116 142.988372,78.2732558 C142.988372,103.5 122.465116,124.023256 97.2383721,124.023256 Z M97.2383721,47.0581395 C80.0290698,47.0581395 66.0232558,61.0639535 66.0232558,78.2732558 C66.0232558,95.4825581 80.0232558,109.488372 97.2383721,109.488372 C114.453488,109.488372 128.453488,95.4883721 128.453488,78.2732558 C128.453488,61.0581395 114.447674,47.0581395 97.2383721,47.0581395 Z M345.47093,262.389535 C320.244186,262.389535 299.72093,282.912791 299.72093,308.139535 C299.72093,333.366279 320.244186,353.889535 345.47093,353.889535 C370.697674,353.889535 391.215116,333.366279 391.215116,308.139535 C391.215116,282.912791 370.697674,262.389535 345.47093,262.389535 Z M345.47093,339.354651 C328.255814,339.354651 314.255814,325.354651 314.255814,308.139535 C314.255814,290.924419 328.255814,276.924419 345.47093,276.924419 C362.680233,276.924419 376.680233,290.924419 376.680233,308.139535 C376.680233,325.354651 362.680233,339.354651 345.47093,339.354651 Z M441.151163,175.174419 C450.72093,190.813953 447.674419,206.30814 445.930233,212.244186 C442.5,223.837209 425.633721,225.180233 413.244186,225.180233 C384.796512,225.180233 341.267442,216.424419 318.180233,206.069767 C306.773256,200.947674 294.017442,198.459302 279.174419,198.459302 C260.94186,198.459302 241.674419,202.226744 223.034884,205.860465 L219.401163,206.569767 C211.122093,208.180233 202.680233,209.02907 194.976744,209.02907 C175.686047,209.02907 162.947674,203.837209 159.110465,194.395349 C155.80814,186.27907 159.343023,177.098837 169.610465,167.098837 C180.848837,156.156977 193.232558,144.918605 209.761628,130.662791 C214.715116,126.389535 219.633721,121.598837 224.395349,116.965116 C227.331395,114.110465 230.25,111.273256 233.180233,108.534884 C246.517442,96.0930233 261.44186,84.5872093 280.168605,84.5872093 C290.197674,84.5872093 300.232558,87.8081395 310.837209,94.4360465 C333.02907,108.30814 340.430233,118.255814 345.837209,125.523256 C352.127907,133.982558 355.27907,138.226744 385.290698,143.843023 C412.77907,148.994186 431.581395,159.534884 441.151163,175.174419 Z M432.098837,207.715116 C433.30814,203.372093 435.069767,193.087209 428.75,182.761628 C421.517442,170.94186 405.55814,162.424419 382.604651,158.127907 C348.587209,151.761628 342.604651,145.540698 334.168605,134.197674 C329.186047,127.505814 322.994186,119.180233 303.133721,106.761628 C294.906977,101.622093 287.389535,99.122093 280.162791,99.122093 C267.232558,99.122093 255.988372,107.133721 243.093023,119.162791 C240.238372,121.831395 237.395349,124.598837 234.534884,127.383721 C229.622093,132.162791 224.540698,137.110465 219.255814,141.668605 C202.959302,155.732558 190.77907,166.784884 179.755814,177.517442 C173.063953,184.040698 172.133721,187.837209 172.581395,188.930233 C173.459302,191.081395 180.313953,194.5 194.982558,194.5 C201.767442,194.5 209.25,193.744186 216.627907,192.30814 L220.25,191.598837 C239.563953,187.831395 259.534884,183.930233 279.174419,183.930233 C296.110465,183.930233 310.813953,186.837209 324.127907,192.80814 C345.296512,202.30814 386.94186,210.645349 413.238372,210.645349 C427.313953,210.645349 431.325581,208.296512 432.098837,207.715116 Z" id="uE037-world" fill="#000" fill-rule="nonzero"/></g></svg>