<?xml version="1.0" encoding="UTF-8"?>
<svg width="515px" height="501px" viewBox="0 0 515 501" version="1.1" xmlns="http://www.w3.org/2000/svg" xmlns:xlink="http://www.w3.org/1999/xlink">
    <!-- Generator: Sketch 43.1 (39012) - http://www.bohemiancoding.com/sketch -->
    <title>uE038-world-text</title>
    <desc>Created with Sketch.</desc>
    <defs></defs>
    <g id="Page-1" stroke="none" stroke-width="1" fill="none" fill-rule="evenodd">
        <g id="uE038-world-text" transform="translate(-51.000000, -63.000000)" fill="#000000">
            <path d="M497.721402,255.74123 L523.779236,249.169652 L531.280346,278.913299 L537.623372,277.313638 L530.122261,247.569992 L548.551322,242.92233 L556.203751,273.265992 L562.546777,271.666332 L553.100133,234.208195 L495.927188,248.626756 L497.721402,255.74123 Z M503.936108,353.871095 L510.457551,354.384583 L512.60865,327.065026 L564.868319,331.17987 L565.444258,323.865279 L506.663147,319.236946 L503.936108,353.871095 Z M490.018532,394.54489 L512.563959,405.182273 L533.461106,440.651402 L537.120064,432.896414 L520.144374,404.653534 L552.736647,399.797808 L556.395605,392.04282 L515.69482,398.546562 L493.149392,387.909179 L490.018532,394.54489 Z M378.906267,501.777032 L400.213642,559.289827 L406.838677,554.42181 L388.207091,507.119463 L428.209759,538.718528 L433.125108,535.106773 L414.920944,487.49036 L454.567428,519.351147 L461.121226,514.535474 L412.672577,476.965846 L406.261252,481.676831 L423.950641,527.696913 L385.317592,497.066047 L378.906267,501.777032 Z M321.369913,505.031306 L329.153397,563.478359 L336.426419,562.509799 L328.642935,504.062747 L321.369913,505.031306 Z M263.916873,502.110713 L259.883423,554.376727 L241.198102,552.934752 L240.694771,559.456986 L285.292753,562.898682 L285.796084,556.376447 L267.198902,554.941274 L271.232352,502.67526 L263.916873,502.110713 Z M172.428524,462.420802 L147.478293,515.844828 L154.12626,518.94958 L164.861967,495.96203 L196.099403,510.550621 L185.363696,533.538171 L192.011663,536.642922 L216.961895,483.218896 L210.313928,480.114145 L198.867495,504.623518 L167.630058,490.034927 L179.076491,465.525554 L172.428524,462.420802 Z M116.375997,367.896756 L128.525396,391.867332 L75.9320621,418.524071 L64.0624193,395.10545 C59.4264645,385.958784 62.1084808,377.562834 69.9935384,373.566321 C76.6169867,370.20925 83.2706661,372.386835 86.7335963,376.677174 C84.7634286,370.639167 88.1615782,363.069528 94.4696242,359.872318 C102.906636,355.59605 111.500252,358.276986 116.375997,367.896756 Z M87.4097475,384.659437 C84.4123629,378.745643 79.1866313,377.430016 74.3767462,379.867889 C69.6457117,382.265797 67.4594891,387.338146 70.4568737,393.251939 L78.4498991,409.022054 L95.4027729,400.429552 L87.4097475,384.659437 Z M111.180497,372.115785 C108.103182,366.044291 102.795361,364.17563 97.19697,367.013154 C92.3870849,369.451027 89.8076891,374.920868 93.0448644,381.307764 L101.237716,397.472132 L119.373348,388.280153 L111.180497,372.115785 Z M108.698538,266.47704 L109.148248,274.863025 L96.2747865,280.776499 L97.846407,310.083311 L111.278457,314.586113 L111.728167,322.972099 L51.5763325,302.383962 L51.0887514,293.291788 L108.698538,266.47704 Z M89.94443,283.240631 L58.8381588,297.479639 L91.2840945,308.22204 L89.94443,283.240631 Z M142.585001,199.18982 L139.414176,207.251924 L112.145532,212.58077 L107.809914,223.604463 L129.610502,232.178634 L126.925007,239.006742 L72.053339,217.425717 L80.7245756,195.37833 C84.6719296,185.341833 93.9359781,180.626111 104.054741,184.60582 C113.926706,188.488463 116.670791,197.452026 114.384584,205.197108 L142.585001,199.18982 Z M107.466657,206.845907 C110.022731,200.346864 107.442158,194.10738 101.27218,191.680728 C95.0199364,189.22172 89.0448068,192.096247 86.4887333,198.59529 L80.8265452,212.991905 L101.804469,221.242522 L107.466657,206.845907 Z M199.893514,146.720915 L193.853187,152.931078 L166.643921,147.306904 L158.384699,155.798351 L175.177485,172.131886 L170.061699,177.391513 L127.794574,136.280314 L144.313017,119.297421 C151.832606,111.566402 162.199355,110.797537 169.993742,118.378762 C177.598023,125.77508 176.66459,135.102682 171.562668,141.362349 L199.893514,146.720915 Z M164.545059,140.209349 C169.414301,135.203197 169.445723,128.451195 164.693048,123.828497 C159.877004,119.144162 153.255205,119.486022 148.385963,124.492173 L137.599666,135.581749 L153.758762,151.298924 L164.545059,140.209349 Z M255.706302,126.772111 L245.63309,103.969028 L253.066498,63.4783587 L245.222885,66.943258 L239.55784,99.4046437 L211.746018,81.7315908 L203.902404,85.1964901 L238.921544,106.933839 L248.994757,129.736922 L255.706302,126.772111 Z"></path>
        </g>
    </g>
</svg>