<svg width="676" height="500" viewBox="0 0 676 500" version="1.1" xmlns="http://www.w3.org/2000/svg" xmlns:xlink="http://www.w3.org/1999/xlink"><title>uE046-quote</title><desc>Created with Sketch.</desc><g id="Page-1" stroke="none" stroke-width="1" fill="none" fill-rule="evenodd"><path d="M332.861775,261.351461 C306.913479,198.908898 245.334476,155 173.5,155 C144.97878,155 118.074247,161.921861 94.37464,174.177345 C140.901628,29.0384891 340.6875,26.2226562 340.6875,26.2226562 C340.6875,26.2226562 327.126753,12.3128963 316.740234,0.08984375 C-12.1347394,0.08984375 -0.708265335,288.862344 1.26604738,317.837699 C1.08946033,321.036015 1,324.25756 1,327.5 C1,422.769119 78.2308807,500 173.5,500 C251.210115,500 316.91847,448.614358 338.500007,377.968133 C360.081544,448.614369 425.789893,500 503.5,500 C598.769119,500 676,422.769119 676,327.5 C676,232.230881 598.769119,155 503.5,155 C474.97878,155 448.074247,161.921861 424.37464,174.177345 C470.901628,29.0384891 670.6875,26.2226562 670.6875,26.2226562 C670.6875,26.2226562 657.126753,12.3128963 646.740234,0.08984375 C395.274253,0.08984375 342.765915,168.921026 332.861775,261.351461 Z" id="uE046-quote" fill="#000"/></g></svg>