<?xml version="1.0" encoding="UTF-8"?>
<svg width="500px" height="500px" viewBox="0 0 500 500" version="1.1" xmlns="http://www.w3.org/2000/svg" xmlns:xlink="http://www.w3.org/1999/xlink">
    <!-- Generator: Sketch 43.1 (39012) - http://www.bohemiancoding.com/sketch -->
    <title>uE046-compass1</title>
    <desc>Created with Sketch.</desc>
    <defs></defs>
    <g id="Page-1" stroke="none" stroke-width="1" fill="none" fill-rule="evenodd">
        <g id="uE046-compass1" fill-rule="nonzero" fill="#000000">
            <polygon id="Shape" points="122.8 122.8 214 187.7 212.3 212.3 187.7 214"></polygon>
            <polygon id="Shape" points="122.8 377.2 187.7 286 214 286 214 312.3"></polygon>
            <polygon id="Shape" points="377.2 375.4 286 312.3 284.2 282.5 312.3 286"></polygon>
            <polygon id="Shape" points="375.4 122.8 312.3 214 287.7 212.3 286 187.7"></polygon>
            <path d="M280.7,217.5 L438.6,240.3 C435.1,143.8 356.1,64.9 257.9,59.6 L280.7,217.5 Z M445.6,242.1 L450.9,242.1 C447.4,136.8 363.2,50.9 256.2,47.4 L258,54.4 C359.6,57.9 440.4,140.4 445.6,242.1 Z M445.6,257.9 C440.3,359.7 359.6,440.4 257.9,445.6 L256.1,450.9 C363.1,447.4 447.3,363.2 450.8,256.2 L445.6,257.9 Z M242.1,445.6 C140.3,440.3 57.9,359.6 54.4,257.9 L47.4,256.1 C50.9,363.1 136.9,447.3 242.1,450.8 L242.1,445.6 Z M54.4,242.1 C57.9,140.3 140.4,57.9 242.1,54.4 L242.1,47.4 C136.8,50.9 50.9,136.8 47.4,242.1 L54.4,242.1 Z M249.1,59.6 L249.1,59.6 L226.3,221 L249.1,243.8 L249.1,59.6 Z M240.4,59.6 C143.9,64.9 65,143.8 59.7,240.3 L217.6,217.5 L240.4,59.6 Z M59.6,249.1 L59.6,249.1 L243.8,249.1 L221,226.3 L59.6,249.1 Z M59.6,257.9 C64.9,356.1 143.8,435.1 240.3,438.6 L217.5,280.7 L59.6,257.9 Z M249.1,438.6 L249.1,438.6 L249.1,256.1 L226.3,278.9 L249.1,438.6 Z M257.9,438.6 C356.1,435.1 435.1,356.1 438.6,257.9 L280.7,280.7 L257.9,438.6 Z M438.6,249.1 L438.6,249.1 L279,226.3 L256.2,249.1 L438.6,249.1 Z M463.2,243.9 L500,249.2 L463.2,254.5 C461.4,368.5 368.5,461.5 254.4,463.3 L249.1,500.1 L243.8,463.3 C129.8,461.5 38.5,368.6 35,254.5 L0,249.1 L35.1,243.8 C38.6,129.8 129.8,38.5 243.9,35 L249.1,0 L254.4,35.1 C368.4,38.6 461.4,129.8 463.2,243.9 Z" id="Shape"></path>
        </g>
    </g>
</svg>