<svg width="155" height="214" viewBox="0 0 155 214" version="1.1" xmlns="http://www.w3.org/2000/svg" xmlns:xlink="http://www.w3.org/1999/xlink"><title>uE045-tickets</title><desc>Created with Sketch.</desc><g id="Page-1" stroke="none" stroke-width="1" fill="none" fill-rule="evenodd"><g id="uE045-tickets" fill="#000" fill-rule="nonzero"><path d="M77.3,186.2 L13,168.4 C3.9,165.9 -1.4,156.5 1.1,147.4 L38.2,13 C40.7,4 50.1,-1.4 59.2,1.1 L123.4,18.8 C132.5,21.3 137.8,30.7 135.3,39.8 L98.2,174.2 C95.8,183.3 86.4,188.7 77.3,186.2 Z M76.6795245,182.04017 C85.347019,184.415082 91.3002551,179.285273 94.5861877,170.640595 L129.922896,42.9653543 C132.304076,34.3206766 129.255975,25.3910094 120.58848,23.0160979 L59.4397827,6.20172467 C50.7722882,3.82681319 43.8190521,8.95662198 41.4378723,17.5063033 L6.10116389,145.181544 C3.71998408,153.826222 6.76808528,162.755889 15.4355798,165.130801 L76.6795245,182.04017 Z M17.51203,150.12362 L24.06043,125.47787 L29.18288,126.83891 L22.63448,151.48466 L17.51203,150.12362 Z M25.82633,152.37268 L32.37473,127.72693 L34.88763,128.39461 L28.33923,153.04036 L25.82633,152.37268 Z M30.65717,153.62445 L37.20557,128.9787 L44.55097,130.93038 L38.00257,155.57613 L30.65717,153.62445 Z M43.58382,157.05914 L50.13222,132.41339 L52.64512,133.08107 L46.09672,157.72682 L43.58382,157.05914 Z M47.72055,158.21407 L54.26895,133.56832 L56.78185,134.236 L50.23345,158.88175 L47.72055,158.21407 Z M52.12791,159.33738 L58.67631,134.69163 L63.79876,136.05267 L57.25036,160.69842 L52.12791,159.33738 Z M60.43464,161.56967 L66.906,137.21387 L69.4189,137.88155 L62.94754,162.23735 L60.43464,161.56967 Z M65.27315,162.83811 L71.82155,138.19236 L79.16695,140.14404 L72.61855,164.78979 L65.27315,162.83811 Z M78.1998,166.2729 L84.7482,141.62715 L87.2611,142.29483 L80.7127,166.94058 L78.1998,166.2729 Z M82.33653,167.42773 L88.88493,142.78198 L91.39783,143.44966 L84.84943,168.09541 L82.33653,167.42773 Z M21.55254,106.80966 L22.91358,101.68721 L33.25513,104.43497 L31.89409,109.55742 L21.55254,106.80966 Z M38.69692,111.34119 L40.05796,106.21874 L50.39951,108.9665 L49.03847,114.08895 L38.69692,111.34119 Z M55.58099,115.77174 L56.94203,110.64929 L67.28358,113.39705 L65.92254,118.5195 L55.58099,115.77174 Z M72.60304,120.37424 L73.96408,115.25179 L84.30563,117.99955 L82.94459,123.122 L72.60304,120.37424 Z M89.65077,124.88009 L91.01181,119.75764 L101.35336,122.5054 L99.99232,127.62785 L89.65077,124.88009 Z M107.1,36 C108.4,37.4 105.7,42.8 103.9,44.6 L90.2,58.3 L95,92.9 L91.1,96.8 L78.7,70.1 L67.2,81.5 L68.2,90.3 L63.6,94.9 L59.7,83.6 L48.4,79.7 L53,75.1 L61.8,76.1 L73.3,64.6 L46.5,51.9 L50.4,48 L84.7,52.6 L98.4,39 C100.1,37 105.8,34.7 107.1,36 Z M122.9,188.1 L121.9,191.7 L108.4,188 L107.1,192.9 L104,192 L107.6,178.7 L110.7,179.6 L109.4,184.4 L122.9,188.1 Z M127.2,172.5 L126.2,176 L109.6,171.4 L110.6,167.9 L127.2,172.5 Z M131.9,156.2 C131.2,158.7 129.8,160.6 127.8,161.9 C125.8,163.2 123.4,163.4 120.9,162.7 C118.4,162 116.5,160.6 115.4,158.5 C114.3,156.4 114,154 114.7,151.5 C115.6,148.4 117.5,146.5 120.7,145.7 L121.4,149.2 C120.6,149.4 119.9,149.8 119.2,150.3 C118.5,150.9 118.1,151.6 117.9,152.4 C117.5,153.9 117.7,155.3 118.4,156.6 C119.2,157.9 120.3,158.7 121.9,159.2 C123.5,159.6 124.9,159.5 126.2,158.8 C127.5,158.1 128.4,157 128.8,155.5 C129,154.7 129,153.9 128.7,153 C128.4,152.2 128,151.5 127.4,150.9 L129.7,148.3 C132.1,150.4 132.8,153.1 131.9,156.2 Z M139.4,127.9 L138.2,132.3 L130.1,135.5 L131.3,137.2 L136.4,138.6 L135.4,142.1 L118.8,137.5 L119.8,134 L127.2,136 L121.4,128.1 L122.6,123.7 L128.6,132.4 L139.4,127.9 Z M144.4,109.5 L141.2,121.3 L124.6,116.7 L127.8,104.9 L130.9,105.8 L128.6,114 L132.1,115 L134.3,106.9 L137.4,107.8 L135.2,115.9 L139,116.9 L141.3,108.7 L144.4,109.5 Z M148.6,94.3 L147.6,97.9 L134.1,94.2 L132.8,99.1 L129.7,98.2 L133.3,84.9 L136.4,85.8 L135.1,90.6 L148.6,94.3 Z M153.7,76.6 C152.9,79.6 151.4,81.7 149.1,83 L146.9,80.3 C148.8,79.3 150,77.7 150.6,75.6 C150.9,74.7 150.9,73.9 150.7,73.3 C150.5,72.7 150.1,72.3 149.6,72.2 C149.2,72.1 148.7,72.2 148.3,72.6 C147.9,73 147.5,73.5 147.2,74.2 C146.9,74.9 146.5,75.6 146,76.4 C145.5,77.2 145,77.9 144.5,78.5 C144,79.1 143.3,79.6 142.5,79.9 C141.7,80.2 140.8,80.2 139.8,79.9 C138.4,79.5 137.3,78.6 136.7,77.2 C136,75.8 136,74.1 136.5,72.2 C137.2,69.6 138.6,67.6 140.6,66.4 L142.7,69.1 C141.1,70.1 140.1,71.5 139.6,73.4 C139.4,74.1 139.4,74.7 139.6,75.2 C139.8,75.7 140.1,76 140.6,76.2 C141,76.3 141.4,76.2 141.8,75.8 C142.2,75.4 142.6,74.9 142.9,74.2 C143.2,73.5 143.6,72.8 144.1,72.1 C144.6,71.3 145.1,70.7 145.6,70 C146.1,69.4 146.8,68.9 147.6,68.6 C148.4,68.3 149.3,68.3 150.3,68.6 C151.9,69 153,70 153.7,71.4 C154.3,72.6 154.3,74.4 153.7,76.6 Z M31.2,202.5 C28.7,201.8 26.8,200.4 25.5,198.4 C24.2,196.3 24,194 24.7,191.5 C25.4,188.9 26.8,187.1 29,186 C31.1,184.9 33.5,184.7 36,185.4 C39,186.2 40.9,188.1 41.8,191 L38.4,191.8 C38.2,191.1 37.8,190.4 37.2,189.8 C36.6,189.2 35.9,188.8 35.1,188.6 C33.6,188.2 32.2,188.4 30.9,189.1 C29.6,189.9 28.8,191 28.3,192.6 C27.9,194.2 28,195.6 28.7,196.9 C29.4,198.2 30.5,199.1 32,199.5 C32.7,199.7 33.4,199.7 34.1,199.7 C34.8,199.6 35.4,199.5 35.9,199.2 L36.5,197.2 L32.1,196 L33,192.9 L40.9,195.1 L39.1,201.5 C36.7,202.9 34.1,203.3 31.2,202.5 Z M57.9,209.6 L46.1,206.3 L50.7,189.7 L62.5,193 L61.6,196.1 L53.4,193.8 L52.4,197.3 L60.4,199.5 L59.5,202.6 L51.5,200.4 L50.5,204.2 L58.7,206.5 L57.9,209.6 Z M73.1,213.8 L69.5,212.8 L73.2,199.3 L68.3,198 L69.2,194.9 L82.4,198.6 L81.5,201.7 L76.7,200.4 L73.1,213.8 Z"/></g></g></svg>