<svg width="658" height="500" viewBox="0 0 658 500" version="1.1" xmlns="http://www.w3.org/2000/svg" xmlns:xlink="http://www.w3.org/1999/xlink"><title>uE040-camera</title><desc>Created with Sketch.</desc><g id="Page-1" stroke="none" stroke-width="1" fill="none" fill-rule="evenodd"><path d="M85.7142663,0 C77.4921258,0.0999999714 71.6042703,7.85071204 71.4285561,14.2857102 L71.4285561,57.1428408 L64.285701,57.1428408 C28.9185647,57.1428408 1.50000051e-06,86.061404 1.50000051e-06,121.428537 L1.50000051e-06,435.714304 C1.50000051e-06,471.081437 28.9185647,500 64.285701,500 L592.856979,500 C628.22409,500 657.142653,471.081437 657.142653,435.714304 L657.142653,121.428537 C657.142653,86.061404 628.22409,57.1428408 592.856971,57.1428408 L228.571361,57.1428408 L228.571361,14.2857102 C228.570647,6.80571234 221.765649,0.000714285511 214.285651,8.12048609e-13 L85.7142592,8.12048609e-13 L85.7142663,0 Z M99.9999765,28.5714204 L199.999948,28.5714204 L199.999948,57.1428408 L99.9999765,57.1428408 L99.9999765,28.5714204 L99.9999765,28.5714204 Z M64.285701,85.7142612 L592.856979,85.7142612 C612.88983,85.7142612 628.571233,101.395685 628.571233,121.428537 L628.571233,435.714304 C628.571233,455.747156 612.88983,471.42858 592.856979,471.42858 L64.285701,471.42858 C44.2528496,471.42858 28.5714219,455.747156 28.5714219,435.714304 L28.5714219,121.428537 C28.5714219,101.395685 44.2528496,85.7142612 64.285701,85.7142612 L64.285701,85.7142612 Z M328.57134,121.428537 C241.953507,121.428537 171.428528,191.952802 171.428528,278.571492 C171.428528,365.190039 241.953507,435.714304 328.57134,435.714304 C415.190601,435.714304 485.714152,365.189324 485.714152,278.571492 C485.714152,191.953517 415.190601,121.428537 328.57134,121.428537 L328.57134,121.428537 Z M557.142703,121.428537 C537.587709,121.428537 521.428428,137.587104 521.428428,157.142812 C521.428428,176.698521 537.587709,192.857088 557.142703,192.857088 C576.697697,192.857088 592.856979,176.698521 592.856979,157.142812 C592.856979,137.587104 576.697697,121.428537 557.142703,121.428537 Z M328.57134,149.999957 C399.749177,149.999957 457.142732,207.394226 457.142732,278.571492 C457.142732,349.748614 399.749177,407.142884 328.57134,407.142884 C257.394932,407.142884 199.999948,349.748614 199.999948,278.571492 C199.999948,207.394226 257.394932,149.999957 328.57134,149.999957 L328.57134,149.999957 Z M557.142703,149.999957 C561.256273,149.999957 564.285558,153.029242 564.285558,157.142812 C564.285558,161.256382 561.256273,164.285667 557.142703,164.285667 C553.029133,164.285667 549.999848,161.256382 549.999848,157.142812 C549.999848,153.029242 553.029133,149.999957 557.142703,149.999957 Z M328.57134,192.857088 C281.40206,192.857088 242.857079,231.402077 242.857079,278.571492 C242.857079,325.740764 281.40206,364.285753 328.57134,364.285753 C375.740612,364.285753 414.285601,325.740764 414.285601,278.571492 C414.285601,231.402077 375.740612,192.857088 328.57134,192.857088 Z M328.57134,221.428508 C360.299188,221.428508 385.714181,246.843644 385.714181,278.571492 C385.714181,310.29934 360.299181,335.714333 328.57134,335.714333 C296.843485,335.714333 271.428499,310.29934 271.428499,278.571492 C271.428499,246.843644 296.843492,221.428508 328.57134,221.428508 Z" id="uE040-camera" fill="#000" fill-rule="nonzero"/></g></svg>