<?xml version="1.0" encoding="UTF-8"?>
<svg width="500px" height="500px" viewBox="0 0 500 500" version="1.1" xmlns="http://www.w3.org/2000/svg" xmlns:xlink="http://www.w3.org/1999/xlink">
    <!-- Generator: Sketch 43.1 (39012) - http://www.bohemiancoding.com/sketch -->
    <title>uE048-compass3</title>
    <desc>Created with Sketch.</desc>
    <defs></defs>
    <g id="Page-1" stroke="none" stroke-width="1" fill="none" fill-rule="evenodd">
        <g id="uE048-compass3" fill-rule="nonzero" fill="#000000">
            <path d="M492.9,243.3 C489,243.3 485.8,246.6 485.8,250.4 C485.8,254.3 489,257.5 492.9,257.5 C496.8,257.5 500,254.3 500,250.4 C500.1,246.5 496.8,243.3 492.9,243.3 Z" id="Shape"></path>
            <circle id="Oval" cx="473.8" cy="154.9" r="4.6"></circle>
            <path d="M473.8,340.4 C471.2,340.4 469.2,342.5 469.2,345 C469.2,347.6 471.3,349.6 473.8,349.6 C476.4,349.6 478.4,347.5 478.4,345 C478.5,342.6 476.4,340.4 473.8,340.4 Z" id="Shape"></path>
            <path d="M421.5,85.6 C425.4,85.6 428.6,82.4 428.6,78.5 C428.6,74.6 425.3,71.4 421.5,71.4 C417.6,71.4 414.4,74.7 414.4,78.5 C414.4,82.4 417.6,85.6 421.5,85.6 Z" id="Shape"></path>
            <path d="M421.5,415.2 C417.6,415.2 414.4,418.4 414.4,422.3 C414.4,426.2 417.6,429.4 421.5,429.4 C425.4,429.4 428.6,426.2 428.6,422.3 C428.7,418.4 425.4,415.2 421.5,415.2 Z" id="Shape"></path>
            <path d="M345.1,31.6 C347.7,31.6 349.7,29.5 349.7,27 C349.7,24.5 347.6,22.4 345.1,22.4 C342.5,22.4 340.5,24.5 340.5,27 C340.5,29.6 342.6,31.6 345.1,31.6 Z" id="Shape"></path>
            <circle id="Oval" cx="345.1" cy="473.8" r="4.6"></circle>
            <path d="M249.6,14.2 C253.5,14.2 256.7,11 256.7,7.1 C256.7,3.2 253.4,0 249.6,0 C245.7,0 242.5,3.2 242.5,7.1 C242.5,11 245.7,14.2 249.6,14.2 Z" id="Shape"></path>
            <path d="M249.6,485.8 C245.7,485.8 242.5,489.1 242.5,492.9 C242.5,496.8 245.7,500 249.6,500 C253.5,500 256.7,496.8 256.7,492.9 C256.8,489 253.5,485.8 249.6,485.8 Z" id="Shape"></path>
            <path d="M155,31.6 C157.6,31.6 159.6,29.5 159.6,27 C159.6,24.5 157.5,22.4 155,22.4 C152.5,22.4 150.4,24.5 150.4,27 C150.3,29.6 152.4,31.6 155,31.6 Z" id="Shape"></path>
            <circle id="Oval" cx="155" cy="473.8" r="4.6"></circle>
            <path d="M78.5,85.6 C82.4,85.6 85.6,82.4 85.6,78.5 C85.6,74.6 82.3,71.4 78.5,71.4 C74.6,71.4 71.4,74.7 71.4,78.5 C71.4,82.4 74.6,85.6 78.5,85.6 Z" id="Shape"></path>
            <path d="M78.5,415.2 C74.6,415.2 71.4,418.4 71.4,422.3 C71.4,426.2 74.6,429.4 78.5,429.4 C82.4,429.4 85.6,426.2 85.6,422.3 C85.7,418.4 82.4,415.2 78.5,415.2 Z" id="Shape"></path>
            <path d="M474.3,250.9 C474.3,250 473.7,249.3 472.8,249.2 L447.5,245.2 C446.1,192.5 424.5,145.2 390,110.6 C389.9,110.5 389.9,110.3 389.8,110.2 C389.7,110.1 389.5,110.1 389.5,110 C354.8,75.5 307.5,53.9 254.8,52.5 L250.8,27.2 C250.7,26.4 250,25.7 249.1,25.7 L249,25.7 C248.2,25.7 247.5,26.3 247.3,27.2 L243.4,52.4 C191.1,54 144,75.6 109.6,109.9 C109.5,110 109.3,110 109.2,110.1 C109.1,110.2 109.1,110.4 109,110.5 C74.5,145.1 52.9,192.4 51.5,245.1 L26.3,249.1 C25.4,249.2 24.8,249.9 24.8,250.8 C24.8,251.6 25.4,252.3 26.3,252.5 L51.5,256.4 C53.1,308.7 74.7,355.8 109,390.2 C109.1,390.3 109.1,390.5 109.2,390.6 C109.3,390.7 109.5,390.7 109.5,390.7 C144,425 191,446.6 243.3,448.2 L247.3,474.3 C247.4,475.1 248.1,475.8 249,475.8 L249.1,475.8 C249.9,475.8 250.6,475.2 250.8,474.3 L255,448.3 C307.6,446.8 354.9,425.2 389.5,390.7 C389.6,390.6 389.8,390.7 389.8,390.6 C389.9,390.5 389.9,390.3 390,390.2 C424.3,355.7 445.9,308.7 447.5,256.4 L472.7,252.4 C473.7,252.4 474.3,251.7 474.3,250.9 Z M243,55.9 L233.8,115.6 C207.4,118.6 182.9,129.2 162.4,146.3 L113.3,111.3 C146.9,78.3 192.5,57.6 243,55.9 Z M133.4,200.7 L177.1,208.3 L187.8,223.4 L168.8,226.4 L133.4,200.7 Z M163.9,227.2 L118.2,234.5 C119.7,222.7 122.6,211.3 127.1,200.5 L163.9,227.2 Z M128.8,196.3 C133.6,185.6 139.8,175.5 147.3,166.3 L174.2,204.2 L128.8,196.3 Z M123.9,127.3 L215.1,219.1 L191.6,222.8 L123.9,127.3 Z M165.4,148.4 C174.6,140.8 184.7,134.5 195.4,129.7 L203.5,175.6 L165.4,148.4 Z M207.5,178.4 L199.8,135 L225.2,170 L222.3,189 L207.5,178.4 Z M199.1,128.1 C210,123.6 221.4,120.6 233.2,119.1 L226,165.2 L199.1,128.1 Z M110.4,114.2 L145.3,163.5 C128.3,183.9 117.7,208.6 114.7,235.1 L55,244.6 C56.5,193.7 77.4,147.9 110.4,114.2 Z M55.1,257 L114.8,266.2 C117.8,292.6 128.4,317.1 145.5,337.6 L110.5,386.7 C77.5,353.1 56.7,307.5 55.1,257 Z M199.9,366.6 L207.7,322.5 L207.4,322.4 L222.3,311.7 L225.3,331.4 L199.9,366.6 Z M226.1,336.3 L233.2,381.6 C221.6,380.2 210.3,377.2 199.6,372.9 L226.1,336.3 Z M195.6,371.2 C184.8,366.4 174.6,360.1 165.4,352.4 L203.7,325.1 L195.6,371.2 Z M126.5,376 L218.1,284.4 L221.8,308.1 L126.5,376 Z M147.5,334.6 C139.8,325.4 133.6,315.2 128.7,304.5 L174,297.3 L147.5,334.6 Z M177,293.4 L133.4,300.3 L169.5,274.8 L188.2,277.7 L177,293.4 Z M127.1,300.5 C122.7,289.8 119.8,278.5 118.3,266.8 L164.6,274 L127.1,300.5 Z M113.3,389.6 L162.4,354.6 C182.7,371.6 207.3,382.1 233.7,385.3 L242.9,445 C192.4,443.2 146.9,422.5 113.3,389.6 Z M218.7,278.9 L49.1,252.6 L245,252.6 L218.7,278.9 Z M247.5,246.6 L221,220.1 L228.9,169.4 L229,169.3 L228.9,169.2 L247.4,49.9 L247.4,246.6 L247.5,246.6 Z M444.2,244.6 L384.6,235 C381.6,208.6 371,183.9 354,163.4 L388.9,114.1 C421.9,147.9 442.6,193.7 444.2,244.6 Z M299.3,135 L291.7,177.8 L276.6,188.5 L273.7,170.3 L299.3,135 Z M272.9,165.5 L265.5,119.1 C277.5,120.6 289.1,123.6 300,128.2 L272.9,165.5 Z M303.8,129.7 C314.4,134.5 324.4,140.7 333.6,148.2 L295.7,175 L303.8,129.7 Z M373.1,124.5 L281.1,216.5 L277.2,192.3 L373.1,124.5 Z M351.8,166.4 C359.3,175.6 365.6,185.7 370.4,196.4 L325,204.4 L351.8,166.4 Z M322.1,208.3 L365.6,200.7 L329.6,226.3 L311.4,223.4 L322.1,208.3 Z M372.1,200.3 C376.5,211.2 379.5,222.6 381,234.4 L334.6,227 L372.1,200.3 Z M385.9,111.2 L336.6,146.1 C316.2,129.1 291.5,118.5 265,115.5 L255.4,55.8 C306.3,57.4 352.1,78.1 385.9,111.2 Z M250.9,452.3 L250.9,255 L278,281.9 L250.9,452.3 Z M365.7,300.2 L322.2,293.3 L311,277.7 L329,274.9 L365.7,300.2 Z M334,274.1 L380.9,266.8 C379.4,278.5 376.5,289.8 372.1,300.5 L334,274.1 Z M370.4,304.5 C365.6,315.2 359.3,325.4 351.7,334.6 L325.1,297.3 L370.4,304.5 Z M375.4,373.8 L283,282 L307.2,278.3 L375.4,373.8 Z M333.6,352.7 C324.4,360.2 314.3,366.5 303.6,371.2 L295.5,325.7 L333.6,352.7 Z M291.6,322.8 L299.3,366.6 L273.6,331.2 L276.6,312.3 L291.6,322.8 Z M299.6,372.9 C288.8,377.3 277.4,380.3 265.6,381.7 L272.9,336 L299.6,372.9 Z M255.6,444.9 L265.1,385.3 C291.5,382.3 316.2,371.7 336.6,354.7 L385.9,389.6 C352.1,422.6 306.4,443.4 255.6,444.9 Z M388.8,386.6 L353.8,337.5 C370.8,317.1 381.4,292.5 384.5,266.1 L444.1,256.9 C442.4,307.5 421.7,353.1 388.8,386.6 Z M253.4,249.1 L280.5,221.9 L450.8,249.1 L253.4,249.1 Z" id="Shape"></path>
            <ellipse id="Oval" cx="26.2" cy="154.9" rx="4.6" ry="4.6"></ellipse>
            <path d="M26.2,340.4 C23.6,340.4 21.6,342.5 21.6,345 C21.6,347.6 23.7,349.6 26.2,349.6 C28.7,349.6 30.8,347.5 30.8,345 C30.9,342.6 28.8,340.4 26.2,340.4 Z" id="Shape"></path>
            <path d="M7.1,243.3 C3.2,243.3 0,246.6 0,250.4 C0,254.3 3.2,257.5 7.1,257.5 C11,257.5 14.2,254.3 14.2,250.4 C14.3,246.5 11,243.3 7.1,243.3 Z" id="Shape"></path>
        </g>
    </g>
</svg>