<svg width="500" height="500" viewBox="0 0 500 500" version="1.1" xmlns="http://www.w3.org/2000/svg" xmlns:xlink="http://www.w3.org/1999/xlink"><title>uE047-compass</title><desc>Created with Sketch.</desc><g id="Page-1" stroke="none" stroke-width="1" fill="none" fill-rule="evenodd"><g id="uE047-compass" fill-rule="nonzero" fill="#000"><path d="M500,250 L326.7,211.8 L394.9,105 L288.1,173.2 L250,0 L211.8,173.3 L105,105.1 L173.2,211.9 L0,250 L173.3,288.2 L105.1,395 L211.9,326.8 L250,500 L288.2,326.7 L395,394.9 L326.8,288.1 L500,250 L500,250 Z M359.7,140.3 L359.7,140.3 L315.6,209.4 L295.1,204.9 L359.7,140.3 L359.7,140.3 Z M140.3,140.3 L209.4,184.4 L204.9,204.8 L140.3,140.3 L140.3,140.3 Z M140.3,359.7 L184.4,290.6 L204.8,295.1 L140.3,359.7 L140.3,359.7 Z M286.1,286.1 L286.1,286.1 L250,250 L250,450.1 L213.9,286.1 L250,250 L49.9,250 L213.9,213.9 L250,250 L250,49.9 L286.1,213.9 L250,250 L450.1,250 L286.1,286.1 Z M359.7,359.7 L290.6,315.6 L295.1,295.1 L359.7,359.7 L359.7,359.7 Z" id="Shape"/></g></g></svg>