<svg width="500" height="500" viewBox="0 0 500 500" version="1.1" xmlns="http://www.w3.org/2000/svg" xmlns:xlink="http://www.w3.org/1999/xlink"><title>uE044-share</title><desc>Created with Sketch.</desc><g id="Page-1" stroke="none" stroke-width="1" fill="none" fill-rule="evenodd"><path d="M421.875,343.75 C399.824219,343.75 379.920898,352.899414 365.716797,367.592773 L155.265625,262.367188 C155.907227,258.337891 156.25,254.209961 156.25,250 C156.25,245.790039 155.907227,241.662109 155.265625,237.633789 L365.716797,132.408203 C379.920898,147.100586 399.824219,156.25 421.875,156.25 C465.023437,156.25 500,121.272461 500,78.125 C500,34.9775391 465.023438,0 421.875,0 C378.726562,0 343.75,34.9775391 343.75,78.125 C343.75,82.3349609 344.09375,86.4628906 344.734375,90.4912109 L134.283203,195.717773 C120.078125,181.025391 100.175781,171.875 78.125,171.875 C34.9775391,171.875 0,206.853516 0,250 C0,293.148437 34.9775391,328.125 78.125,328.125 C100.175781,328.125 120.078125,318.975586 134.283203,304.283203 L344.734375,409.508789 C344.09375,413.537109 343.75,417.665039 343.75,421.875 C343.75,465.023437 378.726563,500 421.875,500 C465.023437,500 500,465.023437 500,421.875 C500,378.728516 465.023438,343.75 421.875,343.75 Z" id="uE044-share" fill="#000" fill-rule="nonzero"/></g></svg>