<svg version="1.1" id="Layer_1" xmlns="http://www.w3.org/2000/svg" xmlns:xlink="http://www.w3.org/1999/xlink" x="0" y="0" viewBox="0 0 133.9 133.9" xml:space="preserve" enable-background="new 0 0 133.9 133.9"><g><g><g><path d="M31.9,96.1l-7.3,0.7l-0.1-1c2-1.9,3.4-3.3,4.2-4.3s1.2-1.9,1.1-2.7c-0.1-0.6-0.3-1.1-0.8-1.4s-1-0.4-1.6-0.3 c-1.2,0.1-2.1,0.6-2.8,1.6L23.7,88c0.4-0.6,0.8-1,1.5-1.4c0.6-0.3,1.3-0.6,2.1-0.6c1-0.1,1.8,0.1,2.6,0.6 c0.8,0.5,1.2,1.2,1.3,2.2c0.1,1-0.2,2-1,3s-1.9,2.3-3.5,3.8l5.2-0.5L31.9,96.1z"/><path d="M37.4,95.8c-1.2,0.1-2.2-0.2-3.1-1l0.6-1c0.7,0.6,1.5,0.9,2.4,0.8c0.7-0.1,1.2-0.3,1.7-0.8c0.4-0.5,0.7-1,0.8-1.6 s0.2-1.3,0.1-2c0-0.2,0-0.3-0.1-0.4c-0.2,0.4-0.6,0.9-1.1,1.2c-0.5,0.4-1.1,0.6-1.7,0.7c-1,0.1-1.9-0.1-2.6-0.6 c-0.7-0.5-1.1-1.3-1.2-2.4c-0.1-0.9,0.2-1.8,0.8-2.5s1.5-1.1,2.6-1.3c0.7-0.1,1.3,0,1.9,0.3c0.6,0.2,1,0.6,1.4,1.1s0.7,1,0.9,1.6 s0.4,1.3,0.4,2c0.1,1,0,1.9-0.2,2.7s-0.6,1.5-1.3,2.1C39.1,95.4,38.4,95.7,37.4,95.8z M37.2,90.6c0.5,0,1-0.2,1.5-0.6 c0.5-0.3,0.8-0.7,1-1.2c-0.1-0.3-0.2-0.7-0.3-1s-0.3-0.6-0.6-0.9c-0.2-0.3-0.5-0.5-0.9-0.6s-0.8-0.2-1.2-0.2 c-0.8,0.1-1.3,0.4-1.7,0.8c-0.4,0.5-0.6,1-0.5,1.6c0.1,0.7,0.3,1.3,0.8,1.6C35.9,90.6,36.5,90.7,37.2,90.6z"/><path d="M55.4,94.1c-1.7,0.2-3.1-0.3-4.2-1.3l0.7-1.1c1,0.9,2.1,1.3,3.5,1.2c0.9-0.1,1.5-0.3,1.8-0.7c0.4-0.4,0.5-0.8,0.5-1.3 s-0.3-0.9-0.8-1.1s-1-0.4-1.6-0.5S54,89.1,53.4,89c-0.6-0.1-1.2-0.4-1.6-0.8s-0.7-0.9-0.8-1.6c-0.1-0.9,0.2-1.6,0.8-2.2 s1.5-1,2.5-1.1c1.6-0.1,2.8,0.2,3.9,1.1l-0.7,1c-0.8-0.8-1.9-1.1-3.2-1c-0.6,0.1-1.1,0.3-1.5,0.6c-0.4,0.3-0.5,0.8-0.5,1.2 c0,0.4,0.2,0.6,0.6,0.9c0.3,0.2,0.7,0.3,1.2,0.4s1,0.2,1.5,0.3c0.6,0.1,1.1,0.3,1.6,0.4s0.9,0.4,1.2,0.8c0.4,0.4,0.6,0.9,0.6,1.5 c0.1,0.8-0.2,1.6-0.8,2.2C57.7,93.6,56.7,94,55.4,94.1z"/><path d="M68.2,92.7l-6.9,0.7l-1-10.4l6.9-0.7l0.1,1.2L61.7,84l0.3,3.3l5.5-0.5l0.1,1.2l-5.5,0.5l0.3,3.6l5.6-0.5L68.2,92.7z"/><path d="M71.6,92.4l-1.3,0.1l-1-10.4l4.3-0.4c1-0.1,1.9,0.1,2.5,0.7c0.7,0.5,1,1.3,1.1,2.1c0.1,0.9-0.1,1.7-0.7,2.3 c-0.5,0.7-1.3,1-2.3,1.1l-2.9,0.3L71.6,92.4z M73.9,86.9c0.6-0.1,1.1-0.3,1.5-0.7c0.4-0.4,0.5-0.9,0.5-1.5 c-0.1-0.6-0.3-1-0.7-1.4c-0.4-0.3-1-0.5-1.6-0.4l-2.8,0.3l0.4,4L73.9,86.9z"/><path d="M94.7,90.2l-7.3,0.7l-0.1-1c2-1.9,3.4-3.3,4.2-4.3c0.8-1,1.2-1.9,1.1-2.7c-0.1-0.6-0.3-1.1-0.8-1.4s-1-0.4-1.6-0.3 c-1.2,0.1-2.1,0.6-2.8,1.6L86.6,82c0.4-0.6,0.8-1,1.5-1.4c0.6-0.3,1.3-0.6,2.1-0.6c1-0.1,1.8,0.1,2.6,0.6 c0.8,0.5,1.2,1.2,1.3,2.2c0.1,1-0.2,2-1,3s-1.9,2.3-3.5,3.8l5.2-0.5L94.7,90.2z"/><path d="M100.8,89.8c-0.7,0.1-1.3,0-1.9-0.3s-1-0.6-1.4-1.1s-0.7-1-0.9-1.6c-0.2-0.6-0.3-1.2-0.4-1.9c-0.1-0.7,0-1.3,0-1.9 c0.1-0.6,0.3-1.2,0.5-1.8c0.3-0.6,0.6-1,1.2-1.4c0.5-0.4,1.1-0.6,1.8-0.6c0.7-0.1,1.3,0,1.9,0.3s1,0.6,1.4,1.1s0.6,1,0.9,1.6 s0.3,1.2,0.4,1.9c0.1,0.7,0,1.3,0,1.9c-0.1,0.6-0.3,1.2-0.5,1.8s-0.6,1-1.2,1.4C102.1,89.5,101.5,89.8,100.8,89.8z M99,88.2 c0.5,0.4,1,0.6,1.6,0.5s1.1-0.3,1.5-0.8s0.6-1,0.7-1.6s0.1-1.3,0-2s-0.2-1.4-0.4-2c-0.2-0.6-0.6-1.1-1-1.5 c-0.5-0.4-1-0.5-1.6-0.5c-0.6,0.1-1.1,0.3-1.5,0.8s-0.6,1-0.7,1.6s-0.1,1.3,0,2s0.2,1.4,0.4,2C98.2,87.3,98.6,87.8,99,88.2z"/><path d="M109.8,88.8l-1.3,0.1l-0.8-8.7l-1.5,1.9l-0.9-0.7l2.4-2.9l1.2-0.1L109.8,88.8z"/><path d="M114.4,88.3l-1.5,0.1l3.4-9.6l-5.7,0.5l-0.1-1.2l7.2-0.7l0.1,0.9L114.4,88.3z"/></g></g><g><path d="M16.5,62.2l4.9-0.5l0.2,1.9l-1.2,0.1L22,80.2l-2.6,0.2L17.8,64l-1.2,0.1L16.5,62.2z"/><path d="M30.6,60.9l2.6-0.2l1.6,10.1H35l-0.2-10.3l2.1-0.2l1.9,10.1H39l-0.6-10.2l2.4-0.2l0.4,18.5l-2.5,0.2l-1.9-10.5h-0.2 l0.1,10.7L34,79.1L30.6,60.9z"/><path d="M50.6,59l2.6-0.2l1.7,18.4l-2.6,0.2L50.6,59z"/><path d="M63.3,57.8l4.9-0.5l0.2,1.9l-1.2,0.1l1.6,16.5L66.2,76l-1.6-16.5l-1.2,0.1L63.3,57.8z"/><path d="M78.3,56.4l4.9-0.5l0.2,1.9l-1.2,0.1l1.6,16.5l-2.6,0.2l-1.6-16.5l-1.2,0.1L78.3,56.4z"/><path d="M93.4,54.9l4.1-0.4l0.2,1.9l-1.5,0.1l0.5,5.4l1.5-0.1l0.2,1.9L96.8,64l0.7,7.1L99,71l0.2,1.9l-4.1,0.4L93.4,54.9z"/><path d="M108.2,53.5l3.4-0.3c1-0.1,1.7,0,2.1,0.4s0.7,1.4,0.8,3l0.3,2.8c0.1,0.8,0,1.4-0.1,1.8c-0.1,0.4-0.4,0.8-0.8,1.1 c0.4,0.2,0.8,0.4,1,0.8c0.2,0.3,0.3,0.9,0.4,1.8l0.6,6.5l-2.6,0.2l-0.7-7.2c0-0.2-0.1-0.4-0.2-0.5s-0.3-0.1-0.5-0.1h-0.2l0.7,7.9 l-2.6,0.2L108.2,53.5z M110.9,55.2l0.6,6.4h0.1h0.1c0.2,0,0.4-0.1,0.5-0.2c0.1-0.1,0.1-0.3,0.1-0.5l-0.4-4.8 c0-0.4-0.1-0.7-0.2-0.8s-0.3-0.1-0.6-0.1L110.9,55.2z"/></g><g><path d="M60.6,0.3C23.8,3.8-3.2,36.5,0.3,73.3s36.2,63.8,73,60.3s63.8-36.2,60.3-73S97.4-3.2,60.6,0.3z M73,130.5 C37.9,133.8,6.8,108.1,3.4,73C0.1,37.9,25.8,6.8,60.9,3.4c35.1-3.3,66.2,22.4,69.6,57.5C133.8,96,108.1,127.1,73,130.5z"/><path d="M61.1,6C27.5,9.2,2.8,39.1,6,72.7s33.1,58.3,66.7,55.1c33.6-3.2,58.3-33.1,55.1-66.7C124.7,27.5,94.8,2.8,61.1,6z M72.6,126.3c-32.8,3.1-61.9-20.9-65-53.7s20.9-61.9,53.7-65s61.9,20.9,65,53.7C129.4,94.1,105.4,123.2,72.6,126.3z"/></g><g><path d="M41.7,101.9c0.3-0.1,0.6-0.1,0.9-0.2c0.3,0,0.6-0.1,0.8-0.1c0.7-0.1,1.3,0,1.8,0.1c0.5,0.2,0.9,0.4,1.3,0.8 c0.3,0.3,0.6,0.8,0.8,1.3s0.3,1.1,0.4,1.7c0.1,0.6,0,1.1,0,1.6c-0.1,0.5-0.2,1-0.5,1.4s-0.6,0.8-1.1,1.1c-0.5,0.3-1.1,0.5-1.8,0.5 c-0.1,0-0.2,0-0.4,0s-0.3,0-0.5,0s-0.3,0-0.5,0s-0.3,0-0.4,0L41.7,101.9z M43.6,102.5c-0.1,0-0.3,0-0.4,0.1 c-0.2,0-0.3,0.1-0.4,0.1l0.6,6.7c0,0,0.1,0,0.2,0c0.1,0,0.2,0,0.2,0c0.1,0,0.2,0,0.2,0c0.1,0,0.1,0,0.2,0c0.6-0.1,1-0.2,1.4-0.4 c0.3-0.2,0.6-0.5,0.8-0.8s0.3-0.7,0.3-1.1s0-0.9,0-1.3s-0.1-0.8-0.2-1.2c-0.1-0.4-0.3-0.7-0.5-1s-0.5-0.5-0.9-0.7 C44.7,102.5,44.2,102.5,43.6,102.5z"/><path d="M49.2,101.2l4.9-0.5l0.1,0.9l-3.9,0.4l0.3,2.7l3.6-0.3l0.1,0.9l-3.6,0.3l0.3,3l4-0.4l0.1,0.9l-4.9,0.5L49.2,101.2z"/><path d="M56.3,100.6c0.3-0.1,0.6-0.2,1-0.2c0.3-0.1,0.7-0.1,1-0.1c0.4,0,0.7,0,1.1,0c0.4,0,0.7,0.1,1.1,0.3 c0.3,0.2,0.6,0.4,0.8,0.7c0.2,0.3,0.4,0.7,0.4,1.2s0,0.9-0.2,1.3c-0.1,0.4-0.4,0.7-0.6,0.9c-0.3,0.2-0.6,0.4-1,0.6 c-0.4,0.1-0.8,0.2-1.2,0.3c0,0-0.1,0-0.2,0c-0.1,0-0.2,0-0.3,0s-0.2,0-0.3,0s-0.2,0-0.2,0l0.3,3.2l-1,0.1L56.3,100.6z M58.4,101.1 c-0.2,0-0.4,0-0.6,0.1c-0.2,0-0.3,0.1-0.4,0.1l0.3,3.4c0,0,0.1,0,0.2,0c0.1,0,0.2,0,0.3,0s0.2,0,0.3,0s0.2,0,0.2,0 c0.3,0,0.5-0.1,0.8-0.2s0.5-0.2,0.7-0.3c0.2-0.2,0.4-0.4,0.5-0.6c0.1-0.3,0.1-0.6,0.1-1c0-0.3-0.1-0.6-0.3-0.8 c-0.1-0.2-0.3-0.4-0.5-0.5s-0.5-0.2-0.7-0.2C58.9,101.1,58.6,101.1,58.4,101.1z"/><path d="M67.9,105.5l-3.2,0.3l-0.5,2.4l-1,0.1l2-8.6l1.2-0.1l3.6,8.1l-1,0.1L67.9,105.5z M64.9,104.9l2.6-0.2l-1.6-3.8h-0.1 L64.9,104.9z"/><path d="M70.5,99.3c0.3-0.1,0.6-0.2,1-0.2c0.4-0.1,0.7-0.1,1.1-0.2c0.4,0,0.7,0,1,0s0.6,0.2,0.9,0.3c0.3,0.2,0.5,0.4,0.7,0.7 c0.2,0.3,0.3,0.6,0.3,1c0,0.3,0,0.6-0.1,0.9s-0.2,0.5-0.3,0.7c-0.1,0.2-0.3,0.4-0.4,0.5c-0.2,0.1-0.3,0.2-0.4,0.3l2.6,3.7 l-1.2,0.1l-2.3-3.5l-1.5,0.1l0.3,3.7l-1,0.1L70.5,99.3z M72.7,99.7c-0.1,0-0.2,0-0.3,0c-0.1,0-0.2,0-0.3,0c-0.1,0-0.2,0-0.3,0.1 c-0.1,0-0.2,0-0.2,0.1l0.3,3.1l0.9-0.1c0.5-0.1,1-0.2,1.3-0.5s0.5-0.7,0.4-1.3c0-0.4-0.2-0.8-0.5-1C73.7,99.8,73.3,99.7,72.7,99.7 z"/><path d="M76.9,98.6l6.2-0.6l0.2,2.2l-0.9,0.1L82.3,99l-1.7,0.2l0.6,6.6l1.3-0.1l0.1,0.9l-3.6,0.3l-0.1-0.9l1.3-0.1l-0.6-6.6 l-1.7,0.2l0.1,1.3l-0.9,0.1L76.9,98.6z"/><path d="M84.9,97.8l4.9-0.5l0.1,0.9L86,98.6l0.3,2.7l3.6-0.3l0.1,0.9l-3.6,0.3l0.3,3l4-0.4l0.1,0.9l-4.9,0.5L84.9,97.8z"/><path d="M91.7,97.2c0.3-0.1,0.6-0.1,0.9-0.2c0.3,0,0.6-0.1,0.8-0.1c0.7-0.1,1.3,0,1.8,0.1c0.5,0.2,0.9,0.4,1.3,0.8 c0.3,0.3,0.6,0.8,0.8,1.3c0.2,0.5,0.3,1.1,0.4,1.7s0,1.1,0,1.6c-0.1,0.5-0.2,1-0.5,1.4s-0.6,0.8-1.1,1.1c-0.5,0.3-1.1,0.5-1.8,0.5 c-0.1,0-0.2,0-0.4,0c-0.2,0-0.3,0-0.5,0s-0.3,0-0.5,0s-0.3,0-0.4,0L91.7,97.2z M93.6,97.8c-0.1,0-0.3,0-0.4,0.1 c-0.2,0-0.3,0.1-0.4,0.1l0.6,6.7c0,0,0.1,0,0.2,0s0.2,0,0.2,0c0.1,0,0.2,0,0.2,0c0.1,0,0.1,0,0.2,0c0.6-0.1,1-0.2,1.4-0.4 c0.3-0.2,0.6-0.5,0.8-0.8c0.2-0.3,0.3-0.7,0.3-1.1s0-0.9,0-1.3s-0.1-0.8-0.2-1.2c-0.1-0.4-0.3-0.7-0.5-1s-0.5-0.5-0.9-0.7 C94.7,97.8,94.2,97.7,93.6,97.8z"/></g><g><path d="M58.2,118c-0.1-0.7-0.1-1.3,0-1.8s0.2-1,0.4-1.4s0.5-0.7,0.8-0.9c0.3-0.2,0.8-0.4,1.3-0.4c0.5-0.1,1,0,1.4,0.2 s0.7,0.4,1,0.7c0.3,0.3,0.5,0.8,0.6,1.3c0.2,0.5,0.3,1.1,0.3,1.8c0.1,0.7,0.1,1.3,0,1.8s-0.2,1-0.4,1.4s-0.5,0.7-0.8,0.9 c-0.3,0.2-0.8,0.4-1.3,0.4c-0.5,0.1-1,0-1.4-0.2s-0.7-0.4-1-0.8s-0.5-0.8-0.6-1.3C58.3,119.2,58.2,118.6,58.2,118z M59.2,117.9 c0,0.2,0,0.4,0.1,0.6c0,0.2,0.1,0.4,0.1,0.5l3.2-3.5c-0.2-0.4-0.4-0.7-0.7-1c-0.3-0.2-0.7-0.3-1.1-0.3c-0.7,0.1-1.2,0.4-1.4,1 C59.1,115.8,59.1,116.7,59.2,117.9z M63,117.5c0-0.4-0.1-0.8-0.2-1.2l-3.2,3.6c0.2,0.4,0.4,0.8,0.7,1s0.7,0.3,1.1,0.3 c0.7-0.1,1.2-0.4,1.4-1C63.1,119.6,63.1,118.7,63,117.5z"/><path d="M66.5,120.5l1.9-0.2l-0.6-6.3l-1.8,1.5l-0.5-0.6l2.4-2.1l0.7-0.1l0.7,7.5l1.8-0.2l0.1,0.9l-4.6,0.4L66.5,120.5z"/><path d="M77.6,114.1c0.1,0.7-0.2,1.6-0.8,2.5c-0.6,1-1.5,2-2.6,3.2l4.2-0.4l0.1,0.9l-5.3,0.5l-0.1-0.9c0.1-0.2,0.3-0.4,0.6-0.6 c0.2-0.3,0.5-0.5,0.8-0.8s0.6-0.6,0.8-1c0.3-0.4,0.5-0.7,0.8-1.1c0.2-0.4,0.4-0.7,0.5-1.1s0.2-0.7,0.1-1c0-0.5-0.2-0.8-0.5-1.1 c-0.3-0.3-0.7-0.4-1.2-0.3c-0.4,0-0.8,0.1-1.1,0.2c-0.3,0.1-0.5,0.3-0.8,0.5l-0.5-0.6c0.3-0.3,0.7-0.5,1.1-0.7s0.8-0.3,1.3-0.3 c0.7-0.1,1.3,0.1,1.8,0.4C77.2,112.9,77.5,113.4,77.6,114.1z"/><path d="M82.2,119.2c0.3,0,0.6-0.1,0.9-0.2s0.5-0.2,0.7-0.4c0.2-0.2,0.3-0.4,0.4-0.6s0.1-0.5,0.1-0.7c-0.1-0.5-0.3-0.9-0.7-1.1 c-0.4-0.2-0.9-0.3-1.6-0.2l-0.8,0.1l-0.1-0.6l2.1-3.2l-3.6,0.3l-0.1-0.9l4.7-0.4l0.1,0.9l-2.1,3h0.2c0.4,0,0.7,0,1,0.1 s0.6,0.2,0.8,0.4c0.2,0.2,0.4,0.4,0.6,0.6c0.1,0.3,0.2,0.6,0.3,0.9c0,0.4,0,0.8-0.1,1.2c-0.1,0.3-0.3,0.7-0.6,0.9 c-0.3,0.3-0.6,0.5-1,0.6c-0.4,0.2-0.8,0.2-1.2,0.3c-0.4,0-0.8,0-1.1,0c-0.3,0-0.6-0.1-0.8-0.1l0.2-0.9c0.2,0.1,0.5,0.1,0.7,0.2 C81.5,119.2,81.9,119.2,82.2,119.2z"/></g><polygon points="12.5,67.3 13.8,70.3 17,70 14.6,72.1 15.9,75.1 13.1,73.4 10.7,75.5 11.4,72.4 8.6,70.8 11.8,70.5"/><polygon points="119.9,57.1 121.2,60.1 124.4,59.8 121.9,61.9 123.2,64.8 120.5,63.2 118.1,65.3 118.8,62.2 116,60.5 119.2,60.3"/><g><path d="M88.2,42.3c-0.1-0.6-0.1-1.1,0-1.5c0.1-0.5,0.2-0.9,0.3-1.2c0.2-0.3,0.4-0.6,0.7-0.8c0.3-0.2,0.6-0.3,1.1-0.4 c0.4,0,0.8,0,1.2,0.1c0.3,0.1,0.6,0.3,0.8,0.6c0.2,0.3,0.4,0.7,0.5,1.1c0.1,0.4,0.2,1,0.3,1.5c0.1,0.6,0.1,1.1,0,1.5 c-0.1,0.5-0.2,0.9-0.3,1.2c-0.2,0.3-0.4,0.6-0.7,0.8s-0.6,0.3-1.1,0.3c-0.4,0-0.8,0-1.2-0.2c-0.3-0.1-0.6-0.4-0.8-0.7 c-0.2-0.3-0.4-0.7-0.5-1.1C88.3,43.3,88.2,42.8,88.2,42.3z M89,42.2c0,0.2,0,0.3,0.1,0.5c0,0.2,0.1,0.3,0.1,0.4l2.7-3 c-0.1-0.4-0.3-0.6-0.6-0.8c-0.2-0.2-0.6-0.3-0.9-0.2c-0.6,0.1-1,0.3-1.2,0.9C89,40.4,88.9,41.2,89,42.2z M92.3,41.9 c0-0.4-0.1-0.7-0.2-1l-2.7,3c0.2,0.4,0.3,0.7,0.6,0.9c0.2,0.2,0.6,0.3,0.9,0.3c0.6-0.1,1-0.3,1.2-0.9S92.3,42.9,92.3,41.9z"/><path d="M95.2,44.4l1.6-0.2L96.2,39l-1.5,1.3l-0.4-0.5l2.1-1.8l0.6-0.1l0.6,6.3l1.5-0.1l0.1,0.7l-3.9,0.4L95.2,44.4z"/><path d="M104.5,38.9c0.1,0.6-0.2,1.3-0.7,2.1s-1.2,1.7-2.2,2.7l3.5-0.3l0.1,0.7l-4.5,0.4l-0.1-0.7c0.1-0.1,0.3-0.3,0.5-0.5 s0.4-0.5,0.7-0.7c0.2-0.3,0.5-0.5,0.7-0.8s0.5-0.6,0.6-0.9c0.2-0.3,0.3-0.6,0.4-0.9c0.1-0.3,0.1-0.6,0.1-0.9 c0-0.4-0.2-0.7-0.4-0.9c-0.2-0.2-0.6-0.3-1-0.3s-0.7,0.1-0.9,0.2c-0.2,0.1-0.5,0.2-0.6,0.4l-0.4-0.5c0.3-0.2,0.6-0.4,0.9-0.6 c0.3-0.1,0.7-0.2,1.1-0.3c0.6-0.1,1.1,0.1,1.5,0.4C104.2,37.9,104.5,38.4,104.5,38.9z"/><path d="M108.4,43.3c0.3,0,0.5-0.1,0.7-0.2c0.2-0.1,0.4-0.2,0.6-0.4c0.2-0.1,0.3-0.3,0.3-0.5c0.1-0.2,0.1-0.4,0.1-0.6 c0-0.5-0.2-0.8-0.6-0.9c-0.3-0.2-0.8-0.2-1.3-0.2l-0.6,0.1v-0.5l1.7-2.7l-3,0.3l-0.1-0.7l4-0.4l0.1,0.7l-1.8,2.5h0.2 c0.3,0,0.6,0,0.9,0.1s0.5,0.2,0.7,0.3s0.4,0.3,0.5,0.5s0.2,0.5,0.2,0.8c0,0.4,0,0.7-0.1,1s-0.3,0.5-0.5,0.8 c-0.2,0.2-0.5,0.4-0.8,0.5s-0.7,0.2-1,0.2s-0.6,0-0.9,0s-0.5-0.1-0.7-0.1l0.1-0.7c0.2,0.1,0.4,0.1,0.6,0.1 C107.9,43.3,108.1,43.3,108.4,43.3z"/></g><g><path d="M22.3,50.1l-2.7,0.3l-0.5,2l-0.8,0.1l1.7-7.2l1-0.1l3,6.8l-0.9,0L22.3,50.1z M19.8,49.6l2.2-0.2l-1.3-3.2h-0.1L19.8,49.6z"/><path d="M28.9,46c0,0.2,0,0.3,0,0.5s-0.1,0.3-0.2,0.5s-0.2,0.3-0.4,0.4c-0.2,0.1-0.3,0.2-0.6,0.3l0,0c0.2,0,0.4,0.1,0.6,0.1 c0.2,0.1,0.4,0.2,0.5,0.3c0.2,0.1,0.3,0.3,0.4,0.5s0.2,0.4,0.2,0.7c0,0.4,0,0.7-0.1,1S29,50.8,28.8,51s-0.5,0.3-0.8,0.5 c-0.3,0.1-0.6,0.2-0.9,0.2c-0.1,0-0.2,0-0.4,0c-0.2,0-0.3,0-0.5,0s-0.3,0-0.5,0s-0.3,0-0.4,0l-0.7-6.9c0.2-0.1,0.5-0.1,0.9-0.2 c0.3-0.1,0.7-0.1,1.1-0.1c0.3,0,0.5,0,0.8,0s0.5,0.1,0.8,0.2c0.2,0.1,0.4,0.3,0.6,0.5C28.7,45.4,28.8,45.6,28.9,46z M26.2,47.7 c0.1,0,0.2,0,0.4,0c0.2,0,0.3,0,0.4-0.1c0.2-0.1,0.3-0.1,0.4-0.2c0.1-0.1,0.3-0.2,0.4-0.3s0.2-0.2,0.2-0.4 c0.1-0.1,0.1-0.3,0.1-0.5s-0.1-0.4-0.2-0.5s-0.2-0.2-0.4-0.3c-0.1-0.1-0.3-0.1-0.5-0.1s-0.4,0-0.6,0s-0.4,0-0.6,0.1 c-0.2,0-0.3,0.1-0.4,0.1l0.2,2.4L26.2,47.7z M27,51c0.2,0,0.4-0.1,0.6-0.1c0.2-0.1,0.4-0.2,0.5-0.3s0.3-0.3,0.3-0.4 c0.1-0.2,0.1-0.4,0.1-0.6c0-0.3-0.1-0.5-0.2-0.6c-0.1-0.2-0.3-0.3-0.5-0.3c-0.2-0.1-0.4-0.1-0.6-0.1s-0.4,0-0.7,0l-0.9,0.1 l0.2,2.5c0,0,0.1,0,0.2,0s0.2,0,0.3,0c0.1,0,0.2,0,0.3,0C26.8,51,26.9,51,27,51z"/><path d="M34.2,44.6c-0.1,0-0.2-0.1-0.4-0.1c-0.1,0-0.3,0-0.5,0c-0.3,0-0.5,0.1-0.8,0.2c-0.3,0.1-0.5,0.3-0.7,0.6 c-0.2,0.2-0.3,0.6-0.4,0.9c-0.1,0.4-0.1,0.8-0.1,1.4c0,0.5,0.1,0.9,0.3,1.2c0.1,0.4,0.3,0.6,0.5,0.9c0.2,0.2,0.5,0.4,0.8,0.5 s0.6,0.1,0.9,0.1c0.2,0,0.3,0,0.5-0.1c0.1,0,0.3-0.1,0.4-0.2l-0.1-1l0.7-0.1l0.1,1.4l0,0c-0.2,0.2-0.4,0.3-0.7,0.5 c-0.3,0.1-0.7,0.2-1.1,0.3c-0.4,0-0.8,0-1.2-0.1s-0.7-0.3-1-0.6s-0.5-0.6-0.7-1.1c-0.2-0.4-0.3-1-0.4-1.6c-0.1-0.7,0-1.2,0.1-1.7 s0.3-0.9,0.5-1.2s0.5-0.6,0.9-0.7c0.4-0.2,0.7-0.3,1.1-0.3c0.2,0,0.4,0,0.6,0c0.2,0,0.3,0,0.4,0c0.1,0,0.2,0,0.3,0.1 s0.2,0.1,0.3,0.1l0,0l0.2,1.6L34,45.7L34.2,44.6z"/><path d="M36.3,43.6c0.3-0.1,0.5-0.1,0.8-0.1s0.5-0.1,0.7-0.1c0.6-0.1,1.1,0,1.6,0.1c0.4,0.1,0.8,0.3,1.1,0.6s0.5,0.6,0.6,1.1 c0.2,0.4,0.3,0.9,0.3,1.4s0,0.9,0,1.4c-0.1,0.4-0.2,0.9-0.4,1.2c-0.2,0.4-0.5,0.7-0.9,0.9s-0.9,0.4-1.5,0.5c-0.1,0-0.2,0-0.3,0 s-0.3,0-0.4,0c-0.1,0-0.3,0-0.4,0c-0.1,0-0.2,0-0.3,0L36.3,43.6z M37.9,44.2c-0.1,0-0.2,0-0.4,0c-0.1,0-0.3,0-0.4,0.1l0.5,5.6h0.1 c0.1,0,0.1,0,0.2,0c0.1,0,0.1,0,0.2,0c0.1,0,0.1,0,0.2,0c0.5,0,0.9-0.2,1.2-0.4s0.5-0.4,0.6-0.7s0.2-0.6,0.3-1c0-0.4,0-0.7,0-1.1 c0-0.3-0.1-0.7-0.2-1c-0.1-0.3-0.2-0.6-0.4-0.9c-0.2-0.3-0.4-0.4-0.8-0.6C38.8,44.2,38.4,44.1,37.9,44.2z"/></g><g><path d="M80.9,26c0.1,0.3,0.1,0.7,0.1,1c1,10.2-5.7,22.7-20.2,24.1c-4.5,0.4-8.7-0.4-12.4-2.3c0.6,0,1.3,0,1.9-0.1 c3.7-0.4,6.9-1.9,9.4-4.3c-3.5,0.3-6.6-1.7-7.9-4.6c0.5,0,1,0,1.5,0c0.7-0.1,1.4-0.2,2-0.5c-3.7-0.4-6.7-3.2-7-6.9v-0.1 c1.1,0.5,2.4,0.7,3.6,0.6c-2.3-1.2-3.9-3.4-4.1-6.1c-0.1-1.4,0.1-2.8,0.7-4c4.3,4.3,10.4,6.8,17,6.5c-0.2-0.6-0.3-1.1-0.4-1.7 c-0.4-4.2,2.7-8,7.1-8.5c2.3-0.2,4.4,0.5,6,1.9c1.7-0.5,3.4-1.3,4.8-2.4c-0.4,1.8-1.5,3.5-3,4.6c1.6-0.3,3.1-0.9,4.4-1.6 C83.6,23.3,82.4,24.8,80.9,26z"/></g></g></svg>