<svg width="500" height="500" viewBox="0 0 500 500" version="1.1" xmlns="http://www.w3.org/2000/svg" xmlns:xlink="http://www.w3.org/1999/xlink"><title>uE041-magnifying-glass</title><desc>Created with Sketch.</desc><g id="Page-1" stroke="none" stroke-width="1" fill="none" fill-rule="evenodd"><path d="M194.413677,0 C87.117017,0 0,87.117017 0,194.413684 C0,301.71035 87.117017,388.827367 194.413677,388.827367 C230.589384,388.827367 264.304164,379.229728 293.097075,362.003199 L417.128078,485.788116 C436.077264,504.737295 467.085009,504.737295 485.788102,485.788116 C504.737281,467.08503 504.737281,436.077278 485.788102,417.128092 L362.003192,293.097082 C379.229721,264.304171 388.827353,230.589391 388.827353,194.413684 C388.827353,87.117017 301.710343,0 194.413677,0 Z M194.413677,27.8085395 C286.698649,27.8085395 361.018814,102.128704 361.018814,194.413684 C361.018814,286.698663 286.698649,361.018828 194.413677,361.018828 C102.128704,361.018828 27.8085388,286.698663 27.8085388,194.413684 C27.8085388,102.128704 102.128704,27.8085395 194.413677,27.8085395 L194.413677,27.8085395 Z M346.007126,316.475944 L466.100638,436.815556 C474.467814,445.182724 474.467814,457.733484 466.100638,466.100652 C457.73347,474.467827 444.936618,474.467827 436.569449,466.100652 L316.475938,346.00714 C327.304041,337.147779 337.147773,327.304048 346.007126,316.475944 L346.007126,316.475944 Z" id="uE041-magnifying-glass" fill="#000" fill-rule="nonzero"/></g></svg>