<svg version="1.1" id="Layer_1" xmlns="http://www.w3.org/2000/svg" xmlns:xlink="http://www.w3.org/1999/xlink" x="0" y="0" viewBox="0 0 118 118" xml:space="preserve" enable-background="new 0 0 118 118"><g><g><path d="M19.4,103.1l-0.6-0.1l-0.6-0.1c-0.4,0-0.8,0.5-0.5,0.8c0.1,0.1,0.2,0.2,0.4,0.3l0.6,0.1l0.6,0.1c0.4,0,0.8-0.4,0.5-0.8 C19.7,103.2,19.6,103.1,19.4,103.1z"/><path d="M31.5,6.8l-0.6-0.1l-0.6-0.1c-0.5,0-0.8,0.5-0.5,0.8c0.1,0.1,0.2,0.2,0.4,0.3l0.6,0.1l0.6,0.1c0.5,0,0.8-0.5,0.5-0.8 C31.8,6.9,31.7,6.8,31.5,6.8z"/><path d="M35.9,7.2l-0.6-0.1L34.7,7c-0.5,0-0.8,0.5-0.5,0.8c0.1,0.1,0.2,0.2,0.4,0.3l0.6,0.1l0.6,0.1c0.5,0,0.8-0.5,0.5-0.8 C36.2,7.4,36.1,7.3,35.9,7.2z"/><path d="M23.8,103.6l-0.6-0.1l-0.5-0.1c-0.5,0-0.8,0.5-0.5,0.8c0.1,0.1,0.2,0.2,0.4,0.3l0.5,0.1l0.6,0.1c0.4,0,0.8-0.4,0.5-0.8 C24.1,103.7,24,103.6,23.8,103.6z"/><path d="M10.6,102.1L10.6,102.1L10.6,102.1L10.6,102.1L10.6,102.1h-0.1l0,0l0,0l0,0l0,0l0,0l0,0l0,0l0,0l0,0l0,0l0,0l0,0l0,0l0,0 l0,0l0,0l0,0l0,0l0,0l0,0l0,0l0,0l0,0l0,0l0,0l0,0l0,0l0,0c-0.6-0.3-1.1,0.6-0.5,1l0,0l0,0l0,0l0,0l0,0l0,0l0,0l0,0l0,0l0,0l0,0 l0,0l0,0l0,0l0,0l0,0l0,0l0,0l0,0l0,0l0,0l0,0l0,0l0,0l0,0l0,0l0,0l0,0l0,0l0,0l0,0l0,0l0,0C11,103.4,11.3,102.3,10.6,102.1z"/><path d="M17.6,6.6L17.6,6.6L17.6,6.6L17.6,6.6L17.6,6.6l-0.1,0.1l0,0l0,0l0,0l0,0l0,0l0,0l0,0l0,0l0,0l0,0l0,0l0,0l0,0l0,0l0,0 l0,0l0,0l0,0l0,0l0,0l0,0l0,0l0,0l0,0l0,0l0,0l0,0l0,0l0,0C17,7.1,17.7,8,18.2,7.5l0,0l0,0l0,0l0,0l0,0l0,0l0,0l0,0l0,0l0,0l0,0 l0,0l0,0l0,0l0,0l0,0l0,0l0,0l0,0l0,0l0,0l0,0l0,0l0,0l0,0l0,0l0,0l0,0l0,0l0,0l0,0l0,0l0,0l0,0C18.8,7.3,18.3,6.3,17.6,6.6z"/><path d="M28.2,104l-0.6-0.1l-0.6-0.1c-0.5,0-0.8,0.5-0.5,0.8c0.1,0.1,0.2,0.2,0.4,0.3l0.6,0.1l0.6,0.1c0.5,0,0.8-0.4,0.5-0.8 C28.5,104.2,28.4,104.1,28.2,104z"/><path d="M22.6,5.9l-0.7-0.1h-0.4h-0.1l0,0l0,0l0,0l0,0l0,0l0,0l0,0l0,0l0,0l0,0l0,0c-0.7-0.1-0.8,1,0,1.1l0,0l0,0l0,0l0,0l0,0l0,0 l0,0l0,0l0,0l0,0l0,0l0,0l0,0l0,0h0.4L22.5,7C23,7,23.3,6.5,23,6.1C22.9,6,22.8,5.9,22.6,5.9z"/><path d="M27.1,6.3l-0.6-0.1L26,6.1c-0.5,0-0.8,0.5-0.5,0.8c0.1,0.1,0.2,0.2,0.4,0.3l0.5,0.1L27,7.4c0.5,0,0.8-0.5,0.5-0.8 C27.4,6.4,27.2,6.3,27.1,6.3z"/><path d="M15,102.7l-0.6-0.1l-0.6-0.1c-0.5,0-0.8,0.5-0.5,0.8c0.1,0.1,0.2,0.2,0.4,0.3l0.6,0.1l0.6,0.1c0.5,0,0.8-0.4,0.5-0.8 C15.3,102.8,15.1,102.7,15,102.7z"/><path d="M7.5,99.7L7.5,99.7L7.5,99.7L7.5,99.7L7.5,99.7L7.5,99.7L7.5,99.7L7.5,99.7L7.5,99.7L7.5,99.7L7.5,99.7L7.5,99.7L7.5,99.7 L7.5,99.7L7.5,99.7L7.5,99.7L7.5,99.7L7.5,99.7L7.5,99.7L7.5,99.7L7.5,99.7L7.5,99.7L7.5,99.7L7.5,99.7L7.5,99.7L7.5,99.7 L7.5,99.7L7.5,99.7L7.5,99.7L7.5,99.7L7.5,99.7L7.5,99.7c-0.3-0.6-0.9-0.5-1.1-0.2C6,98.9,6,99,6.1,99.2l0,0l0,0l0,0l0,0l0,0l0,0 l0,0l0,0l0,0l0,0l0,0l0,0l0,0l0,0l0,0l0,0l0,0l0,0l0,0l0,0l0,0l0,0l0,0l0,0l0,0l0,0l0,0l0,0l0,0l0,0l0,0l0,0l0,0l0,0 C6.9,100.9,7.9,100.4,7.5,99.7L7.5,99.7z"/><path d="M45.9,105.9l-0.6-0.1l-0.5-0.1c-0.4,0-0.8,0.5-0.5,0.8c0.1,0.1,0.2,0.2,0.4,0.3l0.5,0.1l0.6,0.1c0.4,0,0.8-0.4,0.5-0.8 C46.2,106,46.1,105.9,45.9,105.9z"/><path d="M40.3,7.7l-0.6-0.1l-0.5-0.1c-0.5,0-0.8,0.5-0.5,0.8c0.1,0.1,0.2,0.2,0.4,0.3l0.5,0.1l0.6,0.1c0.5,0,0.8-0.5,0.5-0.8 C40.6,7.8,40.5,7.7,40.3,7.7z"/><path d="M41.5,105.4l-0.6-0.1l-0.6-0.1c-0.5,0-0.8,0.5-0.5,0.8c0.1,0.1,0.2,0.2,0.4,0.3l0.6,0.1l0.6,0.1c0.5,0,0.8-0.4,0.5-0.8 C41.8,105.5,41.7,105.4,41.5,105.4z"/><path d="M58,9.5l-0.6-0.1l-0.6-0.1c-0.5,0-0.8,0.5-0.5,0.8c0.1,0.1,0.2,0.2,0.4,0.3l0.6,0.1l0.6,0.1c0.5,0,0.8-0.5,0.5-0.8 C58.3,9.7,58.2,9.6,58,9.5z"/><path d="M50.3,106.3l-0.6-0.1l-0.6-0.1c-0.5,0-0.8,0.5-0.5,0.8c0.1,0.1,0.2,0.2,0.4,0.3l0.6,0.1l0.6,0.1c0.4,0,0.8-0.4,0.5-0.8 C50.6,106.5,50.5,106.4,50.3,106.3z"/><path d="M53.6,9.1L53,9h-0.5C52,9,51.7,9.5,52,9.8c0.1,0.1,0.2,0.2,0.4,0.3l0.5,0.1l0.6,0.1c0.5,0,0.8-0.5,0.5-0.8 C53.9,9.2,53.8,9.1,53.6,9.1z"/><path d="M44.7,8.2l-0.6-0.1L43.6,8c-0.5,0-0.8,0.5-0.5,0.8c0.1,0.1,0.2,0.2,0.4,0.3l0.6,0.1l0.6,0.1c0.5,0,0.8-0.5,0.5-0.8 C45,8.3,44.9,8.2,44.7,8.2z"/><path d="M32.6,104.5l-0.6-0.1l-0.6-0.1c-0.4,0-0.8,0.5-0.5,0.8c0.1,0.1,0.2,0.2,0.4,0.3l0.6,0.1l0.6,0.1c0.4,0,0.8-0.4,0.5-0.8 C32.9,104.6,32.8,104.5,32.6,104.5z"/><path d="M37.1,105l-0.6-0.1l-0.6-0.1c-0.5,0-0.8,0.5-0.5,0.8c0.1,0.1,0.2,0.2,0.4,0.3l0.6,0.1l0.6,0.1c0.4,0,0.8-0.4,0.5-0.8 C37.4,105.1,37.3,105,37.1,105z"/><path d="M49.2,8.6l-0.6-0.1l-0.5-0.1c-0.5,0-0.8,0.5-0.5,0.8c0.1,0.1,0.2,0.2,0.4,0.3l0.5,0.1l0.6,0.1c0.5,0,0.8-0.5,0.5-0.8 C49.5,8.7,49.4,8.6,49.2,8.6z"/><path d="M6.7,96.2C6.8,96.1,6.9,96,7,95.8l0.1-1.1c0-0.3-0.2-0.6-0.5-0.6c-0.1,0-0.3,0-0.4,0.1C6.1,94.3,6,94.4,6,94.6l-0.1,1.1 c0,0.3,0.2,0.6,0.5,0.6C6.5,96.3,6.6,96.3,6.7,96.2z"/><path d="M13.7,25.5c0.1,0,0.2,0,0.3-0.1s0.2-0.2,0.3-0.4l0.1-1.1c0-0.3-0.2-0.6-0.5-0.6c-0.1,0-0.3,0-0.4,0.1 c-0.1,0.1-0.2,0.2-0.3,0.4l-0.1,1.1C13.1,25.2,13.4,25.5,13.7,25.5z"/><path d="M13.2,29.9c0.1,0,0.2,0,0.3-0.1s0.2-0.2,0.3-0.4l0.1-1.1c0-0.3-0.2-0.6-0.5-0.6c-0.1,0-0.3,0-0.4,0.1 c-0.1,0.1-0.2,0.2-0.3,0.4l-0.1,1.1C12.7,29.6,12.9,29.9,13.2,29.9z"/><path d="M11.4,47.6c0.1,0,0.2,0,0.3-0.1s0.2-0.2,0.3-0.4l0.1-1.1c0-0.3-0.2-0.6-0.5-0.6c-0.1,0-0.3,0-0.4,0.1 c-0.1,0.1-0.2,0.2-0.3,0.4l0,1.1C10.9,47.3,11.1,47.6,11.4,47.6z"/><path d="M11.9,43.2c0.1,0,0.2,0,0.3-0.1s0.2-0.2,0.3-0.4l0.1-1.1c0-0.3-0.2-0.6-0.5-0.6c-0.1,0-0.3,0-0.4,0.1 c-0.1,0.1-0.2,0.2-0.3,0.4l-0.1,1.1C11.3,42.9,11.6,43.2,11.9,43.2z"/><path d="M12.3,38.8c0.1,0,0.2,0,0.3-0.1s0.2-0.2,0.3-0.4l0.1-1.1c0-0.3-0.2-0.6-0.5-0.6c-0.1,0-0.3,0-0.4,0.1 c-0.1,0.1-0.2,0.2-0.3,0.4l-0.1,1.1C11.8,38.5,12,38.7,12.3,38.8z"/><path d="M12.8,34.3c0.1,0,0.2,0,0.3-0.1s0.2-0.2,0.3-0.4l0.1-1.1c0-0.3-0.2-0.6-0.5-0.6c-0.1,0-0.3,0-0.4,0.1 c-0.1,0.1-0.2,0.2-0.3,0.4l-0.1,1.1C12.2,34.1,12.5,34.3,12.8,34.3z"/><path d="M111.1,20.4L111.1,20.4L111.1,20.4v0.1l0,0l0,0l0,0l0,0l0,0l0,0l0,0l0,0l0,0l0,0l0,0l0,0l0,0l0,0l0,0l0,0l0,0l0,0l0,0l0,0 l0,0l0,0l0,0l0,0l0,0l0,0l0,0c0,0.4,0.2,0.6,0.5,0.6s0.6-0.1,0.6-0.5l0,0l0,0l0,0l0,0l0,0l0,0l0,0l0,0l0,0l0,0l0,0l0,0l0,0l0,0 l0,0l0,0l0,0l0,0l0,0l0,0l0,0l0,0l0,0l0,0l0,0l0,0l0,0l0,0l0,0l0,0l0,0l0,0c0-0.3-0.2-0.4-0.4-0.5C111.5,20,111.2,20.1,111.1,20.4 C111.1,20.2,111.1,20.2,111.1,20.4L111.1,20.4L111.1,20.4L111.1,20.4z"/><path d="M15.1,12.2c0.1,0,0.2,0,0.3-0.1s0.2-0.2,0.3-0.4v-0.2l0,0l0,0l0,0l0,0l0,0l0,0l0,0l0,0l0,0l0,0l0,0l0,0l0,0l0,0l0,0l0,0 l0,0l0,0l0,0l0,0l0,0l0,0l0,0l0,0l0,0c0.1-0.4-0.2-0.7-0.5-0.7c-0.2,0-0.5,0.1-0.6,0.4l0,0l0,0l0,0l0,0l0,0l0,0l0,0l0,0l0,0l0,0 l0,0l0,0l0,0l0,0l0,0l0,0l0,0l0,0l0,0l0,0l0,0l0,0l0,0l0,0l0,0v0.2C14.5,11.9,14.8,12.2,15.1,12.2z"/><path d="M14.6,16.7c0.1,0,0.2,0,0.3-0.1s0.2-0.2,0.3-0.4l0.1-1.1c0-0.3-0.2-0.6-0.5-0.6c-0.1,0-0.3,0-0.4,0.1 c-0.1,0.1-0.2,0.2-0.3,0.4l0,1C14.1,16.4,14.3,16.6,14.6,16.7z"/><path d="M14.2,21.1c0.1,0,0.2,0,0.3-0.1s0.2-0.2,0.3-0.4l0.1-1.1c0-0.3-0.2-0.6-0.5-0.6c-0.1,0-0.3,0-0.4,0.1 c-0.1,0.1-0.2,0.2-0.3,0.4l-0.1,1.1C13.6,20.8,13.9,21.1,14.2,21.1z"/><path d="M8.7,74.2c0.1,0,0.2,0,0.3-0.1s0.2-0.2,0.3-0.4l0.1-1.1c0-0.3-0.2-0.6-0.5-0.6c-0.1,0-0.3,0-0.4,0.1 c-0.1,0.1-0.2,0.2-0.3,0.4l-0.1,1.1C8.1,73.9,8.4,74.1,8.7,74.2z"/><path d="M8.2,78.6c0.1,0,0.2,0,0.3-0.1s0.2-0.2,0.3-0.4L8.9,77c0-0.3-0.2-0.6-0.5-0.6c-0.1,0-0.3,0-0.4,0.1s-0.2,0.2-0.3,0.4 l0,1.1C7.6,78.3,7.9,78.6,8.2,78.6z"/><path d="M7.7,83c0.1,0,0.2,0,0.3-0.1s0.2-0.2,0.3-0.4l0.1-1.1c0-0.3-0.2-0.6-0.5-0.6c-0.1,0-0.3,0-0.4,0.1s-0.2,0.2-0.3,0.4 l-0.1,1.1C7.2,82.7,7.4,83,7.7,83z"/><path d="M62.4,10l-0.6-0.1l-0.6-0.1c-0.5,0-0.8,0.5-0.5,0.8c0.1,0.1,0.2,0.2,0.4,0.3l0.6,0.1l0.6,0.1c0.5,0,0.8-0.5,0.5-0.8 C62.7,10.1,62.6,10,62.4,10z"/><path d="M7.3,87.4c0.1,0,0.2,0,0.3-0.1c0.1-0.1,0.2-0.2,0.3-0.4L8,85.8c0-0.3-0.2-0.6-0.5-0.6c-0.1,0-0.3,0-0.4,0.1 s-0.2,0.2-0.3,0.4l-0.1,1.1C6.7,87.2,7,87.4,7.3,87.4z"/><path d="M11,52c0.1,0,0.2,0,0.3-0.1s0.2-0.2,0.3-0.4l0.1-1.1c0-0.3-0.2-0.6-0.5-0.6c-0.1,0-0.3,0-0.4,0.1 c-0.1,0.1-0.2,0.2-0.3,0.4l-0.1,1.1C10.4,51.8,10.7,52,11,52z"/><path d="M6.8,91.8c0.1,0,0.2,0,0.3-0.1c0.1-0.1,0.2-0.2,0.3-0.4l0.1-1.1c0-0.3-0.2-0.6-0.5-0.6c-0.1,0-0.3,0-0.4,0.1 s-0.2,0.2-0.3,0.4l-0.1,1.1C6.3,91.6,6.5,91.8,6.8,91.8z"/><path d="M9.1,69.7c0.1,0,0.2,0,0.3-0.1s0.2-0.2,0.3-0.4l0.1-1.1c0-0.3-0.2-0.6-0.5-0.6c-0.1,0-0.3,0-0.4,0.1 c-0.1,0.1-0.2,0.2-0.3,0.4l-0.1,1.1C8.6,69.5,8.8,69.7,9.1,69.7z"/><path d="M10,60.9c0.1,0,0.2,0,0.3-0.1s0.2-0.2,0.3-0.4l0.1-1.1c0-0.3-0.2-0.6-0.5-0.6c-0.1,0-0.3,0-0.4,0.1 c-0.1,0.1-0.2,0.2-0.3,0.4l-0.1,1.1C9.5,60.6,9.7,60.9,10,60.9z"/><path d="M10.5,56.5c0.1,0,0.2,0,0.3-0.1s0.2-0.2,0.3-0.4l0.1-1.1c0-0.3-0.2-0.6-0.5-0.6c-0.1,0-0.3,0-0.4,0.1 c-0.1,0.1-0.2,0.2-0.3,0.4l0,1.1C9.9,56.2,10.2,56.4,10.5,56.5z"/><path d="M9.6,65.3c0.1,0,0.2,0,0.3-0.1s0.2-0.2,0.3-0.4l0.1-1.1c0-0.3-0.2-0.6-0.5-0.6c-0.1,0-0.3,0-0.4,0.1 c-0.1,0.1-0.2,0.2-0.3,0.4L9,64.7C9,65,9.3,65.3,9.6,65.3z"/><path d="M93.4,13.2l-0.6-0.1L92.2,13c-0.5,0-0.8,0.5-0.5,0.8c0.1,0.1,0.2,0.2,0.4,0.3l0.6,0.1l0.6,0.1c0.5,0,0.8-0.5,0.5-0.8 C93.7,13.3,93.6,13.2,93.4,13.2z"/><path d="M107.3,63.9c-0.1,0-0.2,0-0.3,0.1c-0.1,0.1-0.2,0.2-0.3,0.4l-0.1,1.1c0,0.3,0.2,0.6,0.5,0.6c0.1,0,0.2,0,0.3-0.1 c0.1-0.1,0.2-0.2,0.3-0.4l0.1-1.1C107.8,64.2,107.6,64,107.3,63.9z"/><path d="M102,108.1c-0.1,0-0.2,0.1-0.3,0.3l0,0l0,0l0,0l0,0l0,0l0,0l0,0l0,0l0,0l0,0l0,0l0,0l0,0l0,0l0,0l0,0l0,0l0,0l0,0l0,0l0,0 l0,0l0,0l0,0l0,0l0,0l0,0l0,0l0,0l0,0l0,0l0,0c-0.4,0.5,0.2,1,0.6,0.9c0.1,0,0.2-0.1,0.2-0.2l0,0l0,0l0,0l0,0l0,0l0,0l0,0l0,0l0,0 l0,0l0,0l0,0l0,0l0,0l0,0l0,0l0,0l0,0l0,0l0,0l0,0l0,0l0,0l0,0l0,0l0,0l0,0l0,0l0,0l0,0l0,0l0,0l0,0l0,0c0.1-0.2,0.1-0.4,0-0.6 C102.5,108.1,102.3,108,102,108.1z"/><path d="M106.8,68.4c-0.1,0-0.2,0-0.3,0.1c-0.1,0.1-0.2,0.2-0.3,0.4l-0.1,1.1c0,0.3,0.2,0.6,0.5,0.6c0.1,0,0.2,0,0.3-0.1 c0.1-0.1,0.2-0.2,0.3-0.4l0.1-1.1C107.4,68.7,107.1,68.4,106.8,68.4z"/><path d="M106.4,72.8c-0.1,0-0.2,0-0.3,0.1c-0.1,0.1-0.2,0.2-0.3,0.4l-0.1,1.1c0,0.3,0.2,0.6,0.5,0.6c0.1,0,0.2,0,0.3-0.1 c0.1-0.1,0.2-0.2,0.3-0.4l0.1-1.1C106.9,73.1,106.6,72.8,106.4,72.8z"/><path d="M105,86.1c-0.1,0-0.2,0-0.3,0.1c-0.1,0.1-0.2,0.2-0.3,0.4l-0.1,1.1c0,0.3,0.2,0.6,0.5,0.6c0.1,0,0.2,0,0.3-0.1 c0.1-0.1,0.2-0.2,0.3-0.4l0.1-1.1C105.5,86.3,105.3,86.1,105,86.1z"/><path d="M105.9,77.2c-0.1,0-0.2,0-0.3,0.1c-0.1,0.1-0.2,0.2-0.3,0.4l-0.1,1.1c0,0.3,0.2,0.6,0.5,0.6c0.1,0,0.2,0,0.3-0.1 c0.1-0.1,0.2-0.2,0.3-0.4l0.1-1.1C106.4,77.5,106.2,77.2,105.9,77.2z"/><path d="M103.6,99.3c-0.1,0-0.2,0-0.3,0.1c-0.1,0.1-0.2,0.2-0.3,0.4l-0.1,1.1c0,0.3,0.2,0.6,0.5,0.6c0.1,0,0.2,0,0.3-0.1 c0.1-0.1,0.2-0.2,0.3-0.4l0.1-1.1C104.1,99.6,103.9,99.4,103.6,99.3z"/><path d="M103.2,103.8c-0.1,0-0.2,0-0.3,0.1c-0.1,0.1-0.2,0.2-0.3,0.4l-0.1,1.1c0,0.3,0.2,0.6,0.5,0.6c0.1,0,0.2,0,0.3-0.1 c0.1-0.1,0.2-0.2,0.3-0.4l0.1-1.1C103.7,104,103.4,103.8,103.2,103.8z"/><path d="M54.8,106.8l-0.7-0.1h-0.4c-0.5,0-0.8,0.5-0.5,0.8c0.1,0.1,0.2,0.2,0.4,0.3H54l0.7,0.1c0.5,0,0.8-0.4,0.5-0.8 C55.1,106.9,55,106.8,54.8,106.8z"/><path d="M104.5,90.5c-0.1,0-0.2,0-0.3,0.1c-0.1,0.1-0.2,0.2-0.3,0.4l-0.1,1.1c0,0.3,0.2,0.6,0.5,0.6c0.1,0,0.2,0,0.3-0.1 c0.1-0.1,0.2-0.2,0.3-0.4l0.1-1.1C105.1,90.8,104.8,90.5,104.5,90.5z"/><path d="M105.4,81.6c-0.1,0-0.2,0-0.3,0.1c-0.1,0.1-0.2,0.2-0.3,0.4l-0.1,1.1c0,0.3,0.2,0.6,0.5,0.6c0.1,0,0.2,0,0.3-0.1 c0.1-0.1,0.2-0.2,0.3-0.4l0.1-1.1C106,81.9,105.7,81.7,105.4,81.6z"/><path d="M110,37.4c-0.1,0-0.2,0-0.3,0.1c-0.1,0.1-0.2,0.2-0.3,0.4l-0.1,1.1c0,0.3,0.2,0.6,0.5,0.6c0.1,0,0.2,0,0.3-0.1 c0.1-0.1,0.2-0.2,0.3-0.4l0.1-1.1C110.6,37.7,110.3,37.4,110,37.4z"/><path d="M110.5,33c-0.1,0-0.2,0-0.3,0.1c-0.1,0.1-0.2,0.2-0.3,0.4l-0.1,1.1c0,0.3,0.2,0.6,0.5,0.6c0.1,0,0.2,0,0.3-0.1 c0.1-0.1,0.2-0.2,0.3-0.4l0.1-1.1C111,33.3,110.8,33,110.5,33z"/><path d="M111,28.6c-0.1,0-0.2,0-0.3,0.1c-0.1,0.1-0.2,0.2-0.3,0.4l-0.1,1.1c0,0.3,0.2,0.6,0.5,0.6c0.1,0,0.2,0,0.3-0.1 c0.1-0.1,0.2-0.2,0.3-0.4l0.1-1.1C111.5,28.8,111.2,28.6,111,28.6z"/><path d="M112.8,10.6c-0.2-0.1-0.4-0.2-0.6-0.4c-0.5-0.2-0.9-0.4-1.4-0.6c-0.6-0.2-1.2-0.4-1.8-0.5c-0.2,0-0.4-0.1-0.6-0.1h-1.7 l-2.1-0.2l-2.3-0.2l-2.1-0.2L97.8,8l-2.1-0.2l-2.3-0.2l-2.1-0.2L89,7.1l-2.1-0.2l-2.3-0.2l-2.1-0.2l-2.3-0.2L78.1,6l-2.3-0.2 l-2.1-0.2l-2.3-0.2l-2.1-0.2L67,5l-2.2-0.2l-2.2-0.2l-2.1-0.2L58,3.9l-2-0.2l-2.3-0.2l-2.1-0.2L49.2,3l-2.1-0.2l-2.3-0.2l-2.1-0.2 l-2.3-0.2L38.3,2L36,1.8l-2.1-0.2l-2.3-0.2l-2.1-0.2L27.2,1L25,0.5l-2.5-0.3L21,0c-0.1,0-0.2,0-0.3,0c-0.9,0-1.7,0-2.5,0.1 c-0.7,0.1-1.3,0.3-1.9,0.5c-3.8,1.3-6.7,4.8-7.2,9l-9,87.5c-0.4,4.3,1.7,8.2,5.2,10.3c0.6,0.3,1.2,0.6,1.8,0.9 c0.7,0.3,1.5,0.5,2.3,0.6c0.1,0,0.2,0,0.3,0l1.5,0.2l2.5,0.3l2.1,0.2l2.3,0.2l2.1,0.2l2.3,0.2l2.1,0.2l2.3,0.2l2.1,0.2l2.3,0.2 l2.1,0.2l2.3,0.2l2.1,0.2l2.3,0.2l2.1,0.2l2.3,0.2l2.1,0.2l2.3,0.2l2.1,0.2l2.2,0.2l2.2,0.2l2.3,0.2l2.1,0.2l2.3,0.2l2.1,0.2 l2.3,0.2l2.1,0.2l2.3,0.2l2.1,0.2l2.3,0.2l2.1,0.2l2.3,0.2l2.1,0.2l2.3,0.2l2.1,0.2l2.3,0.2l2.1,0.2l2.3,0.2l2.1,0.2l1.7,0.2 c0.2,0,0.4,0,0.6,0c0.6,0,1.2,0,1.8-0.1c0.5-0.1,1-0.2,1.5-0.3c0.2-0.1,0.5-0.1,0.7-0.2c3.8-1.3,6.7-4.8,7.1-9l9.1-87.4 C118.4,16.7,116.3,12.7,112.8,10.6z M105.8,108c-0.3,2.5-1.7,4.6-3.7,5.8c-0.2,0.1-0.5,0.3-0.7,0.4c-0.5,0.2-1,0.4-1.5,0.5 c-0.6,0.1-1.2,0.2-1.8,0.2c-0.2,0-0.4,0-0.6,0l-1.7-0.2l-2.1-0.2l-2.3-0.2l-2.1-0.2l-2.3-0.2l-2.1-0.2l-2.3-0.2l-2.1-0.2l-2.3-0.2 l-2.1-0.2l-2.3-0.2l-2.1-0.2l-2.3-0.2l-2.1-0.2l-2.3-0.2l-2.1-0.2l-2.3-0.2l-2.1-0.2l-2.3-0.2l-2.2-0.2l-2.2-0.2l-2.1-0.2 l-2.3-0.2l-2.1-0.2l-2.3-0.2l-2.1-0.2l-2.3-0.2l-2.1-0.2l-2.3-0.2l-2.1-0.2l-2.3-0.2l-2.1-0.2l-2.3-0.2l-2.1-0.2l-2.3-0.2 l-2.1-0.2l-2.3-0.2l-2.1-0.2L12,107l-1.5-0.2c-0.1,0-0.2,0-0.3,0c-0.8-0.1-1.6-0.4-2.3-0.7c-0.6-0.3-1.2-0.7-1.7-1.2 c-1.7-1.6-2.7-3.9-2.5-6.4L12.2,10c0.3-2.5,1.7-4.6,3.7-5.8c0.6-0.4,1.3-0.6,2-0.8c0.8-0.2,1.6-0.3,2.4-0.2c0.1,0,0.2,0,0.3,0 l1.5,0.2l2.5,0.3l2.1,0.2L29.1,4l2.1,0.2l2.3,0.2l2.1,0.2l2.3,0.2L40,5.1l2.3,0.2l2.1,0.2l2.3,0.2l2.1,0.2l2.3,0.2l2.1,0.2 l2.3,0.2L57.7,7L60,7.2l2.1,0.2l2.2,0.2l2.2,0.2L68.8,8L71,8.4l2.3,0.2l2.1,0.2L77.7,9l2.1,0.2l2.3,0.2l2.1,0.2l2.3,0.2l2.1,0.2 l2.3,0.2l2.1,0.2l2.3,0.2l2.1,0.2l2.3,0.2l2.1,0.2l2.3,0.2l2.1,0.2l1.7,0.2c0.2,0,0.4,0.1,0.6,0.1c0.6,0.1,1.2,0.3,1.8,0.6 c0.5,0.2,1,0.5,1.4,0.8c0.2,0.2,0.4,0.3,0.6,0.5c1.7,1.6,2.7,3.9,2.4,6.4L105.8,108z"/><path d="M111.4,24.1c-0.1,0-0.2,0-0.3,0.1c-0.1,0.1-0.2,0.2-0.3,0.4l-0.1,1.1c0,0.3,0.2,0.6,0.5,0.6c0.1,0,0.2,0,0.3-0.1 c0.1-0.1,0.2-0.2,0.3-0.4l0.1-1.1C111.9,24.4,111.7,24.2,111.4,24.1z"/><path d="M107.7,59.5c-0.1,0-0.2,0-0.3,0.1c-0.1,0.1-0.2,0.2-0.3,0.4l-0.1,1.1c0,0.3,0.2,0.6,0.5,0.6c0.1,0,0.2,0,0.3-0.1 c0.1-0.1,0.2-0.2,0.3-0.4l0.1-1.1C108.3,59.8,108,59.6,107.7,59.5z"/><path d="M108.7,50.7c-0.1,0-0.2,0-0.3,0.1c-0.1,0.1-0.2,0.2-0.3,0.4l-0.1,1.1c0,0.3,0.2,0.6,0.5,0.6c0.1,0,0.2,0,0.3-0.1 c0.1-0.1,0.2-0.2,0.3-0.4l0.1-1.1C109.2,51,108.9,50.7,108.7,50.7z"/><path d="M109.6,41.8c-0.1,0-0.2,0-0.3,0.1c-0.1,0.1-0.2,0.2-0.3,0.4l-0.1,1.1c0,0.3,0.2,0.6,0.5,0.6c0.1,0,0.2,0,0.3-0.1 c0.1-0.1,0.2-0.2,0.3-0.4l0.1-1.1C110.1,42.1,109.9,41.9,109.6,41.8z"/><path d="M108.2,55.1c-0.1,0-0.2,0-0.3,0.1c-0.1,0.1-0.2,0.2-0.3,0.4l-0.1,1.1c0,0.3,0.2,0.6,0.5,0.6c0.1,0,0.2,0,0.3-0.1 c0.1-0.1,0.2-0.2,0.3-0.4l0.1-1.1C108.7,55.4,108.5,55.1,108.2,55.1z"/><path d="M109.1,46.3c-0.1,0-0.2,0-0.3,0.1c-0.1,0.1-0.2,0.2-0.3,0.4l-0.1,1.1c0,0.3,0.2,0.6,0.5,0.6c0.1,0,0.2,0,0.3-0.1 c0.1-0.1,0.2-0.2,0.3-0.4l0.1-1.1C109.6,46.5,109.4,46.3,109.1,46.3z"/><path d="M104.1,94.9c-0.1,0-0.2,0-0.3,0.1c-0.1,0.1-0.2,0.2-0.3,0.4l-0.1,1.1c0,0.3,0.2,0.6,0.5,0.6c0.1,0,0.2,0,0.3-0.1 c0.1-0.1,0.2-0.2,0.3-0.4l0.1-1.1C104.6,95.2,104.4,94.9,104.1,94.9z"/><path d="M68,108.2l-0.6-0.1l-0.6-0.1c-0.4,0-0.8,0.5-0.5,0.8c0.1,0.1,0.2,0.2,0.4,0.3l0.6,0.1l0.6,0.1c0.5,0,0.8-0.4,0.5-0.8 C68.3,108.3,68.2,108.2,68,108.2z"/><path d="M76.9,109.1l-0.6-0.1l-0.6-0.1c-0.5,0-0.8,0.5-0.5,0.8c0.1,0.1,0.2,0.2,0.4,0.3l0.6,0.1l0.6,0.1c0.5,0,0.8-0.4,0.5-0.8 C77.2,109.2,77.1,109.1,76.9,109.1z"/><path d="M80.1,11.8l-0.6-0.1H79c-0.5,0-0.8,0.5-0.5,0.8c0.1,0.1,0.2,0.2,0.4,0.3l0.6,0.1l0.6,0.1c0.5,0,0.8-0.5,0.5-0.8 C80.4,12,80.3,11.9,80.1,11.8z"/><path d="M72.5,108.6l-0.6-0.1l-0.5-0.1c-0.4,0-0.8,0.5-0.5,0.8c0.1,0.1,0.2,0.2,0.4,0.3l0.5,0.1l0.6,0.1c0.4,0,0.8-0.4,0.5-0.8 C72.8,108.8,72.6,108.7,72.5,108.6z"/><path d="M84.6,12.3L84,12.2l-0.6-0.1c-0.5,0-0.8,0.5-0.5,0.8c0.1,0.1,0.2,0.2,0.4,0.3l0.6,0.1l0.6,0.1c0.5,0,0.8-0.5,0.5-0.8 C84.9,12.4,84.7,12.3,84.6,12.3z"/><path d="M75.7,11.4l-0.6-0.1l-0.5-0.1c-0.5,0-0.8,0.5-0.5,0.8c0.1,0.1,0.2,0.2,0.4,0.3l0.5,0.1l0.6,0.1c0.5,0,0.8-0.5,0.5-0.8 C76,11.5,75.9,11.4,75.7,11.4z"/><path d="M66.9,10.5l-0.6-0.1l-0.6-0.1c-0.5,0-0.8,0.5-0.5,0.8c0.1,0.1,0.2,0.2,0.4,0.3l0.6,0.1l0.6,0.1c0.5,0,0.8-0.5,0.5-0.8 C67.2,10.6,67.1,10.5,66.9,10.5z"/><path d="M63.6,107.7l-0.6-0.1l-0.6-0.1c-0.5,0-0.8,0.5-0.5,0.8c0.1,0.1,0.2,0.2,0.4,0.3l0.6,0.1l0.6,0.1c0.5,0,0.8-0.4,0.5-0.8 C63.9,107.8,63.8,107.7,63.6,107.7z"/><path d="M59.2,107.3l-0.6-0.1l-0.5-0.1c-0.4,0-0.8,0.5-0.5,0.8c0.1,0.1,0.2,0.2,0.4,0.3l0.5,0.1l0.6,0.1c0.4,0,0.8-0.4,0.5-0.8 C59.5,107.4,59.4,107.3,59.2,107.3z"/><path d="M71.3,10.9l-0.6-0.1l-0.6-0.1c-0.5,0-0.8,0.5-0.5,0.8c0.1,0.1,0.2,0.2,0.4,0.3l0.6,0.1l0.6,0.1c0.5,0,0.8-0.5,0.5-0.8 C71.6,11,71.5,10.9,71.3,10.9z"/><path d="M106.7,14.6L106.7,14.6L106.7,14.6l-0.6-0.1l-0.5-0.1c-0.5,0-0.8,0.5-0.5,0.8c0.1,0.1,0.2,0.2,0.4,0.3l0.5,0.1l0.5,0.1 l0,0l0,0C107.3,15.8,107.4,14.7,106.7,14.6z"/><path d="M94.6,110.9l-0.6-0.1l-0.5-0.1c-0.4,0-0.8,0.5-0.5,0.8c0.1,0.1,0.2,0.2,0.4,0.3l0.5,0.1l0.6,0.1c0.5,0,0.8-0.4,0.5-0.8 C94.9,111,94.8,110.9,94.6,110.9z"/><path d="M110.8,16.9L110.8,16.9L110.8,16.9L110.8,16.9L110.8,16.9l-0.1-0.1l0,0l0,0l0,0l0,0l0,0l0,0l0,0l0,0l0,0l0,0l0,0l0,0l0,0 l0,0l0,0l0,0l0,0l0,0l0,0l0,0l0,0l0,0l0,0l0,0l0,0l0,0l0,0l0,0l0,0c-0.6-0.4-1.3,0.4-0.7,0.8l0,0l0,0l0,0l0,0l0,0l0,0l0,0l0,0l0,0 l0,0l0,0l0,0l0,0l0,0l0,0l0,0l0,0l0,0l0,0l0,0l0,0l0,0l0,0l0,0l0,0l0,0l0,0l0,0l0,0l0,0l0,0l0,0l0,0l0,0 C110.4,18.1,111.3,17.4,110.8,16.9z"/><path d="M98.7,110.9L98.7,110.9L98.7,110.9L98.7,110.9L98.7,110.9L98.7,110.9L98.7,110.9L98.7,110.9L98.7,110.9L98.7,110.9 L98.7,110.9L98.7,110.9L98.7,110.9L98.7,110.9L98.7,110.9L98.7,110.9L98.7,110.9L98.7,110.9L98.7,110.9L98.7,110.9L98.7,110.9 L98.7,110.9L98.7,110.9L98.7,110.9L98.7,110.9L98.7,110.9L98.7,110.9L98.7,110.9L98.7,110.9L98.7,110.9L98.7,110.9L98.7,110.9 L98.7,110.9L98.7,110.9L98.7,110.9c-0.8,0-0.7,1.2,0,1.1l0,0l0,0l0,0l0,0l0,0l0,0l0,0l0,0l0,0l0,0l0,0l0,0l0,0l0,0l0,0l0,0l0,0 l0,0l0,0l0,0l0,0l0,0l0,0l0,0l0,0l0,0l0,0l0,0l0,0l0,0l0,0l0,0l0,0l0,0C99.8,111.8,99.5,110.7,98.7,110.9z"/><path d="M102.2,14.1l-0.6-0.1l-0.5-0.1c-0.5,0-0.8,0.5-0.5,0.8c0.1,0.1,0.2,0.2,0.4,0.3l0.5,0.1l0.6,0.1c0.5,0,0.8-0.5,0.5-0.8 C102.5,14.2,102.4,14.1,102.2,14.1z"/><path d="M90.1,110.5l-0.6-0.1l-0.6-0.1c-0.5,0-0.8,0.5-0.5,0.8c0.1,0.1,0.2,0.2,0.4,0.3l0.6,0.1l0.6,0.1c0.5,0,0.8-0.4,0.5-0.8 C90.4,110.6,90.3,110.5,90.1,110.5z"/><path d="M85.7,110l-0.6-0.1l-0.5-0.1c-0.4,0-0.8,0.5-0.5,0.8c0.1,0.1,0.2,0.2,0.4,0.3L85,111l0.6,0.1c0.4,0,0.8-0.4,0.5-0.8 C86,110.1,85.9,110,85.7,110z"/><path d="M81.3,109.6l-0.6-0.1l-0.6-0.1c-0.4,0-0.8,0.5-0.5,0.8c0.1,0.1,0.2,0.2,0.4,0.3l0.6,0.1l0.6,0.1c0.5,0,0.8-0.4,0.5-0.8 C81.6,109.7,81.5,109.6,81.3,109.6z"/><path d="M89,12.8l-0.6-0.1l-0.6-0.1c-0.5,0-0.8,0.5-0.5,0.8c0.1,0.1,0.2,0.2,0.4,0.3l0.6,0.1l0.6,0.1c0.5,0,0.8-0.5,0.5-0.8 C89.3,12.9,89.2,12.8,89,12.8z"/><path d="M97.8,13.7l-0.6-0.1l-0.6-0.1c-0.5,0-0.8,0.5-0.5,0.8c0.1,0.1,0.2,0.2,0.4,0.3l0.6,0.1l0.6,0.1c0.5,0,0.8-0.5,0.5-0.8 C98.1,13.8,98,13.7,97.8,13.7z"/></g><path d="M18.2,42.5l83.6,8.7c0.4,0,0.7,0.4,0.6,0.8l0,0c0,0.4-0.4,0.7-0.8,0.6L18,44c-0.4,0-0.7-0.4-0.6-0.8l0,0 C17.4,42.8,17.8,42.5,18.2,42.5z"/><path d="M16.4,59.4l83.6,8.7c0.4,0,0.7,0.4,0.6,0.8l0,0c0,0.4-0.4,0.7-0.8,0.6l-83.6-8.7c-0.4,0-0.7-0.4-0.6-0.8l0,0 C15.7,59.6,16,59.4,16.4,59.4z"/><g><path d="M18.8,74.8l1.1-10.3l2.6,0.3c0.9,0.1,1.5,0.4,1.9,0.9s0.5,1.3,0.4,2.2c-0.1,0.8-0.4,1.5-0.9,1.9s-1.1,0.6-2,0.5l-1.1-0.1 L20.3,75L18.8,74.8z M20.8,69.1l0.7,0.1c0.6,0.1,1.1,0,1.3-0.2c0.3-0.2,0.4-0.6,0.5-1.3c0-0.3,0-0.5,0-0.6c0-0.2,0-0.3,0-0.5 s-0.1-0.3-0.1-0.4C23.1,66.1,23,66,22.9,66c-0.1-0.1-0.3-0.1-0.4-0.2c-0.2,0-0.4-0.1-0.6-0.1l-0.7-0.1L20.8,69.1z"/><path d="M27.5,75.8c-0.5-0.1-0.9-0.2-1.3-0.4c-0.4-0.2-0.6-0.5-0.8-0.8c-0.2-0.3-0.3-0.7-0.4-1.1s-0.1-0.9,0-1.4l0.4-3.9 c0.1-1.1,0.4-1.9,0.9-2.4s1.2-0.7,2.3-0.6c1,0.1,1.7,0.5,2.1,1.1s0.5,1.4,0.4,2.5l-0.4,3.9c-0.1,1.1-0.4,1.9-0.9,2.4 C29.3,75.7,28.5,75.9,27.5,75.8z M27,74.4c0.2,0.1,0.4,0.2,0.7,0.2c0.3,0,0.5,0,0.7-0.1s0.3-0.2,0.5-0.4c0.1-0.2,0.2-0.4,0.3-0.6 c0.1-0.2,0.1-0.5,0.1-0.8l0.5-4.5c0-0.3,0-0.6,0-0.8c0-0.2-0.1-0.4-0.1-0.6c-0.1-0.2-0.2-0.3-0.4-0.4c-0.2-0.1-0.4-0.2-0.7-0.2 c-0.3,0-0.5,0-0.7,0c-0.2,0.1-0.3,0.2-0.5,0.3c-0.1,0.2-0.2,0.3-0.3,0.6C27,67.3,27,67.6,27,67.9l-0.5,4.5c0,0.3,0,0.6,0,0.8 c0,0.2,0.1,0.4,0.1,0.6C26.7,74.2,26.8,74.3,27,74.4z"/><path d="M31.8,76.1l1.1-10.3L35,66c1,0.1,1.8,0.4,2.2,0.9s0.6,1.2,0.5,2.2c-0.1,1.3-0.6,2.1-1.5,2.3l0.9,5.3l-1.4-0.1l-0.9-5 l-1.1-0.1l-0.5,4.9L31.8,76.1z M33.9,70.4l0.5,0.1c0.6,0.1,1.1,0,1.4-0.2c0.3-0.2,0.5-0.7,0.5-1.3c0.1-0.6,0-1.1-0.2-1.4 s-0.6-0.5-1.3-0.5L34.2,67L33.9,70.4z"/><path d="M39.5,76.9l1-9.3l-1.9-0.2l0.1-1.1l5.2,0.5L43.7,68l-1.8-0.2l-1,9.3L39.5,76.9z"/><path d="M49.1,78c-0.5-0.1-0.9-0.2-1.3-0.4c-0.4-0.2-0.6-0.5-0.8-0.8s-0.3-0.7-0.4-1.1c-0.1-0.4-0.1-0.9,0-1.4l0.4-3.9 c0.1-1.1,0.4-1.9,0.9-2.4s1.2-0.7,2.3-0.6c1,0.1,1.7,0.5,2.1,1.1c0.4,0.6,0.5,1.4,0.4,2.5l-0.4,4c-0.1,1.1-0.4,1.9-0.9,2.4 C50.8,77.9,50.1,78.1,49.1,78z M48.5,76.7c0.2,0.1,0.4,0.2,0.7,0.2s0.5,0,0.7-0.1s0.3-0.2,0.5-0.4c0.1-0.2,0.2-0.4,0.3-0.6 s0.1-0.5,0.1-0.8l0.5-4.5c0-0.3,0-0.6,0-0.8c0-0.2-0.1-0.4-0.1-0.6s-0.2-0.3-0.4-0.4s-0.4-0.2-0.7-0.2s-0.5,0-0.7,0 c-0.2,0.1-0.3,0.2-0.5,0.3c-0.1,0.2-0.2,0.3-0.3,0.6c-0.1,0.2-0.1,0.5-0.1,0.8L48,74.8c0,0.3,0,0.6,0,0.8c0,0.2,0.1,0.4,0.1,0.6 C48.2,76.4,48.3,76.6,48.5,76.7z"/><path d="M53.4,78.3l1-10.3l4,0.4l-0.1,1l-2.6-0.3l-0.4,3.4l2,0.2l-0.1,1l-2-0.2l-0.5,4.8H53.4z"/><path d="M61.3,79.2l1.1-10.3l1.4,0.1l-1,9.3l2.6,0.3l-0.1,1L61.3,79.2z"/><path d="M66.4,79.7l1.1-10.3l1.4,0.1l-1.1,10.3L66.4,79.7z"/><path d="M71.9,80.4c-0.9-0.1-1.5-0.4-1.9-1s-0.6-1.3-0.5-2.3l1.3-0.2c-0.1,1.5,0.3,2.3,1.2,2.4c0.4,0,0.7,0,0.9-0.2 c0.2-0.2,0.3-0.5,0.4-0.9c0-0.2,0-0.4,0-0.6s-0.1-0.4-0.2-0.6s-0.2-0.3-0.3-0.4c-0.1-0.1-0.2-0.3-0.4-0.5l-1.6-1.7 c-0.3-0.4-0.5-0.7-0.7-1.1C70,72.9,69.9,72.5,70,72c0.1-0.7,0.4-1.3,0.8-1.7c0.5-0.4,1.1-0.5,1.8-0.5c0.8,0.1,1.4,0.4,1.8,0.8 c0.4,0.5,0.5,1.2,0.5,2.1L73.8,73c0-0.2,0-0.4,0-0.6s0-0.4-0.1-0.5c0-0.2-0.1-0.3-0.2-0.5c-0.1-0.1-0.2-0.2-0.4-0.3 C72.9,71,72.8,71,72.6,71c-0.8,0-1.2,0.3-1.3,1c0,0.3,0,0.6,0.1,0.8c0.1,0.2,0.2,0.4,0.5,0.7l1.6,1.7c0.4,0.5,0.7,0.9,0.9,1.4 c0.2,0.5,0.3,1,0.2,1.6c-0.1,0.8-0.4,1.3-0.9,1.7C73.3,80.3,72.7,80.5,71.9,80.4z"/><path d="M75.6,80.7l1.1-10.3l2.4,0.2c0.9,0.1,1.6,0.4,2,0.8c0.4,0.5,0.6,1.1,0.5,2c-0.1,1.3-0.7,2-1.7,2c0.6,0.2,1,0.5,1.3,1 c0.2,0.5,0.3,1.1,0.2,1.8c-0.1,0.9-0.4,1.6-0.9,2.1s-1.2,0.7-2.1,0.6L75.6,80.7z M77.6,74.8l0.8,0.1c0.6,0.1,1,0,1.3-0.3 c0.3-0.2,0.4-0.7,0.5-1.3c0-0.2,0-0.4,0-0.5c0-0.2,0-0.3-0.1-0.4c0-0.1-0.1-0.2-0.2-0.3c-0.1-0.1-0.2-0.2-0.3-0.2 c-0.1-0.1-0.2-0.1-0.4-0.1c-0.2,0-0.3-0.1-0.5-0.1s-0.3,0-0.6-0.1h-0.3L77.6,74.8z M77.1,79.8l1,0.1c0.6,0.1,1.1,0,1.3-0.3 c0.3-0.3,0.4-0.8,0.5-1.4c0.1-0.7,0-1.2-0.3-1.5C79.4,76.2,79,76,78.4,76l-0.9-0.1L77.1,79.8z"/><path d="M84.9,81.7c-0.5-0.1-0.9-0.2-1.3-0.4c-0.4-0.2-0.6-0.5-0.8-0.8c-0.2-0.3-0.3-0.7-0.4-1.1s-0.1-0.9,0-1.4l0.4-3.9 c0.1-1.1,0.4-1.9,0.9-2.4s1.2-0.7,2.3-0.6c1,0.1,1.7,0.5,2.1,1.1s0.5,1.4,0.4,2.5l-0.4,3.9c-0.1,1.1-0.4,1.9-0.9,2.4 C86.6,81.6,85.9,81.8,84.9,81.7z M84.3,80.4c0.2,0.1,0.4,0.2,0.7,0.2c0.3,0,0.5,0,0.7-0.1s0.3-0.2,0.5-0.4 c0.1-0.2,0.2-0.4,0.3-0.6c0.1-0.2,0.1-0.5,0.1-0.8l0.5-4.5c0-0.3,0-0.6,0-0.8c0-0.2-0.1-0.4-0.1-0.6c-0.1-0.2-0.2-0.3-0.4-0.4 c-0.2-0.1-0.4-0.2-0.7-0.2c-0.3,0-0.5,0-0.7,0c-0.2,0.1-0.3,0.2-0.5,0.3c-0.1,0.2-0.2,0.3-0.3,0.6c-0.1,0.2-0.1,0.5-0.1,0.8 l-0.5,4.5c0,0.3,0,0.6,0,0.8c0,0.2,0.1,0.4,0.1,0.6C84,80.1,84.1,80.3,84.3,80.4z"/><path d="M88.6,82l3.3-10.1l1.4,0.1l1.1,10.6L93,82.5l-0.2-2.7l-2.1-0.2l-0.8,2.6L88.6,82z M91,78.6l1.7,0.2L92.3,74L91,78.6z"/></g><g><path d="M75.2,19.4c0.7,0.2,2.2,0.3,3.5,1.9c0,0,1,1.2,1.1,3.7c0.1,2.9-0.2,5.8-0.2,5.8l-0.3,2.7c0,0-0.3,2.9-1,5.7 c-0.6,2.4-1.8,3.4-1.8,3.4c-1.5,1.3-3.1,1.1-3.8,1.1c0,0-5.1-0.1-12.6-0.9c-9.4-1.1-12.2-1.6-12.2-1.6c-0.8-0.2-2.6-0.4-3.8-1.9 c0,0-1-1.2-1.1-3.7c-0.1-2.9,0.2-5.8,0.2-5.8l0.3-2.7c0,0,0.3-2.9,1-5.7c0.6-2.4,1.8-3.4,1.8-3.4c1.5-1.3,3.1-1.1,3.8-1.1 c0,0,5.1,0.2,12.6,1C70.2,18.5,75.2,19.4,75.2,19.4z M67.4,30.5l-9.2-6l-1,10L67.4,30.5z"/></g><polygon points="31.2,20.7 32.2,25.7 37.3,26.2 32.9,28.8 34,33.8 30.2,30.4 25.7,32.9 27.8,28.3 24,24.8 29.1,25.4"/><polygon points="92.8,27.1 93.9,32.1 99,32.6 94.6,35.2 95.6,40.2 91.8,36.8 87.4,39.3 89.5,34.7 85.7,31.2 90.8,31.8"/><g><path d="M17.1,79.7l2.5,0.3v7l1.3-6.9l2.4,0.2l-2.8,10.5l-0.8,7.4l-2.5-0.3l0.8-7.4L17.1,79.7z"/><path d="M34.7,85l-1.2,11.3c-0.2,1.6-0.4,2.5-0.9,2.8s-1.2,0.4-2.4,0.3c-1.3-0.1-2.1-0.4-2.4-0.8s-0.4-1.4-0.3-2.9l1.2-11.3 c0.2-1.5,0.4-2.5,0.9-2.8c0.4-0.3,1.2-0.4,2.5-0.3c1.2,0.1,2,0.4,2.3,0.8S34.9,83.4,34.7,85z M32.3,83.8c0-0.2,0-0.4,0-0.5 c-0.1-0.1-0.1-0.2-0.3-0.2s-0.3,0-0.3,0.1c-0.1,0.1-0.1,0.3-0.2,0.5l-1.4,13.1c0,0.2,0,0.4,0,0.5c0.1,0.1,0.2,0.2,0.3,0.2 c0.1,0,0.2,0,0.3-0.1c0.1-0.1,0.1-0.3,0.1-0.5L32.3,83.8z"/><path d="M41.6,82.3l2.5,0.3l-1.6,15.6c0,0.2,0,0.4,0,0.5c0.1,0.1,0.2,0.2,0.3,0.2s0.2,0,0.3-0.1s0.1-0.3,0.2-0.5L45,82.6l2.5,0.3 L46,97.6c-0.2,1.5-0.4,2.5-0.9,2.8s-1.2,0.4-2.4,0.3c-1.3-0.1-2.1-0.4-2.4-0.8S39.9,98.5,40,97L41.6,82.3z"/><path d="M53.5,83.5l4.8,0.5l-0.2,1.9L57,85.8l-1.7,16.1l-2.5-0.3l1.7-16.1l-1.2-0.1L53.5,83.5z"/><path d="M64.3,84.6l2.5,0.3l-1.6,15.6c0,0.2,0,0.4,0,0.5c0.1,0.1,0.2,0.2,0.3,0.2c0.1,0,0.2,0,0.3-0.1c0.1-0.1,0.1-0.3,0.2-0.5 L67.7,85l2.5,0.3L68.7,100c-0.2,1.5-0.4,2.5-0.9,2.8c-0.4,0.3-1.2,0.4-2.4,0.3c-1.3-0.1-2.1-0.4-2.4-0.8s-0.4-1.4-0.3-2.9 L64.3,84.6z"/><path d="M76.9,85.9l3.4,0.3c0.9,0.1,1.5,0.4,1.8,0.8c0.3,0.5,0.5,1.2,0.4,2.1l-0.3,2.8c-0.1,0.8-0.2,1.3-0.4,1.7 c-0.2,0.4-0.5,0.7-1,0.9c0.4,0.3,0.6,0.6,0.8,0.9c0.1,0.4,0.2,1,0.1,1.8l-0.4,3.6c-0.2,1.5-0.5,2.5-0.9,2.9s-1.3,0.5-2.5,0.4 l-2.8-0.3L76.9,85.9z M78.4,95.6l-0.7,6.7h0.1h0.1c0.2,0,0.4,0,0.5-0.1s0.2-0.3,0.2-0.5l0.6-5.4c0-0.2,0-0.4-0.1-0.5 s-0.2-0.2-0.4-0.2H78.4z M79.2,88.1l-0.6,5.4h0.1h0.1c0.2,0,0.4,0,0.5-0.1s0.2-0.3,0.2-0.5l0.4-4.1c0-0.2,0-0.4-0.1-0.5 s-0.2-0.2-0.4-0.2L79.2,88.1z"/><path d="M89.5,87.2l4,0.4l-0.2,1.9l-1.5-0.2l-0.6,5.3l1.5,0.2l-0.2,1.9L91,96.6l-0.7,7l1.5,0.2l-0.2,1.9l-4-0.4L89.5,87.2z"/></g><g><path d="M30.9,57.2l-5.3-0.6l0.1-0.8c1.7-1.1,2.9-1.9,3.6-2.5s1.1-1.2,1.2-1.8c0-0.5-0.1-0.8-0.4-1.1S29.4,50,29,49.9 c-0.9-0.1-1.6,0.2-2.2,0.7l-0.5-0.7c0.3-0.3,0.8-0.6,1.2-0.8c0.5-0.2,1-0.2,1.6-0.2c0.7,0.1,1.3,0.3,1.8,0.8 c0.5,0.4,0.7,1,0.6,1.7s-0.5,1.4-1.2,2s-1.7,1.4-3.1,2.2L31,56L30.9,57.2z"/><path d="M34.9,57.7c-0.9-0.1-1.6-0.5-2.1-1.1l0.6-0.7c0.4,0.6,0.9,0.9,1.6,0.9c0.5,0.1,0.9-0.1,1.3-0.3c0.4-0.3,0.7-0.6,0.8-1 c0.2-0.4,0.3-0.9,0.4-1.4c0-0.1,0-0.2,0-0.3c-0.2,0.3-0.6,0.5-1,0.7s-0.9,0.3-1.3,0.2c-0.7-0.1-1.3-0.4-1.8-0.8s-0.6-1.1-0.5-1.9 c0.1-0.7,0.4-1.2,0.9-1.7c0.5-0.4,1.2-0.6,2.1-0.5c0.5,0.1,1,0.2,1.3,0.5c0.4,0.3,0.7,0.6,0.9,1s0.3,0.8,0.4,1.3 c0.1,0.5,0.1,1,0,1.5c-0.1,0.7-0.2,1.3-0.5,1.9s-0.7,1-1.2,1.3C36.2,57.7,35.6,57.8,34.9,57.7z M35.5,54c0.4,0,0.8,0,1.1-0.2 c0.4-0.2,0.7-0.4,0.9-0.7c0-0.3,0-0.5-0.1-0.7s-0.2-0.5-0.3-0.7s-0.3-0.4-0.5-0.6c-0.2-0.2-0.5-0.2-0.8-0.3 c-0.6-0.1-1,0.1-1.4,0.4c-0.4,0.3-0.5,0.7-0.6,1.1c-0.1,0.5,0.1,1,0.4,1.3C34.5,53.7,35,53.9,35.5,54z"/><path d="M48.1,59.1c-1.3-0.1-2.2-0.6-2.9-1.5l0.7-0.7c0.6,0.8,1.3,1.2,2.3,1.3c0.6,0.1,1.1,0,1.4-0.3c0.3-0.2,0.5-0.5,0.5-0.9 s-0.1-0.7-0.4-0.9c-0.3-0.2-0.7-0.4-1.1-0.6c-0.4-0.2-0.9-0.3-1.3-0.5c-0.4-0.2-0.8-0.4-1.1-0.8c-0.3-0.3-0.4-0.8-0.3-1.3 c0.1-0.6,0.4-1.1,0.9-1.5c0.5-0.3,1.2-0.5,2-0.4c1.1,0.1,2,0.6,2.6,1.4L50.7,53c-0.5-0.7-1.2-1-2.2-1.1c-0.5,0-0.9,0-1.2,0.2 s-0.5,0.5-0.5,0.8s0.1,0.5,0.3,0.7s0.5,0.4,0.8,0.5s0.7,0.3,1.1,0.4c0.4,0.2,0.7,0.3,1.1,0.5c0.3,0.2,0.6,0.4,0.8,0.8 s0.3,0.7,0.2,1.2c-0.1,0.6-0.4,1.1-0.9,1.5C49.8,59.1,49.1,59.2,48.1,59.1z"/><path d="M57.5,59.9l-5.1-0.5l0.8-7.6l5.1,0.5l-0.1,0.8l-4.1-0.4l-0.3,2.5l4,0.4l-0.1,0.8l-4-0.4l-0.3,2.6l4.1,0.4L57.5,59.9z"/><path d="M60,60.2l-1-0.1l0.8-7.6l3.1,0.3c0.8,0.1,1.3,0.4,1.7,0.8s0.6,1.1,0.5,1.7c-0.1,0.6-0.3,1.2-0.8,1.6 c-0.5,0.4-1.1,0.6-1.8,0.5l-2.2-0.2L60,60.2z M62.4,56.5c0.5,0,0.8,0,1.2-0.3c0.3-0.2,0.5-0.6,0.5-1s-0.1-0.8-0.3-1.1 c-0.3-0.3-0.6-0.5-1.1-0.5l-2-0.2l-0.3,2.9L62.4,56.5z"/><path d="M76.9,62l-5.3-0.6l0.1-0.8c1.7-1.1,2.9-1.9,3.6-2.5s1.1-1.2,1.2-1.8c0-0.5-0.1-0.8-0.4-1.1s-0.7-0.4-1.1-0.5 c-0.9-0.1-1.6,0.2-2.2,0.7l-0.5-0.7c0.3-0.4,0.8-0.6,1.2-0.8c0.5-0.2,1-0.2,1.6-0.2c0.7,0.1,1.3,0.3,1.8,0.8s0.7,1,0.6,1.7 s-0.5,1.4-1.2,2s-1.7,1.4-3.1,2.2l3.8,0.4L76.9,62z"/><path d="M81.4,62.6c-0.5-0.1-1-0.2-1.3-0.5c-0.4-0.3-0.6-0.6-0.8-1c-0.2-0.4-0.3-0.8-0.4-1.3s-0.1-0.9,0-1.4s0.2-0.9,0.3-1.4 c0.2-0.4,0.4-0.8,0.6-1.2c0.3-0.4,0.6-0.6,1-0.8s0.9-0.3,1.4-0.2s0.9,0.2,1.3,0.5s0.7,0.6,0.8,1c0.2,0.4,0.3,0.8,0.4,1.3 s0.1,0.9,0,1.4s-0.2,0.9-0.3,1.4s-0.4,0.8-0.6,1.2c-0.3,0.4-0.6,0.6-1,0.8C82.3,62.5,81.9,62.6,81.4,62.6z M80.3,61.1 c0.3,0.3,0.7,0.5,1.1,0.6s0.9-0.1,1.2-0.4c0.3-0.3,0.6-0.6,0.8-1.1c0.2-0.4,0.3-0.9,0.3-1.5c0.1-0.5,0-1,0-1.5s-0.2-0.9-0.5-1.2 s-0.7-0.5-1.1-0.6s-0.9,0.1-1.2,0.3c-0.3,0.3-0.6,0.6-0.8,1.1c-0.2,0.4-0.3,0.9-0.3,1.5c-0.1,0.5-0.1,1,0,1.5S80.1,60.8,80.3,61.1 z"/><path d="M88,63.1L87,63l0.7-6.4l-1.4,1.2l-0.5-0.6l2.1-1.8l0.9,0.1L88,63.1z"/><path d="M91.4,63.5l-1.1-0.1l3.8-6.4l-4.2-0.4l0.1-0.8l5.3,0.5L95.2,57L91.4,63.5z"/></g></g></svg>