<svg width="662" height="501" viewBox="0 0 662 501" version="1.1" xmlns="http://www.w3.org/2000/svg" xmlns:xlink="http://www.w3.org/1999/xlink"><title>uE042-camera-thin</title><desc>Created with Sketch.</desc><g id="Page-1" stroke="none" stroke-width="1" fill="none" fill-rule="evenodd"><path d="M95.5882627,0.789978027 C90.5169377,0.863507461 88.3485547,5.22674404 88.2353193,8.14292137 L88.2353193,59.6135247 L58.823546,59.6135247 C26.3625055,59.6135247 0,85.9760325 0,118.437071 L0,441.966431 C0,474.42747 26.3625063,500.789978 58.823546,500.789978 L602.941353,500.789978 C635.402392,500.789978 661.7649,474.42747 661.7649,441.966431 L661.7649,118.437071 C661.7649,85.9760325 635.402392,59.6135247 602.941353,59.6135247 L235.294186,59.6135247 L235.294186,8.14292137 C235.293451,4.29292023 231.791244,0.789978027 227.941243,0.789978027 L95.5882627,0.789978027 L95.5882627,0.789978027 Z M102.941206,15.4958647 L220.588299,15.4958647 L220.588299,59.6135247 L102.941206,59.6135247 L102.941206,15.4958647 Z M58.823546,74.3194114 L602.941353,74.3194114 C627.509743,74.3194114 647.059013,93.8686819 647.059013,118.437071 L647.059013,441.966431 C647.059013,466.534821 627.509743,486.084091 602.941353,486.084091 L58.823546,486.084091 C34.2551557,486.084091 14.7058845,466.534821 14.7058845,441.966431 L14.7058845,118.437071 C14.7058845,93.8686819 34.2551557,74.3194114 58.823546,74.3194114 L58.823546,74.3194114 Z M330.88245,125.790015 C245.691248,125.790015 176.470639,195.009888 176.470639,280.201678 C176.470639,365.393615 245.691248,434.613488 330.88245,434.613488 C416.075122,434.613488 485.29426,365.393615 485.29426,280.201678 C485.29426,195.009888 416.075122,125.790015 330.88245,125.790015 L330.88245,125.790015 Z M566.176636,125.790015 C550.020014,125.790015 536.764863,139.045166 536.764863,155.201788 C536.764863,171.358411 550.020014,184.613562 566.176636,184.613562 C582.333259,184.613562 595.58841,171.358411 595.58841,155.201788 C595.58841,139.045166 582.333259,125.790015 566.176636,125.790015 Z M330.88245,140.495901 C408.12806,140.495901 470.588373,202.957685 470.588373,280.201678 C470.588373,357.445818 408.12806,419.907601 330.88245,419.907601 C253.638309,419.907601 191.176526,357.445818 191.176526,280.201678 C191.176526,202.957685 253.638309,140.495901 330.88245,140.495901 L330.88245,140.495901 Z M566.176636,140.495901 C574.384727,140.495901 580.882523,146.992962 580.882523,155.201788 C580.882523,163.410614 574.384727,169.907675 566.176636,169.907675 C557.968546,169.907675 551.47075,163.410614 551.47075,155.201788 C551.47075,146.992962 557.968546,140.495901 566.176636,140.495901 Z M330.88245,199.319448 C286.300083,199.319448 250.000073,235.618577 250.000073,280.201678 C250.000073,324.784779 286.300083,361.084055 330.88245,361.084055 C375.464816,361.084055 411.764826,324.784779 411.764826,280.201678 C411.764826,235.618577 375.464816,199.319448 330.88245,199.319448 Z M330.88245,214.025335 C367.517754,214.025335 397.05894,243.566373 397.05894,280.201678 C397.05894,316.836983 367.517754,346.378168 330.88245,346.378168 C294.247145,346.378168 264.705959,316.836983 264.705959,280.201678 C264.705959,243.566373 294.247145,214.025335 330.88245,214.025335 Z" id="uE042-camera-thin" fill="#000" fill-rule="nonzero"/></g></svg>