<?xml version="1.0" encoding="UTF-8"?>
<svg width="500px" height="500px" viewBox="0 0 500 500" version="1.1" xmlns="http://www.w3.org/2000/svg" xmlns:xlink="http://www.w3.org/1999/xlink">
    <!-- Generator: Sketch 43.1 (39012) - http://www.bohemiancoding.com/sketch -->
    <title>uE059-tickets-5</title>
    <desc>Created with Sketch.</desc>
    <defs></defs>
    <g id="Page-1" stroke="none" stroke-width="1" fill="none" fill-rule="evenodd">
        <path d="M439.189506,104.292574 L432.970251,110.511829 C420.988522,122.493558 401.481612,122.493558 389.494027,110.511829 C377.500586,98.5183884 377.506442,79.0173343 389.494027,67.0297494 L395.707426,60.8163504 L334.885219,0 L0,334.885219 L60.8222066,395.707426 L67.0356055,389.494027 C79.0231904,377.500586 98.5242446,377.500586 110.517686,389.494027 C122.499414,401.481612 122.505271,420.982666 110.517686,432.970251 L104.298431,439.189506 L165.114781,500 L500,165.114781 L439.189506,104.292574 Z M128.578121,438.621457 C141.531975,419.805575 139.652143,393.792457 122.932771,377.067229 C106.219255,360.353713 80.1944249,358.468025 61.3843992,371.421879 L24.8418833,334.885219 L334.885219,24.8418833 L371.421879,61.3843992 C358.468025,80.1944249 360.347857,106.213399 377.067229,122.932771 C393.786601,139.646287 419.805575,141.537831 438.621457,128.578121 L475.158117,165.114781 L165.114781,475.158117 L128.578121,438.621457 Z M197.375914,207.364434 C196.988552,206.977354 196.356712,206.981386 195.965901,207.372197 L185.028178,218.30992 C184.636811,218.701287 184.634823,219.333832 185.020651,219.719659 L275.673448,310.372456 C276.060658,310.759667 276.6933,310.754942 277.076246,310.372147 L288.063786,299.388939 C288.45132,299.001558 288.450077,298.372351 288.064099,297.986654 L197.375914,207.364434 Z M162.23948,271.782756 L229.501774,338.979435 C229.882327,339.359617 229.889596,339.994765 229.502062,340.382146 L218.514522,351.365354 C218.131576,351.748149 217.498707,351.752646 217.111217,351.365156 L149.884124,284.138063 C149.503769,283.757708 149.499776,283.119184 149.891144,282.727816 L160.828866,271.790094 C161.219678,271.399282 161.851787,271.395441 162.23948,271.782756 Z M270.443898,143.353244 C263.16678,143.353244 257.26751,137.453975 257.26751,130.176856 C257.26751,122.899738 263.16678,117.000468 270.443898,117.000468 C277.721016,117.000468 283.620286,122.899738 283.620286,130.176856 C283.620286,137.453975 277.721016,143.353244 270.443898,143.353244 Z M303.566409,176.481612 C296.289291,176.481612 290.390021,170.582342 290.390021,163.305224 C290.390021,156.028106 296.289291,150.128836 303.566409,150.128836 C310.843527,150.128836 316.742797,156.028106 316.742797,163.305224 C316.742797,170.582342 310.843527,176.481612 303.566409,176.481612 Z M336.694776,209.609979 C329.417658,209.609979 323.518388,203.710709 323.518388,196.433591 C323.518388,189.156473 329.417658,183.257203 336.694776,183.257203 C343.971894,183.257203 349.871164,189.156473 349.871164,196.433591 C349.871164,203.710709 343.971894,209.609979 336.694776,209.609979 Z M369.823144,242.738346 C362.546025,242.738346 356.646756,236.839076 356.646756,229.561958 C356.646756,222.28484 362.546025,216.38557 369.823144,216.38557 C377.100262,216.38557 382.999532,222.28484 382.999532,229.561958 C382.999532,236.839076 377.100262,242.738346 369.823144,242.738346 Z" id="uE059-tickets-5" fill="#000000" fill-rule="nonzero"></path>
    </g>
</svg>