<?xml version="1.0" encoding="UTF-8"?>
<svg width="982px" height="500px" viewBox="0 0 982 500" version="1.1" xmlns="http://www.w3.org/2000/svg" xmlns:xlink="http://www.w3.org/1999/xlink">
    <!-- Generator: Sketch 43.1 (39012) - http://www.bohemiancoding.com/sketch -->
    <title>uE053-tickets-2</title>
    <desc>Created with Sketch.</desc>
    <defs></defs>
    <g id="Page-1" stroke="none" stroke-width="1" fill="none" fill-rule="evenodd">
        <path d="M981.75556,158.83313 C931.420825,158.83313 890.588691,199.651433 890.588691,250 C890.588691,300.348567 931.420825,341.16687 981.75556,341.16687 L981.75556,500 L0,500 L0,341.16687 C50.334735,341.16687 91.1668695,300.348567 91.1668695,250 C91.1668695,199.651433 50.334735,158.83313 0,158.83313 L0,0 L981.75556,0 L981.75556,158.83313 Z M786.544207,215.378444 L786.544207,181.987938 C786.544207,163.466858 784.344915,151.944783 779.946332,147.435543 C775.56158,142.912471 766.1973,140.657851 751.853491,140.657851 C737.509682,140.657851 728.159234,142.870975 723.815979,147.297223 C719.458891,151.72347 717.287263,163.287042 717.287263,181.987938 L717.287263,218.103353 C717.287263,226.62388 718.338497,232.889786 720.427133,236.887241 C722.501936,240.884696 726.029103,244.425694 730.980967,247.441076 L749.363727,258.672679 C752.586588,260.747483 754.633728,262.434989 755.505146,263.762864 C756.362731,265.063074 756.805356,267.539006 756.805356,271.190661 L756.805356,328.690384 C756.805356,331.387629 756.390395,333.37944 755.574306,334.693482 C754.744384,336.007525 753.499502,336.65763 751.853491,336.65763 C750.110656,336.65763 748.865774,336.062853 748.132677,334.900963 C747.39958,333.711409 747.026115,331.650437 747.026115,328.690384 L747.026115,266.764413 L717.287263,266.764413 L717.287263,318.012062 C717.287263,336.602302 719.486555,348.152042 723.885139,352.619785 C728.26989,357.101361 737.28837,359.342149 750.940578,359.342149 C765.892995,359.342149 775.56158,357.129025 779.946332,352.702777 C784.344915,348.248866 786.544207,336.699126 786.544207,318.012062 L786.544207,269.351001 C786.544207,261.010291 785.479141,254.758216 783.34901,250.580945 C781.205046,246.417506 777.622552,242.793516 772.587695,239.764302 L754.467744,228.809339 C751.327874,226.803696 749.308399,225.102357 748.395485,223.732987 C747.482572,222.32212 747.026115,219.7217 747.026115,215.890229 L747.026115,171.281952 C747.026115,168.349563 747.371915,166.316255 748.077349,165.237358 C748.76895,164.144628 750.013832,163.605179 751.853491,163.605179 C753.582494,163.605179 754.85504,164.213788 755.643466,165.431006 C756.418059,166.648224 756.805356,168.598539 756.805356,171.281952 L756.805356,215.378444 L786.544207,215.378444 Z M688.405998,164.130796 L688.405998,141.432444 L631.556379,141.432444 L631.556379,164.130796 L645.236251,164.130796 L645.236251,358.290915 L674.850614,358.290915 L674.850614,164.130796 L688.405998,164.130796 Z M602.135664,164.130796 L602.135664,141.432444 L554.926967,141.432444 L554.926967,358.290915 L602.135664,358.290915 L602.135664,335.357419 L584.527498,335.357419 L584.527498,250.968242 L602.135664,250.968242 L602.135664,228.020914 L584.527498,228.020914 L584.527498,164.130796 L602.135664,164.130796 Z M523.016488,358.290915 L504.384752,236.237136 L523.016488,141.432444 L493.678765,141.432444 L482.723802,227.108 L481.160783,227.108 L481.160783,141.432444 L452.348678,141.432444 L452.348678,358.290915 L481.160783,358.290915 L481.160783,251.756667 L482.723802,251.756667 L493.678765,358.290915 L523.016488,358.290915 Z M418.086754,215.378444 L418.086754,181.987938 C418.086754,163.287042 415.915127,151.72347 411.571871,147.297223 C407.214784,142.870975 397.919664,140.657851 383.658847,140.657851 C369.232046,140.657851 359.812438,142.912471 355.427686,147.435543 C351.042935,151.944783 348.843643,163.466858 348.843643,181.987938 L348.843643,318.012062 C348.843643,336.782118 351.042935,348.373354 355.427686,352.758106 C359.812438,357.156689 369.494854,359.342149 384.447272,359.342149 C398.182472,359.342149 407.214784,357.129025 411.571871,352.702777 C415.915127,348.248866 418.086754,336.699126 418.086754,318.012062 L418.086754,266.764413 L388.361735,266.764413 L388.361735,328.690384 C388.361735,331.567445 387.98827,333.600752 387.255173,334.831803 C386.508244,336.049021 385.304858,336.65763 383.658847,336.65763 C381.83302,336.65763 380.53281,336.049021 379.758216,334.831803 C378.969791,333.600752 378.582494,331.567445 378.582494,328.690384 L378.582494,171.281952 C378.582494,168.501715 378.969791,166.537568 379.758216,165.361846 C380.53281,164.186124 381.83302,163.605179 383.658847,163.605179 C385.304858,163.605179 386.508244,164.186124 387.255173,165.361846 C387.98827,166.537568 388.361735,168.501715 388.361735,171.281952 L388.361735,215.378444 L418.086754,215.378444 Z M282.657408,358.290915 L312.25794,358.290915 L312.25794,141.432444 L282.657408,141.432444 L282.657408,358.290915 Z M252.060972,164.130796 L252.060972,141.432444 L195.211353,141.432444 L195.211353,164.130796 L208.891225,164.130796 L208.891225,358.290915 L238.505588,358.290915 L238.505588,164.130796 L252.060972,164.130796 Z" id="uE053-tickets-2" fill="#000000"></path>
    </g>
</svg>