<?xml version="1.0" encoding="UTF-8"?>
<svg width="108px" height="63px" viewBox="0 0 108 63" version="1.1" xmlns="http://www.w3.org/2000/svg" xmlns:xlink="http://www.w3.org/1999/xlink">
    <!-- Generator: Sketch 43.1 (39012) - http://www.bohemiancoding.com/sketch -->
    <title>uE056-nbcuxlogo</title>
    <desc>Created with Sketch.</desc>
    <defs></defs>
    <g id="Page-1" stroke="none" stroke-width="1" fill="none" fill-rule="evenodd">
        <path d="M60.2406237,47.0097354 L73.6560846,18.3597447 C74.2194885,17.1548252 74.5025383,15.7575673 74.567395,14.3881855 C74.6432264,10.6798658 72.378483,6.96333774 68.9913948,5.45566356 C66.391306,4.12167958 62.7622076,4.39723076 60.3340537,5.84803977 C57.9201671,7.27492707 56.3589588,9.50504225 55.8231718,12.0992782 L59.0202725,12.1319706 C59.3128985,12.2795746 59.9385466,12.4271786 59.8124317,12.8709682 L57.666508,14.1397761 C56.7707161,14.7551488 56.1506146,15.5736057 55.8633476,16.5362247 C55.9986325,17.722381 56.150887,19.1282031 56.2065853,19.9071677 L56.9919514,26.4069999 C58.016093,32.8594831 59.4128481,41.682911 60.2406237,47.0097354 Z M99.9699,61.0397 C98.2139,61.8177 96.2699,62.1647 94.1979,62.1647 L11.2059,62.0997 C6.5129,61.7317 1.9049,57.8607 0.5929,53.2317 C-0.8011,48.6027 0.5509,43.8217 3.6159,40.4477 C6.5759,37.3977 10.3809,36.1227 14.6099,36.5987 C10.6349,33.8937 8.9639,29.4167 9.5359,24.6137 C10.0649,20.4407 13.0869,16.3737 16.9559,14.7087 C21.3739,12.7187 26.9539,13.8007 30.4209,17.1517 C29.7019,14.7087 29.3229,11.2047 30.3159,8.6947 C31.4989,4.7367 35.3459,1.2117 39.2569,0.3897 C44.4789,-0.7343 49.4469,1.2327 52.4479,5.7107 C53.0189,6.5547 53.3579,7.5067 53.8009,8.3937 C55.3019,4.1097 59.6349,0.5617 64.0329,0.1077 C68.5769,-0.4763 72.8689,1.4707 75.7229,5.2997 C77.9429,8.4787 78.7029,13.2157 77.2659,17.0447 L77.4359,17.0447 C80.7319,14.0817 85.7219,12.9997 89.9709,14.6437 C94.0299,15.9847 97.4749,20.3107 98.0249,24.5717 C98.6369,29.2867 97.0309,33.4187 93.4589,36.4687 C98.8699,36.1437 104.0059,39.0197 106.2259,44.0607 C108.1719,48.4517 107.6019,54.3347 104.3029,57.9037 C102.9719,59.2447 101.5549,60.3687 99.9699,61.0397 Z M62.6780483,52.8920158 L89.7738033,35.5875213 C91.1356928,34.7305181 92.4671266,33.5179019 93.3761875,32.1480862 C95.4018072,29.2232773 95.3752115,24.4456693 93.4513625,21.4900284 C91.583364,18.5353624 88.5871528,16.8531532 85.1741646,16.7935793 C81.6118262,16.7885579 78.3124437,18.7722519 76.522575,21.9436705 L72.0701006,31.7761871 L62.6780483,52.8920158 Z M44.843904,4.62837634 C41.2383411,3.70434756 37.7400163,4.86378168 35.2591863,7.59984513 C32.9387913,10.2094096 32.3671365,14.4500567 33.7240778,17.6745233 L46.3443924,47.8089197 L51.73416,15.1914578 C51.8042448,13.923955 51.8591304,12.5291156 51.5019517,11.3688437 C50.7512853,8.270876 47.8955444,5.37145297 44.843904,4.62837634 Z M13.0697918,26.2569185 C12.6891957,29.7601362 13.8696448,32.7834727 16.5028881,35.0507619 L43.999447,53.7098708 L31.5935632,23.9154736 C31.0497319,22.6991496 30.3959315,21.5194773 29.3426342,20.5230633 C26.8356834,17.9608559 23.0769756,17.1127534 19.6266965,18.1816183 C16.2666265,19.2513356 13.4512469,22.7170492 13.0697918,26.2569185 Z M5.02614774,54.3595284 C6.69633368,57.5915253 9.43462043,59.4911948 12.9866559,59.8908931 L47.2227997,59.8979518 L19.5882482,41.4650695 C18.4276557,40.741554 17.1932478,40.1133307 15.7213853,39.8768647 C12.1106532,39.1507021 8.52482266,40.6321443 6.04800272,43.577382 C3.7748423,46.4696796 3.33461757,51.0984144 5.02614774,54.3595284 Z M102.864052,53.5491355 C104.46211,50.4682285 104.046212,46.0952745 101.899505,43.3628034 C99.558712,40.5803177 96.1710321,39.180739 92.7589865,39.8667743 C91.3692984,40.0901734 90.203103,40.6836814 89.1058039,41.367216 L63,58.7815092 L95.3434367,58.7748406 C98.7008694,58.3972294 101.28616,56.6025344 102.864052,53.5491355 Z" id="uE056-nbcuxlogo" fill="#000000"></path>
    </g>
</svg>