<svg version="1.1" id="Layer_1" xmlns="http://www.w3.org/2000/svg" xmlns:xlink="http://www.w3.org/1999/xlink" x="0" y="0" viewBox="0 0 126 133.9" xml:space="preserve" enable-background="new 0 0 126 133.9"><style type="text/css">.st0{fill-rule:evenodd;clip-rule:evenodd}</style><g><g><path d="M125.9,45.3L125.9,45.3c0.2-1.3,0-2.7-0.5-4c-0.5-1.3-1.4-2.4-2.4-3.2L76,1.8c-1-0.9-2.3-1.5-3.7-1.7c-0.1,0-0.2,0-0.3,0 c-1.4-0.2-2.8,0-4,0.5l0,0L13,23.2l0,0c-1.4,0.5-2.5,1.4-3.4,2.5C8.8,26.7,8.2,28,8,29.5L0.1,88.6l0,0c-0.2,1.4,0,2.7,0.5,4 C1.1,93.8,2,95,3,95.8l0,0c15.3,11.8,30.5,23.5,45.8,35.3L50,132l0,0c1.2,0.9,2.5,1.5,3.9,1.8l0.1,0c1.3,0.2,2.7,0,4-0.5l0.3-0.1 c9.3-3.5,18.5-7.4,27.6-11.4c8.9-3.8,17.8-7.7,26.8-11c1.4-0.5,2.6-1.4,3.6-2.5c0.9-1.1,1.5-2.4,1.7-3.9l0,0L125.9,45.3z M115.6,104.1L115.6,104.1c-0.1,1-0.5,1.9-1.1,2.6c-0.6,0.8-1.5,1.4-2.5,1.7c-9.1,3.4-18,7.2-26.9,11.1c-9.2,4-18.5,8-27.9,11.4 l-0.7,0.3c-0.7,0.2-1.4,0.2-2.1,0.1l-0.1,0c-1-0.2-1.9-0.6-2.7-1.3l0,0l-1.2-0.9c-15.3-11.8-30.5-23.5-45.8-35.3l0,0 c-0.7-0.6-1.3-1.4-1.7-2.2c-0.4-0.9-0.5-1.8-0.4-2.7l0,0l7.9-59.1c0.1-1,0.5-1.9,1.1-2.6c0.6-0.7,1.4-1.3,2.4-1.7l0,0L68.9,2.9 l0,0c0.8-0.3,1.8-0.5,2.8-0.4c0.1,0,0.1,0,0.2,0c0.9,0.1,1.8,0.5,2.5,1.1l0.1,0.1l0,0l47,36.3c0.7,0.6,1.3,1.4,1.7,2.2 c0.4,0.9,0.5,1.8,0.4,2.7l0,0L115.6,104.1z"/><path d="M121.4,46.8L121.4,46.8c0.2-1.2,0-2.5-0.5-3.7c-0.5-1.2-1.3-2.2-2.3-3L75,6.5c-1-0.9-2.2-1.4-3.5-1.6c-0.1,0-0.2,0-0.2,0 c-1.3-0.2-2.6,0-3.7,0.5l0,0l-51,21c-1.3,0.5-2.3,1.3-3.2,2.3c-0.8,1-1.3,2.2-1.5,3.5L4.6,87l0,0c-0.2,1.3,0,2.6,0.5,3.7 c0.5,1.2,1.3,2.2,2.3,3l0,0c14.2,10.9,28.3,21.9,42.5,32.8l1.1,0.8l0,0c1.1,0.9,2.3,1.4,3.6,1.6l0.1,0c1.2,0.2,2.5,0,3.7-0.5 l0.3-0.1c8.7-3.2,17.2-6.9,25.7-10.5c8.3-3.6,16.5-7.1,24.9-10.2c1.3-0.5,2.5-1.3,3.3-2.3c0.8-1,1.4-2.2,1.6-3.6l0,0L121.4,46.8z M112.9,101c-0.4,2.7-2.2,4.8-4.8,5.8c-8.2,3.1-16.2,6.5-24.3,10c-8.3,3.6-16.6,7.2-25.1,10.3c-1.4,0.5-2.7,0.7-3.9,0.6 c-1.3-0.2-2.5-0.7-3.6-1.6l0,0L8.6,93.2c-1.3-0.6-3.1-3.8-2.7-6.6l0,0l7.2-53.7c0.4-2.6,2.1-4.7,4.6-5.7l0,0L67.5,6.7l0,0 c1.1-0.5,2.4-0.6,3.7-0.5c1.3,0.2,2.6,0.7,3.6,1.6l42.7,32.9c2,1.5,3,4.1,2.7,6.6l0,0L112.9,101L112.9,101z"/></g><g><path d="M32.6,108.1L37,95.8l1.7,0.2l1,13.1l-1.7-0.2l-0.2-3.3l-2.6-0.3l-1,3.1L32.6,108.1z M35.7,104l2.1,0.3l-0.3-5.9L35.7,104z"/><path d="M41,109.2l1.7-12.7l2.6,0.3c1.3,0.2,2.2,0.6,2.7,1.2c0.5,0.6,0.7,1.5,0.6,2.7c-0.2,1.6-0.9,2.6-2,2.8l1,6.6l-1.7-0.2 l-0.9-6.2l-1.4-0.2l-0.8,6L41,109.2z M43.7,102.2l0.7,0.1c0.8,0.1,1.3,0,1.7-0.2c0.4-0.3,0.6-0.8,0.7-1.6c0.1-0.8,0-1.3-0.2-1.7 c-0.2-0.3-0.8-0.6-1.5-0.7L44.3,98L43.7,102.2z"/><path d="M49.1,110.3l1.7-12.7l2.6,0.3c1.3,0.2,2.2,0.6,2.7,1.2c0.5,0.6,0.7,1.5,0.6,2.7c-0.2,1.6-0.9,2.6-2,2.8l1,6.6l-1.7-0.2 l-0.9-6.2l-1.4-0.2l-0.8,6L49.1,110.3z M51.9,103.3l0.7,0.1c0.8,0.1,1.3,0,1.7-0.2c0.4-0.3,0.6-0.8,0.7-1.6c0.1-0.8,0-1.3-0.2-1.7 c-0.2-0.3-0.8-0.6-1.5-0.7l-0.8-0.1L51.9,103.3z"/><path d="M57.3,111.4L59,98.7l1.7,0.2l-1.7,12.7L57.3,111.4z"/><path d="M63.4,112.2l-1.1-13.1l1.7,0.2l0.8,9.6l3.2-9.1l1.6,0.2l-4.5,12.3L63.4,112.2z"/><path d="M67.9,112.9l4.4-12.3l1.7,0.2l1,13.1l-1.7-0.2l-0.2-3.3l-2.6-0.3l-1,3.1L67.9,112.9z M71,108.7l2.1,0.3l-0.3-5.9L71,108.7 z"/><path d="M76.3,114l1.7-12.7l1.8,0.2L78.3,113l3.2,0.4l-0.2,1.3L76.3,114z"/></g><rect x="63.9" y=".2" transform="matrix(0.133 -0.9911 0.9911 0.133 1.6843 111.5888)" class="st0" width="1.5" height="109.2"/><rect x="60.6" y="24.5" transform="matrix(0.133 -0.9911 0.9911 0.133 -25.1388 129.3638)" class="st0" width="1.5" height="109.2"/><path class="st0" d="M35.3,111.9l42.5,5.7l-1.9,0.8l-39-5.2L35.3,111.9L35.3,111.9z M40,115.5l32.6,4.4l-1.9,0.8l-29.1-3.9 L40,115.5L40,115.5z M44.6,119.1l22.6,3c-0.6,0.3-1.3,0.5-1.9,0.8l-19.1-2.6L44.6,119.1L44.6,119.1z M49.2,122.6l12.5,1.7 c-0.7,0.3-1.3,0.5-2,0.8l-8.9-1.2L49.2,122.6z"/><polygon class="st0" points="29.8,29 30.5,32.7 34.3,33.2 30.9,35 31.6,38.8 28.8,36.1 25.5,38 27.2,34.5 24.4,31.9 28.2,32.4"/><polygon class="st0" points="97.7,38.5 98.4,42.3 102.2,42.8 98.8,44.6 99.5,48.3 96.7,45.7 93.4,47.5 95,44.1 92.3,41.4 96.1,41.9"/><g><path d="M83.5,40.8c-0.5,2.6-1.4,4.9-3.6,6.6c-2.2,1.7-4.7,2-7.4,1.7c-2.3-0.2-4.6-0.5-6.9-0.8c-2.3-0.3-4.6-0.6-6.9-1 c-2.7-0.5-4.9-1.4-6.6-3.6c-1.7-2.2-2-4.6-1.8-7.3c0.2-2.3,0.5-4.6,0.8-6.8s0.6-4.5,1-6.8c0.5-2.6,1.4-4.9,3.6-6.6 c2.2-1.7,4.7-2,7.4-1.7c2.3,0.2,4.6,0.5,6.9,0.8c2.3,0.3,4.6,0.6,6.9,1c2.7,0.5,4.9,1.4,6.6,3.6c1.7,2.2,2,4.6,1.8,7.3 c-0.2,2.3-0.5,4.6-0.8,6.8C84.3,36.3,84,38.6,83.5,40.8z M59.8,17.5c-0.8,0.2-1.4,0.5-2.1,1c-0.7,0.5-1.1,1-1.5,1.7 c-1.2,2.1-1.7,7.3-2,9.7c-0.3,2.4-1.2,7.6-0.6,9.8c0.2,0.8,0.5,1.4,1,2.1c0.5,0.7,1,1.1,1.7,1.5c2.1,1.2,7.3,1.7,9.8,2 c2.4,0.3,7.6,1.2,9.9,0.7c0.8-0.2,1.4-0.5,2.1-1c0.7-0.5,1.1-1,1.5-1.7c1.2-2.1,1.7-7.3,2-9.7c0.3-2.4,1.2-7.6,0.6-9.8 c-0.2-0.8-0.5-1.4-1-2.1c-0.5-0.7-1-1.1-1.7-1.5c-2.1-1.2-7.3-1.7-9.8-2C67.3,17.9,62.1,17,59.8,17.5z M66.7,40.2 c-4.7-0.6-8-5-7.4-9.6c0.6-4.7,5-8,9.7-7.3c4.7,0.6,8,5,7.4,9.6C75.8,37.6,71.5,40.9,66.7,40.2z M68.6,26.3 c-3.1-0.4-5.9,1.7-6.3,4.8s1.8,5.9,4.8,6.3c3.1,0.4,5.9-1.7,6.3-4.8S71.7,26.7,68.6,26.3z M77.7,26.1C76.6,26,75.8,25,76,23.9 s1.2-1.9,2.3-1.7c1.1,0.2,1.9,1.2,1.7,2.3S78.8,26.3,77.7,26.1z"/></g><g><path d="M25.7,89l-6.5-0.9l0.1-0.9c2.1-1.2,3.6-2.2,4.5-2.9c0.9-0.7,1.4-1.4,1.5-2.2c0.1-0.6-0.1-1-0.4-1.3 c-0.4-0.3-0.8-0.5-1.3-0.6c-1.1-0.1-2,0.1-2.7,0.8l-0.6-0.8c0.4-0.4,0.9-0.7,1.6-0.9s1.3-0.2,1.9-0.1c0.9,0.1,1.6,0.4,2.1,1 c0.6,0.6,0.8,1.3,0.7,2.1c-0.1,0.9-0.6,1.7-1.5,2.4c-0.9,0.8-2.2,1.6-3.9,2.6l4.6,0.6L25.7,89z"/><path d="M30.6,89.8c-1.1-0.1-1.9-0.6-2.5-1.5l0.7-0.8c0.5,0.7,1.1,1.1,1.9,1.2c0.6,0.1,1.1,0,1.6-0.4s0.8-0.7,1.1-1.2 c0.2-0.5,0.4-1.1,0.5-1.7c0-0.2,0-0.3,0-0.4c-0.3,0.3-0.7,0.6-1.2,0.9c-0.5,0.2-1.1,0.3-1.6,0.2c-0.9-0.1-1.6-0.5-2.1-1.1 c-0.5-0.6-0.7-1.4-0.6-2.3c0.1-0.8,0.5-1.5,1.2-2c0.7-0.5,1.5-0.7,2.5-0.6c0.6,0.1,1.2,0.3,1.6,0.6s0.8,0.7,1,1.2s0.4,1,0.4,1.6 c0.1,0.6,0.1,1.2,0,1.8c-0.1,0.9-0.3,1.6-0.7,2.3s-0.9,1.2-1.5,1.6C32.2,89.8,31.4,89.9,30.6,89.8z M31.5,85.3 c0.5,0.1,0.9,0,1.4-0.2c0.5-0.2,0.8-0.5,1.2-0.9c0-0.3,0-0.6-0.1-0.9c-0.1-0.3-0.2-0.6-0.3-0.9s-0.4-0.5-0.6-0.7 c-0.3-0.2-0.6-0.3-1-0.4c-0.7-0.1-1.2,0-1.7,0.4c-0.4,0.4-0.7,0.8-0.8,1.3c-0.1,0.6,0.1,1.2,0.4,1.6C30.3,85,30.8,85.2,31.5,85.3z"/><path d="M46.6,92c-1.5-0.2-2.7-0.9-3.4-2l0.8-0.8c0.7,1,1.6,1.6,2.8,1.7c0.8,0.1,1.3,0,1.8-0.3s0.6-0.6,0.7-1.1 c0.1-0.4-0.1-0.8-0.4-1.1c-0.3-0.3-0.8-0.6-1.3-0.8c-0.5-0.2-1.1-0.4-1.6-0.7s-1-0.6-1.3-1s-0.5-0.9-0.4-1.6 c0.1-0.8,0.5-1.3,1.2-1.7c0.7-0.4,1.5-0.5,2.4-0.4c1.4,0.2,2.4,0.8,3.2,1.7l-0.8,0.8c-0.6-0.8-1.4-1.3-2.6-1.5 c-0.6-0.1-1,0-1.4,0.2c-0.4,0.2-0.6,0.6-0.7,1c0,0.3,0.1,0.6,0.3,0.9c0.2,0.2,0.6,0.5,1,0.6c0.4,0.2,0.8,0.3,1.3,0.6 c0.5,0.2,0.9,0.4,1.3,0.7c0.4,0.2,0.7,0.5,0.9,1s0.3,0.9,0.2,1.4c-0.1,0.8-0.5,1.4-1.1,1.8C48.7,92,47.8,92.1,46.6,92z"/><path d="M58.1,93.3l-6.2-0.8l1.2-9.3l6.2,0.8l-0.1,1l-5-0.7l-0.4,3l4.9,0.7l-0.1,1l-4.9-0.7l-0.4,3.2l5,0.7L58.1,93.3z"/><path d="M61.1,93.7L60,93.6l1.2-9.3l3.8,0.5c0.9,0.1,1.6,0.5,2.1,1.1s0.6,1.3,0.5,2.1c-0.1,0.8-0.5,1.4-1.1,1.9 c-0.6,0.5-1.4,0.6-2.3,0.5L61.6,90L61.1,93.7z M64.2,89.3c0.6,0.1,1,0,1.4-0.3c0.4-0.3,0.6-0.7,0.7-1.2c0.1-0.5,0-1-0.4-1.3 c-0.3-0.4-0.7-0.6-1.3-0.7l-2.5-0.3L61.8,89L64.2,89.3z"/><path d="M81.8,96.5l-6.5-0.9l0.1-0.9c2.1-1.2,3.6-2.2,4.5-2.9c0.9-0.7,1.4-1.4,1.5-2.2c0.1-0.6-0.1-1-0.4-1.3s-0.8-0.5-1.3-0.6 c-1.1-0.1-2,0.1-2.7,0.8l-0.6-0.8c0.4-0.4,0.9-0.7,1.6-0.9c0.6-0.2,1.3-0.2,1.9-0.1c0.9,0.1,1.6,0.4,2.1,1s0.8,1.3,0.7,2.1 c-0.1,0.9-0.6,1.7-1.5,2.4c-0.9,0.8-2.2,1.6-3.9,2.6l4.6,0.6L81.8,96.5z"/><path d="M87.1,97.4c-0.6-0.1-1.2-0.3-1.6-0.6c-0.4-0.3-0.8-0.8-1-1.3c-0.2-0.5-0.4-1-0.4-1.6c-0.1-0.6-0.1-1.1,0-1.7 c0.1-0.6,0.2-1.2,0.4-1.7s0.5-1,0.8-1.4c0.3-0.4,0.8-0.8,1.3-1c0.5-0.2,1.1-0.3,1.7-0.2c0.6,0.1,1.1,0.3,1.6,0.6s0.8,0.8,1,1.3 c0.2,0.5,0.4,1,0.4,1.6c0.1,0.6,0.1,1.1,0,1.7c-0.1,0.6-0.2,1.2-0.4,1.7c-0.2,0.5-0.5,1-0.8,1.4c-0.3,0.4-0.8,0.8-1.3,1 S87.8,97.4,87.1,97.4z M85.9,95.6c0.3,0.4,0.8,0.7,1.3,0.8s1.1-0.1,1.5-0.4c0.4-0.3,0.8-0.8,1-1.3c0.2-0.5,0.4-1.1,0.5-1.8 c0.1-0.7,0.1-1.3,0-1.8c-0.1-0.6-0.3-1-0.6-1.5c-0.3-0.4-0.8-0.7-1.3-0.8s-1.1,0.1-1.5,0.4c-0.4,0.3-0.7,0.8-1,1.3 c-0.2,0.5-0.4,1.1-0.5,1.8c-0.1,0.7-0.1,1.3,0,1.8C85.4,94.6,85.6,95.1,85.9,95.6z"/><path d="M95.2,98.3L94,98.1l1-7.7l-1.7,1.4l-0.6-0.8l2.7-2.1l1,0.1L95.2,98.3z"/><path d="M99.3,98.8L98,98.6l4.9-7.7l-5.1-0.7l0.1-1l6.4,0.9l-0.1,0.8L99.3,98.8z"/></g><g><path d="M18.6,52.9l2.4,0.3l-2.4,16.9l-2.4-0.3L18.6,52.9z"/><path d="M26.7,54l2,0.3l0.4,8.5l0.2,0l1.1-8.3l2.1,0.3l-2.4,16.9l-2-0.3l-0.3-9.2l-0.2,0l-1.1,9L24.3,71L26.7,54z"/><path d="M42.9,59.5l-0.4,2.6l-2.4-0.3l0.5-3.4c0-0.2,0-0.4,0-0.5c0-0.1-0.1-0.2-0.3-0.2c-0.1,0-0.3,0-0.3,0.1 c-0.1,0.1-0.1,0.2-0.2,0.5l-0.5,3.5c0,0.3,0,0.5,0,0.6c0.1,0.1,0.2,0.3,0.4,0.5l1.3,1.1c0.4,0.3,0.6,0.6,0.7,1 c0.1,0.3,0.1,0.8,0.1,1.5l-0.5,3.8c-0.2,1.5-0.5,2.3-0.9,2.6c-0.4,0.3-1.2,0.4-2.4,0.2c-1.1-0.2-1.8-0.4-2.1-0.8 c-0.3-0.4-0.4-1.3-0.1-2.8l0.6-4l2.4,0.3l-0.7,4.8c0,0.2,0,0.4,0,0.5c0,0.1,0.1,0.2,0.3,0.2c0.1,0,0.2,0,0.3-0.1 c0.1-0.1,0.1-0.2,0.2-0.5l0.6-4.5c0-0.3,0-0.5,0-0.6s-0.2-0.3-0.4-0.5L37.8,64c-0.4-0.3-0.6-0.6-0.7-0.9c-0.1-0.3-0.1-0.8,0-1.5 l0.4-2.8c0.2-1.5,0.5-2.3,0.9-2.6s1.2-0.4,2.3-0.2c1.1,0.2,1.9,0.4,2.2,0.8C43.1,57.2,43.1,58.1,42.9,59.5z"/><path d="M48.3,57.1l4.5,0.6l-0.2,1.8l-1.1-0.2l-2.1,15.1l-2.4-0.3L49.2,59l-1.1-0.2L48.3,57.1z"/><path d="M58.3,58.5l3.5,0.5l-1.1,17.1l-2.4-0.3l0.4-3.9l-1-0.1L57,75.5l-2.4-0.3L58.3,58.5z M59.7,61.2L58,69.9l0.9,0.1L59.7,61.2 L59.7,61.2z"/><path d="M73.7,63.8l-0.4,2.7l-2.4-0.3l0.5-3.5c0-0.2,0-0.4,0-0.5c-0.1-0.1-0.2-0.2-0.3-0.2c-0.2,0-0.3,0-0.4,0.1 c-0.1,0.1-0.1,0.2-0.2,0.5l-1.7,12.3c0,0.2,0,0.4,0,0.5c0.1,0.1,0.2,0.2,0.3,0.2c0.2,0,0.3,0,0.4-0.1s0.1-0.2,0.2-0.5l0.7-4.7 l-0.5-0.1l0.2-1.8l2.9,0.4l-1.2,8.8l-0.9-0.1l-0.2-0.9c-0.3,0.3-0.6,0.5-0.9,0.6c-0.3,0.1-0.7,0.1-1.2,0c-0.8-0.1-1.4-0.4-1.7-0.8 c-0.3-0.4-0.4-1-0.3-1.8L68,63c0.2-1.5,0.5-2.3,0.9-2.6c0.4-0.3,1.2-0.4,2.4-0.2s1.9,0.4,2.2,0.8S73.9,62.4,73.7,63.8z"/><path d="M79.7,61.4l3.1,0.4c0.9,0.1,1.6,0.4,1.8,0.8c0.3,0.4,0.3,1.4,0.1,2.9l-0.4,2.6c-0.1,0.7-0.3,1.2-0.5,1.6 c-0.2,0.4-0.5,0.6-0.9,0.8c0.4,0.3,0.6,0.6,0.7,0.9c0.1,0.4,0.1,0.9,0,1.7l-0.8,6l-2.4-0.3l0.9-6.7c0-0.2,0-0.4-0.1-0.5 s-0.2-0.2-0.5-0.2l-0.2,0l-1,7.3l-2.4-0.3L79.7,61.4z M81.8,63.5L81,69.4c0,0,0.1,0,0.1,0c0,0,0.1,0,0.1,0c0.2,0,0.3,0,0.5-0.1 s0.2-0.3,0.2-0.5l0.6-4.4c0.1-0.4,0-0.7,0-0.8c-0.1-0.1-0.2-0.2-0.5-0.2L81.8,63.5z"/><path d="M91.8,63.1l3.5,0.5l-1.1,17.1l-2.4-0.3l0.4-3.9l-1-0.1l-0.7,3.8l-2.4-0.3L91.8,63.1z M93.1,65.9l-1.6,8.7l0.9,0.1 L93.1,65.9L93.1,65.9z"/><path d="M102.1,64.6l2.6,0.4l-0.1,7.9l0.2,0l2.1-7.6l2.6,0.4L107,82.5l-2.1-0.3l1.6-10.2l-0.2,0l-2.4,10.1l-1.1-0.2l0.4-10.4 l-0.2,0l-1.2,10.2l-2.1-0.3L102.1,64.6z"/></g></g></svg>