<?xml version="1.0" encoding="UTF-8"?>
<svg width="480px" height="501px" viewBox="0 0 480 501" version="1.1" xmlns="http://www.w3.org/2000/svg" xmlns:xlink="http://www.w3.org/1999/xlink">
    <!-- Generator: Sketch 43.1 (39012) - http://www.bohemiancoding.com/sketch -->
    <title>uE058-get-tickets</title>
    <desc>Created with Sketch.</desc>
    <defs></defs>
    <g id="Page-1" stroke="none" stroke-width="1" fill="none" fill-rule="evenodd">
        <path d="M148.6504,481.1094 C138.6754,497.5744 119.8564,500.4674 104.5614,491.2024 C93.7934,484.6784 90.3134,475.1034 90.1464,466.5754 L102.3014,467.1124 C102.4984,472.2454 105.0554,478.0604 110.5184,481.3704 C120.0384,487.1364 131.3014,484.0404 137.2574,474.2084 C143.2134,464.3754 140.7434,452.9584 131.2224,447.1914 C126.6194,444.4024 121.0984,443.8314 117.8094,444.5054 L114.0274,450.7484 L127.7614,459.0684 L121.9004,468.7444 L97.0854,453.7124 L109.1864,433.7354 C118.0854,431.0194 127.8154,431.6864 137.1794,437.3594 C152.4734,446.6244 158.5774,464.7224 148.6504,481.1094 Z M87.2295,395.3369 L35.5675,427.4979 L12.8095,390.9409 L22.4905,384.9129 L38.4025,410.4729 L49.2465,403.7229 L33.6715,378.7049 L43.3535,372.6779 L58.9275,397.6949 L70.7005,390.3659 L54.7885,364.8069 L64.4705,358.7789 L87.2295,395.3369 Z M49.9775,306.6377 L0.8525,312.3027 L2.8905,329.9777 L-8.4395,331.2837 L-14.0005,283.0647 L-2.6705,281.7577 L-0.6425,299.3417 L48.4825,293.6767 L49.9775,306.6377 Z M79.0684,174.4438 L38.7834,145.7628 L28.4644,160.2558 L19.1734,153.6408 L47.3264,114.0998 L56.6164,120.7148 L46.3514,135.1338 L86.6354,163.8158 L79.0684,174.4438 Z M127.4551,124.4516 L93.9601,73.6446 L104.7771,66.5146 L138.2711,117.3216 L127.4551,124.4516 Z M167.8853,68.5498 C164.3963,50.0828 175.9373,34.9968 193.9553,31.5918 C207.0443,29.1198 216.0023,34.7618 221.6383,41.4958 L211.7173,48.9408 C208.2933,44.5748 202.1853,41.7358 196.0903,42.8878 C185.1533,44.9538 178.8393,54.7818 180.9733,66.0768 C183.1083,77.3718 192.5723,84.2188 203.5083,82.1528 C209.6043,81.0008 214.2553,76.1298 215.8503,70.8148 L227.7863,74.0368 C224.9783,82.2738 218.7303,90.9748 205.6423,93.4478 C187.6233,96.8518 171.3573,86.9268 167.8853,68.5498 Z M302.5713,101.2949 L291.8253,72.6249 L285.6463,76.7939 L280.3473,94.7299 L267.9233,91.0589 L285.1653,32.7009 L297.5893,36.3709 L289.9113,62.3569 L318.2373,42.4709 L333.5483,46.9949 L302.2723,67.5299 L317.8823,105.8179 L302.5713,101.2949 Z M348.3486,125.2578 L389.3736,80.3138 L421.1786,109.3448 L413.4916,117.7678 L391.2546,97.4708 L382.6436,106.9038 L404.4076,126.7708 L396.7196,135.1938 L374.9536,115.3268 L365.6056,125.5698 L387.8416,145.8668 L380.1536,154.2898 L348.3486,125.2578 Z M408.3232,200.5058 L454.0322,181.6328 L447.2432,165.1878 L457.7842,160.8358 L476.3092,205.7018 L465.7672,210.0538 L459.0122,193.6938 L413.3022,212.5658 L408.3232,200.5058 Z M434.5693,262.6196 L444.3383,270.2206 C439.6643,274.2856 435.5123,280.7516 435.1043,289.1346 C434.7533,296.3336 437.7783,299.8616 441.3333,300.0346 C451.9033,300.5486 446.2263,265.1976 469.0983,266.3116 C479.2143,266.8046 487.1713,275.9606 486.4733,290.2676 C486.0043,299.9276 482.6963,307.8046 476.8443,313.5476 L467.5363,305.8776 C472.3333,301.1796 474.7493,294.7206 475.0493,288.5236 C475.3173,283.0566 473.0983,279.8426 469.4533,279.6646 C459.8853,279.1996 464.6543,314.4146 441.9643,313.3096 C430.8463,312.7676 422.8543,304.3396 423.6493,288.0296 C424.2213,276.2736 428.5483,268.0806 434.5693,262.6196 Z" id="uE058-get-tickets" fill="#000000"></path>
    </g>
</svg>