<?xml version="1.0" encoding="UTF-8"?>
<svg width="843px" height="568px" viewBox="0 0 843 568" version="1.1" xmlns="http://www.w3.org/2000/svg" xmlns:xlink="http://www.w3.org/1999/xlink">
    <!-- Generator: Sketch 43.1 (39012) - http://www.bohemiancoding.com/sketch -->
    <title>uE055-tickets-4</title>
    <desc>Created with Sketch.</desc>
    <defs></defs>
    <g id="Page-1" stroke="none" stroke-width="1" fill="none" fill-rule="evenodd">
        <path d="M405.02097,82.4292525 L587.814322,39.4207849 L769.27287,465.198121 L405.02097,82.4292525 Z M388.15973,238.878776 L388.15973,116.855507 L701.977409,446.615952 L388.15973,238.878776 Z M57.9720198,246.616837 L197.987584,156.227627 L684.667675,478.401525 L57.9720198,246.616837 Z M840.092213,540.067919 L614.68125,11.1958016 C611.253474,3.16553414 602.678695,-1.25003073 594.253415,0.741302446 L366.258272,54.3882511 C366.06606,54.4315409 365.905884,54.550588 365.702994,54.5938779 C364.549723,54.9077293 363.428488,55.3298054 362.382002,55.8709285 C362.018936,56.0549104 361.655869,56.2497147 361.314159,56.4553415 C360.321065,57.0397545 359.413399,57.6999247 358.559124,58.4574971 C358.356234,58.6523015 358.099952,58.803816 357.90774,59.0094427 C356.903968,59.9942869 356.028337,61.0873556 355.270168,62.2778265 C355.099313,62.5483881 354.971172,62.8405946 354.810996,63.1219787 C354.255718,64.1068228 353.796545,65.1457792 353.433478,66.238848 C353.358729,66.4661197 353.209231,66.6501016 353.155839,66.8773733 C353.102447,67.0505327 353.113126,67.245337 353.070412,67.4293189 C352.760737,68.5656775 352.600561,69.745326 352.525812,70.9574418 C352.515134,71.2280034 352.451063,71.4985649 352.440385,71.779949 C352.440385,71.8557062 352.419028,71.9314635 352.419028,72.0072207 L352.419028,215.231695 L207.875809,119.528655 C201.991995,115.643391 194.41031,115.600101 188.515817,119.420431 L8.26393169,235.794374 C2.52961519,239.484834 -0.631199863,246.173116 0.105611754,253.023735 C0.831744943,259.874354 5.34872051,265.707662 11.7344212,268.066959 L818.276182,566.366504 C818.863495,566.582953 819.461487,566.777758 820.059479,566.961739 C821.575816,567.362171 823.102832,567.556975 824.629847,567.556975 L825.014271,567.556975 C834.785033,567.44875 842.665714,559.386015 842.665714,549.461817 C842.665714,546.020274 841.726012,542.806002 840.092213,540.067919 L840.092213,540.067919 Z" id="uE055-tickets-4" fill="#000000"></path>
    </g>
</svg>