<?xml version="1.0" encoding="UTF-8"?>
<svg width="769px" height="915px" viewBox="0 0 769 915" version="1.1" xmlns="http://www.w3.org/2000/svg" xmlns:xlink="http://www.w3.org/1999/xlink">
    <!-- Generator: Sketch 43.1 (39012) - http://www.bohemiancoding.com/sketch -->
    <title>uE052-tickets-1</title>
    <desc>Created with Sketch.</desc>
    <defs></defs>
    <g id="Page-1" stroke="none" stroke-width="1" fill="none" fill-rule="evenodd">
        <path d="M371.500684,23.2070151 C245.573535,150.005585 220.578988,278.505499 216.360207,345.729351 C189.194025,310.595897 144.474948,289.073199 93.0196539,287.620832 C70.3627261,287.399519 48.466562,290.331917 28.1472538,299.557907 C66.7802204,141.706344 209.250524,27.5364524 371.500684,23.2070151 L371.500684,23.2070151 Z M740.775411,319.157948 C720.871065,309.87663 698.601435,304.52362 676.525454,303.306398 C625.07016,301.867862 580.309587,320.541155 550.888778,353.821111 C549.975861,286.209961 531.219577,156.852459 413.688493,24.4380691 C575.509859,38.6297712 710.414021,160.033834 740.775411,319.157948 L740.775411,319.157948 Z M221.79621,414.737539 L221.79621,414.737539 L338.179232,845.620298 L27.7184596,324.801432 C47.65047,313.984754 69.1455041,309.4755 91.8024319,309.696813 C160.215842,311.95144 212.611716,354.208409 221.79621,414.737539 L221.79621,414.737539 Z M244.660618,412.39992 C258.921481,355.245814 317.126824,316.474527 383.562248,317.539596 C450.979749,319.199444 506.529335,360.654153 517.691814,415.67812 L372.247616,884.88954 L244.660618,412.39992 Z M676.304141,325.977157 C698.974901,326.19847 720.649752,332.533558 740.346617,344.38764 L410.520949,843.545488 L541.5383,420.630001 C542.935339,416.106914 543.723766,412.552073 545.106973,408.028986 C545.701752,407.04691 546.89131,405.068924 546.49018,403.492068 L547.084959,402.509991 C566.850985,354.042424 616.57727,324.912088 676.304141,325.977157 L676.304141,325.977157 Z M391.792329,34.0651887 C521.329648,177.738882 529.83637,319.697398 526.613498,374.098923 C500.858187,327.747662 446.083196,296.127554 384.392172,293.886759 C322.092537,292.641873 266.653607,322.325491 237.813745,368.040477 C237.675424,316.972481 252.046943,172.690177 391.792329,34.0651887 L391.792329,34.0651887 Z M390.53361,914.669983 L765.977439,346.39329 L767.747944,343.433228 C768.342723,342.451151 767.955425,340.874295 768.550204,339.892218 C745.11868,151.402624 583.255818,5.70944871 393.410681,0.162789338 C203.565544,-5.38387004 34.067379,131.415285 0.925743408,318.065214 C0.330964473,319.061123 -0.263814463,320.0432 0.123483449,321.620056 C0.524613429,323.18308 0.91191134,324.773767 1.89398819,325.368546 L353.463667,913.853891 L390.53361,914.669983 Z" id="uE052-tickets-1" fill="#000000"></path>
    </g>
</svg>