<svg version="1.1" id="Layer_1" xmlns="http://www.w3.org/2000/svg" xmlns:xlink="http://www.w3.org/1999/xlink" x="0" y="0" viewBox="0 0 154.6 130" xml:space="preserve" enable-background="new 0 0 154.6 130"><g><g><path d="M96.2,8.4c-1.2-2.7-3.6-4.1-6-4.4c-1.3-0.1-2.7,0.1-3.9,0.6l0,0c-1,0.4-2,1.1-2.8,2L6.1,97.2c-4.7,5.6-0.8,12.1,4.6,12.8 l65.7,7.9l65.7,7.9c2,0.2,3.9-0.3,5.4-1.4l0,0c1.5-1.1,2.7-2.9,3-4.8l0,0l0.1-0.4c0.2-1.5-0.1-2.9-0.8-4.3L96.2,8.4z M146.6,123.3 L146.6,123.3c-1.1,0.9-2.8,1.4-4.4,1.2l-65.7-7.9l-65.7-7.9c-4.5-0.5-7.5-6-3.7-10.4L84.6,7.6C85.2,6.9,86,6.4,86.8,6l0,0 c1-0.4,2.1-0.6,3.2-0.5c2,0.2,4,1.4,4.8,3.5l0,0l53.6,106.5c0.7,1.4,0.7,2.4,0.6,3.9C148.7,121,147.8,122.4,146.6,123.3z"/><path d="M153.4,113.1L99.8,6.7c-1.6-3.8-5.3-6.2-9.2-6.6c-3.6-0.4-7.5,0.8-10.2,4L3.1,94.5c-1.8,2-2.8,4.3-3,6.6l0,0 c-0.8,6.3,3.8,12.1,10.2,12.9l0,0l65.7,7.9l65.7,7.9C150.7,131,157.6,121.4,153.4,113.1z M141.9,127l-65.7-7.9l-65.7-7.9l0,0 c-4.8-0.6-8.2-5-7.7-9.7l0,0c0.2-1.8,1-3.4,2.4-5l0,0L82.6,5.9c2-2.3,4.9-3.3,7.7-3c2.7,0.3,5.4,2,6.9,5.1l0,0l53.6,106.4 C153.9,120.7,148.8,127.9,141.9,127z"/></g><g><path d="M73.1,61.3l1.6-12.9l1.8,0.2L75,60.2l3.3,0.4l-0.2,1.3L73.1,61.3z"/><path d="M82.5,62.5c-0.5-0.1-1-0.2-1.4-0.4s-0.7-0.4-0.9-0.7c-0.2-0.3-0.4-0.6-0.5-1s-0.2-0.8-0.2-1.2s0-0.9,0.1-1.4l0.6-4.6 c0.1-0.5,0.2-1,0.3-1.4c0.1-0.4,0.3-0.8,0.5-1.1s0.5-0.6,0.7-0.8c0.3-0.2,0.6-0.4,1.1-0.4c0.4-0.1,0.9-0.1,1.4,0 c1.2,0.1,2,0.6,2.4,1.2c0.4,0.7,0.6,1.6,0.4,2.9l-0.1,1L85,54.3l0.1-0.9c0-0.2,0-0.3,0.1-0.5c0-0.1,0-0.3,0-0.4c0-0.2,0-0.3,0-0.4 c0-0.1,0-0.2,0-0.3s-0.1-0.2-0.1-0.3s-0.1-0.2-0.2-0.2c-0.1-0.1-0.1-0.2-0.2-0.2C84.6,51,84.5,51,84.4,51c-0.1,0-0.3-0.1-0.4-0.1 c-0.2,0-0.5,0-0.7,0s-0.4,0.1-0.5,0.2c-0.1,0.1-0.2,0.2-0.3,0.3c-0.1,0.1-0.2,0.3-0.2,0.5c-0.1,0.2-0.1,0.4-0.2,0.6 c0,0.2-0.1,0.5-0.1,0.8l-0.6,5.1c-0.1,1-0.1,1.7,0.1,2.1c0.2,0.4,0.6,0.6,1.2,0.7c0.2,0,0.4,0,0.6,0s0.3-0.1,0.5-0.2 c0.1-0.1,0.2-0.2,0.3-0.3c0.1-0.1,0.2-0.3,0.2-0.5c0.1-0.2,0.1-0.4,0.1-0.6c0-0.2,0.1-0.4,0.1-0.7l0.1-0.9l1.7,0.2l-0.1,1 c-0.1,0.5-0.1,0.9-0.3,1.3c-0.1,0.4-0.3,0.7-0.5,1.1c-0.2,0.3-0.4,0.6-0.7,0.8c-0.3,0.2-0.6,0.3-1,0.4 C83.4,62.6,83,62.6,82.5,62.5z"/><path d="M89.4,63.2l0.5-4.5L88.2,50l1.7,0.2l1.2,6.4l2.7-6l1.7,0.2l-3.8,8l-0.5,4.5L89.4,63.2z"/></g><g><ellipse transform="matrix(0.1197 -0.9928 0.9928 0.1197 -53.7215 99.8098)" cx="29.4" cy="80.2" rx="1.2" ry="1.2"/><ellipse transform="matrix(0.1201 -0.9928 0.9928 0.1201 -49.1719 106.3054)" cx="35.4" cy="80.9" rx="1.2" ry="1.2"/><ellipse transform="matrix(0.1201 -0.9928 0.9928 0.1201 -44.6228 112.834)" cx="41.3" cy="81.6" rx="1.2" ry="1.2"/><ellipse transform="matrix(0.1201 -0.9928 0.9928 0.1201 -40.1075 119.5482)" cx="47.4" cy="82.4" rx="1.2" ry="1.2"/><ellipse transform="matrix(0.1201 -0.9928 0.9928 0.1201 -35.5588 126.0789)" cx="53.3" cy="83.1" rx="1.2" ry="1.2"/><ellipse transform="matrix(0.12 -0.9928 0.9928 0.12 -31.0083 132.6203)" cx="59.3" cy="83.8" rx="1.2" ry="1.2"/><ellipse transform="matrix(0.1201 -0.9928 0.9928 0.1201 -26.4612 139.1409)" cx="65.3" cy="84.5" rx="1.2" ry="1.2"/><ellipse transform="matrix(0.12 -0.9928 0.9928 0.12 -21.9087 145.6792)" cx="71.2" cy="85.2" rx="1.2" ry="1.2"/><ellipse transform="matrix(0.1197 -0.9928 0.9928 0.1197 -17.3802 152.4269)" cx="77.3" cy="86" rx="1.2" ry="1.2"/><ellipse transform="matrix(0.12 -0.9928 0.9928 0.12 -12.8433 158.9234)" cx="83.2" cy="86.7" rx="1.2" ry="1.2"/><ellipse transform="matrix(0.1201 -0.9928 0.9928 0.1201 -8.3 165.4408)" cx="89.2" cy="87.4" rx="1.2" ry="1.2"/><ellipse transform="matrix(0.1197 -0.9928 0.9928 0.1197 -3.7255 172.0197)" cx="95.1" cy="88.1" rx="1.2" ry="1.2"/><ellipse transform="matrix(0.1201 -0.9928 0.9928 0.1201 0.873 178.6124)" cx="101.2" cy="88.8" rx="1.2" ry="1.2"/><ellipse transform="matrix(0.1201 -0.9928 0.9928 0.1201 5.3129 185.2179)" cx="107.1" cy="89.6" rx="1.2" ry="1.2"/><ellipse transform="matrix(0.1201 -0.9928 0.9928 0.1201 9.8619 191.7483)" cx="113.1" cy="90.3" rx="1.2" ry="1.2"/><ellipse transform="matrix(0.1201 -0.9928 0.9928 0.1201 14.4111 198.2763)" cx="119.1" cy="91" rx="1.2" ry="1.2"/><ellipse transform="matrix(0.1201 -0.9928 0.9928 0.1201 19.0358 204.9136)" cx="125.1" cy="91.7" rx="1.2" ry="1.2"/><ellipse transform="matrix(0.12 -0.9928 0.9928 0.12 23.4859 211.5311)" cx="131.1" cy="92.5" rx="1.2" ry="1.2"/></g><g><ellipse transform="matrix(0.1199 -0.9928 0.9928 0.1199 -24.3271 98.822)" cx="43.6" cy="63.1" rx="1.2" ry="1.2"/><ellipse transform="matrix(0.1204 -0.9927 0.9927 0.1204 -19.7276 105.4273)" cx="49.6" cy="63.8" rx="1.2" ry="1.2"/><ellipse transform="matrix(0.1199 -0.9928 0.9928 0.1199 -15.1512 111.9917)" cx="55.6" cy="64.5" rx="1.2" ry="1.2"/><ellipse transform="matrix(0.1199 -0.9928 0.9928 0.1199 -10.7101 118.5979)" cx="61.5" cy="65.3" rx="1.2" ry="1.2"/><ellipse transform="matrix(0.1203 -0.9927 0.9927 0.1203 -6.1895 125.0911)" cx="67.5" cy="66" rx="1.2" ry="1.2"/><ellipse transform="matrix(0.1199 -0.9928 0.9928 0.1199 -1.6098 131.6599)" cx="73.5" cy="66.7" rx="1.2" ry="1.2"/><ellipse transform="matrix(0.1199 -0.9928 0.9928 0.1199 3.0161 138.2968)" cx="79.5" cy="67.4" rx="1.2" ry="1.2"/><ellipse transform="matrix(0.1203 -0.9927 0.9927 0.1203 7.5277 144.7906)" cx="85.5" cy="68.1" rx="1.2" ry="1.2"/><ellipse transform="matrix(0.1199 -0.9928 0.9928 0.1199 12.0071 151.4342)" cx="91.4" cy="68.9" rx="1.2" ry="1.2"/><ellipse transform="matrix(0.1203 -0.9927 0.9927 0.1203 16.5131 157.9231)" cx="97.4" cy="69.6" rx="1.2" ry="1.2"/><ellipse transform="matrix(0.12 -0.9928 0.9928 0.12 21.1755 164.5962)" cx="103.4" cy="70.4" rx="1.2" ry="1.2"/><ellipse transform="matrix(0.1199 -0.9928 0.9928 0.1199 25.733 171.1359)" cx="109.4" cy="71.1" rx="1.2" ry="1.2"/><ellipse transform="matrix(0.1203 -0.9927 0.9927 0.1203 30.1211 177.6981)" cx="115.3" cy="71.9" rx="1.2" ry="1.2"/><ellipse transform="matrix(0.1199 -0.9928 0.9928 0.1199 34.7241 184.2734)" cx="121.3" cy="72.6" rx="1.2" ry="1.2"/></g><g><path d="M94,22.8l-2.7-0.4c-2.1-0.3-2.6,0.6-2.8,1.9l-0.4,2.9l5.1,0.7l-1.3,4.4l-4.4-0.6L86,43.2l-5.3-0.7L82.2,31l-4.4-0.6 l0.6-4.5l4.4,0.6l0.4-3.3c0.5-3.9,3.5-5.6,7.4-5.1c1.9,0.2,3.5,0.6,3.9,0.7L94,22.8z"/></g><g><path d="M53,77.3l-5.4-0.7l0.1-0.8c1.8-1,3-1.8,3.8-2.4c0.7-0.6,1.2-1.2,1.2-1.8c0.1-0.5-0.1-0.8-0.3-1.1 c-0.3-0.3-0.7-0.5-1.1-0.5c-0.9-0.1-1.7,0.1-2.3,0.7L48.5,70c0.4-0.3,0.8-0.6,1.3-0.7s1-0.2,1.6-0.1c0.7,0.1,1.3,0.4,1.8,0.8 c0.5,0.5,0.7,1.1,0.6,1.8c-0.1,0.7-0.5,1.4-1.2,2s-1.8,1.3-3.2,2.2l3.9,0.5L53,77.3z"/><path d="M57,78c-0.9-0.1-1.6-0.5-2.1-1.2l0.6-0.6c0.4,0.6,0.9,0.9,1.6,1c0.5,0.1,0.9,0,1.3-0.3c0.4-0.3,0.7-0.6,0.9-1 s0.3-0.9,0.4-1.4c0-0.1,0-0.2,0-0.3c-0.2,0.3-0.6,0.5-1,0.7C58.4,75,57.9,75,57.4,75c-0.7-0.1-1.3-0.4-1.8-0.9 c-0.4-0.5-0.6-1.1-0.5-1.9c0.1-0.7,0.4-1.3,1-1.7c0.6-0.4,1.3-0.6,2.1-0.5c0.5,0.1,1,0.2,1.3,0.5c0.4,0.3,0.6,0.6,0.8,1 s0.3,0.9,0.4,1.3c0.1,0.5,0,1,0,1.5c-0.1,0.7-0.3,1.4-0.6,1.9c-0.3,0.6-0.7,1-1.3,1.3C58.4,77.9,57.8,78,57,78z M57.8,74.2 c0.4,0.1,0.8,0,1.2-0.2s0.7-0.4,1-0.7c0-0.3,0-0.5-0.1-0.8c0-0.3-0.1-0.5-0.3-0.7c-0.1-0.2-0.3-0.4-0.5-0.6s-0.5-0.3-0.8-0.3 c-0.6-0.1-1,0-1.4,0.3s-0.6,0.6-0.6,1.1c-0.1,0.5,0,1,0.3,1.3C56.8,73.9,57.2,74.1,57.8,74.2z"/><path d="M70.4,79.8c-1.3-0.2-2.2-0.7-2.9-1.6l0.7-0.7c0.5,0.8,1.3,1.3,2.3,1.4c0.6,0.1,1.1,0,1.5-0.2c0.3-0.2,0.5-0.5,0.6-0.9 c0-0.4-0.1-0.7-0.4-0.9c-0.3-0.3-0.7-0.5-1.1-0.7s-0.9-0.4-1.3-0.6s-0.8-0.5-1.1-0.8c-0.3-0.4-0.4-0.8-0.3-1.3 c0.1-0.6,0.4-1.1,1-1.4s1.2-0.4,2-0.3c1.2,0.2,2,0.6,2.6,1.5l-0.7,0.6c-0.5-0.7-1.2-1.1-2.1-1.2c-0.5-0.1-0.9,0-1.2,0.2 c-0.3,0.2-0.5,0.5-0.6,0.8c0,0.3,0,0.5,0.3,0.7c0.2,0.2,0.5,0.4,0.8,0.5s0.7,0.3,1.1,0.5s0.7,0.4,1.1,0.6c0.3,0.2,0.6,0.5,0.8,0.8 c0.2,0.3,0.3,0.7,0.2,1.2c-0.1,0.6-0.4,1.1-0.9,1.5C72.2,79.8,71.4,79.9,70.4,79.8z"/><path d="M79.9,81l-5.2-0.7l1.1-7.7l5.2,0.7l-0.1,0.9l-4.2-0.6L76.4,76l4.1,0.6l-0.1,0.9l-4.1-0.6l-0.4,2.7l4.2,0.6L79.9,81z"/><path d="M82.5,81.3l-1-0.1l1.1-7.7l3.2,0.4c0.8,0.1,1.3,0.4,1.7,0.9c0.4,0.5,0.5,1.1,0.4,1.7c-0.1,0.7-0.4,1.2-0.9,1.6 s-1.1,0.5-1.9,0.4l-2.2-0.3L82.5,81.3z M85.1,77.7c0.5,0.1,0.9,0,1.2-0.3c0.3-0.2,0.5-0.6,0.6-1s0-0.8-0.3-1.1s-0.6-0.5-1.1-0.6 l-2.1-0.3l-0.4,3L85.1,77.7z"/><path d="M99.7,83.7L94.3,83l0.1-0.8c1.8-1,3-1.8,3.8-2.4c0.7-0.6,1.2-1.2,1.2-1.8c0.1-0.5-0.1-0.8-0.3-1.1 c-0.3-0.3-0.7-0.5-1.1-0.5c-0.9-0.1-1.7,0.1-2.3,0.7l-0.5-0.7c0.4-0.3,0.8-0.6,1.3-0.7s1-0.2,1.6-0.1c0.7,0.1,1.3,0.4,1.8,0.8 c0.5,0.5,0.7,1.1,0.6,1.8c-0.1,0.7-0.5,1.4-1.2,2s-1.8,1.3-3.2,2.2l3.9,0.5L99.7,83.7z"/><path d="M104.1,84.4c-0.5-0.1-1-0.3-1.3-0.5c-0.4-0.3-0.6-0.6-0.8-1.1c-0.2-0.4-0.3-0.9-0.3-1.3c-0.1-0.5,0-1,0-1.4 c0.1-0.5,0.2-1,0.4-1.4c0.2-0.4,0.4-0.8,0.7-1.2c0.3-0.4,0.6-0.6,1.1-0.8c0.4-0.2,0.9-0.2,1.4-0.2c0.5,0.1,1,0.3,1.3,0.5 c0.4,0.3,0.6,0.6,0.8,1.1c0.2,0.4,0.3,0.9,0.3,1.3c0.1,0.5,0,1,0,1.4c-0.1,0.5-0.2,1-0.4,1.4c-0.2,0.4-0.4,0.8-0.7,1.2 c-0.3,0.4-0.6,0.6-1.1,0.8C105.1,84.4,104.6,84.5,104.1,84.4z M103.1,82.9c0.3,0.4,0.6,0.6,1.1,0.6c0.5,0.1,0.9,0,1.2-0.3 c0.4-0.3,0.6-0.6,0.8-1.1c0.2-0.4,0.3-0.9,0.4-1.5s0.1-1.1,0-1.5c-0.1-0.5-0.2-0.9-0.5-1.2c-0.3-0.4-0.6-0.6-1.1-0.6 c-0.5-0.1-0.9,0-1.2,0.3c-0.4,0.3-0.6,0.6-0.8,1.1c-0.2,0.4-0.3,0.9-0.4,1.5s-0.1,1.1,0,1.5C102.7,82.2,102.9,82.6,103.1,82.9z"/><path d="M110.8,85.2l-1-0.1l0.9-6.5l-1.4,1.1l-0.5-0.7l2.2-1.7l0.9,0.1L110.8,85.2z"/><path d="M114.3,85.7l-1.1-0.1l4.1-6.4l-4.2-0.6l0.1-0.9l5.4,0.7l-0.1,0.7L114.3,85.7z"/></g><g><path d="M24,84.7l4.9,0.6l-0.3,2.3l-1.9-0.2L26,94l1.9,0.2l-0.3,2.3l-1.9-0.2l-1.3,11l-3.1-0.4L24,84.7z"/><path d="M37.6,86.4l4.6,0.6l-1,22.4l-3.1-0.4l0.4-5.1l-1.4-0.2l-0.8,5l-3.1-0.4L37.6,86.4z M39.4,90l-1.9,11.4l1.2,0.1L39.4,90 L39.4,90z"/><path d="M58.5,93.2L58,96.6l-3.1-0.4l0.6-4.5c0-0.3,0-0.5,0-0.6c-0.1-0.1-0.2-0.2-0.4-0.2s-0.3,0-0.4,0.1 c-0.1,0.1-0.2,0.3-0.2,0.6l-2,16.1c0,0.3,0,0.5,0,0.6c0.1,0.1,0.2,0.2,0.4,0.2s0.3,0,0.4-0.1c0.1-0.1,0.2-0.3,0.2-0.6l0.8-6.3 l3.1,0.4l-0.6,5.2c-0.2,1.9-0.6,3.1-1.1,3.5s-1.5,0.5-2.9,0.3c-1.6-0.2-2.5-0.5-2.9-1s-0.5-1.7-0.2-3.6l1.7-13.9 c0.2-1.9,0.6-3,1.1-3.4s1.5-0.5,3-0.3s2.4,0.5,2.8,1C58.6,90.1,58.7,91.3,58.5,93.2z"/><path d="M66.8,90l4.9,0.6l-0.3,2.3l-1.8-0.2l-0.8,6.5l1.8,0.2l-0.3,2.3l-1.8-0.2l-1.1,8.6l1.8,0.2l-0.3,2.3L64,112L66.8,90z"/><path d="M79.9,91.6l4.1,0.5c1.1,0.1,1.8,0.5,2.2,1.1c0.4,0.6,0.5,1.5,0.4,2.7l-0.4,3.4c-0.1,0.9-0.3,1.6-0.6,2.1 c-0.3,0.5-0.7,0.8-1.2,1c0.5,0.3,0.8,0.7,0.9,1.2c0.2,0.5,0.2,1.2,0,2.2l-0.5,4.5c-0.2,1.9-0.6,3.1-1.2,3.5 c-0.5,0.5-1.6,0.6-3.1,0.4l-3.4-0.4L79.9,91.6z M81.6,103.6l-1,8.2h0.1c0,0,0.1,0,0.2,0c0.3,0,0.5,0,0.6-0.1s0.2-0.3,0.3-0.6 l0.8-6.6c0-0.3,0-0.5-0.1-0.6s-0.3-0.2-0.5-0.3H81.6z M82.7,94.3l-0.8,6.6H82h0.1c0.3,0,0.5,0,0.6-0.1s0.2-0.3,0.3-0.6l0.6-5 c0-0.2,0-0.4-0.1-0.6s-0.3-0.2-0.5-0.3H82.7z"/><path d="M102,98.5l-1.7,13.9c-0.2,1.9-0.6,3.1-1.1,3.5s-1.5,0.5-2.9,0.3c-1.6-0.2-2.5-0.5-2.9-1s-0.5-1.7-0.2-3.6l1.7-13.9 c0.2-1.9,0.6-3,1.1-3.4s1.5-0.5,3-0.3s2.4,0.5,2.8,1C102.1,95.4,102.2,96.6,102,98.5z M99,97.1c0-0.3,0-0.5,0-0.6 c-0.1-0.1-0.2-0.2-0.4-0.2c-0.2,0-0.3,0-0.4,0.1S98,96.7,98,97l-2,16c0,0.3,0,0.5,0,0.6s0.2,0.2,0.4,0.2c0.2,0,0.3,0,0.4-0.1 s0.2-0.3,0.2-0.6L99,97.1z"/><path d="M117.2,100.4l-1.7,13.9c-0.2,1.9-0.6,3.1-1.1,3.5s-1.5,0.5-2.9,0.3c-1.6-0.2-2.5-0.5-2.9-1s-0.5-1.7-0.2-3.6l1.7-13.9 c0.2-1.9,0.6-3,1.1-3.4s1.5-0.5,3-0.3s2.4,0.5,2.8,1C117.3,97.3,117.4,98.5,117.2,100.4z M114.2,98.9c0-0.3,0-0.5,0-0.6 c-0.1-0.1-0.2-0.2-0.4-0.2c-0.2,0-0.3,0-0.4,0.1s-0.2,0.3-0.2,0.6l-2,16.1c0,0.3,0,0.5,0,0.6c0.1,0.1,0.2,0.2,0.4,0.2 c0.2,0,0.3,0,0.4-0.1s0.2-0.3,0.2-0.6L114.2,98.9z"/><path d="M125.8,97.3l3,0.4l-1.1,8.8h0.2l2.2-8.6l3.1,0.4l-3.1,9.4l0.4,12.7l-3.1-0.4l0.2-11h-0.2l-1.3,10.9l-3-0.4L125.8,97.3z"/></g></g></svg>