<?xml version="1.0" encoding="UTF-8"?>
<svg width="449px" height="501px" viewBox="0 0 449 501" version="1.1" xmlns="http://www.w3.org/2000/svg" xmlns:xlink="http://www.w3.org/1999/xlink">
    <!-- Generator: Sketch 43.1 (39012) - http://www.bohemiancoding.com/sketch -->
    <title>uE057-download</title>
    <desc>Created with Sketch.</desc>
    <defs></defs>
    <g id="Page-1" stroke="none" stroke-width="1" fill="none" fill-rule="evenodd">
        <path d="M398.400763,120.074809 C426.072519,120.074809 448.973282,142.975573 448.973282,169.69313 L448.973282,451.181679 C448.973282,478.853435 426.072519,500.8 398.400763,500.8 L51.0725191,500.8 C23.4007634,500.8 0.5,478.853435 0.5,451.181679 L0.5,169.69313 C0.5,142.021374 23.4007634,120.074809 51.0725191,120.074809 L153.171756,120.074809 L153.171756,139.158779 L51.0725191,139.158779 C33.8969466,139.158779 19.5839695,152.517557 19.5839695,169.69313 L19.5839695,451.181679 C19.5839695,467.403053 33.8969466,481.716031 51.0725191,481.716031 L398.400763,481.716031 C415.576336,481.716031 429.889313,468.357252 429.889313,451.181679 L429.889313,169.69313 C429.889313,153.471756 415.576336,139.158779 398.400763,139.158779 L296.301527,139.158779 L296.301527,120.074809 L398.400763,120.074809 Z M146.492366,255.570992 L159.851145,242.212214 L215.194656,293.738931 L215.194656,0.8 L234.278626,0.8 L234.278626,293.738931 L289.622137,241.258015 L302.980916,255.570992 L231.416031,322.364885 C229.507634,324.273282 227.599237,325.227481 224.736641,325.227481 C221.874046,325.227481 219.965649,324.273282 218.057252,322.364885 L146.492366,255.570992 Z" id="uE057-download" fill="#000000" fill-rule="nonzero"></path>
    </g>
</svg>