<?xml version="1.0" encoding="UTF-8"?>
<svg width="982px" height="500px" viewBox="0 0 982 500" version="1.1" xmlns="http://www.w3.org/2000/svg" xmlns:xlink="http://www.w3.org/1999/xlink">
    <!-- Generator: Sketch 43.1 (39012) - http://www.bohemiancoding.com/sketch -->
    <title>uE054-tickets-3</title>
    <desc>Created with Sketch.</desc>
    <defs></defs>
    <g id="Page-1" stroke="none" stroke-width="1" fill="none" fill-rule="evenodd">
        <g id="uE054-tickets-3">
            <path d="M786.544207,215.378444 L756.805356,215.378444 L756.805356,171.281952 C756.805356,168.598539 756.418059,166.648224 755.643466,165.431006 C754.85504,164.213788 753.582494,163.605179 751.853491,163.605179 C750.013832,163.605179 748.76895,164.144628 748.077349,165.237358 C747.371915,166.316255 747.026115,168.349563 747.026115,171.281952 L747.026115,215.890229 C747.026115,219.7217 747.482572,222.32212 748.395485,223.732987 C749.308399,225.102357 751.327874,226.803696 754.467744,228.809339 L772.587695,239.764302 C777.622552,242.793516 781.205046,246.417506 783.34901,250.580945 C785.479141,254.758216 786.544207,261.010291 786.544207,269.351001 L786.544207,318.012062 C786.544207,336.699126 784.344915,348.248866 779.946332,352.702777 C775.56158,357.129025 765.892995,359.342149 750.940578,359.342149 C737.28837,359.342149 728.26989,357.101361 723.885139,352.619785 C719.486555,348.152042 717.287263,336.602302 717.287263,318.012062 L717.287263,266.764413 L747.026115,266.764413 L747.026115,328.690384 C747.026115,331.650437 747.39958,333.711409 748.132677,334.900963 C748.865774,336.062853 750.110656,336.65763 751.853491,336.65763 C753.499502,336.65763 754.744384,336.007525 755.574306,334.693482 C756.390395,333.37944 756.805356,331.387629 756.805356,328.690384 L756.805356,271.190661 C756.805356,267.539006 756.362731,265.063074 755.505146,263.762864 C754.633728,262.434989 752.586588,260.747483 749.363727,258.672679 L730.980967,247.441076 C726.029103,244.425694 722.501936,240.884696 720.427133,236.887241 C718.338497,232.889786 717.287263,226.62388 717.287263,218.103353 L717.287263,181.987938 C717.287263,163.287042 719.458891,151.72347 723.815979,147.297223 C728.159234,142.870975 737.509682,140.657851 751.853491,140.657851 C766.1973,140.657851 775.56158,142.912471 779.946332,147.435543 C784.344915,151.944783 786.544207,163.466858 786.544207,181.987938 L786.544207,215.378444 Z" id="Combined-Shape" fill="#000000"></path>
            <polygon id="Combined-Shape" fill="#000000" points="688.405998 164.130796 674.850614 164.130796 674.850614 358.290915 645.236251 358.290915 645.236251 164.130796 631.556379 164.130796 631.556379 141.432444 688.405998 141.432444"></polygon>
            <polygon id="Combined-Shape" fill="#000000" points="602.135664 164.130796 584.527498 164.130796 584.527498 228.020914 602.135664 228.020914 602.135664 250.968242 584.527498 250.968242 584.527498 335.357419 602.135664 335.357419 602.135664 358.290915 554.926967 358.290915 554.926967 141.432444 602.135664 141.432444"></polygon>
            <polygon id="Combined-Shape" fill="#000000" points="523.016488 358.290915 493.678765 358.290915 482.723802 251.756667 481.160783 251.756667 481.160783 358.290915 452.348678 358.290915 452.348678 141.432444 481.160783 141.432444 481.160783 227.108 482.723802 227.108 493.678765 141.432444 523.016488 141.432444 504.384752 236.237136"></polygon>
            <path d="M418.086754,215.378444 L388.361735,215.378444 L388.361735,171.281952 C388.361735,168.501715 387.98827,166.537568 387.255173,165.361846 C386.508244,164.186124 385.304858,163.605179 383.658847,163.605179 C381.83302,163.605179 380.53281,164.186124 379.758216,165.361846 C378.969791,166.537568 378.582494,168.501715 378.582494,171.281952 L378.582494,328.690384 C378.582494,331.567445 378.969791,333.600752 379.758216,334.831803 C380.53281,336.049021 381.83302,336.65763 383.658847,336.65763 C385.304858,336.65763 386.508244,336.049021 387.255173,334.831803 C387.98827,333.600752 388.361735,331.567445 388.361735,328.690384 L388.361735,266.764413 L418.086754,266.764413 L418.086754,318.012062 C418.086754,336.699126 415.915127,348.248866 411.571871,352.702777 C407.214784,357.129025 398.182472,359.342149 384.447272,359.342149 C369.494854,359.342149 359.812438,357.156689 355.427686,352.758106 C351.042935,348.373354 348.843643,336.782118 348.843643,318.012062 L348.843643,181.987938 C348.843643,163.466858 351.042935,151.944783 355.427686,147.435543 C359.812438,142.912471 369.232046,140.657851 383.658847,140.657851 C397.919664,140.657851 407.214784,142.870975 411.571871,147.297223 C415.915127,151.72347 418.086754,163.287042 418.086754,181.987938 L418.086754,215.378444 Z" id="Combined-Shape" fill="#000000"></path>
            <polygon id="Combined-Shape" fill="#000000" points="282.657408 358.290915 312.25794 358.290915 312.25794 141.432444 282.657408 141.432444"></polygon>
            <polygon id="Combined-Shape" fill="#000000" points="252.060972 164.130796 238.505588 164.130796 238.505588 358.290915 208.891225 358.290915 208.891225 164.130796 195.211353 164.130796 195.211353 141.432444 252.060972 141.432444"></polygon>
        </g>
    </g>
</svg>