<?xml version="1.0" encoding="UTF-8"?>
<svg width="574px" height="860px" viewBox="0 0 574 860" version="1.1" xmlns="http://www.w3.org/2000/svg" xmlns:xlink="http://www.w3.org/1999/xlink">
    <!-- Generator: Sketch 43.1 (39012) - http://www.bohemiancoding.com/sketch -->
    <title>uE055-tickets-4</title>
    <desc>Created with Sketch.</desc>
    <defs></defs>
    <g id="Page-1" stroke="none" stroke-width="1" fill="none" fill-rule="evenodd">
        <path d="M240.787224,91.6751958 L251.692866,262.305429 L361.990333,179.508858 C361.990333,179.508858 368.631758,173.104295 376.693799,173.682515 C384.75584,174.260735 389.661147,179.508858 389.661147,179.508858 L568.169144,328.23991 C568.169144,328.23991 573.091172,332.334619 573.841065,339.098103 C574.590959,345.861587 570.222099,353.253761 570.222099,353.253761 L283.047526,852.313151 C283.047526,852.313151 277.281901,861.155599 266.462457,859.975439 C255.643012,858.795279 250.93099,849.03125 250.93099,849.03125 L2.76678635,23.3878875 C2.76678635,23.3878875 -5.01056521,12.6262281 9.35491548,4.27710319 C23.7203962,-4.07202173 31.2079908,4.27710319 31.2079908,4.27710319 L228.979744,74.0373864 C228.979744,74.0373864 233.673412,75.7065283 237.522203,80.8788917 C241.370995,86.0512551 240.787224,91.6751958 240.787224,91.6751958 Z M205.408229,104.997415 L52.180123,50.4366334 L240.603644,686.707661 L205.408229,104.997415 Z M276.459481,681.217688 L351.185087,232.708346 L253.731435,306.746945 L276.459481,681.217688 Z M302.103201,746.549102 L532.679162,346.370471 L388.362364,226.135986 L302.103201,746.549102 Z" id="uE055-tickets-4" fill="#000000"></path>
    </g>
</svg>