<?xml version="1.0" encoding="UTF-8"?>
<svg width="503px" height="500px" viewBox="0 0 503 500" version="1.1" xmlns="http://www.w3.org/2000/svg" xmlns:xlink="http://www.w3.org/1999/xlink">
    <!-- Generator: Sketch 43.1 (39012) - http://www.bohemiancoding.com/sketch -->
    <title>uE058-get-tickets</title>
    <desc>Created with Sketch.</desc>
    <defs></defs>
    <g id="Page-1" stroke="none" stroke-width="1" fill="none" fill-rule="evenodd">
        <path d="M290.060241,75.9036145 C279.116466,73.6947791 270.682731,68.373494 264.759036,59.939759 C258.73494,51.5060241 256.927711,41.7670683 259.236948,30.62249 C261.546185,19.4779116 267.068273,11.1445783 275.903614,5.82329317 C284.738956,0.502008032 294.578313,-1.00401606 305.421687,1.20481928 C318.473896,3.91566265 327.309237,11.3453815 331.827309,23.4939759 L317.771084,27.811245 C316.566265,24.6987952 314.558233,21.9879518 311.947791,19.5783133 C309.337349,17.1686747 306.2249,15.6626506 302.610442,14.8594378 C296.084337,13.5542169 290.160643,14.6586345 284.939759,18.1726908 C279.718876,21.7871486 276.405622,27.0080321 275,33.8353414 C273.594378,40.6626506 274.598394,46.7871486 277.911647,52.1084337 C281.325301,57.4297189 286.24498,60.8433735 292.771084,62.1485944 C295.682731,62.751004 298.694779,62.8514056 301.807229,62.3493976 C304.819277,61.8473896 307.329317,61.0441767 309.236948,59.8393574 L311.044177,51.2048193 L291.967871,47.2891566 L294.779116,33.8353414 L329.216867,40.9638554 L323.493976,68.6746988 C313.554217,76.1044177 302.409639,78.4136546 290.060241,75.9036145 Z M388.15261,131.827309 L348.795181,97.5903614 L397.188755,41.9678715 L436.546185,76.2048193 L427.51004,86.6465863 L400,62.751004 L389.859438,74.2971888 L416.767068,97.6907631 L407.730924,108.13253 L380.823293,84.7389558 L369.779116,97.3895582 L397.289157,121.285141 L388.15261,131.827309 Z M418.875502,189.056225 L412.951807,174.39759 L468.473896,152.008032 L460.441767,132.028112 L473.293173,126.907631 L495.281124,181.425703 L482.429719,186.546185 L474.39759,166.666667 L418.875502,189.056225 Z M421.987952,297.188755 L425.702811,281.827309 L483.935743,295.682731 L488.955823,274.698795 L502.409639,277.911647 L488.75502,335.040161 L475.301205,331.827309 L480.321285,310.943775 L421.987952,297.188755 Z M390.963855,357.730924 L400.100402,344.97992 L460.040161,387.851406 L450.903614,400.60241 L390.963855,357.730924 Z M336.445783,402.409639 C346.184739,396.686747 356.024096,394.879518 366.064257,397.188755 C376.104418,399.497992 384.036145,405.421687 389.759036,415.060241 C395.481928,424.799197 396.987952,434.538153 394.176707,444.477912 C391.365462,454.417671 385.140562,462.248996 375.401606,467.971888 C363.554217,475 351.706827,475.100402 339.759036,468.172691 L347.991968,455.62249 C351.004016,457.429719 354.317269,458.433735 358.032129,458.634538 C361.746988,458.73494 365.160643,457.931727 368.273092,456.124498 C373.995984,452.710843 377.610442,447.891566 379.116466,441.767068 C380.522088,435.64257 379.518072,429.518072 375.903614,423.493976 C372.289157,417.46988 367.46988,413.654618 361.445783,411.947791 C355.321285,410.240964 349.39759,411.144578 343.674699,414.558233 C340.562249,416.365462 338.15261,418.975904 336.546185,422.289157 C334.839357,425.60241 334.136546,429.016064 334.337349,432.53012 L319.37751,433.835341 C319.076305,419.779116 324.799197,409.337349 336.445783,402.409639 Z M219.076305,426.305221 L238.453815,425.903614 L261.345382,455.120482 L266.967871,448.092369 L266.566265,425.401606 L282.228916,425.100402 L283.534137,498.795181 L267.871486,499.096386 L267.269076,466.26506 L241.767068,499.598394 L222.389558,500 L251.004016,464.859438 L219.076305,426.305221 Z M146.184739,394.076305 L192.670683,417.771084 L159.236948,483.433735 L112.751004,459.738956 L118.975904,447.389558 L151.506024,463.955823 L158.534137,450.200803 L126.706827,434.036145 L132.931727,421.686747 L164.759036,437.851406 L172.389558,422.891566 L139.859438,406.325301 L146.184739,394.076305 Z M102.51004,345.883534 L111.84739,358.634538 L63.3534137,393.875502 L76.0040161,411.345382 L64.8594378,419.477912 L30.3212851,371.88755 L41.4658635,363.75502 L54.1164659,381.124498 L102.51004,345.883534 Z M76.5060241,273.995984 C78.4136546,286.947791 76.1044177,297.891566 69.5783133,306.726908 L56.2248996,300 C61.9477912,292.670683 64.0562249,284.437751 62.6506024,275.301205 C62.0481928,271.184739 60.7429719,268.172691 58.935743,266.26506 C57.0281124,264.35743 54.9196787,263.554217 52.7108434,263.855422 C50.7028112,264.156627 49.2971888,265.461847 48.2931727,267.670683 C47.2891566,269.97992 46.7871486,272.690763 46.686747,275.803213 C46.5863454,279.016064 46.2851406,282.429719 45.7831325,286.24498 C45.2811245,290.060241 44.5783133,293.574297 43.6746988,296.88755 C42.7710843,300.200803 40.9638554,303.11245 38.253012,305.62249 C35.5421687,308.13253 32.1285141,309.738956 27.811245,310.341365 C21.5863454,311.24498 15.8634538,309.538153 10.8433735,305.220884 C5.82329317,300.803213 2.71084337,294.477912 1.40562249,286.044177 C-0.301204819,274.497992 1.6064257,264.457831 7.32931727,256.124498 L20.1807229,263.052209 C15.7630522,269.578313 14.1566265,277.108434 15.3614458,285.441767 C15.8634538,288.654618 16.8674699,291.064257 18.4738956,292.670683 C20.0803213,294.277108 21.9879518,294.97992 24.0963855,294.578313 C25.8032129,294.277108 27.1084337,293.072289 28.0120482,290.763052 C28.9156627,288.554217 29.4176707,285.742972 29.5180723,282.630522 C29.7188755,279.417671 30.0200803,276.004016 30.62249,272.188755 C31.124498,268.373494 31.9277108,264.859438 32.9317269,261.546185 C33.935743,258.232932 35.7429719,255.321285 38.3534137,252.811245 C41.064257,250.301205 44.4779116,248.694779 48.7951807,248.092369 C55.8232932,247.088353 61.8473896,248.694779 66.8674699,253.012048 C71.8875502,257.630522 75.1004016,264.457831 76.5060241,273.995984 Z" id="uE058-get-tickets" fill="#000000" fill-rule="nonzero"></path>
    </g>
</svg>