<?xml version="1.0" encoding="UTF-8"?>
<svg width="500px" height="500px" viewBox="0 0 500 500" version="1.1" xmlns="http://www.w3.org/2000/svg" xmlns:xlink="http://www.w3.org/1999/xlink">
    <!-- Generator: Sketch 43.1 (39012) - http://www.bohemiancoding.com/sketch -->
    <title>uE060-plane-with-tix</title>
    <desc>Created with Sketch.</desc>
    <defs></defs>
    <g id="Page-1" stroke="none" stroke-width="1" fill="none" fill-rule="evenodd">
        <path d="M209.547009,229.55488 L205.772171,204.108803 L200.203979,190.829129 L169.745447,149.682759 C167.387853,146.497891 168.646701,141.945597 172.305641,140.424483 L185.799543,134.814727 C187.575106,134.076581 189.594826,134.219218 191.249023,135.199582 L233.741366,160.382753 C245.121749,153.51591 256.824695,147.569322 268.879451,142.586321 L296.841461,131.001026 L209.77993,17.2548757 C207.344417,14.0728698 208.587821,9.44678031 212.290423,7.91458276 L230.29652,0.463363338 C232.007316,-0.244592089 233.947109,-0.136882527 235.569009,0.756125261 L396.865177,89.5647594 L440.675276,71.4142886 C458.697052,63.9592375 478.578938,64.1030804 496.230065,71.4154944 C499.34062,72.7041185 500.818029,76.2699918 499.530289,79.380913 C492.067979,97.4083491 477.909793,111.368335 460.253096,118.688735 L416.419289,136.835575 L389.565379,229.55488 L450.847556,229.55488 C477.971583,229.55488 500.00172,251.578554 499.987799,278.692534 L499.999994,307.405948 C500.001425,310.775922 497.268891,313.508041 493.898917,313.506098 C465.551678,313.489753 442.609751,336.426627 442.609751,364.765949 C442.620651,393.122359 465.565365,416.067073 493.902433,416.067073 C497.270023,416.067073 499.999994,418.797044 499.999994,422.164634 L499.999994,450.847561 C499.999994,478.00065 477.98384,500.001731 450.847815,499.987804 L163.892304,499.999999 C163.891617,499.999999 163.890929,499.999999 163.890242,499.999999 L49.1371172,499.999998 C21.9848629,499.986078 0,478.001215 0,450.859756 L0,278.713416 C2.77284967e-12,251.568958 22.0134527,229.535309 49.1303201,229.55488 L163.911583,229.55488 L209.547009,229.55488 Z M243.991112,229.55488 L323.239021,229.55488 L316.415683,178.249629 L288.469205,189.836484 C276.416569,194.817647 263.938383,198.884334 251.027833,202.093025 L243.991112,229.55488 Z M169.988379,487.804618 L450.850685,487.792683 C471.252944,487.803154 487.804872,471.262557 487.804872,450.847561 L487.804872,427.97348 C455.597,424.907571 430.427326,397.801278 430.414629,364.768293 C430.414629,331.748219 455.583787,304.646862 487.802404,301.596631 L487.792678,278.691993 C487.80314,258.312121 471.23616,241.750002 450.847556,241.750002 L170.011617,241.750002 L169.988379,487.804618 Z M49.1280482,241.750002 C28.7487295,241.734307 12.1951218,258.302494 12.1951218,278.713416 L12.1951218,450.859756 C12.1951218,471.267077 28.7224536,487.794408 49.1402433,487.804877 L157.793257,487.804877 L157.816495,241.750002 L49.1280482,241.750002 Z M326.36585,285.871953 L326.36585,364.780488 C326.36585,372.91057 314.170728,372.91057 314.170728,364.780488 L314.170728,285.871953 C314.170728,277.741872 326.36585,277.741872 326.36585,285.871953 Z M375.146337,285.871953 L375.146337,443.701219 C375.146337,451.8313 362.951215,451.8313 362.951215,443.701219 L362.951215,285.871953 C362.951215,277.741872 375.146337,277.741872 375.146337,285.871953 Z M56.2926823,279.792685 L113.676828,279.792685 C117.044418,279.792685 119.774389,282.522656 119.774389,285.890245 L119.774389,443.701219 C119.774389,447.068809 117.044418,449.79878 113.676828,449.79878 L56.2926823,449.79878 C52.9250924,449.79878 50.1951214,447.068809 50.1951214,443.701219 L50.1951214,285.890245 C50.1951214,282.522656 52.9250924,279.792685 56.2926823,279.792685 Z M62.3902432,437.603658 L107.579267,437.603658 L107.579267,291.987806 L62.3902432,291.987806 L62.3902432,437.603658 Z M214.115851,279.792685 L271.493899,279.792685 C274.861489,279.792685 277.59146,282.522656 277.59146,285.890245 L277.59146,443.701219 C277.59146,447.068809 274.861489,449.79878 271.493899,449.79878 L214.115851,449.79878 C210.748261,449.79878 208.01829,447.068809 208.01829,443.701219 L208.01829,285.890245 C208.01829,282.522656 210.748261,279.792685 214.115851,279.792685 Z M220.213412,437.603658 L265.396338,437.603658 L265.396338,291.987806 L220.213412,291.987806 L220.213412,437.603658 Z M217.751064,201.751583 L221.875588,229.55488 L231.402007,229.55488 L240.123751,195.516971 L244.624851,191.094281 C258.198667,187.908026 271.256183,183.754781 283.804905,178.568598 L319.11588,163.928354 C323.819063,161.978373 327.678361,165.875322 327.597221,169.821019 L335.541521,229.55488 L376.869074,229.55488 L405.521183,130.626876 C406.036681,128.847002 407.333572,127.398117 409.045675,126.689321 L455.585451,107.422232 C468.321416,102.141949 478.858848,92.7224479 485.48684,80.5342753 C472.411639,76.6794532 458.306437,77.3181877 445.339938,82.6820264 L398.772865,101.974709 C396.433462,102.943921 394.265432,102.442824 392.707389,101.19694 L232.253009,12.8517884 L224.289472,16.1472311 L311.35421,129.897571 C311.35421,129.897571 313.501502,136.286052 308.882737,139.212466 C294.946819,145.113107 273.54276,153.854618 273.54276,153.854618 C260.97925,159.047921 248.804782,165.346291 236.9762,172.702344 L230.671703,172.739449 L187.659783,147.248349 L184.185425,148.692728 L210.443573,184.164808 C210.734391,184.557672 210.976915,184.98408 211.165923,185.43485 L217.391533,200.28241 L217.751064,201.751583 Z" id="uE060-plane-with-tix" fill="#000000" fill-rule="nonzero"></path>
    </g>
</svg>